<?xml version="1.0" encoding="utf-8"?>
<!-- Generator: Adobe Illustrator 21.1.0, SVG Export Plug-In . SVG Version: 6.00 Build 0)  -->
<svg version="1.1" id="Layer_1" xmlns="http://www.w3.org/2000/svg" xmlns:xlink="http://www.w3.org/1999/xlink" x="0px" y="0px"
	 viewBox="0 0 800 400" style="enable-background:new 0 0 800 400;" xml:space="preserve">
<style type="text/css">
	.st0{fill:#85005C;}
	.st1{fill:#D8DF21;}
	.st2{fill:none;stroke:#FFFFFF;stroke-miterlimit:10;}
	.st3{fill:#EC1E79;}
	.st4{fill:#1B1464;}
	.st5{fill:#53CA8F;}
	.st6{fill:#FAAF3B;}
	.st7{fill:#00CA8F;}
	.st8{fill:#FF0D89;}
</style>
<g id="XMLID_2_">
	<g>
		<path class="st0" d="M760.2,200.8c9.8,4.4,9.5,30.1,2.4,48.4c-4.1,10.7-8.4,13.3-11.3,14.3c-3.6,1.2-8.7,1.1-11.7-1.8
			c-0.8-0.8-1.4-1.7-1.8-2.7c-0.4-4.2-0.7-7-0.8-7c-0.1,0-0.6,3.8,0.8,7c0.5,5.2,1.1,12.5,1.4,18.7c0.4,8.4,0.6,12.5,0.3,14
			c-3,11.8-13.7,13.4-23.6,30.4c-2.5,4.4-1.7,4-3.8,7.5c-9,15.1-28.6,28.4-50.4,27.1c-13-0.8-22.4-6.6-26.3-9
			c-6-3.7-6.5-5.6-21.1-20.3c-18.2-18.4-19.7-17.9-21.8-23.3c-5-12.9,2.2-20.3-4.5-29.3c-4.8-6.5-9.4-3.9-15.8-11.3
			c-4-4.6-5.4-11.4-8.3-24.8c-1.7-8-2.6-15.1,0-22.6c1.2-3.3,2.3-4.7,3.8-5.3c4.9-1.9,9.8,6.5,13.5,5.3c1.6-0.5,2.5-2.7,2.9-7
			c0.6-5.9,0.4-15.8,0.1-31.3c-0.2-15.3-0.3-23.1,3-32.3c2.3-6.3,5.3-11.2,7.5-14.3c6.6-2.9,12.6-4.9,18-6.2c1.9,0.1,4-0.2,6-1.2h0
			c11.2-1.7,19.5-0.2,25.6,2.1c2.7,1,5,2.2,7.1,3.3c6.7,3.9,11.2,8.3,21.5,10.2c9.4,1.7,15-0.3,19.9-2c0.6,1.4,1.3,2.3,1.5,2.2
			c0.2-0.1,0.1-1-0.1-2.7c3.9-1.3,7.6-2.3,12.5-0.5c16.9,6,28.9,35.6,31.3,55.7c0.1,0.6,0.2,2.1,0.5,3.9c0.7,4.3,2.1,10.4,4.6,10.7
			c2.3,0.3,3.7-4.9,8.9-6.5C755.7,199.3,758.8,200.2,760.2,200.8z"/>
		<path class="st1" d="M746.1,134.9c6.2,8.8,9.1,25.6-7.2,61.1c-0.3-1.8-0.5-3.2-0.5-3.9C736,172,724,142.4,707,136.4
			c-5-1.8-8.6-0.9-12.5,0.5c-0.3-1.7-0.8-4.2-1.5-7.3c3-7.6,14.4-15.4,26.8-22.1l1.7-0.9C730.1,115.9,742.8,130.1,746.1,134.9z"/>
		<path class="st1" d="M721.5,106.6l-1.7,0.9c-12.4,6.7-23.8,14.5-26.8,22.1c-4.7-20.2-18.5-64.5-33.3-68.4
			c9.1,0.9,13.7,1.4,14.3,1.5c11.6,2.1,21.9,4.1,29.3,11.3c5.8,5.6,2.3,11.4,9.8,22.6c2.5,3.8,4.8,6.2,6.8,8.3
			C720.4,105.4,720.9,106,721.5,106.6z"/>
		<path class="st1" d="M692.3,134.7c0.1,1,0.4,1.9,0.8,2.7c-4.9,1.7-10.5,3.7-19.9,2c-10.3-1.9-14.8-6.3-21.5-10.2l0.2-0.3
			c0.1,0.1,0.2,0.1,0.3,0.1c3.8,1.1,13.1-11.3,15-25.3c2.6-19.3-19.9-34-15-40.6c1.3-1.8,3.9-2.1,5-2.2c0.9,0.1,1.7,0.2,2.5,0.3
			c14.8,3.9,28.6,48.2,33.3,68.4C692.3,131.3,692.1,133,692.3,134.7z"/>
		<path class="st1" d="M652.1,63.2c-4.8,6.6,17.6,21.3,15,40.6c-1.8,14-11.2,26.4-15,25.3c-0.1,0-0.2-0.1-0.3-0.1
			c-6.7-4-5-67.9-11.4-67.9l0.1-1.5c0.4,0,0.8,0,1.1,0.1c4.7,0.3,8.2,0.7,10.4,0.9c1.8,0.2,3.5,0.3,5,0.5
			C656,61,653.5,61.3,652.1,63.2z"/>
		<path class="st1" d="M651.9,128.9l-0.2,0.3c-2.1-1.2-4.3-2.3-7.1-3.3c-6.1-2.3-14.4-3.8-25.6-2.1c3.5-1.7,5.5-5,6.9-8.8
			c3.5-8.8-0.2-13.4,2.2-25.6c1.2-6.1,5.7-22,11.3-27.9c0.4-0.4,0.8-0.6,1.2-0.6C646.9,61,645.1,124.9,651.9,128.9z"/>
		<path class="st1" d="M640.6,59.5l-0.1,1.5c-0.4,0-0.7,0.2-1.2,0.6c-5.6,5.8-10.1,21.7-11.3,27.9c-2.3,12.2,1.3,16.7-2.2,25.6
			c-1.5,3.7-3.5,7-6.9,8.8h0c-1.9,0.3-3.9,0.7-6,1.2c-1,0-2-0.2-2.9-0.3c-12.4-2-28.7-10.5-33-12.8c2.4-3.1,3.4-6,3.7-7
			c4.1-11.8,17.3-25.5,18.8-27.1c4.4-4.8,15.6-16.9,31.6-18.8C632.1,58.9,636,59.2,640.6,59.5z"/>
		<path class="st1" d="M610,124.7c0.9,0.1,1.9,0.3,2.9,0.3c-5.4,1.3-11.4,3.3-18,6.2c-2.2,3.1-5.2,7.9-7.5,14.3
			c-3.3,9.2-3.3,17-3,32.3c0.3,15.5,0.5,25.5-0.1,31.3c-21.8-68.9-22-87.4-17.2-90c1-0.5,5.9-2.3,9.8-7.3
			C581.3,114.1,597.7,122.6,610,124.7z"/>
	</g>
	<g>
		<path class="st2" d="M619,123.8c11.2-1.7,19.5-0.2,25.6,2.1c2.7,1,5,2.2,7.1,3.3c6.7,3.9,11.2,8.3,21.5,10.2
			c9.4,1.7,15-0.3,19.9-2c0.5-0.2,0.9-0.3,1.4-0.5c3.9-1.3,7.6-2.3,12.5-0.5c16.9,6,28.9,35.6,31.3,55.7c0.1,0.6,0.2,2.1,0.5,3.9
			c0.7,4.3,2.1,10.4,4.6,10.7c2.3,0.3,3.7-4.9,8.9-6.5c3.2-1,6.4-0.1,7.8,0.6c9.8,4.4,9.5,30.1,2.4,48.4
			c-4.1,10.7-8.4,13.3-11.3,14.3c-3.6,1.2-8.7,1.1-11.7-1.8c-0.8-0.8-1.4-1.7-1.8-2.7"/>
		<path class="st2" d="M738,259.1c0.5,5.2,1.1,12.5,1.4,18.7c0.4,8.4,0.6,12.5,0.3,14c-3,11.8-13.7,13.4-23.6,30.4
			c-2.5,4.4-1.7,4-3.8,7.5c-9,15.1-28.6,28.4-50.4,27.1c-13-0.8-22.4-6.6-26.3-9c-6-3.7-6.5-5.6-21.1-20.3
			c-18.2-18.4-19.7-17.9-21.8-23.3c-5-12.9,2.2-20.3-4.5-29.3c-4.8-6.5-9.4-3.9-15.8-11.3c-4-4.6-5.4-11.4-8.3-24.8
			c-1.7-8-2.6-15.1,0-22.6c1.2-3.3,2.3-4.7,3.8-5.3c4.9-1.9,9.8,6.5,13.5,5.3c1.6-0.5,2.5-2.7,2.9-7c0.6-5.9,0.4-15.8,0.1-31.3
			c-0.2-15.3-0.3-23.1,3-32.3c2.3-6.3,5.3-11.2,7.5-14.3c6.6-2.9,12.6-4.9,18-6.2c2.1-0.5,4.1-0.9,6-1.2"/>
		<path class="st2" d="M738,259.1c-1.4-3.3-0.8-7-0.8-7C737.2,252,737.6,254.9,738,259.1z"/>
		<path class="st2" d="M584.4,209.1c-21.8-68.9-22-87.4-17.2-90c1-0.5,5.9-2.3,9.8-7.3c2.4-3.1,3.4-6,3.7-7
			c4.1-11.8,17.3-25.5,18.8-27.1c4.4-4.8,15.6-16.9,31.6-18.8c1-0.1,4.9,0.2,9.5,0.5c0.4,0,0.8,0,1.1,0.1c4.7,0.3,8.2,0.7,10.4,0.9
			c1.8,0.2,3.5,0.3,5,0.5c0.9,0.1,1.7,0.2,2.5,0.3c9.1,0.9,13.7,1.4,14.3,1.5c11.6,2.1,21.9,4.1,29.3,11.3
			c5.8,5.6,2.3,11.4,9.8,22.6c2.5,3.8,4.8,6.2,6.8,8.3c0.5,0.6,1.1,1.2,1.7,1.8c8.6,9.3,21.3,23.5,24.6,28.3
			c6.2,8.8,9.1,25.6-7.2,61.1"/>
		<path class="st2" d="M577,111.8c4.3,2.3,20.7,10.8,33,12.8c0.9,0.1,1.9,0.3,2.9,0.3c1.9,0.1,4-0.2,6-1.2h0c3.5-1.7,5.5-5,6.9-8.8
			c3.5-8.8-0.2-13.4,2.2-25.6c1.2-6.1,5.7-22,11.3-27.9c0.4-0.4,0.8-0.6,1.2-0.6c6.3,0,4.6,63.9,11.4,67.9c0.1,0.1,0.2,0.1,0.3,0.1
			c3.8,1.1,13.1-11.3,15-25.3c2.6-19.3-19.9-34-15-40.6c1.3-1.8,3.9-2.1,5-2.2c0.2,0,0.4,0,0.5,0c0.7,0,1.4,0.1,2,0.3
			c14.8,3.9,28.6,48.2,33.3,68.4c0.7,3.1,1.2,5.6,1.5,7.3c0.3,1.7,0.3,2.6,0.1,2.7c-0.2,0.1-0.9-0.9-1.5-2.2
			c-0.4-0.8-0.7-1.7-0.8-2.7c-0.2-1.7,0-3.4,0.7-5c3-7.6,14.4-15.4,26.8-22.1"/>
	</g>
</g>
<g id="XMLID_1_">
	<g>
		<path class="st3" d="M260.1,230.4c3,1.9,4.6,6.2,2.3,26c-1.1,9.7-2.2,16-4.9,21.8c-0.7,1.5-1,4.2-3.4,5.9
			c-3.3,2.4-6.5,0.5-9.3,1.7c-6,2.6-1.6,15.2-5.3,25.9c-3.2,9.4-11.1,14.8-24.9,22c-18.3,9.5-30.8,16-49.6,15.4
			c-23.4-0.7-39.7-11.9-45.4-16.3c-9.3-7.2-20.6-16-22.8-29.3c-0.9-5.5-0.5-12.9-5.5-15.6c-3.7-1.9-6.3,0.8-10.5-1.2
			c-3.9-1.8-5.6-6.4-9-15.6c-1.8-4.9-2.8-8.5-3-9.8c-1.5-11-1.8-10-1.8-12.8c0.1-2.7,0.5-7,2.5-11.8c1.4-3.4,2.7-6.4,6-7.9
			c0.6-0.3,3.2-1.4,5.5-0.5c3.4,1.3,3.6,5.8,4.3,5.8c1,0-0.3-9.1-0.4-22.2c7.3-8,17.2-21,22.1-38.8c5.1-18.4,0.6-26.4,8.3-34
			c7.1-7.1,15.9-5.1,58.6-4.7c37.1,0.3,44.3-1.1,50.2,5.1c8.6,9,1,20,6.4,41c4.1,16,13.2,27.7,19.9,34.8c-0.1,1.6-0.4,3.3-1,5.2
			c-0.8,2.9-3.4,10.5-2,11.1c0.9,0.4,2.3-2.3,5.5-3C256.4,228,259.7,230.2,260.1,230.4z"/>
		<path class="st4" d="M254.6,152.8c0.3,1.2-1.8,1.7-2.3,3.9c-0.4,2,1.1,2.5,0.8,4.4c-0.4,2.3-2.8,2.6-3.3,4.6
			c-0.5,2.2,1.7,3.9,2.8,5.6c3.1,4.9-3.3,10.4-5.6,19.2c-2.8,10.6,4.2,14.5,3.4,24.9c-6.6-7.1-15.7-18.7-19.9-34.8
			c-5.4-21.1,2.2-32.1-6.4-41c-5.9-6.1-13.1-4.7-50.2-5.1c-42.7-0.4-51.5-2.4-58.6,4.7c-7.6,7.6-3.2,15.6-8.3,34
			c-4.9,17.8-14.8,30.8-22.1,38.8c-0.1-10.4,0.5-23.4,3.7-36.4c2.6-10.6,5.4-15.5,5.3-26.3c-0.1-8.1-1.8-12.3,1.3-18.4
			c2.5-4.9,5.1-9.9,9.9-12.8c1.2-0.7,3.7-2.1,4.4-4.6c0.6-2.1-0.6-3,0.3-4.4c1.4-2.3,5.5-0.8,7.5-3.3c1.7-2,0-4,1.5-5.3
			c1.9-1.6,5.1,1,9.5,0.5c5.4-0.6,4.9-4.9,10.5-6.5c7.1-2,13.6,3.2,17.6-0.2c0.8-0.7,1.1-1.3,2.2-1.7c2.8-0.8,4.8,2.4,7.9,3
			c6.4,1.3,13.3-9.2,15.1-8.1c1.5,0.9-3.1,8.8-1.3,10c1.4,0.9,4.5-3,8-2.2c2.1,0.5,2.6,2.3,4,3.8c4.2,4.5,11.1,1.6,20.6,3.5
			c2.5,0.5,1,0.5,17.6,8.4c10.3,4.9,15.1,6.9,15.2,10.3c0.1,2.7-2.9,3.8-2.2,6.5c0.9,3.6,7.2,4.3,7,6.7c-0.1,1.7-3.3,2.3-3,3.5
			c0.3,1.4,5.3,1.2,5.5,2.6c0.2,1.2-3.9,2.3-3.8,3.7c0.1,1.4,4.2,1.7,4.3,3c0,1.2-3.4,1.8-3.3,2.8
			C250.1,151.4,254.1,151.3,254.6,152.8z"/>
	</g>
	<g>
		<path class="st2" d="M250.3,215.5c-0.1,1.6-0.4,3.3-1,5.2c-0.8,2.9-3.4,10.5-2,11.1c0.9,0.4,2.3-2.3,5.5-3
			c3.6-0.8,6.9,1.4,7.3,1.6c3,1.9,4.6,6.2,2.3,26c-1.1,9.7-2.2,16-4.9,21.8c-0.7,1.5-1,4.2-3.4,5.9c-3.3,2.4-6.5,0.5-9.3,1.7
			c-6,2.6-1.6,15.2-5.3,25.9c-3.2,9.4-11.1,14.8-24.9,22c-18.3,9.5-30.8,16-49.6,15.4c-23.4-0.7-39.7-11.9-45.4-16.3
			c-9.3-7.2-20.6-16-22.8-29.3c-0.9-5.5-0.5-12.9-5.5-15.6c-3.7-1.9-6.3,0.8-10.5-1.2c-3.9-1.8-5.6-6.4-9-15.6
			c-1.8-4.9-2.8-8.5-3-9.8c-1.5-11-1.8-10-1.8-12.8c0.1-2.7,0.5-7,2.5-11.8c1.4-3.4,2.7-6.4,6-7.9c0.6-0.3,3.2-1.4,5.5-0.5
			c3.4,1.3,3.6,5.8,4.3,5.8c1,0-0.3-9.1-0.4-22.2c-0.1-10.4,0.5-23.4,3.7-36.4c2.6-10.6,5.4-15.5,5.3-26.3
			c-0.1-8.1-1.8-12.3,1.3-18.4c2.5-4.9,5.1-9.9,9.9-12.8c1.2-0.7,3.7-2.1,4.4-4.6c0.6-2.1-0.6-3,0.3-4.4c1.4-2.3,5.5-0.8,7.5-3.3
			c1.7-2,0-4,1.5-5.3c1.9-1.6,5.1,1,9.5,0.5c5.4-0.6,4.9-4.9,10.5-6.5c7.1-2,13.6,3.2,17.6-0.2c0.8-0.7,1.1-1.3,2.2-1.7
			c2.8-0.8,4.8,2.4,7.9,3c6.4,1.3,13.3-9.2,15.1-8.1c1.5,0.9-3.1,8.8-1.3,10c1.4,0.9,4.5-3,8-2.2c2.1,0.5,2.6,2.3,4,3.8
			c4.2,4.5,11.1,1.6,20.6,3.5c2.5,0.5,1,0.5,17.6,8.4c10.3,4.9,15.1,6.9,15.2,10.3c0.1,2.7-2.9,3.8-2.2,6.5c0.9,3.6,7.2,4.3,7,6.7
			c-0.1,1.7-3.3,2.3-3,3.5c0.3,1.4,5.3,1.2,5.5,2.6c0.2,1.2-3.9,2.3-3.8,3.7c0.1,1.4,4.2,1.7,4.3,3c0,1.2-3.4,1.8-3.3,2.8
			c0.1,1.1,4.1,1,4.5,2.6c0.3,1.2-1.8,1.7-2.3,3.9c-0.4,2,1.1,2.5,0.8,4.4c-0.4,2.3-2.8,2.6-3.3,4.6c-0.5,2.2,1.7,3.9,2.8,5.6
			c3.1,4.9-3.3,10.4-5.6,19.2C244.1,201.2,251.1,205.1,250.3,215.5z"/>
		<path class="st2" d="M84.8,212.2c7.3-8,17.2-21,22.1-38.8c5.1-18.4,0.6-26.4,8.3-34c7.1-7.1,15.9-5.1,58.6-4.7
			c37.1,0.3,44.3-1.1,50.2,5.1c8.6,9,1,20,6.4,41c4.1,16,13.2,27.7,19.9,34.8"/>
	</g>
</g>
<g id="XMLID_3_">
	<g>
		<path class="st5" d="M495,110.1c8.3,7.5,18.6,9.8,18,12c-0.6,2.3-11.8,0.5-12.8,3.8c-0.6,2,3.4,3.3,6,8.3
			c3.6,6.7,1.8,14.6,0.9,18.6c-1.3,5.8-2.8,5.7-3.1,10c-0.5,7.2,3.6,8.9,3.8,14.8c0.2,8-7.5,8.6-11.1,19.5c-1,2.9-0.8,4.1-0.7,8.5
			c-1.9-5.1-6.4-15.2-16.1-24.6l1.1-0.1c3.8-30.5-15.3-57.9-41.4-63.9c-15.7-3.6-32.6,0.9-45.8,11.5c-0.4,0.1-0.7,0.3-1.1,0.4
			c-2.8,1.3-5.3,4-7.1,7.4c0,0,0,0,0,0c-0.9,1-1.7,2.1-2.4,3.2c0.7-1,1.5-1.9,2.3-2.8c-2.3,4.6-3.5,10.4-2.9,16.1l-0.1,0
			c-1.4-4.4-9.5-28.5-30.3-35.2c-8.8-2.8-17.7-1.8-28.2-0.6c-4.9,0.6-8.9,1-12.5,1.8c2.1-5.5,2.3-9.4,7.1-13.5
			c4.3-3.6,6.6-2.6,14.8-5.8c12.9-5,17.5-11.6,24.1-15.8c12.1-7.7,22-1.5,48.9,0.8c44.8,3.7,64.8-9.6,75.9,3.8
			C487.8,95,485.8,101.8,495,110.1z"/>
		<path class="st6" d="M496,205.6c0,2.8,0.1,6.9-0.2,13.5c-0.4,9.3-0.6,14-1.5,17.3c-2.8,10.7-9.3,14.9-15,22.6
			c-9.7,12.8-8.7,23.9-12,36.1c-7.1,25.8-33.7,57.6-60.9,57.9c-31.1,0.4-55.7-40.5-63.9-60.9c-3.3-8.2-3.7-12.4-10.8-30.6
			c-12.4-32.1-14.8-28.6-18.5-42.7c-1.8-6.9-2.7-13.2-3-18.9c5.3-4.7,10.6-9.4,15.9-14.1c1.5,1.6,3.2,3.1,5.1,4.5
			c-2.8-6.4-3.5-13.2-2.4-19.3c2.7-2.7,12.8-12.1,28.7-13.4c12-0.9,21,3.3,24.8,5.3l4.5,1.5c4.5,6.2,11.3,8.3,14.3,9
			c-6.5-17.9-4.5-22-2.8-23.2c4.8-3.3,19.1,8.4,27.6,18.7c11.1,13.4,15,27.9,16.5,36.8l8-5.7c-1-8.9-3.7-23.4-12.1-37.7
			c6.1,0.5,22.1,2.6,37.2,14.8c1.6,1.3,3.1,2.6,4.5,4C489.6,190.4,494.1,200.5,496,205.6z"/>
		<path class="st5" d="M439.6,116.9c26.1,6,45.1,33.4,41.4,63.9c-7.2-29.5-25.8-52.1-48.5-57.3c-5.3-1.2-22.6-5.3-37.7,4.6
			c-0.3,0.1-0.6,0.2-0.9,0.3C407,117.8,423.9,113.3,439.6,116.9z"/>
		<path class="st5" d="M481,180.9l-1.1,0.1c-1.4-1.3-2.9-2.7-4.5-4c-15.1-12.3-31.1-14.3-37.2-14.8c-2.6-4.4-5.7-8.8-9.4-13
			c-4-4.5-21.4-24.1-34.1-21c15.1-9.9,32.4-5.8,37.7-4.6C455.2,128.7,473.8,151.4,481,180.9z"/>
		<path class="st5" d="M450.3,199.9l-8,5.7c-1.6-8.9-5.5-23.4-16.5-36.8c-8.5-10.3-22.8-22-27.6-18.7c-1.7,1.2-3.7,5.3,2.8,23.2
			c-3-0.7-9.8-2.8-14.3-9c-2.5-3.4-3.8-7.4-4.2-11.5c-0.6-5.7,0.6-11.5,2.9-16.1c1.4-1.7,2.9-3.3,4.5-4.8c0,0,0,0,0,0
			c1.5-1.3,3.1-2.5,4.7-3.6c0,0,0.1,0,0.1-0.1c12.6-3.1,30.1,16.6,34.1,21c3.8,4.2,6.9,8.6,9.4,13
			C446.7,176.6,449.4,191,450.3,199.9z"/>
		<path class="st7" d="M328.7,170.9c-1.1,6.1-0.4,12.9,2.4,19.3c-1.9-1.4-3.6-2.9-5.1-4.5c-2.3-2.5-4.2-5.2-5.7-8.1l-10.3,8.5
			c0.6-13.6,2-23.7-5.8-32.6c-2-2.3-6.9-7.1-6.3-13.2c0.1-0.8,0.2-1.5,0.5-2.1c10-6.9,25.5-14.1,44.4-10.9c24,4,37,22,39.5,25.6
			l0.1,0c0.4,4.1,1.7,8.1,4.2,11.5l-4.5-1.5c-11.9-15.9-33.5-17.8-45.1-7.5C332.7,159.1,329.8,164.7,328.7,170.9z"/>
		<path class="st5" d="M352.1,117.6c20.7,6.7,28.9,30.8,30.3,35.2c-2.5-3.6-15.5-21.6-39.5-25.6c-18.9-3.2-34.4,4-44.4,10.9
			c1.1-3,3.9-4.7,7.8-9.9c2.7-3.6,4.1-6.7,5.2-9.3c3.6-0.8,7.6-1.3,12.5-1.8C334.4,115.8,343.3,114.8,352.1,117.6z"/>
		<path class="st5" d="M382.2,162.7c-3.8-2-12.8-6.2-24.8-5.3c-15.9,1.2-26,10.7-28.7,13.4c1.1-6.2,4-11.7,8.4-15.6
			C348.8,145,370.3,146.8,382.2,162.7z"/>
		<path class="st5" d="M326,185.7c-5.3,4.7-10.6,9.4-15.9,14.1c-0.3-5-0.2-9.6,0-13.8l10.3-8.5C321.8,180.4,323.7,183.2,326,185.7z"
			/>
		<path class="st5" d="M311.5,118.8c-1,2.7-2.5,5.7-5.2,9.3c-3.9,5.2-6.7,6.9-7.8,9.9c-7.5,5.2-11.9,10.3-12.4,10.8
			c0.9-5.3,3.7-17.8,14.2-25.3C303.8,121.1,307.3,119.8,311.5,118.8z"/>
	</g>
	<g>
		<path class="st2" d="M496,205.6c0,2.8,0.1,6.9-0.2,13.5c-0.4,9.3-0.6,14-1.5,17.3c-2.8,10.7-9.3,14.9-15,22.6
			c-9.7,12.8-8.7,23.9-12,36.1c-7.1,25.8-33.7,57.6-60.9,57.9c-31.1,0.4-55.7-40.5-63.9-60.9c-3.3-8.2-3.7-12.4-10.8-30.6
			c-12.4-32.1-14.8-28.6-18.5-42.7c-1.8-6.9-2.7-13.2-3-18.9c-0.3-5-0.2-9.6,0-13.8c0.6-13.6,2-23.7-5.8-32.6
			c-2-2.3-6.9-7.1-6.3-13.2c0.1-0.8,0.2-1.5,0.5-2.1c1.1-3,3.9-4.7,7.8-9.9c2.7-3.6,4.1-6.7,5.2-9.3c2.1-5.5,2.3-9.4,7.1-13.5
			c4.3-3.6,6.6-2.6,14.8-5.8c12.9-5,17.5-11.6,24.1-15.8c12.1-7.7,22-1.5,48.9,0.8c44.8,3.7,64.8-9.6,75.9,3.8
			c5.6,6.7,3.6,13.5,12.8,21.8c8.3,7.5,18.6,9.8,18,12c-0.6,2.3-11.8,0.5-12.8,3.8c-0.6,2,3.4,3.3,6,8.3c3.6,6.7,1.8,14.6,0.9,18.6
			c-1.3,5.8-2.8,5.7-3.1,10c-0.5,7.2,3.6,8.9,3.8,14.8c0.2,8-7.5,8.6-11.1,19.5C495.7,200,495.9,201.1,496,205.6z"/>
		<path class="st2" d="M401,173.3c-6.5-17.9-4.5-22-2.8-23.2c4.8-3.3,19.1,8.4,27.6,18.7c11.1,13.4,15,27.9,16.5,36.8"/>
		<path class="st2" d="M382.2,162.7c-11.9-15.9-33.5-17.8-45.1-7.5c-4.4,3.9-7.3,9.4-8.4,15.6c-1.1,6.1-0.4,12.9,2.4,19.3"/>
		<path class="st2" d="M385.7,136.3c1.8-3.4,4.2-6.1,7.1-7.4c0.4-0.2,0.7-0.3,1.1-0.4c0.3-0.1,0.6-0.2,0.9-0.3
			c12.6-3.1,30.1,16.6,34.1,21c3.8,4.2,6.9,8.6,9.4,13c8.4,14.4,11.1,28.8,12.1,37.7"/>
		<path class="st2" d="M401,173.3c-3-0.7-9.8-2.8-14.3-9c-2.5-3.4-3.8-7.4-4.2-11.5c-0.6-5.7,0.6-11.5,2.9-16.1
			c0.1-0.1,0.1-0.2,0.2-0.3"/>
		<path class="st2" d="M371.7,146.9c-14.1-16.5-38.2-15.5-48.9-3c-7.2,8.4-8.3,22.1-2.5,33.6c1.5,2.9,3.3,5.6,5.7,8.1
			c1.5,1.6,3.2,3.1,5.1,4.5"/>
		<path class="st2" d="M387.6,275.7c-5.9,2.7-16.6,8.9-21.1,22.1c-2.7,8-2.2,15.9-1.2,21.5"/>
		<path class="st2" d="M422.9,273.5c4,3.2,9.9,8.8,14.9,17.3c5.4,9.2,7.3,17.8,8,23.1"/>
		<path class="st2" d="M390,131.9c1.3-1.2,2.5-2.4,3.9-3.4c13.2-10.6,30.1-15.1,45.8-11.5c26.1,6,45.1,33.4,41.4,63.9"/>
		<path class="st2" d="M383.2,139.5c0.7-1,1.5-1.9,2.3-2.8c1.4-1.7,2.9-3.3,4.5-4.8"/>
		<path class="st2" d="M496,205.6c-1.9-5.1-6.4-15.2-16.1-24.6c-1.4-1.3-2.9-2.7-4.5-4c-15.1-12.3-31.1-14.3-37.2-14.8"/>
		<path class="st2" d="M310.1,199.8c5.3-4.7,10.6-9.4,15.9-14.1c0.1-0.1,0.3-0.2,0.4-0.3"/>
		<path class="st2" d="M328.7,170.9L328.7,170.9c2.7-2.7,12.8-12.1,28.7-13.4c12-0.9,21,3.3,24.8,5.3"/>
		<path class="st2" d="M382.4,152.8c-1.4-4.4-9.5-28.5-30.3-35.2c-8.8-2.8-17.7-1.8-28.2-0.6c-4.9,0.6-8.9,1-12.5,1.8
			c-4.1,0.9-7.7,2.3-11.2,4.8c-10.5,7.5-13.3,20-14.2,25.3"/>
		<path class="st2" d="M382.4,152.8c-2.5-3.6-15.5-21.6-39.5-25.6c-18.9-3.2-34.4,4-44.4,10.9c-7.5,5.2-11.9,10.3-12.4,10.8"/>
		<path class="st2" d="M383.2,139.5c0.8-1.1,1.6-2.2,2.4-3.2c0,0,0,0,0,0c1.3-1.6,2.8-3,4.3-4.4c0,0,0,0,0,0
			c1.5-1.3,3.1-2.5,4.7-3.6c0,0,0.1,0,0.1-0.1c15.1-9.9,32.4-5.8,37.7-4.6c22.8,5.2,41.3,27.8,48.5,57.3"/>
		<line class="st2" x1="310.1" y1="186" x2="320.3" y2="177.6"/>
		<line class="st2" x1="386.7" y1="164.2" x2="382.2" y2="162.7"/>
	</g>
</g>
<title>hot pink lips</title>
<title>hot pink lips</title>
<g>
	<title>Layer 1</title>
	<g id="layer1_1_" transform="rotate(-21.5692, 202.832, 166.255)">
		<path id="path1368_1_" class="st8" d="M554,450.6c-0.3-0.1-0.5-0.5-0.7-1l-0.3-0.9l-0.1,1c-0.1,1.8-1.6,1.4-2-0.5
			c-0.1-0.6-0.3-1.1-0.4-1.2c-0.1-0.1-0.1,0.3,0.1,0.9s0.2,1.2,0.2,1.4c-0.1,0.5-1.1,0.5-1.9,0c-0.3-0.2-0.8-0.3-1-0.3
			c-0.7,0.2-1.7-0.2-2.9-1c-0.6-0.4-1.3-0.7-1.5-0.7c-0.5,0.1-1.6-0.8-1.8-1.6c-0.1-0.4-0.2-0.5-0.2-0.2c0,0.9-0.8,0.7-1.3-0.2
			c-0.4-0.7-0.6-0.8-1-0.7c-0.6,0.1-0.9,0-2.2-1.3c-0.4-0.4-1.1-0.9-1.6-1.1c-0.5-0.2-0.9-0.6-1-1c-0.1-0.4-0.2-0.5-0.5-0.4
			c-0.2,0.1-0.5,0-0.8-0.3c-0.3-0.3-0.8-0.5-1.1-0.6c-0.9-0.2-3-1.4-3.1-1.7c0-0.2,0.1-0.5,0.3-0.7c0.3-0.4,0.4-0.4,1-0.3
			c0.4,0.1,0.8,0.2,0.9,0.1c0.1,0,0.3,0,0.3,0.2c0,0.1,0.3,0.2,0.5,0.1c0.2-0.1,0.7,0,1,0.2c0.4,0.3,0.6,0.3,0.7,0
			c0.1-0.2,0.4-0.3,1.1-0.1c0.9,0.2,0.9,0.2,1,1.3l0.1,1l0.3-1c0.3-0.9,0.4-1.1,1.2-1.3c0.5-0.1,1.3-0.5,1.9-0.9
			c1.3-0.8,1.9-0.7,1.3,0.3c-0.3,0.5-0.3,0.6,0,0.5c0.2,0,0.3-0.2,0.3-0.3c-0.1-0.3,1-1.1,1.9-1.3c0.5-0.1,0.7-0.1,0.8,0.2
			c0.1,0.4,0.1,0.4,0.4-0.1c0.3-0.6,1.5-1,1.7-0.6c0.1,0.1,0.6,0.1,1.1,0c1.2-0.3,2-0.2,2.1,0.3c0.1,0.2,0,0.8-0.1,1.3
			c-0.2,1-0.1,1.7,0.2,1.6c0.1,0,0.2-0.5,0.2-1.1c0-1.2,0.6-2,1.4-2.1c0.5-0.1,0.6,0,0.7,0.5c0.1,0.5,0.1,0.5,0.3,0.1
			c0.1-0.3,0.3-0.6,0.4-0.6c0.2-0.1,0.5-0.2,0.7-0.4c0.5-0.4,1.1,0.5,1.6,2.3c0.3,1.1,0.5,1.4,0.6,1.3c0.1-0.1,0.2-0.4,0.1-0.6
			c-0.1-0.2-0.4-1-0.7-1.7l-0.5-1.2l0.9-0.2c0.9-0.2,0.9-0.2,2,1.7c0.2,0.4-0.2-0.7-0.7-1.9c-0.3-0.7,1.1-1.4,1.8-1
			c0.4,0.3,0.5,0.2,0.7-0.2c0.1-0.3,0.4-0.4,0.8-0.5c0.5,0,0.6-0.1,0.6-0.5c0-0.6,0.2-0.7,0.7-0.4c0.3,0.2,0.4,0.2,0.4-0.1
			c0-0.4,0.6-0.6,0.7-0.3c0,0.1,0.3,0.4,0.5,0.6c0.4,0.3,0.4,0.3-0.1-0.3c-0.8-1-0.7-1.4,0.4-1.8c0.7-0.2,1.1-0.2,1.4,0
			c0.6,0.4,0.9,0.4,0.7-0.2c-0.2-0.5,0.9-1,1.7-0.7c0.4,0.1,0.6,0.1,0.7-0.2c0.2-0.4,1.2-0.7,1.6-0.4c0.2,0.1,0.4,0.1,0.5-0.1
			c0.4-0.5,1.4-0.7,2.2-0.5c0.5,0.1,0.7,0.1,0.6-0.1c-0.1-0.4,2-2.1,2.6-2.1c0.8,0,0.9,1,0.2,2.1c-1.2,2.2-1.6,2.6-2.1,2.1
			c-0.1-0.1-0.1,0,0,0.3s0.1,0.7,0.1,0.9c-0.2,0.6-1.3,2-1.6,2.1c-0.2,0-0.3,0.4-0.3,0.7c0,0.3-0.2,0.9-0.4,1.2
			c-0.3,0.3-0.9,1.4-1.4,2.4c-0.5,1-1,1.8-1.1,1.8c-0.1-0.1-0.3-0.5-0.6-1l-0.4-0.9l0.3,1.1c0.3,1,0.2,1.2-0.6,2.8
			c-0.5,0.9-0.9,1.7-1,1.7c-0.1,0-0.2-0.3-0.4-0.6c-0.2-0.5-0.2-0.5-0.2,0.4c0.1,1.8-0.8,3-1.3,2c-0.2-0.4-0.3-0.3-0.8,0.6
			c-0.8,1.5-1.1,1.4-1.9-0.7l-0.6-1.8l0.4,1.6c0.5,2,0.3,2.7-0.8,3c-0.7,0.2-0.9,0.1-1.2-0.2c-0.3-0.4-0.3-0.4-0.5,0
			c-0.1,0.3-0.5,0.5-1,0.7c-1.2,0.3-1.5,0.2-1.8-0.8l-0.3-0.9l0.1,0.8c0,0.5,0,1-0.1,1.1C555.3,450.4,554.4,450.7,554,450.6z
			 M558.5,446.2c-0.3-1-0.6-1.8-0.7-1.7c-0.2,0.1,0.4,2.7,0.8,3.2C559.1,448.3,559.1,448,558.5,446.2z M546.4,445.8
			c-0.3-0.3-0.4-0.2-0.3,0.2c0.1,0.2,0.2,0.3,0.3,0.2S546.5,445.9,546.4,445.8z M559.7,436.4c-1-1.3-1-0.6,0.1,0.8
			c0.5,0.7,0.8,0.9,0.8,0.6C560.5,437.6,560.1,436.9,559.7,436.4z M550.7,432.3c-0.4-0.3-0.9-0.4-1.2-0.3c-0.9,0.2-1.7-0.6-2.2-2.4
			c-0.3-0.8-0.4-1.1-0.3-0.6c0.4,2.1,0.1,2.6-0.8,1.7c-0.4-0.4-0.5-0.4-0.7,0c-0.2,0.4-0.3,0.4-1.2,0.3c-0.8-0.1-1.2,0-1.7,0.3
			c-1.1,0.7-1.3,0.7-1.9-0.2c-0.8-1.3-1-1.3-0.5,0.1c0.5,1.3,0.5,1.3,0,1.6c-0.6,0.4-1.3,0.1-1.5-0.6c-0.1-0.3-0.3-0.7-0.5-0.9
			c-0.3-0.3-0.3-0.2,0,0.6c0.6,1.5,0,2.7-0.9,2c-0.2-0.2-0.3-0.1-0.4,0.2c0,0.7-0.5,0.6-1.3-0.2c-0.9-0.9-1.2-0.7-0.9,0.4l0.2,0.8
			l-1.1,0.4c-0.9,0.3-1.2,0.3-1.5-0.1c-0.4-0.4-0.4-0.4-0.7,0.1c-0.2,0.4-0.4,0.4-0.6,0.3c-0.3-0.1-0.6,0-1.4,0.6
			c-0.9,0.7-1.1,0.8-1.4,0.5c-0.3-0.3-0.3-0.8,0-2c0.2-0.7,0.4-0.9,0.9-1.1c0.7-0.2,1.9-1.9,1.7-2.5c-0.1-0.4,0.8-1.1,1.8-1.4
			c0.7-0.2,0.8-0.4,0.8-0.8c-0.1-0.6,0.7-1.7,1.5-2.1c0.4-0.2,0.6-0.5,0.6-0.8c0-0.3,0.1-0.5,0.3-0.6s0.3-0.2,0.2-0.3
			c-0.2-0.6,0.8-0.4,1.4,0.3c0.6,0.7,1,0.9,0.9,0.4c0-0.2-0.3-0.5-0.6-0.8c-0.7-0.8-0.7-1,0.2-2c1.2-1.5,1.6-1.8,2-1.7
			c0.2,0,0.3-0.1,0.3-0.2c-0.1-0.5,0.3-0.4,0.7,0.1c0.4,0.4,0.4,0.4,0.1-0.3c-0.3-0.6-0.3-0.8,0-1.1c0.9-0.9,1.3-1.1,2-0.9
			c0.8,0.2,0.9,0.2,0.7-0.2c-0.1-0.4,0.4-0.6,0.7-0.3c0.1,0.1,0.3,0.1,0.4-0.1c0.7-1.1,2-0.8,2.7,0.5c0.4,0.8,0.4,0.8,0.3,0.2
			c-0.2-0.8,0.3-1,0.7-0.4c0.1,0.2,0.5,0.4,0.7,0.3c0.2-0.1,0.5,0.1,0.5,0.3c0.1,0.3,0.2,0.3,0.4-0.3c0.1-0.4,0.3-1,0.3-1.3
			c0-0.5,0.2-0.6,0.6-0.6c0.3,0,0.6-0.1,0.6-0.2c0-0.1,0.3-0.4,0.7-0.6c0.6-0.3,0.7-0.3,0.8,0.2c0.1,0.3,0.1,0.6,0,0.7
			c-0.2,0.3-0.1,0.7,0.1,0.6c0.1,0,0.2-0.4,0.2-0.8c0-0.9,0.8-1.3,1.2-0.5c0.2,0.3,0.3,0.4,0.4,0.2c0.1-0.4,2.4-0.2,2.5,0.2
			c0,0.2,0,0.7-0.1,1.3c-0.1,0.5-0.1,0.9,0,0.9c0.1,0,0.2-0.3,0.2-0.5s0.1-0.7,0.3-1c0.3-0.5,0.4-0.5,1.4-0.4
			c0.8,0.1,1.1,0.3,1.2,0.6c0.1,0.4,0.2,0.4,0.5,0.2c0.3-0.2,0.6-0.2,1,0.1c0.3,0.2,1.2,0.5,2,0.7s1.6,0.5,1.8,0.7
			c0.2,0.2,0.5,0.3,0.7,0.3c0.4-0.1,1,0.3,1.1,0.8c0.1,0.3,0.2,0.3,0.6,0.1c0.4-0.2,0.6-0.2,0.8,0.2c0.1,0.3,0.4,0.4,0.6,0.4
			c0.2,0,0.4,0.1,0.6,0.4c0.1,0.3,0.5,0.5,0.8,0.5c0.3,0,0.9,0.2,1.3,0.4c0.4,0.2,1,0.5,1.4,0.6c0.8,0.3,1.8,1.4,1.8,1.9
			c0,0.5-1.9,1-2.4,0.5c-0.3-0.3-0.7-0.2-2.1,0.2c-1.4,0.4-1.7,0.4-1.8,0.1c-0.1-0.2,0-0.4,0.1-0.6c0.1-0.1,0.1-0.3,0.1-0.5
			c0-0.2-0.3,0.2-0.6,0.8c-0.5,1.1-1,1.4-1.9,1.2c-0.3-0.1-0.8-0.1-1,0c-0.4,0.1-0.5,0.1-0.6-0.3c-0.1-0.5-0.2-0.5-0.4,0
			c-0.3,0.6-1,0.8-2.1,0.7c-0.9-0.1-1.1-0.7-0.9-2.2c0.2-1.4,0.2-1.4-0.2-0.5c-0.2,0.4-0.3,0.9-0.3,1.1c0.2,0.7-0.4,1.5-1.4,1.9
			l-1,0.4l-0.4-1.6c-0.2-0.9-0.4-1.6-0.5-1.6s-0.1,0.7,0,1.5c0.2,1.7,0,2-1.1,2.5l-0.8,0.4l-0.5-2.2c-0.4-1.7-0.5-1.9-0.4-1.1
			c0,0.6,0.2,1.6,0.4,2.3c0.4,1.5,0.3,2.1-0.4,1.9c-0.3-0.1-0.5-0.4-0.7-0.9l-0.2-0.8l0.1,0.8c0.1,1.3-0.3,2.2-0.8,2.3
			c-0.4,0-0.5-0.1-1-1.7c-0.8-2.6-0.8-2.6-1-2.6c-0.1,0,0.1,1.1,0.4,2.4c0.6,2.2,0.6,2.4,0.1,2.6
			C551.6,432.7,551.1,432.6,550.7,432.3z M549.2,428.6c-0.1-0.1-0.1,0.1,0,0.4c0.1,0.4,0.2,0.5,0.2,0.3
			C549.4,429.1,549.3,428.8,549.2,428.6z M537.1,430.3c-0.1-0.1-0.3-0.2-0.4-0.2c-0.1,0-0.1,0.2,0.1,0.4
			C537.2,430.8,537.4,430.6,537.1,430.3z M544.5,420.7c-0.1-0.1-0.1,0.1,0,0.3c0.1,0.3,0.2,0.3,0.2,0.1
			C544.7,421,544.6,420.8,544.5,420.7z"/>
	</g>
</g>
<g>
	<path d="M33,28.6h6.3c0.2,0,0.4,0.1,0.5,0.2c0.2,0.2,0.2,0.3,0.2,0.5c0,0.2-0.1,0.4-0.2,0.6c-0.2,0.2-0.3,0.2-0.5,0.2H37v9.2h2.4
		c0.2,0,0.4,0.1,0.6,0.2c0.2,0.2,0.2,0.3,0.2,0.6c0,0.2-0.1,0.4-0.2,0.6c-0.2,0.2-0.3,0.2-0.5,0.2H33c-0.2,0-0.4-0.1-0.6-0.2
		c-0.2-0.2-0.2-0.3-0.2-0.6c0-0.2,0.1-0.4,0.2-0.6c0.2-0.2,0.3-0.2,0.6-0.2h2.4v-9.2H33c-0.2,0-0.4-0.1-0.6-0.2
		c-0.2-0.2-0.2-0.3-0.2-0.5c0-0.2,0.1-0.4,0.2-0.6C32.6,28.7,32.8,28.6,33,28.6z"/>
	<path d="M59.9,35.4v1.8l1,1.8l0.5-1.8l0.2-4.5c0-0.2,0.1-0.4,0.2-0.5c0.2-0.2,0.3-0.2,0.5-0.2c0.2,0,0.4,0.1,0.6,0.2
		c0.2,0.2,0.2,0.3,0.2,0.6l-0.2,4.9l-0.8,2.8c-0.1,0.4-0.4,0.6-0.7,0.6h-0.8c-0.3,0-0.5-0.1-0.7-0.4L59.1,39l-0.8,1.4
		c-0.2,0.3-0.4,0.5-0.7,0.5h-0.8c-0.2,0-0.3-0.1-0.5-0.2c-0.1-0.1-0.2-0.2-0.3-0.4l-0.8-2.9L55,32.8c0-0.2,0.1-0.4,0.2-0.5
		c0.2-0.2,0.3-0.2,0.6-0.2c0.2,0,0.4,0.1,0.5,0.2c0.2,0.1,0.2,0.3,0.2,0.6l0.2,4.6l0.5,1.7l1.1-1.8v-1.8c0-0.2,0.1-0.4,0.2-0.5
		c0.2-0.2,0.3-0.2,0.6-0.2c0.2,0,0.4,0.1,0.5,0.2C59.8,35,59.9,35.2,59.9,35.4z"/>
	<path d="M73,40.9h-4.8c-0.2,0-0.4-0.1-0.6-0.2c-0.2-0.2-0.2-0.3-0.2-0.6c0-0.2,0.1-0.4,0.2-0.5c0.2-0.2,0.3-0.2,0.6-0.2h1.6v-5.8
		h-1.6c-0.2,0-0.4-0.1-0.6-0.2c-0.2-0.2-0.2-0.3-0.2-0.5c0-0.2,0.1-0.4,0.2-0.6C67.9,32,68,32,68.3,32h2.4c0.2,0,0.4,0.1,0.6,0.2
		c0.2,0.2,0.2,0.3,0.2,0.6v6.6H73c0.2,0,0.4,0.1,0.6,0.2c0.2,0.2,0.2,0.3,0.2,0.6c0,0.2-0.1,0.4-0.2,0.6
		C73.4,40.8,73.2,40.9,73,40.9z M69.8,27.9h0.8c0.2,0,0.4,0.1,0.6,0.2c0.2,0.2,0.2,0.3,0.2,0.6v0.7c0,0.2-0.1,0.4-0.2,0.6
		c-0.2,0.2-0.3,0.2-0.6,0.2h-0.8c-0.2,0-0.4-0.1-0.6-0.2c-0.2-0.2-0.2-0.3-0.2-0.5l0-0.7c0-0.2,0.1-0.4,0.2-0.6
		C69.4,28,69.6,27.9,69.8,27.9z"/>
	<path d="M84.5,40.9h-4.7c-0.2,0-0.4-0.1-0.6-0.2C79,40.5,79,40.4,79,40.1c0-0.2,0.1-0.4,0.2-0.5c0.2-0.2,0.3-0.2,0.6-0.2h1.6v-9.2
		h-1.6c-0.2,0-0.4-0.1-0.6-0.2c-0.2-0.2-0.2-0.3-0.2-0.6c0-0.2,0.1-0.4,0.2-0.6c0.2-0.2,0.3-0.2,0.6-0.2h2.4c0.2,0,0.4,0.1,0.5,0.2
		c0.2,0.2,0.2,0.3,0.2,0.5v10h1.6c0.2,0,0.4,0.1,0.5,0.2c0.2,0.2,0.2,0.3,0.2,0.5c0,0.2-0.1,0.4-0.2,0.6
		C84.9,40.9,84.7,40.9,84.5,40.9z"/>
	<path d="M95.9,40.9h-4.7c-0.2,0-0.4-0.1-0.6-0.2c-0.2-0.2-0.2-0.3-0.2-0.6c0-0.2,0.1-0.4,0.2-0.5c0.2-0.2,0.3-0.2,0.6-0.2h1.6v-9.2
		h-1.6c-0.2,0-0.4-0.1-0.6-0.2c-0.2-0.2-0.2-0.3-0.2-0.6c0-0.2,0.1-0.4,0.2-0.6c0.2-0.2,0.3-0.2,0.6-0.2h2.4c0.2,0,0.4,0.1,0.5,0.2
		c0.2,0.2,0.2,0.3,0.2,0.5v10h1.6c0.2,0,0.4,0.1,0.5,0.2c0.2,0.2,0.2,0.3,0.2,0.5c0,0.2-0.1,0.4-0.2,0.6
		C96.3,40.9,96.2,40.9,95.9,40.9z"/>
	<path d="M114.8,32h3.6c0.6,0,1,0.2,1.5,0.5c0.4,0.3,0.6,0.7,0.6,1c0,0.2-0.1,0.4-0.2,0.5c-0.2,0.1-0.3,0.2-0.5,0.2
		c-0.2,0-0.5-0.1-0.7-0.3s-0.4-0.3-0.6-0.3h-3.5c-0.3,0-0.5,0.1-0.5,0.4c0,0.2,0.1,0.4,0.3,0.5l4.1,1.8c0.4,0.2,0.8,0.5,1,0.9
		c0.3,0.4,0.4,0.9,0.4,1.4c0,0.7-0.2,1.2-0.7,1.7c-0.5,0.5-1,0.7-1.6,0.7h-3.2c-0.5,0-1-0.2-1.5-0.5c-0.5-0.3-0.7-0.6-0.7-1
		c0-0.2,0.1-0.4,0.2-0.5c0.2-0.2,0.3-0.2,0.6-0.2c0.2,0,0.4,0.1,0.6,0.3c0.2,0.2,0.6,0.3,1,0.3h2.9c0.2,0,0.4-0.1,0.6-0.3
		c0.2-0.2,0.2-0.4,0.2-0.6c0-0.4-0.2-0.6-0.5-0.8l-4.2-1.9c-0.4-0.2-0.7-0.4-0.9-0.8c-0.2-0.3-0.3-0.7-0.3-1c0-0.6,0.2-1,0.6-1.4
		C113.7,32.2,114.2,32,114.8,32z"/>
	<path d="M129.5,40.9H128c-0.6,0-1.2-0.2-1.7-0.7c-0.5-0.5-0.7-1-0.7-1.7v-5.1h-0.8c-0.2,0-0.4-0.1-0.6-0.2
		c-0.2-0.1-0.2-0.3-0.2-0.6c0-0.2,0.1-0.4,0.2-0.6c0.2-0.2,0.3-0.2,0.6-0.2h0.8v-1.9c0-0.2,0.1-0.4,0.2-0.6c0.2-0.2,0.3-0.2,0.6-0.2
		c0.2,0,0.4,0.1,0.5,0.2c0.2,0.2,0.2,0.3,0.2,0.5V32h3.1c0.2,0,0.4,0.1,0.5,0.2c0.2,0.2,0.2,0.3,0.2,0.5c0,0.2-0.1,0.4-0.2,0.6
		c-0.2,0.2-0.3,0.2-0.5,0.2h-3.2v5.1c0,0.2,0.1,0.4,0.2,0.5c0.2,0.2,0.3,0.2,0.6,0.2h1.5c0.4,0,0.7-0.2,0.8-0.7
		c0.1-0.4,0.4-0.7,0.8-0.7c0.2,0,0.4,0.1,0.6,0.2c0.1,0.2,0.2,0.3,0.2,0.6c0,0.5-0.2,0.9-0.7,1.4C130.8,40.7,130.2,40.9,129.5,40.9z
		"/>
	<path d="M141.8,40.9h-4.8c-0.2,0-0.4-0.1-0.6-0.2c-0.2-0.2-0.2-0.3-0.2-0.6c0-0.2,0.1-0.4,0.2-0.5c0.2-0.2,0.3-0.2,0.6-0.2h1.6
		v-5.8h-1.6c-0.2,0-0.4-0.1-0.6-0.2c-0.2-0.2-0.2-0.3-0.2-0.5c0-0.2,0.1-0.4,0.2-0.6c0.2-0.2,0.3-0.2,0.6-0.2h2.4
		c0.2,0,0.4,0.1,0.6,0.2c0.2,0.2,0.2,0.3,0.2,0.6v6.6h1.6c0.2,0,0.4,0.1,0.6,0.2c0.2,0.2,0.2,0.3,0.2,0.6c0,0.2-0.1,0.4-0.2,0.6
		C142.2,40.8,142.1,40.9,141.8,40.9z M138.7,27.9h0.8c0.2,0,0.4,0.1,0.6,0.2c0.2,0.2,0.2,0.3,0.2,0.6v0.7c0,0.2-0.1,0.4-0.2,0.6
		c-0.2,0.2-0.3,0.2-0.6,0.2h-0.8c-0.2,0-0.4-0.1-0.6-0.2c-0.2-0.2-0.2-0.3-0.2-0.5l0-0.7c0-0.2,0.1-0.4,0.2-0.6
		C138.3,28,138.5,27.9,138.7,27.9z"/>
	<path d="M154.1,40.9h-3.3c-0.6,0-1.1-0.2-1.5-0.5l-1.5-1.3c-0.5-0.4-0.7-0.9-0.7-1.6v-2c0-0.7,0.2-1.2,0.8-1.7l1.4-1.2
		c0.4-0.4,0.9-0.5,1.4-0.5h3.5c0.2,0,0.4,0.1,0.6,0.2c0.2,0.2,0.2,0.3,0.2,0.6c0,0.2-0.1,0.4-0.2,0.6c-0.2,0.1-0.3,0.2-0.6,0.2h-3.3
		c-0.2,0-0.4,0.1-0.6,0.3l-1.3,1.1c-0.2,0.2-0.3,0.4-0.3,0.7v1.9c0,0.2,0.1,0.4,0.2,0.5l1.4,1.2c0.2,0.2,0.4,0.2,0.7,0.2h3.2
		c0.2,0,0.4,0.1,0.5,0.2c0.2,0.2,0.2,0.3,0.2,0.6c0,0.2-0.1,0.4-0.2,0.6C154.5,40.9,154.3,40.9,154.1,40.9z"/>
	<path d="M158.5,40.2V29.4c0-0.2,0.1-0.4,0.2-0.6c0.2-0.2,0.3-0.2,0.6-0.2c0.2,0,0.4,0.1,0.6,0.2c0.2,0.2,0.2,0.3,0.2,0.6v6.4
		l4.2-3.6c0.2-0.1,0.4-0.2,0.6-0.2c0.2,0,0.4,0.1,0.6,0.2c0.1,0.2,0.2,0.3,0.2,0.6c0,0.2-0.1,0.4-0.2,0.5l-3.3,2.8l4,3.5
		c0.2,0.1,0.2,0.3,0.2,0.5c0,0.2-0.1,0.4-0.2,0.6c-0.1,0.2-0.3,0.2-0.5,0.2c-0.2,0-0.4-0.1-0.6-0.2l-4.2-3.6l-0.8,0.7v2.4
		c0,0.2-0.1,0.4-0.2,0.6c-0.2,0.2-0.3,0.2-0.6,0.2c-0.2,0-0.4-0.1-0.6-0.2C158.6,40.6,158.5,40.4,158.5,40.2z"/>
	<path d="M189.3,34.3l-4.2,9.5c-0.1,0.3-0.4,0.5-0.7,0.5h-2.2c-0.2,0-0.4-0.1-0.6-0.2c-0.2-0.1-0.2-0.3-0.2-0.6
		c0-0.2,0.1-0.4,0.2-0.5c0.2-0.1,0.3-0.2,0.6-0.2h1.7l1.1-2.5h-0.4c-0.4,0-0.6-0.2-0.8-0.5l-2.3-5.4v-1.5c0-0.2,0.1-0.4,0.2-0.6
		c0.1-0.2,0.3-0.2,0.5-0.2c0.2,0,0.4,0.1,0.6,0.2c0.2,0.2,0.2,0.3,0.2,0.6l0,1.2l2.1,4.8h0.5l2.1-4.7l0-1.2c0-0.2,0.1-0.4,0.2-0.5
		c0.2-0.2,0.3-0.2,0.6-0.2c0.2,0,0.4,0.1,0.5,0.2c0.2,0.2,0.2,0.3,0.2,0.5V34.3z"/>
	<path d="M200.8,34.8v3.3c0,0.7-0.3,1.3-1,1.9c-0.7,0.6-1.3,0.9-2,0.9h-1.8c-0.7,0-1.4-0.3-2-0.9c-0.6-0.6-1-1.2-1-1.9v-3.3
		c0-0.7,0.3-1.3,1-1.9c0.6-0.6,1.3-0.9,2.1-0.9h1.8c0.7,0,1.4,0.3,2,0.9C200.5,33.4,200.8,34.1,200.8,34.8z M194.5,34.9V38
		c0,0.3,0.1,0.5,0.3,0.7l0.6,0.5c0.1,0.1,0.3,0.2,0.5,0.2h1.8c0.3,0,0.5-0.1,0.7-0.3l0.5-0.4c0.2-0.1,0.3-0.4,0.3-0.6v-3.2
		c0-0.3-0.1-0.5-0.3-0.7l-0.5-0.4c-0.2-0.2-0.4-0.2-0.6-0.2h-1.6c-0.4,0-0.6,0.1-0.8,0.3l-0.5,0.5C194.6,34.4,194.5,34.6,194.5,34.9
		z"/>
	<path d="M208.1,39.4l2.6-1.7v-4.9c0-0.2,0.1-0.4,0.2-0.6c0.2-0.2,0.3-0.2,0.6-0.2c0.2,0,0.4,0.1,0.6,0.2c0.2,0.2,0.2,0.3,0.2,0.6
		v7.4c0,0.2-0.1,0.4-0.2,0.5c-0.2,0.2-0.3,0.2-0.5,0.2c-0.2,0-0.4-0.1-0.5-0.2c-0.2-0.2-0.2-0.3-0.2-0.5v-0.6l-1.4,0.9
		c-0.5,0.3-1.1,0.5-1.6,0.5H207c-0.6,0-1.2-0.2-1.6-0.7c-0.5-0.4-0.7-1-0.7-1.6l-0.2-5.9c0-0.2,0.1-0.4,0.2-0.5
		c0.2-0.2,0.3-0.2,0.6-0.2c0.2,0,0.4,0.1,0.5,0.2c0.2,0.2,0.2,0.3,0.2,0.5l0.2,5.8c0,0.6,0.3,0.8,1,0.8H208.1z"/>
	<path d="M233.6,40.9h-4.8c-0.2,0-0.4-0.1-0.6-0.2c-0.2-0.2-0.2-0.3-0.2-0.6c0-0.2,0.1-0.4,0.2-0.5c0.2-0.2,0.3-0.2,0.6-0.2h1.6
		v-5.8h-1.6c-0.2,0-0.4-0.1-0.6-0.2c-0.2-0.2-0.2-0.3-0.2-0.5c0-0.2,0.1-0.4,0.2-0.6c0.2-0.2,0.3-0.2,0.6-0.2h2.4
		c0.2,0,0.4,0.1,0.6,0.2c0.2,0.2,0.2,0.3,0.2,0.6v6.6h1.6c0.2,0,0.4,0.1,0.6,0.2c0.2,0.2,0.2,0.3,0.2,0.6c0,0.2-0.1,0.4-0.2,0.6
		C234,40.8,233.9,40.9,233.6,40.9z M230.5,27.9h0.8c0.2,0,0.4,0.1,0.6,0.2c0.2,0.2,0.2,0.3,0.2,0.6v0.7c0,0.2-0.1,0.4-0.2,0.6
		c-0.2,0.2-0.3,0.2-0.6,0.2h-0.8c-0.2,0-0.4-0.1-0.6-0.2c-0.2-0.2-0.2-0.3-0.2-0.5l0-0.7c0-0.2,0.1-0.4,0.2-0.6
		C230.1,28,230.3,27.9,230.5,27.9z"/>
	<path d="M242.5,33.8l-2.1,1.4v5c0,0.2-0.1,0.4-0.2,0.5c-0.2,0.2-0.3,0.2-0.5,0.2c-0.2,0-0.4-0.1-0.5-0.2c-0.2-0.2-0.2-0.3-0.2-0.5
		v-7.4c0-0.2,0.1-0.4,0.2-0.6c0.2-0.2,0.3-0.2,0.6-0.2c0.2,0,0.4,0.1,0.5,0.2c0.2,0.2,0.2,0.3,0.2,0.6v0.5l1.4-0.9
		c0.5-0.3,1-0.5,1.6-0.5h0.7c0.6,0,1.2,0.2,1.6,0.7c0.5,0.4,0.7,1,0.7,1.6l0.2,5.9c0,0.2-0.1,0.4-0.2,0.5c-0.2,0.2-0.3,0.2-0.6,0.2
		c-0.2,0-0.4-0.1-0.5-0.2c-0.2-0.1-0.2-0.3-0.2-0.6l-0.2-5.8c0-0.5-0.3-0.8-0.9-0.8h-0.8C243,33.5,242.8,33.6,242.5,33.8z"/>
	<path d="M264.1,35.3h3.1c0.2,0,0.4,0,0.7,0.1l0-1.1c0-0.2-0.1-0.4-0.2-0.6c-0.2-0.2-0.3-0.2-0.6-0.2h-3c-0.2,0-0.4-0.1-0.5-0.2
		c-0.2-0.2-0.2-0.3-0.2-0.5c0-0.2,0.1-0.4,0.2-0.6c0.2-0.2,0.3-0.2,0.6-0.2h3c0.6,0,1.2,0.2,1.6,0.7c0.5,0.5,0.7,1,0.7,1.7l0.2,5.8
		c0,0.2-0.1,0.4-0.2,0.6c-0.2,0.2-0.3,0.2-0.5,0.2c-0.2,0-0.4-0.1-0.6-0.2c-0.2-0.2-0.2-0.3-0.2-0.6l-1.3,0.8h-2.6
		c-0.7,0-1.2-0.2-1.7-0.7c-0.5-0.5-0.7-1-0.7-1.7v-0.9c0-0.6,0.2-1.2,0.7-1.7C262.9,35.5,263.5,35.3,264.1,35.3z M268,38.3l0-0.7
		c0-0.2-0.1-0.4-0.2-0.6c-0.1-0.1-0.3-0.2-0.5-0.2h-3.1c-0.2,0-0.4,0.1-0.6,0.2c-0.2,0.2-0.2,0.3-0.2,0.6v0.9c0,0.2,0.1,0.4,0.2,0.5
		c0.2,0.2,0.3,0.2,0.5,0.2h2.2L268,38.3z"/>
	<path d="M284.7,40.2v-7.4c0-0.2,0.1-0.4,0.2-0.6c0.2-0.2,0.3-0.2,0.6-0.2c0.2,0,0.4,0.1,0.6,0.2c0.2,0.2,0.2,0.3,0.2,0.6v1l1.3-1.1
		c0.5-0.4,1-0.7,1.5-0.7h1.1c0.6,0,1.2,0.2,1.7,0.7c0.5,0.5,0.7,1,0.7,1.7v0.4c0,0.2-0.1,0.4-0.2,0.6c-0.2,0.2-0.3,0.2-0.6,0.2
		c-0.2,0-0.4-0.1-0.6-0.2c-0.2-0.2-0.2-0.3-0.2-0.6v-0.4c0-0.2-0.1-0.4-0.2-0.6c-0.2-0.2-0.3-0.2-0.6-0.2h-1c-0.2,0-0.5,0.1-0.7,0.3
		l-2.2,1.9v4.4c0,0.2-0.1,0.4-0.2,0.6c-0.2,0.2-0.3,0.2-0.5,0.2c-0.2,0-0.4-0.1-0.6-0.2C284.8,40.6,284.7,40.4,284.7,40.2z"/>
	<path d="M304.1,34.8v3.3c0,0.7-0.3,1.3-1,1.9c-0.7,0.6-1.3,0.9-2,0.9h-1.8c-0.7,0-1.4-0.3-2-0.9c-0.6-0.6-1-1.2-1-1.9v-3.3
		c0-0.7,0.3-1.3,1-1.9c0.6-0.6,1.3-0.9,2.1-0.9h1.8c0.7,0,1.4,0.3,2,0.9C303.7,33.4,304.1,34.1,304.1,34.8z M297.8,34.9V38
		c0,0.3,0.1,0.5,0.3,0.7l0.6,0.5c0.1,0.1,0.3,0.2,0.5,0.2h1.8c0.3,0,0.5-0.1,0.7-0.3l0.5-0.4c0.2-0.1,0.3-0.4,0.3-0.6v-3.2
		c0-0.3-0.1-0.5-0.3-0.7l-0.5-0.4c-0.2-0.2-0.4-0.2-0.6-0.2h-1.6c-0.4,0-0.6,0.1-0.8,0.3l-0.5,0.5C297.9,34.4,297.8,34.6,297.8,34.9
		z"/>
	<path d="M315.5,34.8v3.3c0,0.7-0.3,1.3-1,1.9c-0.7,0.6-1.3,0.9-2,0.9h-1.8c-0.7,0-1.4-0.3-2-0.9c-0.6-0.6-1-1.2-1-1.9v-3.3
		c0-0.7,0.3-1.3,1-1.9c0.6-0.6,1.3-0.9,2.1-0.9h1.8c0.7,0,1.4,0.3,2,0.9C315.2,33.4,315.5,34.1,315.5,34.8z M309.3,34.9V38
		c0,0.3,0.1,0.5,0.3,0.7l0.6,0.5c0.1,0.1,0.3,0.2,0.5,0.2h1.8c0.3,0,0.5-0.1,0.7-0.3l0.5-0.4c0.2-0.1,0.3-0.4,0.3-0.6v-3.2
		c0-0.3-0.1-0.5-0.3-0.7l-0.5-0.4c-0.2-0.2-0.4-0.2-0.6-0.2h-1.6c-0.4,0-0.6,0.1-0.8,0.3l-0.5,0.5C309.3,34.4,309.3,34.6,309.3,34.9
		z"/>
	<path d="M319,40.2v-7.4c0-0.2,0.1-0.4,0.2-0.6c0.2-0.2,0.3-0.2,0.6-0.2c0.4,0,0.7,0.2,0.8,0.6c0.4-0.4,0.9-0.6,1.4-0.6
		c0.6,0,1.1,0.3,1.5,0.8c0.5-0.5,1-0.8,1.6-0.8c0.5,0,0.9,0.2,1.3,0.5c0.4,0.3,0.5,0.8,0.6,1.3l0.2,6.4c0,0.2-0.1,0.4-0.2,0.5
		c-0.2,0.2-0.3,0.2-0.5,0.2c-0.2,0-0.4-0.1-0.6-0.2c-0.2-0.2-0.2-0.3-0.2-0.5l-0.2-6.1c0-0.3-0.1-0.5-0.3-0.5c-0.1,0-0.2,0-0.3,0.1
		l-0.9,0.8v5.7c0,0.2-0.1,0.4-0.2,0.5c-0.2,0.1-0.3,0.2-0.6,0.2c-0.2,0-0.4-0.1-0.5-0.2c-0.2-0.2-0.2-0.3-0.2-0.6v-6.2
		c0-0.3-0.1-0.4-0.3-0.4c-0.1,0-0.2,0-0.3,0.1l-1.1,0.9v5.5c0,0.2-0.1,0.4-0.2,0.5c-0.1,0.2-0.3,0.2-0.5,0.2c-0.2,0-0.4-0.1-0.6-0.2
		C319.1,40.5,319,40.4,319,40.2z"/>
	<path d="M346.8,35.4v1.8l1,1.8l0.5-1.8l0.2-4.5c0-0.2,0.1-0.4,0.2-0.5c0.2-0.2,0.3-0.2,0.5-0.2c0.2,0,0.4,0.1,0.6,0.2
		c0.2,0.2,0.2,0.3,0.2,0.6l-0.2,4.9l-0.8,2.8c-0.1,0.4-0.4,0.6-0.7,0.6h-0.8c-0.3,0-0.5-0.1-0.7-0.4L346,39l-0.8,1.4
		c-0.2,0.3-0.4,0.5-0.7,0.5h-0.8c-0.2,0-0.3-0.1-0.5-0.2c-0.1-0.1-0.2-0.2-0.3-0.4l-0.8-2.9l-0.2-4.8c0-0.2,0.1-0.4,0.2-0.5
		c0.2-0.2,0.3-0.2,0.6-0.2c0.2,0,0.4,0.1,0.5,0.2c0.2,0.1,0.2,0.3,0.2,0.6l0.2,4.6l0.5,1.7l1.1-1.8v-1.8c0-0.2,0.1-0.4,0.2-0.5
		c0.2-0.2,0.3-0.2,0.6-0.2c0.2,0,0.4,0.1,0.5,0.2C346.7,35,346.8,35.2,346.8,35.4z"/>
	<path d="M359.9,40.9h-4.8c-0.2,0-0.4-0.1-0.6-0.2c-0.2-0.2-0.2-0.3-0.2-0.6c0-0.2,0.1-0.4,0.2-0.5c0.2-0.2,0.3-0.2,0.6-0.2h1.6
		v-5.8h-1.6c-0.2,0-0.4-0.1-0.6-0.2c-0.2-0.2-0.2-0.3-0.2-0.5c0-0.2,0.1-0.4,0.2-0.6c0.2-0.2,0.3-0.2,0.6-0.2h2.4
		c0.2,0,0.4,0.1,0.6,0.2c0.2,0.2,0.2,0.3,0.2,0.6v6.6h1.6c0.2,0,0.4,0.1,0.6,0.2c0.2,0.2,0.2,0.3,0.2,0.6c0,0.2-0.1,0.4-0.2,0.6
		C360.3,40.8,360.1,40.9,359.9,40.9z M356.7,27.9h0.8c0.2,0,0.4,0.1,0.6,0.2c0.2,0.2,0.2,0.3,0.2,0.6v0.7c0,0.2-0.1,0.4-0.2,0.6
		c-0.2,0.2-0.3,0.2-0.6,0.2h-0.8c-0.2,0-0.4-0.1-0.6-0.2c-0.2-0.2-0.2-0.3-0.2-0.5l0-0.7c0-0.2,0.1-0.4,0.2-0.6
		C356.3,28,356.5,27.9,356.7,27.9z"/>
	<path d="M370.5,40.9H369c-0.6,0-1.2-0.2-1.7-0.7c-0.5-0.5-0.7-1-0.7-1.7v-5.1h-0.8c-0.2,0-0.4-0.1-0.6-0.2
		c-0.2-0.1-0.2-0.3-0.2-0.6c0-0.2,0.1-0.4,0.2-0.6c0.2-0.2,0.3-0.2,0.6-0.2h0.8v-1.9c0-0.2,0.1-0.4,0.2-0.6c0.2-0.2,0.3-0.2,0.6-0.2
		c0.2,0,0.4,0.1,0.5,0.2c0.2,0.2,0.2,0.3,0.2,0.5V32h3.1c0.2,0,0.4,0.1,0.5,0.2c0.2,0.2,0.2,0.3,0.2,0.5c0,0.2-0.1,0.4-0.2,0.6
		c-0.2,0.2-0.3,0.2-0.5,0.2h-3.2v5.1c0,0.2,0.1,0.4,0.2,0.5c0.2,0.2,0.3,0.2,0.6,0.2h1.5c0.4,0,0.7-0.2,0.8-0.7
		c0.1-0.4,0.4-0.7,0.8-0.7c0.2,0,0.4,0.1,0.6,0.2c0.1,0.2,0.2,0.3,0.2,0.6c0,0.5-0.2,0.9-0.7,1.4C371.8,40.7,371.2,40.9,370.5,40.9z
		"/>
	<path d="M376.5,40.2V29.4c0-0.2,0.1-0.4,0.2-0.5s0.3-0.2,0.6-0.2c0.2,0,0.4,0.1,0.6,0.2c0.2,0.2,0.2,0.3,0.2,0.6v3.9l1.3-0.8
		c0.6-0.4,1.1-0.5,1.5-0.5h1c0.6,0,1.2,0.2,1.6,0.7c0.5,0.5,0.7,1,0.7,1.7l0.2,5.8c0,0.2-0.1,0.4-0.2,0.6c-0.2,0.2-0.3,0.2-0.6,0.2
		c-0.2,0-0.4-0.1-0.5-0.2c-0.1-0.2-0.2-0.3-0.2-0.5l-0.2-5.9c0-0.2-0.1-0.4-0.2-0.5c-0.2-0.2-0.3-0.2-0.6-0.2H381
		c-0.2,0-0.4,0.1-0.6,0.2l-2.2,1.4v5c0,0.2-0.1,0.4-0.2,0.6c-0.2,0.2-0.3,0.2-0.6,0.2c-0.2,0-0.4-0.1-0.6-0.2
		C376.6,40.6,376.5,40.4,376.5,40.2z"/>
	<path d="M401.7,32h3.6c0.6,0,1,0.2,1.5,0.5c0.4,0.3,0.6,0.7,0.6,1c0,0.2-0.1,0.4-0.2,0.5c-0.2,0.1-0.3,0.2-0.5,0.2
		c-0.2,0-0.5-0.1-0.7-0.3s-0.4-0.3-0.6-0.3h-3.5c-0.3,0-0.5,0.1-0.5,0.4c0,0.2,0.1,0.4,0.3,0.5l4.1,1.8c0.4,0.2,0.8,0.5,1,0.9
		c0.3,0.4,0.4,0.9,0.4,1.4c0,0.7-0.2,1.2-0.7,1.7c-0.5,0.5-1,0.7-1.6,0.7h-3.2c-0.5,0-1-0.2-1.5-0.5c-0.5-0.3-0.7-0.6-0.7-1
		c0-0.2,0.1-0.4,0.2-0.5c0.2-0.2,0.3-0.2,0.6-0.2c0.2,0,0.4,0.1,0.6,0.3s0.6,0.3,1,0.3h2.9c0.2,0,0.4-0.1,0.6-0.3
		c0.2-0.2,0.2-0.4,0.2-0.6c0-0.4-0.2-0.6-0.5-0.8l-4.2-1.9c-0.4-0.2-0.7-0.4-0.9-0.8c-0.2-0.3-0.3-0.7-0.3-1c0-0.6,0.2-1,0.6-1.4
		S401.1,32,401.7,32z"/>
	<path d="M417.3,40.9h-4.8c-0.2,0-0.4-0.1-0.6-0.2c-0.2-0.2-0.2-0.3-0.2-0.6c0-0.2,0.1-0.4,0.2-0.5c0.2-0.2,0.3-0.2,0.6-0.2h1.6
		v-5.8h-1.6c-0.2,0-0.4-0.1-0.6-0.2c-0.2-0.2-0.2-0.3-0.2-0.5c0-0.2,0.1-0.4,0.2-0.6c0.2-0.2,0.3-0.2,0.6-0.2h2.4
		c0.2,0,0.4,0.1,0.6,0.2c0.2,0.2,0.2,0.3,0.2,0.6v6.6h1.6c0.2,0,0.4,0.1,0.6,0.2c0.2,0.2,0.2,0.3,0.2,0.6c0,0.2-0.1,0.4-0.2,0.6
		C417.7,40.8,417.5,40.9,417.3,40.9z M414.1,27.9h0.8c0.2,0,0.4,0.1,0.6,0.2c0.2,0.2,0.2,0.3,0.2,0.6v0.7c0,0.2-0.1,0.4-0.2,0.6
		c-0.2,0.2-0.3,0.2-0.6,0.2h-0.8c-0.2,0-0.4-0.1-0.6-0.2c-0.2-0.2-0.2-0.3-0.2-0.5l0-0.7c0-0.2,0.1-0.4,0.2-0.6
		C413.7,28,413.9,27.9,414.1,27.9z"/>
	<path d="M422.3,40.2v-7.4c0-0.2,0.1-0.4,0.2-0.6c0.2-0.2,0.3-0.2,0.6-0.2c0.4,0,0.7,0.2,0.8,0.6c0.4-0.4,0.9-0.6,1.4-0.6
		c0.6,0,1.1,0.3,1.5,0.8c0.5-0.5,1-0.8,1.6-0.8c0.5,0,0.9,0.2,1.3,0.5c0.4,0.3,0.5,0.8,0.6,1.3l0.2,6.4c0,0.2-0.1,0.4-0.2,0.5
		c-0.2,0.2-0.3,0.2-0.5,0.2c-0.2,0-0.4-0.1-0.6-0.2c-0.2-0.2-0.2-0.3-0.2-0.5l-0.2-6.1c0-0.3-0.1-0.5-0.3-0.5c-0.1,0-0.2,0-0.3,0.1
		l-0.9,0.8v5.7c0,0.2-0.1,0.4-0.2,0.5s-0.3,0.2-0.6,0.2c-0.2,0-0.4-0.1-0.5-0.2c-0.2-0.2-0.2-0.3-0.2-0.6v-6.2
		c0-0.3-0.1-0.4-0.3-0.4c-0.1,0-0.2,0-0.3,0.1l-1.1,0.9v5.5c0,0.2-0.1,0.4-0.2,0.5c-0.1,0.2-0.3,0.2-0.5,0.2c-0.2,0-0.4-0.1-0.6-0.2
		C422.3,40.5,422.3,40.4,422.3,40.2z"/>
	<path d="M441.8,34.8v3.3c0,0.7-0.3,1.3-1,1.9c-0.7,0.6-1.3,0.9-2,0.9h-1.8c-0.7,0-1.4-0.3-2-0.9c-0.6-0.6-1-1.2-1-1.9v-3.3
		c0-0.7,0.3-1.3,1-1.9c0.6-0.6,1.3-0.9,2.1-0.9h1.8c0.7,0,1.4,0.3,2,0.9C441.4,33.4,441.8,34.1,441.8,34.8z M435.5,34.9V38
		c0,0.3,0.1,0.5,0.3,0.7l0.6,0.5c0.1,0.1,0.3,0.2,0.5,0.2h1.8c0.3,0,0.5-0.1,0.7-0.3l0.5-0.4c0.2-0.1,0.3-0.4,0.3-0.6v-3.2
		c0-0.3-0.1-0.5-0.3-0.7l-0.5-0.4c-0.2-0.2-0.4-0.2-0.6-0.2h-1.6c-0.4,0-0.6,0.1-0.8,0.3l-0.5,0.5C435.6,34.4,435.5,34.6,435.5,34.9
		z"/>
	<path d="M449.1,33.8l-2.1,1.4v5c0,0.2-0.1,0.4-0.2,0.5c-0.2,0.2-0.3,0.2-0.5,0.2c-0.2,0-0.4-0.1-0.5-0.2c-0.2-0.2-0.2-0.3-0.2-0.5
		v-7.4c0-0.2,0.1-0.4,0.2-0.6c0.2-0.2,0.3-0.2,0.6-0.2c0.2,0,0.4,0.1,0.5,0.2c0.2,0.2,0.2,0.3,0.2,0.6v0.5l1.4-0.9
		c0.5-0.3,1-0.5,1.6-0.5h0.7c0.6,0,1.2,0.2,1.6,0.7c0.5,0.4,0.7,1,0.7,1.6l0.2,5.9c0,0.2-0.1,0.4-0.2,0.5c-0.2,0.2-0.3,0.2-0.6,0.2
		c-0.2,0-0.4-0.1-0.5-0.2c-0.2-0.1-0.2-0.3-0.2-0.6l-0.2-5.8c0-0.5-0.3-0.8-0.9-0.8h-0.8C449.6,33.5,449.4,33.6,449.1,33.8z"/>
	<path d="M475.4,40.9h-3.3c-0.6,0-1.1-0.2-1.5-0.5l-1.5-1.3c-0.5-0.4-0.7-0.9-0.7-1.6v-2c0-0.7,0.2-1.2,0.8-1.7l1.4-1.2
		c0.4-0.4,0.9-0.5,1.4-0.5h3.5c0.2,0,0.4,0.1,0.6,0.2c0.2,0.2,0.2,0.3,0.2,0.6c0,0.2-0.1,0.4-0.2,0.6c-0.2,0.1-0.3,0.2-0.6,0.2h-3.3
		c-0.2,0-0.4,0.1-0.6,0.3l-1.3,1.1c-0.2,0.2-0.3,0.4-0.3,0.7v1.9c0,0.2,0.1,0.4,0.2,0.5l1.4,1.2c0.2,0.2,0.4,0.2,0.7,0.2h3.2
		c0.2,0,0.4,0.1,0.5,0.2c0.2,0.2,0.2,0.3,0.2,0.6c0,0.2-0.1,0.4-0.2,0.6C475.8,40.9,475.7,40.9,475.4,40.9z"/>
	<path d="M487.7,34.8v3.3c0,0.7-0.3,1.3-1,1.9c-0.7,0.6-1.3,0.9-2,0.9h-1.8c-0.7,0-1.4-0.3-2-0.9c-0.6-0.6-1-1.2-1-1.9v-3.3
		c0-0.7,0.3-1.3,1-1.9c0.6-0.6,1.3-0.9,2.1-0.9h1.8c0.7,0,1.4,0.3,2,0.9C487.4,33.4,487.7,34.1,487.7,34.8z M481.4,34.9V38
		c0,0.3,0.1,0.5,0.3,0.7l0.6,0.5c0.1,0.1,0.3,0.2,0.5,0.2h1.8c0.3,0,0.5-0.1,0.7-0.3l0.5-0.4c0.2-0.1,0.3-0.4,0.3-0.6v-3.2
		c0-0.3-0.1-0.5-0.3-0.7l-0.5-0.4c-0.2-0.2-0.4-0.2-0.6-0.2H483c-0.4,0-0.6,0.1-0.8,0.3l-0.5,0.5C481.5,34.4,481.4,34.6,481.4,34.9z
		"/>
	<path d="M496,35.4v1.8l1,1.8l0.5-1.8l0.2-4.5c0-0.2,0.1-0.4,0.2-0.5c0.2-0.2,0.3-0.2,0.5-0.2c0.2,0,0.4,0.1,0.6,0.2
		c0.2,0.2,0.2,0.3,0.2,0.6l-0.2,4.9l-0.8,2.8c-0.1,0.4-0.4,0.6-0.7,0.6h-0.8c-0.3,0-0.5-0.1-0.7-0.4l-0.8-1.5l-0.8,1.4
		c-0.2,0.3-0.4,0.5-0.7,0.5h-0.8c-0.2,0-0.3-0.1-0.5-0.2c-0.1-0.1-0.2-0.2-0.3-0.4l-0.8-2.9l-0.2-4.8c0-0.2,0.1-0.4,0.2-0.5
		c0.2-0.2,0.3-0.2,0.6-0.2c0.2,0,0.4,0.1,0.5,0.2c0.2,0.1,0.2,0.3,0.2,0.6l0.2,4.6l0.5,1.7l1.1-1.8v-1.8c0-0.2,0.1-0.4,0.2-0.5
		c0.2-0.2,0.3-0.2,0.6-0.2c0.2,0,0.4,0.1,0.5,0.2C495.9,35,496,35.2,496,35.4z"/>
	<path d="M510.6,34.9v1.9c0,0.2-0.1,0.4-0.2,0.5c-0.2,0.2-0.3,0.2-0.5,0.2h-5.5V38c0,0.3,0.1,0.5,0.3,0.7l0.5,0.4
		c0.2,0.2,0.5,0.3,0.7,0.3h4c0.2,0,0.4,0.1,0.5,0.2c0.2,0.2,0.2,0.3,0.2,0.6c0,0.2-0.1,0.4-0.2,0.5c-0.2,0.2-0.3,0.2-0.5,0.2h-4.1
		c-0.3,0-0.6-0.1-0.9-0.2c-0.3-0.1-0.5-0.2-0.7-0.4l-0.7-0.6c-0.2-0.2-0.4-0.4-0.5-0.7c-0.1-0.3-0.2-0.6-0.2-0.9v-3.6
		c0-0.2,0.1-0.5,0.2-0.8c0.2-0.3,0.4-0.6,0.6-0.8l0.7-0.5c0.4-0.3,0.9-0.5,1.4-0.5h2.2c0.6,0,1.1,0.2,1.6,0.7l0.6,0.6
		C510.4,33.6,510.6,34.2,510.6,34.9z M504.4,34.8V36h4.7v-1.1c0-0.3-0.1-0.5-0.3-0.7l-0.5-0.4c-0.2-0.2-0.4-0.3-0.6-0.3h-2
		c-0.2,0-0.5,0.1-0.7,0.3l-0.5,0.4C504.5,34.3,504.4,34.5,504.4,34.8z"/>
	<path d="M520.6,40.9h-4.7c-0.2,0-0.4-0.1-0.6-0.2c-0.2-0.2-0.2-0.3-0.2-0.6c0-0.2,0.1-0.4,0.2-0.5c0.2-0.2,0.3-0.2,0.6-0.2h1.6
		v-9.2h-1.6c-0.2,0-0.4-0.1-0.6-0.2c-0.2-0.2-0.2-0.3-0.2-0.6c0-0.2,0.1-0.4,0.2-0.6c0.2-0.2,0.3-0.2,0.6-0.2h2.4
		c0.2,0,0.4,0.1,0.5,0.2c0.2,0.2,0.2,0.3,0.2,0.5v10h1.6c0.2,0,0.4,0.1,0.5,0.2c0.2,0.2,0.2,0.3,0.2,0.5c0,0.2-0.1,0.4-0.2,0.6
		C521,40.9,520.8,40.9,520.6,40.9z"/>
	<path d="M532,36.1v4c0,0.2-0.1,0.4-0.2,0.6c-0.2,0.2-0.3,0.2-0.6,0.2c-0.2,0-0.4-0.1-0.6-0.2c-0.2-0.2-0.2-0.3-0.2-0.6v-3.3h-2.4
		c-0.2,0-0.4-0.1-0.6-0.2c-0.2-0.2-0.2-0.3-0.2-0.6c0-0.2,0.1-0.4,0.2-0.5c0.2-0.2,0.3-0.2,0.5-0.2h3.2c0.2,0,0.4,0.1,0.6,0.2
		C531.9,35.7,532,35.9,532,36.1z"/>
	<path d="M555.8,40.9h-3.3c-0.6,0-1.1-0.2-1.5-0.5l-1.5-1.3c-0.5-0.4-0.7-0.9-0.7-1.6v-2c0-0.7,0.2-1.2,0.8-1.7l1.4-1.2
		c0.4-0.4,0.9-0.5,1.4-0.5h3.5c0.2,0,0.4,0.1,0.6,0.2c0.2,0.2,0.2,0.3,0.2,0.6c0,0.2-0.1,0.4-0.2,0.6c-0.2,0.1-0.3,0.2-0.6,0.2h-3.3
		c-0.2,0-0.4,0.1-0.6,0.3l-1.3,1.1c-0.2,0.2-0.3,0.4-0.3,0.7v1.9c0,0.2,0.1,0.4,0.2,0.5l1.4,1.2c0.2,0.2,0.4,0.2,0.7,0.2h3.2
		c0.2,0,0.4,0.1,0.5,0.2c0.2,0.2,0.2,0.3,0.2,0.6c0,0.2-0.1,0.4-0.2,0.6C556.2,40.9,556,40.9,555.8,40.9z"/>
	<path d="M560.1,40.2V29.4c0-0.2,0.1-0.4,0.2-0.5s0.3-0.2,0.6-0.2c0.2,0,0.4,0.1,0.6,0.2c0.2,0.2,0.2,0.3,0.2,0.6v3.9l1.3-0.8
		c0.6-0.4,1.1-0.5,1.5-0.5h1c0.6,0,1.2,0.2,1.6,0.7c0.5,0.5,0.7,1,0.7,1.7l0.2,5.8c0,0.2-0.1,0.4-0.2,0.6c-0.2,0.2-0.3,0.2-0.6,0.2
		c-0.2,0-0.4-0.1-0.5-0.2c-0.1-0.2-0.2-0.3-0.2-0.5l-0.2-5.9c0-0.2-0.1-0.4-0.2-0.5c-0.2-0.2-0.3-0.2-0.6-0.2h-0.9
		c-0.2,0-0.4,0.1-0.6,0.2l-2.2,1.4v5c0,0.2-0.1,0.4-0.2,0.6c-0.2,0.2-0.3,0.2-0.6,0.2c-0.2,0-0.4-0.1-0.6-0.2
		C560.2,40.6,560.1,40.4,560.1,40.2z"/>
	<path d="M579.5,34.9v1.9c0,0.2-0.1,0.4-0.2,0.5c-0.2,0.2-0.3,0.2-0.5,0.2h-5.5V38c0,0.3,0.1,0.5,0.3,0.7l0.5,0.4
		c0.2,0.2,0.5,0.3,0.7,0.3h4c0.2,0,0.4,0.1,0.5,0.2c0.2,0.2,0.2,0.3,0.2,0.6c0,0.2-0.1,0.4-0.2,0.5c-0.2,0.2-0.3,0.2-0.5,0.2h-4.1
		c-0.3,0-0.6-0.1-0.9-0.2c-0.3-0.1-0.5-0.2-0.7-0.4l-0.7-0.6c-0.2-0.2-0.4-0.4-0.5-0.7c-0.1-0.3-0.2-0.6-0.2-0.9v-3.6
		c0-0.2,0.1-0.5,0.2-0.8c0.2-0.3,0.4-0.6,0.6-0.8l0.7-0.5c0.4-0.3,0.9-0.5,1.4-0.5h2.2c0.6,0,1.1,0.2,1.6,0.7l0.6,0.6
		C579.3,33.6,579.5,34.2,579.5,34.9z M573.2,34.8V36h4.7v-1.1c0-0.3-0.1-0.5-0.3-0.7l-0.5-0.4c-0.2-0.2-0.4-0.3-0.6-0.3h-2
		c-0.2,0-0.5,0.1-0.7,0.3l-0.5,0.4C573.3,34.3,573.2,34.5,573.2,34.8z"/>
	<path d="M586.7,33.5v6.6c0,0.2-0.1,0.4-0.2,0.6c-0.2,0.2-0.3,0.2-0.5,0.2c-0.2,0-0.4-0.1-0.6-0.2c-0.2-0.2-0.2-0.3-0.2-0.6v-6.6
		h-0.8c-0.2,0-0.4-0.1-0.6-0.2c-0.2-0.2-0.2-0.3-0.2-0.5c0-0.2,0.1-0.4,0.2-0.5c0.1-0.2,0.3-0.2,0.6-0.2h0.8v-0.6
		c0-0.8,0.3-1.5,0.8-2c0.5-0.5,1.2-0.8,2-0.8h1.8c0.2,0,0.4,0.1,0.6,0.2c0.2,0.2,0.2,0.3,0.2,0.6c0,0.2-0.1,0.4-0.2,0.5
		c-0.2,0.2-0.3,0.2-0.5,0.2H588c-0.4,0-0.7,0.1-0.9,0.3s-0.4,0.5-0.4,0.9V32h1.6c0.2,0,0.4,0.1,0.5,0.2c0.2,0.2,0.2,0.3,0.2,0.6
		c0,0.2-0.1,0.4-0.2,0.5c-0.2,0.2-0.3,0.2-0.5,0.2H586.7z"/>
	<path d="M606.1,40.2v-7.4c0-0.2,0.1-0.4,0.2-0.6c0.2-0.2,0.3-0.2,0.6-0.2c0.2,0,0.4,0.1,0.6,0.2c0.2,0.2,0.2,0.3,0.2,0.6v1l1.3-1.1
		c0.5-0.4,1-0.7,1.5-0.7h1.1c0.6,0,1.2,0.2,1.7,0.7c0.5,0.5,0.7,1,0.7,1.7v0.4c0,0.2-0.1,0.4-0.2,0.6c-0.2,0.2-0.3,0.2-0.6,0.2
		c-0.2,0-0.4-0.1-0.6-0.2c-0.2-0.2-0.2-0.3-0.2-0.6v-0.4c0-0.2-0.1-0.4-0.2-0.6c-0.2-0.2-0.3-0.2-0.6-0.2h-1c-0.2,0-0.5,0.1-0.7,0.3
		l-2.2,1.9v4.4c0,0.2-0.1,0.4-0.2,0.6c-0.2,0.2-0.3,0.2-0.5,0.2c-0.2,0-0.4-0.1-0.6-0.2C606.1,40.6,606.1,40.4,606.1,40.2z"/>
	<path d="M619.9,35.3h3.1c0.2,0,0.4,0,0.7,0.1l0-1.1c0-0.2-0.1-0.4-0.2-0.6c-0.2-0.2-0.3-0.2-0.6-0.2h-3c-0.2,0-0.4-0.1-0.5-0.2
		c-0.2-0.2-0.2-0.3-0.2-0.5c0-0.2,0.1-0.4,0.2-0.6c0.2-0.2,0.3-0.2,0.6-0.2h3c0.6,0,1.2,0.2,1.6,0.7c0.5,0.5,0.7,1,0.7,1.7l0.2,5.8
		c0,0.2-0.1,0.4-0.2,0.6c-0.2,0.2-0.3,0.2-0.5,0.2c-0.2,0-0.4-0.1-0.6-0.2c-0.2-0.2-0.2-0.3-0.2-0.6l-1.3,0.8h-2.6
		c-0.7,0-1.2-0.2-1.7-0.7c-0.5-0.5-0.7-1-0.7-1.7v-0.9c0-0.6,0.2-1.2,0.7-1.7C618.7,35.5,619.2,35.3,619.9,35.3z M623.8,38.3l0-0.7
		c0-0.2-0.1-0.4-0.2-0.6s-0.3-0.2-0.5-0.2h-3.1c-0.2,0-0.4,0.1-0.6,0.2c-0.2,0.2-0.2,0.3-0.2,0.6v0.9c0,0.2,0.1,0.4,0.2,0.5
		c0.2,0.2,0.3,0.2,0.5,0.2h2.2L623.8,38.3z"/>
	<path d="M628.8,40.2v-7.4c0-0.2,0.1-0.4,0.2-0.6c0.2-0.2,0.3-0.2,0.6-0.2c0.4,0,0.7,0.2,0.8,0.6c0.4-0.4,0.9-0.6,1.4-0.6
		c0.6,0,1.1,0.3,1.5,0.8c0.5-0.5,1-0.8,1.6-0.8c0.5,0,0.9,0.2,1.3,0.5c0.4,0.3,0.5,0.8,0.6,1.3l0.2,6.4c0,0.2-0.1,0.4-0.2,0.5
		c-0.2,0.2-0.3,0.2-0.5,0.2c-0.2,0-0.4-0.1-0.6-0.2c-0.2-0.2-0.2-0.3-0.2-0.5l-0.2-6.1c0-0.3-0.1-0.5-0.3-0.5c-0.1,0-0.2,0-0.3,0.1
		l-0.9,0.8v5.7c0,0.2-0.1,0.4-0.2,0.5s-0.3,0.2-0.6,0.2c-0.2,0-0.4-0.1-0.5-0.2c-0.2-0.2-0.2-0.3-0.2-0.6v-6.2
		c0-0.3-0.1-0.4-0.3-0.4c-0.1,0-0.2,0-0.3,0.1l-1.1,0.9v5.5c0,0.2-0.1,0.4-0.2,0.5c-0.1,0.2-0.3,0.2-0.5,0.2c-0.2,0-0.4-0.1-0.6-0.2
		C628.9,40.5,628.8,40.4,628.8,40.2z"/>
	<path d="M642.7,32h3.6c0.6,0,1,0.2,1.5,0.5c0.4,0.3,0.6,0.7,0.6,1c0,0.2-0.1,0.4-0.2,0.5c-0.2,0.1-0.3,0.2-0.5,0.2
		c-0.2,0-0.5-0.1-0.7-0.3s-0.4-0.3-0.6-0.3h-3.5c-0.3,0-0.5,0.1-0.5,0.4c0,0.2,0.1,0.4,0.3,0.5l4.1,1.8c0.4,0.2,0.8,0.5,1,0.9
		c0.3,0.4,0.4,0.9,0.4,1.4c0,0.7-0.2,1.2-0.7,1.7c-0.5,0.5-1,0.7-1.6,0.7h-3.2c-0.5,0-1-0.2-1.5-0.5c-0.5-0.3-0.7-0.6-0.7-1
		c0-0.2,0.1-0.4,0.2-0.5c0.2-0.2,0.3-0.2,0.6-0.2c0.2,0,0.4,0.1,0.6,0.3s0.6,0.3,1,0.3h2.9c0.2,0,0.4-0.1,0.6-0.3
		c0.2-0.2,0.2-0.4,0.2-0.6c0-0.4-0.2-0.6-0.5-0.8l-4.2-1.9c-0.4-0.2-0.7-0.4-0.9-0.8c-0.2-0.3-0.3-0.7-0.3-1c0-0.6,0.2-1,0.6-1.4
		S642.1,32,642.7,32z"/>
	<path d="M659.8,34.9v1.9c0,0.2-0.1,0.4-0.2,0.5c-0.2,0.2-0.3,0.2-0.5,0.2h-5.5V38c0,0.3,0.1,0.5,0.3,0.7l0.5,0.4
		c0.2,0.2,0.5,0.3,0.7,0.3h4c0.2,0,0.4,0.1,0.5,0.2c0.2,0.2,0.2,0.3,0.2,0.6c0,0.2-0.1,0.4-0.2,0.5c-0.2,0.2-0.3,0.2-0.5,0.2h-4.1
		c-0.3,0-0.6-0.1-0.9-0.2c-0.3-0.1-0.5-0.2-0.7-0.4l-0.7-0.6c-0.2-0.2-0.4-0.4-0.5-0.7c-0.1-0.3-0.2-0.6-0.2-0.9v-3.6
		c0-0.2,0.1-0.5,0.2-0.8c0.2-0.3,0.4-0.6,0.6-0.8l0.7-0.5c0.4-0.3,0.9-0.5,1.4-0.5h2.2c0.6,0,1.1,0.2,1.6,0.7l0.6,0.6
		C659.6,33.6,659.8,34.2,659.8,34.9z M653.6,34.8V36h4.7v-1.1c0-0.3-0.1-0.5-0.3-0.7l-0.5-0.4c-0.2-0.2-0.4-0.3-0.6-0.3h-2
		c-0.2,0-0.5,0.1-0.7,0.3l-0.5,0.4C653.7,34.3,653.6,34.5,653.6,34.8z"/>
	<path d="M671.3,34.3l-4.2,9.5c-0.1,0.3-0.4,0.5-0.7,0.5h-2.2c-0.2,0-0.4-0.1-0.6-0.2c-0.2-0.1-0.2-0.3-0.2-0.6
		c0-0.2,0.1-0.4,0.2-0.5s0.3-0.2,0.6-0.2h1.7l1.1-2.5h-0.4c-0.4,0-0.6-0.2-0.8-0.5l-2.3-5.4v-1.5c0-0.2,0.1-0.4,0.2-0.6
		c0.1-0.2,0.3-0.2,0.5-0.2c0.2,0,0.4,0.1,0.6,0.2c0.2,0.2,0.2,0.3,0.2,0.6l0,1.2l2.1,4.8h0.5l2.1-4.7l0-1.2c0-0.2,0.1-0.4,0.2-0.5
		c0.2-0.2,0.3-0.2,0.6-0.2c0.2,0,0.4,0.1,0.5,0.2c0.2,0.2,0.2,0.3,0.2,0.5V34.3z"/>
	<path d="M681.2,36.1v4c0,0.2-0.1,0.4-0.2,0.6c-0.2,0.2-0.3,0.2-0.6,0.2c-0.2,0-0.4-0.1-0.6-0.2c-0.2-0.2-0.2-0.3-0.2-0.6v-3.3h-2.4
		c-0.2,0-0.4-0.1-0.6-0.2c-0.2-0.2-0.2-0.3-0.2-0.6c0-0.2,0.1-0.4,0.2-0.5c0.2-0.2,0.3-0.2,0.5-0.2h3.2c0.2,0,0.4,0.1,0.6,0.2
		C681.1,35.7,681.2,35.9,681.2,36.1z"/>
	<path d="M700.2,35.3h3.1c0.2,0,0.4,0,0.7,0.1l0-1.1c0-0.2-0.1-0.4-0.2-0.6c-0.2-0.2-0.3-0.2-0.6-0.2h-3c-0.2,0-0.4-0.1-0.5-0.2
		c-0.2-0.2-0.2-0.3-0.2-0.5c0-0.2,0.1-0.4,0.2-0.6c0.2-0.2,0.3-0.2,0.6-0.2h3c0.6,0,1.2,0.2,1.6,0.7c0.5,0.5,0.7,1,0.7,1.7l0.2,5.8
		c0,0.2-0.1,0.4-0.2,0.6c-0.2,0.2-0.3,0.2-0.5,0.2c-0.2,0-0.4-0.1-0.6-0.2c-0.2-0.2-0.2-0.3-0.2-0.6l-1.3,0.8h-2.6
		c-0.7,0-1.2-0.2-1.7-0.7c-0.5-0.5-0.7-1-0.7-1.7v-0.9c0-0.6,0.2-1.2,0.7-1.7C699,35.5,699.6,35.3,700.2,35.3z M704.1,38.3l0-0.7
		c0-0.2-0.1-0.4-0.2-0.6s-0.3-0.2-0.5-0.2h-3.1c-0.2,0-0.4,0.1-0.6,0.2c-0.2,0.2-0.2,0.3-0.2,0.6v0.9c0,0.2,0.1,0.4,0.2,0.5
		c0.2,0.2,0.3,0.2,0.5,0.2h2.2L704.1,38.3z"/>
	<path d="M713,33.8l-2.1,1.4v5c0,0.2-0.1,0.4-0.2,0.5c-0.2,0.2-0.3,0.2-0.5,0.2c-0.2,0-0.4-0.1-0.5-0.2c-0.2-0.2-0.2-0.3-0.2-0.5
		v-7.4c0-0.2,0.1-0.4,0.2-0.6c0.2-0.2,0.3-0.2,0.6-0.2c0.2,0,0.4,0.1,0.5,0.2c0.2,0.2,0.2,0.3,0.2,0.6v0.5l1.4-0.9
		c0.5-0.3,1-0.5,1.6-0.5h0.7c0.6,0,1.2,0.2,1.6,0.7c0.5,0.4,0.7,1,0.7,1.6l0.2,5.9c0,0.2-0.1,0.4-0.2,0.5c-0.2,0.2-0.3,0.2-0.6,0.2
		c-0.2,0-0.4-0.1-0.5-0.2c-0.2-0.1-0.2-0.3-0.2-0.6l-0.2-5.8c0-0.5-0.3-0.8-0.9-0.8h-0.8C713.6,33.5,713.3,33.6,713,33.8z"/>
	<path d="M727.1,33.1v-3.7c0-0.2,0.1-0.4,0.2-0.6c0.1-0.2,0.3-0.2,0.5-0.2c0.2,0,0.4,0.1,0.6,0.2c0.2,0.2,0.2,0.3,0.2,0.6v10.8
		c0,0.2-0.1,0.4-0.2,0.6c-0.2,0.2-0.3,0.2-0.5,0.2c-0.2,0-0.4-0.1-0.6-0.2c-0.1-0.2-0.2-0.3-0.2-0.6v-0.3c-0.8,0.7-1.5,1.1-2.1,1.1
		h-1.3c-0.5,0-1.1-0.2-1.6-0.7l-0.6-0.5c-0.1-0.1-0.3-0.4-0.4-0.7c-0.1-0.3-0.2-0.6-0.2-0.9v-3.2c0-0.4,0.1-0.7,0.2-1
		c0.1-0.3,0.3-0.6,0.5-0.7l0.6-0.5c0.5-0.4,1-0.6,1.6-0.6h1.1c0.6,0,1.2,0.2,1.7,0.6L727.1,33.1z M724.8,33.5h-1.1
		c-0.2,0-0.4,0.1-0.6,0.3l-0.5,0.4c-0.2,0.2-0.3,0.4-0.3,0.6v3.3c0,0.2,0.1,0.4,0.3,0.6l0.5,0.4c0.2,0.1,0.3,0.2,0.5,0.2h1.3
		c0.2,0,0.4-0.1,0.6-0.3l1.2-1c0.2-0.2,0.3-0.4,0.3-0.7v-1.7c0-0.4-0.1-0.7-0.3-0.8l-1.3-1.1C725.3,33.6,725.1,33.5,724.8,33.5z"/>
	<path d="M40.1,57.1l-4.2,9.5c-0.1,0.3-0.4,0.5-0.7,0.5H33c-0.2,0-0.4-0.1-0.6-0.2c-0.2-0.1-0.2-0.3-0.2-0.6c0-0.2,0.1-0.4,0.2-0.5
		c0.2-0.1,0.3-0.2,0.6-0.2h1.7l1.1-2.5h-0.4c-0.4,0-0.6-0.2-0.8-0.5l-2.3-5.4v-1.5c0-0.2,0.1-0.4,0.2-0.6c0.1-0.2,0.3-0.2,0.5-0.2
		c0.2,0,0.4,0.1,0.6,0.2c0.2,0.2,0.2,0.3,0.2,0.6l0,1.2l2.1,4.8h0.5l2.1-4.7l0-1.2c0-0.2,0.1-0.4,0.2-0.5c0.2-0.2,0.3-0.2,0.6-0.2
		c0.2,0,0.4,0.1,0.5,0.2c0.2,0.2,0.2,0.3,0.2,0.5V57.1z"/>
	<path d="M51.6,57.6v3.3c0,0.7-0.3,1.3-1,1.9c-0.7,0.6-1.3,0.9-2,0.9h-1.8c-0.7,0-1.4-0.3-2-0.9c-0.6-0.6-1-1.2-1-1.9v-3.3
		c0-0.7,0.3-1.3,1-1.9c0.6-0.6,1.3-0.9,2.1-0.9h1.8c0.7,0,1.4,0.3,2,0.9C51.3,56.2,51.6,56.9,51.6,57.6z M45.3,57.7v3.2
		c0,0.3,0.1,0.5,0.3,0.7l0.6,0.5c0.1,0.1,0.3,0.2,0.5,0.2h1.8c0.3,0,0.5-0.1,0.7-0.3l0.5-0.4c0.2-0.1,0.3-0.4,0.3-0.6v-3.2
		c0-0.3-0.1-0.5-0.3-0.7l-0.5-0.4c-0.2-0.2-0.4-0.2-0.6-0.2h-1.6c-0.4,0-0.6,0.1-0.8,0.3L45.6,57C45.4,57.2,45.3,57.4,45.3,57.7z"/>
	<path d="M58.9,62.2l2.6-1.7v-4.9c0-0.2,0.1-0.4,0.2-0.6c0.2-0.2,0.3-0.2,0.6-0.2c0.2,0,0.4,0.1,0.6,0.2c0.2,0.2,0.2,0.3,0.2,0.6V63
		c0,0.2-0.1,0.4-0.2,0.5c-0.2,0.2-0.3,0.2-0.5,0.2c-0.2,0-0.4-0.1-0.5-0.2c-0.2-0.2-0.2-0.3-0.2-0.5v-0.6l-1.4,0.9
		c-0.5,0.3-1.1,0.5-1.6,0.5h-0.7c-0.6,0-1.2-0.2-1.6-0.7c-0.5-0.4-0.7-1-0.7-1.6l-0.2-5.9c0-0.2,0.1-0.4,0.2-0.5
		c0.2-0.2,0.3-0.2,0.6-0.2c0.2,0,0.4,0.1,0.5,0.2c0.2,0.2,0.2,0.3,0.2,0.5l0.2,5.8c0,0.6,0.3,0.8,1,0.8H58.9z"/>
	<path d="M66.7,63v-7.4c0-0.2,0.1-0.4,0.2-0.6c0.2-0.2,0.3-0.2,0.6-0.2c0.2,0,0.4,0.1,0.6,0.2c0.2,0.2,0.2,0.3,0.2,0.6v1l1.3-1.1
		c0.5-0.4,1-0.7,1.5-0.7h1.1c0.6,0,1.2,0.2,1.7,0.7c0.5,0.5,0.7,1,0.7,1.7v0.4c0,0.2-0.1,0.4-0.2,0.6c-0.2,0.2-0.3,0.2-0.6,0.2
		c-0.2,0-0.4-0.1-0.6-0.2C73.1,58,73,57.8,73,57.6v-0.4c0-0.2-0.1-0.4-0.2-0.6c-0.2-0.2-0.3-0.2-0.6-0.2h-1c-0.2,0-0.5,0.1-0.7,0.3
		l-2.2,1.9V63c0,0.2-0.1,0.4-0.2,0.6c-0.2,0.2-0.3,0.2-0.5,0.2c-0.2,0-0.4-0.1-0.6-0.2C66.8,63.4,66.7,63.2,66.7,63z"/>
	<path d="M95.9,63.7h-4.7c-0.2,0-0.4-0.1-0.6-0.2c-0.2-0.2-0.2-0.3-0.2-0.6c0-0.2,0.1-0.4,0.2-0.5c0.2-0.2,0.3-0.2,0.6-0.2h1.6V53
		h-1.6c-0.2,0-0.4-0.1-0.6-0.2c-0.2-0.2-0.2-0.3-0.2-0.6c0-0.2,0.1-0.4,0.2-0.6c0.2-0.2,0.3-0.2,0.6-0.2h2.4c0.2,0,0.4,0.1,0.5,0.2
		c0.2,0.2,0.2,0.3,0.2,0.5v10h1.6c0.2,0,0.4,0.1,0.5,0.2c0.2,0.2,0.2,0.3,0.2,0.5c0,0.2-0.1,0.4-0.2,0.6
		C96.3,63.7,96.2,63.7,95.9,63.7z"/>
	<path d="M103.4,58.1h3.1c0.2,0,0.4,0,0.7,0.1l0-1.1c0-0.2-0.1-0.4-0.2-0.6c-0.2-0.2-0.3-0.2-0.6-0.2h-3c-0.2,0-0.4-0.1-0.5-0.2
		c-0.2-0.2-0.2-0.3-0.2-0.5c0-0.2,0.1-0.4,0.2-0.6c0.2-0.2,0.3-0.2,0.6-0.2h3c0.6,0,1.2,0.2,1.6,0.7c0.5,0.5,0.7,1,0.7,1.7L109,63
		c0,0.2-0.1,0.4-0.2,0.6c-0.2,0.2-0.3,0.2-0.5,0.2c-0.2,0-0.4-0.1-0.6-0.2c-0.2-0.2-0.2-0.3-0.2-0.6l-1.3,0.8h-2.6
		c-0.7,0-1.2-0.2-1.7-0.7c-0.5-0.5-0.7-1-0.7-1.7v-0.9c0-0.6,0.2-1.2,0.7-1.7C102.2,58.3,102.8,58.1,103.4,58.1z M107.3,61.1l0-0.7
		c0-0.2-0.1-0.4-0.2-0.6c-0.1-0.1-0.3-0.2-0.5-0.2h-3.1c-0.2,0-0.4,0.1-0.6,0.2c-0.2,0.2-0.2,0.3-0.2,0.6v0.9c0,0.2,0.1,0.4,0.2,0.5
		c0.2,0.2,0.3,0.2,0.5,0.2h2.2L107.3,61.1z"/>
	<path d="M114.8,54.8h3.6c0.6,0,1,0.2,1.5,0.5c0.4,0.3,0.6,0.7,0.6,1c0,0.2-0.1,0.4-0.2,0.5c-0.2,0.1-0.3,0.2-0.5,0.2
		c-0.2,0-0.5-0.1-0.7-0.3s-0.4-0.3-0.6-0.3h-3.5c-0.3,0-0.5,0.1-0.5,0.4c0,0.2,0.1,0.4,0.3,0.5l4.1,1.8c0.4,0.2,0.8,0.5,1,0.9
		c0.3,0.4,0.4,0.9,0.4,1.4c0,0.7-0.2,1.2-0.7,1.7c-0.5,0.5-1,0.7-1.6,0.7h-3.2c-0.5,0-1-0.2-1.5-0.5c-0.5-0.3-0.7-0.6-0.7-1
		c0-0.2,0.1-0.4,0.2-0.5c0.2-0.2,0.3-0.2,0.6-0.2c0.2,0,0.4,0.1,0.6,0.3c0.2,0.2,0.6,0.3,1,0.3h2.9c0.2,0,0.4-0.1,0.6-0.3
		c0.2-0.2,0.2-0.4,0.2-0.6c0-0.4-0.2-0.6-0.5-0.8l-4.2-1.9c-0.4-0.2-0.7-0.4-0.9-0.8c-0.2-0.3-0.3-0.7-0.3-1c0-0.6,0.2-1,0.6-1.4
		C113.7,55,114.2,54.8,114.8,54.8z"/>
	<path d="M129.5,63.7H128c-0.6,0-1.2-0.2-1.7-0.7c-0.5-0.5-0.7-1-0.7-1.7v-5.1h-0.8c-0.2,0-0.4-0.1-0.6-0.2
		c-0.2-0.1-0.2-0.3-0.2-0.6c0-0.2,0.1-0.4,0.2-0.6c0.2-0.2,0.3-0.2,0.6-0.2h0.8v-1.9c0-0.2,0.1-0.4,0.2-0.6c0.2-0.2,0.3-0.2,0.6-0.2
		c0.2,0,0.4,0.1,0.5,0.2c0.2,0.2,0.2,0.3,0.2,0.5v1.9h3.1c0.2,0,0.4,0.1,0.5,0.2c0.2,0.2,0.2,0.3,0.2,0.5c0,0.2-0.1,0.4-0.2,0.6
		c-0.2,0.2-0.3,0.2-0.5,0.2h-3.2v5.1c0,0.2,0.1,0.4,0.2,0.5c0.2,0.2,0.3,0.2,0.6,0.2h1.5c0.4,0,0.7-0.2,0.8-0.7
		c0.1-0.4,0.4-0.7,0.8-0.7c0.2,0,0.4,0.1,0.6,0.2c0.1,0.2,0.2,0.3,0.2,0.6c0,0.5-0.2,0.9-0.7,1.4C130.8,63.5,130.2,63.7,129.5,63.7z
		"/>
	<path d="M147,63V52.2c0-0.2,0.1-0.4,0.2-0.5c0.2-0.1,0.3-0.2,0.6-0.2c0.2,0,0.4,0.1,0.6,0.2c0.2,0.2,0.2,0.3,0.2,0.6v3.9l1.3-0.8
		c0.6-0.4,1.1-0.5,1.5-0.5h1c0.6,0,1.2,0.2,1.6,0.7c0.5,0.5,0.7,1,0.7,1.7l0.2,5.8c0,0.2-0.1,0.4-0.2,0.6c-0.2,0.2-0.3,0.2-0.6,0.2
		c-0.2,0-0.4-0.1-0.5-0.2c-0.1-0.2-0.2-0.3-0.2-0.5l-0.2-5.9c0-0.2-0.1-0.4-0.2-0.5c-0.2-0.2-0.3-0.2-0.6-0.2h-0.9
		c-0.2,0-0.4,0.1-0.6,0.2l-2.2,1.4v5c0,0.2-0.1,0.4-0.2,0.6c-0.2,0.2-0.3,0.2-0.6,0.2c-0.2,0-0.4-0.1-0.6-0.2
		C147.1,63.4,147,63.2,147,63z"/>
	<path d="M166.4,57.6v3.3c0,0.7-0.3,1.3-1,1.9c-0.7,0.6-1.3,0.9-2,0.9h-1.8c-0.7,0-1.4-0.3-2-0.9c-0.6-0.6-1-1.2-1-1.9v-3.3
		c0-0.7,0.3-1.3,1-1.9c0.6-0.6,1.3-0.9,2.1-0.9h1.8c0.7,0,1.4,0.3,2,0.9C166,56.2,166.4,56.9,166.4,57.6z M160.1,57.7v3.2
		c0,0.3,0.1,0.5,0.3,0.7L161,62c0.1,0.1,0.3,0.2,0.5,0.2h1.8c0.3,0,0.5-0.1,0.7-0.3l0.5-0.4c0.2-0.1,0.3-0.4,0.3-0.6v-3.2
		c0-0.3-0.1-0.5-0.3-0.7l-0.5-0.4c-0.2-0.2-0.4-0.2-0.6-0.2h-1.6c-0.4,0-0.6,0.1-0.8,0.3l-0.5,0.5C160.2,57.2,160.1,57.4,160.1,57.7
		z"/>
	<path d="M177.8,57.6v3.3c0,0.7-0.3,1.3-1,1.9c-0.7,0.6-1.3,0.9-2,0.9H173c-0.7,0-1.4-0.3-2-0.9c-0.6-0.6-1-1.2-1-1.9v-3.3
		c0-0.7,0.3-1.3,1-1.9c0.6-0.6,1.3-0.9,2.1-0.9h1.8c0.7,0,1.4,0.3,2,0.9C177.5,56.2,177.8,56.9,177.8,57.6z M171.5,57.7v3.2
		c0,0.3,0.1,0.5,0.3,0.7l0.6,0.5c0.1,0.1,0.3,0.2,0.5,0.2h1.8c0.3,0,0.5-0.1,0.7-0.3l0.5-0.4c0.2-0.1,0.3-0.4,0.3-0.6v-3.2
		c0-0.3-0.1-0.5-0.3-0.7l-0.5-0.4c-0.2-0.2-0.4-0.2-0.6-0.2h-1.6c-0.4,0-0.6,0.1-0.8,0.3l-0.5,0.5C171.6,57.2,171.5,57.4,171.5,57.7
		z"/>
	<path d="M181.5,63V52.2c0-0.2,0.1-0.4,0.2-0.6c0.2-0.2,0.3-0.2,0.6-0.2c0.2,0,0.4,0.1,0.6,0.2c0.2,0.2,0.2,0.3,0.2,0.6v6.4l4.2-3.6
		c0.2-0.1,0.4-0.2,0.6-0.2c0.2,0,0.4,0.1,0.6,0.2c0.1,0.2,0.2,0.3,0.2,0.6c0,0.2-0.1,0.4-0.2,0.5l-3.3,2.8l4,3.5
		c0.2,0.1,0.2,0.3,0.2,0.5c0,0.2-0.1,0.4-0.2,0.6c-0.1,0.2-0.3,0.2-0.5,0.2c-0.2,0-0.4-0.1-0.6-0.2l-4.2-3.6l-0.8,0.7V63
		c0,0.2-0.1,0.4-0.2,0.6c-0.2,0.2-0.3,0.2-0.6,0.2c-0.2,0-0.4-0.1-0.6-0.2C181.5,63.4,181.5,63.2,181.5,63z"/>
	<path d="M196.6,62.2l2.6-1.7v-4.9c0-0.2,0.1-0.4,0.2-0.6c0.2-0.2,0.3-0.2,0.6-0.2c0.2,0,0.4,0.1,0.6,0.2c0.2,0.2,0.2,0.3,0.2,0.6
		V63c0,0.2-0.1,0.4-0.2,0.5c-0.2,0.2-0.3,0.2-0.5,0.2c-0.2,0-0.4-0.1-0.5-0.2c-0.2-0.2-0.2-0.3-0.2-0.5v-0.6l-1.4,0.9
		c-0.5,0.3-1.1,0.5-1.6,0.5h-0.7c-0.6,0-1.2-0.2-1.6-0.7c-0.5-0.4-0.7-1-0.7-1.6l-0.2-5.9c0-0.2,0.1-0.4,0.2-0.5
		c0.2-0.2,0.3-0.2,0.6-0.2c0.2,0,0.4,0.1,0.5,0.2c0.2,0.2,0.2,0.3,0.2,0.5l0.2,5.8c0,0.6,0.3,0.8,1,0.8H196.6z"/>
	<path d="M206,62.8v3.5c0,0.2-0.1,0.4-0.2,0.6c-0.2,0.2-0.3,0.2-0.6,0.2c-0.2,0-0.4-0.1-0.6-0.2c-0.2-0.2-0.2-0.3-0.2-0.6V55.2
		c0-0.2,0.1-0.4,0.2-0.5c0.2-0.2,0.3-0.2,0.6-0.2c0.2,0,0.4,0.1,0.5,0.2c0.2,0.2,0.2,0.3,0.2,0.5v0.5c0.8-0.8,1.5-1.3,2.2-1.3h0.4
		c0.6,0,1.1,0.2,1.5,0.6l1.3,1.1c0.6,0.5,0.9,1.1,0.9,1.9v2.4c0,0.8-0.3,1.4-0.9,1.9l-1.3,1.1c-0.4,0.4-1,0.6-1.6,0.6h-0.3
		c-0.6,0-1.1-0.2-1.5-0.6L206,62.8z M208.2,62.5h0.4c0.2,0,0.4-0.1,0.6-0.3l1.2-1.1c0.2-0.2,0.3-0.4,0.3-0.7V58
		c0-0.2-0.1-0.5-0.3-0.7l-1.3-1.1c-0.1-0.1-0.3-0.2-0.5-0.2h-0.5c-0.2,0-0.4,0.1-0.7,0.4l-1.2,1.2c-0.2,0.2-0.3,0.4-0.3,0.7v2
		c0,0.2,0.1,0.5,0.3,0.7l1.1,1.1C207.7,62.4,208,62.5,208.2,62.5z"/>
	<path d="M233.6,63.7h-4.8c-0.2,0-0.4-0.1-0.6-0.2c-0.2-0.2-0.2-0.3-0.2-0.6c0-0.2,0.1-0.4,0.2-0.5c0.2-0.2,0.3-0.2,0.6-0.2h1.6
		v-5.8h-1.6c-0.2,0-0.4-0.1-0.6-0.2c-0.2-0.2-0.2-0.3-0.2-0.5c0-0.2,0.1-0.4,0.2-0.6c0.2-0.2,0.3-0.2,0.6-0.2h2.4
		c0.2,0,0.4,0.1,0.6,0.2c0.2,0.2,0.2,0.3,0.2,0.6v6.6h1.6c0.2,0,0.4,0.1,0.6,0.2c0.2,0.2,0.2,0.3,0.2,0.6c0,0.2-0.1,0.4-0.2,0.6
		C234,63.6,233.9,63.7,233.6,63.7z M230.5,50.7h0.8c0.2,0,0.4,0.1,0.6,0.2c0.2,0.2,0.2,0.3,0.2,0.6v0.7c0,0.2-0.1,0.4-0.2,0.6
		c-0.2,0.2-0.3,0.2-0.6,0.2h-0.8c-0.2,0-0.4-0.1-0.6-0.2c-0.2-0.2-0.2-0.3-0.2-0.5l0-0.7c0-0.2,0.1-0.4,0.2-0.6
		C230.1,50.8,230.3,50.7,230.5,50.7z"/>
	<path d="M242.4,56.3V63c0,0.2-0.1,0.4-0.2,0.6c-0.2,0.2-0.3,0.2-0.5,0.2c-0.2,0-0.4-0.1-0.6-0.2c-0.2-0.2-0.2-0.3-0.2-0.6v-6.6H240
		c-0.2,0-0.4-0.1-0.6-0.2c-0.2-0.2-0.2-0.3-0.2-0.5c0-0.2,0.1-0.4,0.2-0.5c0.1-0.2,0.3-0.2,0.6-0.2h0.8v-0.6c0-0.8,0.3-1.5,0.8-2
		c0.5-0.5,1.2-0.8,2-0.8h1.8c0.2,0,0.4,0.1,0.6,0.2c0.2,0.2,0.2,0.3,0.2,0.6c0,0.2-0.1,0.4-0.2,0.5c-0.2,0.2-0.3,0.2-0.5,0.2h-1.8
		c-0.4,0-0.7,0.1-0.9,0.3c-0.2,0.2-0.4,0.5-0.4,0.9v0.6h1.6c0.2,0,0.4,0.1,0.5,0.2c0.2,0.2,0.2,0.3,0.2,0.6c0,0.2-0.1,0.4-0.2,0.5
		c-0.2,0.2-0.3,0.2-0.5,0.2H242.4z"/>
	<path d="M269.7,57.1l-4.2,9.5c-0.1,0.3-0.4,0.5-0.7,0.5h-2.2c-0.2,0-0.4-0.1-0.6-0.2c-0.2-0.1-0.2-0.3-0.2-0.6
		c0-0.2,0.1-0.4,0.2-0.5c0.2-0.1,0.3-0.2,0.6-0.2h1.7l1.1-2.5h-0.4c-0.4,0-0.6-0.2-0.8-0.5l-2.3-5.4v-1.5c0-0.2,0.1-0.4,0.2-0.6
		c0.1-0.2,0.3-0.2,0.5-0.2c0.2,0,0.4,0.1,0.6,0.2c0.2,0.2,0.2,0.3,0.2,0.6l0,1.2l2.1,4.8h0.5l2.1-4.7l0-1.2c0-0.2,0.1-0.4,0.2-0.5
		c0.2-0.2,0.3-0.2,0.6-0.2c0.2,0,0.4,0.1,0.5,0.2c0.2,0.2,0.2,0.3,0.2,0.5V57.1z"/>
	<path d="M281.1,57.6v3.3c0,0.7-0.3,1.3-1,1.9c-0.7,0.6-1.3,0.9-2,0.9h-1.8c-0.7,0-1.4-0.3-2-0.9c-0.6-0.6-1-1.2-1-1.9v-3.3
		c0-0.7,0.3-1.3,1-1.9c0.6-0.6,1.3-0.9,2.1-0.9h1.8c0.7,0,1.4,0.3,2,0.9C280.8,56.2,281.1,56.9,281.1,57.6z M274.8,57.7v3.2
		c0,0.3,0.1,0.5,0.3,0.7l0.6,0.5c0.1,0.1,0.3,0.2,0.5,0.2h1.8c0.3,0,0.5-0.1,0.7-0.3l0.5-0.4c0.2-0.1,0.3-0.4,0.3-0.6v-3.2
		c0-0.3-0.1-0.5-0.3-0.7l-0.5-0.4c-0.2-0.2-0.4-0.2-0.6-0.2h-1.6c-0.4,0-0.6,0.1-0.8,0.3l-0.5,0.5C274.9,57.2,274.8,57.4,274.8,57.7
		z"/>
	<path d="M288.4,62.2l2.6-1.7v-4.9c0-0.2,0.1-0.4,0.2-0.6c0.2-0.2,0.3-0.2,0.6-0.2c0.2,0,0.4,0.1,0.6,0.2c0.2,0.2,0.2,0.3,0.2,0.6
		V63c0,0.2-0.1,0.4-0.2,0.5c-0.2,0.2-0.3,0.2-0.5,0.2c-0.2,0-0.4-0.1-0.5-0.2c-0.2-0.2-0.2-0.3-0.2-0.5v-0.6l-1.4,0.9
		c-0.5,0.3-1.1,0.5-1.6,0.5h-0.7c-0.6,0-1.2-0.2-1.6-0.7c-0.5-0.4-0.7-1-0.7-1.6l-0.2-5.9c0-0.2,0.1-0.4,0.2-0.5
		c0.2-0.2,0.3-0.2,0.6-0.2c0.2,0,0.4,0.1,0.5,0.2c0.2,0.2,0.2,0.3,0.2,0.5l0.2,5.8c0,0.6,0.3,0.8,1,0.8H288.4z"/>
	<path d="M314,55.9v-3.7c0-0.2,0.1-0.4,0.2-0.6c0.1-0.2,0.3-0.2,0.5-0.2c0.2,0,0.4,0.1,0.6,0.2c0.2,0.2,0.2,0.3,0.2,0.6V63
		c0,0.2-0.1,0.4-0.2,0.6c-0.2,0.2-0.3,0.2-0.5,0.2c-0.2,0-0.4-0.1-0.6-0.2c-0.1-0.2-0.2-0.3-0.2-0.6v-0.3c-0.8,0.7-1.5,1.1-2.1,1.1
		h-1.3c-0.5,0-1.1-0.2-1.6-0.7l-0.6-0.5c-0.1-0.1-0.3-0.4-0.4-0.7c-0.1-0.3-0.2-0.6-0.2-0.9v-3.2c0-0.4,0.1-0.7,0.2-1
		c0.1-0.3,0.3-0.6,0.5-0.7l0.6-0.5c0.5-0.4,1-0.6,1.6-0.6h1.1c0.6,0,1.2,0.2,1.7,0.6L314,55.9z M311.7,56.3h-1.1
		c-0.2,0-0.4,0.1-0.6,0.3l-0.5,0.4c-0.2,0.2-0.3,0.4-0.3,0.6v3.3c0,0.2,0.1,0.4,0.3,0.6l0.5,0.4c0.2,0.1,0.3,0.2,0.5,0.2h1.3
		c0.2,0,0.4-0.1,0.6-0.3l1.2-1c0.2-0.2,0.3-0.4,0.3-0.7v-1.7c0-0.4-0.1-0.7-0.3-0.8l-1.3-1.1C312.2,56.4,312,56.3,311.7,56.3z"/>
	<path d="M325.5,63.7h-4.8c-0.2,0-0.4-0.1-0.6-0.2c-0.2-0.2-0.2-0.3-0.2-0.6c0-0.2,0.1-0.4,0.2-0.5c0.2-0.2,0.3-0.2,0.6-0.2h1.6
		v-5.8h-1.6c-0.2,0-0.4-0.1-0.6-0.2c-0.2-0.2-0.2-0.3-0.2-0.5c0-0.2,0.1-0.4,0.2-0.6c0.2-0.2,0.3-0.2,0.6-0.2h2.4
		c0.2,0,0.4,0.1,0.6,0.2c0.2,0.2,0.2,0.3,0.2,0.6v6.6h1.6c0.2,0,0.4,0.1,0.6,0.2c0.2,0.2,0.2,0.3,0.2,0.6c0,0.2-0.1,0.4-0.2,0.6
		C325.9,63.6,325.7,63.7,325.5,63.7z M322.3,50.7h0.8c0.2,0,0.4,0.1,0.6,0.2c0.2,0.2,0.2,0.3,0.2,0.6v0.7c0,0.2-0.1,0.4-0.2,0.6
		c-0.2,0.2-0.3,0.2-0.6,0.2h-0.8c-0.2,0-0.4-0.1-0.6-0.2c-0.2-0.2-0.2-0.3-0.2-0.5l0-0.7c0-0.2,0.1-0.4,0.2-0.6
		C321.9,50.8,322.1,50.7,322.3,50.7z"/>
	<path d="M332.8,54.8h3.6c0.6,0,1,0.2,1.5,0.5c0.4,0.3,0.6,0.7,0.6,1c0,0.2-0.1,0.4-0.2,0.5c-0.2,0.1-0.3,0.2-0.5,0.2
		c-0.2,0-0.5-0.1-0.7-0.3s-0.4-0.3-0.6-0.3h-3.5c-0.3,0-0.5,0.1-0.5,0.4c0,0.2,0.1,0.4,0.3,0.5l4.1,1.8c0.4,0.2,0.8,0.5,1,0.9
		c0.3,0.4,0.4,0.9,0.4,1.4c0,0.7-0.2,1.2-0.7,1.7c-0.5,0.5-1,0.7-1.6,0.7h-3.2c-0.5,0-1-0.2-1.5-0.5c-0.5-0.3-0.7-0.6-0.7-1
		c0-0.2,0.1-0.4,0.2-0.5c0.2-0.2,0.3-0.2,0.6-0.2c0.2,0,0.4,0.1,0.6,0.3c0.2,0.2,0.6,0.3,1,0.3h2.9c0.2,0,0.4-0.1,0.6-0.3
		c0.2-0.2,0.2-0.4,0.2-0.6c0-0.4-0.2-0.6-0.5-0.8l-4.2-1.9c-0.4-0.2-0.7-0.4-0.9-0.8c-0.2-0.3-0.3-0.7-0.3-1c0-0.6,0.2-1,0.6-1.4
		C331.8,55,332.3,54.8,332.8,54.8z"/>
	<path d="M342.1,63v-7.4c0-0.2,0.1-0.4,0.2-0.6c0.2-0.2,0.3-0.2,0.6-0.2c0.2,0,0.4,0.1,0.6,0.2c0.2,0.2,0.2,0.3,0.2,0.6v1l1.3-1.1
		c0.5-0.4,1-0.7,1.5-0.7h1.1c0.6,0,1.2,0.2,1.7,0.7c0.5,0.5,0.7,1,0.7,1.7v0.4c0,0.2-0.1,0.4-0.2,0.6c-0.2,0.2-0.3,0.2-0.6,0.2
		c-0.2,0-0.4-0.1-0.6-0.2c-0.2-0.2-0.2-0.3-0.2-0.6v-0.4c0-0.2-0.1-0.4-0.2-0.6c-0.2-0.2-0.3-0.2-0.6-0.2h-1c-0.2,0-0.5,0.1-0.7,0.3
		l-2.2,1.9V63c0,0.2-0.1,0.4-0.2,0.6c-0.2,0.2-0.3,0.2-0.5,0.2c-0.2,0-0.4-0.1-0.6-0.2C342.2,63.4,342.1,63.2,342.1,63z"/>
	<path d="M361.4,57.7v1.9c0,0.2-0.1,0.4-0.2,0.5c-0.2,0.2-0.3,0.2-0.5,0.2h-5.5v0.5c0,0.3,0.1,0.5,0.3,0.7l0.5,0.4
		c0.2,0.2,0.5,0.3,0.7,0.3h4c0.2,0,0.4,0.1,0.5,0.2c0.2,0.2,0.2,0.3,0.2,0.6c0,0.2-0.1,0.4-0.2,0.5c-0.2,0.2-0.3,0.2-0.5,0.2h-4.1
		c-0.3,0-0.6-0.1-0.9-0.2c-0.3-0.1-0.5-0.2-0.7-0.4l-0.7-0.6c-0.2-0.2-0.4-0.4-0.5-0.7c-0.1-0.3-0.2-0.6-0.2-0.9v-3.6
		c0-0.2,0.1-0.5,0.2-0.8c0.2-0.3,0.4-0.6,0.6-0.8l0.6-0.5c0.4-0.3,0.9-0.5,1.4-0.5h2.2c0.6,0,1.1,0.2,1.6,0.7l0.6,0.6
		C361.2,56.4,361.4,57,361.4,57.7z M355.2,57.6v1.2h4.7v-1.1c0-0.3-0.1-0.5-0.3-0.7l-0.5-0.4c-0.2-0.2-0.4-0.3-0.6-0.3h-2
		c-0.2,0-0.5,0.1-0.7,0.3l-0.5,0.4C355.3,57.1,355.2,57.3,355.2,57.6z"/>
	<path d="M367.3,54.8h3.6c0.6,0,1,0.2,1.5,0.5c0.4,0.3,0.6,0.7,0.6,1c0,0.2-0.1,0.4-0.2,0.5c-0.2,0.1-0.3,0.2-0.5,0.2
		c-0.2,0-0.5-0.1-0.7-0.3c-0.2-0.2-0.4-0.3-0.6-0.3h-3.5c-0.3,0-0.5,0.1-0.5,0.4c0,0.2,0.1,0.4,0.3,0.5l4.1,1.8
		c0.4,0.2,0.8,0.5,1,0.9c0.3,0.4,0.4,0.9,0.4,1.4c0,0.7-0.2,1.2-0.7,1.7c-0.5,0.5-1,0.7-1.6,0.7h-3.2c-0.5,0-1-0.2-1.5-0.5
		c-0.5-0.3-0.7-0.6-0.7-1c0-0.2,0.1-0.4,0.2-0.5c0.2-0.2,0.3-0.2,0.6-0.2c0.2,0,0.4,0.1,0.6,0.3c0.2,0.2,0.6,0.3,1,0.3h2.9
		c0.2,0,0.4-0.1,0.6-0.3c0.2-0.2,0.2-0.4,0.2-0.6c0-0.4-0.2-0.6-0.5-0.8l-4.2-1.9c-0.4-0.2-0.7-0.4-0.9-0.8c-0.2-0.3-0.3-0.7-0.3-1
		c0-0.6,0.2-1,0.6-1.4C366.2,55,366.7,54.8,367.3,54.8z"/>
	<path d="M378.1,62.8v3.5c0,0.2-0.1,0.4-0.2,0.6c-0.2,0.2-0.3,0.2-0.6,0.2c-0.2,0-0.4-0.1-0.6-0.2c-0.2-0.2-0.2-0.3-0.2-0.6V55.2
		c0-0.2,0.1-0.4,0.2-0.5c0.2-0.2,0.3-0.2,0.6-0.2c0.2,0,0.4,0.1,0.5,0.2c0.2,0.2,0.2,0.3,0.2,0.5v0.5c0.8-0.8,1.5-1.3,2.2-1.3h0.4
		c0.5,0,1.1,0.2,1.5,0.6l1.3,1.1c0.6,0.5,0.9,1.1,0.9,1.9v2.4c0,0.8-0.3,1.4-0.9,1.9l-1.3,1.1c-0.4,0.4-1,0.6-1.6,0.6h-0.3
		c-0.6,0-1.1-0.2-1.5-0.6L378.1,62.8z M380.3,62.5h0.4c0.2,0,0.4-0.1,0.6-0.3l1.2-1.1c0.2-0.2,0.3-0.4,0.3-0.7V58
		c0-0.2-0.1-0.5-0.3-0.7l-1.3-1.1c-0.1-0.1-0.3-0.2-0.5-0.2h-0.5c-0.2,0-0.4,0.1-0.7,0.4l-1.2,1.2c-0.2,0.2-0.3,0.4-0.3,0.7v2
		c0,0.2,0.1,0.5,0.3,0.7l1.1,1.1C379.9,62.4,380.1,62.5,380.3,62.5z"/>
	<path d="M395.9,57.7v1.9c0,0.2-0.1,0.4-0.2,0.5c-0.2,0.2-0.3,0.2-0.5,0.2h-5.5v0.5c0,0.3,0.1,0.5,0.3,0.7l0.5,0.4
		c0.2,0.2,0.5,0.3,0.7,0.3h4c0.2,0,0.4,0.1,0.5,0.2c0.2,0.2,0.2,0.3,0.2,0.6c0,0.2-0.1,0.4-0.2,0.5c-0.2,0.2-0.3,0.2-0.5,0.2H391
		c-0.3,0-0.6-0.1-0.9-0.2c-0.3-0.1-0.5-0.2-0.7-0.4l-0.7-0.6c-0.2-0.2-0.4-0.4-0.5-0.7c-0.1-0.3-0.2-0.6-0.2-0.9v-3.6
		c0-0.2,0.1-0.5,0.2-0.8c0.2-0.3,0.4-0.6,0.6-0.8l0.7-0.5c0.4-0.3,0.9-0.5,1.4-0.5h2.2c0.6,0,1.1,0.2,1.6,0.7l0.6,0.6
		C395.7,56.4,395.9,57,395.9,57.7z M389.6,57.6v1.2h4.7v-1.1c0-0.3-0.1-0.5-0.3-0.7l-0.5-0.4c-0.2-0.2-0.4-0.3-0.6-0.3h-2
		c-0.2,0-0.5,0.1-0.7,0.3l-0.5,0.4C389.7,57.1,389.6,57.3,389.6,57.6z"/>
	<path d="M406.6,63.7h-3.3c-0.6,0-1.1-0.2-1.5-0.5l-1.5-1.3c-0.5-0.4-0.7-0.9-0.7-1.6v-2c0-0.7,0.2-1.2,0.8-1.7l1.4-1.2
		c0.4-0.4,0.9-0.5,1.4-0.5h3.5c0.2,0,0.4,0.1,0.6,0.2c0.2,0.2,0.2,0.3,0.2,0.6c0,0.2-0.1,0.4-0.2,0.6c-0.2,0.1-0.3,0.2-0.6,0.2h-3.3
		c-0.2,0-0.4,0.1-0.6,0.3l-1.3,1.1c-0.2,0.2-0.3,0.4-0.3,0.7v1.9c0,0.2,0.1,0.4,0.2,0.5l1.4,1.2c0.2,0.2,0.4,0.2,0.7,0.2h3.2
		c0.2,0,0.4,0.1,0.5,0.2c0.2,0.2,0.2,0.3,0.2,0.6c0,0.2-0.1,0.4-0.2,0.6C407,63.7,406.8,63.7,406.6,63.7z"/>
	<path d="M416.5,63.7h-1.6c-0.6,0-1.2-0.2-1.7-0.7c-0.5-0.5-0.7-1-0.7-1.7v-5.1h-0.8c-0.2,0-0.4-0.1-0.6-0.2s-0.2-0.3-0.2-0.6
		c0-0.2,0.1-0.4,0.2-0.6c0.2-0.2,0.3-0.2,0.6-0.2h0.8v-1.9c0-0.2,0.1-0.4,0.2-0.6c0.2-0.2,0.3-0.2,0.6-0.2c0.2,0,0.4,0.1,0.5,0.2
		c0.2,0.2,0.2,0.3,0.2,0.5v1.9h3.1c0.2,0,0.4,0.1,0.5,0.2c0.2,0.2,0.2,0.3,0.2,0.5c0,0.2-0.1,0.4-0.2,0.6c-0.2,0.2-0.3,0.2-0.5,0.2
		h-3.2v5.1c0,0.2,0.1,0.4,0.2,0.5c0.2,0.2,0.3,0.2,0.6,0.2h1.5c0.4,0,0.7-0.2,0.8-0.7c0.1-0.4,0.4-0.7,0.8-0.7
		c0.2,0,0.4,0.1,0.6,0.2c0.1,0.2,0.2,0.3,0.2,0.6c0,0.5-0.2,0.9-0.7,1.4C417.7,63.5,417.1,63.7,416.5,63.7z"/>
	<path d="M433.7,63v-7.4c0-0.2,0.1-0.4,0.2-0.6c0.2-0.2,0.3-0.2,0.6-0.2c0.4,0,0.7,0.2,0.8,0.6c0.4-0.4,0.9-0.6,1.4-0.6
		c0.6,0,1.1,0.3,1.5,0.8c0.5-0.5,1-0.8,1.6-0.8c0.5,0,0.9,0.2,1.3,0.5c0.4,0.3,0.5,0.8,0.6,1.3l0.2,6.4c0,0.2-0.1,0.4-0.2,0.5
		c-0.2,0.2-0.3,0.2-0.5,0.2c-0.2,0-0.4-0.1-0.6-0.2c-0.2-0.2-0.2-0.3-0.2-0.5l-0.2-6.1c0-0.3-0.1-0.5-0.3-0.5c-0.1,0-0.2,0-0.3,0.1
		l-0.9,0.8V63c0,0.2-0.1,0.4-0.2,0.5s-0.3,0.2-0.6,0.2c-0.2,0-0.4-0.1-0.5-0.2c-0.2-0.2-0.2-0.3-0.2-0.6v-6.2c0-0.3-0.1-0.4-0.3-0.4
		c-0.1,0-0.2,0-0.3,0.1l-1.1,0.9V63c0,0.2-0.1,0.4-0.2,0.5c-0.1,0.2-0.3,0.2-0.5,0.2c-0.2,0-0.4-0.1-0.6-0.2
		C433.8,63.3,433.7,63.2,433.7,63z"/>
	<path d="M453.3,57.7v1.9c0,0.2-0.1,0.4-0.2,0.5c-0.2,0.2-0.3,0.2-0.5,0.2H447v0.5c0,0.3,0.1,0.5,0.3,0.7l0.5,0.4
		c0.2,0.2,0.5,0.3,0.7,0.3h4c0.2,0,0.4,0.1,0.5,0.2c0.2,0.2,0.2,0.3,0.2,0.6c0,0.2-0.1,0.4-0.2,0.5c-0.2,0.2-0.3,0.2-0.5,0.2h-4.1
		c-0.3,0-0.6-0.1-0.9-0.2c-0.3-0.1-0.5-0.2-0.7-0.4l-0.7-0.6c-0.2-0.2-0.4-0.4-0.5-0.7c-0.1-0.3-0.2-0.6-0.2-0.9v-3.6
		c0-0.2,0.1-0.5,0.2-0.8c0.2-0.3,0.4-0.6,0.6-0.8l0.7-0.5c0.4-0.3,0.9-0.5,1.4-0.5h2.2c0.6,0,1.1,0.2,1.6,0.7l0.6,0.6
		C453,56.4,453.3,57,453.3,57.7z M447,57.6v1.2h4.7v-1.1c0-0.3-0.1-0.5-0.3-0.7l-0.5-0.4c-0.2-0.2-0.4-0.3-0.6-0.3h-2
		c-0.2,0-0.5,0.1-0.7,0.3l-0.5,0.4C447.1,57.1,447,57.3,447,57.6z"/>
	<path d="M476.2,57.6v3.3c0,0.7-0.3,1.3-1,1.9c-0.7,0.6-1.3,0.9-2,0.9h-1.8c-0.7,0-1.4-0.3-2-0.9c-0.6-0.6-1-1.2-1-1.9v-3.3
		c0-0.7,0.3-1.3,1-1.9c0.6-0.6,1.3-0.9,2.1-0.9h1.8c0.7,0,1.4,0.3,2,0.9C475.9,56.2,476.2,56.9,476.2,57.6z M469.9,57.7v3.2
		c0,0.3,0.1,0.5,0.3,0.7l0.6,0.5c0.1,0.1,0.3,0.2,0.5,0.2h1.8c0.3,0,0.5-0.1,0.7-0.3l0.5-0.4c0.2-0.1,0.3-0.4,0.3-0.6v-3.2
		c0-0.3-0.1-0.5-0.3-0.7l-0.5-0.4c-0.2-0.2-0.4-0.2-0.6-0.2h-1.6c-0.4,0-0.6,0.1-0.8,0.3l-0.5,0.5C470,57.2,469.9,57.4,469.9,57.7z"
		/>
	<path d="M483.5,56.6l-2.1,1.4v5c0,0.2-0.1,0.4-0.2,0.5c-0.2,0.2-0.3,0.2-0.5,0.2c-0.2,0-0.4-0.1-0.5-0.2c-0.2-0.2-0.2-0.3-0.2-0.5
		v-7.4c0-0.2,0.1-0.4,0.2-0.6c0.2-0.2,0.3-0.2,0.6-0.2c0.2,0,0.4,0.1,0.5,0.2c0.2,0.2,0.2,0.3,0.2,0.6v0.5l1.4-0.9
		c0.5-0.3,1-0.5,1.6-0.5h0.7c0.6,0,1.2,0.2,1.6,0.7c0.5,0.4,0.7,1,0.7,1.6l0.2,5.9c0,0.2-0.1,0.4-0.2,0.5c-0.2,0.2-0.3,0.2-0.6,0.2
		c-0.2,0-0.4-0.1-0.5-0.2c-0.2-0.1-0.2-0.3-0.2-0.6l-0.2-5.8c0-0.5-0.3-0.8-0.9-0.8h-0.8C484,56.3,483.8,56.4,483.5,56.6z"/>
	<path d="M499.2,57.7v1.9c0,0.2-0.1,0.4-0.2,0.5c-0.2,0.2-0.3,0.2-0.5,0.2h-5.5v0.5c0,0.3,0.1,0.5,0.3,0.7l0.5,0.4
		c0.2,0.2,0.5,0.3,0.7,0.3h4c0.2,0,0.4,0.1,0.5,0.2c0.2,0.2,0.2,0.3,0.2,0.6c0,0.2-0.1,0.4-0.2,0.5c-0.2,0.2-0.3,0.2-0.5,0.2h-4.1
		c-0.3,0-0.6-0.1-0.9-0.2c-0.3-0.1-0.5-0.2-0.7-0.4l-0.7-0.6c-0.2-0.2-0.4-0.4-0.5-0.7c-0.1-0.3-0.2-0.6-0.2-0.9v-3.6
		c0-0.2,0.1-0.5,0.2-0.8c0.2-0.3,0.4-0.6,0.6-0.8l0.7-0.5c0.4-0.3,0.9-0.5,1.4-0.5h2.2c0.6,0,1.1,0.2,1.6,0.7l0.6,0.6
		C498.9,56.4,499.2,57,499.2,57.7z M492.9,57.6v1.2h4.7v-1.1c0-0.3-0.1-0.5-0.3-0.7l-0.5-0.4c-0.2-0.2-0.4-0.3-0.6-0.3h-2
		c-0.2,0-0.5,0.1-0.7,0.3l-0.5,0.4C493,57.1,492.9,57.3,492.9,57.6z"/>
	<path d="M514.1,63v-7.4c0-0.2,0.1-0.4,0.2-0.6c0.2-0.2,0.3-0.2,0.6-0.2c0.4,0,0.7,0.2,0.8,0.6c0.4-0.4,0.9-0.6,1.4-0.6
		c0.6,0,1.1,0.3,1.5,0.8c0.5-0.5,1-0.8,1.6-0.8c0.5,0,0.9,0.2,1.3,0.5c0.4,0.3,0.5,0.8,0.6,1.3l0.2,6.4c0,0.2-0.1,0.4-0.2,0.5
		c-0.2,0.2-0.3,0.2-0.5,0.2c-0.2,0-0.4-0.1-0.6-0.2c-0.2-0.2-0.2-0.3-0.2-0.5l-0.2-6.1c0-0.3-0.1-0.5-0.3-0.5c-0.1,0-0.2,0-0.3,0.1
		l-0.9,0.8V63c0,0.2-0.1,0.4-0.2,0.5s-0.3,0.2-0.6,0.2c-0.2,0-0.4-0.1-0.5-0.2c-0.2-0.2-0.2-0.3-0.2-0.6v-6.2c0-0.3-0.1-0.4-0.3-0.4
		c-0.1,0-0.2,0-0.3,0.1l-1.1,0.9V63c0,0.2-0.1,0.4-0.2,0.5c-0.1,0.2-0.3,0.2-0.5,0.2c-0.2,0-0.4-0.1-0.6-0.2
		C514.1,63.3,514.1,63.2,514.1,63z"/>
	<path d="M533.6,57.6v3.3c0,0.7-0.3,1.3-1,1.9c-0.7,0.6-1.3,0.9-2,0.9h-1.8c-0.7,0-1.4-0.3-2-0.9c-0.6-0.6-1-1.2-1-1.9v-3.3
		c0-0.7,0.3-1.3,1-1.9c0.6-0.6,1.3-0.9,2.1-0.9h1.8c0.7,0,1.4,0.3,2,0.9C533.3,56.2,533.6,56.9,533.6,57.6z M527.3,57.7v3.2
		c0,0.3,0.1,0.5,0.3,0.7l0.6,0.5c0.1,0.1,0.3,0.2,0.5,0.2h1.8c0.3,0,0.5-0.1,0.7-0.3l0.5-0.4c0.2-0.1,0.3-0.4,0.3-0.6v-3.2
		c0-0.3-0.1-0.5-0.3-0.7l-0.5-0.4c-0.2-0.2-0.4-0.2-0.6-0.2h-1.6c-0.4,0-0.6,0.1-0.8,0.3l-0.5,0.5C527.4,57.2,527.3,57.4,527.3,57.7
		z"/>
	<path d="M537.2,63v-7.4c0-0.2,0.1-0.4,0.2-0.6c0.2-0.2,0.3-0.2,0.6-0.2c0.2,0,0.4,0.1,0.6,0.2c0.2,0.2,0.2,0.3,0.2,0.6v1l1.3-1.1
		c0.5-0.4,1-0.7,1.5-0.7h1.1c0.6,0,1.2,0.2,1.7,0.7c0.5,0.5,0.7,1,0.7,1.7v0.4c0,0.2-0.1,0.4-0.2,0.6c-0.2,0.2-0.3,0.2-0.6,0.2
		c-0.2,0-0.4-0.1-0.6-0.2c-0.2-0.2-0.2-0.3-0.2-0.6v-0.4c0-0.2-0.1-0.4-0.2-0.6c-0.2-0.2-0.3-0.2-0.6-0.2h-1c-0.2,0-0.5,0.1-0.7,0.3
		l-2.2,1.9V63c0,0.2-0.1,0.4-0.2,0.6c-0.2,0.2-0.3,0.2-0.5,0.2c-0.2,0-0.4-0.1-0.6-0.2C537.3,63.4,537.2,63.2,537.2,63z"/>
	<path d="M556.5,57.7v1.9c0,0.2-0.1,0.4-0.2,0.5c-0.2,0.2-0.3,0.2-0.5,0.2h-5.5v0.5c0,0.3,0.1,0.5,0.3,0.7l0.5,0.4
		c0.2,0.2,0.5,0.3,0.7,0.3h4c0.2,0,0.4,0.1,0.5,0.2c0.2,0.2,0.2,0.3,0.2,0.6c0,0.2-0.1,0.4-0.2,0.5c-0.2,0.2-0.3,0.2-0.5,0.2h-4.1
		c-0.3,0-0.6-0.1-0.9-0.2c-0.3-0.1-0.5-0.2-0.7-0.4l-0.7-0.6c-0.2-0.2-0.4-0.4-0.5-0.7c-0.1-0.3-0.2-0.6-0.2-0.9v-3.6
		c0-0.2,0.1-0.5,0.2-0.8c0.2-0.3,0.4-0.6,0.6-0.8l0.7-0.5c0.4-0.3,0.9-0.5,1.4-0.5h2.2c0.6,0,1.1,0.2,1.6,0.7l0.6,0.6
		C556.3,56.4,556.5,57,556.5,57.7z M550.3,57.6v1.2h4.7v-1.1c0-0.3-0.1-0.5-0.3-0.7l-0.5-0.4c-0.2-0.2-0.4-0.3-0.6-0.3h-2
		c-0.2,0-0.5,0.1-0.7,0.3l-0.5,0.4C550.4,57.1,550.3,57.3,550.3,57.6z"/>
	<path d="M577.1,63.7h-1.6c-0.6,0-1.2-0.2-1.7-0.7c-0.5-0.5-0.7-1-0.7-1.7v-5.1h-0.8c-0.2,0-0.4-0.1-0.6-0.2s-0.2-0.3-0.2-0.6
		c0-0.2,0.1-0.4,0.2-0.6c0.2-0.2,0.3-0.2,0.6-0.2h0.8v-1.9c0-0.2,0.1-0.4,0.2-0.6c0.2-0.2,0.3-0.2,0.6-0.2c0.2,0,0.4,0.1,0.5,0.2
		c0.2,0.2,0.2,0.3,0.2,0.5v1.9h3.1c0.2,0,0.4,0.1,0.5,0.2c0.2,0.2,0.2,0.3,0.2,0.5c0,0.2-0.1,0.4-0.2,0.6c-0.2,0.2-0.3,0.2-0.5,0.2
		h-3.2v5.1c0,0.2,0.1,0.4,0.2,0.5c0.2,0.2,0.3,0.2,0.6,0.2h1.5c0.4,0,0.7-0.2,0.8-0.7c0.1-0.4,0.4-0.7,0.8-0.7
		c0.2,0,0.4,0.1,0.6,0.2c0.1,0.2,0.2,0.3,0.2,0.6c0,0.5-0.2,0.9-0.7,1.4C578.4,63.5,577.8,63.7,577.1,63.7z"/>
	<path d="M589.4,63.7h-4.8c-0.2,0-0.4-0.1-0.6-0.2c-0.2-0.2-0.2-0.3-0.2-0.6c0-0.2,0.1-0.4,0.2-0.5c0.2-0.2,0.3-0.2,0.6-0.2h1.6
		v-5.8h-1.6c-0.2,0-0.4-0.1-0.6-0.2c-0.2-0.2-0.2-0.3-0.2-0.5c0-0.2,0.1-0.4,0.2-0.6c0.2-0.2,0.3-0.2,0.6-0.2h2.4
		c0.2,0,0.4,0.1,0.6,0.2c0.2,0.2,0.2,0.3,0.2,0.6v6.6h1.6c0.2,0,0.4,0.1,0.6,0.2c0.2,0.2,0.2,0.3,0.2,0.6c0,0.2-0.1,0.4-0.2,0.6
		C589.8,63.6,589.6,63.7,589.4,63.7z M586.2,50.7h0.8c0.2,0,0.4,0.1,0.6,0.2c0.2,0.2,0.2,0.3,0.2,0.6v0.7c0,0.2-0.1,0.4-0.2,0.6
		c-0.2,0.2-0.3,0.2-0.6,0.2h-0.8c-0.2,0-0.4-0.1-0.6-0.2c-0.2-0.2-0.2-0.3-0.2-0.5l0-0.7c0-0.2,0.1-0.4,0.2-0.6
		C585.8,50.8,586,50.7,586.2,50.7z"/>
	<path d="M594.4,63v-7.4c0-0.2,0.1-0.4,0.2-0.6c0.2-0.2,0.3-0.2,0.6-0.2c0.4,0,0.7,0.2,0.8,0.6c0.4-0.4,0.9-0.6,1.4-0.6
		c0.6,0,1.1,0.3,1.5,0.8c0.5-0.5,1-0.8,1.6-0.8c0.5,0,0.9,0.2,1.3,0.5c0.4,0.3,0.5,0.8,0.6,1.3l0.2,6.4c0,0.2-0.1,0.4-0.2,0.5
		c-0.2,0.2-0.3,0.2-0.5,0.2c-0.2,0-0.4-0.1-0.6-0.2c-0.2-0.2-0.2-0.3-0.2-0.5l-0.2-6.1c0-0.3-0.1-0.5-0.3-0.5c-0.1,0-0.2,0-0.3,0.1
		l-0.9,0.8V63c0,0.2-0.1,0.4-0.2,0.5s-0.3,0.2-0.6,0.2c-0.2,0-0.4-0.1-0.5-0.2c-0.2-0.2-0.2-0.3-0.2-0.6v-6.2c0-0.3-0.1-0.4-0.3-0.4
		c-0.1,0-0.2,0-0.3,0.1l-1.1,0.9V63c0,0.2-0.1,0.4-0.2,0.5c-0.1,0.2-0.3,0.2-0.5,0.2c-0.2,0-0.4-0.1-0.6-0.2
		C594.5,63.3,594.4,63.2,594.4,63z"/>
	<path d="M613.9,57.7v1.9c0,0.2-0.1,0.4-0.2,0.5c-0.2,0.2-0.3,0.2-0.5,0.2h-5.5v0.5c0,0.3,0.1,0.5,0.3,0.7l0.5,0.4
		c0.2,0.2,0.5,0.3,0.7,0.3h4c0.2,0,0.4,0.1,0.5,0.2c0.2,0.2,0.2,0.3,0.2,0.6c0,0.2-0.1,0.4-0.2,0.5c-0.2,0.2-0.3,0.2-0.5,0.2H609
		c-0.3,0-0.6-0.1-0.9-0.2c-0.3-0.1-0.5-0.2-0.7-0.4l-0.7-0.6c-0.2-0.2-0.4-0.4-0.5-0.7c-0.1-0.3-0.2-0.6-0.2-0.9v-3.6
		c0-0.2,0.1-0.5,0.2-0.8c0.2-0.3,0.4-0.6,0.6-0.8l0.7-0.5c0.4-0.3,0.9-0.5,1.4-0.5h2.2c0.6,0,1.1,0.2,1.6,0.7l0.6,0.6
		C613.7,56.4,613.9,57,613.9,57.7z M607.6,57.6v1.2h4.7v-1.1c0-0.3-0.1-0.5-0.3-0.7l-0.5-0.4c-0.2-0.2-0.4-0.3-0.6-0.3h-2
		c-0.2,0-0.5,0.1-0.7,0.3L608,57C607.7,57.1,607.6,57.3,607.6,57.6z"/>
</g>
</svg>
