<?xml version="1.0" encoding="utf-8"?>
<!-- Generator: Adobe Illustrator 21.1.0, SVG Export Plug-In . SVG Version: 6.00 Build 0)  -->
<svg version="1.1" id="Layer_1" xmlns="http://www.w3.org/2000/svg" xmlns:xlink="http://www.w3.org/1999/xlink" x="0px" y="0px"
	 viewBox="0 0 800 400" style="enable-background:new 0 0 800 400;" xml:space="preserve">
<style type="text/css">
	.st0{fill:#00A89C;stroke:#FFFFFF;stroke-miterlimit:10;}
	.st1{fill:#FAAF3B;stroke:#FFFFFF;stroke-miterlimit:10;}
	.st2{fill:#FF3B2B;stroke:#FFFFFF;stroke-miterlimit:10;}
	.st3{fill:#EC1E79;}
	.st4{fill:#646464;}
	.st5{fill:#5C3400;}
	.st6{fill:#969696;}
	.st7{fill:#C8C8C8;}
	.st8{fill:none;stroke:#FFFFFF;stroke-miterlimit:10;}
	.st9{fill:#8BC53F;stroke:#FFFFFF;stroke-miterlimit:10;}
</style>
<rect x="0" y="0" class="st0" width="800" height="400"/>
<path class="st1" d="M225.7,272.9h-98.3c16.7-48.6,33.3-97.2,50-145.8C193.4,175.7,209.6,224.3,225.7,272.9z"/>
<path class="st1" d="M331.5,272.9h-98.3c16.7-48.6,33.3-97.2,50-145.8C299.3,175.7,315.4,224.3,331.5,272.9z"/>
<path class="st1" d="M437.3,273.9H339c16.7-48.6,33.3-97.2,50-145.8C405.1,176.7,421.2,225.3,437.3,273.9z"/>
<path class="st1" d="M547.3,272.9H449c16.7-48.6,33.3-97.2,50-145.8C515.1,175.7,531.2,224.3,547.3,272.9z"/>
<path class="st1" d="M652.3,272.9H554c16.7-48.6,33.3-97.2,50-145.8C620.1,175.7,636.2,224.3,652.3,272.9z"/>
<path class="st1" d="M757.3,272.9H659c16.7-48.6,33.3-97.2,50-145.8C725.1,175.7,741.2,224.3,757.3,272.9z"/>
<path class="st2" d="M596.5,301.4h-98.3c16.7-48.6,33.3-97.2,50-145.8C564.3,204.2,580.4,252.8,596.5,301.4z"/>
<path class="st2" d="M701.5,301.4h-98.3c16.7-48.6,33.3-97.2,50-145.8C669.3,204.2,685.4,252.8,701.5,301.4z"/>
<path class="st2" d="M491.9,301.4h-98.3c16.7-48.6,33.3-97.2,50-145.8C459.7,204.2,475.8,252.8,491.9,301.4z"/>
<path class="st2" d="M386.5,301.4h-98.3c16.7-48.6,33.3-97.2,50-145.8C354.3,204.2,370.4,252.8,386.5,301.4z"/>
<path class="st2" d="M278.6,301.4h-98.3c16.7-48.6,33.3-97.2,50-145.8C246.4,204.2,262.5,252.8,278.6,301.4z"/>
<path class="st1" d="M111.5,334.8H13.2c16.7-48.6,33.3-97.2,50-145.8C79.3,237.5,95.4,286.1,111.5,334.8z"/>
<path class="st1" d="M213.2,334.8h-98.3c16.7-48.6,33.3-97.2,50-145.8C180.9,237.5,197.1,286.1,213.2,334.8z"/>
<path class="st1" d="M320.7,334.8h-98.3c16.7-48.6,33.3-97.2,50-145.8C288.4,237.5,304.6,286.1,320.7,334.8z"/>
<g id="XMLID_4_">
	<g>
		<g id="XMLID_2_">
			<g>
				<path class="st3" d="M693.4,152c-0.3-1.7-0.8-3.3-1.4-5c-0.2-0.5-0.5-1-0.8-1.4c1.2-0.5,2.4-0.9,3.7-1.2c-0.9,2.3-0.2,5.2,2,6.4
					c-0.2,0.2-0.4,0.3-0.6,0.4c-0.7,0.1-1.4,0.3-2.1,0.6c-0.1,0-0.2,0.1-0.3,0.1s-0.1,0-0.2,0C693.6,152,693.5,152,693.4,152z"/>
				<path class="st3" d="M696.2,142.6c0.8-0.7,1.8-1.1,3.2-1.1c0.3,0,0.5,0,0.7,0.1c-0.7,0.7-1.1,1.5-1.4,2.4c-0.3,0-0.7,0-1,0
					C697.3,143.4,696.8,143,696.2,142.6z"/>
				<path class="st3" d="M711.7,151.2c1.1,1.3,1.1,2.9,0.5,4.1c-0.9,1.8-3.2,2.9-4.9,1.2c-0.1-0.1-0.2-0.2-0.3-0.3
					c-0.4-0.5-0.8-1-1.3-1.4c-0.2-0.2-0.5-0.5-0.7-0.7c-0.4-0.3-0.7-0.6-1.1-0.9c-0.5-0.4-1-0.8-1.6-1.1c0-0.6,0-1.1-0.1-1.5
					c1.7-1.2,2.3-3.4,1.9-5.4c2.6,1.1,4.9,3,7,5.2C711.3,150.7,711.5,151,711.7,151.2z"/>
				<path class="st3" d="M704.1,145.2C704.1,145.3,704.1,145.3,704.1,145.2c-1.7-0.7-3.5-1.1-5.4-1.2c0,0,0,0,0-0.1
					C700.6,144,702.4,144.5,704.1,145.2z"/>
				<path class="st3" d="M700.9,151.5c-0.1-0.1-0.3-0.1-0.4-0.1c0.7-0.1,1.2-0.4,1.7-0.7c0.1,0.4,0.1,0.9,0.1,1.5
					c-0.4-0.2-0.8-0.4-1.2-0.6c0,0,0,0,0,0.1C701,151.6,700.9,151.5,700.9,151.5z"/>
				<path class="st3" d="M697,144.1c-0.7,0.1-1.4,0.2-2.1,0.3v-0.1C695.6,144.2,696.3,144.1,697,144.1c0.2-0.1,0.4-0.1,0.7-0.1
					c0,0,0,0,0,0.1C697.5,144.1,697.3,144.1,697,144.1z"/>
				<path class="st3" d="M712,148.5l-2.4,0.5c-1.7-1.6-3.5-2.9-5.6-3.8c-0.4-1.8-1.7-3.4-4-3.7c1.4-1.5,3.6-2.2,6-0.9
					c2.7,1.4,4.8,3.9,5.7,6.9C711.9,147.8,712,148.1,712,148.5z"/>
				<path class="st3" d="M696.9,150.9c0.2,0.1,0.4,0.2,0.5,0.3c-0.4,0-0.8,0.1-1.1,0.2C696.5,151.2,696.7,151.1,696.9,150.9z"/>
				<path d="M700.8,152.4c-0.6,1.9-2.2,2.9-4.1,2.5c-0.8-0.2-1.6-0.9-2-1.6c0-0.1-0.1-0.1-0.1-0.2c-0.1-0.2-0.2-0.5-0.3-0.7v-0.1
					c0-0.1,0-0.2,0-0.3h0.1c0.6-0.1,1.1-0.2,1.6-0.5c0.6-0.1,1.2-0.2,1.8-0.3c0.5,0.2,1,0.3,1.6,0.3c0.4,0,0.8,0,1.1-0.1
					c0.1,0,0.3,0.1,0.4,0.1c0.1,0,0.1,0,0.2,0.1C701,151.9,700.9,152.1,700.8,152.4z"/>
				<path class="st3" d="M697.7,144c-0.2,0-0.5,0-0.7,0.1c-0.7,0.1-1.3,0.2-2,0.3c0.3-0.7,0.7-1.3,1.2-1.7
					C696.8,143,697.3,143.4,697.7,144z"/>
				<path class="st3" d="M698,151.1c0.7,0,1.3,0,2,0.2C699.4,151.2,698.7,151.1,698,151.1c0,0.1-0.1,0.1-0.2,0.1s-0.2-0.1-0.3-0.1
					C697.7,151.1,697.8,151.1,698,151.1z"/>
				<path class="st3" d="M696.2,142.6c-0.6,0.5-1,1.1-1.2,1.7c-1.3,0.3-2.6,0.6-3.8,1.2c-0.4-0.6-0.9-1-1.5-1.4
					c0.8-1.2,2.1-2.1,4-2.1C694.7,142,695.5,142.2,696.2,142.6z"/>
				<path class="st3" d="M697.7,144.1c1.4,2.1,1.1,5.2-0.8,6.8c-2.2-1.2-2.9-4.2-2-6.4c0.7-0.1,1.4-0.3,2.1-0.3
					C697.3,144.1,697.5,144.1,697.7,144.1z"/>
				<path class="st3" d="M709.6,149c0.5,0.5,1,0.9,1.4,1.4c-2-2.2-4.4-4-7-5.2c0,0,0,0,0-0.1C706.1,146.1,708,147.4,709.6,149z"/>
				<path class="st3" d="M695,144.4C695,144.4,694.9,144.4,695,144.4c-1.3,0.4-2.5,0.8-3.7,1.3c0,0,0-0.1-0.1-0.1
					C692.4,145,693.7,144.6,695,144.4z"/>
				<path class="st3" d="M704.1,145.3c0.4,2-0.2,4.2-1.9,5.4c-0.1-0.6-0.4-1-1.2-1.4c-2.3-1.2-2.8-3.3-2.3-5.2
					C700.6,144.1,702.4,144.5,704.1,145.3z"/>
				<path d="M701.1,151.6L701.1,151.6c-0.1,0-0.1,0-0.2-0.1C700.9,151.5,701,151.6,701.1,151.6z"/>
				<path class="st3" d="M700.1,141.6c2.2,0.3,3.6,1.9,4,3.7c-1.7-0.7-3.5-1.2-5.3-1.2C699,143.1,699.4,142.2,700.1,141.6z"/>
				<path class="st3" d="M698.1,151.2c0.7-0.1,1.3-0.1,1.9,0.1c0.2,0,0.3,0.1,0.5,0.1c-0.3,0.1-0.7,0.1-1.1,0.1
					c-0.6,0-1.2-0.1-1.6-0.3C697.8,151.2,698,151.2,698.1,151.2z"/>
				<path class="st3" d="M696.9,150.9c1.9-1.6,2.2-4.8,0.8-6.8c0.3,0,0.7,0,1,0c-0.5,1.9,0.1,4,2.3,5.2c0.8,0.4,1.1,0.8,1.2,1.4
					c-0.5,0.4-1.1,0.6-1.7,0.7c-0.2,0-0.3-0.1-0.5-0.1c-0.6-0.1-1.3-0.2-2-0.2c-0.2,0-0.3,0-0.5,0
					C697.3,151.1,697.1,151,696.9,150.9z"/>
				<path class="st3" d="M694.3,152.3v0.1c0.1,0.3,0.1,0.5,0.3,0.7c0,0.1,0.1,0.2,0.1,0.2c0.4,0.7,1.2,1.4,2,1.6
					c1.8,0.4,3.5-0.6,4.1-2.5c0.1-0.3,0.2-0.6,0.3-0.9c0.4,0.2,0.8,0.3,1.2,0.6c0,0.1,0,0.2,0,0.3c0.1,2.6,0.6,5.2,1.1,7.7
					c0.8,3.8,5.8,4.7,8.4,2.2c2.2-2.2,3.7-4.6,4.8-7.5c0.9-2.5-1.1-5.5-3.5-6.1c-0.3-0.1-0.7-0.2-1-0.2c-0.1-0.3-0.2-0.7-0.3-1
					c-0.9-2.9-3-5.4-5.7-6.9c-2.3-1.3-4.5-0.5-6,0.9c-0.2,0-0.5-0.1-0.7-0.1c-1.3,0-2.4,0.4-3.2,1.1c-0.7-0.4-1.5-0.6-2.5-0.6
					c-1.9,0-3.3,0.9-4,2.1c-1.1-0.7-2.4-1-3.9-0.6c-1.1,0.3-2.2,1.1-2.9,2.1c-1.2,0.4-2.2,1.3-2.8,2.4c-5.7,0.6-5.6,9.8,0.5,10
					c0.1,0.2,0.2,0.3,0.3,0.5c1.6,2,4.5,2.9,6.9,3.4c2.9,0.5,6.7-1.3,6.3-4.8c-0.1-1.1-0.3-2-0.6-3.1c-0.1-0.2-0.1-0.3-0.1-0.4
					c0-0.3,0-0.6-0.1-1c0-0.1,0-0.2,0-0.3c0.2-0.1,0.5-0.2,0.7-0.3h0.1l0,0l0,0C694.3,152.1,694.3,152.2,694.3,152.3z M655.8,156.8
					c1.3,2.3,3.7,2,5.2,0.7c1-0.9,1.5-2.3,0.8-3.8c-0.1-0.2-0.1-0.3-0.2-0.5c-2.6-4.6-7.4-6.2-12.2-5.7c-0.5,0.1-1,0.1-1.5,0.2
					c-3.5,0.7-6.9,2.5-7.4,6.5c0,0.2,0,0.3,0,0.5c-0.3,4.2,5.4,4.6,6.5,1.1c0.2,0.5,0.5,1,0.9,1.4c0.7,0.8,1.6,1.2,2.6,1.3
					c0.2,0,0.5,0,0.7,0c0.4,0,0.8-0.1,1.2-0.3c1.2-0.5,1.9-1.5,2.3-2.8C655.1,155.8,655.5,156.3,655.8,156.8z M679.7,173.3l-10,0.3
					l7.1,13.2v-0.1v0.1l9.5-13.1l0.1-0.1c0,0,0,0-0.1,0c0,0-0.2,0-0.6,0C684.4,173.5,681.4,173.4,679.7,173.3
					C679.8,173.3,679.8,173.3,679.7,173.3L679.7,173.3z M673.9,220.5c-1.9,0.1-3.3,5.4-4.4,5.3c-0.8-0.5-0.3-4.4-1.1-4.5l0,0
					l-0.1-0.1c-0.8-0.2-1.5,3.3-3.1,3.6c-0.2,0-0.3,0-0.5,0c-0.1,0-0.1,0-0.1-0.1c-1.2-0.8-1.9-4-5.3-6.2c-0.3-0.2-0.5-0.3-0.8-0.4
					c-0.4-0.2-0.8-0.4-1.3-0.6c-1.2-0.5-2.5-0.9-3.8-1.3c-1-0.3-1.9-0.5-2.7-0.7c-0.3-0.1-0.5-0.1-0.8-0.2l-0.5-0.8h0.1
					c0.2,0,0.4-0.1,0.5-0.2c0.6-0.7-0.9-4-9.1-14.7c0,0,0,0,0,0.1v-0.1c0,0-1.9,9.4-3.5,9.5c-0.6-0.1-1.3-1.7-4-16.7
					c-1-5.3-1.3-7.5-1.9-7.5l0,0l0,0c-1.5,0-2.2,17.8-4.1,17.9c-1-0.1-2-4.9-2.4-7.3c-1.6-8.6,0.3-9.7-1.3-15.9
					c-0.1-0.3-0.2-0.6-0.3-0.9l0,0c-0.3-0.9-0.5-1.7-0.8-2.5c-1-2.7-1.7-4.5-0.9-6.6c0.5-1.3,1.1-1.4,2.8-3.5
					c2.9-3.8,4.7-8.3,4.2-8.8c0,0-0.1,0-0.2,0c-1.1-0.2-7.2,7.5-8.4,7.7H620c-0.5-0.4,2.4-4.5,5.3-11.7c1.1-2.9,2-5.4,2.4-7.1
					c10.9-13,10-14.6,10-14.6c-0.2-0.4-0.7-0.6-1.2-0.6c-0.1,0-0.1,0-0.2,0c-1.7-0.1-4.3,0.7-5.2,0.4c-0.1,0-0.2-0.1-0.2-0.2
					c-0.4-1.2,5.6-5.1,10.2-7.7c5.1-2.9,8.5-4,8.3-4.7c-0.1-0.2-0.5-0.4-1.1-0.4c-0.7-0.1-1.7,0-2.7,0.1c-0.5,0-1.1,0.1-1.6,0.1
					c-1,0.1-1.9,0.1-2.5,0.1c-0.4,0-0.7-0.1-0.7-0.3s0.1-0.4,0.5-0.7c0.2-0.1,0.3-0.2,0.5-0.4c0,0,0,0,0.1,0c1.6-1,4.9-2.3,8.7-3.1
					c0,0,0,0,0.1,0c0.4-0.1,0.7-0.1,1.1-0.2c1-0.1,1.9-0.3,2.8-0.3c2.4-0.2,4.5-0.1,6.2,0.1c0.3,0,0.5,0,0.8,0.1
					c1.1,0.1,2,0.1,2.6,0.1c0.7-0.1,1.1-0.2,1.2-0.7c0.4-0.9-0.7-2.5-2-3.9c1.9,1.7,4.2,3.6,6.4,4.6c0.6,0.3,1.1,0.5,1.7,0.6
					c0.1,0,0.1,0,0.2,0c0.2,0,0.4,0.1,0.6,0.1c0.8,0.1,1.5,0,2.2-0.3c2.5-1.2,2-4.9,5.6-6.8c1-0.5,2.2-0.8,3.2-0.9
					c0.3,0,0.5,0,0.8,0c1,0.1,1.8,0.4,2,0.9c0.6,1.4-3.1,3.8-2.6,4.8c0.1,0.1,0.2,0.2,0.4,0.2h0.1c1.2,0,4.2-1.3,7.8-1.9
					c0.5-0.1,1.1-0.1,1.6-0.2c1.1-0.1,2.1-0.1,3.1,0c0.1,0,0.3,0,0.4,0h0.1c0.6,0.1,1.3,0.1,1.9,0.2c0.1,0,0.1,0,0.2,0
					c3.7,0.7,6.3,2,6.2,2.3c0,0-0.1,0-0.3,0.1c-0.8,0-2.9,0-6.5-0.1c-1.2,0-1.9-0.1-2.4,0c-0.3,0-0.5,0.1-0.5,0.1
					c-0.1,0.4,4.4,1,9.7,3.5c1.4,0.7,4.4,2.3,7.6,5.2c2.4,2.2,5.1,5.5,4.5,6.4c-0.1,0.1-0.2,0.2-0.4,0.2c-0.1,0-0.3,0-0.4,0
					c-0.6-0.1-1.4-0.3-1.9-0.4c-0.1,0-0.2,0-0.3,0c-0.2,0-0.3,0-0.3,0.1c-0.3,0.5,1.5,1.8,3.4,4c0.5,0.5,2.8,3.2,4.5,6.8
					c1.3,2.6,2.5,6.5,1.6,7.1c-0.1,0.1-0.2,0.1-0.3,0.1c-0.5,0-1-0.5-1.4-0.5c-0.1,0-0.2,0-0.3,0.1c-1,0.8,2.4,7.1,3.4,8.8
					c3.3,6,4,5.7,5.2,8.8c2.3,5.4,2.4,11.5,1.2,12h-0.1c-1,0-2.6-3-3.4-3.2h-0.1c-0.1,0-0.1,0-0.2,0c-0.8,0.5,1.5,5.4,1.7,11.6
					c0.3,6.7-1.9,13.8-4.3,14.1l0,0c-2.1,0-3.8-5.5-5.2-5.4c-0.1,0-0.1,0-0.2,0c-0.8,0.2-0.4,2.2-0.9,5.5c-0.3,2.4-1.1,8-4.6,12
					c-0.3,0.3-0.5,0.6-0.8,0.9c-0.4,0.4-0.8,0.8-1,1.1c-0.3,0.4-0.5,0.8-0.4,1.2l0,0V213c-1.4,0.2-3.6,0.7-6.1,1.8
					c-9.6,4.3-13.7,13.4-16.2,12.5l0,0c0,0,0,0-0.1,0c-1.7-1.1-0.4-6.9-1.7-7.3l0,0l-0.1-0.1c-1.7-0.3-4.7,9.4-7.5,9.3
					c-0.1,0-0.3,0-0.4-0.1c-2.1-1.1-2.7-8.1-4.6-8.9C674.3,220.5,674.1,220.5,673.9,220.5z"/>
				<path class="st4" d="M730.9,253.5c-0.1,0.2-0.2,0.4-0.2,0.6V254C730.7,253.9,730.8,253.7,730.9,253.5z"/>
				<path class="st5" d="M669.5,225.8c1.1,0.2,2.5-5.1,4.4-5.3c0.2,0,0.4,0,0.6,0.1c-0.1-0.1-0.3-0.1-0.4-0.1l0,0l0,0
					c-1.8,0.1-3.2,5.1-4.3,5.3l0,0C669.6,225.8,669.5,225.8,669.5,225.8z"/>
				<path class="st5" d="M724.5,154.8c3.3,6,4,5.7,5.3,8.8c2.2,5.4,2.4,11.5,1.2,12c-0.1,0-0.1,0-0.2,0h0.1c1.2-0.5,1.1-6.6-1.2-12
					C728.4,160.4,727.7,160.7,724.5,154.8c-1-1.7-4.4-8-3.5-8.8c0.1-0.1,0.2-0.1,0.3-0.1c-0.1,0-0.1,0-0.2,0.1
					C720.2,146.7,723.5,153,724.5,154.8z"/>
				<path class="st3" d="M694.4,152c0.5-0.2,1-0.3,1.6-0.5C695.5,151.7,695,151.9,694.4,152z"/>
				<path class="st3" d="M684.8,150c-0.8-1.2-2.1-2-3.9-2c-0.2,0-0.4,0-0.6,0c0.6-1.1,1.6-1.9,2.8-2.4c0.7-1,1.8-1.8,2.9-2.1
					c1.5-0.4,2.8-0.1,3.9,0.6c-0.5,0.8-0.7,1.6-0.8,2.5C687.4,147.5,686,148.6,684.8,150z"/>
				<path class="st4" d="M730.4,257.2c0.1-0.8,0.3-1.6,0.4-2.4l0,0C730.7,255.6,730.5,256.4,730.4,257.2z"/>
				<path class="st5" d="M647.2,313.1c0.2,0.6-2.5,1.3-3.2,3.4c-0.1,0.3-0.1,0.5-0.2,0.8c0-0.3,0.1-0.6,0.2-0.9
					C644.7,314.4,647.1,313.7,647.2,313.1z"/>
				<path class="st5" d="M637.3,209.2c1.5-0.1,3.5-9.5,3.5-9.5v0.1C640.7,200.6,638.9,209.3,637.3,209.2
					C637.4,209.2,637.4,209.2,637.3,209.2z"/>
				<path class="st6" d="M730.5,257.9c-0.2-0.1-0.3-0.2-0.5-0.3h0.1l0.1,0.1c0,0,0,0,0-0.1c0.2,0.1,0.5,0.2,1,0.5
					c0.1,0,0.2,0.1,0.3,0.1c0.1,0.2,0.1,0.4,0.2,0.6C731.5,258.5,731,258.2,730.5,257.9z"/>
				<path class="st3" d="M684.8,150c1.2-1.3,2.6-2.4,4.1-3.3v0.1C687.4,147.6,686,148.7,684.8,150L684.8,150z"/>
				<path class="st4" d="M622.4,255.5c0.5,0,1.1,0,1.7-0.1c0,0,0,0,0.1,0l-0.1,0.1c-0.2,0.3-0.4,0.5-0.5,0.7
					c-0.1-0.1-0.2-0.1-0.3-0.2C622.9,255.9,622.7,255.6,622.4,255.5z"/>
				<path class="st4" d="M730.2,257.6l-0.4-0.2c0,0-0.1,0-0.1-0.1c0,0-0.1-0.1-0.2-0.1C729.8,257.4,730.1,257.5,730.2,257.6
					C730.3,257.6,730.2,257.6,730.2,257.6z"/>
				<path class="st3" d="M691.3,145.6c-0.8,0.3-1.6,0.7-2.3,1.2v-0.1C689.7,146.2,690.4,145.8,691.3,145.6
					C691.2,145.6,691.2,145.6,691.3,145.6z"/>
				<path class="st5" d="M679.5,229.6c-0.2,0-0.3-0.1-0.4-0.1C679.1,229.6,679.3,229.6,679.5,229.6c2.8,0,5.8-9.7,7.5-9.4
					c0,0,0.1,0,0.1,0.1H687C685.3,220.2,682.4,229.6,679.5,229.6C679.5,229.6,679.5,229.6,679.5,229.6L679.5,229.6z"/>
				<path class="st3" d="M693.4,152c0,0.1,0,0.1,0,0.2c-1.9,0.8-3.7,2.1-4.7,3.8c-1.2,1.9-3.2,2-4.6,1.1c-0.1,0-0.1-0.1-0.2-0.1
					c2-1.6,2.3-4.8,0.9-6.9c1.2-1.3,2.6-2.4,4.1-3.3C688.8,149.3,690.3,151.8,693.4,152z"/>
				<path class="st3" d="M650.3,154.6c-0.7,0.1-1.3,0.2-2,0.4c-0.5,0.2-0.8,0.4-1,0.4l0,0c-0.1,0-0.1-0.1-0.1-0.4c0,0.1,0,0.2,0,0.3
					c0-0.1,0-0.1,0-0.3c0,0.3-0.1,0.5-0.2,0.7c0,0,0,0,0,0.1c-1.2,3.5-6.8,3.1-6.5-1.1c0-0.2,0-0.3,0-0.5c0.5-4,3.9-5.8,7.4-6.5
					c0.5-0.1,1-0.2,1.5-0.2c4.8-0.5,9.6,1.1,12.2,5.7c0.1,0.2,0.2,0.3,0.2,0.5c0.6,1.5,0.1,2.9-0.8,3.8c-1.4,1.4-3.9,1.6-5.2-0.7
					c-0.3-0.5-0.7-1-1.2-1.3c-0.2-0.1-0.4-0.3-0.7-0.4c0,0-0.1,0-0.1-0.1C652.8,154.5,651.6,154.5,650.3,154.6L650.3,154.6z"/>
				<path class="st6" d="M730.3,257.5c0-0.1,0-0.2,0-0.3c0.1-0.8,0.3-1.6,0.4-2.4l0,0c0.2,0.6,0.3,1.1,0.4,1.5
					c0.1,0.3,0.2,0.6,0.3,0.9c0.1,0.4,0.2,0.7,0.3,1.1c-0.1,0-0.2-0.1-0.3-0.1C731.1,257.9,730.7,257.7,730.3,257.5L730.3,257.5z"/>
				<path class="st5" d="M688.8,227.6L688.8,227.6c0.1,0,0.1,0.1,0.1,0.1c0.1,0,0.1,0,0.2,0.1C689.1,227.7,689,227.7,688.8,227.6
					c0,0-0.1,0-0.2-0.1C688.7,227.6,688.8,227.6,688.8,227.6L688.8,227.6z"/>
				<path class="st6" d="M706.8,264.1c0-0.5,0-1-0.1-1.5C706.8,263.1,706.8,263.6,706.8,264.1z"/>
				<path class="st3" d="M697.7,144c0.3,0,0.7,0,1,0c0,0,0,0,0,0.1C698.4,144,698.1,144,697.7,144L697.7,144z"/>
				<path class="st6" d="M706.8,262.4L706.8,262.4C706.8,262.3,706.8,262.3,706.8,262.4L706.8,262.4c0.4,0,0.7,0,1-0.1l0,0
					c0.5,2.5,1,5.2,1.6,8c-0.8,0.1-1.7,0.2-2.6,0.2c0.1-2.2,0.1-4.4,0.1-6.3c0-0.5,0-1-0.1-1.5C706.8,262.5,706.8,262.5,706.8,262.4
					z"/>
				<path class="st4" d="M730.5,253.6c0-0.2-0.1-0.4-0.1-0.5c0.2,0,0.5,0,0.6,0c0,0.1-0.1,0.2-0.1,0.3c0,0.1,0,0.1-0.1,0.2
					c-0.1,0.2-0.2,0.4-0.3,0.6C730.6,253.9,730.5,253.8,730.5,253.6z"/>
				<path class="st3" d="M691.2,145.5c-0.8,0.3-1.5,0.7-2.3,1.1c0-0.9,0.3-1.8,0.8-2.5C690.3,144.5,690.8,145,691.2,145.5z"/>
				<path class="st5" d="M650.4,154.6c-0.7,0.1-1.3,0.2-2,0.4c-0.6,0.2-0.9,0.4-1.1,0.4c0.2-0.1,0.5-0.3,1-0.4
					C649,154.8,649.6,154.6,650.4,154.6C650.3,154.6,650.3,154.6,650.4,154.6z"/>
				<path class="st5" d="M683,112.3c-0.5-0.9,3.2-3.4,2.6-4.8c-0.2-0.5-1-0.8-2-0.9c1,0.1,1.8,0.4,2,0.9
					C686.2,108.9,682.5,111.4,683,112.3c0.1,0.1,0.3,0.2,0.4,0.2C683.2,112.5,683,112.4,683,112.3z"/>
				<path class="st5" d="M669.7,225.8c1.1-0.1,2.5-5.1,4.3-5.3l0,0C672.2,220.7,670.8,226,669.7,225.8z"/>
				<path class="st5" d="M662.6,108.7c1.9,1.8,4.4,3.9,6.8,5.1c-2.2-1-4.5-2.9-6.4-4.6C662.9,109,662.7,108.9,662.6,108.7z"/>
				<path class="st4" d="M730.7,254.2c0.1-0.2,0.1-0.4,0.2-0.6c0-0.1,0-0.1,0.1-0.2c0-0.1,0.1-0.2,0.1-0.3c-0.1,0.5-0.2,1.1-0.3,1.6
					l0,0C730.8,254.6,730.7,254.4,730.7,254.2C730.6,254.2,730.6,254.2,730.7,254.2z"/>
				<path class="st4" d="M730.9,253.4c0,0.1,0,0.1-0.1,0.2C730.9,253.5,730.9,253.4,730.9,253.4z"/>
				<path class="st4" d="M729.8,257.4l0.4,0.2h-0.1C730,257.5,729.9,257.4,729.8,257.4z"/>
				<path class="st3" d="M694.2,151.9c0.7-0.2,1.4-0.4,2.1-0.6c-0.1,0.1-0.2,0.1-0.4,0.2C695.4,151.6,694.9,151.8,694.2,151.9
					C694.4,152,694.3,152,694.2,151.9C694.3,152,694.3,151.9,694.2,151.9C694.3,151.9,694.2,152,694.2,151.9
					c-0.1,0.1-0.2,0.1-0.3,0.1C694,151.9,694.1,151.9,694.2,151.9z"/>
				<path class="st5" d="M679,229.5c0.1,0.1,0.3,0.1,0.4,0.1c-0.3,0-0.5-0.1-0.7-0.3C678.8,229.4,678.9,229.5,679,229.5z"/>
				<path class="st3" d="M694.3,152L694.3,152C694.2,152,694.3,151.9,694.3,152C694.3,151.9,694.3,152,694.3,152z"/>
				<path class="st5" d="M668.2,221.2c0.1,0,0.1,0,0.1,0.1C668.3,221.2,668.3,221.2,668.2,221.2
					C668.3,221.2,668.3,221.2,668.2,221.2c-0.8-0.1-1.5,3.4-3.1,3.7l0,0H665h-0.1c-0.1,0-0.2,0-0.3-0.1c0.2,0.1,0.3,0.1,0.5,0
					C666.7,224.5,667.4,221,668.2,221.2z"/>
				<path class="st3" d="M703.9,153.2c-0.5-0.4-1-0.8-1.6-1l0,0C702.8,152.4,703.4,152.8,703.9,153.2z"/>
				<path class="st3" d="M693.9,152c-0.2,0.1-0.3,0.1-0.5,0.2c0-0.1,0-0.1,0-0.2c0.1,0,0.2,0,0.3,0S693.9,152,693.9,152z"/>
				<path class="st5" d="M668.3,221.2c-0.8,0.1-1.5,3.4-3.1,3.6h-0.1l0,0C666.8,224.6,667.5,221,668.3,221.2z"/>
				<path class="st5" d="M709.3,299.1c2.1,6.9,4.3,15,4.7,23.6c-0.5-8.6-2.6-16.6-4.7-23.4c-0.4-1.3-1-3-1.5-5.1
					C708.4,296.2,708.9,297.9,709.3,299.1z"/>
				<path class="st3" d="M668.5,221.3c0.5,0.7,0.2,3.8,0.9,4.4l0,0c0,0.1,0.1,0.1,0.2,0.1l0,0l0,0c1.1,0.1,2.5-5.1,4.3-5.3l0,0
					c0.2,0,0.4,0.1,0.6,0.2c0.1,0.1,0.1,0.1,0.2,0.2l0.1,0.1c1.4,1.7,2,6.8,3.7,8.1c0,0.1,0.1,0.1,0.1,0.1c0.2,0.2,0.5,0.3,0.7,0.3
					l0,0l0,0l0,0c2.8,0.1,5.6-9.3,7.4-9.3c0,0,0,0,0.1,0s0.1,0,0.2,0.1c0.9,0.9,0,5.7,1.3,7c0,0.1,0.1,0.1,0.1,0.1
					c0.1,0.1,0.2,0.1,0.3,0.1s0.2,0.1,0.3,0.1h0.1c2.5,0.2,6.7-8.4,15.9-12.6c2.5-1.1,4.6-1.6,6-1.8c0.1,0.1,0.1,0.3,0.2,0.3
					l0.1,0.1c0.7,0.6,2.2,0.6,3.5,1.7c0.1,0.1,0.2,0.2,0.3,0.3c0.2,0.1,0.3,0.3,0.4,0.5c1.1,1.3,1.3,2.9,1.5,3.9
					c1,4.5,3.5,6,6.3,10.8c1.7,2.9,1.3,3.2,6,20c0.2,0.8,0.4,1.4,0.6,2.1c-8,0.2-16,0.4-24.1,0.5c-0.1-0.4-0.2-0.8-0.2-1.2
					c-0.1-0.3-0.1-0.6-0.2-0.8c0-0.1,0-0.2-0.1-0.3V251l0,0c0,0,0,0,0-0.1s0-0.1,0-0.2l0,0c0,0,0,0,0-0.1s-0.1-0.2-0.1-0.2
					c0,0.1,0.2,1.2,0.5,3c-18.9,0.4-37.7,0.8-56.5,1.3c-0.1-2.5-0.3-3-0.4-3l0,0l0,0l0,0c-0.2,0-0.5,1.3-0.8,3.1
					c-8,0.2-16,0.4-24,0.5c0.9-1,1.7-2.2,2.3-4c1.3-4.1-0.8-5.6,0.3-10.3c0.7-3.1,1.7-3.4,3.8-7.2c4.5-8.5,2.2-12.2,6.8-18.1
					c2-2.7,5.1-5.1,6.7-4.3c0.4,0.2,0.6,0.5,0.9,0.8c0.2,0.2,0.3,0.4,0.6,0.6c0.1,0.1,0.3,0.3,0.5,0.4c0.1,0.1,0.2,0.1,0.3,0.2
					c0.1,0,0.1,0.1,0.2,0.1c0.1,0.1,0.2,0.1,0.3,0.2c0.1,0.1,0.2,0.1,0.4,0.2c0.8,0.4,1.5,0.6,2,0.6l0.5,0.8h0.1l0,0
					c0.2,0,0.5,0.1,0.7,0.1c0.8,0.2,1.7,0.4,2.8,0.7c1.2,0.4,2.5,0.8,3.7,1.2c0.4,0.2,0.8,0.4,1.3,0.6c0.2,0.1,0.5,0.3,0.7,0.4
					c0.1,0.1,0.3,0.2,0.4,0.3c0.2,0.2,0.4,0.3,0.6,0.4c0.3,0.3,0.6,0.5,0.8,0.8c1.7,1.7,2.4,3.6,3.2,4.4c0.1,0.1,0.1,0.1,0.2,0.2
					c0.2,0.2,0.4,0.3,0.6,0.3h0.1h0.1h0.1c1.6-0.3,2.3-3.6,3.1-3.6l0,0C668.3,221.2,668.4,221.2,668.5,221.3
					C668.4,221.3,668.4,221.3,668.5,221.3C668.4,221.3,668.4,221.3,668.5,221.3z"/>
				<path class="st4" d="M648.3,254.9c-0.2,1.4-0.5,3-0.6,4.7c0,0.2,0,0.4-0.1,0.7l0,0c0,0,0,0,0,0.1c-6,0.2-11.8,0.4-17.8,0.7l0,0
					c-2.1-1.6-4.2-3.1-6.3-4.6c0.2-0.2,0.4-0.5,0.5-0.7l0.1-0.1h0.1C632.2,255.2,640.3,255,648.3,254.9L648.3,254.9z"/>
				<path class="st3" d="M692,147c0.6,1.6,1.2,3.2,1.4,5c-3.1-0.2-4.6-2.7-4.5-5.2c0.7-0.4,1.5-0.8,2.3-1.2
					C691.5,146,691.8,146.5,692,147z"/>
				<path class="st6" d="M630.3,261.3c0.2,0.1,0.3,0.2,0.5,0.4c0.8,0.6,1.6,1.2,2.4,1.8c2.2,1.6,4.4,3.2,6.6,4.9c0,1.8,0,3.6,0,5.4
					c-5.3-4.1-10.7-8.4-16-12.5c2-0.1,4-0.2,6-0.2L630.3,261.3z"/>
				<path class="st5" d="M674,220.6c0.1,0,0.3,0,0.4,0.1c0.1,0,0.1,0.1,0.2,0.1C674.4,220.6,674.2,220.6,674,220.6z"/>
				<path class="st5" d="M664.9,224.9c-0.2,0-0.5-0.1-0.6-0.3c0.1,0.1,0.1,0.1,0.2,0.2l0.1,0.1C664.7,224.8,664.8,224.9,664.9,224.9
					z"/>
				<path class="st4" d="M730.3,257.6c-0.2-0.1-0.5-0.2-0.8-0.4l0,0c0.4-1,0.7-1.9,1.1-2.9c0.1,0.2,0.1,0.3,0.2,0.5
					c-0.1,0.8-0.3,1.6-0.4,2.4C730.4,257.3,730.3,257.4,730.3,257.6C730.3,257.5,730.3,257.5,730.3,257.6L730.3,257.6z"/>
				<path class="st3" d="M706.8,270.5C706.8,270.5,706.8,270.6,706.8,270.5c0,0.2,0,0.3,0,0.5c-0.2,4.1-0.6,4.9-0.7,7.4
					c0,0.4,0,0.9,0,1.5c0,0.8,0,1.6,0,2.3c0.1,3.1,0.5,6,1,8.4c0,0.2,0.1,0.4,0.1,0.6c0.2,1,0.5,2,0.7,2.8l0,0
					c0.5,2.1,1.1,3.8,1.5,5.1c2.1,6.8,4.3,14.9,4.7,23.4c0,0.6,0.1,1.2,0.1,1.8c0,1.5,0,3,0,4.4c-0.1,2.7-0.5,5.5-1,8.2
					c-0.6,2.9-1.6,6.4-1.7,9.6c0,0.5,0,0.9,0,1.3c0.1,1.9,0.6,3.7,1.7,5.2c1.5,1.9,3.7,2.7,4.5,5.6c0.2,0.6,0.3,1.1,0.3,1.8
					c0,0.3,0,0.7,0,1.1c-0.1,1.4-0.5,2.7-1.1,3.9c-1.8,3.2-4.7,2.6-21.5,4.8c-1.8,0.2-5.4,0.7-7.2-1.5c-0.6-0.7-0.4-1-1.5-2.5
					c-1.7-2.6-3-2.8-3.4-4.4l0,0c0-0.5,0.1-1.4,0.4-3.1c0.4-2.2,0.7-3.5,0.8-4c0-0.2,0.1-0.5,0.1-0.7l0,0c0.2-2.1-0.7-3.4-1.6-7
					c-0.2-0.9-1-4.1-1.2-8.1c0-0.9-0.1-1.9,0-2.9c0-0.4,0-0.8,0.1-1.3c0.1-0.8,0.2-1.7,0.4-4.4c0,0,0.3-3,0.4-5.2V325
					c0-0.6,0-1.3,0-2.2c-0.3-7.4-2.6-24-4.9-23.8c-1.6,0.1-3.4,8.7-4.2,19.4c0,0.2,0,0.4,0,0.6c0,0.3,0,0.5,0,0.7
					c-0.3,4.3-0.4,8.9-0.2,13.4c0.1,1.5,0.1,3,0.3,4.4c0,0,0,0.1,0,0.2s0,0.1,0,0.2c0.1,2,0.5,8.9-0.7,17.6
					c-0.8,6.2-1.3,9.3-3.4,11.6c-3,3.5-8.8,3.5-20.4,3.6c-3.5,0-7.4-0.1-10.6-2.8c-0.9-0.7-2.3-1.9-2.6-3.6c0-0.1,0-0.1,0-0.2l0,0
					c-0.2-3,3.5-4.2,6-8c0.5-0.8,0.8-1.5,1-2.2c0,0,0,0,0-0.1c0.1-0.2,0.1-0.4,0.1-0.5l0,0c0.3-1.6,0.1-3.4,0.2-6.6
					c0-0.7,0-1.5,0.1-2.3c0-0.3,0-0.5,0.1-0.8c0-0.1,0-0.2,0-0.3c0.1-1.1,0.2-2.3,0.4-3.6c1-8.2,2.6-11.9,2.4-15c0-0.1,0-0.2,0-0.3
					c-0.1-0.9-0.3-1.8-0.8-2.8c-0.5-0.9-1.3-2.3-1.4-3.7c0-0.1,0-0.3,0-0.4c0-0.3,0.1-0.5,0.2-0.8c0.7-2.1,3.4-2.8,3.2-3.4v-0.1
					c-0.2-0.8-4.4,0.4-4.9-0.8c0-0.1,0-0.1,0-0.2c0.1-1,2.8-2.3,3.4-5.3c0.1-0.5,0.1-0.9,0.1-1.3c0-0.1,0-0.2,0-0.3
					c0-1.1-0.3-2-0.3-2.9c0-0.3,0.1-0.6,0.4-0.9c0.5-0.9,1.2-1,1.9-1.3c0.4-0.2,0.9-0.4,1.3-0.9c0.5-0.6,0.8-1.3,0.9-2
					c0.3-1.4,0-3-0.1-4c0-0.2,0-0.4-0.1-0.6c0-0.1,0-0.2,0-0.3c-0.3-2.7,0.6-1.1,0.5-13.4c0-0.4,0-0.8,0-1.3c0-0.4,0-0.9,0-1.4
					c0-0.2,0-0.5,0-0.7c0-0.6-0.1-1.3-0.1-2.1C669,272.4,687.9,271.4,706.8,270.5z"/>
				<path class="st4" d="M730.3,257.5c0-0.1,0-0.2,0-0.3C730.4,257.3,730.4,257.4,730.3,257.5z"/>
				<path class="st6" d="M753.4,265.5c0.1,0.4,0.3,1.3-0.4,2.8l0,0c-2.6-1.2-5.3-2.5-7.9-3.8c0-0.5,0-1,0-1.5
					c-0.6-0.4-1.1-0.8-1.7-1.2C751.5,262.5,753,264,753.4,265.5z"/>
				<path class="st6" d="M753,268.3c-2.6,0.1-5.3,0.2-7.9,0.4l-0.1-1c0-1.1,0-2.1,0-3.1C747.7,265.8,750.3,267,753,268.3z"/>
				<path class="st6" d="M745,264.5c2.7,1.3,5.3,2.5,7.9,3.8C750.3,267,747.7,265.8,745,264.5L745,264.5L745,264.5z"/>
				<path class="st6" d="M733.8,269.2c-0.2-1.9-0.5-4.1-1-6.6c-0.1-0.4-0.1-0.8-0.2-1.2c1.2,0,2.2,0,3.2,0c0,0,0,0,0.1,0
					c3,2.1,6,4.1,9.1,6.1l0.1,1.1c0,0,0,0,0.1,0v0.1C741.3,268.9,737.6,269,733.8,269.2L733.8,269.2z"/>
				<path class="st6" d="M745,267.6l0.1,1c0,0,0,0-0.1,0V267.6L745,267.6z"/>
				<path class="st6" d="M745,264.5c0,1,0,2,0,3.1c0,0,0,0-0.1-0.1l0,0C745,266.5,745,265.5,745,264.5L745,264.5z"/>
				<path class="st6" d="M745,263c0,0.5,0,1,0,1.5c0,0,0,0-0.1,0C745,264,745,263.5,745,263c-0.6-0.4-1.2-0.8-1.7-1.2
					C743.9,262.2,744.5,262.6,745,263z"/>
				<path class="st6" d="M745,267.5L745,267.5c-3-2.1-6.1-4.1-9-6.1c0.9,0,1.9,0.1,2.8,0.1c2.1,1,4.2,1.9,6.3,3l0,0
					C745,265.5,745,266.5,745,267.5z"/>
				<path class="st6" d="M745,264.4C745,264.5,745,264.5,745,264.4c-2.1-1-4.2-1.9-6.3-2.9c1.7,0.1,3.3,0.2,4.6,0.3
					c0.5,0.4,1.1,0.8,1.7,1.2C745,263.5,745,264,745,264.4z"/>
				<path class="st6" d="M743.3,261.8c-1.3-0.1-2.9-0.2-4.6-0.3c-2.3-1.1-4.6-2.2-6.9-3.2c-0.1-0.4-0.2-0.7-0.3-1.1
					c-0.1-0.3-0.2-0.6-0.3-0.9c-0.1-0.4-0.2-0.9-0.4-1.5c0.1-0.6,0.1-1.1,0.2-1.7C735.1,256,739.2,258.9,743.3,261.8z"/>
				<path class="st6" d="M738.7,261.5c1.7,0.1,3.3,0.2,4.6,0.3C742,261.7,740.4,261.6,738.7,261.5z"/>
				<path class="st6" d="M738.7,261.5c-0.9,0-1.8-0.1-2.8-0.1h-0.1c-1.3-0.9-2.6-1.7-3.9-2.6c-0.1-0.2-0.1-0.4-0.2-0.5
					C734.1,259.4,736.4,260.4,738.7,261.5z"/>
				<path class="st6" d="M736,261.5c2.9,2,6,4,9,6.1C741.9,265.5,738.9,263.5,736,261.5C735.9,261.5,735.9,261.5,736,261.5z"/>
				<path class="st7" d="M735.8,261.5c-1,0-2,0-3.2,0h-0.1c-0.1-0.5-0.1-0.9-0.2-1.3c-0.1-0.4-0.2-0.9-0.3-1.3
					C733.2,259.7,734.5,260.5,735.8,261.5z"/>
				<path class="st3" d="M733.7,269.2c0.3,3.4,0.1,5.9-1.3,8.3c-0.4,0.6-0.8,1.2-1.4,1.7c-0.4,0.4-0.8,0.7-1.2,1
					c-1.4,1-3.1,1.8-5.3,2.8c-3.8,1.7-6.7,3-9.2,1.9c-2.8-1.1-3.8-4.5-5.5-12.7c-0.1-0.6-0.3-1.2-0.4-1.8
					C717.5,270,725.6,269.6,733.7,269.2z"/>
				<path class="st6" d="M709.4,270.4L709.4,270.4c-0.6-2.8-1.1-5.6-1.6-8c10.5-0.6,18.6-0.9,24.8-0.9c0.1,0.4,0.1,0.8,0.2,1.2
					c0.5,2.4,0.8,4.5,1,6.5C725.6,269.6,717.6,270,709.4,270.4z"/>
				<path class="st7" d="M732.3,260.1c0.1,0.4,0.2,0.9,0.2,1.3c-6.2,0-14.2,0.3-24.7,0.9c-0.3-1.4-0.5-2.6-0.7-3.8
					c7.7-0.4,15.3-0.7,23-1c0,0,0,0-0.1-0.1c0,0,0,0,0.1,0c0.2,0.1,0.3,0.2,0.5,0.3c0.5,0.3,0.9,0.6,1.4,0.9
					C732,259.3,732.2,259.7,732.3,260.1z"/>
				<path class="st7" d="M731.9,258.8c0.1,0.4,0.2,0.9,0.3,1.3C732.2,259.7,732,259.3,731.9,258.8z"/>
				<path class="st6" d="M730.5,257.9c0.5,0.3,1,0.6,1.4,0.9C731.5,258.5,731,258.2,730.5,257.9z"/>
				<path class="st4" d="M730.6,254.2c0.1,0.1,0.1,0.3,0.2,0.5l0,0C730.7,254.6,730.7,254.4,730.6,254.2
					C730.6,254.3,730.6,254.2,730.6,254.2z"/>
				<path class="st4" d="M729.5,257.1C729.4,257.2,729.4,257.2,729.5,257.1c-7.5,0.4-15,0.6-22.4,0.9c-0.3-1.7-0.6-3.2-0.8-4.4
					c8-0.2,16-0.4,24.1-0.5c0.1,0.2,0.1,0.4,0.2,0.5c0,0.1,0.1,0.3,0.1,0.5v0.1C730.2,255.1,729.8,256.2,729.5,257.1z"/>
				<path class="st4" d="M730.6,254.2v0.1c-0.4,1-0.7,1.9-1.1,2.9l0,0l0,0C729.8,256.2,730.2,255.1,730.6,254.2z"/>
				<path class="st4" d="M730.4,253.1c0,0.2,0.1,0.4,0.1,0.5C730.4,253.4,730.4,253.3,730.4,253.1
					C730.3,253.1,730.4,253.1,730.4,253.1z"/>
				<path class="st4" d="M730,257.6L730,257.6c-7.6,0.4-15.2,0.7-22.9,1c0,0,0,0-0.1,0c0,0,0,0,0-0.1c0,0,0,0,0.1,0
					C714.7,258.2,722.4,257.9,730,257.6z"/>
				<path class="st5" d="M724.5,283c2.2-1,4-1.9,5.3-2.8C728.5,281.2,726.7,282,724.5,283c-3.8,1.9-6.7,3.1-9.3,2
					c-2.7-1.2-3.8-4.6-5.5-12.7c-0.1-0.6-0.3-1.3-0.4-1.9c0,0,0,0,0.1,0l0,0c0.1,0.6,0.3,1.2,0.4,1.8c1.7,8.2,2.8,11.6,5.5,12.7
					C717.8,286,720.7,284.8,724.5,283z"/>
				<path class="st4" d="M729.7,257.3c-0.1,0-0.1-0.1-0.2-0.1c0,0,0,0,0.1,0l0,0C729.5,257.2,729.6,257.3,729.7,257.3z"/>
				<path class="st4" d="M729.4,257.2c0.2,0.1,0.4,0.2,0.6,0.4c-7.6,0.4-15.3,0.7-22.9,1c-0.1-0.2-0.1-0.3-0.1-0.5l0,0
					C714.5,257.7,722,257.5,729.4,257.2z"/>
				<path class="st4" d="M729.5,257.2L729.5,257.2L729.5,257.2C729.4,257.2,729.4,257.2,729.5,257.2
					C729.5,257.1,729.5,257.1,729.5,257.2L729.5,257.2z"/>
				<path class="st5" d="M728.8,184c0.3,6.7-1.9,13.8-4.3,14.1c0,0,0,0-0.1,0C726.8,197.8,729,190.7,728.8,184
					c-0.3-6.3-2.6-11.2-1.7-11.6c0,0,0.1,0,0.2,0h-0.1C726.3,172.7,728.6,177.7,728.8,184z"/>
				<path class="st5" d="M721.5,139.1c1.3,2.6,2.5,6.5,1.6,7.1c-0.1,0.1-0.2,0.1-0.3,0.1c0.1,0,0.2,0,0.3-0.1
					C723.9,145.6,722.7,141.7,721.5,139.1c-1.8-3.6-4.2-6.3-4.6-6.8c-1.9-2.2-3.7-3.5-3.4-4c0-0.1,0.2-0.1,0.3-0.1
					c-0.1,0-0.2,0.1-0.3,0.1c-0.3,0.5,1.5,1.9,3.4,4C717.4,132.8,719.7,135.4,721.5,139.1z"/>
				<path class="st5" d="M719.2,192.6L719.2,192.6c-0.9,0.2-0.5,2.2-1,5.5c-0.3,2.4-1.1,8-4.6,12c-0.3,0.3-0.6,0.6-0.8,0.9
					c0.3-0.3,0.5-0.6,0.8-0.9c3.5-4,4.3-9.6,4.6-12C718.7,194.8,718.3,192.8,719.2,192.6C719.1,192.6,719.1,192.6,719.2,192.6z"/>
				<path class="st5" d="M717.7,358.8c0.2,0.6,0.3,1.2,0.3,1.9c0-0.6-0.1-1.2-0.3-1.8c-0.8-2.9-3.1-3.7-4.5-5.6
					c-1.1-1.5-1.6-3.3-1.7-5.2c0.1,1.9,0.6,3.6,1.7,5.1C714.6,355.1,716.8,355.9,717.7,358.8z"/>
				<path class="st5" d="M712.4,121.9c2.4,2.2,5.1,5.5,4.5,6.4c-0.1,0.1-0.3,0.2-0.5,0.2c0.2,0,0.3-0.1,0.4-0.2
					C717.5,127.4,714.8,124.1,712.4,121.9c-3.2-2.9-6.2-4.5-7.6-5.2c-5.3-2.6-9.7-3.1-9.7-3.5c0-0.1,0.2-0.1,0.5-0.1
					c-0.3,0-0.4,0.1-0.5,0.1c-0.1,0.4,4.4,1,9.7,3.5C706.3,117.4,709.3,118.9,712.4,121.9z"/>
				<path class="st3" d="M713,148.7c2.4,0.7,4.4,3.6,3.5,6.1c-1.1,2.9-2.5,5.4-4.8,7.5c-2.5,2.4-7.6,1.6-8.4-2.2
					c-0.5-2.6-0.9-5.1-1.1-7.7c0-0.1,0-0.2,0-0.3c0.5,0.3,1.1,0.7,1.6,1c0.4,0.3,0.8,0.6,1.1,0.9c0.2,0.2,0.5,0.4,0.7,0.7
					c0.5,0.5,0.9,0.9,1.3,1.4c0.1,0.1,0.2,0.2,0.3,0.3c1.7,1.7,4,0.7,4.9-1.2c0.6-1.2,0.7-2.8-0.5-4.1c-0.2-0.3-0.5-0.5-0.7-0.8
					c-0.5-0.5-0.9-1-1.4-1.4l2.4-0.5C712.3,148.5,712.7,148.6,713,148.7z"/>
				<path class="st6" d="M709.4,270.4c8.2-0.4,16.2-0.8,24.3-1.2C725.6,269.6,717.5,270,709.4,270.4z"/>
				<path class="st5" d="M714.1,322.7c0,0.6,0.1,1.2,0.1,1.8C714.1,323.9,714.1,323.3,714.1,322.7z"/>
				<path class="st5" d="M715.1,215.4c-1.4-1.1-2.9-1.1-3.5-1.7C712.3,214.3,713.7,214.4,715.1,215.4z"/>
				<path class="st5" d="M711.7,212.1c-0.3,0.4-0.4,0.8-0.3,1.2c0,0,0,0-0.1,0l0,0C711.1,212.9,711.3,212.6,711.7,212.1z"/>
				<path class="st5" d="M711.3,213.3L711.3,213.3C711.2,213.3,711.2,213.3,711.3,213.3C711.2,213.4,711.2,213.4,711.3,213.3
					C711.2,213.3,711.2,213.3,711.3,213.3z"/>
				<path class="st5" d="M711.2,213.3C711.2,213.4,711.2,213.4,711.2,213.3c-1.4,0.3-3.5,0.7-6,1.8c-9.2,4.1-13.4,12.8-15.9,12.6
					c2.5,0,6.8-8.5,15.9-12.6C707.6,214.1,709.8,213.6,711.2,213.3z"/>
				<path class="st5" d="M711.2,213.3L711.2,213.3c-1.4,0.3-3.5,0.8-6,1.9c-9.1,4.1-13.3,12.6-15.9,12.6h-0.1c-0.1,0-0.1,0-0.2-0.1
					h-0.1c2.5,0.9,6.7-8.2,16.2-12.5C707.6,214,709.8,213.5,711.2,213.3z"/>
				<path class="st3" d="M712.2,155.4c-0.9,1.8-3.2,2.9-4.9,1.2C709,158.2,711.2,157.2,712.2,155.4z"/>
				<path class="st7" d="M707.8,262.3L707.8,262.3C707.7,262.3,707.7,262.3,707.8,262.3L707.8,262.3c-0.3-1.3-0.6-2.6-0.8-3.8
					c0,0,0,0,0.1,0C707.3,259.7,707.5,261,707.8,262.3z"/>
				<path class="st7" d="M707.7,262.3L707.7,262.3c-0.3,0.1-0.6,0.1-0.9,0.1c0,0,0,0,0-0.1C707.1,262.3,707.4,262.3,707.7,262.3z"/>
				<path class="st5" d="M707.1,291.3c0.2,1,0.5,2,0.7,2.8C707.6,293.3,707.3,292.3,707.1,291.3z"/>
				<path class="st7" d="M707,258.6c0.2,1.2,0.4,2.4,0.7,3.7c-0.3,0-0.6,0-0.9,0.1c0-1-0.1-2-0.2-2.9c0-0.3,0-0.6-0.1-0.9
					C706.8,258.6,706.9,258.6,707,258.6L707,258.6z"/>
				<path class="st4" d="M707.1,258.5C707.1,258.5,707,258.5,707.1,258.5L707.1,258.5c-0.1-0.2-0.1-0.3-0.1-0.5l0,0
					C707,258.2,707,258.4,707.1,258.5z"/>
				<path class="st4" d="M707,258.5c-0.1,0-0.2,0-0.4,0c0-0.2-0.1-0.3-0.1-0.5c0.1,0,0.3,0,0.4,0C707,258.2,707,258.4,707,258.5z"/>
				<path class="st4" d="M707,258L707,258c-0.1,0.1-0.2,0.1-0.4,0.1c0,0,0,0,0-0.1C706.7,258,706.8,258,707,258z"/>
				<path class="st4" d="M707,258c-0.2,0-0.3,0-0.4,0l0,0c-0.2-1.7-0.3-3.2-0.5-4.4c0,0,0,0,0.1,0C706.4,254.8,706.6,256.3,707,258z
					"/>
				<path class="st6" d="M706.8,264.1c0,2,0,4.1-0.1,6.3c-18.8,0.9-37.7,1.9-56.6,2.8c-0.1-1.4-0.1-3.3-0.2-6
					c15.3-1.6,28.4-2.8,39.4-3.6c6.4-0.5,12.2-0.9,17.4-1.3c0,0.1,0,0.1,0,0.2C706.8,263.1,706.8,263.6,706.8,264.1z"/>
				<path class="st7" d="M706.7,259.4c0.1,0.9,0.1,1.9,0.2,2.9c0,0,0,0-0.1,0c-5.2,0.3-10.9,0.7-17.3,1.3c-11.1,0.9-24.1,2-39.5,3.6
					c-0.1-1-0.1-2.1-0.1-3.4c-0.1-1.1-0.1-2.1-0.1-3h0.1c18.9-0.8,37.9-1.6,56.8-2.3c0,0,0,0,0,0.1
					C706.6,258.9,706.6,259.1,706.7,259.4z"/>
				<path class="st5" d="M706.8,270.5L706.8,270.5c-18.9,1-37.8,1.9-56.6,2.8c0,0,0,0,0-0.1C669.1,272.3,688,271.4,706.8,270.5z"/>
				<path class="st7" d="M706.6,258.6c0,0.3,0,0.6,0.1,0.9C706.6,259.1,706.6,258.9,706.6,258.6L706.6,258.6z"/>
				<path class="st4" d="M706.6,258.5L706.6,258.5c-0.1-0.2-0.1-0.3-0.1-0.5l0,0C706.6,258.2,706.6,258.4,706.6,258.5z"/>
				<path class="st4" d="M706.6,258.5c-18.9,0.8-37.9,1.6-56.8,2.3c-0.1-0.2-0.1-0.4-0.1-0.6l0,0c18.9-0.7,37.9-1.4,56.8-2.1l0,0
					C706.6,258.2,706.6,258.4,706.6,258.5z"/>
				<path class="st4" d="M706.6,258C706.5,258,706.5,258,706.6,258c-0.2-1.7-0.4-3.2-0.6-4.4c0,0,0,0,0.1,0
					C706.3,254.8,706.4,256.3,706.6,258z"/>
				<path class="st4" d="M706.5,258L706.5,258c-18.9,0.8-37.9,1.5-56.8,2.2c0,0,0,0,0-0.1C668.7,259.4,687.6,258.7,706.5,258z"/>
				<path class="st4" d="M706.5,258c-18.9,0.7-37.9,1.4-56.8,2.1c0-0.3,0-0.6,0-0.8c0-0.5,0-1-0.1-1.5l0,0c0-1.2-0.1-2.1-0.1-2.9
					c18.8-0.4,37.6-0.8,56.5-1.3C706.2,254.8,706.4,256.3,706.5,258z"/>
				<path class="st5" d="M706.2,253.6C706.2,253.6,706.1,253.6,706.2,253.6c-0.1-0.4-0.2-0.8-0.2-1.2
					C706,252.7,706.1,253.1,706.2,253.6z"/>
				<path class="st3" d="M705.7,154.8c-0.2-0.2-0.5-0.5-0.7-0.7C705.2,154.4,705.5,154.6,705.7,154.8z"/>
				<path class="st5" d="M705.7,250.8C705.7,250.8,705.7,250.9,705.7,250.8C705.7,250.8,705.6,250.8,705.7,250.8
					C705.6,250.8,705.7,250.8,705.7,250.8z"/>
				<path class="st5" d="M698.6,110.8c3.8,0.6,6.3,2,6.3,2.3c0,0-0.1,0.1-0.4,0.1c0.2,0,0.3,0,0.3-0.1
					C704.8,112.8,702.3,111.4,698.6,110.8z"/>
				<path class="st5" d="M702.3,152.1L702.3,152.1c-0.4-0.2-0.8-0.4-1.2-0.5l0,0c0,0,0,0,0-0.1C701.5,151.7,701.9,151.9,702.3,152.1
					z"/>
				<path class="st5" d="M701,151.6C701.1,151.6,701.1,151.6,701,151.6c0,0.3-0.2,0.6-0.2,0.9c-0.6,1.9-2.3,2.9-4.1,2.5
					c-0.8-0.2-1.6-0.9-2-1.6c0-0.1-0.1-0.2-0.1-0.2c0,0.1,0.1,0.1,0.1,0.2c0.4,0.7,1.2,1.4,2,1.6c1.9,0.4,3.5-0.6,4.1-2.5
					C700.9,152.1,701,151.9,701,151.6z"/>
				<path class="st5" d="M698.4,110.7c-0.6-0.1-1.2-0.2-1.9-0.2C697.2,110.6,697.8,110.6,698.4,110.7z"/>
				<path class="st5" d="M694.3,152.3c0-0.1,0-0.2-0.1-0.3l0,0C694.3,152.1,694.3,152.2,694.3,152.3z"/>
				<path class="st3" d="M694.3,157c0.4,3.5-3.5,5.3-6.3,4.8c-2.5-0.4-5.3-1.4-6.9-3.4c-0.1-0.2-0.2-0.3-0.3-0.5c0.1,0,0.1,0,0.2,0
					c1.3,0,2.3-0.4,3-1c0.1,0.1,0.1,0.1,0.2,0.1c1.4,0.9,3.5,0.9,4.7-1.1c1.1-1.7,2.8-3,4.7-3.8c0,0.1,0,0.2,0,0.3
					c0,0.3,0.1,0.6,0.1,1c0,0.1,0.1,0.2,0.1,0.4C694.1,155,694.2,156,694.3,157z"/>
				<path class="st3" d="M693.5,152.2L693.5,152.2c-1.9,0.9-3.6,2.2-4.7,3.9c-1.2,1.9-3.2,2-4.7,1.1c1.4,0.8,3.4,0.8,4.6-1.1
					C689.8,154.3,691.5,153,693.5,152.2z"/>
				<path class="st5" d="M687.1,220.3l0.1,0.1C687.1,220.4,687.1,220.3,687.1,220.3C687,220.3,687,220.3,687.1,220.3
					C687,220.3,687,220.3,687.1,220.3L687.1,220.3z"/>
				<path class="st5" d="M679.6,229.6c2.8-0.1,5.6-9.4,7.4-9.3C685.1,220.4,682.3,229.8,679.6,229.6z"/>
				<path d="M686.4,173.6L686.4,173.6l-9.6,13.2l-7.1-13.2l10-0.3h0.1h0.1c1.5,0.1,4.5,0.2,5.9,0.3
					C686.1,173.6,686.3,173.6,686.4,173.6L686.4,173.6z"/>
				<polygon points="686.3,173.7 676.8,186.9 676.8,186.8 				"/>
				<path class="st3" d="M684.9,150.1c1.4,2.1,1.1,5.3-0.9,6.9c-0.1,0-0.1-0.1-0.2-0.1c-1.2-1-1.8-2.7-0.7-4.4
					C683.6,151.6,684.2,150.8,684.9,150.1z"/>
				<path class="st3" d="M684.8,150L684.8,150c-0.6,0.8-1.3,1.6-1.8,2.5c-1.1,1.7-0.5,3.4,0.7,4.4c-1.3-1-1.9-2.7-0.8-4.5
					C683.5,151.5,684.1,150.7,684.8,150z"/>
				<path class="st5" d="M684.6,354.8c0-0.2,0.1-0.4,0.1-0.6c0,0.2,0,0.5-0.1,0.7c-0.1,0.5-0.4,1.8-0.8,4c-0.3,1.7-0.4,2.6-0.4,3.1
					c-0.1-0.4,0.1-1.4,0.4-3.2C684.2,356.5,684.4,355.3,684.6,354.8z"/>
				<path class="st5" d="M685.8,173.6c-1.3-0.1-4.4-0.2-5.9-0.3C681.4,173.4,684.5,173.6,685.8,173.6z"/>
				<path class="st3" d="M683.8,156.9c0,0,0.1,0.1,0.2,0.1c-0.8,0.6-1.8,1-3,1c0,0-0.1,0-0.2,0c-1.3-2.1-1.1-5.3-1.1-7.6
					c0-0.9,0.2-1.6,0.6-2.3c0.2,0,0.4,0,0.6,0c1.8,0,3.1,0.8,3.9,2c-0.7,0.8-1.3,1.6-1.9,2.4C681.8,154.2,682.5,155.9,683.8,156.9z"
					/>
				<path class="st5" d="M682.6,325.1v0.1c-0.1,2.2-0.4,5.2-0.4,5.2c-0.2,2.7-0.3,3.6-0.4,4.4c0,0.4-0.1,0.9-0.1,1.3
					c0-0.5,0-0.9,0.1-1.4c0.1-0.8,0.2-1.7,0.4-4.4C682.3,330.3,682.5,327.3,682.6,325.1z"/>
				<path class="st3" d="M680.2,148c-0.4,0.7-0.6,1.5-0.6,2.3c0,2.4-0.2,5.5,1.1,7.6C674.7,157.8,674.5,148.7,680.2,148z"/>
				<polygon class="st5" points="669.6,173.6 676.8,186.8 676.8,186.9 				"/>
				<path class="st5" d="M673.5,337.5c0,0.1,0,0.2,0,0.3C673.5,337.7,673.5,337.7,673.5,337.5c-0.1-1.4-0.2-2.8-0.3-4.3
					C673.3,334.6,673.4,336.1,673.5,337.5z"/>
				<path class="st5" d="M669.4,113.8c0.6,0.3,1.1,0.5,1.7,0.6C670.5,114.3,670,114.1,669.4,113.8z"/>
				<path class="st5" d="M669.6,225.8L669.6,225.8c-0.1,0-0.2-0.1-0.2-0.1h0.1C669.5,225.8,669.6,225.8,669.6,225.8z"/>
				<path class="st5" d="M661.1,113.7c-0.3,0-0.5,0-0.8-0.1C660.6,113.6,660.9,113.6,661.1,113.7z"/>
				<path class="st5" d="M660,219.2c-0.2-0.1-0.4-0.3-0.6-0.4C659.6,218.9,659.8,219.1,660,219.2z"/>
				<path d="M654,155.1c0.2,0.1,0.4,0.2,0.6,0.4c-0.4,1.3-1.2,2.2-2.3,2.8c-0.4,0.2-0.7,0.3-1.1,0.3c-0.2,0-0.5,0-0.7,0
					c-0.9-0.1-1.8-0.6-2.5-1.3c-0.4-0.4-0.7-0.9-1-1.5c0.1-0.1,0.1-0.3,0.1-0.5c0,0.1,0.1,0.1,0.1,0.1l0,0c0.1,0,0.4-0.3,1.1-0.4
					c0.7-0.2,1.3-0.3,2-0.4c1.2-0.1,2.4,0,3.5,0.4C653.9,155.1,654,155.1,654,155.1z"/>
				<path class="st5" d="M657.1,217.5c-1.2-0.5-2.4-0.9-3.7-1.2c-1-0.3-2-0.6-2.8-0.7c0.8,0.2,1.7,0.4,2.7,0.7
					C654.6,216.6,655.9,217,657.1,217.5z"/>
				<path class="st5" d="M650.4,154.6c1.2-0.1,2.5,0,3.5,0.4C652.8,154.6,651.6,154.5,650.4,154.6z"/>
				<path class="st5" d="M650.3,278.8c0.1,12.3-0.8,10.7-0.5,13.4C649.4,289.5,650.3,291.1,650.3,278.8z"/>
				<path class="st5" d="M650.7,215.5c-0.3,0-0.5-0.1-0.7-0.1l0,0C650.1,215.4,650.4,215.5,650.7,215.5z"/>
				<path class="st6" d="M650,267.3c0.1,2.6,0.1,4.5,0.2,6c-1.1,0.1-2.2,0.1-3.2,0.2c0,0,0,0,0-0.1l0,0c0.1-1.5,0.1-3.4,0.1-5.8
					C648.1,267.4,649,267.4,650,267.3z"/>
				<path class="st7" d="M649.9,263.8c0.1,1.2,0.1,2.4,0.1,3.4c0,0,0,0,0,0.1c-1,0.1-1.9,0.2-2.9,0.3c0.1-1.6,0.2-3.3,0.3-5.4
					c0.1-0.4,0.1-0.8,0.1-1.2c0.5,0,1.1,0,1.6-0.1c0.2,0,0.4,0,0.5,0C649.8,261.8,649.8,262.8,649.9,263.8z"/>
				<path class="st5" d="M649.9,293.1c0-0.2-0.1-0.4-0.1-0.6C649.8,292.7,649.8,292.9,649.9,293.1z"/>
				<path class="st4" d="M649.7,260.2L649.7,260.2c0,0.2,0,0.4,0,0.7c-0.2,0-0.3,0-0.5,0c-0.5,0-1.1,0-1.6,0.1
					c0-0.2,0.1-0.5,0.1-0.7C648.3,260.3,649,260.2,649.7,260.2z"/>
				<path class="st4" d="M649.7,259.3c0,0.3,0,0.5,0,0.8c-0.7,0-1.4,0.1-2.1,0.1c0-0.2,0-0.4,0.1-0.7c0.2-1.7,0.4-3.3,0.6-4.7
					c0.4,0,0.7,0,1.2,0c0,0.8,0.1,1.7,0.1,2.9l0,0C649.6,258.3,649.7,258.8,649.7,259.3z"/>
				<path class="st4" d="M649.6,257.8c0,0.5,0,1,0.1,1.5C649.7,258.8,649.6,258.3,649.6,257.8z"/>
				<path class="st4" d="M649.5,254.9c0,0.8,0,1.7,0.1,2.9C649.5,256.6,649.5,255.6,649.5,254.9L649.5,254.9z"/>
				<path class="st5" d="M649.5,254.8C649.5,254.8,649.4,254.8,649.5,254.8c-0.2-2.3-0.3-3-0.4-3l0,0
					C649.2,251.8,649.3,252.4,649.5,254.8z"/>
				<path class="st5" d="M649.3,214.5L649.3,214.5c-0.5,0.1-1.3-0.2-2-0.5C648,214.3,648.8,214.5,649.3,214.5z"/>
				<path d="M647.9,157.2c0.7,0.8,1.6,1.2,2.5,1.3C649.5,158.4,648.6,158,647.9,157.2c-0.4-0.4-0.7-0.9-1-1.4v-0.1
					C647.2,156.3,647.6,156.8,647.9,157.2z"/>
				<path class="st4" d="M647.7,259.5c0,0.2,0,0.4-0.1,0.7l0,0C647.6,260,647.7,259.8,647.7,259.5z"/>
				<path class="st5" d="M645.9,301.2c0.5-0.8,1.2-0.9,1.9-1.2C647.1,300.3,646.4,300.5,645.9,301.2c-0.2,0.4-0.3,0.7-0.4,1
					C645.6,301.9,645.7,301.6,645.9,301.2z"/>
				<path class="st4" d="M647.6,260.3c0,0.2-0.1,0.5-0.1,0.7c-0.1,0-0.1,0-0.2,0c-5.6,0.2-11.1,0.4-16.6,0.6
					c-0.2-0.1-0.3-0.3-0.5-0.4s-0.3-0.2-0.5-0.4C635.8,260.7,641.7,260.5,647.6,260.3z"/>
				<path class="st7" d="M647.4,261c0.1,0,0.1,0,0.2,0c-0.1,0.4-0.1,0.8-0.1,1.2c-0.2,2-0.3,3.8-0.3,5.4c-2.8,0.2-5,0.5-6.4,0.6
					c-0.3,0-0.6,0.1-0.8,0.1c-2.3-1.6-4.5-3.2-6.7-4.9c-0.8-0.6-1.6-1.2-2.4-1.8C636.4,261.5,641.9,261.2,647.4,261z"/>
				<path class="st5" d="M647.1,155c0,0.1,0,0.2,0,0.3c0,0.2-0.1,0.3-0.1,0.5c0,0,0,0,0,0.1v-0.1C647,155.5,647.1,155.3,647.1,155z"
					/>
				<path class="st6" d="M647.1,267.5c-0.1,2.4-0.1,4.3-0.1,5.8l0,0c-2.4,0.1-4.7,0.2-7.1,0.4c0-1.8,0-3.6,0-5.4
					c0.2,0,0.5-0.1,0.8-0.1C642.1,268,644.4,267.8,647.1,267.5z"/>
				<path class="st5" d="M647,273.3C647,273.4,647,273.4,647,273.3C647,273.4,646.9,273.4,647,273.3c-2.4,0.2-4.8,0.3-7.1,0.4
					c0,0,0,0,0-0.1C642.2,273.6,644.6,273.5,647,273.3z"/>
				<path class="st5" d="M646.9,273.4C646.9,273.4,647,273.4,646.9,273.4c0,3.1-0.2,4.9-1.5,7.2c-0.1,0.2-0.3,0.5-0.7,1
					c0.3-0.4,0.5-0.8,0.6-0.9C646.7,278.4,646.8,276.5,646.9,273.4z"/>
				<path class="st3" d="M639.9,273.8c2.3-0.1,4.7-0.2,7-0.4c-0.1,3.1-0.3,5-1.6,7.2c-0.1,0.1-0.3,0.5-0.6,0.9
					c-0.1,0.1-0.2,0.3-0.3,0.4s-0.2,0.2-0.3,0.4c-0.1,0.1-0.1,0.1-0.2,0.2c-0.1,0.1-0.1,0.2-0.2,0.2c-0.1,0.1-0.2,0.2-0.3,0.3
					c-1.4,1.4-3.5,3-6.3,3.5c-4.4,0.8-9.4-1.3-11.4-4.8c-0.7-1.3-0.3-1.5-1.9-5.6c-1.4-3.6-1.9-3.8-1.9-5.2
					c-0.1-2.9,2.2-3.5,2.2-6.3c0-2.5-1.7-2.8-1.8-5.2c-0.1-0.9,0.1-1.6,0.4-2.2l0,0l0,0c0.3,1.3,0.6,2.6,0.9,3.9c0,0,0,0-0.1,0
					C629.1,265.3,634.4,269.6,639.9,273.8c-0.1,0-0.1-0.1-0.1-0.1C639.8,273.7,639.8,273.7,639.9,273.8
					C639.9,273.7,639.9,273.7,639.9,273.8z"/>
				<path class="st5" d="M646.4,213.6c-0.1-0.1-0.2-0.1-0.3-0.2c-0.2-0.1-0.3-0.3-0.5-0.4c0.1,0.1,0.3,0.2,0.4,0.3
					C646.2,213.4,646.3,213.5,646.4,213.6z"/>
				<path class="st5" d="M646.2,324.5c0.2,3.2-1.4,6.9-2.4,15c-0.2,1.3-0.3,2.5-0.4,3.6c0.1-1.1,0.2-2.4,0.4-3.7
					C644.7,331.4,646.3,327.7,646.2,324.5z"/>
				<path class="st5" d="M645.8,305.4c0,0.4,0,0.8-0.1,1.3c-0.7,3.1-3.4,4.3-3.4,5.3c-0.1-1,2.7-2.3,3.4-5.5
					C645.8,306.2,645.8,305.8,645.8,305.4z"/>
				<path class="st5" d="M645,212.3c-0.3-0.4-0.5-0.7-0.9-0.8c-1.7-0.8-4.7,1.6-6.7,4.3c-4.5,5.9-2.3,9.6-6.8,18.1
					c-2,3.8-3.1,4.2-3.8,7.2c-1.1,4.7,1,6.3-0.3,10.3c-0.6,1.8-1.5,3-2.3,4h-0.1c0,0,0,0-0.1,0c0.9-1,1.9-2.1,2.4-4.1
					c1.3-4.1-0.8-5.6,0.3-10.3c0.7-3.1,1.7-3.4,3.8-7.2c4.5-8.5,2.2-12.2,6.8-18.1c2-2.6,5-5.1,6.7-4.3
					C644.5,211.6,644.7,211.9,645,212.3z"/>
				<path class="st5" d="M644.4,281.9c-0.1,0.1-0.2,0.2-0.3,0.4C644.2,282.2,644.3,282,644.4,281.9z"/>
				<path class="st5" d="M643.7,118.5c0.5,0,1.1-0.1,1.6-0.1C644.8,118.4,644.2,118.5,643.7,118.5z"/>
				<path class="st5" d="M643.3,344.3c0-0.3,0-0.5,0.1-0.8C643.4,343.7,643.4,344,643.3,344.3z"/>
				<path class="st7" d="M647.1,267.5c-2.7,0.3-5,0.5-6.4,0.6C642.1,268,644.3,267.8,647.1,267.5z"/>
				<path class="st5" d="M641.9,355.9c0.5-0.8,0.8-1.4,1-2.1c-0.2,0.7-0.5,1.4-1,2.2c-2.5,3.7-6.2,4.9-6,8c0,0,0,0,0-0.1
					C635.7,360.9,639.4,359.7,641.9,355.9z"/>
				<path class="st5" d="M639.8,273.6v0.1c-5.4-4.2-10.8-8.4-16.1-12.6c0,0,0,0,0.1,0s0,0,0.1,0
					C629.2,265.3,634.5,269.5,639.8,273.6z"/>
				<path class="st5" d="M636,130.9c-1.7-0.1-4.3,0.8-5.2,0.4C631.8,131.6,634.4,130.8,636,130.9z"/>
				<path class="st4" d="M647.4,261c-5.5,0.2-11,0.5-16.6,0.6C636.3,261.4,641.8,261.2,647.4,261z"/>
				<path class="st5" d="M631.4,185L631.4,185c-1.5,0.4-2.1,17.9-4.1,17.9l0,0C629.3,202.8,629.9,185,631.4,185z"/>
				<path class="st6" d="M629.8,260.9L629.8,260.9c-2.1,0.1-4,0.2-6,0.2c0,0,0,0-0.1-0.1c-0.3-1.3-0.6-2.5-0.9-3.9
					c0.2-0.3,0.4-0.6,0.6-0.9C625.5,257.8,627.7,259.3,629.8,260.9L629.8,260.9z"/>
				<path class="st5" d="M619.8,164.9c1.2-0.1,7.3-7.8,8.4-7.7C626.9,157.3,620.9,165,619.8,164.9z"/>
				<path class="st5" d="M623.7,261.1C623.8,261.1,623.8,261.1,623.7,261.1C623.8,261.1,623.8,261.1,623.7,261.1
					c-0.3-1.3-0.6-2.6-0.9-3.8l0,0C623.2,258.5,623.5,259.8,623.7,261.1z"/>
				<path class="st6" d="M623.2,256.1c0.1,0.1,0.2,0.1,0.3,0.2c-0.3,0.3-0.5,0.7-0.6,1c-0.2-0.6-0.3-1.1-0.4-1.7
					C622.6,255.6,622.9,255.9,623.2,256.1z"/>
				<path class="st5" d="M622.4,176.2c0.3,0.8,0.6,1.6,0.8,2.5C622.9,177.8,622.6,176.9,622.4,176.2z"/>
				<path class="st6" d="M622.4,255.5c0.3,0.2,0.5,0.4,0.8,0.6C622.9,255.9,622.6,255.6,622.4,255.5z"/>
			</g>
			<g>
				<path class="st8" d="M648.3,254.9c0.2-1.7,0.5-2.9,0.7-3.1l0,0l0,0c0.1,0,0.3,0.6,0.4,3"/>
				<path class="st8" d="M622.8,257.2c-0.3,0.6-0.5,1.3-0.5,2.2c0.1,2.4,1.9,2.7,1.9,5.2c0,2.9-2.2,3.5-2.2,6.4
					c0,1.4,0.5,1.6,1.9,5.2c1.5,4.1,1.2,4.3,1.9,5.6c1.9,3.5,6.9,5.6,11.4,4.8c2.8-0.5,5-2.1,6.3-3.6c0.1-0.1,0.2-0.2,0.3-0.3
					c0.1-0.1,0.2-0.2,0.2-0.2c0.1-0.1,0.1-0.1,0.2-0.2c0.1-0.1,0.2-0.3,0.3-0.4s0.2-0.3,0.3-0.4c0.3-0.4,0.5-0.8,0.6-0.9
					c1.3-2.3,1.5-4.2,1.6-7.2"/>
				<path class="st8" d="M622.4,176.2c0.3,0.8,0.6,1.6,0.8,2.5l0,0c0.1,0.3,0.2,0.6,0.3,0.9c1.6,6.2-0.3,7.3,1.3,15.9
					c0.5,2.5,1.4,7.3,2.4,7.3l0,0c2-0.2,2.6-17.9,4.1-17.9l0,0c0.6,0,0.9,2.3,1.8,7.5c2.8,15.4,3.5,16.7,4,16.7l0,0
					c1.5-0.1,3.5-9.5,3.5-9.5v0.1c8.2,10.6,9.7,14,9,14.6c-0.1,0.1-0.2,0.1-0.4,0.2h-0.1c0,0,0,0-0.1,0l0,0c-0.5,0-1.3-0.2-2-0.6
					c-0.1,0-0.3-0.1-0.4-0.2c-0.1-0.1-0.2-0.1-0.3-0.2c-0.1,0-0.1-0.1-0.2-0.1c-0.1-0.1-0.2-0.1-0.3-0.2c-0.2-0.1-0.3-0.3-0.5-0.4
					c-0.3-0.2-0.4-0.4-0.6-0.6c-0.3-0.4-0.5-0.7-0.9-0.8c-1.7-0.8-4.7,1.6-6.7,4.3c-4.5,5.9-2.3,9.6-6.8,18.1
					c-2,3.8-3.1,4.2-3.8,7.2c-1.1,4.7,1,6.3-0.3,10.3c-0.6,1.8-1.5,3-2.3,4l-0.1,0.1"/>
				<path class="st8" d="M660.2,106.3c0.6,0.6,1.5,1.4,2.4,2.4c1.5,1.6,2.8,3.4,2.4,4.4c-0.2,0.4-0.6,0.6-1.2,0.7
					c-0.6,0.1-1.5,0-2.6-0.1c-0.3,0-0.5,0-0.8-0.1c-1.7-0.1-3.8-0.3-6.2-0.1c-0.9,0.1-1.8,0.2-2.8,0.3c-0.4,0.1-0.7,0.1-1,0.2h-0.1
					c-3.8,0.8-7.1,2.1-8.7,3.1c0,0,0,0-0.1,0c-0.2,0.1-0.4,0.3-0.5,0.4c-0.4,0.3-0.6,0.5-0.5,0.7c0,0.2,0.3,0.3,0.8,0.3
					c0.6,0.1,1.5,0,2.5-0.1c0.5,0,1.1-0.1,1.6-0.1c1-0.1,2-0.1,2.7-0.1c0.6,0,1,0.2,1,0.4c0.2,0.7-3.2,1.8-8.3,4.7
					c-4.5,2.6-10.6,6.5-10.2,7.7c0,0.1,0.1,0.2,0.3,0.2c0.9,0.3,3.5-0.6,5.2-0.4c0.1,0,0.1,0,0.2,0c0.5,0.1,0.9,0.3,1.1,0.6
					c0,0,0.9,1.6-10,14.6c-0.5,1.7-1.3,4.1-2.4,7.1c-2.9,7.1-5.8,11.2-5.3,11.7h0.1c1.2-0.1,7.3-7.8,8.4-7.7h0.1
					c0.6,0.5-1.3,5-4.2,8.8c-1.7,2.1-2.2,2.1-2.8,3.5c-0.8,2.2-0.1,4,0.9,6.6"/>
				<path class="st8" d="M660.1,106.3c-0.5-0.5-0.8-0.8-0.8-0.8C659.3,105.6,659.6,105.9,660.1,106.3z"/>
				<path class="st8" d="M660.2,106.3C660.2,106.3,660.1,106.3,660.2,106.3"/>
				<path class="st8" d="M730.3,253.1c-0.2-0.7-0.4-1.3-0.6-2.1c-4.8-16.9-4.3-17.1-6-20c-2.8-4.7-5.3-6.3-6.3-10.8
					c-0.2-1.1-0.5-2.7-1.6-4c-0.1-0.2-0.3-0.3-0.4-0.5c-0.1-0.1-0.2-0.2-0.3-0.3c-1.4-1.1-2.9-1.1-3.5-1.7l-0.1-0.1
					c-0.1-0.1-0.2-0.2-0.2-0.4l0,0c-0.1-0.4,0.1-0.8,0.4-1.2c0.3-0.3,0.6-0.7,1-1.1c0.3-0.3,0.5-0.6,0.8-0.9c3.5-4,4.3-9.6,4.6-12
					c0.5-3.3,0.1-5.3,0.9-5.5c0.1,0,0.1,0,0.2,0c1.4,0.1,3.1,5.6,5.2,5.4l0,0c2.4-0.2,4.5-7.4,4.3-14.1c-0.2-6.3-2.5-11.2-1.7-11.6
					c0,0,0.1,0,0.2,0h0.1c0.8,0.4,2.4,3.3,3.4,3.2h0.1c1.2-0.5,1.1-6.6-1.2-12c-1.3-3.1-2-2.8-5.2-8.8c-1-1.7-4.4-8-3.4-8.8
					c0.1-0.1,0.2-0.1,0.3-0.1c0.4,0,1,0.5,1.4,0.5c0.1,0,0.2,0,0.3-0.1c0.9-0.7-0.3-4.5-1.6-7.1c-1.7-3.6-4.1-6.3-4.5-6.8
					c-1.9-2.2-3.7-3.5-3.4-4c0-0.1,0.2-0.1,0.3-0.1s0.2,0,0.3,0c0.5,0.1,1.3,0.3,1.9,0.4c0.1,0,0.3,0,0.4,0c0.2,0,0.3-0.1,0.4-0.2
					c0.6-0.9-2.1-4.2-4.5-6.4c-3.1-2.9-6.2-4.5-7.6-5.2c-5.3-2.6-9.7-3.1-9.7-3.5c0-0.1,0.2-0.1,0.5-0.1c0.5,0,1.2,0,2.4,0
					c3.5,0.1,5.7,0.1,6.5,0.1c0.2,0,0.3,0,0.3-0.1c0-0.3-2.5-1.6-6.2-2.3c-0.1,0-0.1,0-0.2,0c-0.6-0.1-1.2-0.2-1.9-0.2h-0.1
					c-0.1,0-0.3,0-0.4,0c-1-0.1-2-0.1-3.1,0c-0.6,0-1.1,0.1-1.7,0.2c-3.5,0.5-6.5,1.8-7.7,1.9c-0.1,0-0.1,0-0.1,0
					c-0.2,0-0.4-0.1-0.4-0.2c-0.5-0.9,3.2-3.4,2.6-4.8c-0.2-0.5-1-0.8-2-0.9c-0.3,0-0.5,0-0.8,0c-1,0.1-2.2,0.3-3.3,0.9
					c-3.7,1.9-3.2,5.6-5.6,6.8c-0.6,0.3-1.3,0.4-2.1,0.3c-0.2,0-0.4-0.1-0.6-0.1c0,0-0.1,0-0.2,0c-0.5-0.1-1.1-0.3-1.7-0.6
					c-2.2-1-4.5-2.9-6.4-4.6c-0.1-0.1-0.3-0.3-0.4-0.4c-1-0.9-1.8-1.8-2.4-2.4"/>
				<path class="st8" d="M709.4,270.4L709.4,270.4c0.1,0.6,0.3,1.3,0.4,1.9c1.7,8.2,2.8,11.6,5.5,12.7c2.6,1.1,5.4-0.2,9.2-1.9
					c2.2-1,4-1.9,5.3-2.8c0.4-0.3,0.8-0.6,1.2-1c0.5-0.5,1-1.1,1.4-1.8c1.4-2.3,1.7-4.9,1.3-8.2l0,0l0,0"/>
				<path class="st8" d="M705.7,251.1v0.1c0,0.1,0,0.2,0.1,0.3c0,0.2,0.1,0.5,0.2,0.8c0.1,0.3,0.1,0.7,0.2,1.2v0.1"/>
				<path class="st8" d="M705.7,250.9c0,0,0,0.1,0,0.2c0,0,0,0,0,0.1"/>
				<path class="st8" d="M705.6,250.8C705.7,250.8,705.7,250.8,705.6,250.8"/>
				<path class="st8" d="M706.1,253.6c-0.2-1.2-0.3-2-0.4-2.5l0,0c0-0.1,0-0.1,0-0.2c0,0,0,0,0-0.1l0,0c0,0,0,0,0-0.1l0,0
					c0-0.1,0-0.1,0-0.1"/>
				<path class="st8" d="M650.2,273.2C650.2,273.2,650.2,273.3,650.2,273.2c0,0.9,0.1,1.6,0.1,2.2c0,0.3,0,0.5,0,0.7
					c0,0.5,0,0.9,0,1.4c0,0.4,0,0.9,0,1.3c0.1,12.3-0.8,10.7-0.5,13.4c0,0.1,0,0.2,0,0.3c0,0.2,0,0.4,0.1,0.6c0.1,1,0.4,2.6,0.1,4
					c-0.1,0.7-0.4,1.4-0.9,2c-0.4,0.5-0.9,0.7-1.3,0.9c-0.7,0.3-1.4,0.5-1.9,1.3c-0.2,0.3-0.3,0.6-0.4,0.9c-0.1,0.9,0.2,1.7,0.3,2.9
					c0,0.1,0,0.2,0,0.3c0,0.4,0,0.8-0.1,1.3c-0.7,3.1-3.4,4.3-3.4,5.3c0,0.1,0,0.2,0,0.3c0.5,1.2,4.7,0,4.9,0.8
					c0.2,0.6-2.5,1.3-3.2,3.4c-0.1,0.3-0.1,0.5-0.2,0.8c0,0.1,0,0.3,0,0.4c0.1,1.5,0.9,2.9,1.5,3.8c0.5,0.9,0.7,1.8,0.8,2.7
					c0,0.1,0,0.2,0,0.3c0.2,3.2-1.4,6.9-2.4,15c-0.2,1.3-0.3,2.5-0.4,3.6c0,0.1,0,0.2,0,0.3c0,0.3,0,0.5-0.1,0.8
					c0,0.9-0.1,1.6-0.1,2.3c-0.1,3.2,0.1,5-0.2,6.6l0,0c0,0.2-0.1,0.4-0.1,0.5c0,0,0,0,0,0.1c-0.2,0.7-0.5,1.4-1,2.2
					c-2.5,3.7-6.2,4.9-6,8l0,0c0,0.1,0,0.2,0,0.2c0.2,1.8,1.7,3,2.6,3.8c3.2,2.7,7,2.8,10.6,2.8c11.6-0.1,17.3-0.2,20.4-3.6
					c2-2.4,2.6-5.5,3.4-11.6c1.3-8.8,0.8-15.8,0.7-17.7c0-0.1,0-0.1,0-0.2s0-0.1,0-0.2c-0.1-1.5-0.2-2.9-0.3-4.4
					c-0.2-4.5-0.1-9.1,0.2-13.4c0-0.3,0-0.5,0-0.7s0-0.4,0-0.6c0.8-10.7,2.6-19.2,4.2-19.3c2.2-0.1,4.6,16.3,4.9,23.7
					c0,0.9,0,1.6,0,2.2v0.1c-0.1,2.2-0.4,5.2-0.4,5.2c-0.2,2.7-0.3,3.6-0.4,4.4c0,0.4-0.1,0.9-0.1,1.3c0,1,0,2,0,2.9
					c0.2,4.1,1,7.4,1.2,8.3c0.9,3.5,1.7,4.9,1.6,6.9l0,0c0,0.2,0,0.5-0.1,0.7c-0.1,0.5-0.4,1.8-0.8,4c-0.3,1.7-0.4,2.6-0.4,3.1l0,0
					v0.1c0.4,1.7,1.7,1.9,3.4,4.4c1,1.5,0.8,1.8,1.5,2.5c1.8,2.1,5.5,1.7,7.2,1.5c16.8-2.2,19.7-1.5,21.5-4.8c0.6-1.2,1-2.6,1.1-4
					c0-0.4,0-0.7,0-1.1c0-0.6-0.1-1.2-0.3-1.8c-0.8-2.9-3.1-3.7-4.5-5.6c-1.1-1.5-1.6-3.3-1.7-5.2c0-0.4,0-0.9,0-1.3
					c0.1-3.2,1.1-6.6,1.7-9.5c0.6-2.8,0.9-5.6,1-8.4c0.1-1.5,0.1-3,0-4.4c0-0.6,0-1.2-0.1-1.8c-0.5-8.6-2.6-16.6-4.7-23.4
					c-0.4-1.3-1-3-1.5-5.1l0,0c-0.2-0.9-0.5-1.8-0.7-2.8c0-0.2-0.1-0.4-0.1-0.6c-0.5-2.5-0.9-5.3-1-8.4c0-0.8,0-1.5,0-2.3
					c0-0.6,0-1.1,0-1.5c0.2-2.4,0.5-3.3,0.7-7.3v-0.1c0-0.1,0-0.3,0-0.4"/>
				<path class="st8" d="M649.9,215.4c0.9,0.2,2.1,0.4,3.5,0.8c1.9,0.6,4,1.2,5.7,2.3c0.1,0.1,0.2,0.2,0.4,0.2
					c0.2,0.2,0.4,0.3,0.6,0.4c0.3,0.3,0.6,0.5,0.8,0.8c1.7,1.7,2.4,3.5,3.2,4.4c0.1,0.1,0.1,0.1,0.2,0.2c0.2,0.2,0.4,0.3,0.6,0.3
					h0.1h0.1l0,0c1.6-0.3,2.3-3.8,3.1-3.6l0,0c0,0,0,0,0.1,0c0,0,0,0,0.1,0l0,0c0.6,0.5,0.3,3.6,0.9,4.4l0,0c0,0.1,0.1,0.1,0.2,0.1
					l0,0l0,0c1.1-0.1,2.5-5.1,4.3-5.3l0,0l0,0c0.2,0,0.4,0.1,0.6,0.2c0.1,0.1,0.1,0.1,0.2,0.2l0.1,0.1c1.4,1.6,2,6.7,3.7,8.1
					c0,0.1,0.1,0.1,0.1,0.1c0.2,0.2,0.5,0.3,0.7,0.3l0,0l0,0l0,0c2.8-0.1,5.6-9.4,7.4-9.3c0,0,0,0,0.1,0s0.1,0,0.2,0.1
					c1,0.8,0,5.6,1.3,7c0,0.1,0.1,0.1,0.1,0.1c0.1,0.1,0.2,0.1,0.3,0.1s0.2,0.1,0.3,0.1h0.1c2.5,0,6.8-8.5,15.9-12.6
					c2.5-1.1,4.6-1.6,6-1.8l0,0"/>
				<path class="st8" d="M659.7,146c-1.3,0.4-4,0.9-7.2,0c-5.3-1.6-7.8-6.2-8.3-7.2"/>
				<path class="st8" d="M687.2,140.8c1.4,0.6,5.8,2.1,11,0.4c3.4-1.1,5.7-3.2,6.8-4.4"/>
				<line class="st8" x1="679.9" y1="173.3" x2="683.9" y2="173.2"/>
				<line class="st8" x1="669.6" y1="173.6" x2="679.7" y2="173.3"/>
				<line class="st8" x1="676.8" y1="186.9" x2="669.6" y2="173.6"/>
				<polyline class="st8" points="686.4,173.6 686.3,173.7 676.8,186.8 676.8,186.9 				"/>
				<line class="st8" x1="676.8" y1="186.9" x2="676.8" y2="206.9"/>
				<path class="st8" d="M700,196.5c-1.6,2-4.9,5.6-10.2,8c-5.6,2.6-10.5,2.6-13,2.4"/>
				<path class="st8" d="M654.7,194.5c0.6,1.6,3.3,7.5,9.8,10.8c5.4,2.8,10.5,2,12.2,1.6"/>
				<path class="st8" d="M667.9,172.8c0.1,0,11.7,0.5,11.8,0.5h0.1h0.1c1.5,0.1,4.6,0.2,5.9,0.3c0.4,0,0.6,0,0.6,0"/>
			</g>
		</g>
	</g>
</g>
<g>
	<path d="M37,26.4h11.6c0.4,0,0.7,0.1,1,0.4c0.3,0.3,0.4,0.6,0.4,1s-0.1,0.8-0.4,1c-0.3,0.3-0.6,0.4-1,0.4h-4.4v17h4.4
		c0.4,0,0.8,0.1,1,0.4c0.3,0.3,0.4,0.6,0.4,1s-0.1,0.8-0.4,1c-0.3,0.3-0.6,0.4-1,0.4H37c-0.4,0-0.8-0.1-1-0.4
		c-0.3-0.3-0.4-0.6-0.4-1s0.1-0.8,0.4-1c0.3-0.3,0.6-0.4,1-0.4h4.4v-17H37c-0.4,0-0.8-0.1-1-0.4c-0.3-0.3-0.4-0.6-0.4-1
		s0.1-0.8,0.4-1C36.2,26.5,36.6,26.4,37,26.4z"/>
	<path d="M86.8,39.1v3.4l1.9,3.3l1-3.3l0.3-8.4c0-0.4,0.2-0.7,0.4-1c0.3-0.3,0.6-0.4,1-0.4s0.8,0.1,1,0.4c0.3,0.3,0.4,0.6,0.4,1
		l-0.3,9L91,48.2c-0.2,0.7-0.6,1-1.3,1h-1.5c-0.5,0-1-0.3-1.3-0.8l-1.6-2.8l-1.6,2.7c-0.4,0.6-0.8,0.8-1.3,0.8h-1.5
		c-0.3,0-0.6-0.1-0.9-0.3c-0.3-0.2-0.4-0.4-0.5-0.7l-1.6-5.3l-0.2-8.7c0-0.4,0.1-0.7,0.4-1s0.6-0.4,1-0.4s0.7,0.1,1,0.4
		s0.4,0.6,0.4,1l0.3,8.4l1,3.3l2-3.3v-3.3c0-0.4,0.1-0.8,0.4-1c0.3-0.3,0.6-0.4,1-0.4s0.7,0.1,1,0.4C86.7,38.3,86.8,38.7,86.8,39.1z
		"/>
	<path d="M111,49.2h-8.8c-0.4,0-0.8-0.1-1-0.4c-0.3-0.3-0.4-0.6-0.4-1s0.1-0.7,0.4-1s0.6-0.4,1-0.4h2.9V35.5h-2.9
		c-0.4,0-0.8-0.1-1-0.4c-0.3-0.3-0.4-0.6-0.4-1s0.1-0.8,0.4-1c0.3-0.3,0.6-0.4,1-0.4h4.4c0.4,0,0.8,0.1,1,0.4c0.3,0.3,0.4,0.6,0.4,1
		v12.2h2.9c0.4,0,0.8,0.1,1,0.4c0.3,0.3,0.4,0.6,0.4,1c0,0.4-0.1,0.8-0.4,1C111.8,49,111.4,49.2,111,49.2z M105.1,25.1h1.5
		c0.4,0,0.8,0.1,1,0.4c0.3,0.3,0.4,0.6,0.4,1v1.2c0,0.4-0.1,0.8-0.4,1c-0.3,0.3-0.6,0.4-1,0.4h-1.5c-0.4,0-0.8-0.1-1-0.4
		c-0.3-0.3-0.4-0.6-0.4-1l0.1-1.3c0-0.4,0.1-0.8,0.4-1C104.4,25.2,104.7,25.1,105.1,25.1z"/>
	<path d="M132.2,49.2h-8.7c-0.4,0-0.8-0.1-1-0.4c-0.3-0.3-0.4-0.6-0.4-1s0.1-0.7,0.4-1c0.3-0.3,0.6-0.4,1-0.4h2.9v-17h-2.9
		c-0.4,0-0.8-0.1-1-0.4c-0.3-0.3-0.4-0.6-0.4-1s0.1-0.8,0.4-1c0.3-0.3,0.6-0.4,1-0.4h4.4c0.4,0,0.7,0.1,1,0.4c0.3,0.3,0.4,0.6,0.4,1
		v18.5h2.9c0.4,0,0.7,0.1,1,0.4c0.3,0.3,0.4,0.6,0.4,1s-0.1,0.8-0.4,1C133,49.1,132.7,49.2,132.2,49.2z"/>
	<path d="M153.6,49.2h-8.7c-0.4,0-0.8-0.1-1-0.4s-0.4-0.6-0.4-1s0.1-0.7,0.4-1c0.3-0.3,0.6-0.4,1-0.4h2.9v-17h-2.9
		c-0.4,0-0.8-0.1-1-0.4c-0.3-0.3-0.4-0.6-0.4-1s0.1-0.8,0.4-1c0.3-0.3,0.6-0.4,1-0.4h4.4c0.4,0,0.7,0.1,1,0.4c0.3,0.3,0.4,0.6,0.4,1
		v18.5h2.9c0.4,0,0.7,0.1,1,0.4c0.3,0.3,0.4,0.6,0.4,1s-0.1,0.8-0.4,1C154.3,49.1,153.9,49.2,153.6,49.2z"/>
	<path d="M187.4,27.9v6.8l1.3-1c0.8-0.6,1.7-1,2.5-1h2.6c1,0,1.9,0.3,2.6,1l1.3,1.2c0.4,0.3,0.7,0.8,1,1.4c0.3,0.6,0.4,1.2,0.4,1.8
		v5.8c0,0.5-0.1,1.1-0.3,1.7c-0.3,0.6-0.5,1-0.8,1.3l-1.3,1.2c-0.3,0.3-0.8,0.6-1.3,0.8c-0.6,0.3-1.1,0.4-1.5,0.4h-2.5
		c-1.2,0-2.5-0.6-3.9-2v0.6c0,0.4-0.1,0.8-0.4,1c-0.3,0.3-0.6,0.4-1,0.4s-0.8-0.1-1-0.4c-0.3-0.3-0.4-0.6-0.4-1v-20
		c0-0.4,0.1-0.8,0.4-1c0.3-0.3,0.6-0.4,1-0.4s0.8,0.1,1,0.4C187.2,27.1,187.4,27.4,187.4,27.9z M193.6,35.5h-2
		c-0.5,0-0.8,0.1-1.1,0.3l-2.6,2.2c-0.3,0.3-0.5,0.8-0.5,1.3v3.3c0,0.5,0.2,0.9,0.6,1.2l2.3,2c0.3,0.3,0.7,0.4,1,0.4h2.4
		c0.3,0,0.6-0.1,0.8-0.3l1.2-1c0.3-0.3,0.4-0.6,0.4-1v-6.1c0-0.5-0.1-0.8-0.4-1.1l-1-0.9C194.3,35.7,193.9,35.5,193.6,35.5z"/>
	<path d="M209.9,38.8h5.6c0.3,0,0.8,0.1,1.3,0.2l-0.1-2c0-0.4-0.1-0.8-0.4-1c-0.3-0.3-0.6-0.4-1-0.4h-5.4c-0.4,0-0.7-0.1-1-0.4
		c-0.3-0.3-0.4-0.6-0.4-1s0.1-0.8,0.4-1c0.3-0.3,0.6-0.4,1-0.4h5.5c1.2,0,2.2,0.4,3.1,1.3c0.8,0.8,1.3,1.9,1.3,3.1l0.4,10.8
		c0,0.4-0.1,0.8-0.4,1c-0.3,0.3-0.6,0.4-1,0.4s-0.8-0.1-1-0.4c-0.3-0.3-0.4-0.6-0.4-1l-2.4,1.5h-5.1c-1.2,0-2.2-0.4-3.1-1.3
		c-0.8-0.8-1.3-1.9-1.3-3.1v-1.7c0-1.2,0.4-2.2,1.3-3.1C207.8,39.2,208.8,38.8,209.9,38.8z M217.2,44.4l-0.1-1.2
		c0-0.4-0.1-0.8-0.4-1c-0.3-0.3-0.6-0.4-1-0.4h-5.8c-0.4,0-0.8,0.1-1,0.4c-0.3,0.3-0.4,0.6-0.4,1v1.6c0,0.4,0.1,0.7,0.4,1
		c0.3,0.3,0.6,0.4,1,0.4h4.1L217.2,44.4z"/>
	<path d="M226.9,47.8V27.9c0-0.4,0.1-0.8,0.4-1c0.3-0.3,0.6-0.4,1-0.4s0.8,0.1,1,0.4c0.3,0.3,0.4,0.6,0.4,1v11.8l7.7-6.6
		c0.3-0.3,0.7-0.4,1.1-0.4c0.4,0,0.8,0.1,1,0.4s0.4,0.6,0.4,1s-0.1,0.8-0.4,1l-6.1,5.1l7.5,6.5c0.3,0.3,0.4,0.6,0.4,1
		c0,0.4-0.1,0.7-0.4,1s-0.6,0.4-1,0.4s-0.8-0.1-1.1-0.4l-7.7-6.7l-1.5,1.3v4.4c0,0.4-0.1,0.8-0.4,1c-0.3,0.3-0.6,0.4-1,0.4
		s-0.8-0.1-1-0.4C227.1,48.5,226.9,48.2,226.9,47.8z"/>
	<path d="M262.7,38.1v3.5c0,0.4-0.1,0.7-0.4,1s-0.6,0.4-1,0.4h-10.2v0.8c0,0.5,0.2,0.9,0.6,1.3l0.8,0.7c0.4,0.4,0.9,0.5,1.3,0.5h7.4
		c0.4,0,0.7,0.1,1,0.4c0.3,0.3,0.4,0.6,0.4,1c0,0.4-0.1,0.7-0.4,1s-0.6,0.4-1,0.4h-7.6c-0.5,0-1-0.1-1.6-0.3s-1-0.4-1.2-0.6
		l-1.3-1.2c-0.4-0.3-0.8-0.8-1-1.3c-0.3-0.6-0.4-1.1-0.4-1.6v-6.7c0-0.4,0.1-0.9,0.4-1.5s0.6-1.2,1.1-1.5l1.2-1c0.8-0.6,1.7-1,2.6-1
		h4c1,0,2,0.4,2.9,1.3l1.1,1C262.4,35.7,262.7,36.7,262.7,38.1z M251.1,37.8V40h8.8v-2c0-0.5-0.2-1-0.5-1.2l-0.8-0.8
		c-0.4-0.4-0.8-0.5-1.2-0.5h-3.6c-0.4,0-0.8,0.1-1.2,0.4l-0.8,0.7C251.3,37,251.1,37.4,251.1,37.8z"/>
	<path d="M305.3,36.9l-7.8,17.6c-0.3,0.6-0.7,1-1.3,1h-4c-0.4,0-0.8-0.1-1-0.4c-0.3-0.3-0.4-0.6-0.4-1s0.1-0.8,0.4-1
		c0.3-0.3,0.6-0.4,1-0.4h3.1l2-4.6h-0.7c-0.6,0-1.2-0.3-1.4-1l-4.4-10v-2.9c0-0.4,0.1-0.8,0.4-1c0.3-0.3,0.6-0.4,1-0.4
		s0.8,0.1,1,0.4c0.3,0.3,0.4,0.6,0.4,1v2.2l3.8,8.8h1l3.9-8.8v-2.2c0-0.4,0.1-0.7,0.4-1s0.6-0.4,1-0.4s0.7,0.1,1,0.4
		c0.3,0.3,0.4,0.6,0.4,1L305.3,36.9L305.3,36.9z"/>
	<path d="M326.5,37.8v6.1c0,1.3-0.6,2.5-1.9,3.6c-1.3,1.1-2.5,1.7-3.8,1.7h-3.4c-1.3,0-2.6-0.6-3.8-1.7c-1.2-1.1-1.8-2.3-1.8-3.6
		v-6.1c0-1.3,0.6-2.4,1.8-3.6c1.2-1.1,2.4-1.7,3.8-1.7h3.4c1.3,0,2.6,0.5,3.8,1.6C325.9,35.3,326.5,36.6,326.5,37.8z M314.8,38v5.8
		c0,0.5,0.2,1,0.6,1.3l1.1,1c0.3,0.2,0.6,0.3,1,0.3h3.3c0.5,0,1-0.2,1.3-0.5l0.9-0.8c0.4-0.3,0.5-0.6,0.5-1.2v-5.8
		c0-0.6-0.2-1-0.5-1.3l-1-0.8c-0.3-0.3-0.8-0.4-1.2-0.4h-3c-0.6,0-1.2,0.1-1.5,0.4l-1,0.8C315,37.1,314.8,37.5,314.8,38z"/>
	<path d="M340.1,46.3l4.9-3.1V34c0-0.4,0.1-0.8,0.4-1c0.3-0.3,0.6-0.4,1-0.4s0.8,0.1,1,0.4c0.3,0.3,0.4,0.6,0.4,1v13.7
		c0,0.4-0.1,0.7-0.4,1s-0.6,0.4-1,0.4s-0.7-0.1-1-0.4s-0.4-0.6-0.4-1v-1.2l-2.5,1.7c-1,0.6-2,1-3,1h-1.3c-1.2,0-2.2-0.4-3-1.2
		c-0.8-0.8-1.3-1.9-1.3-3l-0.4-10.9c0-0.4,0.1-0.7,0.4-1s0.6-0.4,1-0.4s0.7,0.1,1,0.4c0.3,0.3,0.4,0.6,0.4,1l0.4,10.7
		c0.1,1,0.6,1.5,1.8,1.5H340.1L340.1,46.3z"/>
	<path d="M354.5,47.8V34.1c0-0.4,0.1-0.8,0.4-1c0.3-0.3,0.6-0.4,1-0.4s0.8,0.1,1,0.4c0.3,0.3,0.4,0.6,0.4,1v1.8l2.4-2
		c1-0.8,1.9-1.2,2.9-1.2h2.1c1.2,0,2.2,0.4,3.1,1.3c0.8,0.8,1.3,1.9,1.3,3.1v0.8c0,0.4-0.1,0.8-0.4,1c-0.3,0.3-0.6,0.4-1,0.4
		s-0.8-0.1-1-0.4c-0.3-0.3-0.4-0.6-0.4-1v-0.8c0-0.4-0.1-0.8-0.4-1c-0.3-0.3-0.6-0.4-1-0.4h-2c-0.4,0-0.8,0.2-1.3,0.6l-4.1,3.6V48
		c0,0.4-0.1,0.8-0.4,1c-0.3,0.3-0.6,0.4-1,0.4s-0.8-0.1-1-0.4C354.6,48.5,354.5,48.2,354.5,47.8z"/>
	<path d="M401,32.7h6.7c1,0,1.9,0.3,2.8,0.9c0.8,0.6,1.2,1.2,1.2,1.8c0,0.4-0.1,0.8-0.4,1c-0.3,0.3-0.6,0.4-1,0.4s-0.9-0.2-1.3-0.6
		s-0.8-0.6-1.2-0.6h-6.5c-0.6,0-1,0.3-1,0.8c0,0.4,0.2,0.6,0.6,0.8l7.7,3.4c0.8,0.3,1.4,0.9,1.9,1.7s0.8,1.6,0.8,2.6
		c0,1.2-0.4,2.3-1.3,3.1s-1.9,1.3-3,1.3h-5.8c-1,0-1.9-0.3-2.8-0.9s-1.3-1.2-1.3-1.8c0-0.4,0.1-0.7,0.4-1s0.6-0.4,1.1-0.4
		c0.4,0,0.8,0.2,1.2,0.6c0.4,0.4,1,0.6,1.8,0.6h5.4c0.4,0,0.8-0.2,1.1-0.5c0.3-0.3,0.4-0.7,0.4-1.2c0-0.6-0.3-1.2-1-1.4l-7.8-3.4
		c-0.8-0.3-1.3-0.8-1.7-1.5c-0.4-0.6-0.6-1.3-0.6-1.9c0-1,0.4-1.9,1.1-2.7C399.1,33,400,32.7,401,32.7z"/>
	<path d="M432.8,37.8v6.1c0,1.3-0.6,2.5-1.9,3.6c-1.3,1.1-2.5,1.7-3.8,1.7h-3.4c-1.3,0-2.6-0.6-3.8-1.7c-1.2-1.1-1.8-2.3-1.8-3.6
		v-6.1c0-1.3,0.6-2.4,1.8-3.6c1.2-1.1,2.4-1.7,3.8-1.7h3.4c1.3,0,2.6,0.5,3.8,1.6C432.2,35.3,432.8,36.6,432.8,37.8z M421.1,38v5.8
		c0,0.5,0.2,1,0.6,1.3l1.1,1c0.3,0.2,0.6,0.3,1,0.3h3.3c0.5,0,1-0.2,1.3-0.5l0.9-0.8c0.4-0.3,0.5-0.6,0.5-1.2v-5.8
		c0-0.6-0.2-1-0.5-1.3l-1-0.8c-0.3-0.3-0.8-0.4-1.2-0.4h-3c-0.6,0-1.2,0.1-1.5,0.4l-1,0.8C421.3,37.1,421.1,37.5,421.1,38z"/>
	<path d="M446.4,46.3l4.9-3.1V34c0-0.4,0.1-0.8,0.4-1c0.3-0.3,0.6-0.4,1-0.4s0.8,0.1,1,0.4c0.3,0.3,0.4,0.6,0.4,1v13.7
		c0,0.4-0.1,0.7-0.4,1s-0.6,0.4-1,0.4s-0.7-0.1-1-0.4s-0.4-0.6-0.4-1v-1.2l-2.5,1.7c-1,0.6-2,1-3,1h-1.3c-1.2,0-2.2-0.4-3-1.2
		c-0.8-0.8-1.3-1.9-1.3-3l-0.4-10.9c0-0.4,0.1-0.7,0.4-1s0.6-0.4,1-0.4s0.7,0.1,1,0.4c0.3,0.3,0.4,0.6,0.4,1l0.4,10.7
		c0.1,1,0.6,1.5,1.8,1.5H446.4L446.4,46.3z"/>
	<path d="M472.5,49.2h-8.7c-0.4,0-0.8-0.1-1-0.4c-0.3-0.3-0.4-0.6-0.4-1s0.1-0.7,0.4-1s0.6-0.4,1-0.4h2.9v-17h-2.9
		c-0.4,0-0.8-0.1-1-0.4c-0.3-0.3-0.4-0.6-0.4-1s0.1-0.8,0.4-1c0.3-0.3,0.6-0.4,1-0.4h4.4c0.4,0,0.7,0.1,1,0.4c0.3,0.3,0.4,0.6,0.4,1
		v18.5h2.9c0.4,0,0.7,0.1,1,0.4c0.3,0.3,0.4,0.6,0.4,1s-0.1,0.8-0.4,1C473.2,49.1,472.9,49.2,472.5,49.2z"/>
	<path d="M515,49.2h-8.8c-0.4,0-0.8-0.1-1-0.4c-0.3-0.3-0.4-0.6-0.4-1s0.1-0.7,0.4-1c0.3-0.3,0.6-0.4,1-0.4h2.9V35.5h-2.9
		c-0.4,0-0.8-0.1-1-0.4c-0.3-0.3-0.4-0.6-0.4-1s0.1-0.8,0.4-1c0.3-0.3,0.6-0.4,1-0.4h4.4c0.4,0,0.8,0.1,1,0.4c0.3,0.3,0.4,0.6,0.4,1
		v12.2h2.9c0.4,0,0.8,0.1,1,0.4c0.3,0.3,0.4,0.6,0.4,1c0,0.4-0.1,0.8-0.4,1C515.7,49,515.4,49.2,515,49.2z M509.1,25.1h1.5
		c0.4,0,0.8,0.1,1,0.4c0.3,0.3,0.4,0.6,0.4,1v1.2c0,0.4-0.1,0.8-0.4,1c-0.3,0.3-0.6,0.4-1,0.4h-1.5c-0.4,0-0.8-0.1-1-0.4
		c-0.3-0.3-0.4-0.6-0.4-1l0.1-1.3c0-0.4,0.1-0.8,0.4-1C508.4,25.2,508.7,25.1,509.1,25.1z"/>
	<path d="M531.4,36l-4,2.6v9.2c0,0.4-0.1,0.7-0.4,1c-0.3,0.3-0.6,0.4-1,0.4s-0.7-0.1-1-0.4s-0.4-0.6-0.4-1V34.1c0-0.4,0.1-0.8,0.4-1
		c0.3-0.3,0.6-0.4,1-0.4s0.7,0.1,1,0.4c0.3,0.3,0.4,0.6,0.4,1v1l2.6-1.6c0.9-0.6,1.9-0.8,3-0.8h1.3c1.2,0,2.1,0.4,3,1.2
		c0.8,0.8,1.3,1.8,1.3,3l0.4,10.9c0,0.4-0.1,0.7-0.4,1c-0.3,0.3-0.6,0.4-1,0.4s-0.7-0.1-1-0.4s-0.4-0.6-0.4-1.1l-0.4-10.8
		c-0.1-1-0.6-1.5-1.6-1.5h-1.4C532.4,35.5,531.9,35.7,531.4,36z"/>
	<path d="M577.2,49.2h-2.9c-1.2,0-2.2-0.4-3.1-1.3c-0.8-0.8-1.3-1.9-1.3-3.1v-9.3h-1.5c-0.4,0-0.8-0.1-1-0.4s-0.4-0.6-0.4-1
		s0.1-0.8,0.4-1c0.3-0.3,0.6-0.4,1-0.4h1.5v-3.5c0-0.4,0.1-0.8,0.4-1c0.3-0.3,0.6-0.4,1-0.4s0.7,0.1,1,0.4c0.3,0.3,0.4,0.6,0.4,1
		v3.5h5.8c0.4,0,0.7,0.1,1,0.4c0.3,0.3,0.4,0.6,0.4,1s-0.1,0.8-0.4,1c-0.3,0.3-0.6,0.4-1,0.4h-5.8v9.3c0,0.4,0.1,0.7,0.4,1
		c0.3,0.3,0.6,0.4,1,0.4h2.8c0.8,0,1.3-0.4,1.5-1.2c0.3-0.8,0.8-1.2,1.5-1.2c0.4,0,0.8,0.1,1,0.4c0.3,0.3,0.4,0.6,0.4,1.1
		c0,0.9-0.4,1.7-1.2,2.6C579.5,48.8,578.5,49.2,577.2,49.2z"/>
	<path d="M588.3,47.8V27.9c0-0.4,0.1-0.7,0.4-1s0.6-0.4,1-0.4s0.8,0.1,1,0.4c0.3,0.3,0.4,0.6,0.4,1v7.3l2.3-1.5c1-0.6,2-1,2.8-1h1.8
		c1.2,0,2.2,0.4,3.1,1.3c0.8,0.8,1.3,1.9,1.3,3.1l0.4,10.8c0,0.4-0.1,0.8-0.4,1c-0.3,0.3-0.6,0.4-1,0.4s-0.8-0.1-1-0.4
		s-0.4-0.6-0.4-1l-0.4-10.8c0-0.4-0.2-0.7-0.4-1c-0.3-0.3-0.6-0.4-1-0.4h-1.7c-0.4,0-0.8,0.1-1.2,0.4l-4.1,2.7V48
		c0,0.4-0.1,0.8-0.4,1c-0.3,0.3-0.6,0.4-1,0.4s-0.8-0.1-1-0.4C588.5,48.5,588.3,48.2,588.3,47.8z"/>
	<path d="M624.2,38.1v3.5c0,0.4-0.1,0.7-0.4,1c-0.3,0.3-0.6,0.4-1,0.4h-10.2v0.8c0,0.5,0.2,0.9,0.6,1.3l0.8,0.7
		c0.4,0.4,0.9,0.5,1.3,0.5h7.6c0.4,0,0.7,0.1,1,0.4c0.3,0.3,0.4,0.6,0.4,1c0,0.4-0.1,0.7-0.4,1c-0.3,0.3-0.6,0.4-1,0.4h-7.6
		c-0.5,0-1-0.1-1.6-0.3c-0.6-0.2-1-0.4-1.2-0.6l-1.3-1.2c-0.4-0.3-0.8-0.8-1-1.3s-0.4-1.1-0.4-1.6v-6.7c0-0.4,0.1-0.9,0.4-1.5
		c0.3-0.6,0.6-1.2,1.1-1.5l1.2-1c0.8-0.6,1.7-1,2.6-1h4c1,0,2,0.4,2.9,1.3l1.1,1C623.8,35.7,624.2,36.7,624.2,38.1z M612.6,37.8V40
		h8.8v-2c0-0.5-0.2-1-0.5-1.2l-0.8-0.8c-0.4-0.4-0.8-0.5-1.2-0.5h-3.6c-0.4,0-0.8,0.1-1.2,0.4l-0.8,0.7
		C612.8,37,612.6,37.4,612.6,37.8z"/>
	<path d="M652.1,47.8V34.1c0-0.4,0.1-0.8,0.4-1c0.3-0.3,0.6-0.4,1-0.4s0.8,0.1,1,0.4c0.3,0.3,0.4,0.6,0.4,1v1.8l2.4-2
		c1-0.8,1.9-1.2,2.9-1.2h2.1c1.2,0,2.2,0.4,3.1,1.3c0.8,0.8,1.3,1.9,1.3,3.1v0.8c0,0.4-0.1,0.8-0.4,1c-0.3,0.3-0.6,0.4-1,0.4
		s-0.8-0.1-1-0.4c-0.3-0.3-0.4-0.6-0.4-1v-0.8c0-0.4-0.1-0.8-0.4-1c-0.3-0.3-0.6-0.4-1-0.4h-1.9c-0.4,0-0.8,0.2-1.3,0.6l-4.1,3.6V48
		c0,0.4-0.1,0.8-0.4,1c-0.3,0.3-0.6,0.4-1,0.4s-0.8-0.1-1-0.4C652.3,48.5,652.1,48.2,652.1,47.8z"/>
	<path d="M680.3,46.3l4.9-3.1V34c0-0.4,0.1-0.8,0.4-1c0.3-0.3,0.6-0.4,1-0.4s0.8,0.1,1,0.4c0.3,0.3,0.4,0.6,0.4,1v13.7
		c0,0.4-0.1,0.7-0.4,1c-0.3,0.3-0.6,0.4-1,0.4s-0.7-0.1-1-0.4s-0.4-0.6-0.4-1v-1.2l-2.5,1.7c-1,0.6-2,1-3,1h-1.3
		c-1.2,0-2.2-0.4-3-1.2c-0.8-0.8-1.3-1.9-1.3-3l-0.4-10.9c0-0.4,0.1-0.7,0.4-1c0.3-0.3,0.6-0.4,1-0.4s0.7,0.1,1,0.4
		c0.3,0.3,0.4,0.6,0.4,1l0.4,10.7c0.1,1,0.6,1.5,1.8,1.5H680.3L680.3,46.3z"/>
	<path d="M706.3,49.2h-8.8c-0.4,0-0.8-0.1-1-0.4c-0.3-0.3-0.4-0.6-0.4-1s0.1-0.7,0.4-1c0.3-0.3,0.6-0.4,1-0.4h2.9V35.5h-2.9
		c-0.4,0-0.8-0.1-1-0.4c-0.3-0.3-0.4-0.6-0.4-1s0.1-0.8,0.4-1c0.3-0.3,0.6-0.4,1-0.4h4.4c0.4,0,0.8,0.1,1,0.4c0.3,0.3,0.4,0.6,0.4,1
		v12.2h2.9c0.4,0,0.8,0.1,1,0.4c0.3,0.3,0.4,0.6,0.4,1c0,0.4-0.1,0.8-0.4,1C707,49,706.7,49.2,706.3,49.2z M700.4,25.1h1.5
		c0.4,0,0.8,0.1,1,0.4c0.3,0.3,0.4,0.6,0.4,1v1.2c0,0.4-0.1,0.8-0.4,1c-0.3,0.3-0.6,0.4-1,0.4h-1.5c-0.4,0-0.8-0.1-1-0.4
		c-0.3-0.3-0.4-0.6-0.4-1l0.1-1.3c0-0.4,0.1-0.8,0.4-1C699.7,25.2,700.1,25.1,700.4,25.1z"/>
	<path d="M722.8,36l-4,2.6v9.2c0,0.4-0.1,0.7-0.4,1c-0.3,0.3-0.6,0.4-1,0.4s-0.7-0.1-1-0.4s-0.4-0.6-0.4-1V34.1c0-0.4,0.1-0.8,0.4-1
		c0.3-0.3,0.6-0.4,1-0.4s0.7,0.1,1,0.4c0.3,0.3,0.4,0.6,0.4,1v1l2.6-1.6c0.9-0.6,1.9-0.8,3-0.8h1.3c1.2,0,2.1,0.4,3,1.2
		c0.8,0.8,1.3,1.8,1.3,3l0.4,10.9c0,0.4-0.1,0.7-0.4,1c-0.3,0.3-0.6,0.4-1,0.4s-0.7-0.1-1-0.4s-0.4-0.6-0.4-1.1l-0.4-10.8
		c-0.1-1-0.6-1.5-1.6-1.5h-1.4C723.7,35.5,723.3,35.7,722.8,36z"/>
	<path d="M741.2,32.7h6.6c1,0,1.9,0.3,2.8,0.9c0.8,0.6,1.2,1.2,1.2,1.8c0,0.4-0.1,0.8-0.4,1s-0.6,0.4-1,0.4s-0.9-0.2-1.3-0.6
		s-0.8-0.7-1.2-0.7h-6.5c-0.6,0-1,0.3-1,0.8c0,0.4,0.2,0.6,0.6,0.8l7.7,3.4c0.8,0.3,1.4,0.9,1.9,1.7s0.8,1.6,0.8,2.6
		c0,1.2-0.4,2.3-1.3,3.1c-0.9,0.8-1.9,1.3-3,1.3h-5.8c-1,0-1.9-0.3-2.8-0.9c-0.9-0.6-1.3-1.2-1.3-1.8c0-0.4,0.1-0.7,0.4-1
		c0.3-0.3,0.6-0.4,1.1-0.4c0.4,0,0.8,0.2,1.2,0.6c0.4,0.4,1,0.6,1.8,0.6h5.4c0.4,0,0.8-0.2,1.1-0.5s0.4-0.7,0.4-1.2
		c0-0.6-0.3-1.2-1-1.4l-7.7-3.5c-0.8-0.3-1.3-0.8-1.7-1.5c-0.4-0.6-0.6-1.3-0.6-1.9c0-1,0.4-1.9,1.1-2.7S740.2,32.7,741.2,32.7z"/>
	<path d="M50.1,80.1v6.1c0,1.3-0.6,2.5-1.9,3.6c-1.2,1.1-2.5,1.7-3.8,1.7H41c-1.3,0-2.6-0.6-3.8-1.7s-1.8-2.3-1.8-3.6v-6.1
		c0-1.3,0.6-2.4,1.8-3.6c1.2-1.1,2.4-1.7,3.8-1.7h3.4c1.3,0,2.6,0.5,3.8,1.6C49.5,77.6,50.1,78.8,50.1,80.1z M38.5,80.2V86
		c0,0.5,0.2,1,0.6,1.3l1.1,1c0.3,0.2,0.6,0.3,1,0.3h3.3c0.5,0,1-0.2,1.3-0.5l0.9-0.8c0.4-0.3,0.5-0.6,0.5-1.2v-5.8
		c0-0.6-0.2-1-0.5-1.3l-1-0.8c-0.3-0.3-0.8-0.4-1.2-0.4h-3c-0.6,0-1.2,0.1-1.5,0.4L39,79C38.6,79.3,38.5,79.8,38.5,80.2z"/>
	<path d="M63.4,77.8V90c0,0.4-0.1,0.8-0.4,1c-0.3,0.3-0.6,0.4-1,0.4s-0.8-0.1-1-0.4c-0.3-0.3-0.4-0.6-0.4-1V77.8h-1.5
		c-0.4,0-0.8-0.1-1-0.4c-0.3-0.3-0.4-0.6-0.4-1s0.1-0.7,0.4-1s0.6-0.4,1.1-0.4h1.5v-1.1c0-1.5,0.5-2.7,1.5-3.6c1-1,2.3-1.5,3.8-1.5
		h3.4c0.4,0,0.8,0.1,1,0.4c0.3,0.3,0.4,0.6,0.4,1s-0.1,0.7-0.4,1s-0.6,0.4-1,0.4h-3.5c-0.7,0-1.3,0.2-1.7,0.6
		c-0.4,0.4-0.7,1-0.7,1.6v1.1h2.9c0.4,0,0.7,0.1,1,0.4s0.4,0.6,0.4,1s-0.1,0.7-0.4,1s-0.6,0.4-1,0.4L63.4,77.8L63.4,77.8z"/>
	<path d="M99.3,90V70c0-0.4,0.1-0.7,0.4-1s0.6-0.4,1-0.4s0.8,0.1,1,0.4c0.3,0.3,0.4,0.6,0.4,1v7.3l2.3-1.5c1-0.6,2-1,2.8-1h1.8
		c1.2,0,2.2,0.4,3.1,1.3c0.8,0.8,1.3,1.9,1.3,3.1l0.4,10.8c0,0.4-0.1,0.8-0.4,1c-0.3,0.3-0.6,0.4-1,0.4s-0.8-0.1-1-0.4
		c-0.3-0.3-0.4-0.6-0.4-1l-0.4-10.8c0-0.4-0.2-0.7-0.4-1c-0.3-0.3-0.6-0.4-1-0.4h-1.7c-0.4,0-0.8,0.1-1.2,0.4l-4.1,2.7v9.2
		c0,0.4-0.1,0.8-0.4,1c-0.3,0.3-0.6,0.4-1,0.4s-0.8-0.1-1-0.4C99.5,90.8,99.3,90.4,99.3,90z"/>
	<path d="M135.2,80.3v3.5c0,0.4-0.1,0.7-0.4,1c-0.3,0.3-0.6,0.4-1,0.4h-10.2V86c0,0.5,0.2,0.9,0.6,1.3L125,88
		c0.4,0.4,0.9,0.5,1.3,0.5h7.4c0.4,0,0.7,0.1,1,0.4s0.4,0.6,0.4,1s-0.1,0.7-0.4,1c-0.3,0.3-0.6,0.4-1,0.4h-7.6c-0.5,0-1-0.1-1.6-0.3
		c-0.6-0.2-1-0.4-1.2-0.6l-1.3-1.2c-0.4-0.3-0.8-0.8-1-1.3c-0.3-0.6-0.4-1.1-0.4-1.6v-6.6c0-0.4,0.1-0.9,0.4-1.5s0.6-1.2,1.1-1.5
		l1.2-1c0.8-0.6,1.7-1,2.6-1h4c1,0,2,0.4,2.9,1.3l1.1,1C134.8,77.9,135.2,78.9,135.2,80.3z M123.5,80.1v2.2h8.8v-2
		c0-0.5-0.2-1-0.5-1.2l-0.8-0.8c-0.4-0.4-0.8-0.5-1.2-0.5h-3.6c-0.4,0-0.8,0.1-1.2,0.4l-0.8,0.7C123.7,79.2,123.5,79.6,123.5,80.1z"
		/>
	<path d="M153.6,91.5h-8.7c-0.4,0-0.8-0.1-1-0.4s-0.4-0.6-0.4-1s0.1-0.7,0.4-1c0.3-0.3,0.6-0.4,1-0.4h2.9V71.5h-2.9
		c-0.4,0-0.8-0.1-1-0.4c-0.3-0.3-0.4-0.6-0.4-1s0.1-0.8,0.4-1c0.3-0.3,0.6-0.4,1-0.4h4.4c0.4,0,0.7,0.1,1,0.4s0.4,0.6,0.4,1v18.4
		h2.9c0.4,0,0.7,0.1,1,0.4s0.4,0.6,0.4,1s-0.1,0.8-0.4,1C154.3,91.3,153.9,91.5,153.6,91.5z"/>
	<path d="M174.8,91.5h-8.7c-0.4,0-0.8-0.1-1-0.4c-0.3-0.3-0.4-0.6-0.4-1s0.1-0.7,0.4-1c0.3-0.3,0.6-0.4,1-0.4h2.9V71.5h-2.9
		c-0.4,0-0.8-0.1-1-0.4c-0.3-0.3-0.4-0.6-0.4-1s0.1-0.8,0.4-1c0.3-0.3,0.6-0.4,1-0.4h4.4c0.4,0,0.7,0.1,1,0.4s0.4,0.6,0.4,1v18.4
		h2.9c0.4,0,0.7,0.1,1,0.4s0.4,0.6,0.4,1s-0.1,0.8-0.4,1C175.5,91.3,175.2,91.5,174.8,91.5z"/>
	<path d="M209.9,81h5.6c0.3,0,0.8,0.1,1.3,0.2l-0.1-2c0-0.4-0.1-0.8-0.4-1c-0.3-0.3-0.6-0.4-1-0.4h-5.4c-0.4,0-0.7-0.1-1-0.4
		s-0.4-0.6-0.4-1s0.1-0.8,0.4-1c0.3-0.3,0.6-0.4,1-0.4h5.5c1.2,0,2.2,0.4,3.1,1.3c0.8,0.8,1.3,1.9,1.3,3.1l0.4,10.8
		c0,0.4-0.1,0.8-0.4,1c-0.3,0.3-0.6,0.4-1,0.4s-0.8-0.1-1-0.4c-0.3-0.3-0.4-0.6-0.4-1l-2.4,1.5h-5.1c-1.2,0-2.2-0.4-3.1-1.3
		c-0.8-0.8-1.3-1.9-1.3-3.1v-1.7c0-1.2,0.4-2.2,1.3-3.1C207.8,81.5,208.8,81,209.9,81z M217.2,86.7l-0.1-1.2c0-0.4-0.1-0.8-0.4-1
		c-0.3-0.3-0.6-0.4-1-0.4h-5.8c-0.4,0-0.8,0.1-1,0.4c-0.3,0.3-0.4,0.6-0.4,1v1.6c0,0.4,0.1,0.7,0.4,1c0.3,0.3,0.6,0.4,1,0.4h4.1
		L217.2,86.7z"/>
	<path d="M233.8,78.2l-4,2.6V90c0,0.4-0.1,0.7-0.4,1c-0.3,0.3-0.6,0.4-1,0.4s-0.7-0.1-1-0.4s-0.4-0.6-0.4-1V76.3
		c0-0.4,0.1-0.8,0.4-1c0.3-0.3,0.6-0.4,1-0.4s0.7,0.1,1,0.4s0.4,0.6,0.4,1v1l2.6-1.6c0.9-0.6,1.9-0.8,3-0.8h1.3c1.2,0,2.1,0.4,3,1.2
		c0.8,0.8,1.3,1.8,1.3,3l0.4,10.9c0,0.4-0.1,0.7-0.4,1c-0.3,0.3-0.6,0.4-1,0.4s-0.7-0.1-1-0.4s-0.4-0.6-0.4-1.1l-0.4-10.8
		c-0.1-1-0.6-1.5-1.6-1.5h-1.4C234.7,77.7,234.3,77.9,233.8,78.2z"/>
	<path d="M259.8,76.9v-6.8c0-0.4,0.1-0.8,0.4-1c0.3-0.3,0.6-0.4,1-0.4s0.8,0.1,1,0.4c0.3,0.3,0.4,0.6,0.4,1v20c0,0.4-0.1,0.8-0.4,1
		c-0.3,0.3-0.6,0.4-1,0.4s-0.8-0.1-1-0.4c-0.3-0.3-0.4-0.6-0.4-1v-0.6c-1.4,1.4-2.8,2-4,2h-2.4c-1,0-2-0.4-2.9-1.3l-1.2-1
		c-0.3-0.3-0.5-0.7-0.8-1.3c-0.3-0.6-0.4-1.2-0.4-1.7v-5.9c0-0.6,0.1-1.3,0.4-1.9s0.6-1.1,1-1.4l1.2-1c0.8-0.7,1.9-1.1,3-1.1h2
		c1.2,0,2.2,0.4,3.1,1.2L259.8,76.9z M255.6,77.8h-2c-0.4,0-0.8,0.1-1.2,0.4l-1,0.8c-0.3,0.3-0.5,0.6-0.5,1.1v6.1
		c0,0.4,0.2,0.8,0.6,1.1l1,0.8c0.3,0.3,0.6,0.4,1,0.4h2.4c0.3,0,0.7-0.2,1.1-0.5l2.3-1.9c0.4-0.3,0.6-0.8,0.6-1.2v-3.1
		c0-0.7-0.2-1.2-0.6-1.5l-2.4-2C256.5,77.9,256.2,77.8,255.6,77.8z"/>
	<path d="M297.3,77.8V90c0,0.4-0.1,0.8-0.4,1c-0.3,0.3-0.6,0.4-1,0.4s-0.8-0.1-1-0.4c-0.3-0.3-0.4-0.6-0.4-1V77.8h-1.6
		c-0.4,0-0.8-0.1-1-0.4c-0.3-0.3-0.4-0.6-0.4-1s0.1-0.7,0.4-1s0.6-0.4,1.1-0.4h1.5v-1.1c0-1.5,0.5-2.7,1.5-3.6c1-1,2.3-1.5,3.8-1.5
		h3.4c0.4,0,0.8,0.1,1,0.4c0.3,0.3,0.4,0.6,0.4,1s-0.1,0.7-0.4,1s-0.6,0.4-1,0.4h-3.4c-0.7,0-1.3,0.2-1.7,0.6
		c-0.4,0.4-0.7,1-0.7,1.6v1.1h2.9c0.4,0,0.7,0.1,1,0.4s0.4,0.6,0.4,1s-0.1,0.7-0.4,1s-0.6,0.4-1,0.4L297.3,77.8L297.3,77.8z"/>
	<path d="M326.5,80.3v3.5c0,0.4-0.1,0.7-0.4,1s-0.6,0.4-1,0.4h-10.2V86c0,0.5,0.2,0.9,0.6,1.3l0.8,0.7c0.4,0.4,0.9,0.5,1.3,0.5h7.4
		c0.4,0,0.7,0.1,1,0.4s0.4,0.6,0.4,1s-0.1,0.7-0.4,1s-0.6,0.4-1,0.4h-7.5c-0.5,0-1-0.1-1.6-0.3s-1-0.4-1.2-0.6l-1.3-1.2
		c-0.4-0.3-0.8-0.8-1-1.3c-0.3-0.6-0.4-1.1-0.4-1.6v-6.6c0-0.4,0.1-0.9,0.4-1.5s0.6-1.2,1.1-1.5l1.2-1c0.8-0.6,1.7-1,2.6-1h4
		c1,0,2,0.4,2.9,1.3l1.1,1C326.1,77.9,326.5,78.9,326.5,80.3z M314.9,80.1v2.2h8.8v-2c0-0.5-0.2-1-0.5-1.2l-0.8-0.8
		c-0.4-0.4-0.8-0.5-1.2-0.5h-3.6c-0.4,0-0.8,0.1-1.2,0.4l-0.8,0.7C315.1,79.2,314.9,79.6,314.9,80.1z"/>
	<path d="M347.8,80.3v3.5c0,0.4-0.1,0.7-0.4,1s-0.6,0.4-1,0.4h-10.2V86c0,0.5,0.2,0.9,0.6,1.3l0.8,0.7c0.4,0.4,0.9,0.5,1.3,0.5h7.4
		c0.4,0,0.7,0.1,1,0.4s0.4,0.6,0.4,1s-0.1,0.7-0.4,1s-0.6,0.4-1,0.4h-7.6c-0.5,0-1-0.1-1.6-0.3s-1-0.4-1.2-0.6l-1.3-1.2
		c-0.4-0.3-0.8-0.8-1-1.3c-0.3-0.6-0.4-1.1-0.4-1.6v-6.6c0-0.4,0.1-0.9,0.4-1.5s0.6-1.2,1.1-1.5l1.2-1c0.8-0.6,1.7-1,2.6-1h4
		c1,0,2,0.4,2.9,1.3l1.1,1C347.4,77.9,347.8,78.9,347.8,80.3z M336.2,80.1v2.2h8.8v-2c0-0.5-0.2-1-0.5-1.2l-0.8-0.8
		c-0.4-0.4-0.8-0.5-1.2-0.5h-3.6c-0.4,0-0.8,0.1-1.2,0.4l-0.8,0.7C336.3,79.2,336.2,79.6,336.2,80.1z"/>
	<path d="M366.1,76.9v-6.8c0-0.4,0.1-0.8,0.4-1c0.3-0.3,0.6-0.4,1-0.4s0.8,0.1,1,0.4c0.3,0.3,0.4,0.6,0.4,1v20c0,0.4-0.1,0.8-0.4,1
		c-0.3,0.3-0.6,0.4-1,0.4s-0.8-0.1-1-0.4c-0.3-0.3-0.4-0.6-0.4-1v-0.6c-1.4,1.4-2.8,2-4,2h-2.4c-1,0-2-0.4-2.9-1.3l-1.2-1
		c-0.3-0.3-0.5-0.7-0.8-1.3c-0.3-0.6-0.4-1.2-0.4-1.7v-5.9c0-0.6,0.1-1.3,0.4-1.9s0.6-1.1,1-1.4l1.2-1c0.8-0.7,1.9-1.1,3-1.1h2
		c1.2,0,2.2,0.4,3.1,1.2L366.1,76.9z M361.9,77.8h-2c-0.4,0-0.8,0.1-1.2,0.4l-1,0.8c-0.3,0.3-0.5,0.6-0.5,1.1v6.1
		c0,0.4,0.2,0.8,0.6,1.1l1,0.8c0.3,0.3,0.6,0.4,1,0.4h2.4c0.3,0,0.7-0.2,1.1-0.5l2.3-1.9c0.4-0.3,0.6-0.8,0.6-1.2v-3.1
		c0-0.7-0.2-1.2-0.6-1.5l-2.4-2C362.8,77.9,362.5,77.8,361.9,77.8z"/>
	<path d="M408.7,91.4h-8.8c-0.4,0-0.8-0.1-1-0.4c-0.3-0.3-0.4-0.6-0.4-1s0.1-0.7,0.4-1s0.6-0.4,1-0.4h2.9V77.7h-2.9
		c-0.4,0-0.8-0.1-1-0.4c-0.3-0.3-0.4-0.6-0.4-1s0.1-0.8,0.4-1c0.3-0.3,0.6-0.4,1-0.4h4.4c0.4,0,0.8,0.1,1,0.4c0.3,0.3,0.4,0.6,0.4,1
		v12.2h2.9c0.4,0,0.8,0.1,1,0.4c0.3,0.3,0.4,0.6,0.4,1s-0.1,0.8-0.4,1C409.4,91.3,409,91.4,408.7,91.4z M402.8,67.3h1.5
		c0.4,0,0.8,0.1,1,0.4c0.3,0.3,0.4,0.6,0.4,1v1.2c0,0.4-0.1,0.8-0.4,1c-0.3,0.3-0.6,0.4-1,0.4h-1.5c-0.4,0-0.8-0.1-1-0.4
		c-0.3-0.3-0.4-0.6-0.4-1l0.1-1.3c0-0.4,0.1-0.8,0.4-1C402.1,67.5,402.4,67.3,402.8,67.3z"/>
	<path d="M428.4,91.5h-2.9c-1.2,0-2.2-0.4-3.1-1.3s-1.3-1.9-1.3-3.1v-9.3h-1.5c-0.4,0-0.8-0.1-1-0.4s-0.4-0.6-0.4-1s0.1-0.8,0.4-1
		c0.3-0.3,0.6-0.4,1-0.4h1.5v-3.5c0-0.4,0.1-0.8,0.4-1c0.3-0.3,0.6-0.4,1-0.4s0.7,0.1,1,0.4s0.4,0.6,0.4,1V75h5.8
		c0.4,0,0.7,0.1,1,0.4s0.4,0.6,0.4,1s-0.1,0.8-0.4,1c-0.3,0.3-0.6,0.4-1,0.4h-5.8v9.3c0,0.4,0.1,0.7,0.4,1s0.6,0.4,1,0.4h2.8
		c0.8,0,1.3-0.4,1.5-1.2c0.3-0.8,0.8-1.2,1.5-1.2c0.4,0,0.8,0.1,1,0.4c0.3,0.3,0.4,0.6,0.4,1.1c0,0.9-0.4,1.7-1.2,2.6
		C430.7,91,429.7,91.5,428.4,91.5z"/>
	<path d="M470.9,91.5H468c-1.2,0-2.2-0.4-3.1-1.3s-1.3-1.9-1.3-3.1v-9.3h-1.5c-0.4,0-0.8-0.1-1-0.4s-0.4-0.6-0.4-1s0.1-0.8,0.4-1
		c0.3-0.3,0.6-0.4,1-0.4h1.5v-3.5c0-0.4,0.1-0.8,0.4-1c0.3-0.3,0.6-0.4,1-0.4s0.7,0.1,1,0.4s0.4,0.6,0.4,1V75h5.8
		c0.4,0,0.7,0.1,1,0.4s0.4,0.6,0.4,1s-0.1,0.8-0.4,1c-0.3,0.3-0.6,0.4-1,0.4h-6v9.3c0,0.4,0.1,0.7,0.4,1s0.6,0.4,1,0.4h2.8
		c0.8,0,1.3-0.4,1.5-1.2c0.3-0.8,0.8-1.2,1.5-1.2c0.4,0,0.8,0.1,1,0.4c0.3,0.3,0.4,0.6,0.4,1.1c0,0.9-0.4,1.7-1.2,2.6
		C473.2,91,472.2,91.5,470.9,91.5z"/>
	<path d="M496.6,80.1v6.1c0,1.3-0.6,2.5-1.9,3.6c-1.2,1.1-2.5,1.7-3.8,1.7h-3.4c-1.3,0-2.6-0.6-3.8-1.7c-1.2-1.1-1.8-2.3-1.8-3.6
		v-6.1c0-1.3,0.6-2.4,1.8-3.6c1.2-1.1,2.4-1.7,3.8-1.7h3.4c1.3,0,2.6,0.5,3.8,1.6C496,77.6,496.6,78.8,496.6,80.1z M485,80.2V86
		c0,0.5,0.2,1,0.6,1.3l1.1,1c0.3,0.2,0.6,0.3,1,0.3h3.3c0.5,0,1-0.2,1.3-0.5l0.9-0.8c0.4-0.3,0.5-0.6,0.5-1.2v-5.8
		c0-0.6-0.2-1-0.5-1.3l-1-0.8c-0.3-0.3-0.8-0.4-1.2-0.4h-3c-0.6,0-1.2,0.1-1.5,0.4l-1,0.8C485.1,79.3,485,79.8,485,80.2z"/>
	<path d="M537.7,91.5h-6.1c-1.1,0-2-0.3-2.8-1l-2.8-2.4c-0.9-0.8-1.3-1.7-1.3-3v-3.8c-0.1-1.2,0.4-2.3,1.5-3.2l2.5-2.2
		c0.8-0.6,1.7-1,2.6-1h6.5c0.4,0,0.8,0.1,1,0.4c0.3,0.3,0.4,0.6,0.4,1s-0.1,0.8-0.4,1c-0.3,0.3-0.6,0.4-1,0.4h-6.2
		c-0.4,0-0.8,0.1-1.1,0.4l-2.3,2c-0.4,0.3-0.6,0.8-0.6,1.3v3.5c0,0.4,0.1,0.7,0.4,1l2.6,2.2c0.3,0.3,0.8,0.4,1.3,0.4h5.9
		c0.4,0,0.7,0.1,1,0.4s0.4,0.6,0.4,1s-0.1,0.8-0.4,1C538.5,91.3,538.1,91.5,537.7,91.5z"/>
	<path d="M545.8,90V70c0-0.4,0.1-0.7,0.4-1s0.6-0.4,1-0.4s0.8,0.1,1,0.4c0.3,0.3,0.4,0.6,0.4,1v7.3l2.3-1.5c1-0.6,2-1,2.8-1h1.8
		c1.2,0,2.2,0.4,3.1,1.3c0.8,0.8,1.3,1.9,1.3,3.1l0.4,10.8c0,0.4-0.1,0.8-0.4,1c-0.3,0.3-0.6,0.4-1,0.4s-0.8-0.1-1-0.4
		c-0.3-0.3-0.4-0.6-0.4-1l-0.4-10.8c0-0.4-0.2-0.7-0.4-1c-0.3-0.3-0.6-0.4-1-0.4h-1.6c-0.4,0-0.8,0.1-1.2,0.4l-4.1,2.7v9.2
		c0,0.4-0.1,0.8-0.4,1c-0.3,0.3-0.6,0.4-1,0.4s-0.8-0.1-1-0.4C545.9,90.8,545.8,90.4,545.8,90z"/>
	<path d="M581.7,80.3v3.5c0,0.4-0.1,0.7-0.4,1c-0.3,0.3-0.6,0.4-1,0.4h-10.4V86c0,0.5,0.2,0.9,0.6,1.3l0.8,0.7
		c0.4,0.4,0.9,0.5,1.3,0.5h7.4c0.4,0,0.7,0.1,1,0.4s0.4,0.6,0.4,1s-0.1,0.7-0.4,1c-0.3,0.3-0.6,0.4-1,0.4h-7.6c-0.5,0-1-0.1-1.6-0.3
		c-0.6-0.2-1-0.4-1.2-0.6l-1.3-1.2c-0.4-0.3-0.8-0.8-1-1.3c-0.3-0.6-0.4-1.1-0.4-1.6v-6.6c0-0.4,0.1-0.9,0.4-1.5
		c0.3-0.6,0.6-1.2,1.1-1.5l1.2-1c0.8-0.6,1.7-1,2.6-1h4c1,0,2,0.4,2.9,1.3l1.1,1C581.3,77.9,581.7,78.9,581.7,80.3z M570,80.1v2.2
		h8.8v-2c0-0.5-0.2-1-0.5-1.2l-0.8-0.8c-0.4-0.4-0.8-0.5-1.2-0.5h-3.6c-0.4,0-0.8,0.1-1.2,0.4l-0.8,0.7
		C570.2,79.2,570,79.6,570,80.1z"/>
	<path d="M597.1,81.3v3.5l1.9,3.3l1-3.3l0.3-8.4c0-0.4,0.2-0.7,0.4-1c0.3-0.3,0.6-0.4,1-0.4s0.8,0.1,1,0.4c0.3,0.3,0.4,0.6,0.4,1
		l-0.3,9l-1.5,5.1c-0.2,0.7-0.6,1-1.3,1h-1.5c-0.5,0-1-0.3-1.3-0.8l-1.6-2.8l-1.7,2.6c-0.4,0.6-0.8,0.8-1.3,0.8h-1.5
		c-0.3,0-0.6-0.1-0.9-0.3c-0.3-0.2-0.4-0.4-0.5-0.7l-1.5-5.3l-0.3-8.9c0-0.4,0.1-0.7,0.4-1s0.6-0.4,1-0.4s0.7,0.1,1,0.4
		s0.4,0.6,0.4,1l0.3,8.4l1,3.3l2-3.4v-3.3c0-0.4,0.1-0.8,0.4-1c0.3-0.3,0.6-0.4,1-0.4s0.7,0.1,1,0.4
		C596.9,80.5,597.1,80.9,597.1,81.3z"/>
	<path d="M612.6,70.1v6.8l1.3-1c0.8-0.6,1.7-1,2.5-1h2.6c1,0,1.9,0.3,2.6,1l1.3,1.2c0.4,0.3,0.7,0.8,1,1.4s0.4,1.2,0.4,1.8v5.8
		c0,0.5-0.1,1.1-0.3,1.7c-0.3,0.6-0.5,1-0.8,1.3l-1.3,1.2c-0.3,0.3-0.8,0.6-1.3,0.8c-0.6,0.3-1.1,0.4-1.5,0.4h-2.5
		c-1.2,0-2.5-0.6-4-2v0.6c0,0.4-0.1,0.8-0.4,1c-0.3,0.3-0.6,0.4-1,0.4s-0.8-0.1-1-0.4c-0.3-0.3-0.4-0.6-0.4-1v-20
		c0-0.4,0.1-0.8,0.4-1c0.3-0.3,0.6-0.4,1-0.4s0.8,0.1,1,0.4C612.4,69.3,612.6,69.6,612.6,70.1z M618.8,77.8h-2
		c-0.5,0-0.8,0.1-1.1,0.3l-2.6,2.2c-0.3,0.3-0.5,0.8-0.5,1.3v3.3c0,0.5,0.2,0.9,0.6,1.2l2.3,2c0.3,0.3,0.7,0.4,1,0.4h2.4
		c0.3,0,0.6-0.1,0.8-0.3l1.2-1c0.3-0.3,0.4-0.6,0.4-1v-6.1c0-0.5-0.1-0.8-0.4-1.1l-1-0.9C619.5,77.9,619.2,77.8,618.8,77.8z"/>
	<path d="M635.2,81h5.6c0.3,0,0.8,0.1,1.3,0.2l-0.1-2c0-0.4-0.1-0.8-0.4-1c-0.3-0.3-0.6-0.4-1-0.4h-5.5c-0.4,0-0.7-0.1-1-0.4
		s-0.4-0.6-0.4-1s0.1-0.8,0.4-1c0.3-0.3,0.6-0.4,1-0.4h5.5c1.2,0,2.2,0.4,3.1,1.3c0.8,0.8,1.3,1.9,1.3,3.1l0.4,10.8
		c0,0.4-0.1,0.8-0.4,1c-0.3,0.3-0.6,0.4-1,0.4s-0.8-0.1-1-0.4c-0.3-0.3-0.4-0.6-0.4-1l-2.4,1.5h-4.9c-1.2,0-2.2-0.4-3.1-1.3
		c-0.8-0.8-1.3-1.9-1.3-3.1v-1.7c0-1.2,0.4-2.2,1.3-3.1C633,81.5,634,81,635.2,81z M642.4,86.7l-0.1-1.2c0-0.4-0.1-0.8-0.4-1
		c-0.3-0.3-0.6-0.4-1-0.4h-5.7c-0.4,0-0.8,0.1-1,0.4c-0.3,0.3-0.4,0.6-0.4,1v1.6c0,0.4,0.1,0.7,0.4,1c0.3,0.3,0.6,0.4,1,0.4h4.1
		L642.4,86.7z"/>
	<path d="M665.3,91.5h-6.1c-1.1,0-2-0.3-2.8-1l-2.8-2.4c-0.9-0.8-1.3-1.7-1.3-3v-3.8c-0.1-1.2,0.4-2.3,1.5-3.2l2.5-2.2
		c0.8-0.6,1.7-1,2.6-1h6.5c0.4,0,0.8,0.1,1,0.4c0.3,0.3,0.4,0.6,0.4,1s-0.1,0.8-0.4,1c-0.3,0.3-0.6,0.4-1,0.4h-6.2
		c-0.4,0-0.8,0.1-1.1,0.4l-2.3,2c-0.4,0.3-0.6,0.8-0.6,1.3v3.5c0,0.4,0.1,0.7,0.4,1l2.6,2.2c0.3,0.3,0.8,0.4,1.3,0.4h5.9
		c0.4,0,0.7,0.1,1,0.4s0.4,0.6,0.4,1s-0.1,0.8-0.4,1C666,91.3,665.7,91.5,665.3,91.5z"/>
	<path d="M686.5,91.5h-6.1c-1.1,0-2-0.3-2.8-1l-2.8-2.4c-0.9-0.8-1.3-1.7-1.3-3v-3.8c-0.1-1.2,0.4-2.3,1.5-3.2l2.5-2.2
		c0.8-0.6,1.7-1,2.6-1h6.5c0.4,0,0.8,0.1,1,0.4c0.3,0.3,0.4,0.6,0.4,1s-0.1,0.8-0.4,1c-0.3,0.3-0.6,0.4-1,0.4h-6.2
		c-0.4,0-0.8,0.1-1.1,0.4l-2.3,2c-0.4,0.3-0.6,0.8-0.6,1.3v3.5c0,0.4,0.1,0.7,0.4,1l2.6,2.2c0.3,0.3,0.8,0.4,1.3,0.4h5.9
		c0.4,0,0.7,0.1,1,0.4s0.4,0.6,0.4,1s-0.1,0.8-0.4,1C687.3,91.3,686.9,91.5,686.5,91.5z"/>
	<path d="M699,81h5.6c0.3,0,0.8,0.1,1.3,0.2l-0.1-2c0-0.4-0.1-0.8-0.4-1c-0.3-0.3-0.6-0.4-1-0.4h-5.5c-0.4,0-0.7-0.1-1-0.4
		s-0.4-0.6-0.4-1s0.1-0.8,0.4-1c0.3-0.3,0.6-0.4,1-0.4h5.5c1.2,0,2.2,0.4,3.1,1.3s1.3,1.9,1.3,3.1l0.4,10.8c0,0.4-0.1,0.8-0.4,1
		c-0.3,0.3-0.6,0.4-1,0.4s-0.8-0.1-1-0.4c-0.3-0.3-0.4-0.6-0.4-1l-2.4,1.5h-4.9c-1.2,0-2.2-0.4-3.1-1.3s-1.3-1.9-1.3-3.1v-1.7
		c0-1.2,0.4-2.2,1.3-3.1C696.7,81.5,697.7,81,699,81z M706.2,86.7l-0.1-1.2c0-0.4-0.1-0.8-0.4-1c-0.3-0.3-0.6-0.4-1-0.4H699
		c-0.4,0-0.8,0.1-1,0.4c-0.3,0.3-0.4,0.6-0.4,1v1.6c0,0.4,0.1,0.7,0.4,1c0.3,0.3,0.6,0.4,1,0.4h4.1L706.2,86.7z"/>
	<path d="M721.7,82.4h2.9c0.4,0,0.7,0.1,1,0.4s0.4,0.6,0.4,1v2.4c0,0.4-0.1,0.8-0.4,1c-0.3,0.3-0.6,0.4-1,0.4h-2.9
		c-0.4,0-0.8-0.1-1-0.4c-0.3-0.3-0.4-0.6-0.4-1v-2.5c0-0.4,0.1-0.8,0.4-1C720.9,82.5,721.3,82.4,721.7,82.4z"/>
</g>
<rect x="425.3" y="192.6" class="st9" width="17.4" height="120.5"/>
<rect x="380.5" y="168" class="st9" width="105.2" height="61.7"/>
<g>
	<path d="M393,202v-5h-0.8v-0.8h0.8v-0.3c0-1.5,0.9-2.5,2.5-2.5c0.5,0,1.2,0.2,1.5,0.4l-0.3,0.8c-0.3-0.2-0.7-0.3-1.2-0.3
		c-1.1,0-1.4,0.8-1.4,1.7v0.3h3.4v5.8h-1v-5H394v5H393z"/>
	<path d="M399.2,198c0-0.7,0-1.3,0-1.8h0.9l0,1.1h0c0.3-0.8,0.9-1.3,1.6-1.3c0.1,0,0.2,0,0.3,0v1c-0.1,0-0.2,0-0.4,0
		c-0.7,0-1.3,0.6-1.4,1.4c0,0.1,0,0.3,0,0.5v3.1h-1V198z"/>
	<path d="M403.5,199.3c0,1.4,0.9,2,2,2c0.8,0,1.2-0.1,1.6-0.3l0.2,0.8c-0.4,0.2-1,0.4-1.9,0.4c-1.8,0-2.9-1.2-2.9-2.9
		c0-1.8,1-3.1,2.7-3.1c1.9,0,2.4,1.7,2.4,2.7c0,0.2,0,0.4,0,0.5H403.5z M406.6,198.5c0-0.7-0.3-1.7-1.5-1.7c-1.1,0-1.5,1-1.6,1.7
		H406.6z"/>
	<path d="M408.8,200.9c0.3,0.2,0.9,0.4,1.4,0.4c0.8,0,1.1-0.4,1.1-0.9c0-0.5-0.3-0.8-1.1-1.1c-1-0.4-1.5-0.9-1.5-1.6
		c0-0.9,0.8-1.7,2-1.7c0.6,0,1.1,0.2,1.4,0.4l-0.3,0.8c-0.2-0.1-0.6-0.3-1.2-0.3c-0.6,0-1,0.4-1,0.8c0,0.5,0.3,0.7,1.1,1
		c1,0.4,1.5,0.9,1.5,1.8c0,1-0.8,1.7-2.2,1.7c-0.6,0-1.2-0.2-1.6-0.4L408.8,200.9z"/>
	<path d="M421.5,199c0,2.1-1.5,3.1-2.9,3.1c-1.6,0-2.8-1.2-2.8-3c0-1.9,1.3-3.1,2.9-3.1C420.4,196.1,421.5,197.3,421.5,199z
		 M416.9,199.1c0,1.3,0.7,2.2,1.8,2.2c1,0,1.8-0.9,1.8-2.3c0-1-0.5-2.2-1.7-2.2C417.5,196.9,416.9,198,416.9,199.1z"/>
	<path d="M423,202v-5h-0.8v-0.8h0.8v-0.3c0-0.8,0.2-1.6,0.7-2c0.4-0.4,0.9-0.5,1.4-0.5c0.4,0,0.7,0.1,0.9,0.2l-0.1,0.8
		c-0.2-0.1-0.4-0.1-0.7-0.1c-0.9,0-1.1,0.8-1.1,1.7v0.3h1.4v0.8H424v5H423z"/>
	<path d="M428.9,193.5h1.1v3.6h0c0.2-0.3,0.4-0.6,0.8-0.7c0.3-0.2,0.7-0.3,1.1-0.3c0.8,0,2,0.5,2,2.5v3.5h-1.1v-3.3
		c0-0.9-0.3-1.7-1.3-1.7c-0.7,0-1.2,0.5-1.4,1.1c-0.1,0.1-0.1,0.3-0.1,0.5v3.5h-1.1V193.5z"/>
	<path d="M436.1,199.3c0,1.4,0.9,2,2,2c0.8,0,1.2-0.1,1.6-0.3l0.2,0.8c-0.4,0.2-1,0.4-1.9,0.4c-1.8,0-2.9-1.2-2.9-2.9
		c0-1.8,1-3.1,2.7-3.1c1.9,0,2.4,1.7,2.4,2.7c0,0.2,0,0.4,0,0.5H436.1z M439.2,198.5c0-0.7-0.3-1.7-1.5-1.7c-1.1,0-1.5,1-1.6,1.7
		H439.2z"/>
	<path d="M441.6,193.5h1.1v8.5h-1.1V193.5z"/>
	<path d="M444.4,193.5h1.1v8.5h-1.1V193.5z"/>
	<path d="M449.8,193.5h1.1v3.6h0c0.2-0.3,0.4-0.6,0.8-0.7c0.3-0.2,0.7-0.3,1.1-0.3c0.8,0,2,0.5,2,2.5v3.5h-1.1v-3.3
		c0-0.9-0.3-1.7-1.3-1.7c-0.7,0-1.2,0.5-1.4,1.1c-0.1,0.1-0.1,0.3-0.1,0.5v3.5h-1.1V193.5z"/>
	<path d="M457,199.3c0,1.4,0.9,2,2,2c0.8,0,1.2-0.1,1.6-0.3l0.2,0.8c-0.4,0.2-1,0.4-1.9,0.4c-1.8,0-2.9-1.2-2.9-2.9
		c0-1.8,1-3.1,2.7-3.1c1.9,0,2.4,1.7,2.4,2.7c0,0.2,0,0.4,0,0.5H457z M460.1,198.5c0-0.7-0.3-1.7-1.5-1.7c-1.1,0-1.5,1-1.6,1.7
		H460.1z"/>
	<path d="M462.5,198c0-0.7,0-1.3,0-1.8h0.9l0,1.1h0c0.3-0.8,0.9-1.3,1.6-1.3c0.1,0,0.2,0,0.3,0v1c-0.1,0-0.2,0-0.4,0
		c-0.7,0-1.3,0.6-1.4,1.4c0,0.1,0,0.3,0,0.5v3.1h-1V198z"/>
	<path d="M466.8,199.3c0,1.4,0.9,2,2,2c0.8,0,1.2-0.1,1.6-0.3l0.2,0.8c-0.4,0.2-1,0.4-1.9,0.4c-1.8,0-2.9-1.2-2.9-2.9
		c0-1.8,1-3.1,2.7-3.1c1.9,0,2.4,1.7,2.4,2.7c0,0.2,0,0.4,0,0.5H466.8z M469.9,198.5c0-0.7-0.3-1.7-1.5-1.7c-1.1,0-1.5,1-1.6,1.7
		H469.9z"/>
</g>
<path class="st1" d="M429.6,334.8h-98.3c16.7-48.6,33.3-97.2,50-145.8C397.4,237.5,413.5,286.1,429.6,334.8z"/>
<path class="st1" d="M538.6,334.8h-98.3c16.7-48.6,33.3-97.2,50-145.8C506.4,237.5,522.5,286.1,538.6,334.8z"/>
</svg>
