<?xml version="1.0" encoding="utf-8"?>
<!-- Generator: Adobe Illustrator 21.1.0, SVG Export Plug-In . SVG Version: 6.00 Build 0)  -->
<svg version="1.1" id="Layer_1" xmlns="http://www.w3.org/2000/svg" xmlns:xlink="http://www.w3.org/1999/xlink" x="0px" y="0px"
	 viewBox="0 0 800 400" style="enable-background:new 0 0 800 400;" xml:space="preserve">
<style type="text/css">
	.st0{fill:#D8DF21;}
	.st1{fill:#FAAF3B;}
	.st2{fill:#0071BB;}
	.st3{fill:#00A89C;}
	.st4{fill:#8C005D;}
	.st5{fill:#EC1E79;}
	.st6{fill:#1B1464;}
	.st7{fill:none;stroke:#FFFFFF;stroke-miterlimit:10;}
	.st8{fill:#0071BB;stroke:#FFFFFF;stroke-miterlimit:10;}
</style>
<g id="XMLID_1_">
	<g>
		<path class="st0" d="M519.4,303.5c1.2,2.5,4.9,5,4.9,5c-8,4-12.9,6.8-15.9,8.6c-3,1.8-3.9,2.5-3.9,2.5c-3.4,3.2-7.5,7.1-12,13.9
			c-7.8,11.6-5.9,15.2-11.1,23.6c-3.9,6.4-14.6,12.9-36.1,25.9c-9.1,5.5-14.7,8.4-22.2,8.8c-3.2,0.2-6.8-1.5-10.1,0.5
			c0.8-1.5,5.9-11.1,1.4-22c8.1-2.1,22.1-6.8,36.1-17.8c15-11.8,22.8-25.1,26.5-32.6l41.5-21.5C518.4,300,518.6,301.7,519.4,303.5z"
			/>
		<path class="st1" d="M452.8,300.5l-2-12.8l-1.2-7.3l0.9-0.1l14.9-3.7l52.4-22.4c0.7,5.4,1,9.5,1,13.6c0,18.4,0,27.6,0,27.8
			c-0.1,0.8-0.3,1.8-0.4,2.8L477,319.9l-20,10.4l-2.1-15.3l-0.6-4.6L452.8,300.5z"/>
		<path class="st2" d="M517.9,254.3l-52.4,22.4l-14.9,3.7l-0.9,0.1l-8.2-51.6c0.9-2,1.4-3.8,1.4-5.4c23.3-1.7,46.6-3.4,69.8-5.1
			c1,6.5,2.1,14,3.4,22.7C516.8,246.3,517.4,250.6,517.9,254.3z"/>
		<path class="st1" d="M512.7,218.3c-23.3,1.7-46.6,3.4-69.8,5.1c0.1-1.3-0.2-6.8,3.4-9.3c1.8-1.3,3.4-0.9,4.9-1.3
			c7.4-2.3,6.4-25.3,5.6-35.7l45.4-3l0.5-0.1c0.8,2.5,1.6,5.1,2.4,7.7C508.3,193.1,510.3,203.4,512.7,218.3z"/>
		<path class="st2" d="M502.5,174.1l-0.5,0.1l-45.4,3c-0.1-1.8-0.3-3.3-0.4-4.1c-0.2-2.3,0.7,0.1-5.3-29.1
			c-3-14.7-4.3-19.2-8.7-21.7c-2.2-1.3-2.6-0.6-12-2.3c-12.8-2.3-15.5-4.1-17.8-2.3c-4.1,3.1,0.5,11.2-3.4,13.9
			c-1.2,0.8-2.4,0.6-3.9,0.1c0.9-7.2,2-13.2,2.9-17.7c1.1-5.6,1.7-7.4,3.4-8.8c3-2.5,7-1.9,15.9-0.9c18.2,1.9,14.7,1,19.7,1.9
			c7.7,1.4,18.7,4,31.3,9.7c4.5,11.9,6.7,15.2,12,27.3C492.6,147.6,497.7,159.5,502.5,174.1z"/>
		<path class="st2" d="M502.1,405.4H392.8v-0.2c3.9,0,10.3-0.4,14.4-4.6c3.2-3.3,2.4-6.3,5.8-8.3c3.3-2,6.9-0.3,10.1-0.5
			c7.5-0.4,13.1-3.3,22.2-8.8c21.5-13,32.2-19.5,36.1-25.9c1.6,6.7,3.8,14.4,7.2,22.7C492.8,390,497.6,398.6,502.1,405.4z"/>
		<path class="st3" d="M457.1,330.3l20-10.4c-3.7,7.5-11.5,20.8-26.5,32.6c-14,11-28,15.7-36.1,17.8c-3.3-8.2-10.1-12.1-12.1-13.2
			l-0.6-0.2c0.4-1,0.6-2,0.6-3.1c0-5.3-4.7-9.6-10.6-10c38.3,1.5,61.3-26.3,63.3-28.8L457.1,330.3z"/>
		<path class="st4" d="M469.3,90.2c4.6,9.1,3.7,10.8,9.2,25.4c-12.6-5.7-23.6-8.4-31.3-9.7c-5.1-0.9-1.6,0.1-19.7-1.9
			c-8.9-0.9-12.9-1.6-15.9,0.9c-1.7,1.4-2.2,3.2-3.4,8.8c-0.9,4.5-2,10.5-2.9,17.7c-2.4-0.8-5.6-2.4-10.5-2.4
			c-5.5-0.1-9.1,1.9-11.8,2.6c-1.1-3.6-2.1-7.2-3.1-10.8c-1.4-5-2.9-9.9-4.3-14.9c-10.2,0.2-21.7,1-34.2,2.8
			c-11.2,1.6-21.3,3.7-30.3,6c0.2-9.7,2.6-17.1,4.8-21.9c6.3-2.4,14.1-4.7,23.2-6.3c11.3-2,21.2-2.2,29.1-1.9
			c-1-3.3-1.9-7.5-2.1-12.5c-0.3-7.6,1.1-13.8,2.4-18c3.1-1.5,2.9-4.2,4.8-5.9c4-3.5,10.8,2.7,21.2,2.7c12.3-0.1,18.1-9,24.1-5.6
			c2.4,1.4,2.2,3.3,4.1,5.7l0,0c1.2,2.3,2.5,5.6,2.7,9.6c0.6,10.9-7.2,15.9-4.9,20.3c2.3,4.3,11.1,2.3,26,4
			C456.2,86.1,464.2,88.4,469.3,90.2z"/>
		<path class="st2" d="M450.7,66c10.2,8,15.2,17.5,18.6,24.2c-5.1-1.8-13.2-4.1-23.2-5.3c-14.8-1.7-23.7,0.3-26-4
			c-2.3-4.4,5.5-9.5,4.9-20.3c-0.2-4-1.5-7.3-2.7-9.6c0.5,0.7,1.2,1.4,2.2,2.2c3.9,3.1,7.1,2.7,12.5,4.6
			C442.6,59.7,446,62.4,450.7,66z"/>
		<path class="st5" d="M329.5,179.5c0.3-3.1,0.7-6.2,1.1-9.3c2.2-15.8,3.2-23.7,2.9-32.4c-0.2-4.1-0.6-8.5,2.4-12
			c2.4-2.8,5.5-3.5,14.6-4.9c22-3.6,24.7-3.4,26.3-1.5c0.5,0.6,0.9,1.3,1.1,2c1.1,3.6-1.4,8.1,1.3,10.1c1,0.8,2.2,0.7,3.6,0.3
			c2.7-0.7,6.3-2.7,11.8-2.6c5,0.1,8.1,1.7,10.5,2.4c1.5,0.5,2.7,0.7,3.9-0.1c3.9-2.7-0.7-10.8,3.4-13.9c2.4-1.8,5.1,0,17.8,2.3
			c9.5,1.7,9.9,1,12,2.3c4.4,2.6,5.6,7.1,8.7,21.7c6,29.2,5.1,26.9,5.3,29.1c0.1,0.9,0.2,2.3,0.4,4.1c0.8,10.4,1.8,33.3-5.6,35.7
			c-1.5,0.5-3.1,0-4.9,1.3c-3.5,2.5-3.3,8-3.4,9.3c-0.1,1.6-0.6,3.4-1.4,5.4c-1.5,3.4-4.1,7.2-7.7,10.9v0
			c-8.9,9.4-23.7,18.2-41,18.4c-21.1,0.2-37.7-12.6-44.4-21.8c-1.8-2.5-2.9-4.7-3.2-6.4c-0.1-0.5-0.2-1.6-0.7-3.2
			c-0.2-0.7-0.4-1.4-0.7-2.2c-0.5-1.2-1.1-2.5-1.9-3.9c-1.9-3.1-4.2-5.3-4.9-6c-4.1-3.7-6.2-3.5-8.2-6c-2.5-3.3-1.8-7.6-1.4-10.2
			C328.2,192.2,328.8,185.9,329.5,179.5z M443.3,157.7c1.6-2,3.5-5,5.3-8.8c-2.8,1.9-6.9,4-12,4.2c-5.5,0.2-8.1-2-12.2-2.3
			c-4.5-0.3-10.8,1.5-19.1,11c1.8,1.8,6.5,6,13.5,6.9c3.9,0.5,7.1-0.1,8.7-0.5c1.8-0.4,5.4-1.2,9.2-3.7
			C439.5,162.7,441.2,160.6,443.3,157.7z M365.3,168.8c7-0.9,11.7-5.1,13.5-6.9c-8.3-9.5-14.7-11.4-19.1-11
			c-4.1,0.3-6.7,2.5-12.2,2.3c-5.1-0.2-9.3-2.3-12-4.2c1.8,3.8,3.7,6.7,5.3,8.8c2.1,2.8,3.8,4.9,6.7,6.9c3.8,2.5,7.4,3.3,9.2,3.7
			C358.2,168.7,361.4,169.4,365.3,168.8z"/>
		<path class="st1" d="M454.4,310.4l0.6,4.6c-2,2.5-25.1,30.3-63.3,28.8c-0.3,0-0.6,0-0.9,0c-33.8-1.7-53.1-25.1-55.9-28.6l2-18.3
			c10.3,21.9,32.9,36.3,57.9,36.7c24.2,0.4,46.7-12.4,58.2-33L454.4,310.4z"/>
		<path class="st0" d="M450.8,287.7l2,12.8c-11.4,20.6-33.9,33.4-58.2,33c-24.9-0.4-47.5-14.7-57.9-36.7l0.6-5.9l4.2-6.4
			c-1.3,2.3-0.9,6.8,8.2,17.1c1.7,2.2,19.4,24.1,48.6,22.7c3.6-0.2,17.8-1.3,30.5-11.2c8.1-6.4,18.2-18.4,16.9-27.2h0.1L450.8,287.7
			z"/>
		<path class="st6" d="M448.6,149c-1.8,3.8-3.7,6.7-5.3,8.8c-2.1,2.8-3.8,4.9-6.7,6.9c-3.8,2.5-7.4,3.3-9.2,3.7
			c-1.6,0.3-4.8,1-8.7,0.5c-7-0.9-11.7-5.1-13.5-6.9c8.3-9.5,14.7-11.4,19.1-11c4.1,0.3,6.7,2.5,12.2,2.3
			C441.7,152.9,445.8,150.8,448.6,149z"/>
		<path class="st5" d="M445.9,285.9c1.3,8.8-8.8,20.8-16.9,27.2c-12.7,9.9-26.9,11-30.5,11.2c-29.3,1.4-46.9-20.5-48.6-22.7
			c-9.1-10.3-9.5-14.9-8.2-17.1c1.3-2.2,4.2-2,6.7-5.1c2.7-3.3,2.6-7.5,2.4-10.6c-0.8-14.5-2-27.3-2.5-32.5
			c6.8,9.2,23.4,22,44.4,21.8c17.3-0.2,32-9,41-18.4c-4.6,22.9-0.3,33,5.3,37.8c2.5,2.2,4.8,2.8,6.1,5.8
			C445.5,284.1,445.7,285,445.9,285.9z"/>
		<path class="st4" d="M414.4,370.3c4.5,10.9-0.6,20.5-1.4,22c-3.4,2-2.6,5-5.8,8.3c-4.1,4.2-10.5,4.6-14.4,4.6c-0.6,0-1.1,0-1.5,0
			c-3.1-0.1-9.9-0.2-14.9-4.6c-4.3-3.8-2.8-6.7-6.3-10.2c-0.8-1.2-6-9.2-3-19.2c0.2-0.7,0.4-1.3,0.7-2c3.2-7.9,10.1-11.5,11.4-12.2
			l0.6-0.2c1.5,4,5.8,6.9,10.9,6.9c5.1,0,9.4-2.9,10.9-6.9l0.6,0.2C404.3,358.2,411.1,362.1,414.4,370.3z"/>
		<path class="st6" d="M402.3,353.8c0,1.1-0.2,2.2-0.6,3.1c-1.5,4-5.8,6.9-10.9,6.9c-5.1,0-9.4-2.9-10.9-6.9c-0.4-1-0.6-2-0.6-3.1
			c0-5.6,5.2-10.1,11.5-10.1c0.3,0,0.6,0,0.9,0C397.6,344.1,402.3,348.5,402.3,353.8z"/>
		<path class="st2" d="M392.8,405.2v0.2H282.4c4-7,8.3-15.4,12-25.2c4-10.4,6.6-20,8.2-28.2c5.7,7.8,10.8,13.8,18.3,19.9
			c9.3,7.5,15.6,12.6,25.5,14.3c10.6,1.9,18.2-1.2,23.6,4.2c3.5,3.5,2,6.4,6.3,10.2c5,4.5,11.9,4.6,14.9,4.6
			C391.7,405.2,392.2,405.2,392.8,405.2z"/>
		<path class="st3" d="M390.8,343.7c-6.4,0-11.5,4.5-11.5,10.1c0,1.1,0.2,2.2,0.6,3.1l-0.6,0.2c-1.3,0.6-8.2,4.2-11.4,12.2
			c-7.9-2.5-20.4-7.5-32.9-17.7c-11.8-9.6-18.8-19.8-22.7-26.6l0.3-0.8l20.5,7.9l1.8-17C337.6,318.6,357,342,390.8,343.7z"/>
		<path class="st2" d="M379.7,120.8c1.1,3.6,2.1,7.2,3.1,10.8c-1.4,0.4-2.6,0.5-3.6-0.3c-2.8-2-0.3-6.5-1.3-10.1L379.7,120.8z"/>
		<path class="st2" d="M375.4,105.9c1.4,5,2.9,9.9,4.3,14.9l-1.8,0.5c-0.2-0.7-0.5-1.4-1.1-2c-1.7-1.9-4.3-2.1-26.3,1.5
			c-9.1,1.5-12.2,2.1-14.6,4.9c-3,3.5-2.6,7.9-2.4,12c0.3,8.7-0.7,16.6-2.9,32.4c-0.4,3.1-0.8,6.2-1.1,9.3l-44.6-10.7
			c0.4-0.9,3.1-6.4,6.7-14.3c5.5-12.2,7-16.2,11.1-24.5c1.7-3.5,4.5-8.8,8.2-15.3c9-2.3,19.2-4.4,30.3-6
			C353.7,106.9,365.2,106.1,375.4,105.9z"/>
		<path class="st6" d="M378.8,161.9c-1.8,1.8-6.5,6-13.5,6.9c-3.9,0.5-7.1-0.1-8.7-0.5c-1.8-0.4-5.4-1.2-9.2-3.7
			c-3-2-4.6-4.1-6.7-6.9c-1.6-2-3.5-5-5.3-8.8c2.8,1.9,6.9,4,12,4.2c5.5,0.2,8.1-2,12.2-2.3C364.1,150.5,370.5,152.4,378.8,161.9z"
			/>
		<path class="st0" d="M302.7,352c-1.7-2.3-3.4-4.8-5.3-7.4c-7.1-9.9-9.1-13.5-16.9-23.1c-5.3-6.5-9.9-11.6-13-14.8l45.1,17.5
			l-0.3,0.8c3.9,6.8,11,17,22.7,26.6c12.5,10.2,25,15.2,32.9,17.7c-0.3,0.6-0.5,1.3-0.7,2c-3,10,2.2,18,3,19.2
			c-5.4-5.4-13-2.3-23.6-4.2c-9.9-1.8-16.2-6.9-25.5-14.3C313.5,365.9,308.4,359.8,302.7,352z"/>
		<path class="st2" d="M365.8,72.2c0.2,4.9,1.1,9.2,2.1,12.5c-7.8-0.4-17.8-0.1-29.1,1.9c-9.1,1.6-16.9,4-23.2,6.3
			c0.3-0.8,0.7-1.5,1-2.2c0,0,8.2-16.5,37.6-32.4c3-1.6,5.1-2.7,8.2-3.2c2.8-0.4,3.9,0,5.8-0.9C366.8,58.4,365.4,64.6,365.8,72.2z"
			/>
		<path class="st2" d="M343.6,224.5c0.3,0.8,0.5,1.5,0.7,2.2l-6.1,57c-22.5-7.1-44.9-14.2-67.4-21.4c1.6-19.3,3.2-35,4.8-47.8
			L343.6,224.5z"/>
		<path class="st1" d="M343.6,224.5l-67.9-10c3.2-26.1,6.3-39.7,9.1-45.7l44.6,10.7c-0.7,6.3-1.3,12.6-2.3,18.9
			c-0.4,2.6-1.1,6.9,1.4,10.2c1.9,2.5,4.1,2.3,8.2,6c0.7,0.7,3,2.8,4.9,6C342.6,222,343.2,223.3,343.6,224.5z"/>
		<path class="st1" d="M338.2,283.6l-0.8,7.3l-0.6,5.9l-2,18.3l-1.8,17l-20.5-7.9l-45.1-17.5c1.1-16.6,2.3-31.3,3.4-44.4
			C293.3,269.4,315.8,276.5,338.2,283.6z"/>
	</g>
	<g>
		<path class="st7" d="M433.7,239.8c-8.9,9.4-23.7,18.2-41,18.4c-21.1,0.2-37.7-12.6-44.4-21.8c-1.8-2.5-2.9-4.7-3.2-6.4
			c-0.1-0.5-0.2-1.6-0.7-3.2c-0.2-0.7-0.4-1.4-0.7-2.2c-0.5-1.2-1.1-2.5-1.9-3.9c-1.9-3.1-4.2-5.3-4.9-6c-4.1-3.7-6.2-3.5-8.2-6
			c-2.5-3.3-1.8-7.6-1.4-10.2c1-6.3,1.6-12.6,2.3-18.9c0.3-3.1,0.7-6.2,1.1-9.3c2.2-15.8,3.2-23.7,2.9-32.4c-0.2-4.1-0.6-8.5,2.4-12
			c2.4-2.8,5.5-3.5,14.6-4.9c22-3.6,24.7-3.4,26.3-1.5c0.5,0.6,0.9,1.3,1.1,2c1.1,3.6-1.4,8.1,1.3,10.1c1,0.8,2.2,0.7,3.6,0.3
			c2.7-0.7,6.3-2.7,11.8-2.6c5,0.1,8.1,1.7,10.5,2.4c1.5,0.5,2.7,0.7,3.9-0.1c3.9-2.7-0.7-10.8,3.4-13.9c2.4-1.8,5.1,0,17.8,2.3
			c9.5,1.7,9.9,1,12,2.3c4.4,2.6,5.6,7.1,8.7,21.7c6,29.2,5.1,26.9,5.3,29.1c0.1,0.9,0.2,2.3,0.4,4.1c0.8,10.4,1.8,33.3-5.6,35.7
			c-1.5,0.5-3.1,0-4.9,1.3c-3.5,2.5-3.3,8-3.4,9.3c-0.1,1.6-0.6,3.4-1.4,5.4C439.9,232.2,437.3,236,433.7,239.8"/>
		<path class="st7" d="M348.3,236.3c0.5,5.2,1.8,18,2.5,32.5c0.2,3.1,0.3,7.3-2.4,10.6c-2.5,3.1-5.4,2.9-6.7,5.1
			c-1.3,2.3-0.9,6.8,8.2,17.1c1.7,2.2,19.4,24.1,48.6,22.7c3.6-0.2,17.8-1.3,30.5-11.2c8.1-6.4,18.2-18.4,16.9-27.2
			c-0.1-0.9-0.4-1.7-0.8-2.6c-1.4-3-3.6-3.6-6.1-5.8c-5.5-4.8-9.9-14.9-5.3-37.8v0"/>
		<path class="st7" d="M422.3,51c0.5,0.7,1.2,1.4,2.2,2.2c3.9,3.1,7.1,2.7,12.5,4.6c5.5,1.9,9,4.6,13.7,8.2
			c10.2,8,15.2,17.5,18.6,24.2c4.6,9.1,3.7,10.8,9.2,25.4c4.5,11.9,6.7,15.2,12,27.3c2.1,4.7,7.2,16.6,12,31.1
			c0.8,2.5,1.6,5.1,2.4,7.7c3.3,11.3,5.4,21.6,7.7,36.5c1,6.5,2.1,14,3.4,22.7c0.8,5.3,1.4,9.6,1.9,13.3c0.7,5.4,1,9.5,1,13.6
			c0,18.4,0,27.6,0,27.8c-0.1,0.8-0.3,1.8-0.4,2.8c-0.1,1.5,0,3.3,0.9,5.1c1.2,2.5,4.9,5,4.9,5c-8,4-12.9,6.8-15.9,8.6
			c-3,1.8-3.9,2.5-3.9,2.5c-3.4,3.2-7.5,7.1-12,13.9c-7.8,11.6-5.9,15.2-11.1,23.6c-3.9,6.4-14.6,12.9-36.1,25.9
			c-9.1,5.5-14.7,8.4-22.2,8.8c-3.2,0.2-6.8-1.5-10.1,0.5c-3.4,2-2.6,5-5.8,8.3c-4.1,4.2-10.5,4.6-14.4,4.6c-0.6,0-1.1,0-1.5,0
			c-3.1-0.1-9.9-0.2-14.9-4.6c-4.3-3.8-2.8-6.7-6.3-10.2c-5.4-5.4-13-2.3-23.6-4.2c-9.9-1.8-16.2-6.9-25.5-14.3
			c-7.5-6.1-12.6-12.1-18.3-19.9c-1.7-2.3-3.4-4.8-5.3-7.4c-7.1-9.9-9.1-13.5-16.9-23.1c-5.3-6.5-9.9-11.6-13-14.8
			c1.1-16.6,2.3-31.3,3.4-44.4c1.6-19.3,3.2-35,4.8-47.8c3.2-26.1,6.3-39.7,9.1-45.7c0.4-0.9,3.1-6.4,6.7-14.3
			c5.5-12.2,7-16.2,11.1-24.5c1.7-3.5,4.5-8.8,8.2-15.3c0.2-9.7,2.6-17.1,4.8-21.9c0.3-0.8,0.7-1.5,1-2.2c0,0,8.2-16.5,37.6-32.4
			c3-1.6,5.1-2.7,8.2-3.2c2.8-0.4,3.9,0,5.8-0.9c3.1-1.5,2.9-4.2,4.8-5.9c4-3.5,10.8,2.7,21.2,2.7c12.3-0.1,18.1-9,24.1-5.6
			C420.7,46.7,420.5,48.6,422.3,51"/>
		<path class="st7" d="M302.7,352C302.7,352,302.7,352,302.7,352c-1.7,8.3-4.2,17.8-8.2,28.2c-3.8,9.8-8,18.2-12,25.2"/>
		<path class="st7" d="M481.4,357.1c1.6,6.7,3.8,14.4,7.2,22.7c4.2,10.2,9,18.8,13.5,25.7"/>
		<path class="st7" d="M312.2,325c3.9,6.8,11,17,22.7,26.6c12.5,10.2,25,15.2,32.9,17.7"/>
		<path class="st7" d="M414.4,370.3c8.1-2.1,22.1-6.8,36.1-17.8c15-11.8,22.8-25.1,26.5-32.6"/>
		<path class="st7" d="M270.9,262.3c22.4,7.1,44.9,14.2,67.4,21.4"/>
		<line class="st7" x1="275.7" y1="214.5" x2="343.6" y2="224.5"/>
		<polyline class="st7" points="284.8,168.8 329.5,179.5 329.5,179.5 		"/>
		<polyline class="st7" points="456.6,177.2 456.7,177.2 502.1,174.2 		"/>
		<path class="st7" d="M442.8,223.4c23.3-1.7,46.6-3.4,69.8-5.1"/>
		<line class="st7" x1="465.5" y1="276.6" x2="517.9" y2="254.3"/>
		<polyline class="st7" points="457.1,330.3 477,319.9 518.5,298.4 		"/>
		<polyline class="st7" points="454.4,310.4 455,314.9 457.1,330.3 		"/>
		<polyline class="st7" points="344.4,226.7 338.2,283.6 337.4,290.9 336.8,296.9 334.8,315.1 333,332.1 		"/>
		<polyline class="st7" points="267.5,306.7 312.6,324.2 333,332.1 		"/>
		<polyline class="st7" points="454.4,310.4 452.8,300.5 450.8,287.7 449.6,280.4 441.4,228.8 		"/>
		<line class="st7" x1="465.5" y1="276.6" x2="450.5" y2="280.3"/>
		<path class="st7" d="M379.2,357.1c-1.3,0.6-8.2,4.2-11.4,12.2c-0.3,0.6-0.5,1.3-0.7,2c-3,10,2.2,18,3,19.2"/>
		<path class="st7" d="M402.3,357.1c2.1,1.1,8.8,5,12.1,13.2c4.5,10.9-0.6,20.5-1.4,22"/>
		<path class="st7" d="M391.7,343.7c5.9,0.4,10.6,4.7,10.6,10c0,1.1-0.2,2.2-0.6,3.1c-1.5,4-5.8,6.9-10.9,6.9
			c-5.1,0-9.4-2.9-10.9-6.9c-0.4-1-0.6-2-0.6-3.1c0-5.6,5.2-10.1,11.5-10.1C391.1,343.7,391.4,343.7,391.7,343.7z"/>
		<path class="st7" d="M336.8,296.9c10.3,21.9,32.9,36.3,57.9,36.7c24.2,0.4,46.7-12.4,58.2-33c0.1-0.1,0.2-0.3,0.3-0.5"/>
		<path class="st7" d="M334.8,315.1c2.8,3.5,22.1,26.8,55.9,28.6c0.3,0,0.6,0,0.9,0c38.3,1.5,61.3-26.3,63.3-28.8"/>
		<path class="st7" d="M310.8,114.7c9-2.3,19.2-4.4,30.3-6c12.5-1.8,24-2.6,34.2-2.8c1.4,5,2.9,9.9,4.3,14.9
			c1.1,3.6,2.1,7.2,3.1,10.8"/>
		<path class="st7" d="M405.2,131.5c0.9-7.2,2-13.2,2.9-17.7c1.1-5.6,1.7-7.4,3.4-8.8c3-2.5,7-1.9,15.9-0.9
			c18.2,1.9,14.7,1,19.7,1.9c7.7,1.4,18.7,4,31.3,9.7"/>
		<path class="st7" d="M315.6,92.8c6.3-2.4,14.1-4.7,23.2-6.3c11.3-2,21.2-2.2,29.1-1.9c-1-3.3-1.9-7.5-2.1-12.5
			c-0.3-7.6,1.1-13.8,2.4-18"/>
		<path class="st7" d="M422.3,51L422.3,51c1.2,2.3,2.5,5.6,2.7,9.6c0.6,10.9-7.2,15.9-4.9,20.3c2.3,4.3,11.1,2.3,26,4
			c10.1,1.2,18.1,3.5,23.2,5.3"/>
		<path class="st7" d="M335.4,149c2.8,1.9,6.9,4,12,4.2c5.5,0.2,8.1-2,12.2-2.3c4.5-0.3,10.8,1.5,19.1,11c-1.8,1.8-6.5,6-13.5,6.9
			c-3.9,0.5-7.1-0.1-8.7-0.5c-1.8-0.4-5.4-1.2-9.2-3.7c-3-2-4.6-4.1-6.7-6.9C339.2,155.7,337.2,152.8,335.4,149z"/>
		<path class="st7" d="M448.6,149c-2.8,1.9-6.9,4-12,4.2c-5.5,0.2-8.1-2-12.2-2.3c-4.5-0.3-10.8,1.5-19.1,11c1.8,1.8,6.5,6,13.5,6.9
			c3.9,0.5,7.1-0.1,8.7-0.5c1.8-0.4,5.4-1.2,9.2-3.7c3-2,4.6-4.1,6.7-6.9C444.9,155.7,446.8,152.8,448.6,149z"/>
		<line class="st7" x1="341.7" y1="284.5" x2="337.4" y2="290.9"/>
		<line class="st7" x1="446" y1="285.9" x2="450.8" y2="287.7"/>
		<polyline class="st7" points="282.4,405.4 392.8,405.4 502.1,405.4 		"/>
	</g>
</g>
<ellipse class="st4" cx="336.8" cy="288.6" rx="17.5" ry="18"/>
<ellipse class="st4" cx="453.1" cy="288.6" rx="15.2" ry="14.6"/>
<path class="st4" d="M357.1,250.7c0.7,3.2-11.1,8.3-18.6,11.1c-19-7.1-19.4-10.2-19.2-11.1c0.7-3.2,14-3.2,19-3.2
	C343.6,247.5,356.4,247.5,357.1,250.7z"/>
<path class="st8" d="M451,247"/>
<ellipse class="st4" cx="331.4" cy="216.3" rx="3.4" ry="3.3"/>
<ellipse class="st4" cx="331.4" cy="222.7" rx="3.4" ry="3.3"/>
<ellipse class="st4" cx="331.4" cy="229.2" rx="3.4" ry="3.3"/>
<ellipse class="st4" cx="331.4" cy="236.3" rx="3.4" ry="3.3"/>
<ellipse class="st4" cx="332.6" cy="242.5" rx="3.4" ry="3.3"/>
<ellipse class="st4" cx="338.2" cy="265.1" rx="3.4" ry="3.3"/>
<ellipse class="st4" cx="451.2" cy="216.3" rx="3.4" ry="3.3"/>
<ellipse class="st4" cx="452.5" cy="222.7" rx="3.4" ry="3.3"/>
<ellipse class="st4" cx="454.3" cy="229.2" rx="3.4" ry="3.3"/>
<ellipse class="st4" cx="455.9" cy="236.1" rx="3.4" ry="3.3"/>
<path class="st4" d="M452.7,241.9c-0.7,1.7,0.2,3.6,1.9,4.3c1.7,0.7,3.7-0.2,4.4-1.8c0.7-1.7-0.2-3.6-1.9-4.3
	C455.4,239.4,453.4,240.2,452.7,241.9z"/>
<ellipse class="st4" cx="453.1" cy="261.8" rx="3.4" ry="3.3"/>
<path class="st4" d="M457.8,269.4c-0.1-1.8-1.8-3.2-3.6-3c-1.9,0.1-3.3,1.7-3.2,3.5c0.1,1.8,1.8,3.2,3.6,3
	C456.5,272.7,457.9,271.2,457.8,269.4z"/>
<path class="st4" d="M469.3,247c1.3,2.7-6.9,12-16.9,12.5c-11,0.6-20.7-9.7-19.4-12.5c0.8-1.7,5.1,0.1,18,0
	C464,247,468.4,245.2,469.3,247z"/>
<g>
	<path d="M38.5,25.4v5.4c0,0.2-0.1,0.4-0.2,0.6c-0.2,0.2-0.4,0.2-0.6,0.2c-0.2,0-0.4-0.1-0.6-0.2s-0.2-0.4-0.2-0.6v-5.4l-3.3-4.2
		v-1.7c0-0.2,0.1-0.4,0.2-0.6s0.4-0.2,0.6-0.2s0.4,0.1,0.6,0.3s0.2,0.4,0.2,0.6v1.1l2.5,3.2l2.5-3.2v-1.1c0-0.2,0.1-0.4,0.2-0.6
		s0.4-0.2,0.6-0.2c0.2,0,0.4,0.1,0.6,0.2s0.2,0.4,0.2,0.6v1.7L38.5,25.4z"/>
	<path d="M53.9,25.2v3.5c0,0.7-0.3,1.4-1,2s-1.4,0.9-2.1,0.9h-1.9c-0.7,0-1.5-0.3-2.1-1s-1-1.3-1-2v-3.5c0-0.7,0.3-1.4,1-2
		s1.4-1,2.2-1h1.9c0.7,0,1.5,0.3,2.1,0.9S53.9,24.4,53.9,25.2z M47.3,25.2v3.3c0,0.3,0.1,0.5,0.3,0.7l0.6,0.5
		c0.1,0.1,0.3,0.2,0.6,0.2h1.9c0.3,0,0.5-0.1,0.8-0.3l0.5-0.4c0.2-0.2,0.3-0.4,0.3-0.7v-3.3c0-0.3-0.1-0.6-0.3-0.7l-0.6-0.5
		c-0.2-0.2-0.4-0.2-0.7-0.2H49c-0.4,0-0.7,0.1-0.9,0.3l-0.6,0.5C47.4,24.8,47.3,25,47.3,25.2z"/>
	<path d="M61.6,30l2.8-1.8V23c0-0.2,0.1-0.4,0.2-0.6s0.4-0.2,0.6-0.2s0.4,0.1,0.6,0.2S66,22.8,66,23v7.8c0,0.2-0.1,0.4-0.2,0.6
		s-0.4,0.2-0.6,0.2s-0.4-0.1-0.6-0.2s-0.2-0.4-0.2-0.6v-0.6l-1.4,0.9c-0.6,0.4-1.1,0.5-1.7,0.5h-0.8c-0.7,0-1.2-0.2-1.7-0.7
		c-0.5-0.5-0.7-1-0.8-1.7L57.7,23c0-0.2,0.1-0.4,0.2-0.6s0.4-0.2,0.6-0.2c0.2,0,0.4,0.1,0.6,0.2s0.2,0.4,0.2,0.6l0.2,6.1
		c0,0.6,0.4,0.9,1,0.9H61.6z"/>
	<path d="M86.8,25.9v1.9l1.1,1.9l0.6-1.9l0.2-4.8c0-0.2,0.1-0.4,0.3-0.6s0.3-0.2,0.6-0.2c0.2,0,0.4,0.1,0.6,0.2s0.2,0.4,0.2,0.6
		l-0.2,5.1L89.2,31c-0.1,0.4-0.4,0.6-0.8,0.6h-0.9c-0.3,0-0.5-0.2-0.7-0.5L86,29.6l-0.9,1.5c-0.2,0.3-0.4,0.5-0.7,0.5h-0.9
		c-0.2,0-0.4-0.1-0.5-0.2c-0.2-0.1-0.2-0.2-0.3-0.4l-0.9-3l-0.2-5c0-0.2,0.1-0.4,0.2-0.6s0.4-0.2,0.6-0.2c0.2,0,0.4,0.1,0.6,0.2
		s0.2,0.4,0.2,0.6l0.2,4.8l0.5,1.8l1.1-1.9v-1.9c0-0.2,0.1-0.4,0.2-0.6S85.8,25,86,25c0.2,0,0.4,0.1,0.6,0.2S86.8,25.6,86.8,25.9z"
		/>
	<path d="M100.6,31.6h-5c-0.2,0-0.4-0.1-0.6-0.2s-0.2-0.4-0.2-0.6c0-0.2,0.1-0.4,0.2-0.6s0.4-0.2,0.6-0.2h1.7v-6.1h-1.7
		c-0.2,0-0.4-0.1-0.6-0.2s-0.2-0.4-0.2-0.6c0-0.2,0.1-0.4,0.2-0.6s0.4-0.2,0.6-0.2h2.5c0.2,0,0.4,0.1,0.6,0.2s0.2,0.4,0.2,0.6V30
		h1.6c0.2,0,0.4,0.1,0.6,0.2s0.2,0.4,0.2,0.6s-0.1,0.4-0.2,0.6S100.8,31.6,100.6,31.6z M97.2,17.9h0.9c0.2,0,0.4,0.1,0.6,0.2
		s0.2,0.4,0.2,0.6v0.7c0,0.2-0.1,0.4-0.2,0.6s-0.4,0.2-0.6,0.2h-0.9c-0.2,0-0.4-0.1-0.6-0.3s-0.2-0.4-0.2-0.6l0-0.7
		c0-0.2,0.1-0.4,0.2-0.6S97,17.9,97.2,17.9z"/>
	<path d="M112.6,31.6h-5c-0.2,0-0.4-0.1-0.6-0.2s-0.2-0.4-0.2-0.6c0-0.2,0.1-0.4,0.2-0.6s0.4-0.2,0.6-0.2h1.6v-9.7h-1.7
		c-0.2,0-0.4-0.1-0.6-0.2s-0.2-0.4-0.2-0.6s0.1-0.4,0.2-0.6s0.4-0.2,0.6-0.2h2.5c0.2,0,0.4,0.1,0.6,0.2s0.2,0.4,0.2,0.6V30h1.7
		c0.2,0,0.4,0.1,0.6,0.2s0.2,0.4,0.2,0.6c0,0.2-0.1,0.4-0.2,0.6S112.9,31.6,112.6,31.6z"/>
	<path d="M124.7,31.6h-5c-0.2,0-0.4-0.1-0.6-0.2s-0.2-0.4-0.2-0.6c0-0.2,0.1-0.4,0.2-0.6s0.4-0.2,0.6-0.2h1.6v-9.7h-1.7
		c-0.2,0-0.4-0.1-0.6-0.2s-0.2-0.4-0.2-0.6s0.1-0.4,0.2-0.6s0.4-0.2,0.6-0.2h2.5c0.2,0,0.4,0.1,0.6,0.2s0.2,0.4,0.2,0.6V30h1.7
		c0.2,0,0.4,0.1,0.6,0.2s0.2,0.4,0.2,0.6c0,0.2-0.1,0.4-0.2,0.6S124.9,31.6,124.7,31.6z"/>
	<path d="M148,31.6h-1.6c-0.7,0-1.3-0.2-1.7-0.7s-0.7-1.1-0.7-1.7v-5.3h-0.8c-0.2,0-0.4-0.1-0.6-0.2s-0.2-0.4-0.2-0.6
		c0-0.2,0.1-0.4,0.2-0.6s0.4-0.2,0.6-0.2h0.9v-2c0-0.2,0.1-0.4,0.2-0.6s0.4-0.2,0.6-0.2c0.2,0,0.4,0.1,0.6,0.2s0.2,0.4,0.2,0.6v2
		h3.3c0.2,0,0.4,0.1,0.6,0.2s0.2,0.4,0.2,0.6c0,0.2-0.1,0.4-0.2,0.6s-0.4,0.2-0.6,0.2h-3.3v5.3c0,0.2,0.1,0.4,0.2,0.6
		s0.4,0.2,0.6,0.2h1.6c0.4,0,0.7-0.2,0.9-0.7s0.4-0.7,0.8-0.7c0.2,0,0.4,0.1,0.6,0.2s0.2,0.4,0.2,0.6c0,0.5-0.2,1-0.7,1.5
		S148.7,31.6,148,31.6z"/>
	<path d="M156.8,25.7h3.2c0.2,0,0.4,0,0.8,0.1l0-1.2c0-0.2-0.1-0.4-0.2-0.6s-0.4-0.2-0.6-0.2h-3.1c-0.2,0-0.4-0.1-0.6-0.2
		S156,23.3,156,23c0-0.2,0.1-0.4,0.2-0.6c0.2-0.2,0.4-0.2,0.6-0.2h3.1c0.7,0,1.3,0.2,1.7,0.7c0.5,0.5,0.7,1.1,0.7,1.7l0.2,6.1
		c0,0.2-0.1,0.4-0.2,0.6s-0.4,0.2-0.6,0.2c-0.2,0-0.4-0.1-0.6-0.2s-0.2-0.4-0.2-0.6l-1.4,0.8h-2.8c-0.7,0-1.3-0.2-1.8-0.7
		s-0.7-1.1-0.7-1.8v-1c0-0.7,0.2-1.3,0.7-1.8S156.1,25.7,156.8,25.7z M160.9,28.9l0-0.7c0-0.2-0.1-0.4-0.2-0.6s-0.3-0.2-0.6-0.2
		h-3.2c-0.2,0-0.4,0.1-0.6,0.2S156,28,156,28.2v0.9c0,0.2,0.1,0.4,0.2,0.6c0.2,0.2,0.4,0.2,0.6,0.2h2.3L160.9,28.9z"/>
	<path d="M166.4,30.8V19.5c0-0.2,0.1-0.4,0.2-0.6s0.4-0.2,0.6-0.2s0.4,0.1,0.6,0.2s0.2,0.4,0.2,0.6v6.7l4.4-3.8
		c0.2-0.2,0.4-0.2,0.6-0.2c0.2,0,0.4,0.1,0.6,0.2c0.2,0.2,0.2,0.4,0.2,0.6c0,0.2-0.1,0.4-0.3,0.6l-3.4,2.9l4.2,3.7
		c0.2,0.1,0.3,0.3,0.3,0.5c0,0.2-0.1,0.4-0.2,0.6s-0.3,0.3-0.6,0.3s-0.4-0.1-0.6-0.2l-4.4-3.8l-0.9,0.7v2.5c0,0.2-0.1,0.4-0.2,0.6
		c-0.2,0.2-0.4,0.2-0.6,0.2s-0.4-0.1-0.6-0.2S166.4,31.1,166.4,30.8z"/>
	<path d="M186.8,25.3v2c0,0.2-0.1,0.4-0.2,0.6s-0.4,0.2-0.6,0.2h-5.8v0.5c0,0.3,0.1,0.5,0.4,0.7l0.5,0.4c0.3,0.2,0.5,0.3,0.7,0.3
		h4.2c0.2,0,0.4,0.1,0.6,0.2s0.2,0.4,0.2,0.6c0,0.2-0.1,0.4-0.2,0.6s-0.4,0.2-0.6,0.2h-4.3c-0.3,0-0.6-0.1-0.9-0.2s-0.5-0.2-0.7-0.4
		l-0.7-0.6c-0.2-0.2-0.4-0.4-0.6-0.8s-0.2-0.6-0.2-0.9V25c0-0.2,0.1-0.5,0.2-0.9s0.4-0.6,0.6-0.8l0.7-0.5c0.4-0.4,0.9-0.5,1.5-0.5
		h2.3c0.6,0,1.1,0.2,1.6,0.7l0.6,0.6C186.5,23.9,186.8,24.5,186.8,25.3z M180.2,25.2v1.3h5v-1.1c0-0.3-0.1-0.5-0.3-0.7l-0.5-0.4
		c-0.2-0.2-0.5-0.3-0.7-0.3h-2.1c-0.3,0-0.5,0.1-0.7,0.3l-0.5,0.4C180.3,24.7,180.2,24.9,180.2,25.2z"/>
	<path d="M208.4,31.6h-1.6c-0.7,0-1.3-0.2-1.7-0.7s-0.7-1.1-0.7-1.7v-5.3h-0.8c-0.2,0-0.4-0.1-0.6-0.2s-0.2-0.4-0.2-0.6
		c0-0.2,0.1-0.4,0.2-0.6s0.4-0.2,0.6-0.2h0.9v-2c0-0.2,0.1-0.4,0.2-0.6s0.4-0.2,0.6-0.2c0.2,0,0.4,0.1,0.6,0.2s0.2,0.4,0.2,0.6v2
		h3.3c0.2,0,0.4,0.1,0.6,0.2s0.2,0.4,0.2,0.6c0,0.2-0.1,0.4-0.2,0.6s-0.4,0.2-0.6,0.2h-3.3v5.3c0,0.2,0.1,0.4,0.2,0.6
		s0.4,0.2,0.6,0.2h1.6c0.4,0,0.7-0.2,0.9-0.7s0.4-0.7,0.8-0.7c0.2,0,0.4,0.1,0.6,0.2s0.2,0.4,0.2,0.6c0,0.5-0.2,1-0.7,1.5
		S209.1,31.6,208.4,31.6z"/>
	<path d="M214.7,30.8V19.5c0-0.2,0.1-0.4,0.2-0.6s0.4-0.2,0.6-0.2s0.4,0.1,0.6,0.2s0.2,0.4,0.2,0.6v4.1l1.3-0.9
		c0.6-0.4,1.1-0.6,1.6-0.6h1c0.7,0,1.2,0.2,1.7,0.7s0.7,1.1,0.8,1.7l0.2,6.1c0,0.2-0.1,0.4-0.2,0.6s-0.4,0.2-0.6,0.2
		s-0.4-0.1-0.6-0.2s-0.2-0.4-0.2-0.6l-0.2-6.2c0-0.2-0.1-0.4-0.3-0.6s-0.4-0.2-0.6-0.2h-0.9c-0.2,0-0.4,0.1-0.7,0.2l-2.3,1.5v5.2
		c0,0.2-0.1,0.4-0.2,0.6s-0.4,0.2-0.6,0.2s-0.4-0.1-0.6-0.2S214.7,31.1,214.7,30.8z"/>
	<path d="M226.8,30.8V23c0-0.2,0.1-0.4,0.2-0.6s0.4-0.2,0.6-0.2s0.4,0.1,0.6,0.2s0.2,0.4,0.2,0.6v1l1.3-1.1c0.6-0.5,1.1-0.7,1.6-0.7
		h1.2c0.7,0,1.3,0.2,1.7,0.7s0.7,1.1,0.7,1.7v0.4c0,0.2-0.1,0.4-0.2,0.6s-0.4,0.2-0.6,0.2s-0.4-0.1-0.6-0.2s-0.2-0.4-0.2-0.6v-0.5
		c0-0.2-0.1-0.4-0.2-0.6s-0.4-0.2-0.6-0.2h-1.1c-0.2,0-0.5,0.1-0.8,0.4l-2.3,2v4.6c0,0.2-0.1,0.4-0.2,0.6s-0.4,0.2-0.6,0.2
		c-0.2,0-0.4-0.1-0.6-0.2S226.8,31.1,226.8,30.8z"/>
	<path d="M247.2,25.3v2c0,0.2-0.1,0.4-0.2,0.6s-0.4,0.2-0.6,0.2h-5.8v0.5c0,0.3,0.1,0.5,0.4,0.7l0.5,0.4c0.3,0.2,0.5,0.3,0.7,0.3
		h4.2c0.2,0,0.4,0.1,0.6,0.2s0.2,0.4,0.2,0.6c0,0.2-0.1,0.4-0.2,0.6s-0.4,0.2-0.6,0.2H242c-0.3,0-0.6-0.1-0.9-0.2s-0.5-0.2-0.7-0.4
		l-0.7-0.6c-0.2-0.2-0.4-0.4-0.6-0.8s-0.2-0.6-0.2-0.9V25c0-0.2,0.1-0.5,0.2-0.9s0.4-0.6,0.6-0.8l0.7-0.5c0.4-0.4,0.9-0.5,1.5-0.5
		h2.3c0.6,0,1.1,0.2,1.6,0.7l0.6,0.6C246.9,23.9,247.2,24.5,247.2,25.3z M240.6,25.2v1.3h5v-1.1c0-0.3-0.1-0.5-0.3-0.7l-0.5-0.4
		c-0.2-0.2-0.5-0.3-0.7-0.3h-2.1c-0.3,0-0.5,0.1-0.7,0.3l-0.5,0.4C240.7,24.7,240.6,24.9,240.6,25.2z"/>
	<path d="M259.2,25.3v2c0,0.2-0.1,0.4-0.2,0.6s-0.4,0.2-0.6,0.2h-5.8v0.5c0,0.3,0.1,0.5,0.4,0.7l0.5,0.4c0.3,0.2,0.5,0.3,0.7,0.3
		h4.2c0.2,0,0.4,0.1,0.6,0.2s0.2,0.4,0.2,0.6c0,0.2-0.1,0.4-0.2,0.6s-0.4,0.2-0.6,0.2h-4.3c-0.3,0-0.6-0.1-0.9-0.2s-0.5-0.2-0.7-0.4
		l-0.7-0.6c-0.2-0.2-0.4-0.4-0.6-0.8s-0.2-0.6-0.2-0.9V25c0-0.2,0.1-0.5,0.2-0.9s0.4-0.6,0.6-0.8l0.7-0.5c0.4-0.4,0.9-0.5,1.5-0.5
		h2.3c0.6,0,1.1,0.2,1.6,0.7l0.6,0.6C259,23.9,259.2,24.5,259.2,25.3z M252.6,25.2v1.3h5v-1.1c0-0.3-0.1-0.5-0.3-0.7l-0.5-0.4
		c-0.2-0.2-0.5-0.3-0.7-0.3h-2.1c-0.3,0-0.5,0.1-0.7,0.3l-0.5,0.4C252.7,24.7,252.6,24.9,252.6,25.2z"/>
	<path d="M282.6,31.6h-3.5c-0.6,0-1.1-0.2-1.6-0.6l-1.6-1.4c-0.5-0.4-0.8-1-0.8-1.7v-2.1c0-0.7,0.3-1.3,0.9-1.8l1.4-1.2
		c0.5-0.4,1-0.6,1.5-0.6h3.7c0.2,0,0.4,0.1,0.6,0.2s0.2,0.4,0.2,0.6c0,0.2-0.1,0.4-0.2,0.6s-0.4,0.2-0.6,0.2h-3.5
		c-0.2,0-0.4,0.1-0.6,0.3l-1.3,1.1c-0.2,0.2-0.3,0.4-0.3,0.7v2c0,0.2,0.1,0.4,0.3,0.5l1.4,1.2c0.2,0.2,0.4,0.2,0.7,0.2h3.4
		c0.2,0,0.4,0.1,0.6,0.2s0.2,0.4,0.2,0.6s-0.1,0.4-0.2,0.6S282.8,31.6,282.6,31.6z"/>
	<path d="M295.5,25.3v2c0,0.2-0.1,0.4-0.2,0.6s-0.4,0.2-0.6,0.2h-5.8v0.5c0,0.3,0.1,0.5,0.4,0.7l0.5,0.4c0.3,0.2,0.5,0.3,0.7,0.3
		h4.2c0.2,0,0.4,0.1,0.6,0.2s0.2,0.4,0.2,0.6c0,0.2-0.1,0.4-0.2,0.6s-0.4,0.2-0.6,0.2h-4.3c-0.3,0-0.6-0.1-0.9-0.2s-0.5-0.2-0.7-0.4
		l-0.7-0.6c-0.2-0.2-0.4-0.4-0.6-0.8s-0.2-0.6-0.2-0.9V25c0-0.2,0.1-0.5,0.2-0.9s0.4-0.6,0.6-0.8l0.7-0.5c0.4-0.4,0.9-0.5,1.5-0.5
		h2.3c0.6,0,1.1,0.2,1.6,0.7l0.6,0.6C295.3,23.9,295.5,24.5,295.5,25.3z M288.9,25.2v1.3h5v-1.1c0-0.3-0.1-0.5-0.3-0.7l-0.5-0.4
		c-0.2-0.2-0.5-0.3-0.7-0.3h-2.1c-0.3,0-0.5,0.1-0.7,0.3l-0.5,0.4C289,24.7,288.9,24.9,288.9,25.2z"/>
	<path d="M303.2,24.1l-2.2,1.5v5.2c0,0.2-0.1,0.4-0.2,0.6s-0.4,0.2-0.6,0.2s-0.4-0.1-0.6-0.2s-0.2-0.4-0.2-0.6V23
		c0-0.2,0.1-0.4,0.2-0.6s0.4-0.2,0.6-0.2c0.2,0,0.4,0.1,0.6,0.2s0.2,0.4,0.2,0.6v0.5l1.5-0.9c0.5-0.3,1.1-0.5,1.7-0.5h0.8
		c0.7,0,1.2,0.2,1.7,0.7c0.5,0.5,0.7,1,0.8,1.7l0.2,6.2c0,0.2-0.1,0.4-0.2,0.6s-0.4,0.2-0.6,0.2c-0.2,0-0.4-0.1-0.6-0.2
		s-0.2-0.3-0.3-0.6l-0.2-6.1c0-0.6-0.3-0.9-0.9-0.9H304C303.7,23.8,303.5,23.9,303.2,24.1z"/>
	<path d="M317.1,31.6h-1.6c-0.7,0-1.3-0.2-1.7-0.7s-0.7-1.1-0.7-1.7v-5.3h-0.8c-0.2,0-0.4-0.1-0.6-0.2s-0.2-0.4-0.2-0.6
		c0-0.2,0.1-0.4,0.2-0.6s0.4-0.2,0.6-0.2h0.9v-2c0-0.2,0.1-0.4,0.2-0.6s0.4-0.2,0.6-0.2c0.2,0,0.4,0.1,0.6,0.2s0.2,0.4,0.2,0.6v2
		h3.3c0.2,0,0.4,0.1,0.6,0.2s0.2,0.4,0.2,0.6c0,0.2-0.1,0.4-0.2,0.6s-0.4,0.2-0.6,0.2h-3.3v5.3c0,0.2,0.1,0.4,0.2,0.6
		s0.4,0.2,0.6,0.2h1.6c0.4,0,0.7-0.2,0.9-0.7s0.4-0.7,0.8-0.7c0.2,0,0.4,0.1,0.6,0.2s0.2,0.4,0.2,0.6c0,0.5-0.2,1-0.7,1.5
		S317.9,31.6,317.1,31.6z"/>
	<path d="M327.4,30l2.8-1.8V23c0-0.2,0.1-0.4,0.2-0.6s0.4-0.2,0.6-0.2s0.4,0.1,0.6,0.2s0.2,0.4,0.2,0.6v7.8c0,0.2-0.1,0.4-0.2,0.6
		s-0.4,0.2-0.6,0.2s-0.4-0.1-0.6-0.2s-0.2-0.4-0.2-0.6v-0.6l-1.4,0.9c-0.6,0.4-1.1,0.5-1.7,0.5h-0.8c-0.7,0-1.2-0.2-1.7-0.7
		c-0.5-0.5-0.7-1-0.8-1.7l-0.2-6.2c0-0.2,0.1-0.4,0.2-0.6s0.4-0.2,0.6-0.2c0.2,0,0.4,0.1,0.6,0.2s0.2,0.4,0.2,0.6l0.2,6.1
		c0,0.6,0.4,0.9,1,0.9H327.4z"/>
	<path d="M335.5,30.8V23c0-0.2,0.1-0.4,0.2-0.6s0.4-0.2,0.6-0.2s0.4,0.1,0.6,0.2s0.2,0.4,0.2,0.6v1l1.3-1.1c0.6-0.5,1.1-0.7,1.6-0.7
		h1.2c0.7,0,1.3,0.2,1.7,0.7s0.7,1.1,0.7,1.7v0.4c0,0.2-0.1,0.4-0.2,0.6S343.2,26,343,26s-0.4-0.1-0.6-0.2s-0.2-0.4-0.2-0.6v-0.5
		c0-0.2-0.1-0.4-0.2-0.6s-0.4-0.2-0.6-0.2h-1.1c-0.2,0-0.5,0.1-0.8,0.4l-2.3,2v4.6c0,0.2-0.1,0.4-0.2,0.6s-0.4,0.2-0.6,0.2
		c-0.2,0-0.4-0.1-0.6-0.2S335.5,31.1,335.5,30.8z"/>
	<path d="M354.2,31.6h-5c-0.2,0-0.4-0.1-0.6-0.2s-0.2-0.4-0.2-0.6c0-0.2,0.1-0.4,0.2-0.6s0.4-0.2,0.6-0.2h1.7v-6.1h-1.7
		c-0.2,0-0.4-0.1-0.6-0.2s-0.2-0.4-0.2-0.6c0-0.2,0.1-0.4,0.2-0.6s0.4-0.2,0.6-0.2h2.5c0.2,0,0.4,0.1,0.6,0.2s0.2,0.4,0.2,0.6V30
		h1.6c0.2,0,0.4,0.1,0.6,0.2s0.2,0.4,0.2,0.6s-0.1,0.4-0.2,0.6S354.5,31.6,354.2,31.6z M350.9,17.9h0.9c0.2,0,0.4,0.1,0.6,0.2
		s0.2,0.4,0.2,0.6v0.7c0,0.2-0.1,0.4-0.2,0.6s-0.4,0.2-0.6,0.2h-0.9c-0.2,0-0.4-0.1-0.6-0.3s-0.2-0.4-0.2-0.6l0-0.7
		c0-0.2,0.1-0.4,0.2-0.6S350.7,17.9,350.9,17.9z"/>
	<path d="M368,25.3v2c0,0.2-0.1,0.4-0.2,0.6s-0.4,0.2-0.6,0.2h-5.8v0.5c0,0.3,0.1,0.5,0.4,0.7l0.5,0.4c0.3,0.2,0.5,0.3,0.7,0.3h4.2
		c0.2,0,0.4,0.1,0.6,0.2s0.2,0.4,0.2,0.6c0,0.2-0.1,0.4-0.2,0.6s-0.4,0.2-0.6,0.2h-4.3c-0.3,0-0.6-0.1-0.9-0.2s-0.5-0.2-0.7-0.4
		l-0.7-0.6c-0.2-0.2-0.4-0.4-0.6-0.8s-0.2-0.6-0.2-0.9V25c0-0.2,0.1-0.5,0.2-0.9s0.4-0.6,0.6-0.8l0.7-0.5c0.4-0.4,0.9-0.5,1.5-0.5
		h2.3c0.6,0,1.1,0.2,1.6,0.7l0.6,0.6C367.7,23.9,368,24.5,368,25.3z M361.4,25.2v1.3h5v-1.1c0-0.3-0.1-0.5-0.3-0.7l-0.5-0.4
		c-0.2-0.2-0.5-0.3-0.7-0.3h-2.1c-0.3,0-0.5,0.1-0.7,0.3l-0.5,0.4C361.5,24.7,361.4,24.9,361.4,25.2z"/>
	<path d="M374.1,22.2h3.8c0.6,0,1.1,0.2,1.6,0.5s0.7,0.7,0.7,1c0,0.2-0.1,0.4-0.2,0.6s-0.4,0.2-0.6,0.2c-0.3,0-0.5-0.1-0.7-0.4
		s-0.4-0.4-0.7-0.4h-3.7c-0.4,0-0.5,0.2-0.5,0.5c0,0.2,0.1,0.4,0.4,0.5l4.4,1.9c0.4,0.2,0.8,0.5,1.1,0.9s0.4,0.9,0.4,1.4
		c0,0.7-0.2,1.3-0.7,1.8s-1.1,0.7-1.7,0.7h-3.3c-0.6,0-1.1-0.2-1.6-0.5s-0.7-0.7-0.7-1c0-0.2,0.1-0.4,0.2-0.6s0.4-0.2,0.6-0.2
		c0.2,0,0.4,0.1,0.7,0.4s0.6,0.4,1,0.4h3.1c0.2,0,0.4-0.1,0.6-0.3s0.2-0.4,0.2-0.6c0-0.4-0.2-0.6-0.5-0.8l-4.4-2
		c-0.4-0.2-0.7-0.5-1-0.8s-0.3-0.7-0.3-1.1c0-0.6,0.2-1.1,0.6-1.5S373.5,22.2,374.1,22.2z"/>
	<path d="M398.4,25.7h3.2c0.2,0,0.4,0,0.8,0.1l0-1.2c0-0.2-0.1-0.4-0.2-0.6c-0.2-0.2-0.4-0.2-0.6-0.2h-3.1c-0.2,0-0.4-0.1-0.6-0.2
		s-0.2-0.4-0.2-0.6c0-0.2,0.1-0.4,0.2-0.6c0.2-0.2,0.4-0.2,0.6-0.2h3.1c0.7,0,1.3,0.2,1.7,0.7c0.5,0.5,0.7,1.1,0.7,1.7l0.2,6.1
		c0,0.2-0.1,0.4-0.2,0.6c-0.2,0.2-0.4,0.2-0.6,0.2c-0.2,0-0.4-0.1-0.6-0.2c-0.2-0.2-0.2-0.4-0.2-0.6l-1.4,0.8h-2.8
		c-0.7,0-1.3-0.2-1.8-0.7s-0.7-1.1-0.7-1.8v-1c0-0.7,0.2-1.3,0.7-1.8S397.7,25.7,398.4,25.7z M402.5,28.9l0-0.7
		c0-0.2-0.1-0.4-0.2-0.6c-0.2-0.2-0.3-0.2-0.6-0.2h-3.2c-0.2,0-0.4,0.1-0.6,0.2s-0.2,0.4-0.2,0.6v0.9c0,0.2,0.1,0.4,0.2,0.6
		c0.2,0.2,0.4,0.2,0.6,0.2h2.3L402.5,28.9z"/>
	<path d="M411.9,24.1l-2.2,1.5v5.2c0,0.2-0.1,0.4-0.2,0.6s-0.4,0.2-0.6,0.2s-0.4-0.1-0.6-0.2S408,31,408,30.8V23
		c0-0.2,0.1-0.4,0.2-0.6s0.4-0.2,0.6-0.2c0.2,0,0.4,0.1,0.6,0.2s0.2,0.4,0.2,0.6v0.5l1.5-0.9c0.5-0.3,1.1-0.5,1.7-0.5h0.8
		c0.7,0,1.2,0.2,1.7,0.7s0.7,1,0.8,1.7l0.2,6.2c0,0.2-0.1,0.4-0.2,0.6s-0.4,0.2-0.6,0.2c-0.2,0-0.4-0.1-0.6-0.2s-0.2-0.3-0.3-0.6
		l-0.2-6.1c0-0.6-0.3-0.9-0.9-0.9h-0.8C412.5,23.8,412.2,23.9,411.9,24.1z"/>
	<path d="M426.7,23.4v-3.9c0-0.2,0.1-0.4,0.2-0.6s0.3-0.2,0.6-0.2c0.2,0,0.4,0.1,0.6,0.2s0.2,0.4,0.2,0.6v11.3
		c0,0.2-0.1,0.4-0.2,0.6s-0.4,0.2-0.6,0.2c-0.2,0-0.4-0.1-0.6-0.2s-0.2-0.4-0.2-0.6v-0.4c-0.8,0.8-1.5,1.2-2.2,1.2h-1.4
		c-0.6,0-1.1-0.2-1.7-0.7l-0.7-0.6c-0.2-0.1-0.3-0.4-0.4-0.8s-0.2-0.7-0.2-1v-3.3c0-0.4,0.1-0.7,0.2-1.1s0.3-0.6,0.5-0.8l0.7-0.6
		c0.5-0.4,1-0.6,1.7-0.6h1.2c0.6,0,1.2,0.2,1.8,0.7L426.7,23.4z M424.3,23.9h-1.1c-0.2,0-0.5,0.1-0.7,0.3l-0.5,0.5
		c-0.2,0.2-0.3,0.4-0.3,0.6v3.5c0,0.2,0.1,0.4,0.3,0.6l0.5,0.5c0.2,0.1,0.3,0.2,0.5,0.2h1.3c0.2,0,0.4-0.1,0.6-0.3l1.3-1.1
		c0.2-0.2,0.3-0.4,0.3-0.7v-1.8c0-0.4-0.1-0.7-0.3-0.9l-1.3-1.1C424.8,23.9,424.6,23.9,424.3,23.9z"/>
	<path d="M450,31.6h-1.6c-0.7,0-1.3-0.2-1.7-0.7s-0.7-1.1-0.7-1.7v-5.3h-0.8c-0.2,0-0.4-0.1-0.6-0.2s-0.2-0.4-0.2-0.6
		c0-0.2,0.1-0.4,0.2-0.6s0.4-0.2,0.6-0.2h0.9v-2c0-0.2,0.1-0.4,0.2-0.6s0.4-0.2,0.6-0.2c0.2,0,0.4,0.1,0.6,0.2s0.2,0.4,0.2,0.6v2
		h3.3c0.2,0,0.4,0.1,0.6,0.2s0.2,0.4,0.2,0.6c0,0.2-0.1,0.4-0.2,0.6s-0.4,0.2-0.6,0.2h-3.3v5.3c0,0.2,0.1,0.4,0.2,0.6
		s0.4,0.2,0.6,0.2h1.6c0.4,0,0.7-0.2,0.9-0.7s0.4-0.7,0.8-0.7c0.2,0,0.4,0.1,0.6,0.2s0.2,0.4,0.2,0.6c0,0.5-0.2,1-0.7,1.5
		S450.7,31.6,450,31.6z"/>
	<path d="M456.3,30.8V19.5c0-0.2,0.1-0.4,0.2-0.6s0.4-0.2,0.6-0.2s0.4,0.1,0.6,0.2s0.2,0.4,0.2,0.6v4.1l1.3-0.9
		c0.6-0.4,1.1-0.6,1.6-0.6h1c0.7,0,1.2,0.2,1.7,0.7s0.7,1.1,0.8,1.7l0.2,6.1c0,0.2-0.1,0.4-0.2,0.6s-0.4,0.2-0.6,0.2
		s-0.4-0.1-0.6-0.2s-0.2-0.4-0.2-0.6l-0.2-6.2c0-0.2-0.1-0.4-0.3-0.6s-0.4-0.2-0.6-0.2H461c-0.2,0-0.4,0.1-0.7,0.2l-2.3,1.5v5.2
		c0,0.2-0.1,0.4-0.2,0.6s-0.4,0.2-0.6,0.2s-0.4-0.1-0.6-0.2S456.3,31.1,456.3,30.8z"/>
	<path d="M476.7,25.3v2c0,0.2-0.1,0.4-0.2,0.6s-0.4,0.2-0.6,0.2h-5.8v0.5c0,0.3,0.1,0.5,0.4,0.7l0.5,0.4c0.3,0.2,0.5,0.3,0.7,0.3
		h4.2c0.2,0,0.4,0.1,0.6,0.2s0.2,0.4,0.2,0.6c0,0.2-0.1,0.4-0.2,0.6s-0.4,0.2-0.6,0.2h-4.3c-0.3,0-0.6-0.1-0.9-0.2s-0.5-0.2-0.7-0.4
		l-0.7-0.6c-0.2-0.2-0.4-0.4-0.6-0.8s-0.2-0.6-0.2-0.9V25c0-0.2,0.1-0.5,0.2-0.9s0.4-0.6,0.6-0.8l0.7-0.5c0.4-0.4,0.9-0.5,1.5-0.5
		h2.3c0.6,0,1.1,0.2,1.6,0.7l0.6,0.6C476.5,23.9,476.7,24.5,476.7,25.3z M470.1,25.2v1.3h5v-1.1c0-0.3-0.1-0.5-0.3-0.7l-0.5-0.4
		c-0.2-0.2-0.5-0.3-0.7-0.3h-2.1c-0.3,0-0.5,0.1-0.7,0.3l-0.5,0.4C470.2,24.7,470.1,24.9,470.1,25.2z"/>
	<path d="M499.2,23.4v-3.9c0-0.2,0.1-0.4,0.2-0.6s0.3-0.2,0.6-0.2c0.2,0,0.4,0.1,0.6,0.2s0.2,0.4,0.2,0.6v11.3
		c0,0.2-0.1,0.4-0.2,0.6s-0.4,0.2-0.6,0.2c-0.2,0-0.4-0.1-0.6-0.2s-0.2-0.4-0.2-0.6v-0.4c-0.8,0.8-1.5,1.2-2.2,1.2h-1.4
		c-0.6,0-1.1-0.2-1.7-0.7l-0.7-0.6c-0.2-0.1-0.3-0.4-0.4-0.8s-0.2-0.7-0.2-1v-3.3c0-0.4,0.1-0.7,0.2-1.1s0.3-0.6,0.5-0.8l0.7-0.6
		c0.5-0.4,1-0.6,1.7-0.6h1.2c0.6,0,1.2,0.2,1.8,0.7L499.2,23.4z M496.8,23.9h-1.1c-0.2,0-0.5,0.1-0.7,0.3l-0.5,0.5
		c-0.2,0.2-0.3,0.4-0.3,0.6v3.5c0,0.2,0.1,0.4,0.3,0.6l0.5,0.5c0.2,0.1,0.3,0.2,0.5,0.2h1.3c0.2,0,0.4-0.1,0.6-0.3l1.3-1.1
		c0.2-0.2,0.3-0.4,0.3-0.7v-1.8c0-0.4-0.1-0.7-0.3-0.9l-1.3-1.1C497.3,23.9,497.1,23.9,496.8,23.9z"/>
	<path d="M512.9,25.3v2c0,0.2-0.1,0.4-0.2,0.6s-0.4,0.2-0.6,0.2h-5.8v0.5c0,0.3,0.1,0.5,0.4,0.7l0.5,0.4c0.3,0.2,0.5,0.3,0.7,0.3
		h4.2c0.2,0,0.4,0.1,0.6,0.2s0.2,0.4,0.2,0.6c0,0.2-0.1,0.4-0.2,0.6s-0.4,0.2-0.6,0.2h-4.3c-0.3,0-0.6-0.1-0.9-0.2s-0.5-0.2-0.7-0.4
		l-0.7-0.6c-0.2-0.2-0.4-0.4-0.6-0.8s-0.2-0.6-0.2-0.9V25c0-0.2,0.1-0.5,0.2-0.9s0.4-0.6,0.6-0.8l0.7-0.5c0.4-0.4,0.9-0.5,1.5-0.5
		h2.3c0.6,0,1.1,0.2,1.6,0.7l0.6,0.6C512.7,23.9,512.9,24.5,512.9,25.3z M506.3,25.2v1.3h5v-1.1c0-0.3-0.1-0.5-0.3-0.7l-0.5-0.4
		c-0.2-0.2-0.5-0.3-0.7-0.3h-2.1c-0.3,0-0.5,0.1-0.7,0.3l-0.5,0.4C506.4,24.7,506.3,24.9,506.3,25.2z"/>
	<path d="M519.2,25.7h3.2c0.2,0,0.4,0,0.8,0.1l0-1.2c0-0.2-0.1-0.4-0.2-0.6c-0.2-0.2-0.4-0.2-0.6-0.2h-3.1c-0.2,0-0.4-0.1-0.6-0.2
		c-0.2-0.2-0.2-0.4-0.2-0.6c0-0.2,0.1-0.4,0.2-0.6c0.2-0.2,0.4-0.2,0.6-0.2h3.1c0.7,0,1.3,0.2,1.7,0.7s0.7,1.1,0.7,1.7l0.2,6.1
		c0,0.2-0.1,0.4-0.2,0.6s-0.4,0.2-0.6,0.2c-0.2,0-0.4-0.1-0.6-0.2s-0.2-0.4-0.2-0.6l-1.4,0.8h-2.8c-0.7,0-1.3-0.2-1.8-0.7
		s-0.7-1.1-0.7-1.8v-1c0-0.7,0.2-1.3,0.7-1.8S518.5,25.7,519.2,25.7z M523.3,28.9l0-0.7c0-0.2-0.1-0.4-0.2-0.6
		c-0.2-0.2-0.3-0.2-0.6-0.2h-3.2c-0.2,0-0.4,0.1-0.6,0.2c-0.2,0.2-0.2,0.4-0.2,0.6v0.9c0,0.2,0.1,0.4,0.2,0.6s0.4,0.2,0.6,0.2h2.3
		L523.3,28.9z"/>
	<path d="M534.6,31.6h-1.6c-0.7,0-1.3-0.2-1.7-0.7s-0.7-1.1-0.7-1.7v-5.3h-0.8c-0.2,0-0.4-0.1-0.6-0.2s-0.2-0.4-0.2-0.6
		c0-0.2,0.1-0.4,0.2-0.6s0.4-0.2,0.6-0.2h0.9v-2c0-0.2,0.1-0.4,0.2-0.6s0.4-0.2,0.6-0.2c0.2,0,0.4,0.1,0.6,0.2s0.2,0.4,0.2,0.6v2
		h3.3c0.2,0,0.4,0.1,0.6,0.2s0.2,0.4,0.2,0.6c0,0.2-0.1,0.4-0.2,0.6s-0.4,0.2-0.6,0.2h-3.3v5.3c0,0.2,0.1,0.4,0.2,0.6
		s0.4,0.2,0.6,0.2h1.6c0.4,0,0.7-0.2,0.9-0.7s0.4-0.7,0.8-0.7c0.2,0,0.4,0.1,0.6,0.2s0.2,0.4,0.2,0.6c0,0.5-0.2,1-0.7,1.5
		S535.3,31.6,534.6,31.6z"/>
	<path d="M540.9,30.8V19.5c0-0.2,0.1-0.4,0.2-0.6s0.4-0.2,0.6-0.2s0.4,0.1,0.6,0.2s0.2,0.4,0.2,0.6v4.1l1.3-0.9
		c0.6-0.4,1.1-0.6,1.6-0.6h1c0.7,0,1.2,0.2,1.7,0.7s0.7,1.1,0.8,1.7l0.2,6.1c0,0.2-0.1,0.4-0.2,0.6s-0.4,0.2-0.6,0.2
		s-0.4-0.1-0.6-0.2s-0.2-0.4-0.2-0.6l-0.2-6.2c0-0.2-0.1-0.4-0.3-0.6s-0.4-0.2-0.6-0.2h-0.9c-0.2,0-0.4,0.1-0.7,0.2l-2.3,1.5v5.2
		c0,0.2-0.1,0.4-0.2,0.6s-0.4,0.2-0.6,0.2s-0.4-0.1-0.6-0.2S540.9,31.1,540.9,30.8z"/>
	<path d="M573.3,25.2v3.5c0,0.7-0.3,1.4-1,2s-1.4,0.9-2.1,0.9h-1.9c-0.7,0-1.5-0.3-2.1-1s-1-1.3-1-2v-3.5c0-0.7,0.3-1.4,1-2
		s1.4-1,2.2-1h1.9c0.7,0,1.5,0.3,2.1,0.9S573.3,24.4,573.3,25.2z M566.7,25.2v3.3c0,0.3,0.1,0.5,0.3,0.7l0.6,0.5
		c0.1,0.1,0.3,0.2,0.6,0.2h1.9c0.3,0,0.5-0.1,0.8-0.3l0.5-0.4c0.2-0.2,0.3-0.4,0.3-0.7v-3.3c0-0.3-0.1-0.6-0.3-0.7l-0.6-0.5
		c-0.2-0.2-0.4-0.2-0.7-0.2h-1.7c-0.4,0-0.7,0.1-0.9,0.3l-0.6,0.5C566.8,24.8,566.7,25,566.7,25.2z"/>
	<path d="M580.9,23.9v7c0,0.2-0.1,0.4-0.2,0.6s-0.4,0.2-0.6,0.2c-0.2,0-0.4-0.1-0.6-0.2s-0.2-0.4-0.2-0.6v-7h-0.8
		c-0.2,0-0.4-0.1-0.6-0.2s-0.2-0.4-0.2-0.6c0-0.2,0.1-0.4,0.2-0.6s0.3-0.2,0.6-0.2h0.9v-0.6c0-0.8,0.3-1.5,0.9-2.1s1.3-0.8,2.2-0.8
		h1.9c0.2,0,0.4,0.1,0.6,0.2s0.2,0.4,0.2,0.6c0,0.2-0.1,0.4-0.2,0.6s-0.4,0.2-0.6,0.2h-1.9c-0.4,0-0.7,0.1-1,0.4s-0.4,0.5-0.4,0.9
		v0.6h1.6c0.2,0,0.4,0.1,0.6,0.2s0.2,0.4,0.2,0.6c0,0.2-0.1,0.4-0.2,0.6s-0.4,0.2-0.6,0.2H580.9z"/>
	<path d="M608.8,31.6h-3.5c-0.6,0-1.1-0.2-1.6-0.6l-1.6-1.4c-0.5-0.4-0.8-1-0.8-1.7v-2.1c0-0.7,0.3-1.3,0.9-1.8l1.4-1.2
		c0.5-0.4,1-0.6,1.5-0.6h3.7c0.2,0,0.4,0.1,0.6,0.2s0.2,0.4,0.2,0.6c0,0.2-0.1,0.4-0.2,0.6s-0.4,0.2-0.6,0.2h-3.5
		c-0.2,0-0.4,0.1-0.6,0.3l-1.3,1.1c-0.2,0.2-0.3,0.4-0.3,0.7v2c0,0.2,0.1,0.4,0.3,0.5l1.4,1.2c0.2,0.2,0.4,0.2,0.7,0.2h3.4
		c0.2,0,0.4,0.1,0.6,0.2s0.2,0.4,0.2,0.6s-0.1,0.4-0.2,0.6S609,31.6,608.8,31.6z"/>
	<path d="M620,31.6h-5c-0.2,0-0.4-0.1-0.6-0.2s-0.2-0.4-0.2-0.6c0-0.2,0.1-0.4,0.2-0.6s0.4-0.2,0.6-0.2h1.6v-9.7H615
		c-0.2,0-0.4-0.1-0.6-0.2s-0.2-0.4-0.2-0.6s0.1-0.4,0.2-0.6s0.4-0.2,0.6-0.2h2.5c0.2,0,0.4,0.1,0.6,0.2s0.2,0.4,0.2,0.6V30h1.7
		c0.2,0,0.4,0.1,0.6,0.2s0.2,0.4,0.2,0.6c0,0.2-0.1,0.4-0.2,0.6S620.2,31.6,620,31.6z"/>
	<path d="M633.7,25.3v2c0,0.2-0.1,0.4-0.2,0.6s-0.4,0.2-0.6,0.2h-5.8v0.5c0,0.3,0.1,0.5,0.4,0.7l0.5,0.4c0.3,0.2,0.5,0.3,0.7,0.3
		h4.2c0.2,0,0.4,0.1,0.6,0.2s0.2,0.4,0.2,0.6c0,0.2-0.1,0.4-0.2,0.6s-0.4,0.2-0.6,0.2h-4.3c-0.3,0-0.6-0.1-0.9-0.2s-0.5-0.2-0.7-0.4
		l-0.7-0.6c-0.2-0.2-0.4-0.4-0.6-0.8s-0.2-0.6-0.2-0.9V25c0-0.2,0.1-0.5,0.2-0.9s0.4-0.6,0.6-0.8l0.7-0.5c0.4-0.4,0.9-0.5,1.5-0.5
		h2.3c0.6,0,1.1,0.2,1.6,0.7l0.6,0.6C633.5,23.9,633.7,24.5,633.7,25.3z M627.1,25.2v1.3h5v-1.1c0-0.3-0.1-0.5-0.3-0.7l-0.5-0.4
		c-0.2-0.2-0.5-0.3-0.7-0.3h-2.1c-0.3,0-0.5,0.1-0.7,0.3l-0.5,0.4C627.2,24.7,627.1,24.9,627.1,25.2z"/>
	<path d="M645.8,25.2v3.5c0,0.7-0.3,1.4-1,2s-1.4,0.9-2.1,0.9h-1.9c-0.7,0-1.5-0.3-2.1-1s-1-1.3-1-2v-3.5c0-0.7,0.3-1.4,1-2
		s1.4-1,2.2-1h1.9c0.7,0,1.5,0.3,2.1,0.9S645.8,24.4,645.8,25.2z M639.2,25.2v3.3c0,0.3,0.1,0.5,0.3,0.7l0.6,0.5
		c0.1,0.1,0.3,0.2,0.6,0.2h1.9c0.3,0,0.5-0.1,0.8-0.3l0.5-0.4c0.2-0.2,0.3-0.4,0.3-0.7v-3.3c0-0.3-0.1-0.6-0.3-0.7l-0.6-0.5
		c-0.2-0.2-0.4-0.2-0.7-0.2h-1.7c-0.4,0-0.7,0.1-0.9,0.3l-0.6,0.5C639.3,24.8,639.2,25,639.2,25.2z"/>
	<path d="M651.3,30.7v3.6c0,0.2-0.1,0.4-0.2,0.6s-0.4,0.2-0.6,0.2s-0.4-0.1-0.6-0.2s-0.2-0.4-0.2-0.6V22.6c0-0.2,0.1-0.4,0.2-0.6
		s0.4-0.2,0.6-0.2c0.2,0,0.4,0.1,0.6,0.2s0.2,0.4,0.2,0.6v0.5c0.8-0.9,1.6-1.3,2.4-1.3h0.4c0.6,0,1.1,0.2,1.6,0.6l1.4,1.2
		c0.6,0.5,0.9,1.2,0.9,2v2.6c0,0.8-0.3,1.5-1,2l-1.3,1.2c-0.4,0.4-1,0.6-1.7,0.6h-0.4c-0.6,0-1.2-0.2-1.6-0.7L651.3,30.7z
		 M653.6,30.3h0.4c0.2,0,0.4-0.1,0.6-0.3l1.3-1.1c0.2-0.2,0.3-0.4,0.3-0.7v-2.6c0-0.3-0.1-0.5-0.4-0.7l-1.4-1.2
		c-0.2-0.1-0.3-0.2-0.5-0.2h-0.5c-0.2,0-0.4,0.1-0.7,0.4l-1.2,1.2c-0.2,0.2-0.3,0.5-0.3,0.7V28c0,0.3,0.1,0.5,0.4,0.7l1.2,1.2
		C653.1,30.2,653.4,30.3,653.6,30.3z"/>
	<path d="M664.1,25.7h3.2c0.2,0,0.4,0,0.8,0.1l0-1.2c0-0.2-0.1-0.4-0.2-0.6c-0.2-0.2-0.4-0.2-0.6-0.2h-3.1c-0.2,0-0.4-0.1-0.6-0.2
		c-0.2-0.2-0.2-0.4-0.2-0.6c0-0.2,0.1-0.4,0.2-0.6c0.2-0.2,0.4-0.2,0.6-0.2h3.1c0.7,0,1.3,0.2,1.7,0.7s0.7,1.1,0.7,1.7l0.2,6.1
		c0,0.2-0.1,0.4-0.2,0.6s-0.4,0.2-0.6,0.2c-0.2,0-0.4-0.1-0.6-0.2s-0.2-0.4-0.2-0.6l-1.4,0.8h-2.8c-0.7,0-1.3-0.2-1.8-0.7
		s-0.7-1.1-0.7-1.8v-1c0-0.7,0.2-1.3,0.7-1.8S663.5,25.7,664.1,25.7z M668.2,28.9l0-0.7c0-0.2-0.1-0.4-0.2-0.6
		c-0.2-0.2-0.3-0.2-0.6-0.2h-3.2c-0.2,0-0.4,0.1-0.6,0.2c-0.2,0.2-0.2,0.4-0.2,0.6v0.9c0,0.2,0.1,0.4,0.2,0.6s0.4,0.2,0.6,0.2h2.3
		L668.2,28.9z"/>
	<path d="M679.5,31.6h-1.6c-0.7,0-1.3-0.2-1.7-0.7s-0.7-1.1-0.7-1.7v-5.3h-0.8c-0.2,0-0.4-0.1-0.6-0.2s-0.2-0.4-0.2-0.6
		c0-0.2,0.1-0.4,0.2-0.6s0.4-0.2,0.6-0.2h0.9v-2c0-0.2,0.1-0.4,0.2-0.6s0.4-0.2,0.6-0.2c0.2,0,0.4,0.1,0.6,0.2s0.2,0.4,0.2,0.6v2
		h3.3c0.2,0,0.4,0.1,0.6,0.2s0.2,0.4,0.2,0.6c0,0.2-0.1,0.4-0.2,0.6s-0.4,0.2-0.6,0.2h-3.3v5.3c0,0.2,0.1,0.4,0.2,0.6
		s0.4,0.2,0.6,0.2h1.6c0.4,0,0.7-0.2,0.9-0.7s0.4-0.7,0.8-0.7c0.2,0,0.4,0.1,0.6,0.2s0.2,0.4,0.2,0.6c0,0.5-0.2,1-0.7,1.5
		S680.3,31.6,679.5,31.6z"/>
	<path d="M685.9,30.8V23c0-0.2,0.1-0.4,0.2-0.6s0.4-0.2,0.6-0.2s0.4,0.1,0.6,0.2s0.2,0.4,0.2,0.6v1l1.3-1.1c0.6-0.5,1.1-0.7,1.6-0.7
		h1.2c0.7,0,1.3,0.2,1.7,0.7s0.7,1.1,0.7,1.7v0.4c0,0.2-0.1,0.4-0.2,0.6s-0.4,0.2-0.6,0.2s-0.4-0.1-0.6-0.2s-0.2-0.4-0.2-0.6v-0.5
		c0-0.2-0.1-0.4-0.2-0.6s-0.4-0.2-0.6-0.2h-1.1c-0.2,0-0.5,0.1-0.8,0.4l-2.3,2v4.6c0,0.2-0.1,0.4-0.2,0.6s-0.4,0.2-0.6,0.2
		c-0.2,0-0.4-0.1-0.6-0.2S685.9,31.1,685.9,30.8z"/>
	<path d="M700.4,25.7h3.2c0.2,0,0.4,0,0.8,0.1l0-1.2c0-0.2-0.1-0.4-0.2-0.6c-0.2-0.2-0.4-0.2-0.6-0.2h-3.1c-0.2,0-0.4-0.1-0.6-0.2
		c-0.2-0.2-0.2-0.4-0.2-0.6c0-0.2,0.1-0.4,0.2-0.6c0.2-0.2,0.4-0.2,0.6-0.2h3.1c0.7,0,1.3,0.2,1.7,0.7s0.7,1.1,0.7,1.7l0.2,6.1
		c0,0.2-0.1,0.4-0.2,0.6s-0.4,0.2-0.6,0.2c-0.2,0-0.4-0.1-0.6-0.2s-0.2-0.4-0.2-0.6l-1.4,0.8h-2.8c-0.7,0-1.3-0.2-1.8-0.7
		s-0.7-1.1-0.7-1.8v-1c0-0.7,0.2-1.3,0.7-1.8S699.7,25.7,700.4,25.7z M704.5,28.9l0-0.7c0-0.2-0.1-0.4-0.2-0.6
		c-0.2-0.2-0.3-0.2-0.6-0.2h-3.2c-0.2,0-0.4,0.1-0.6,0.2c-0.2,0.2-0.2,0.4-0.2,0.6v0.9c0,0.2,0.1,0.4,0.2,0.6s0.4,0.2,0.6,0.2h2.3
		L704.5,28.9z"/>
	<path d="M727.9,31.6h-1.6c-0.7,0-1.3-0.2-1.7-0.7s-0.7-1.1-0.7-1.7v-5.3h-0.8c-0.2,0-0.4-0.1-0.6-0.2s-0.2-0.4-0.2-0.6
		c0-0.2,0.1-0.4,0.2-0.6s0.4-0.2,0.6-0.2h0.9v-2c0-0.2,0.1-0.4,0.2-0.6s0.4-0.2,0.6-0.2c0.2,0,0.4,0.1,0.6,0.2s0.2,0.4,0.2,0.6v2
		h3.3c0.2,0,0.4,0.1,0.6,0.2s0.2,0.4,0.2,0.6c0,0.2-0.1,0.4-0.2,0.6s-0.4,0.2-0.6,0.2h-3.3v5.3c0,0.2,0.1,0.4,0.2,0.6
		s0.4,0.2,0.6,0.2h1.6c0.4,0,0.7-0.2,0.9-0.7s0.4-0.7,0.8-0.7c0.2,0,0.4,0.1,0.6,0.2s0.2,0.4,0.2,0.6c0,0.5-0.2,1-0.7,1.5
		S728.6,31.6,727.9,31.6z"/>
	<path d="M742.4,25.2v3.5c0,0.7-0.3,1.4-1,2s-1.4,0.9-2.1,0.9h-1.9c-0.7,0-1.5-0.3-2.1-1s-1-1.3-1-2v-3.5c0-0.7,0.3-1.4,1-2
		s1.4-1,2.2-1h1.9c0.7,0,1.5,0.3,2.1,0.9S742.4,24.4,742.4,25.2z M735.8,25.2v3.3c0,0.3,0.1,0.5,0.3,0.7l0.6,0.5
		c0.1,0.1,0.3,0.2,0.6,0.2h1.9c0.3,0,0.5-0.1,0.8-0.3l0.5-0.4c0.2-0.2,0.3-0.4,0.3-0.7v-3.3c0-0.3-0.1-0.6-0.3-0.7l-0.6-0.5
		c-0.2-0.2-0.4-0.2-0.7-0.2h-1.7c-0.4,0-0.7,0.1-0.9,0.3l-0.6,0.5C735.9,24.8,735.8,25,735.8,25.2z"/>
	<path d="M33.3,54.8V47c0-0.2,0.1-0.4,0.2-0.6s0.4-0.2,0.6-0.2c0.4,0,0.7,0.2,0.8,0.6c0.5-0.4,1-0.6,1.5-0.6c0.7,0,1.2,0.3,1.6,0.8
		c0.5-0.6,1.1-0.8,1.7-0.8c0.5,0,0.9,0.2,1.3,0.5c0.4,0.4,0.6,0.8,0.6,1.4l0.2,6.7c0,0.2-0.1,0.4-0.2,0.6s-0.4,0.2-0.6,0.2
		c-0.2,0-0.4-0.1-0.6-0.2s-0.2-0.4-0.3-0.6l-0.2-6.4c0-0.4-0.1-0.5-0.3-0.5c-0.1,0-0.2,0-0.3,0.1l-1,0.8v6c0,0.2-0.1,0.4-0.2,0.6
		s-0.4,0.2-0.6,0.2c-0.2,0-0.4-0.1-0.6-0.2s-0.2-0.4-0.2-0.6v-6.5c0-0.3-0.1-0.4-0.4-0.4c-0.1,0-0.2,0-0.3,0.1L35,49v5.8
		c0,0.2-0.1,0.4-0.2,0.6s-0.3,0.2-0.6,0.2c-0.2,0-0.4-0.1-0.6-0.2S33.3,55,33.3,54.8z"/>
	<path d="M48.1,49.7h3.2c0.2,0,0.4,0,0.8,0.1l0-1.2c0-0.2-0.1-0.4-0.2-0.6s-0.4-0.2-0.6-0.2h-3.1c-0.2,0-0.4-0.1-0.6-0.2
		s-0.2-0.4-0.2-0.6c0-0.2,0.1-0.4,0.2-0.6c0.2-0.2,0.4-0.2,0.6-0.2h3.1c0.7,0,1.3,0.2,1.7,0.7c0.5,0.5,0.7,1.1,0.7,1.7l0.2,6.1
		c0,0.2-0.1,0.4-0.2,0.6s-0.4,0.2-0.6,0.2c-0.2,0-0.4-0.1-0.6-0.2s-0.2-0.4-0.2-0.6l-1.4,0.8h-2.8c-0.7,0-1.3-0.2-1.8-0.7
		s-0.7-1.1-0.7-1.8v-1c0-0.7,0.2-1.3,0.7-1.8S47.4,49.7,48.1,49.7z M52.2,52.9l0-0.7c0-0.2-0.1-0.4-0.2-0.6s-0.3-0.2-0.6-0.2h-3.2
		c-0.2,0-0.4,0.1-0.6,0.2s-0.2,0.4-0.2,0.6v0.9c0,0.2,0.1,0.4,0.2,0.6c0.2,0.2,0.4,0.2,0.6,0.2h2.3L52.2,52.9z"/>
	<path d="M57.7,54.8V43.5c0-0.2,0.1-0.4,0.2-0.6s0.4-0.2,0.6-0.2s0.4,0.1,0.6,0.2s0.2,0.4,0.2,0.6v6.7l4.4-3.8
		c0.2-0.2,0.4-0.2,0.6-0.2c0.2,0,0.4,0.1,0.6,0.2c0.2,0.2,0.2,0.4,0.2,0.6c0,0.2-0.1,0.4-0.3,0.6l-3.4,2.9l4.2,3.7
		c0.2,0.1,0.3,0.3,0.3,0.5c0,0.2-0.1,0.4-0.2,0.6s-0.3,0.3-0.6,0.3s-0.4-0.1-0.6-0.2l-4.4-3.8l-0.9,0.7v2.5c0,0.2-0.1,0.4-0.2,0.6
		c-0.2,0.2-0.4,0.2-0.6,0.2s-0.4-0.1-0.6-0.2S57.7,55.1,57.7,54.8z"/>
	<path d="M78,49.3v2c0,0.2-0.1,0.4-0.2,0.6s-0.4,0.2-0.6,0.2h-5.8v0.5c0,0.3,0.1,0.5,0.4,0.7l0.5,0.4c0.3,0.2,0.5,0.3,0.7,0.3h4.2
		c0.2,0,0.4,0.1,0.6,0.2s0.2,0.4,0.2,0.6c0,0.2-0.1,0.4-0.2,0.6s-0.4,0.2-0.6,0.2h-4.3c-0.3,0-0.6-0.1-0.9-0.2s-0.5-0.2-0.7-0.4
		l-0.7-0.6c-0.2-0.2-0.4-0.4-0.6-0.8s-0.2-0.6-0.2-0.9V49c0-0.2,0.1-0.5,0.2-0.9s0.4-0.6,0.6-0.8l0.7-0.5c0.4-0.4,0.9-0.5,1.5-0.5
		h2.3c0.6,0,1.1,0.2,1.6,0.7l0.6,0.6C77.8,47.9,78,48.5,78,49.3z M71.4,49.2v1.3h5v-1.1c0-0.3-0.1-0.5-0.3-0.7l-0.5-0.4
		c-0.2-0.2-0.5-0.3-0.7-0.3h-2.1c-0.3,0-0.5,0.1-0.7,0.3l-0.5,0.4C71.5,48.7,71.4,48.9,71.4,49.2z"/>
	<path d="M96.2,46.2h3.8c0.6,0,1.1,0.2,1.6,0.5s0.7,0.7,0.7,1c0,0.2-0.1,0.4-0.2,0.6s-0.4,0.2-0.6,0.2c-0.3,0-0.5-0.1-0.7-0.4
		s-0.4-0.4-0.7-0.4h-3.7c-0.4,0-0.5,0.2-0.5,0.5c0,0.2,0.1,0.4,0.4,0.5l4.4,1.9c0.4,0.2,0.8,0.5,1.1,0.9s0.4,0.9,0.4,1.4
		c0,0.7-0.2,1.3-0.7,1.8s-1.1,0.7-1.7,0.7h-3.3c-0.6,0-1.1-0.2-1.6-0.5s-0.7-0.7-0.7-1c0-0.2,0.1-0.4,0.2-0.6s0.4-0.2,0.6-0.2
		c0.2,0,0.4,0.1,0.7,0.4s0.6,0.4,1,0.4h3.1c0.2,0,0.4-0.1,0.6-0.3s0.2-0.4,0.2-0.6c0-0.4-0.2-0.6-0.5-0.8l-4.4-2
		c-0.4-0.2-0.7-0.5-1-0.8s-0.3-0.7-0.3-1.1c0-0.6,0.2-1.1,0.6-1.5S95.6,46.2,96.2,46.2z"/>
	<path d="M114.3,49.2v3.5c0,0.7-0.3,1.4-1,2s-1.4,0.9-2.1,0.9h-1.9c-0.7,0-1.5-0.3-2.1-1s-1-1.3-1-2v-3.5c0-0.7,0.3-1.4,1-2
		s1.4-1,2.2-1h1.9c0.7,0,1.5,0.3,2.1,0.9S114.3,48.4,114.3,49.2z M107.7,49.2v3.3c0,0.3,0.1,0.5,0.3,0.7l0.6,0.5
		c0.1,0.1,0.3,0.2,0.6,0.2h1.9c0.3,0,0.5-0.1,0.8-0.3l0.5-0.4c0.2-0.2,0.3-0.4,0.3-0.7v-3.3c0-0.3-0.1-0.6-0.3-0.7l-0.6-0.5
		c-0.2-0.2-0.4-0.2-0.7-0.2h-1.7c-0.4,0-0.7,0.1-0.9,0.3l-0.6,0.5C107.8,48.8,107.7,49,107.7,49.2z"/>
	<path d="M117.9,54.8V47c0-0.2,0.1-0.4,0.2-0.6s0.4-0.2,0.6-0.2c0.4,0,0.7,0.2,0.8,0.6c0.5-0.4,1-0.6,1.5-0.6c0.7,0,1.2,0.3,1.6,0.8
		c0.5-0.6,1.1-0.8,1.7-0.8c0.5,0,0.9,0.2,1.3,0.5c0.4,0.4,0.6,0.8,0.6,1.4l0.2,6.7c0,0.2-0.1,0.4-0.2,0.6s-0.4,0.2-0.6,0.2
		c-0.2,0-0.4-0.1-0.6-0.2s-0.2-0.4-0.3-0.6l-0.2-6.4c0-0.4-0.1-0.5-0.3-0.5c-0.1,0-0.2,0-0.3,0.1l-1,0.8v6c0,0.2-0.1,0.4-0.2,0.6
		s-0.4,0.2-0.6,0.2c-0.2,0-0.4-0.1-0.6-0.2s-0.2-0.4-0.2-0.6v-6.5c0-0.3-0.1-0.4-0.4-0.4c-0.1,0-0.2,0-0.3,0.1l-1.2,1v5.8
		c0,0.2-0.1,0.4-0.2,0.6s-0.3,0.2-0.6,0.2c-0.2,0-0.4-0.1-0.6-0.2S117.9,55,117.9,54.8z"/>
	<path d="M138.4,49.3v2c0,0.2-0.1,0.4-0.2,0.6s-0.4,0.2-0.6,0.2h-5.8v0.5c0,0.3,0.1,0.5,0.4,0.7l0.5,0.4c0.3,0.2,0.5,0.3,0.7,0.3
		h4.2c0.2,0,0.4,0.1,0.6,0.2s0.2,0.4,0.2,0.6c0,0.2-0.1,0.4-0.2,0.6s-0.4,0.2-0.6,0.2h-4.3c-0.3,0-0.6-0.1-0.9-0.2s-0.5-0.2-0.7-0.4
		l-0.7-0.6c-0.2-0.2-0.4-0.4-0.6-0.8s-0.2-0.6-0.2-0.9V49c0-0.2,0.1-0.5,0.2-0.9s0.4-0.6,0.6-0.8l0.7-0.5c0.4-0.4,0.9-0.5,1.5-0.5
		h2.3c0.6,0,1.1,0.2,1.6,0.7l0.6,0.6C138.2,47.9,138.4,48.5,138.4,49.3z M131.8,49.2v1.3h5v-1.1c0-0.3-0.1-0.5-0.3-0.7l-0.5-0.4
		c-0.2-0.2-0.5-0.3-0.7-0.3h-2.1c-0.3,0-0.5,0.1-0.7,0.3l-0.5,0.4C131.9,48.7,131.8,48.9,131.8,49.2z"/>
	<path d="M148,55.6h-1.6c-0.7,0-1.3-0.2-1.7-0.7s-0.7-1.1-0.7-1.7v-5.3h-0.8c-0.2,0-0.4-0.1-0.6-0.2s-0.2-0.4-0.2-0.6
		c0-0.2,0.1-0.4,0.2-0.6s0.4-0.2,0.6-0.2h0.9v-2c0-0.2,0.1-0.4,0.2-0.6s0.4-0.2,0.6-0.2c0.2,0,0.4,0.1,0.6,0.2s0.2,0.4,0.2,0.6v2
		h3.3c0.2,0,0.4,0.1,0.6,0.2s0.2,0.4,0.2,0.6c0,0.2-0.1,0.4-0.2,0.6s-0.4,0.2-0.6,0.2h-3.3v5.3c0,0.2,0.1,0.4,0.2,0.6
		s0.4,0.2,0.6,0.2h1.6c0.4,0,0.7-0.2,0.9-0.7s0.4-0.7,0.8-0.7c0.2,0,0.4,0.1,0.6,0.2s0.2,0.4,0.2,0.6c0,0.5-0.2,1-0.7,1.5
		S148.7,55.6,148,55.6z"/>
	<path d="M154.3,54.8V43.5c0-0.2,0.1-0.4,0.2-0.6s0.4-0.2,0.6-0.2s0.4,0.1,0.6,0.2s0.2,0.4,0.2,0.6v4.1l1.3-0.9
		c0.6-0.4,1.1-0.6,1.6-0.6h1c0.7,0,1.2,0.2,1.7,0.7s0.7,1.1,0.8,1.7l0.2,6.1c0,0.2-0.1,0.4-0.2,0.6s-0.4,0.2-0.6,0.2
		s-0.4-0.1-0.6-0.2s-0.2-0.4-0.2-0.6l-0.2-6.2c0-0.2-0.1-0.4-0.3-0.6s-0.4-0.2-0.6-0.2H159c-0.2,0-0.4,0.1-0.7,0.2l-2.3,1.5v5.2
		c0,0.2-0.1,0.4-0.2,0.6s-0.4,0.2-0.6,0.2s-0.4-0.1-0.6-0.2S154.3,55.1,154.3,54.8z"/>
	<path d="M173,55.6h-5c-0.2,0-0.4-0.1-0.6-0.2s-0.2-0.4-0.2-0.6c0-0.2,0.1-0.4,0.2-0.6s0.4-0.2,0.6-0.2h1.7v-6.1h-1.7
		c-0.2,0-0.4-0.1-0.6-0.2s-0.2-0.4-0.2-0.6c0-0.2,0.1-0.4,0.2-0.6s0.4-0.2,0.6-0.2h2.5c0.2,0,0.4,0.1,0.6,0.2s0.2,0.4,0.2,0.6V54
		h1.6c0.2,0,0.4,0.1,0.6,0.2s0.2,0.4,0.2,0.6s-0.1,0.4-0.2,0.6S173.3,55.6,173,55.6z M169.7,41.9h0.9c0.2,0,0.4,0.1,0.6,0.2
		s0.2,0.4,0.2,0.6v0.7c0,0.2-0.1,0.4-0.2,0.6s-0.4,0.2-0.6,0.2h-0.9c-0.2,0-0.4-0.1-0.6-0.3s-0.2-0.4-0.2-0.6l0-0.7
		c0-0.2,0.1-0.4,0.2-0.6S169.5,41.9,169.7,41.9z"/>
	<path d="M182.4,48.1l-2.2,1.5v5.2c0,0.2-0.1,0.4-0.2,0.6s-0.4,0.2-0.6,0.2s-0.4-0.1-0.6-0.2s-0.2-0.4-0.2-0.6V47
		c0-0.2,0.1-0.4,0.2-0.6s0.4-0.2,0.6-0.2c0.2,0,0.4,0.1,0.6,0.2s0.2,0.4,0.2,0.6v0.5l1.5-0.9c0.5-0.3,1.1-0.5,1.7-0.5h0.8
		c0.7,0,1.2,0.2,1.7,0.7c0.5,0.5,0.7,1,0.8,1.7l0.2,6.2c0,0.2-0.1,0.4-0.2,0.6s-0.4,0.2-0.6,0.2c-0.2,0-0.4-0.1-0.6-0.2
		s-0.2-0.3-0.3-0.6l-0.2-6.1c0-0.6-0.3-0.9-0.9-0.9h-0.8C182.9,47.8,182.7,47.9,182.4,48.1z"/>
	<path d="M195.7,59.2h-3.6c-0.2,0-0.4-0.1-0.6-0.2s-0.2-0.4-0.2-0.6c0-0.2,0.1-0.4,0.2-0.6s0.4-0.2,0.6-0.2h3.6
		c0.2,0,0.4-0.1,0.6-0.2l0.6-0.5c0.2-0.1,0.3-0.3,0.3-0.6v-2.5c-0.8,0.8-1.5,1.2-2.2,1.2h-1.3c-0.7,0-1.2-0.2-1.8-0.7l-0.6-0.5
		c-0.2-0.2-0.4-0.4-0.5-0.7s-0.2-0.6-0.2-1v-2.7c0-0.4,0.1-0.7,0.2-1.1s0.3-0.6,0.5-0.8l0.7-0.6c0.5-0.4,1-0.6,1.7-0.6h1.2
		c0.6,0,1.2,0.2,1.8,0.7l0.6,0.5l0-0.3c0-0.2,0.1-0.4,0.2-0.6s0.4-0.2,0.6-0.2c0.2,0,0.4,0.1,0.6,0.2s0.2,0.4,0.2,0.6v9.2
		c0,0.7-0.3,1.3-0.8,1.8l-0.7,0.6c-0.2,0.1-0.4,0.3-0.7,0.4S196,59.2,195.7,59.2z M194.8,47.8h-1.1c-0.2,0-0.5,0.1-0.7,0.3l-0.5,0.4
		c-0.2,0.2-0.3,0.4-0.3,0.7v2.7c0,0.2,0.1,0.4,0.3,0.6l0.5,0.5c0.2,0.1,0.3,0.2,0.5,0.2h1.3c0.2,0,0.4-0.1,0.6-0.3l1.3-1.1
		c0.2-0.2,0.3-0.4,0.3-0.6V50c0-0.3-0.1-0.5-0.3-0.7l-1.3-1.1C195.3,47.9,195.1,47.8,194.8,47.8z"/>
	<path d="M223,49.2v3.5c0,0.7-0.3,1.4-1,2s-1.4,0.9-2.1,0.9h-1.9c-0.7,0-1.5-0.3-2.1-1s-1-1.3-1-2v-3.5c0-0.7,0.3-1.4,1-2
		s1.4-1,2.2-1h1.9c0.7,0,1.5,0.3,2.1,0.9S223,48.4,223,49.2z M216.4,49.2v3.3c0,0.3,0.1,0.5,0.3,0.7l0.6,0.5
		c0.1,0.1,0.3,0.2,0.6,0.2h1.9c0.3,0,0.5-0.1,0.8-0.3l0.5-0.4c0.2-0.2,0.3-0.4,0.3-0.7v-3.3c0-0.3-0.1-0.6-0.3-0.7l-0.6-0.5
		c-0.2-0.2-0.4-0.2-0.7-0.2h-1.7c-0.4,0-0.7,0.1-0.9,0.3l-0.6,0.5C216.5,48.8,216.4,49,216.4,49.2z"/>
	<path d="M230.6,47.9v7c0,0.2-0.1,0.4-0.2,0.6s-0.4,0.2-0.6,0.2c-0.2,0-0.4-0.1-0.6-0.2s-0.2-0.4-0.2-0.6v-7h-0.8
		c-0.2,0-0.4-0.1-0.6-0.2s-0.2-0.4-0.2-0.6c0-0.2,0.1-0.4,0.2-0.6s0.3-0.2,0.6-0.2h0.9v-0.6c0-0.8,0.3-1.5,0.9-2.1s1.3-0.8,2.2-0.8
		h1.9c0.2,0,0.4,0.1,0.6,0.2s0.2,0.4,0.2,0.6c0,0.2-0.1,0.4-0.2,0.6s-0.4,0.2-0.6,0.2h-1.9c-0.4,0-0.7,0.1-1,0.4s-0.4,0.5-0.4,0.9
		v0.6h1.6c0.2,0,0.4,0.1,0.6,0.2s0.2,0.4,0.2,0.6c0,0.2-0.1,0.4-0.2,0.6s-0.4,0.2-0.6,0.2H230.6z"/>
	<path d="M259.3,48.6l-4.4,10c-0.1,0.4-0.4,0.5-0.8,0.5h-2.3c-0.2,0-0.4-0.1-0.6-0.2s-0.2-0.4-0.2-0.6c0-0.2,0.1-0.4,0.2-0.6
		s0.4-0.2,0.6-0.2h1.8l1.1-2.6h-0.4c-0.4,0-0.6-0.2-0.8-0.6l-2.5-5.7V47c0-0.2,0.1-0.4,0.2-0.6s0.3-0.2,0.6-0.2
		c0.2,0,0.4,0.1,0.6,0.2s0.2,0.4,0.2,0.6l0,1.2l2.2,5h0.6l2.2-5l0-1.3c0-0.2,0.1-0.4,0.2-0.6c0.2-0.2,0.4-0.2,0.6-0.2
		c0.2,0,0.4,0.1,0.6,0.2s0.2,0.4,0.2,0.6V48.6z"/>
	<path d="M271.3,49.2v3.5c0,0.7-0.3,1.4-1,2s-1.4,0.9-2.1,0.9h-1.9c-0.7,0-1.5-0.3-2.1-1s-1-1.3-1-2v-3.5c0-0.7,0.3-1.4,1-2
		s1.4-1,2.2-1h1.9c0.7,0,1.5,0.3,2.1,0.9S271.3,48.4,271.3,49.2z M264.7,49.2v3.3c0,0.3,0.1,0.5,0.3,0.7l0.6,0.5
		c0.1,0.1,0.3,0.2,0.6,0.2h1.9c0.3,0,0.5-0.1,0.8-0.3l0.5-0.4c0.2-0.2,0.3-0.4,0.3-0.7v-3.3c0-0.3-0.1-0.6-0.3-0.7l-0.6-0.5
		c-0.2-0.2-0.4-0.2-0.7-0.2h-1.7c-0.4,0-0.7,0.1-0.9,0.3l-0.6,0.5C264.8,48.8,264.7,49,264.7,49.2z"/>
	<path d="M279,54l2.8-1.8V47c0-0.2,0.1-0.4,0.2-0.6s0.4-0.2,0.6-0.2s0.4,0.1,0.6,0.2s0.2,0.4,0.2,0.6v7.8c0,0.2-0.1,0.4-0.2,0.6
		s-0.4,0.2-0.6,0.2s-0.4-0.1-0.6-0.2s-0.2-0.4-0.2-0.6v-0.6l-1.4,0.9c-0.6,0.4-1.1,0.5-1.7,0.5h-0.8c-0.7,0-1.2-0.2-1.7-0.7
		c-0.5-0.5-0.7-1-0.8-1.7l-0.2-6.2c0-0.2,0.1-0.4,0.2-0.6s0.4-0.2,0.6-0.2c0.2,0,0.4,0.1,0.6,0.2s0.2,0.4,0.2,0.6l0.2,6.1
		c0,0.6,0.4,0.9,1,0.9H279z"/>
	<path d="M287.2,54.8V47c0-0.2,0.1-0.4,0.2-0.6s0.4-0.2,0.6-0.2s0.4,0.1,0.6,0.2s0.2,0.4,0.2,0.6v1l1.3-1.1c0.6-0.5,1.1-0.7,1.6-0.7
		h1.2c0.7,0,1.3,0.2,1.7,0.7s0.7,1.1,0.7,1.7v0.4c0,0.2-0.1,0.4-0.2,0.6s-0.4,0.2-0.6,0.2s-0.4-0.1-0.6-0.2s-0.2-0.4-0.2-0.6v-0.5
		c0-0.2-0.1-0.4-0.2-0.6s-0.4-0.2-0.6-0.2H292c-0.2,0-0.5,0.1-0.8,0.4l-2.3,2v4.6c0,0.2-0.1,0.4-0.2,0.6s-0.4,0.2-0.6,0.2
		c-0.2,0-0.4-0.1-0.6-0.2S287.2,55.1,287.2,54.8z"/>
	<path d="M301.6,46.2h3.8c0.6,0,1.1,0.2,1.6,0.5s0.7,0.7,0.7,1c0,0.2-0.1,0.4-0.2,0.6s-0.4,0.2-0.6,0.2c-0.3,0-0.5-0.1-0.7-0.4
		s-0.4-0.4-0.7-0.4h-3.7c-0.4,0-0.5,0.2-0.5,0.5c0,0.2,0.1,0.4,0.4,0.5l4.4,1.9c0.4,0.2,0.8,0.5,1.1,0.9s0.4,0.9,0.4,1.4
		c0,0.7-0.2,1.3-0.7,1.8s-1.1,0.7-1.7,0.7h-3.3c-0.6,0-1.1-0.2-1.6-0.5s-0.7-0.7-0.7-1c0-0.2,0.1-0.4,0.2-0.6s0.4-0.2,0.6-0.2
		c0.2,0,0.4,0.1,0.7,0.4s0.6,0.4,1,0.4h3.1c0.2,0,0.4-0.1,0.6-0.3s0.2-0.4,0.2-0.6c0-0.4-0.2-0.6-0.5-0.8l-4.4-2
		c-0.4-0.2-0.7-0.5-1-0.8s-0.3-0.7-0.3-1.1c0-0.6,0.2-1.1,0.6-1.5S301,46.2,301.6,46.2z"/>
	<path d="M319.6,49.3v2c0,0.2-0.1,0.4-0.2,0.6s-0.4,0.2-0.6,0.2H313v0.5c0,0.3,0.1,0.5,0.4,0.7l0.5,0.4c0.3,0.2,0.5,0.3,0.7,0.3h4.2
		c0.2,0,0.4,0.1,0.6,0.2s0.2,0.4,0.2,0.6c0,0.2-0.1,0.4-0.2,0.6s-0.4,0.2-0.6,0.2h-4.3c-0.3,0-0.6-0.1-0.9-0.2s-0.5-0.2-0.7-0.4
		l-0.7-0.6c-0.2-0.2-0.4-0.4-0.6-0.8s-0.2-0.6-0.2-0.9V49c0-0.2,0.1-0.5,0.2-0.9s0.4-0.6,0.6-0.8l0.7-0.5c0.4-0.4,0.9-0.5,1.5-0.5
		h2.3c0.6,0,1.1,0.2,1.6,0.7l0.6,0.6C319.4,47.9,319.6,48.5,319.6,49.3z M313,49.2v1.3h5v-1.1c0-0.3-0.1-0.5-0.3-0.7l-0.5-0.4
		c-0.2-0.2-0.5-0.3-0.7-0.3h-2.1c-0.3,0-0.5,0.1-0.7,0.3l-0.5,0.4C313.1,48.7,313,48.9,313,49.2z"/>
	<path d="M330.1,55.6h-5c-0.2,0-0.4-0.1-0.6-0.2s-0.2-0.4-0.2-0.6c0-0.2,0.1-0.4,0.2-0.6s0.4-0.2,0.6-0.2h1.6v-9.7h-1.7
		c-0.2,0-0.4-0.1-0.6-0.2s-0.2-0.4-0.2-0.6s0.1-0.4,0.2-0.6s0.4-0.2,0.6-0.2h2.5c0.2,0,0.4,0.1,0.6,0.2s0.2,0.4,0.2,0.6V54h1.7
		c0.2,0,0.4,0.1,0.6,0.2s0.2,0.4,0.2,0.6c0,0.2-0.1,0.4-0.2,0.6S330.3,55.6,330.1,55.6z"/>
	<path d="M339.3,47.9v7c0,0.2-0.1,0.4-0.2,0.6s-0.4,0.2-0.6,0.2c-0.2,0-0.4-0.1-0.6-0.2s-0.2-0.4-0.2-0.6v-7h-0.8
		c-0.2,0-0.4-0.1-0.6-0.2S336,47.3,336,47c0-0.2,0.1-0.4,0.2-0.6s0.3-0.2,0.6-0.2h0.9v-0.6c0-0.8,0.3-1.5,0.9-2.1s1.3-0.8,2.2-0.8
		h1.9c0.2,0,0.4,0.1,0.6,0.2s0.2,0.4,0.2,0.6c0,0.2-0.1,0.4-0.2,0.6s-0.4,0.2-0.6,0.2h-1.9c-0.4,0-0.7,0.1-1,0.4s-0.4,0.5-0.4,0.9
		v0.6h1.6c0.2,0,0.4,0.1,0.6,0.2s0.2,0.4,0.2,0.6c0,0.2-0.1,0.4-0.2,0.6s-0.4,0.2-0.6,0.2H339.3z"/>
</g>
</svg>
