<?xml version="1.0" encoding="utf-8"?>
<!-- Generator: Adobe Illustrator 21.1.0, SVG Export Plug-In . SVG Version: 6.00 Build 0)  -->
<svg version="1.1" id="Layer_1" xmlns="http://www.w3.org/2000/svg" xmlns:xlink="http://www.w3.org/1999/xlink" x="0px" y="0px"
	 viewBox="0 0 800 400" style="enable-background:new 0 0 800 400;" xml:space="preserve">
<style type="text/css">
	.st0{fill:#C1D721;stroke:#FFFFFF;stroke-miterlimit:10;}
	.st1{fill:#990066;}
	.st2{fill:none;stroke:#FFFFFF;stroke-miterlimit:10;}
	.st3{fill:#FAAF3B;}
	.st4{fill:#C1D721;}
	.st5{fill:#330066;}
	.st6{fill:#990066;stroke:#FFFFFF;stroke-miterlimit:10;}
	.st7{enable-background:new    ;}
	.st8{fill:#29AAE1;stroke:#FFFFFF;stroke-miterlimit:10;}
</style>
<polygon class="st0" points="796.5,411.5 -26.5,411.5 -18.1,-3.6 804.9,-3.6 "/>
<g>
	
		<image style="overflow:visible;opacity:0.75;enable-background:new    ;" width="375" height="351" xlink:href="1D814D5E.png"  transform="matrix(1 0 0 1 207 54)">
	</image>
	<g>
		<polygon class="st1" points="565.6,229.5 519.1,269.1 532.1,328.8 471,332.6 446.5,388.6 394.4,356.5 342.3,388.6 317.8,332.6 
			256.8,328.8 269.7,269.1 223.2,229.5 269.7,189.9 256.8,130.2 317.8,126.4 342.3,70.4 394.4,102.5 446.5,70.4 471,126.4 
			532.1,130.2 519.1,189.9 		"/>
		<polygon class="st2" points="565.6,229.5 519.1,269.1 532.1,328.8 471,332.6 446.5,388.6 394.4,356.5 342.3,388.6 317.8,332.6 
			256.8,328.8 269.7,269.1 223.2,229.5 269.7,189.9 256.8,130.2 317.8,126.4 342.3,70.4 394.4,102.5 446.5,70.4 471,126.4 
			532.1,130.2 519.1,189.9 		"/>
	</g>
</g>
<g>
	
		<image style="overflow:visible;opacity:0.75;enable-background:new    ;" width="344" height="322" xlink:href="1D814D62.png"  transform="matrix(0.9971 0 0 0.9969 222.6129 68.6888)">
	</image>
	<g>
		<polygon class="st3" points="549.4,229.5 503.7,264.2 519,319.5 461.6,319.8 441.6,373.6 394.4,340.8 347.3,373.6 327.2,319.8 
			269.8,319.5 285.1,264.2 239.4,229.5 285.1,194.8 269.8,139.6 327.2,139.2 347.3,85.4 394.4,118.3 441.6,85.4 461.6,139.2 
			519,139.6 503.7,194.8 		"/>
		<polygon class="st2" points="549.4,229.5 503.7,264.2 519,319.5 461.6,319.8 441.6,373.6 394.4,340.8 347.3,373.6 327.2,319.8 
			269.8,319.5 285.1,264.2 239.4,229.5 285.1,194.8 269.8,139.6 327.2,139.2 347.3,85.4 394.4,118.3 441.6,85.4 461.6,139.2 
			519,139.6 503.7,194.8 		"/>
	</g>
</g>
<g>
	
		<image style="overflow:visible;opacity:0.75;enable-background:new    ;" width="290" height="272" xlink:href="1D814D65.png"  transform="matrix(0.9966 0 0 0.9963 250.2268 97.6168)">
	</image>
	<g>
		<polygon class="st4" points="522.4,233 478.1,259.5 497.3,307.4 445.9,302 433.3,352.1 394.4,318 355.5,352.1 343,302 
			291.5,307.4 310.8,259.5 266.4,233 310.8,206.5 291.5,158.6 343,164 355.5,113.9 394.4,148 433.3,113.9 445.9,164 497.3,158.6 
			478.1,206.5 		"/>
		<polygon class="st2" points="522.4,233 478.1,259.5 497.3,307.4 445.9,302 433.3,352.1 394.4,318 355.5,352.1 343,302 
			291.5,307.4 310.8,259.5 266.4,233 310.8,206.5 291.5,158.6 343,164 355.5,113.9 394.4,148 433.3,113.9 445.9,164 497.3,158.6 
			478.1,206.5 		"/>
	</g>
</g>
<g>
	
		<image style="overflow:visible;opacity:0.75;enable-background:new    ;" width="226" height="213" xlink:href="1D814D66.png"  transform="matrix(0.9956 0 0 0.9953 281.6129 126.6168)">
	</image>
	<g>
		<polygon class="st5" points="490,233 447.3,249.6 471.2,288.7 427,276.3 423.4,322.1 394.4,286.5 365.4,322.1 361.8,276.3 
			317.6,288.7 341.5,249.6 298.8,233 341.5,216.4 317.6,177.3 361.8,189.6 365.4,143.9 394.4,179.5 423.4,143.9 427,189.6 
			471.2,177.3 447.3,216.4 		"/>
		<polygon class="st2" points="490,233 447.3,249.6 471.2,288.7 427,276.3 423.4,322.1 394.4,286.5 365.4,322.1 361.8,276.3 
			317.6,288.7 341.5,249.6 298.8,233 341.5,216.4 317.6,177.3 361.8,189.6 365.4,143.9 394.4,179.5 423.4,143.9 427,189.6 
			471.2,177.3 447.3,216.4 		"/>
	</g>
</g>
<path class="st6" d="M665.6,77c-1.4,7.4-24.9,8.5-54.2,9.8c-29,1.3-61.3-0.5-62.1-6.8c-0.1-1,0.4-2.8,1.6-3.6
	c3.2-2.1,9.4,1.1,9.6,0.5c0.2-0.5-5-2.2-5.3-5.3c-0.1-0.9,0.3-2,1-2.6c2-1.9,6-0.1,6.3-0.9c0.3-0.7-3.4-2-3.9-4.9
	c-0.1-0.3-0.3-1.6,0.4-2.3c1.4-1.4,5.5,1,5.8,0.4s-2.3-1.9-3.4-4.9c-1.3-3.4-0.1-7.9,0.3-7.9l0,0c0.7,0,44.8,2.2,54.4,2
	C641,50.3,667.2,68.7,665.6,77z"/>
<path class="st6" d="M664.3,70c-9.9-6.4-19.7-12.7-29.6-19.1C642.2,34,649.8,17,657.3,0.1c15.6,0,31.1,0,46.7,0
	C690.7,23.3,677.5,46.6,664.3,70z"/>
<path class="st6" d="M696.1,72.3c-1.4,7.4-24.9,8.5-54.2,9.8c-29,1.3-61.3-0.5-62.1-6.8c-0.1-1,0.4-2.8,1.6-3.6
	c3.2-2.1,9.4,1.1,9.6,0.5c0.2-0.5-5-2.2-5.3-5.3c-0.1-0.9,0.3-2,1-2.6c2-1.9,6-0.1,6.3-0.9c0.3-0.7-3.4-2-3.9-4.9
	c-0.1-0.3-0.3-1.6,0.4-2.3c1.4-1.4,5.5,1,5.8,0.4c0.3-0.5-3.5-2.4-3.4-4.9c0-0.8,0.5-1.4,0.6-1.6c0.8-1.2,2.2-1.4,2.8-1.5
	c1.1-0.2,1.6,0,3.1,0.1c1,0.1,1.9,0,3.6-0.1c0,0,35-2.6,44.6-2.8C671.5,45.6,697.7,64,696.1,72.3z"/>
<path class="st6" d="M694.8,65.2c-9.9-6.3-19.7-12.5-29.6-18.8c7.5-16.7,15.1-33.3,22.6-50c15.6,0,21.3-5.1,36.9-5.1
	C711.4,14.2,708,42.3,694.8,65.2z"/>
<g class="st7">
	<path d="M36.1,26.6h6.6c0.2,0,0.4,0.1,0.6,0.3c0.2,0.2,0.2,0.4,0.2,0.6c0,0.2-0.1,0.4-0.2,0.6c-0.2,0.2-0.4,0.3-0.6,0.3h-2.5v10.1
		h2.5c0.2,0,0.4,0.1,0.6,0.2s0.2,0.4,0.2,0.6c0,0.2-0.1,0.4-0.2,0.6c-0.2,0.2-0.4,0.2-0.6,0.2h-6.6c-0.2,0-0.4-0.1-0.6-0.2
		c-0.2-0.2-0.2-0.4-0.2-0.6c0-0.2,0.1-0.4,0.2-0.6s0.4-0.2,0.6-0.2h2.5V28.3h-2.5c-0.2,0-0.4-0.1-0.6-0.3c-0.2-0.2-0.2-0.4-0.2-0.6
		c0-0.2,0.1-0.5,0.2-0.6C35.6,26.6,35.8,26.6,36.1,26.6z"/>
	<path d="M64.4,34v2l1.1,2l0.6-1.9l0.2-5c0-0.2,0.1-0.4,0.3-0.6c0.2-0.2,0.3-0.3,0.6-0.3c0.2,0,0.4,0.1,0.6,0.2
		c0.2,0.2,0.2,0.4,0.2,0.6l-0.2,5.3l-0.9,3c-0.1,0.4-0.4,0.6-0.8,0.6h-0.9c-0.3,0-0.5-0.2-0.7-0.5L63.5,38l-0.9,1.6
		c-0.2,0.3-0.4,0.5-0.7,0.5h-0.9c-0.2,0-0.4-0.1-0.5-0.2c-0.2-0.1-0.2-0.3-0.3-0.4l-0.9-3.1l-0.2-5.2c0-0.2,0.1-0.4,0.2-0.6
		c0.2-0.2,0.4-0.3,0.6-0.3c0.2,0,0.4,0.1,0.6,0.2s0.2,0.4,0.2,0.6l0.2,5l0.5,1.9l1.1-2v-2c0-0.2,0.1-0.4,0.2-0.6
		c0.2-0.2,0.4-0.2,0.6-0.2c0.2,0,0.4,0.1,0.6,0.2S64.4,33.8,64.4,34z"/>
	<path d="M78.1,40h-5c-0.2,0-0.4-0.1-0.6-0.2s-0.2-0.4-0.2-0.6c0-0.2,0.1-0.4,0.2-0.6c0.2-0.2,0.4-0.3,0.6-0.3h1.7V32h-1.7
		c-0.2,0-0.4-0.1-0.6-0.3c-0.2-0.2-0.2-0.4-0.2-0.6c0-0.2,0.1-0.4,0.2-0.6c0.2-0.2,0.4-0.3,0.6-0.3h2.5c0.2,0,0.4,0.1,0.6,0.3
		c0.2,0.2,0.2,0.4,0.2,0.6v7.2h1.6c0.2,0,0.4,0.1,0.6,0.2c0.2,0.2,0.2,0.4,0.2,0.6s-0.1,0.4-0.2,0.6S78.3,40,78.1,40z M74.8,25.8
		h0.9c0.2,0,0.4,0.1,0.6,0.2c0.2,0.2,0.2,0.4,0.2,0.6v0.7c0,0.2-0.1,0.4-0.2,0.6c-0.2,0.2-0.4,0.3-0.6,0.3h-0.9
		c-0.2,0-0.4-0.1-0.6-0.3c-0.2-0.2-0.2-0.4-0.2-0.6l0-0.8c0-0.2,0.1-0.4,0.2-0.6C74.4,25.9,74.6,25.8,74.8,25.8z"/>
	<path d="M90.2,40.1h-5c-0.2,0-0.4-0.1-0.6-0.3c-0.2-0.2-0.2-0.4-0.2-0.6c0-0.2,0.1-0.4,0.2-0.6c0.2-0.2,0.4-0.3,0.6-0.3h1.6V28.3
		h-1.7c-0.2,0-0.4-0.1-0.6-0.2s-0.2-0.4-0.2-0.6s0.1-0.4,0.2-0.6c0.2-0.2,0.4-0.2,0.6-0.2h2.5c0.2,0,0.4,0.1,0.6,0.3
		c0.2,0.2,0.2,0.4,0.2,0.6v10.9h1.7c0.2,0,0.4,0.1,0.6,0.3c0.2,0.2,0.2,0.4,0.2,0.6c0,0.2-0.1,0.4-0.2,0.6
		C90.6,40,90.4,40.1,90.2,40.1z"/>
	<path d="M102.3,40.1h-5c-0.2,0-0.4-0.1-0.6-0.3c-0.2-0.2-0.2-0.4-0.2-0.6c0-0.2,0.1-0.4,0.2-0.6c0.2-0.2,0.4-0.3,0.6-0.3H99V28.3
		h-1.7c-0.2,0-0.4-0.1-0.6-0.2s-0.2-0.4-0.2-0.6s0.1-0.4,0.2-0.6c0.2-0.2,0.4-0.2,0.6-0.2h2.5c0.2,0,0.4,0.1,0.6,0.3
		c0.2,0.2,0.2,0.4,0.2,0.6v10.9h1.7c0.2,0,0.4,0.1,0.6,0.3c0.2,0.2,0.2,0.4,0.2,0.6c0,0.2-0.1,0.4-0.2,0.6
		C102.7,40,102.5,40.1,102.3,40.1z"/>
	<path d="M126.4,31.4v-4c0-0.2,0.1-0.4,0.2-0.6c0.2-0.2,0.3-0.2,0.6-0.2c0.2,0,0.4,0.1,0.6,0.2c0.2,0.2,0.2,0.4,0.2,0.6v11.8
		c0,0.2-0.1,0.4-0.2,0.6c-0.2,0.2-0.4,0.2-0.6,0.2c-0.2,0-0.4-0.1-0.6-0.2c-0.2-0.2-0.2-0.4-0.2-0.6v-0.4c-0.8,0.8-1.5,1.2-2.2,1.2
		h-1.4c-0.6,0-1.1-0.3-1.7-0.8l-0.7-0.6c-0.2-0.2-0.3-0.4-0.4-0.8c-0.1-0.4-0.2-0.7-0.2-1v-3.5c0-0.4,0.1-0.8,0.2-1.1
		c0.2-0.4,0.3-0.6,0.5-0.8l0.7-0.6c0.5-0.4,1-0.6,1.7-0.6h1.2c0.6,0,1.2,0.2,1.8,0.7L126.4,31.4z M124,32h-1.1
		c-0.2,0-0.5,0.1-0.7,0.3l-0.5,0.5c-0.2,0.2-0.3,0.4-0.3,0.6V37c0,0.2,0.1,0.5,0.3,0.6l0.5,0.5c0.2,0.2,0.3,0.2,0.5,0.2h1.3
		c0.2,0,0.4-0.1,0.6-0.3l1.3-1.1c0.2-0.2,0.3-0.4,0.3-0.7v-1.8c0-0.4-0.1-0.7-0.3-0.9l-1.3-1.2C124.6,32.1,124.3,32,124,32z"/>
	<path d="M138.5,40h-5c-0.2,0-0.4-0.1-0.6-0.2s-0.2-0.4-0.2-0.6c0-0.2,0.1-0.4,0.2-0.6c0.2-0.2,0.4-0.3,0.6-0.3h1.7V32h-1.7
		c-0.2,0-0.4-0.1-0.6-0.3c-0.2-0.2-0.2-0.4-0.2-0.6c0-0.2,0.1-0.4,0.2-0.6c0.2-0.2,0.4-0.3,0.6-0.3h2.5c0.2,0,0.4,0.1,0.6,0.3
		c0.2,0.2,0.2,0.4,0.2,0.6v7.2h1.6c0.2,0,0.4,0.1,0.6,0.2c0.2,0.2,0.2,0.4,0.2,0.6s-0.1,0.4-0.2,0.6S138.7,40,138.5,40z M135.2,25.8
		h0.9c0.2,0,0.4,0.1,0.6,0.2c0.2,0.2,0.2,0.4,0.2,0.6v0.7c0,0.2-0.1,0.4-0.2,0.6c-0.2,0.2-0.4,0.3-0.6,0.3h-0.9
		c-0.2,0-0.4-0.1-0.6-0.3c-0.2-0.2-0.2-0.4-0.2-0.6l0-0.8c0-0.2,0.1-0.4,0.2-0.6C134.8,25.9,135,25.8,135.2,25.8z"/>
	<path d="M145.6,39.1v3.8c0,0.2-0.1,0.5-0.2,0.6c-0.2,0.2-0.4,0.3-0.6,0.3s-0.4-0.1-0.6-0.3c-0.2-0.2-0.2-0.4-0.2-0.6V30.7
		c0-0.2,0.1-0.4,0.2-0.6c0.2-0.2,0.4-0.3,0.6-0.3c0.2,0,0.4,0.1,0.6,0.3c0.2,0.2,0.2,0.4,0.2,0.6v0.5c0.8-0.9,1.6-1.4,2.4-1.4h0.4
		c0.6,0,1.1,0.2,1.6,0.7l1.4,1.2c0.6,0.5,0.9,1.2,0.9,2.1v2.7c0,0.8-0.3,1.5-1,2.1l-1.3,1.2c-0.4,0.4-1,0.6-1.7,0.6h-0.4
		c-0.6,0-1.2-0.2-1.6-0.7L145.6,39.1z M148,38.7h0.4c0.2,0,0.4-0.1,0.6-0.3l1.3-1.2c0.2-0.2,0.3-0.4,0.3-0.7v-2.8
		c0-0.3-0.1-0.5-0.4-0.7l-1.4-1.2c-0.2-0.1-0.3-0.2-0.5-0.2h-0.5c-0.2,0-0.4,0.2-0.7,0.5l-1.2,1.3c-0.2,0.2-0.3,0.5-0.3,0.8v2.2
		c0,0.3,0.1,0.5,0.4,0.8l1.2,1.2C147.5,38.6,147.7,38.7,148,38.7z"/>
	<path d="M176.4,32.8L172,43.2c-0.1,0.4-0.4,0.6-0.8,0.6h-2.3c-0.2,0-0.4-0.1-0.6-0.2s-0.2-0.4-0.2-0.6c0-0.2,0.1-0.4,0.2-0.6
		c0.2-0.2,0.4-0.2,0.6-0.2h1.8l1.1-2.7h-0.4c-0.4,0-0.6-0.2-0.8-0.6l-2.5-6v-1.6c0-0.2,0.1-0.4,0.2-0.6c0.2-0.2,0.3-0.2,0.6-0.2
		c0.2,0,0.4,0.1,0.6,0.2c0.2,0.2,0.2,0.4,0.2,0.6l0,1.3l2.2,5.2h0.6l2.2-5.2l0-1.3c0-0.2,0.1-0.4,0.2-0.6c0.2-0.2,0.4-0.3,0.6-0.3
		c0.2,0,0.4,0.1,0.6,0.3c0.2,0.2,0.2,0.4,0.2,0.6V32.8z"/>
	<path d="M188.5,33.3v3.6c0,0.8-0.3,1.5-1,2.1s-1.4,1-2.1,1h-1.9c-0.7,0-1.5-0.3-2.1-1s-1-1.4-1-2.1v-3.6c0-0.7,0.3-1.4,1-2.1
		s1.4-1,2.2-1h1.9c0.7,0,1.5,0.3,2.1,1S188.5,32.6,188.5,33.3z M181.9,33.4v3.5c0,0.3,0.1,0.6,0.3,0.7l0.6,0.5
		c0.1,0.1,0.3,0.2,0.6,0.2h1.9c0.3,0,0.5-0.1,0.8-0.3l0.5-0.5c0.2-0.2,0.3-0.4,0.3-0.7v-3.5c0-0.3-0.1-0.6-0.3-0.8l-0.6-0.5
		c-0.2-0.2-0.4-0.3-0.7-0.3h-1.7c-0.4,0-0.7,0.1-0.9,0.3l-0.6,0.5C182,32.9,181.9,33.1,181.9,33.4z"/>
	<path d="M196.2,38.3l2.8-1.8v-5.4c0-0.2,0.1-0.4,0.2-0.6c0.2-0.2,0.4-0.3,0.6-0.3s0.4,0.1,0.6,0.3c0.2,0.2,0.2,0.4,0.2,0.6v8.1
		c0,0.2-0.1,0.4-0.2,0.6c-0.2,0.2-0.4,0.3-0.6,0.3s-0.4-0.1-0.6-0.3c-0.2-0.2-0.2-0.4-0.2-0.6v-0.7l-1.4,1c-0.6,0.4-1.1,0.6-1.7,0.6
		h-0.8c-0.7,0-1.2-0.2-1.7-0.7c-0.5-0.5-0.7-1.1-0.8-1.8l-0.2-6.4c0-0.2,0.1-0.4,0.2-0.6c0.2-0.2,0.4-0.3,0.6-0.3
		c0.2,0,0.4,0.1,0.6,0.3c0.2,0.2,0.2,0.4,0.2,0.6l0.2,6.3c0,0.6,0.4,0.9,1,0.9H196.2z"/>
	<path d="M204.4,39.2v-8.1c0-0.2,0.1-0.4,0.2-0.6c0.2-0.2,0.4-0.3,0.6-0.3s0.4,0.1,0.6,0.3c0.2,0.2,0.2,0.4,0.2,0.6v1.1l1.3-1.2
		c0.6-0.5,1.1-0.7,1.6-0.7h1.2c0.7,0,1.3,0.3,1.7,0.8s0.7,1.1,0.7,1.8v0.5c0,0.2-0.1,0.5-0.2,0.6c-0.2,0.2-0.4,0.3-0.6,0.3
		s-0.4-0.1-0.6-0.2s-0.2-0.4-0.2-0.6v-0.5c0-0.2-0.1-0.4-0.2-0.6c-0.2-0.2-0.4-0.2-0.6-0.2h-1.1c-0.2,0-0.5,0.1-0.8,0.4l-2.3,2.1
		v4.8c0,0.2-0.1,0.4-0.2,0.6c-0.2,0.2-0.4,0.2-0.6,0.2c-0.2,0-0.4-0.1-0.6-0.2C204.5,39.6,204.4,39.4,204.4,39.2z"/>
	<path d="M232.3,32v7.2c0,0.2-0.1,0.4-0.2,0.6c-0.2,0.2-0.4,0.2-0.6,0.2c-0.2,0-0.4-0.1-0.6-0.2c-0.2-0.2-0.2-0.4-0.2-0.6V32h-0.8
		c-0.2,0-0.4-0.1-0.6-0.3c-0.2-0.2-0.2-0.4-0.2-0.6c0-0.2,0.1-0.4,0.2-0.6c0.1-0.2,0.3-0.3,0.6-0.3h0.9v-0.7c0-0.9,0.3-1.6,0.9-2.2
		c0.6-0.6,1.3-0.9,2.2-0.9h1.9c0.2,0,0.4,0.1,0.6,0.3c0.2,0.2,0.2,0.4,0.2,0.6c0,0.2-0.1,0.4-0.2,0.6c-0.2,0.2-0.4,0.3-0.6,0.3h-1.9
		c-0.4,0-0.7,0.1-1,0.4c-0.3,0.2-0.4,0.6-0.4,0.9v0.7h1.6c0.2,0,0.4,0.1,0.6,0.2c0.2,0.2,0.2,0.4,0.2,0.6c0,0.2-0.1,0.4-0.2,0.6
		c-0.2,0.2-0.4,0.3-0.6,0.3H232.3z"/>
	<path d="M248.9,33.5v2.1c0,0.2-0.1,0.4-0.2,0.6c-0.2,0.2-0.4,0.3-0.6,0.3h-5.8v0.5c0,0.3,0.1,0.5,0.4,0.7l0.5,0.4
		c0.3,0.2,0.5,0.3,0.7,0.3h4.2c0.2,0,0.4,0.1,0.6,0.2s0.2,0.4,0.2,0.6c0,0.2-0.1,0.4-0.2,0.6c-0.2,0.2-0.4,0.3-0.6,0.3h-4.3
		c-0.3,0-0.6-0.1-0.9-0.2c-0.3-0.1-0.5-0.3-0.7-0.4l-0.7-0.7c-0.2-0.2-0.4-0.5-0.6-0.8c-0.2-0.3-0.2-0.6-0.2-0.9v-3.9
		c0-0.2,0.1-0.5,0.2-0.9c0.2-0.4,0.4-0.7,0.6-0.9l0.7-0.6c0.4-0.4,0.9-0.6,1.5-0.6h2.3c0.6,0,1.1,0.3,1.6,0.8l0.6,0.6
		C248.7,32,248.9,32.6,248.9,33.5z M242.3,33.3v1.3h5v-1.2c0-0.3-0.1-0.6-0.3-0.7l-0.5-0.4c-0.2-0.2-0.5-0.3-0.7-0.3h-2.1
		c-0.3,0-0.5,0.1-0.7,0.3l-0.5,0.4C242.4,32.8,242.3,33.1,242.3,33.3z"/>
	<path d="M261,33.5v2.1c0,0.2-0.1,0.4-0.2,0.6c-0.2,0.2-0.4,0.3-0.6,0.3h-5.8v0.5c0,0.3,0.1,0.5,0.4,0.7l0.5,0.4
		c0.3,0.2,0.5,0.3,0.7,0.3h4.2c0.2,0,0.4,0.1,0.6,0.2s0.2,0.4,0.2,0.6c0,0.2-0.1,0.4-0.2,0.6c-0.2,0.2-0.4,0.3-0.6,0.3h-4.3
		c-0.3,0-0.6-0.1-0.9-0.2c-0.3-0.1-0.5-0.3-0.7-0.4l-0.7-0.7c-0.2-0.2-0.4-0.5-0.6-0.8c-0.2-0.3-0.2-0.6-0.2-0.9v-3.9
		c0-0.2,0.1-0.5,0.2-0.9c0.2-0.4,0.4-0.7,0.6-0.9l0.7-0.6c0.4-0.4,0.9-0.6,1.5-0.6h2.3c0.6,0,1.1,0.3,1.6,0.8l0.6,0.6
		C260.7,32,261,32.6,261,33.5z M254.4,33.3v1.3h5v-1.2c0-0.3-0.1-0.6-0.3-0.7l-0.5-0.4c-0.2-0.2-0.5-0.3-0.7-0.3h-2.1
		c-0.3,0-0.5,0.1-0.7,0.3l-0.5,0.4C254.5,32.8,254.4,33.1,254.4,33.3z"/>
	<path d="M270.5,40.1h-1.6c-0.7,0-1.3-0.3-1.7-0.8s-0.7-1.1-0.7-1.8V32h-0.8c-0.2,0-0.4-0.1-0.6-0.2c-0.2-0.2-0.2-0.4-0.2-0.6
		c0-0.2,0.1-0.4,0.2-0.6c0.2-0.2,0.4-0.2,0.6-0.2h0.9v-2.1c0-0.2,0.1-0.4,0.2-0.6c0.2-0.2,0.4-0.2,0.6-0.2c0.2,0,0.4,0.1,0.6,0.3
		c0.2,0.2,0.2,0.4,0.2,0.6v2.1h3.3c0.2,0,0.4,0.1,0.6,0.3c0.2,0.2,0.2,0.4,0.2,0.6c0,0.2-0.1,0.4-0.2,0.6c-0.2,0.2-0.4,0.2-0.6,0.2
		h-3.3v5.5c0,0.2,0.1,0.4,0.2,0.6c0.2,0.2,0.4,0.3,0.6,0.3h1.6c0.4,0,0.7-0.2,0.9-0.7s0.4-0.7,0.8-0.7c0.2,0,0.4,0.1,0.6,0.2
		s0.2,0.4,0.2,0.6c0,0.5-0.2,1-0.7,1.5S271.3,40.1,270.5,40.1z"/>
	<path d="M295.6,40h-5c-0.2,0-0.4-0.1-0.6-0.2s-0.2-0.4-0.2-0.6c0-0.2,0.1-0.4,0.2-0.6c0.2-0.2,0.4-0.3,0.6-0.3h1.7V32h-1.7
		c-0.2,0-0.4-0.1-0.6-0.3c-0.2-0.2-0.2-0.4-0.2-0.6c0-0.2,0.1-0.4,0.2-0.6c0.2-0.2,0.4-0.3,0.6-0.3h2.5c0.2,0,0.4,0.1,0.6,0.3
		c0.2,0.2,0.2,0.4,0.2,0.6v7.2h1.6c0.2,0,0.4,0.1,0.6,0.2c0.2,0.2,0.2,0.4,0.2,0.6s-0.1,0.4-0.2,0.6S295.8,40,295.6,40z M292.2,25.8
		h0.9c0.2,0,0.4,0.1,0.6,0.2c0.2,0.2,0.2,0.4,0.2,0.6v0.7c0,0.2-0.1,0.4-0.2,0.6c-0.2,0.2-0.4,0.3-0.6,0.3h-0.9
		c-0.2,0-0.4-0.1-0.6-0.3c-0.2-0.2-0.2-0.4-0.2-0.6l0-0.8c0-0.2,0.1-0.4,0.2-0.6C291.8,25.9,292,25.8,292.2,25.8z"/>
	<path d="M304.9,32.2l-2.2,1.5v5.5c0,0.2-0.1,0.4-0.2,0.6c-0.2,0.2-0.4,0.3-0.6,0.3s-0.4-0.1-0.6-0.3c-0.2-0.2-0.2-0.4-0.2-0.6v-8.1
		c0-0.2,0.1-0.4,0.2-0.6c0.2-0.2,0.4-0.3,0.6-0.3c0.2,0,0.4,0.1,0.6,0.3c0.2,0.2,0.2,0.4,0.2,0.6v0.6l1.5-0.9
		c0.5-0.3,1.1-0.5,1.7-0.5h0.8c0.7,0,1.2,0.2,1.7,0.7c0.5,0.5,0.7,1.1,0.8,1.8l0.2,6.5c0,0.2-0.1,0.4-0.2,0.6
		c-0.2,0.2-0.4,0.3-0.6,0.3c-0.2,0-0.4-0.1-0.6-0.2s-0.2-0.4-0.3-0.6l-0.2-6.4c0-0.6-0.3-0.9-0.9-0.9h-0.8
		C305.5,31.9,305.2,32,304.9,32.2z"/>
	<path d="M318.9,40.1h-1.6c-0.7,0-1.3-0.3-1.7-0.8s-0.7-1.1-0.7-1.8V32h-0.8c-0.2,0-0.4-0.1-0.6-0.2c-0.2-0.2-0.2-0.4-0.2-0.6
		c0-0.2,0.1-0.4,0.2-0.6c0.2-0.2,0.4-0.2,0.6-0.2h0.9v-2.1c0-0.2,0.1-0.4,0.2-0.6c0.2-0.2,0.4-0.2,0.6-0.2c0.2,0,0.4,0.1,0.6,0.3
		c0.2,0.2,0.2,0.4,0.2,0.6v2.1h3.3c0.2,0,0.4,0.1,0.6,0.3c0.2,0.2,0.2,0.4,0.2,0.6c0,0.2-0.1,0.4-0.2,0.6c-0.2,0.2-0.4,0.2-0.6,0.2
		h-3.3v5.5c0,0.2,0.1,0.4,0.2,0.6c0.2,0.2,0.4,0.3,0.6,0.3h1.6c0.4,0,0.7-0.2,0.9-0.7s0.4-0.7,0.8-0.7c0.2,0,0.4,0.1,0.6,0.2
		s0.2,0.4,0.2,0.6c0,0.5-0.2,1-0.7,1.5S319.6,40.1,318.9,40.1z"/>
	<path d="M333.4,33.3v3.6c0,0.8-0.3,1.5-1,2.1s-1.4,1-2.1,1h-1.9c-0.7,0-1.5-0.3-2.1-1s-1-1.4-1-2.1v-3.6c0-0.7,0.3-1.4,1-2.1
		s1.4-1,2.2-1h1.9c0.7,0,1.5,0.3,2.1,1S333.4,32.6,333.4,33.3z M326.8,33.4v3.5c0,0.3,0.1,0.6,0.3,0.7l0.6,0.5
		c0.1,0.1,0.3,0.2,0.6,0.2h1.9c0.3,0,0.5-0.1,0.8-0.3l0.5-0.5c0.2-0.2,0.3-0.4,0.3-0.7v-3.5c0-0.3-0.1-0.6-0.3-0.8l-0.6-0.5
		c-0.2-0.2-0.4-0.3-0.7-0.3h-1.7c-0.4,0-0.7,0.1-0.9,0.3l-0.6,0.5C326.9,32.9,326.8,33.1,326.8,33.4z"/>
	<path d="M355.1,40.1h-1.6c-0.7,0-1.3-0.3-1.7-0.8s-0.7-1.1-0.7-1.8V32h-0.8c-0.2,0-0.4-0.1-0.6-0.2c-0.2-0.2-0.2-0.4-0.2-0.6
		c0-0.2,0.1-0.4,0.2-0.6c0.2-0.2,0.4-0.2,0.6-0.2h0.9v-2.1c0-0.2,0.1-0.4,0.2-0.6c0.2-0.2,0.4-0.2,0.6-0.2c0.2,0,0.4,0.1,0.6,0.3
		c0.2,0.2,0.2,0.4,0.2,0.6v2.1h3.3c0.2,0,0.4,0.1,0.6,0.3c0.2,0.2,0.2,0.4,0.2,0.6c0,0.2-0.1,0.4-0.2,0.6c-0.2,0.2-0.4,0.2-0.6,0.2
		h-3.3v5.5c0,0.2,0.1,0.4,0.2,0.6c0.2,0.2,0.4,0.3,0.6,0.3h1.6c0.4,0,0.7-0.2,0.9-0.7s0.4-0.7,0.8-0.7c0.2,0,0.4,0.1,0.6,0.2
		s0.2,0.4,0.2,0.6c0,0.5-0.2,1-0.7,1.5S355.8,40.1,355.1,40.1z"/>
	<path d="M361.4,39.2V27.4c0-0.2,0.1-0.4,0.2-0.6c0.2-0.2,0.4-0.2,0.6-0.2s0.4,0.1,0.6,0.2s0.2,0.4,0.2,0.6v4.3l1.3-0.9
		c0.6-0.4,1.1-0.6,1.6-0.6h1c0.7,0,1.2,0.2,1.7,0.7c0.5,0.5,0.7,1.1,0.8,1.8l0.2,6.4c0,0.2-0.1,0.4-0.2,0.6
		c-0.2,0.2-0.4,0.2-0.6,0.2s-0.4-0.1-0.6-0.3c-0.2-0.2-0.2-0.4-0.2-0.6l-0.2-6.4c0-0.2-0.1-0.4-0.3-0.6c-0.2-0.2-0.4-0.3-0.6-0.3
		h-0.9c-0.2,0-0.4,0.1-0.7,0.3l-2.3,1.6v5.4c0,0.2-0.1,0.4-0.2,0.6c-0.2,0.2-0.4,0.2-0.6,0.2s-0.4-0.1-0.6-0.2
		C361.5,39.6,361.4,39.4,361.4,39.2z"/>
	<path d="M381.8,33.5v2.1c0,0.2-0.1,0.4-0.2,0.6c-0.2,0.2-0.4,0.3-0.6,0.3h-5.8v0.5c0,0.3,0.1,0.5,0.4,0.7L376,38
		c0.3,0.2,0.5,0.3,0.7,0.3h4.2c0.2,0,0.4,0.1,0.6,0.2s0.2,0.4,0.2,0.6c0,0.2-0.1,0.4-0.2,0.6c-0.2,0.2-0.4,0.3-0.6,0.3h-4.3
		c-0.3,0-0.6-0.1-0.9-0.2c-0.3-0.1-0.5-0.3-0.7-0.4l-0.7-0.7c-0.2-0.2-0.4-0.5-0.6-0.8c-0.2-0.3-0.2-0.6-0.2-0.9v-3.9
		c0-0.2,0.1-0.5,0.2-0.9c0.2-0.4,0.4-0.7,0.6-0.9l0.7-0.6c0.4-0.4,0.9-0.6,1.5-0.6h2.3c0.6,0,1.1,0.3,1.6,0.8l0.6,0.6
		C381.5,32,381.8,32.6,381.8,33.5z M375.2,33.3v1.3h5v-1.2c0-0.3-0.1-0.6-0.3-0.7l-0.5-0.4c-0.2-0.2-0.5-0.3-0.7-0.3h-2.1
		c-0.3,0-0.5,0.1-0.7,0.3l-0.5,0.4C375.3,32.8,375.2,33.1,375.2,33.3z"/>
	<path d="M405.1,40.1h-3.5c-0.6,0-1.1-0.2-1.6-0.6l-1.6-1.4c-0.5-0.4-0.8-1-0.8-1.8V34c0-0.7,0.3-1.4,0.9-1.9l1.4-1.3
		c0.5-0.4,1-0.6,1.5-0.6h3.7c0.2,0,0.4,0.1,0.6,0.2c0.2,0.2,0.2,0.4,0.2,0.6c0,0.2-0.1,0.4-0.2,0.6c-0.2,0.2-0.4,0.2-0.6,0.2h-3.5
		c-0.2,0-0.4,0.1-0.6,0.3l-1.3,1.2c-0.2,0.2-0.3,0.4-0.3,0.8v2.1c0,0.2,0.1,0.4,0.3,0.6l1.4,1.3c0.2,0.2,0.4,0.3,0.7,0.3h3.4
		c0.2,0,0.4,0.1,0.6,0.2s0.2,0.4,0.2,0.6c0,0.2-0.1,0.4-0.2,0.6C405.5,40,405.3,40.1,405.1,40.1z"/>
	<path d="M418,33.3v3.6c0,0.8-0.3,1.5-1,2.1s-1.4,1-2.1,1h-1.9c-0.7,0-1.5-0.3-2.1-1s-1-1.4-1-2.1v-3.6c0-0.7,0.3-1.4,1-2.1
		s1.4-1,2.2-1h1.9c0.7,0,1.5,0.3,2.1,1S418,32.6,418,33.3z M411.4,33.4v3.5c0,0.3,0.1,0.6,0.3,0.7l0.6,0.5c0.1,0.1,0.3,0.2,0.6,0.2
		h1.9c0.3,0,0.5-0.1,0.8-0.3l0.5-0.5c0.2-0.2,0.3-0.4,0.3-0.7v-3.5c0-0.3-0.1-0.6-0.3-0.8l-0.6-0.5c-0.2-0.2-0.4-0.3-0.7-0.3h-1.7
		c-0.4,0-0.7,0.1-0.9,0.3l-0.6,0.5C411.5,32.9,411.4,33.1,411.4,33.4z"/>
	<path d="M421.8,39.2v-8.1c0-0.2,0.1-0.4,0.2-0.6c0.2-0.2,0.4-0.3,0.6-0.3s0.4,0.1,0.6,0.3c0.2,0.2,0.2,0.4,0.2,0.6v1.1l1.3-1.2
		c0.6-0.5,1.1-0.7,1.6-0.7h1.2c0.7,0,1.3,0.3,1.7,0.8s0.7,1.1,0.7,1.8v0.5c0,0.2-0.1,0.5-0.2,0.6c-0.2,0.2-0.4,0.3-0.6,0.3
		s-0.4-0.1-0.6-0.2s-0.2-0.4-0.2-0.6v-0.5c0-0.2-0.1-0.4-0.2-0.6c-0.2-0.2-0.4-0.2-0.6-0.2h-1.1c-0.2,0-0.5,0.1-0.8,0.4l-2.3,2.1
		v4.8c0,0.2-0.1,0.4-0.2,0.6c-0.2,0.2-0.4,0.2-0.6,0.2c-0.2,0-0.4-0.1-0.6-0.2C421.9,39.6,421.8,39.4,421.8,39.2z"/>
	<path d="M442.2,33.5v2.1c0,0.2-0.1,0.4-0.2,0.6c-0.2,0.2-0.4,0.3-0.6,0.3h-5.8v0.5c0,0.3,0.1,0.5,0.4,0.7l0.5,0.4
		c0.3,0.2,0.5,0.3,0.7,0.3h4.2c0.2,0,0.4,0.1,0.6,0.2s0.2,0.4,0.2,0.6c0,0.2-0.1,0.4-0.2,0.6c-0.2,0.2-0.4,0.3-0.6,0.3H437
		c-0.3,0-0.6-0.1-0.9-0.2c-0.3-0.1-0.5-0.3-0.7-0.4l-0.7-0.7c-0.2-0.2-0.4-0.5-0.6-0.8c-0.2-0.3-0.2-0.6-0.2-0.9v-3.9
		c0-0.2,0.1-0.5,0.2-0.9c0.2-0.4,0.4-0.7,0.6-0.9l0.7-0.6c0.4-0.4,0.9-0.6,1.5-0.6h2.3c0.6,0,1.1,0.3,1.6,0.8l0.6,0.6
		C441.9,32,442.2,32.6,442.2,33.5z M435.6,33.3v1.3h5v-1.2c0-0.3-0.1-0.6-0.3-0.7l-0.5-0.4c-0.2-0.2-0.5-0.3-0.7-0.3h-2.1
		c-0.3,0-0.5,0.1-0.7,0.3l-0.5,0.4C435.7,32.8,435.6,33.1,435.6,33.3z"/>
	<path d="M466.3,33.3v3.6c0,0.8-0.3,1.5-1,2.1s-1.4,1-2.1,1h-1.9c-0.7,0-1.5-0.3-2.1-1s-1-1.4-1-2.1v-3.6c0-0.7,0.3-1.4,1-2.1
		s1.4-1,2.2-1h1.9c0.7,0,1.5,0.3,2.1,1S466.3,32.6,466.3,33.3z M459.7,33.4v3.5c0,0.3,0.1,0.6,0.3,0.7l0.6,0.5
		c0.1,0.1,0.3,0.2,0.6,0.2h1.9c0.3,0,0.5-0.1,0.8-0.3l0.5-0.5c0.2-0.2,0.3-0.4,0.3-0.7v-3.5c0-0.3-0.1-0.6-0.3-0.8l-0.6-0.5
		c-0.2-0.2-0.4-0.3-0.7-0.3h-1.7c-0.4,0-0.7,0.1-0.9,0.3l-0.6,0.5C459.8,32.9,459.7,33.1,459.7,33.4z"/>
	<path d="M473.9,32v7.2c0,0.2-0.1,0.4-0.2,0.6c-0.2,0.2-0.4,0.2-0.6,0.2c-0.2,0-0.4-0.1-0.6-0.2c-0.2-0.2-0.2-0.4-0.2-0.6V32h-0.8
		c-0.2,0-0.4-0.1-0.6-0.3c-0.2-0.2-0.2-0.4-0.2-0.6c0-0.2,0.1-0.4,0.2-0.6c0.1-0.2,0.3-0.3,0.6-0.3h0.9v-0.7c0-0.9,0.3-1.6,0.9-2.2
		c0.6-0.6,1.3-0.9,2.2-0.9h1.9c0.2,0,0.4,0.1,0.6,0.3c0.2,0.2,0.2,0.4,0.2,0.6c0,0.2-0.1,0.4-0.2,0.6c-0.2,0.2-0.4,0.3-0.6,0.3h-1.9
		c-0.4,0-0.7,0.1-1,0.4c-0.3,0.2-0.4,0.6-0.4,0.9v0.7h1.6c0.2,0,0.4,0.1,0.6,0.2c0.2,0.2,0.2,0.4,0.2,0.6c0,0.2-0.1,0.4-0.2,0.6
		c-0.2,0.2-0.4,0.3-0.6,0.3H473.9z"/>
	<path d="M500.1,40.1h-1.6c-0.7,0-1.3-0.3-1.7-0.8s-0.7-1.1-0.7-1.8V32h-0.8c-0.2,0-0.4-0.1-0.6-0.2c-0.2-0.2-0.2-0.4-0.2-0.6
		c0-0.2,0.1-0.4,0.2-0.6c0.2-0.2,0.4-0.2,0.6-0.2h0.9v-2.1c0-0.2,0.1-0.4,0.2-0.6c0.2-0.2,0.4-0.2,0.6-0.2c0.2,0,0.4,0.1,0.6,0.3
		c0.2,0.2,0.2,0.4,0.2,0.6v2.1h3.3c0.2,0,0.4,0.1,0.6,0.3c0.2,0.2,0.2,0.4,0.2,0.6c0,0.2-0.1,0.4-0.2,0.6c-0.2,0.2-0.4,0.2-0.6,0.2
		h-3.3v5.5c0,0.2,0.1,0.4,0.2,0.6c0.2,0.2,0.4,0.3,0.6,0.3h1.6c0.4,0,0.7-0.2,0.9-0.7s0.4-0.7,0.8-0.7c0.2,0,0.4,0.1,0.6,0.2
		s0.2,0.4,0.2,0.6c0,0.5-0.2,1-0.7,1.5S500.8,40.1,500.1,40.1z"/>
	<path d="M506.4,39.2V27.4c0-0.2,0.1-0.4,0.2-0.6c0.2-0.2,0.4-0.2,0.6-0.2s0.4,0.1,0.6,0.2s0.2,0.4,0.2,0.6v4.3l1.3-0.9
		c0.6-0.4,1.1-0.6,1.6-0.6h1c0.7,0,1.2,0.2,1.7,0.7c0.5,0.5,0.7,1.1,0.8,1.8l0.2,6.4c0,0.2-0.1,0.4-0.2,0.6
		c-0.2,0.2-0.4,0.2-0.6,0.2s-0.4-0.1-0.6-0.3c-0.2-0.2-0.2-0.4-0.2-0.6l-0.2-6.4c0-0.2-0.1-0.4-0.3-0.6c-0.2-0.2-0.4-0.3-0.6-0.3
		H511c-0.2,0-0.4,0.1-0.7,0.3l-2.3,1.6v5.4c0,0.2-0.1,0.4-0.2,0.6c-0.2,0.2-0.4,0.2-0.6,0.2s-0.4-0.1-0.6-0.2
		C506.4,39.6,506.4,39.4,506.4,39.2z"/>
	<path d="M526.7,33.5v2.1c0,0.2-0.1,0.4-0.2,0.6c-0.2,0.2-0.4,0.3-0.6,0.3h-5.8v0.5c0,0.3,0.1,0.5,0.4,0.7l0.5,0.4
		c0.3,0.2,0.5,0.3,0.7,0.3h4.2c0.2,0,0.4,0.1,0.6,0.2s0.2,0.4,0.2,0.6c0,0.2-0.1,0.4-0.2,0.6c-0.2,0.2-0.4,0.3-0.6,0.3h-4.3
		c-0.3,0-0.6-0.1-0.9-0.2c-0.3-0.1-0.5-0.3-0.7-0.4l-0.7-0.7c-0.2-0.2-0.4-0.5-0.6-0.8c-0.2-0.3-0.2-0.6-0.2-0.9v-3.9
		c0-0.2,0.1-0.5,0.2-0.9c0.2-0.4,0.4-0.7,0.6-0.9l0.7-0.6c0.4-0.4,0.9-0.6,1.5-0.6h2.3c0.6,0,1.1,0.3,1.6,0.8l0.6,0.6
		C526.5,32,526.7,32.6,526.7,33.5z M520.1,33.3v1.3h5v-1.2c0-0.3-0.1-0.6-0.3-0.7l-0.5-0.4c-0.2-0.2-0.5-0.3-0.7-0.3h-2.1
		c-0.3,0-0.5,0.1-0.7,0.3l-0.5,0.4C520.2,32.8,520.1,33.1,520.1,33.3z"/>
	<path d="M544.9,30.3h3.8c0.6,0,1.1,0.2,1.6,0.5c0.4,0.4,0.7,0.7,0.7,1.1c0,0.2-0.1,0.4-0.2,0.6s-0.3,0.2-0.6,0.2
		c-0.3,0-0.5-0.1-0.7-0.4S549,32,548.7,32H545c-0.4,0-0.5,0.2-0.5,0.5c0,0.2,0.1,0.4,0.4,0.5l4.4,2c0.4,0.2,0.8,0.5,1.1,1
		s0.4,0.9,0.4,1.5c0,0.7-0.2,1.4-0.7,1.9c-0.5,0.5-1.1,0.8-1.7,0.8h-3.3c-0.6,0-1.1-0.2-1.6-0.5s-0.7-0.7-0.7-1
		c0-0.2,0.1-0.4,0.2-0.6c0.2-0.2,0.4-0.3,0.6-0.3c0.2,0,0.4,0.1,0.7,0.4s0.6,0.4,1,0.4h3.1c0.2,0,0.4-0.1,0.6-0.3s0.2-0.4,0.2-0.7
		c0-0.4-0.2-0.7-0.5-0.8l-4.4-2.1c-0.4-0.2-0.7-0.5-1-0.9c-0.2-0.4-0.3-0.8-0.3-1.1c0-0.6,0.2-1.1,0.6-1.6S544.3,30.3,544.9,30.3z"
		/>
	<path d="M558.6,38.3l2.8-1.8v-5.4c0-0.2,0.1-0.4,0.2-0.6c0.2-0.2,0.4-0.3,0.6-0.3s0.4,0.1,0.6,0.3c0.2,0.2,0.2,0.4,0.2,0.6v8.1
		c0,0.2-0.1,0.4-0.2,0.6c-0.2,0.2-0.4,0.3-0.6,0.3s-0.4-0.1-0.6-0.3c-0.2-0.2-0.2-0.4-0.2-0.6v-0.7l-1.4,1c-0.6,0.4-1.1,0.6-1.7,0.6
		h-0.8c-0.7,0-1.2-0.2-1.7-0.7c-0.5-0.5-0.7-1.1-0.8-1.8l-0.2-6.4c0-0.2,0.1-0.4,0.2-0.6c0.2-0.2,0.4-0.3,0.6-0.3
		c0.2,0,0.4,0.1,0.6,0.3c0.2,0.2,0.2,0.4,0.2,0.6l0.2,6.3c0,0.6,0.4,0.9,1,0.9H558.6z"/>
	<path d="M570.7,32.2l-2.2,1.5v5.5c0,0.2-0.1,0.4-0.2,0.6c-0.2,0.2-0.4,0.3-0.6,0.3s-0.4-0.1-0.6-0.3c-0.2-0.2-0.2-0.4-0.2-0.6v-8.1
		c0-0.2,0.1-0.4,0.2-0.6c0.2-0.2,0.4-0.3,0.6-0.3c0.2,0,0.4,0.1,0.6,0.3c0.2,0.2,0.2,0.4,0.2,0.6v0.6l1.5-0.9
		c0.5-0.3,1.1-0.5,1.7-0.5h0.8c0.7,0,1.2,0.2,1.7,0.7s0.7,1.1,0.8,1.8l0.2,6.5c0,0.2-0.1,0.4-0.2,0.6c-0.2,0.2-0.4,0.3-0.6,0.3
		c-0.2,0-0.4-0.1-0.6-0.2s-0.2-0.4-0.3-0.6l-0.2-6.4c0-0.6-0.3-0.9-0.9-0.9h-0.8C571.2,31.9,571,32,570.7,32.2z"/>
</g>
<g class="st7">
	<path d="M37.7,58.9h3.2c0.2,0,0.4,0,0.8,0.1l0-1.2c0-0.2-0.1-0.4-0.2-0.6c-0.2-0.2-0.4-0.2-0.6-0.2h-3.1c-0.2,0-0.4-0.1-0.6-0.3
		c-0.2-0.2-0.2-0.4-0.2-0.6c0-0.2,0.1-0.4,0.2-0.6c0.2-0.2,0.4-0.2,0.6-0.2h3.1c0.7,0,1.3,0.2,1.7,0.7c0.5,0.5,0.7,1.1,0.7,1.8
		l0.2,6.4c0,0.2-0.1,0.4-0.2,0.6c-0.2,0.2-0.4,0.2-0.6,0.2c-0.2,0-0.4-0.1-0.6-0.2c-0.2-0.2-0.2-0.4-0.2-0.6L40.5,65h-2.8
		c-0.7,0-1.3-0.3-1.8-0.8s-0.7-1.1-0.7-1.8v-1c0-0.7,0.2-1.3,0.7-1.8S37,58.9,37.7,58.9z M41.8,62.2l0-0.7c0-0.2-0.1-0.4-0.2-0.6
		s-0.3-0.2-0.6-0.2h-3.2c-0.2,0-0.4,0.1-0.6,0.2c-0.2,0.2-0.2,0.4-0.2,0.6v1c0,0.2,0.1,0.4,0.2,0.6c0.2,0.2,0.4,0.3,0.6,0.3H40
		L41.8,62.2z"/>
	<path d="M51.2,57.2L49,58.7v5.5c0,0.2-0.1,0.4-0.2,0.6c-0.2,0.2-0.4,0.3-0.6,0.3s-0.4-0.1-0.6-0.3c-0.2-0.2-0.2-0.4-0.2-0.6v-8.1
		c0-0.2,0.1-0.4,0.2-0.6c0.2-0.2,0.4-0.3,0.6-0.3c0.2,0,0.4,0.1,0.6,0.3c0.2,0.2,0.2,0.4,0.2,0.6v0.6l1.5-0.9
		c0.5-0.3,1.1-0.5,1.7-0.5h0.8c0.7,0,1.2,0.2,1.7,0.7c0.5,0.5,0.7,1.1,0.8,1.8l0.2,6.5c0,0.2-0.1,0.4-0.2,0.6
		C55.2,64.9,55,65,54.8,65c-0.2,0-0.4-0.1-0.6-0.2S54,64.4,54,64.2l-0.2-6.4c0-0.6-0.3-0.9-0.9-0.9H52C51.8,56.9,51.5,57,51.2,57.2z
		"/>
	<path d="M66,56.4v-4c0-0.2,0.1-0.4,0.2-0.6c0.2-0.2,0.3-0.2,0.6-0.2c0.2,0,0.4,0.1,0.6,0.2c0.2,0.2,0.2,0.4,0.2,0.6v11.8
		c0,0.2-0.1,0.4-0.2,0.6c-0.2,0.2-0.4,0.2-0.6,0.2c-0.2,0-0.4-0.1-0.6-0.2c-0.2-0.2-0.2-0.4-0.2-0.6v-0.4c-0.8,0.8-1.5,1.2-2.2,1.2
		h-1.4c-0.6,0-1.1-0.3-1.7-0.8L60,63.7c-0.2-0.2-0.3-0.4-0.4-0.8c-0.1-0.4-0.2-0.7-0.2-1v-3.5c0-0.4,0.1-0.8,0.2-1.1
		c0.2-0.4,0.3-0.6,0.5-0.8l0.7-0.6c0.5-0.4,1-0.6,1.7-0.6h1.2c0.6,0,1.2,0.2,1.8,0.7L66,56.4z M63.6,56.9h-1.1
		c-0.2,0-0.5,0.1-0.7,0.3l-0.5,0.5c-0.2,0.2-0.3,0.4-0.3,0.6v3.6c0,0.2,0.1,0.5,0.3,0.6l0.5,0.5c0.2,0.2,0.3,0.2,0.5,0.2h1.3
		c0.2,0,0.4-0.1,0.6-0.3l1.3-1.1c0.2-0.2,0.3-0.4,0.3-0.7v-1.8c0-0.4-0.1-0.7-0.3-0.9l-1.3-1.2C64.2,57,63.9,56.9,63.6,56.9z"/>
	<path d="M83.4,64.2v-8.1c0-0.2,0.1-0.4,0.2-0.6c0.2-0.2,0.4-0.2,0.6-0.2c0.4,0,0.7,0.2,0.8,0.6c0.5-0.4,1-0.7,1.5-0.7
		c0.7,0,1.2,0.3,1.6,0.9c0.5-0.6,1.1-0.9,1.7-0.9c0.5,0,0.9,0.2,1.3,0.6c0.4,0.4,0.6,0.9,0.6,1.4l0.2,7c0,0.2-0.1,0.4-0.2,0.6
		c-0.2,0.2-0.4,0.3-0.6,0.3c-0.2,0-0.4-0.1-0.6-0.3c-0.2-0.2-0.2-0.4-0.3-0.6l-0.2-6.7c0-0.4-0.1-0.5-0.3-0.5
		c-0.1,0-0.2,0.1-0.3,0.2l-1,0.9v6.2c0,0.2-0.1,0.4-0.2,0.6c-0.2,0.2-0.4,0.2-0.6,0.2c-0.2,0-0.4-0.1-0.6-0.2s-0.2-0.4-0.2-0.6v-6.8
		c0-0.3-0.1-0.4-0.4-0.4c-0.1,0-0.2,0-0.3,0.1l-1.2,1v6.1c0,0.2-0.1,0.4-0.2,0.6c-0.2,0.2-0.3,0.3-0.6,0.3c-0.2,0-0.4-0.1-0.6-0.3
		C83.5,64.6,83.4,64.4,83.4,64.2z"/>
	<path d="M98.1,58.9h3.2c0.2,0,0.4,0,0.8,0.1l0-1.2c0-0.2-0.1-0.4-0.2-0.6c-0.2-0.2-0.4-0.2-0.6-0.2h-3.1c-0.2,0-0.4-0.1-0.6-0.3
		c-0.2-0.2-0.2-0.4-0.2-0.6c0-0.2,0.1-0.4,0.2-0.6c0.2-0.2,0.4-0.2,0.6-0.2h3.1c0.7,0,1.3,0.2,1.7,0.7c0.5,0.5,0.7,1.1,0.7,1.8
		l0.2,6.4c0,0.2-0.1,0.4-0.2,0.6c-0.2,0.2-0.4,0.2-0.6,0.2c-0.2,0-0.4-0.1-0.6-0.2c-0.2-0.2-0.2-0.4-0.2-0.6l-1.4,0.9h-2.8
		c-0.7,0-1.3-0.3-1.8-0.8s-0.7-1.1-0.7-1.8v-1c0-0.7,0.2-1.3,0.7-1.8S97.4,58.9,98.1,58.9z M102.2,62.2l0-0.7c0-0.2-0.1-0.4-0.2-0.6
		s-0.3-0.2-0.6-0.2h-3.2c-0.2,0-0.4,0.1-0.6,0.2c-0.2,0.2-0.2,0.4-0.2,0.6v1c0,0.2,0.1,0.4,0.2,0.6c0.2,0.2,0.4,0.3,0.6,0.3h2.3
		L102.2,62.2z"/>
	<path d="M107.7,64.2V52.4c0-0.2,0.1-0.5,0.2-0.6c0.2-0.2,0.4-0.3,0.6-0.3s0.4,0.1,0.6,0.3c0.2,0.2,0.2,0.4,0.2,0.6v7l4.4-3.9
		c0.2-0.2,0.4-0.2,0.6-0.2c0.2,0,0.4,0.1,0.6,0.3s0.2,0.4,0.2,0.6c0,0.3-0.1,0.5-0.3,0.6l-3.4,3l4.2,3.9c0.2,0.1,0.3,0.3,0.3,0.6
		c0,0.2-0.1,0.4-0.2,0.6s-0.3,0.3-0.6,0.3s-0.4-0.1-0.6-0.2l-4.4-3.9l-0.9,0.8v2.6c0,0.2-0.1,0.4-0.2,0.6s-0.4,0.2-0.6,0.2
		s-0.4-0.1-0.6-0.2C107.8,64.6,107.7,64.4,107.7,64.2z"/>
	<path d="M128.1,58.4v2.1c0,0.2-0.1,0.4-0.2,0.6c-0.2,0.2-0.4,0.3-0.6,0.3h-5.8v0.5c0,0.3,0.1,0.5,0.4,0.7l0.5,0.4
		c0.3,0.2,0.5,0.3,0.7,0.3h4.2c0.2,0,0.4,0.1,0.6,0.2s0.2,0.4,0.2,0.6c0,0.2-0.1,0.4-0.2,0.6c-0.2,0.2-0.4,0.3-0.6,0.3h-4.3
		c-0.3,0-0.6-0.1-0.9-0.2c-0.3-0.1-0.5-0.3-0.7-0.4l-0.7-0.7c-0.2-0.2-0.4-0.5-0.6-0.8c-0.2-0.3-0.2-0.6-0.2-0.9v-3.9
		c0-0.2,0.1-0.5,0.2-0.9c0.2-0.4,0.4-0.7,0.6-0.9l0.7-0.6c0.4-0.4,0.9-0.6,1.5-0.6h2.3c0.6,0,1.1,0.3,1.6,0.8l0.6,0.6
		C127.9,57,128.1,57.6,128.1,58.4z M121.5,58.3v1.3h5v-1.2c0-0.3-0.1-0.6-0.3-0.7l-0.5-0.4c-0.2-0.2-0.5-0.3-0.7-0.3H123
		c-0.3,0-0.5,0.1-0.7,0.3l-0.5,0.4C121.6,57.8,121.5,58,121.5,58.3z"/>
	<path d="M152.3,57.7l-4.4,10.4c-0.1,0.4-0.4,0.6-0.8,0.6h-2.3c-0.2,0-0.4-0.1-0.6-0.2s-0.2-0.4-0.2-0.6c0-0.2,0.1-0.4,0.2-0.6
		c0.2-0.2,0.4-0.2,0.6-0.2h1.8l1.1-2.7h-0.4c-0.4,0-0.6-0.2-0.8-0.6l-2.5-6v-1.6c0-0.2,0.1-0.4,0.2-0.6c0.2-0.2,0.3-0.2,0.6-0.2
		c0.2,0,0.4,0.1,0.6,0.2c0.2,0.2,0.2,0.4,0.2,0.6l0,1.3l2.2,5.2h0.6l2.2-5.2l0-1.3c0-0.2,0.1-0.4,0.2-0.6c0.2-0.2,0.4-0.3,0.6-0.3
		c0.2,0,0.4,0.1,0.6,0.3c0.2,0.2,0.2,0.4,0.2,0.6V57.7z"/>
	<path d="M164.3,58.3v3.6c0,0.8-0.3,1.5-1,2.1s-1.4,1-2.1,1h-1.9c-0.7,0-1.5-0.3-2.1-1s-1-1.4-1-2.1v-3.6c0-0.7,0.3-1.4,1-2.1
		s1.4-1,2.2-1h1.9c0.7,0,1.5,0.3,2.1,1S164.3,57.5,164.3,58.3z M157.7,58.4v3.5c0,0.3,0.1,0.6,0.3,0.7l0.6,0.5
		c0.1,0.1,0.3,0.2,0.6,0.2h1.9c0.3,0,0.5-0.1,0.8-0.3l0.5-0.5c0.2-0.2,0.3-0.4,0.3-0.7v-3.5c0-0.3-0.1-0.6-0.3-0.8l-0.6-0.5
		c-0.2-0.2-0.4-0.3-0.7-0.3h-1.7c-0.4,0-0.7,0.1-0.9,0.3l-0.6,0.5C157.8,57.8,157.7,58.1,157.7,58.4z"/>
	<path d="M172,63.3l2.8-1.8v-5.4c0-0.2,0.1-0.4,0.2-0.6c0.2-0.2,0.4-0.3,0.6-0.3s0.4,0.1,0.6,0.3c0.2,0.2,0.2,0.4,0.2,0.6v8.1
		c0,0.2-0.1,0.4-0.2,0.6c-0.2,0.2-0.4,0.3-0.6,0.3s-0.4-0.1-0.6-0.3c-0.2-0.2-0.2-0.4-0.2-0.6v-0.7l-1.4,1c-0.6,0.4-1.1,0.6-1.7,0.6
		h-0.8c-0.7,0-1.2-0.2-1.7-0.7c-0.5-0.5-0.7-1.1-0.8-1.8l-0.2-6.4c0-0.2,0.1-0.4,0.2-0.6c0.2-0.2,0.4-0.3,0.6-0.3
		c0.2,0,0.4,0.1,0.6,0.3c0.2,0.2,0.2,0.4,0.2,0.6l0.2,6.3c0,0.6,0.4,0.9,1,0.9H172z"/>
	<path d="M198.9,56.4v-4c0-0.2,0.1-0.4,0.2-0.6c0.2-0.2,0.3-0.2,0.6-0.2c0.2,0,0.4,0.1,0.6,0.2c0.2,0.2,0.2,0.4,0.2,0.6v11.8
		c0,0.2-0.1,0.4-0.2,0.6c-0.2,0.2-0.4,0.2-0.6,0.2c-0.2,0-0.4-0.1-0.6-0.2c-0.2-0.2-0.2-0.4-0.2-0.6v-0.4c-0.8,0.8-1.5,1.2-2.2,1.2
		h-1.4c-0.6,0-1.1-0.3-1.7-0.8l-0.7-0.6c-0.2-0.2-0.3-0.4-0.4-0.8c-0.1-0.4-0.2-0.7-0.2-1v-3.5c0-0.4,0.1-0.8,0.2-1.1
		c0.2-0.4,0.3-0.6,0.5-0.8l0.7-0.6c0.5-0.4,1-0.6,1.7-0.6h1.2c0.6,0,1.2,0.2,1.8,0.7L198.9,56.4z M196.5,56.9h-1.1
		c-0.2,0-0.5,0.1-0.7,0.3l-0.5,0.5c-0.2,0.2-0.3,0.4-0.3,0.6v3.6c0,0.2,0.1,0.5,0.3,0.6l0.5,0.5c0.2,0.2,0.3,0.2,0.5,0.2h1.3
		c0.2,0,0.4-0.1,0.6-0.3l1.3-1.1c0.2-0.2,0.3-0.4,0.3-0.7v-1.8c0-0.4-0.1-0.7-0.3-0.9l-1.3-1.2C197,57,196.8,56.9,196.5,56.9z"/>
	<path d="M211,65h-5c-0.2,0-0.4-0.1-0.6-0.2s-0.2-0.4-0.2-0.6c0-0.2,0.1-0.4,0.2-0.6c0.2-0.2,0.4-0.3,0.6-0.3h1.7v-6.4H206
		c-0.2,0-0.4-0.1-0.6-0.3c-0.2-0.2-0.2-0.4-0.2-0.6c0-0.2,0.1-0.4,0.2-0.6c0.2-0.2,0.4-0.3,0.6-0.3h2.5c0.2,0,0.4,0.1,0.6,0.3
		c0.2,0.2,0.2,0.4,0.2,0.6v7.2h1.6c0.2,0,0.4,0.1,0.6,0.2c0.2,0.2,0.2,0.4,0.2,0.6s-0.1,0.4-0.2,0.6S211.2,65,211,65z M207.7,50.8
		h0.9c0.2,0,0.4,0.1,0.6,0.2c0.2,0.2,0.2,0.4,0.2,0.6v0.7c0,0.2-0.1,0.4-0.2,0.6c-0.2,0.2-0.4,0.3-0.6,0.3h-0.9
		c-0.2,0-0.4-0.1-0.6-0.3c-0.2-0.2-0.2-0.4-0.2-0.6l0-0.8c0-0.2,0.1-0.4,0.2-0.6C207.2,50.8,207.4,50.8,207.7,50.8z"/>
	<path d="M221.6,68.7h-3.6c-0.2,0-0.4-0.1-0.6-0.2s-0.2-0.4-0.2-0.6c0-0.2,0.1-0.4,0.2-0.6c0.2-0.2,0.4-0.2,0.6-0.2h3.6
		c0.2,0,0.4-0.1,0.6-0.3l0.6-0.5c0.2-0.1,0.3-0.3,0.3-0.6V63c-0.8,0.8-1.5,1.2-2.2,1.2h-1.3c-0.7,0-1.2-0.2-1.8-0.7l-0.6-0.6
		c-0.2-0.2-0.4-0.4-0.5-0.8s-0.2-0.7-0.2-1v-2.8c0-0.4,0.1-0.8,0.2-1.1s0.3-0.6,0.5-0.8l0.7-0.6c0.5-0.4,1-0.6,1.7-0.6h1.2
		c0.6,0,1.2,0.2,1.8,0.7l0.6,0.5l0-0.3c0-0.2,0.1-0.4,0.2-0.6c0.2-0.2,0.4-0.3,0.6-0.3c0.2,0,0.4,0.1,0.6,0.2
		c0.2,0.2,0.2,0.4,0.2,0.6v9.6c0,0.7-0.3,1.3-0.8,1.9l-0.7,0.6c-0.2,0.2-0.4,0.3-0.7,0.4C222.2,68.6,221.9,68.7,221.6,68.7z
		 M220.7,56.9h-1.1c-0.2,0-0.5,0.1-0.7,0.3l-0.5,0.4c-0.2,0.2-0.3,0.4-0.3,0.7v2.8c0,0.2,0.1,0.4,0.3,0.6l0.5,0.5
		c0.2,0.1,0.3,0.2,0.5,0.2h1.3c0.2,0,0.4-0.1,0.6-0.3l1.3-1.1c0.2-0.2,0.3-0.4,0.3-0.7v-1.3c0-0.3-0.1-0.6-0.3-0.8l-1.3-1.2
		C221.2,57,221,56.9,220.7,56.9z"/>
	<path d="M248.9,57.7l-4.4,10.4c-0.1,0.4-0.4,0.6-0.8,0.6h-2.3c-0.2,0-0.4-0.1-0.6-0.2s-0.2-0.4-0.2-0.6c0-0.2,0.1-0.4,0.2-0.6
		c0.2-0.2,0.4-0.2,0.6-0.2h1.8l1.1-2.7h-0.4c-0.4,0-0.6-0.2-0.8-0.6l-2.5-6v-1.6c0-0.2,0.1-0.4,0.2-0.6c0.2-0.2,0.3-0.2,0.6-0.2
		c0.2,0,0.4,0.1,0.6,0.2c0.2,0.2,0.2,0.4,0.2,0.6l0,1.3l2.2,5.2h0.6l2.2-5.2l0-1.3c0-0.2,0.1-0.4,0.2-0.6c0.2-0.2,0.4-0.3,0.6-0.3
		c0.2,0,0.4,0.1,0.6,0.3c0.2,0.2,0.2,0.4,0.2,0.6V57.7z"/>
	<path d="M261,58.3v3.6c0,0.8-0.3,1.5-1,2.1s-1.4,1-2.1,1h-1.9c-0.7,0-1.5-0.3-2.1-1s-1-1.4-1-2.1v-3.6c0-0.7,0.3-1.4,1-2.1
		s1.4-1,2.2-1h1.9c0.7,0,1.5,0.3,2.1,1S261,57.5,261,58.3z M254.3,58.4v3.5c0,0.3,0.1,0.6,0.3,0.7l0.6,0.5c0.1,0.1,0.3,0.2,0.6,0.2
		h1.9c0.3,0,0.5-0.1,0.8-0.3l0.5-0.5c0.2-0.2,0.3-0.4,0.3-0.7v-3.5c0-0.3-0.1-0.6-0.3-0.8l-0.6-0.5c-0.2-0.2-0.4-0.3-0.7-0.3h-1.7
		c-0.4,0-0.7,0.1-0.9,0.3l-0.6,0.5C254.4,57.8,254.3,58.1,254.3,58.4z"/>
	<path d="M268.7,63.3l2.8-1.8v-5.4c0-0.2,0.1-0.4,0.2-0.6c0.2-0.2,0.4-0.3,0.6-0.3s0.4,0.1,0.6,0.3c0.2,0.2,0.2,0.4,0.2,0.6v8.1
		c0,0.2-0.1,0.4-0.2,0.6c-0.2,0.2-0.4,0.3-0.6,0.3s-0.4-0.1-0.6-0.3c-0.2-0.2-0.2-0.4-0.2-0.6v-0.7l-1.4,1c-0.6,0.4-1.1,0.6-1.7,0.6
		h-0.8c-0.7,0-1.2-0.2-1.7-0.7c-0.5-0.5-0.7-1.1-0.8-1.8l-0.2-6.4c0-0.2,0.1-0.4,0.2-0.6c0.2-0.2,0.4-0.3,0.6-0.3
		c0.2,0,0.4,0.1,0.6,0.3c0.2,0.2,0.2,0.4,0.2,0.6l0.2,6.3c0,0.6,0.4,0.9,1,0.9H268.7z"/>
	<path d="M276.9,64.2v-8.1c0-0.2,0.1-0.4,0.2-0.6c0.2-0.2,0.4-0.3,0.6-0.3s0.4,0.1,0.6,0.3c0.2,0.2,0.2,0.4,0.2,0.6v1.1l1.3-1.2
		c0.6-0.5,1.1-0.7,1.6-0.7h1.2c0.7,0,1.3,0.3,1.7,0.8s0.7,1.1,0.7,1.8v0.5c0,0.2-0.1,0.5-0.2,0.6c-0.2,0.2-0.4,0.3-0.6,0.3
		s-0.4-0.1-0.6-0.2s-0.2-0.4-0.2-0.6v-0.5c0-0.2-0.1-0.4-0.2-0.6c-0.2-0.2-0.4-0.2-0.6-0.2h-1.1c-0.2,0-0.5,0.1-0.8,0.4l-2.3,2.1
		v4.8c0,0.2-0.1,0.4-0.2,0.6c-0.2,0.2-0.4,0.2-0.6,0.2c-0.2,0-0.4-0.1-0.6-0.2C276.9,64.6,276.9,64.4,276.9,64.2z"/>
	<path d="M309.3,58.3v3.6c0,0.8-0.3,1.5-1,2.1s-1.4,1-2.1,1h-1.9c-0.7,0-1.5-0.3-2.1-1s-1-1.4-1-2.1v-3.6c0-0.7,0.3-1.4,1-2.1
		s1.4-1,2.2-1h1.9c0.7,0,1.5,0.3,2.1,1S309.3,57.5,309.3,58.3z M302.7,58.4v3.5c0,0.3,0.1,0.6,0.3,0.7l0.6,0.5
		c0.1,0.1,0.3,0.2,0.6,0.2h1.9c0.3,0,0.5-0.1,0.8-0.3l0.5-0.5c0.2-0.2,0.3-0.4,0.3-0.7v-3.5c0-0.3-0.1-0.6-0.3-0.8l-0.6-0.5
		c-0.2-0.2-0.4-0.3-0.7-0.3h-1.7c-0.4,0-0.7,0.1-0.9,0.3l-0.6,0.5C302.8,57.8,302.7,58.1,302.7,58.4z"/>
	<path d="M318.1,59v2l1.1,2l0.6-1.9l0.2-5c0-0.2,0.1-0.4,0.3-0.6c0.2-0.2,0.3-0.3,0.6-0.3c0.2,0,0.4,0.1,0.6,0.2
		c0.2,0.2,0.2,0.4,0.2,0.6l-0.2,5.3l-0.9,3c-0.1,0.4-0.4,0.6-0.8,0.6h-0.9c-0.3,0-0.5-0.2-0.7-0.5l-0.9-1.6l-0.9,1.6
		c-0.2,0.3-0.4,0.5-0.7,0.5h-0.9c-0.2,0-0.4-0.1-0.5-0.2c-0.2-0.1-0.2-0.3-0.3-0.4l-0.9-3.1l-0.2-5.2c0-0.2,0.1-0.4,0.2-0.6
		c0.2-0.2,0.4-0.3,0.6-0.3c0.2,0,0.4,0.1,0.6,0.2s0.2,0.4,0.2,0.6l0.2,5l0.5,1.9l1.1-2v-2c0-0.2,0.1-0.4,0.2-0.6
		c0.2-0.2,0.4-0.2,0.6-0.2c0.2,0,0.4,0.1,0.6,0.2S318.1,58.8,318.1,59z"/>
	<path d="M329.1,57.2l-2.2,1.5v5.5c0,0.2-0.1,0.4-0.2,0.6c-0.2,0.2-0.4,0.3-0.6,0.3s-0.4-0.1-0.6-0.3c-0.2-0.2-0.2-0.4-0.2-0.6v-8.1
		c0-0.2,0.1-0.4,0.2-0.6c0.2-0.2,0.4-0.3,0.6-0.3c0.2,0,0.4,0.1,0.6,0.3c0.2,0.2,0.2,0.4,0.2,0.6v0.6l1.5-0.9
		c0.5-0.3,1.1-0.5,1.7-0.5h0.8c0.7,0,1.2,0.2,1.7,0.7c0.5,0.5,0.7,1.1,0.8,1.8l0.2,6.5c0,0.2-0.1,0.4-0.2,0.6
		c-0.2,0.2-0.4,0.3-0.6,0.3c-0.2,0-0.4-0.1-0.6-0.2s-0.2-0.4-0.3-0.6l-0.2-6.4c0-0.6-0.3-0.9-0.9-0.9h-0.8
		C329.6,56.9,329.3,57,329.1,57.2z"/>
	<path d="M354.5,68.7h-3.6c-0.2,0-0.4-0.1-0.6-0.2s-0.2-0.4-0.2-0.6c0-0.2,0.1-0.4,0.2-0.6c0.2-0.2,0.4-0.2,0.6-0.2h3.6
		c0.2,0,0.4-0.1,0.6-0.3l0.6-0.5c0.2-0.1,0.3-0.3,0.3-0.6V63c-0.8,0.8-1.5,1.2-2.2,1.2h-1.3c-0.7,0-1.2-0.2-1.8-0.7l-0.6-0.6
		c-0.2-0.2-0.4-0.4-0.5-0.8s-0.2-0.7-0.2-1v-2.8c0-0.4,0.1-0.8,0.2-1.1s0.3-0.6,0.5-0.8l0.7-0.6c0.5-0.4,1-0.6,1.7-0.6h1.2
		c0.6,0,1.2,0.2,1.8,0.7l0.6,0.5l0-0.3c0-0.2,0.1-0.4,0.2-0.6c0.2-0.2,0.4-0.3,0.6-0.3c0.2,0,0.4,0.1,0.6,0.2
		c0.2,0.2,0.2,0.4,0.2,0.6v9.6c0,0.7-0.3,1.3-0.8,1.9l-0.7,0.6c-0.2,0.2-0.4,0.3-0.7,0.4C355.1,68.6,354.8,68.7,354.5,68.7z
		 M353.6,56.9h-1.1c-0.2,0-0.5,0.1-0.7,0.3l-0.5,0.4c-0.2,0.2-0.3,0.4-0.3,0.7v2.8c0,0.2,0.1,0.4,0.3,0.6l0.5,0.5
		c0.2,0.1,0.3,0.2,0.5,0.2h1.3c0.2,0,0.4-0.1,0.6-0.3l1.3-1.1c0.2-0.2,0.3-0.4,0.3-0.7v-1.3c0-0.3-0.1-0.6-0.3-0.8l-1.3-1.2
		C354.1,57,353.8,56.9,353.6,56.9z"/>
	<path d="M361.4,64.2v-8.1c0-0.2,0.1-0.4,0.2-0.6c0.2-0.2,0.4-0.3,0.6-0.3s0.4,0.1,0.6,0.3c0.2,0.2,0.2,0.4,0.2,0.6v1.1l1.3-1.2
		c0.6-0.5,1.1-0.7,1.6-0.7h1.2c0.7,0,1.3,0.3,1.7,0.8s0.7,1.1,0.7,1.8v0.5c0,0.2-0.1,0.5-0.2,0.6c-0.2,0.2-0.4,0.3-0.6,0.3
		s-0.4-0.1-0.6-0.2s-0.2-0.4-0.2-0.6v-0.5c0-0.2-0.1-0.4-0.2-0.6c-0.2-0.2-0.4-0.2-0.6-0.2h-1.1c-0.2,0-0.5,0.1-0.8,0.4l-2.3,2.1
		v4.8c0,0.2-0.1,0.4-0.2,0.6c-0.2,0.2-0.4,0.2-0.6,0.2c-0.2,0-0.4-0.1-0.6-0.2C361.5,64.6,361.4,64.4,361.4,64.2z"/>
	<path d="M375.9,58.9h3.2c0.2,0,0.4,0,0.8,0.1l0-1.2c0-0.2-0.1-0.4-0.2-0.6c-0.2-0.2-0.4-0.2-0.6-0.2H376c-0.2,0-0.4-0.1-0.6-0.3
		c-0.2-0.2-0.2-0.4-0.2-0.6c0-0.2,0.1-0.4,0.2-0.6c0.2-0.2,0.4-0.2,0.6-0.2h3.1c0.7,0,1.3,0.2,1.7,0.7c0.5,0.5,0.7,1.1,0.7,1.8
		l0.2,6.4c0,0.2-0.1,0.4-0.2,0.6c-0.2,0.2-0.4,0.2-0.6,0.2c-0.2,0-0.4-0.1-0.6-0.2c-0.2-0.2-0.2-0.4-0.2-0.6l-1.4,0.9h-2.8
		c-0.7,0-1.3-0.3-1.8-0.8s-0.7-1.1-0.7-1.8v-1c0-0.7,0.2-1.3,0.7-1.8S375.3,58.9,375.9,58.9z M380,62.2l0-0.7c0-0.2-0.1-0.4-0.2-0.6
		s-0.3-0.2-0.6-0.2h-3.2c-0.2,0-0.4,0.1-0.6,0.2c-0.2,0.2-0.2,0.4-0.2,0.6v1c0,0.2,0.1,0.4,0.2,0.6c0.2,0.2,0.4,0.3,0.6,0.3h2.3
		L380,62.2z"/>
	<path d="M393.9,56.1v1.6l-2.8,6.7c-0.2,0.4-0.4,0.6-0.7,0.6h-1.1c-0.4,0-0.7-0.2-0.8-0.6l-2.8-6.7v-1.6c0-0.2,0.1-0.4,0.2-0.6
		c0.2-0.2,0.4-0.2,0.6-0.2s0.4,0.1,0.6,0.2s0.2,0.4,0.2,0.6l0,1.3l2.5,5.9l2.5-5.9l0-1.3c0-0.2,0.1-0.4,0.2-0.6
		c0.2-0.2,0.4-0.2,0.6-0.2c0.2,0,0.4,0.1,0.6,0.2C393.8,55.6,393.9,55.8,393.9,56.1z"/>
	<path d="M405.9,58.4v2.1c0,0.2-0.1,0.4-0.2,0.6c-0.2,0.2-0.4,0.3-0.6,0.3h-5.8v0.5c0,0.3,0.1,0.5,0.4,0.7l0.5,0.4
		c0.3,0.2,0.5,0.3,0.7,0.3h4.2c0.2,0,0.4,0.1,0.6,0.2s0.2,0.4,0.2,0.6c0,0.2-0.1,0.4-0.2,0.6c-0.2,0.2-0.4,0.3-0.6,0.3h-4.3
		c-0.3,0-0.6-0.1-0.9-0.2c-0.3-0.1-0.5-0.3-0.7-0.4l-0.7-0.7c-0.2-0.2-0.4-0.5-0.6-0.8c-0.2-0.3-0.2-0.6-0.2-0.9v-3.9
		c0-0.2,0.1-0.5,0.2-0.9c0.2-0.4,0.4-0.7,0.6-0.9l0.7-0.6c0.4-0.4,0.9-0.6,1.5-0.6h2.3c0.6,0,1.1,0.3,1.6,0.8l0.6,0.6
		C405.7,57,405.9,57.6,405.9,58.4z M399.3,58.3v1.3h5v-1.2c0-0.3-0.1-0.6-0.3-0.7l-0.5-0.4c-0.2-0.2-0.5-0.3-0.7-0.3h-2.1
		c-0.3,0-0.5,0.1-0.7,0.3l-0.5,0.4C399.4,57.8,399.3,58,399.3,58.3z"/>
</g>
<path class="st8" d="M706.5,426.8"/>
</svg>
