<?xml version="1.0" encoding="utf-8"?>
<!-- Generator: Adobe Illustrator 21.1.0, SVG Export Plug-In . SVG Version: 6.00 Build 0)  -->
<svg version="1.1" id="Layer_1" xmlns="http://www.w3.org/2000/svg" xmlns:xlink="http://www.w3.org/1999/xlink" x="0px" y="0px"
	 viewBox="0 0 1280 800" style="enable-background:new 0 0 1280 800;" xml:space="preserve">
<style type="text/css">
	.st0{stroke:#000000;}
</style>
<g>
	<path d="M164,213.3h29.9c1,0,1.8,0.4,2.6,1.1c0.7,0.7,1.1,1.6,1.1,2.6c0,1-0.4,1.9-1.1,2.7c-0.7,0.7-1.6,1.1-2.6,1.1h-11.2v43.5
		h11.2c1,0,1.9,0.4,2.6,1.1c0.7,0.7,1.1,1.6,1.1,2.6c0,1-0.4,1.9-1.1,2.6c-0.7,0.7-1.6,1.1-2.6,1.1H164c-1,0-1.9-0.4-2.6-1.1
		c-0.7-0.7-1.1-1.6-1.1-2.6c0-1,0.4-1.9,1.1-2.6c0.7-0.7,1.6-1.1,2.6-1.1h11.3v-43.5H164c-1,0-1.9-0.4-2.6-1.1
		c-0.7-0.7-1.1-1.6-1.1-2.6c0-1.1,0.4-1.9,1.1-2.7C162.1,213.7,163,213.3,164,213.3z"/>
	<path d="M232.2,237.9l-10.1,6.5V268c0,1-0.4,1.9-1.1,2.6c-0.7,0.7-1.6,1.1-2.6,1.1c-1,0-1.9-0.4-2.6-1.1c-0.7-0.7-1.1-1.6-1.1-2.6
		v-35c0-1,0.4-1.9,1.1-2.7c0.7-0.7,1.6-1.1,2.6-1.1c1,0,1.9,0.4,2.6,1.1c0.7,0.7,1.1,1.6,1.1,2.7v2.5l6.7-4.1
		c2.3-1.4,4.8-2.2,7.7-2.2h3.4c2.9,0,5.5,1,7.6,3.1c2.1,2.1,3.3,4.6,3.4,7.7l1,28c0,1-0.3,1.9-1.1,2.6c-0.7,0.7-1.6,1.1-2.6,1.1
		c-1,0-1.8-0.3-2.5-1c-0.7-0.7-1.1-1.6-1.1-2.7l-1.1-27.6c-0.1-2.6-1.4-3.9-4.1-3.9h-3.6C234.7,236.6,233.5,237,232.2,237.9z"/>
	<path d="M302.7,271.7h-15.8c-2.8,0-5.2-0.8-7.1-2.5l-7.2-6.2c-2.3-1.9-3.4-4.5-3.4-7.7v-9.6c-0.1-3.1,1.2-5.9,3.9-8.2l6.5-5.6
		c2.1-1.7,4.3-2.5,6.7-2.5h16.6c1,0,1.9,0.4,2.6,1.1c0.7,0.7,1.1,1.6,1.1,2.6c0,1.1-0.4,1.9-1.1,2.6c-0.7,0.7-1.6,1.1-2.6,1.1h-15.9
		c-1,0-1.9,0.4-2.9,1.2l-5.9,5.1c-1,0.8-1.5,1.9-1.5,3.3v9c0,1,0.4,1.8,1.1,2.5l6.5,5.5c0.8,0.7,1.9,1.1,3.3,1.1h15.1
		c1,0,1.9,0.4,2.6,1.1c0.7,0.7,1.1,1.6,1.1,2.6c0,1-0.4,1.9-1.1,2.6C304.6,271.4,303.7,271.7,302.7,271.7z"/>
	<path d="M323.5,268v-35c0-1,0.4-1.9,1.1-2.7c0.7-0.7,1.6-1.1,2.6-1.1c1,0,1.9,0.4,2.6,1.1c0.7,0.7,1.1,1.6,1.1,2.7v4.6l6-5.1
		c2.5-2.1,4.9-3.2,7.3-3.2h5.4c3,0,5.7,1.1,7.8,3.3c2.2,2.2,3.3,4.8,3.3,7.8v2c0,1.1-0.4,1.9-1.1,2.7c-0.7,0.7-1.6,1.1-2.6,1.1
		c-1,0-1.9-0.4-2.6-1.1c-0.7-0.7-1.1-1.6-1.1-2.6v-2.1c0-1-0.4-1.9-1.1-2.6c-0.7-0.7-1.6-1.1-2.6-1.1h-4.8c-1,0-2.2,0.5-3.4,1.6
		l-10.5,9.1V268c0,1-0.4,1.9-1.1,2.6c-0.7,0.7-1.6,1.1-2.6,1.1c-1,0-1.9-0.4-2.6-1.1C323.9,269.9,323.5,269.1,323.5,268z"/>
	<path d="M415,243.2v8.9c0,1-0.4,1.9-1.1,2.6c-0.7,0.7-1.6,1.1-2.6,1.1h-26.1v2.2c0,1.3,0.5,2.3,1.6,3.2l2.2,1.8
		c1.2,0.9,2.3,1.4,3.3,1.4h19c1,0,1.9,0.4,2.6,1.1c0.7,0.7,1.1,1.6,1.1,2.6c0,1-0.4,1.9-1.1,2.6c-0.7,0.7-1.6,1.1-2.6,1.1h-19.5
		c-1.3,0-2.6-0.3-4.1-0.8c-1.4-0.5-2.5-1.1-3.1-1.7l-3.3-2.9c-1-0.8-1.9-2-2.6-3.4c-0.7-1.5-1-2.8-1-4v-16.9c0-1,0.4-2.3,1.1-3.9
		c0.7-1.6,1.7-2.9,2.8-3.8l3.1-2.4c2-1.6,4.3-2.5,6.7-2.5h10.4c2.6,0,5.1,1.1,7.4,3.3l2.8,2.6C414,237,415,239.7,415,243.2z
		 M385.3,242.6v5.7h22.4v-5.1c0-1.4-0.4-2.4-1.3-3.2l-2.2-1.9c-1.1-0.9-2.1-1.4-3-1.4H392c-1.1,0-2.2,0.4-3.1,1.2l-2.2,1.8
		C385.8,240.5,385.3,241.5,385.3,242.6z"/>
	<path d="M461.9,234.5V217c0-1,0.4-1.9,1.1-2.6c0.7-0.7,1.6-1.1,2.5-1.1c1,0,1.9,0.4,2.7,1.1c0.7,0.7,1.1,1.6,1.1,2.6v51
		c0,1-0.4,1.9-1.1,2.6c-0.7,0.7-1.6,1.1-2.6,1.1c-1.1,0-1.9-0.4-2.6-1.1c-0.7-0.7-1.1-1.6-1.1-2.6v-1.6c-3.6,3.5-7,5.3-10.1,5.3
		h-6.3c-2.5,0-5-1.1-7.6-3.3l-3.1-2.6c-0.7-0.7-1.4-1.8-2-3.4c-0.6-1.6-0.9-3.1-0.9-4.4v-15c0-1.7,0.4-3.3,1.1-4.9
		c0.7-1.6,1.5-2.7,2.5-3.5l3-2.6c2.2-1.9,4.7-2.8,7.6-2.8h5.3c2.9,0,5.5,1,7.9,3.1L461.9,234.5z M451.2,236.7h-5.1
		c-1.1,0-2.1,0.4-2.9,1.2l-2.4,2.1c-0.8,0.7-1.2,1.7-1.2,2.8v15.6c0,1,0.5,1.9,1.5,2.8l2.4,2.1c0.8,0.7,1.6,1,2.4,1h6
		c0.8,0,1.7-0.5,2.8-1.4l5.8-4.8c1-0.8,1.5-1.9,1.5-3.2v-8c0-1.8-0.5-3.1-1.5-4l-6-5.1C453.6,237.1,452.5,236.7,451.2,236.7z"/>
	<path d="M516.4,271.6h-22.5c-1,0-1.9-0.4-2.6-1.1c-0.7-0.7-1.1-1.6-1.1-2.6c0-1,0.4-1.9,1.1-2.6c0.7-0.7,1.6-1.1,2.6-1.1h7.6v-27.6
		H494c-1,0-1.9-0.4-2.6-1.1c-0.7-0.7-1.1-1.6-1.1-2.6c0-1,0.4-1.9,1.1-2.7c0.7-0.7,1.6-1.1,2.6-1.1h11.3c1,0,1.9,0.4,2.6,1.1
		c0.7,0.7,1.1,1.6,1.1,2.7v31.2h7.4c1,0,1.9,0.4,2.7,1.1c0.7,0.7,1.1,1.6,1.1,2.6c0,1-0.4,1.9-1.1,2.6
		C518.2,271.3,517.4,271.6,516.4,271.6z M501.3,210.1h3.9c1,0,1.9,0.4,2.6,1.1c0.7,0.7,1.1,1.6,1.1,2.6v3.2c0,1-0.4,1.9-1.1,2.7
		c-0.7,0.7-1.6,1.1-2.6,1.1h-4c-1.1,0-1.9-0.4-2.7-1.1c-0.7-0.8-1.1-1.6-1-2.5l0.1-3.3c0-1,0.4-1.9,1.1-2.6
		C499.4,210.4,500.3,210.1,501.3,210.1z"/>
	<path d="M548.5,217v17.4l3.3-2.6c2.1-1.7,4.2-2.5,6.4-2.5h6.8c2.5,0,4.7,0.9,6.6,2.5l3.5,3c1,0.9,1.8,2.1,2.4,3.6
		c0.6,1.6,0.9,3.1,0.9,4.7v14.9c0,1.3-0.3,2.8-0.9,4.3c-0.6,1.5-1.3,2.6-2,3.3l-3.2,3c-0.8,0.8-2,1.5-3.5,2.1
		c-1.5,0.6-2.8,0.9-3.9,0.9h-6.3c-3.1,0-6.4-1.7-10.1-5.1v1.5c0,1-0.4,1.9-1.1,2.6c-0.7,0.7-1.6,1.1-2.6,1.1c-1,0-1.9-0.4-2.6-1.1
		c-0.7-0.7-1.1-1.6-1.1-2.6v-51c0-1,0.4-1.9,1.1-2.6c0.7-0.7,1.6-1.1,2.6-1.1c1,0,1.9,0.4,2.6,1.1C548.1,215.1,548.5,216,548.5,217z
		 M564.3,236.7h-5.1c-1.2,0-2.2,0.3-2.8,0.8l-6.6,5.7c-0.9,0.8-1.3,1.9-1.3,3.4v8.3c0,1.2,0.5,2.3,1.5,3.1l5.9,5
		c0.8,0.8,1.7,1.2,2.7,1.2h6c0.8,0,1.6-0.3,2.2-0.8l2.9-2.6c0.8-0.6,1.2-1.4,1.2-2.5v-15.6c0-1.2-0.4-2.2-1.2-2.8l-2.7-2.2
		C566.2,237,565.3,236.7,564.3,236.7z"/>
	<path d="M625.1,271.7h-22.3c-1,0-1.9-0.4-2.6-1.1c-0.7-0.7-1.1-1.6-1.1-2.7c0-1,0.4-1.9,1.1-2.6c0.7-0.7,1.6-1.1,2.6-1.1h7.4v-43.5
		h-7.5c-1,0-1.9-0.4-2.6-1.1c-0.7-0.7-1.1-1.6-1.1-2.6c0-1,0.4-1.9,1.1-2.6c0.7-0.7,1.6-1.1,2.6-1.1h11.3c1,0,1.9,0.4,2.6,1.1
		c0.7,0.7,1.1,1.6,1.1,2.6v47.2h7.5c1,0,1.9,0.4,2.6,1.1c0.7,0.7,1.1,1.6,1.1,2.6c0,1-0.4,1.9-1.1,2.7
		C627,271.4,626.1,271.7,625.1,271.7z"/>
	<path d="M686.9,240.1l-19.9,45c-0.7,1.6-1.8,2.4-3.5,2.4h-10.2c-1,0-1.9-0.4-2.6-1.1s-1.1-1.6-1.1-2.6c0-1,0.4-1.9,1.1-2.6
		c0.7-0.7,1.6-1.1,2.6-1.1h7.9l5.1-11.7h-1.8c-1.7,0-2.9-0.9-3.6-2.6l-11.1-25.8V233c0-1,0.4-1.9,1.1-2.6c0.7-0.7,1.6-1.1,2.5-1.1
		c1,0,1.9,0.4,2.7,1.1c0.7,0.7,1.1,1.6,1.1,2.6l0,5.5l9.7,22.5h2.6l10-22.4l0-5.7c0-1,0.4-1.8,1.1-2.6c0.7-0.7,1.6-1.1,2.7-1.1
		c1,0,1.9,0.4,2.6,1.1c0.7,0.7,1.1,1.6,1.1,2.6V240.1z"/>
	<path d="M182.7,344.2v24.6l2.2,3.6h3.1l2.2-3.7v-43.5c0-1,0.4-1.9,1.1-2.7s1.6-1.1,2.7-1.1c1,0,1.9,0.4,2.6,1.1
		c0.7,0.7,1.1,1.6,1.1,2.6v44.8c0,0.6-0.3,1.3-0.9,2.3l-3.4,5.7c-0.7,1.3-1.8,1.9-3.2,1.9h-6.9c-2.2,0-3.6-1-4.2-3c-0.7,2-2,3-4,3
		h-6.5c-1.9,0-3.2-0.7-4-2.1l-3.2-5.3c-0.6-1-0.9-1.8-0.9-2.5v-44.7c0-1,0.4-1.9,1.1-2.7s1.6-1.1,2.7-1.1c1,0,1.8,0.4,2.5,1.1
		c0.7,0.7,1.1,1.6,1.1,2.7v43.7l2.2,3.5h3.2l2.3-3.7v-24.5c0-1,0.4-1.9,1.1-2.6c0.7-0.7,1.6-1.1,2.6-1.1c1,0,1.9,0.4,2.6,1.1
		C182.4,342.3,182.7,343.2,182.7,344.2z"/>
	<path d="M252,351.2v8.9c0,1-0.4,1.9-1.1,2.6c-0.7,0.7-1.6,1.1-2.6,1.1h-26.1v2.2c0,1.3,0.5,2.3,1.6,3.2l2.2,1.8
		c1.2,0.9,2.3,1.4,3.3,1.4h19c1,0,1.9,0.4,2.6,1.1c0.7,0.7,1.1,1.6,1.1,2.6c0,1-0.4,1.9-1.1,2.6c-0.7,0.7-1.6,1.1-2.6,1.1h-19.5
		c-1.3,0-2.6-0.3-4.1-0.8c-1.4-0.5-2.5-1.1-3.1-1.7l-3.3-2.9c-1-0.8-1.9-2-2.6-3.4c-0.7-1.5-1-2.8-1-4v-16.9c0-1,0.4-2.3,1.1-3.9
		c0.7-1.6,1.7-2.9,2.8-3.8l3.1-2.4c2-1.6,4.3-2.5,6.7-2.5h10.4c2.6,0,5.1,1.1,7.4,3.3l2.8,2.6C251,345,252,347.7,252,351.2z
		 M222.2,350.6v5.7h22.4v-5.1c0-1.4-0.4-2.4-1.3-3.2l-2.2-1.9c-1.1-0.9-2.1-1.4-3-1.4H229c-1.1,0-2.2,0.4-3.1,1.2l-2.2,1.8
		C222.7,348.5,222.2,349.5,222.2,350.6z"/>
	<path d="M298.9,379.6h-22.5c-1,0-1.9-0.4-2.6-1.1c-0.7-0.7-1.1-1.6-1.1-2.6c0-1,0.4-1.9,1.1-2.6c0.7-0.7,1.6-1.1,2.6-1.1h7.6v-27.6
		h-7.5c-1,0-1.9-0.4-2.6-1.1c-0.7-0.7-1.1-1.6-1.1-2.6c0-1,0.4-1.9,1.1-2.7c0.7-0.7,1.6-1.1,2.6-1.1h11.3c1,0,1.9,0.4,2.6,1.1
		c0.7,0.7,1.1,1.6,1.1,2.7v31.2h7.4c1,0,1.9,0.4,2.7,1.1c0.7,0.7,1.1,1.6,1.1,2.6c0,1-0.4,1.9-1.1,2.6
		C300.8,379.3,299.9,379.6,298.9,379.6z M283.9,318.1h3.9c1,0,1.9,0.4,2.6,1.1c0.7,0.7,1.1,1.6,1.1,2.6v3.2c0,1-0.4,1.9-1.1,2.7
		c-0.7,0.7-1.6,1.1-2.6,1.1h-4c-1.1,0-1.9-0.4-2.7-1.1c-0.7-0.8-1.1-1.6-1-2.5l0.1-3.3c0-1,0.4-1.9,1.1-2.6
		C282,318.4,282.9,318.1,283.9,318.1z"/>
	<path d="M323.5,376v-35c0-1,0.4-1.9,1.1-2.7c0.7-0.7,1.6-1.1,2.6-1.1c1,0,1.9,0.4,2.6,1.1c0.7,0.7,1.1,1.6,1.1,2.7v4.6l6-5.1
		c2.5-2.1,4.9-3.2,7.3-3.2h5.4c3,0,5.7,1.1,7.8,3.3c2.2,2.2,3.3,4.8,3.3,7.8v2c0,1.1-0.4,1.9-1.1,2.7c-0.7,0.7-1.6,1.1-2.6,1.1
		c-1,0-1.9-0.4-2.6-1.1c-0.7-0.7-1.1-1.6-1.1-2.6v-2.1c0-1-0.4-1.9-1.1-2.6c-0.7-0.7-1.6-1.1-2.6-1.1h-4.8c-1,0-2.2,0.5-3.4,1.6
		l-10.5,9.1V376c0,1-0.4,1.9-1.1,2.6c-0.7,0.7-1.6,1.1-2.6,1.1c-1,0-1.9-0.4-2.6-1.1C323.9,377.9,323.5,377.1,323.5,376z"/>
	<path d="M407.6,342.5V325c0-1,0.4-1.9,1.1-2.6c0.7-0.7,1.6-1.1,2.5-1.1c1,0,1.9,0.4,2.7,1.1c0.7,0.7,1.1,1.6,1.1,2.6v51
		c0,1-0.4,1.9-1.1,2.6c-0.7,0.7-1.6,1.1-2.6,1.1c-1.1,0-1.9-0.4-2.6-1.1c-0.7-0.7-1.1-1.6-1.1-2.6v-1.6c-3.6,3.5-7,5.3-10.1,5.3
		h-6.3c-2.5,0-5-1.1-7.6-3.3l-3.1-2.6c-0.7-0.7-1.4-1.8-2-3.4c-0.6-1.6-0.9-3.1-0.9-4.4v-15c0-1.7,0.4-3.3,1.1-4.9
		c0.7-1.6,1.5-2.7,2.5-3.5l3-2.6c2.2-1.9,4.7-2.8,7.6-2.8h5.3c2.9,0,5.5,1,7.9,3.1L407.6,342.5z M396.8,344.7h-5.1
		c-1.1,0-2.1,0.4-2.9,1.2l-2.4,2.1c-0.8,0.7-1.2,1.7-1.2,2.8v15.6c0,1,0.5,1.9,1.5,2.8l2.4,2.1c0.8,0.7,1.6,1,2.4,1h6
		c0.8,0,1.7-0.5,2.8-1.4l5.8-4.8c1-0.8,1.5-1.9,1.5-3.2v-8c0-1.8-0.5-3.1-1.5-4l-6-5.1C399.2,345.1,398.2,344.7,396.8,344.7z"/>
	<path d="M486.5,331.4v-10h37.3v10.1c0,1-0.4,1.9-1.1,2.6c-0.7,0.7-1.6,1.1-2.6,1.1c-1,0-1.9-0.4-2.7-1.1c-0.7-0.7-1.1-1.6-1.1-2.6
		v-2.7h-7.5V376c0,1-0.4,1.9-1.1,2.6c-0.7,0.7-1.6,1.1-2.6,1.1c-1.1,0-1.9-0.4-2.7-1.1c-0.7-0.7-1.1-1.6-1.1-2.6v-47.2h-7.5v2.6
		c0,1-0.4,1.9-1.1,2.6c-0.7,0.7-1.6,1.1-2.6,1.1c-1,0-1.9-0.4-2.6-1.1C486.8,333.3,486.5,332.4,486.5,331.4z"/>
	<path d="M540.8,376v-51c0-1,0.4-1.8,1.1-2.5c0.7-0.7,1.6-1.1,2.6-1.1c1,0,1.9,0.4,2.6,1.1c0.7,0.7,1.1,1.6,1.1,2.6v18.6l5.9-3.9
		c2.7-1.7,5.1-2.5,7.2-2.5h4.6c3,0,5.6,1.1,7.8,3.2c2.2,2.2,3.3,4.8,3.4,7.8L578,376c0,1-0.3,1.9-1.1,2.6c-0.7,0.7-1.6,1.1-2.6,1.1
		c-1,0-1.9-0.4-2.6-1.1s-1.1-1.6-1.1-2.6l-0.9-27.7c0-1-0.4-1.9-1.1-2.6c-0.7-0.7-1.6-1.1-2.6-1.1h-4.1c-0.9,0-2,0.4-3.1,1.1
		l-10.5,6.9V376c0,1-0.4,1.9-1.1,2.6c-0.7,0.7-1.6,1.1-2.6,1.1c-1,0-1.9-0.4-2.6-1.1C541.2,377.9,540.8,377.1,540.8,376z"/>
	<path d="M595.3,376v-35c0-1,0.4-1.9,1.1-2.7c0.7-0.7,1.6-1.1,2.6-1.1c1,0,1.9,0.4,2.6,1.1c0.7,0.7,1.1,1.6,1.1,2.7v4.6l6-5.1
		c2.5-2.1,4.9-3.2,7.3-3.2h5.4c3,0,5.7,1.1,7.8,3.3c2.2,2.2,3.3,4.8,3.3,7.8v2c0,1.1-0.4,1.9-1.1,2.7c-0.7,0.7-1.6,1.1-2.6,1.1
		c-1,0-1.9-0.4-2.6-1.1c-0.7-0.7-1.1-1.6-1.1-2.6v-2.1c0-1-0.4-1.9-1.1-2.6c-0.7-0.7-1.6-1.1-2.6-1.1h-4.8c-1,0-2.2,0.5-3.4,1.6
		l-10.5,9.1V376c0,1-0.4,1.9-1.1,2.6c-0.7,0.7-1.6,1.1-2.6,1.1c-1,0-1.9-0.4-2.6-1.1C595.7,377.9,595.3,377.1,595.3,376z"/>
	<path d="M686.8,351.2v8.9c0,1-0.4,1.9-1.1,2.6c-0.7,0.7-1.6,1.1-2.6,1.1H657v2.2c0,1.3,0.5,2.3,1.6,3.2l2.2,1.8
		c1.2,0.9,2.3,1.4,3.3,1.4h19c1,0,1.9,0.4,2.6,1.1c0.7,0.7,1.1,1.6,1.1,2.6c0,1-0.4,1.9-1.1,2.6c-0.7,0.7-1.6,1.1-2.6,1.1h-19.5
		c-1.3,0-2.6-0.3-4.1-0.8c-1.4-0.5-2.5-1.1-3.1-1.7l-3.3-2.9c-1-0.8-1.9-2-2.6-3.4c-0.7-1.5-1-2.8-1-4v-16.9c0-1,0.4-2.3,1.1-3.9
		c0.7-1.6,1.7-2.9,2.8-3.8l3.1-2.4c2-1.6,4.3-2.5,6.7-2.5h10.4c2.6,0,5.1,1.1,7.4,3.3l2.8,2.6C685.8,345,686.8,347.7,686.8,351.2z
		 M657.1,350.6v5.7h22.4v-5.1c0-1.4-0.4-2.4-1.3-3.2l-2.2-1.9c-1.1-0.9-2.1-1.4-3-1.4h-9.3c-1.1,0-2.2,0.4-3.1,1.2l-2.2,1.8
		C657.6,348.5,657.1,349.5,657.1,350.6z"/>
	<path d="M715,353.1h14.5c0.8,0,1.9,0.2,3.4,0.5l-0.1-5.2c0-1-0.4-1.9-1.1-2.6c-0.7-0.7-1.6-1.1-2.6-1.1h-14c-1,0-1.9-0.4-2.6-1.1
		c-0.7-0.7-1.1-1.6-1.1-2.6c0-1,0.4-1.9,1.1-2.6c0.7-0.7,1.6-1.1,2.6-1.1h14c3.1,0,5.7,1.1,7.8,3.2c2.2,2.1,3.3,4.8,3.4,7.9
		l0.9,27.6c0,1-0.4,1.9-1.1,2.6c-0.7,0.7-1.6,1.1-2.6,1.1c-1.1,0-1.9-0.4-2.7-1.1c-0.7-0.7-1.1-1.6-1.1-2.6l-6.2,3.7H715
		c-3.1,0-5.8-1.1-7.9-3.3c-2.2-2.2-3.3-4.8-3.3-7.9v-4.3c0-3.1,1.1-5.7,3.3-7.9C709.3,354.2,711.9,353.1,715,353.1z M733.5,367.5
		l-0.2-3.1c0-1.1-0.4-1.9-1.1-2.6c-0.7-0.7-1.6-1.1-2.6-1.1H715c-1,0-1.9,0.4-2.6,1.1c-0.7,0.7-1.1,1.6-1.1,2.6v4.1
		c0,1,0.4,1.9,1.1,2.6c0.7,0.7,1.6,1.1,2.6,1.1h10.4L733.5,367.5z"/>
	<path d="M784.3,379.7h-7.4c-3,0-5.7-1.1-7.9-3.3c-2.2-2.2-3.3-4.8-3.3-7.8v-24H762c-1,0-1.9-0.4-2.6-1.1c-0.7-0.7-1.1-1.6-1.1-2.6
		c0-1,0.4-1.9,1.1-2.6c0.7-0.7,1.6-1.1,2.6-1.1h3.9v-9.1c0-1,0.4-1.9,1.1-2.6c0.7-0.7,1.6-1.1,2.6-1.1c1,0,1.8,0.4,2.6,1.1
		c0.7,0.7,1.1,1.6,1.1,2.6v9.1h14.9c1,0,1.9,0.4,2.6,1.1c0.7,0.7,1.1,1.6,1.1,2.6c0,1-0.4,1.9-1.1,2.6c-0.7,0.7-1.6,1.1-2.6,1.1
		h-14.9v24c0,1,0.4,1.9,1.1,2.6c0.7,0.7,1.6,1.1,2.7,1.1h7.2c2,0,3.3-1.1,3.9-3.2c0.6-2.1,1.9-3.2,3.7-3.2c1.1,0,2,0.4,2.7,1.1
		c0.7,0.7,1,1.6,1,2.7c0,2.2-1,4.4-3.1,6.7C790.2,378.6,787.6,379.7,784.3,379.7z"/>
	<path d="M823.1,337.3H840c2.6,0,5,0.8,7,2.4c2,1.6,3,3.1,3,4.6c0,1.1-0.4,1.9-1.1,2.6c-0.7,0.7-1.6,1-2.5,1c-1.2,0-2.2-0.5-3.2-1.6
		s-2-1.6-3-1.6h-16.7c-1.6,0-2.5,0.7-2.5,2c0,1,0.5,1.7,1.6,2.2l19.6,8.7c2,0.9,3.6,2.3,4.9,4.2c1.3,1.9,1.9,4.1,1.9,6.5
		c0,3.2-1.1,5.8-3.4,8c-2.2,2.2-4.8,3.3-7.6,3.3h-14.9c-2.6,0-5-0.8-7.2-2.3c-2.2-1.6-3.3-3.1-3.3-4.5c0-1,0.4-1.8,1.1-2.6
		c0.7-0.7,1.6-1.1,2.8-1.1c0.9,0,1.9,0.5,3,1.6c1.1,1.1,2.6,1.6,4.6,1.6h13.8c1.1,0,2-0.4,2.7-1.3s1.1-1.8,1.1-2.9
		c0-1.7-0.8-2.9-2.5-3.6l-19.8-8.9c-1.9-0.8-3.4-2.1-4.4-3.7c-1-1.6-1.5-3.3-1.5-4.9c0-2.6,0.9-4.9,2.7-6.9
		C818.1,338.3,820.4,337.3,823.1,337.3z"/>
</g>
<g>
	<path class="st0" d="M161.3,526h8c0.4,0,1.1,0.1,1.9,0.3l0-2.9c0-0.6-0.2-1.1-0.6-1.5c-0.4-0.4-0.9-0.6-1.5-0.6h-7.8
		c-0.6,0-1-0.2-1.4-0.6c-0.4-0.4-0.6-0.9-0.6-1.4c0-0.6,0.2-1.1,0.6-1.5c0.4-0.4,0.9-0.6,1.5-0.6h7.8c1.7,0,3.1,0.6,4.3,1.8
		c1.2,1.2,1.8,2.6,1.9,4.4l0.5,15.4c0,0.6-0.2,1.1-0.6,1.5c-0.4,0.4-0.9,0.6-1.4,0.6c-0.6,0-1.1-0.2-1.5-0.6
		c-0.4-0.4-0.6-0.9-0.6-1.5l-3.5,2.1h-6.9c-1.7,0-3.2-0.6-4.4-1.8c-1.2-1.2-1.8-2.7-1.8-4.4v-2.4c0-1.7,0.6-3.2,1.8-4.4
		C158.2,526.6,159.6,526,161.3,526z M171.6,534l-0.1-1.7c0-0.6-0.2-1.1-0.6-1.5c-0.4-0.4-0.9-0.6-1.4-0.6h-8.1
		c-0.6,0-1.1,0.2-1.5,0.6c-0.4,0.4-0.6,0.9-0.6,1.5v2.3c0,0.6,0.2,1,0.6,1.4c0.4,0.4,0.9,0.6,1.4,0.6h5.8L171.6,534z"/>
	<path class="st0" d="M195.1,522l-5.6,3.6v13.1c0,0.6-0.2,1-0.6,1.4c-0.4,0.4-0.9,0.6-1.4,0.6c-0.6,0-1-0.2-1.4-0.6
		c-0.4-0.4-0.6-0.9-0.6-1.4v-19.5c0-0.6,0.2-1.1,0.6-1.5c0.4-0.4,0.9-0.6,1.5-0.6c0.6,0,1,0.2,1.4,0.6c0.4,0.4,0.6,0.9,0.6,1.5v1.4
		l3.7-2.3c1.3-0.8,2.7-1.2,4.3-1.2h1.9c1.6,0,3,0.6,4.2,1.7c1.2,1.2,1.8,2.6,1.9,4.3l0.6,15.6c0,0.6-0.2,1-0.6,1.4
		c-0.4,0.4-0.9,0.6-1.5,0.6c-0.5,0-1-0.2-1.4-0.5c-0.4-0.4-0.6-0.9-0.6-1.5l-0.6-15.3c0-1.4-0.8-2.1-2.3-2.1h-2
		C196.5,521.3,195.9,521.6,195.1,522z"/>
	<path class="st0" d="M262.4,540.8h-12.5c-0.6,0-1.1-0.2-1.5-0.6c-0.4-0.4-0.6-0.9-0.6-1.5c0-0.6,0.2-1,0.6-1.4
		c0.4-0.4,0.9-0.6,1.5-0.6h4.2v-15.3h-4.2c-0.6,0-1.1-0.2-1.5-0.6c-0.4-0.4-0.6-0.9-0.6-1.4c0-0.6,0.2-1.1,0.6-1.5
		c0.4-0.4,0.9-0.6,1.5-0.6h6.3c0.6,0,1.1,0.2,1.5,0.6c0.4,0.4,0.6,0.9,0.6,1.5v17.4h4.1c0.6,0,1.1,0.2,1.5,0.6
		c0.4,0.4,0.6,0.9,0.6,1.5c0,0.6-0.2,1.1-0.6,1.5C263.4,540.6,262.9,540.8,262.4,540.8z M254,506.6h2.1c0.6,0,1.1,0.2,1.5,0.6
		c0.4,0.4,0.6,0.9,0.6,1.5v1.8c0,0.6-0.2,1.1-0.6,1.5c-0.4,0.4-0.9,0.6-1.5,0.6H254c-0.6,0-1.1-0.2-1.5-0.6
		c-0.4-0.4-0.6-0.9-0.6-1.4l0-1.8c0-0.6,0.2-1.1,0.6-1.5C253,506.8,253.5,506.6,254,506.6z"/>
	<path class="st0" d="M285.7,522l-5.6,3.6v13.1c0,0.6-0.2,1-0.6,1.4c-0.4,0.4-0.9,0.6-1.4,0.6c-0.6,0-1-0.2-1.4-0.6
		c-0.4-0.4-0.6-0.9-0.6-1.4v-19.5c0-0.6,0.2-1.1,0.6-1.5c0.4-0.4,0.9-0.6,1.5-0.6c0.6,0,1,0.2,1.4,0.6c0.4,0.4,0.6,0.9,0.6,1.5v1.4
		l3.7-2.3c1.3-0.8,2.7-1.2,4.3-1.2h1.9c1.6,0,3,0.6,4.2,1.7c1.2,1.2,1.8,2.6,1.9,4.3l0.6,15.6c0,0.6-0.2,1-0.6,1.4
		c-0.4,0.4-0.9,0.6-1.5,0.6c-0.5,0-1-0.2-1.4-0.5c-0.4-0.4-0.6-0.9-0.6-1.5l-0.6-15.3c0-1.4-0.8-2.1-2.3-2.1h-2
		C287.1,521.3,286.5,521.6,285.7,522z"/>
	<path class="st0" d="M320.6,540.8h-4.1c-1.7,0-3.1-0.6-4.4-1.8c-1.2-1.2-1.8-2.7-1.8-4.3v-13.3h-2.1c-0.6,0-1.1-0.2-1.5-0.6
		c-0.4-0.4-0.6-0.9-0.6-1.5c0-0.6,0.2-1.1,0.6-1.5c0.4-0.4,0.9-0.6,1.5-0.6h2.1v-5c0-0.6,0.2-1.1,0.6-1.5c0.4-0.4,0.9-0.6,1.5-0.6
		c0.5,0,1,0.2,1.4,0.6c0.4,0.4,0.6,0.9,0.6,1.4v5h8.3c0.6,0,1,0.2,1.4,0.6c0.4,0.4,0.6,0.9,0.6,1.4c0,0.6-0.2,1.1-0.6,1.5
		c-0.4,0.4-0.9,0.6-1.4,0.6h-8.3v13.3c0,0.6,0.2,1,0.6,1.4c0.4,0.4,0.9,0.6,1.5,0.6h4c1.1,0,1.8-0.6,2.2-1.8c0.4-1.2,1-1.8,2.1-1.8
		c0.6,0,1.1,0.2,1.5,0.6c0.4,0.4,0.6,0.9,0.6,1.5c0,1.2-0.6,2.5-1.7,3.7C323.9,540.2,322.4,540.8,320.6,540.8z"/>
	<path class="st0" d="M357.1,525v5c0,0.6-0.2,1-0.6,1.4c-0.4,0.4-0.9,0.6-1.4,0.6h-14.5v1.2c0,0.7,0.3,1.3,0.9,1.8l1.2,1
		c0.7,0.5,1.3,0.8,1.9,0.8H355c0.6,0,1,0.2,1.4,0.6c0.4,0.4,0.6,0.9,0.6,1.5c0,0.6-0.2,1-0.6,1.4c-0.4,0.4-0.9,0.6-1.4,0.6h-10.8
		c-0.7,0-1.5-0.2-2.3-0.5c-0.8-0.3-1.4-0.6-1.7-0.9l-1.8-1.6c-0.6-0.5-1-1.1-1.4-1.9c-0.4-0.8-0.6-1.6-0.6-2.2v-9.4
		c0-0.5,0.2-1.3,0.6-2.2c0.4-0.9,0.9-1.6,1.6-2.1l1.7-1.3c1.1-0.9,2.4-1.4,3.7-1.4h5.8c1.4,0,2.8,0.6,4.1,1.8l1.5,1.5
		C356.5,521.5,357.1,523,357.1,525z M340.6,524.7v3.2H353V525c0-0.8-0.2-1.4-0.7-1.8l-1.2-1c-0.6-0.5-1.2-0.8-1.7-0.8h-5.2
		c-0.6,0-1.2,0.2-1.7,0.7l-1.2,1C340.9,523.5,340.6,524,340.6,524.7z"/>
	<path class="st0" d="M366.6,538.8v-19.5c0-0.6,0.2-1.1,0.6-1.5c0.4-0.4,0.9-0.6,1.5-0.6c0.6,0,1.1,0.2,1.5,0.6
		c0.4,0.4,0.6,0.9,0.6,1.5v2.6l3.3-2.9c1.4-1.2,2.7-1.8,4.1-1.8h3c1.7,0,3.1,0.6,4.3,1.8c1.2,1.2,1.8,2.7,1.8,4.3v1.1
		c0,0.6-0.2,1.1-0.6,1.5c-0.4,0.4-0.9,0.6-1.5,0.6c-0.6,0-1.1-0.2-1.5-0.6c-0.4-0.4-0.6-0.9-0.6-1.5v-1.1c0-0.6-0.2-1.1-0.6-1.5
		c-0.4-0.4-0.9-0.6-1.5-0.6h-2.7c-0.6,0-1.2,0.3-1.9,0.9l-5.8,5.1v11.5c0,0.6-0.2,1.1-0.6,1.5c-0.4,0.4-0.9,0.6-1.4,0.6
		c-0.6,0-1.1-0.2-1.5-0.6C366.8,539.8,366.6,539.4,366.6,538.8z"/>
	<path class="st0" d="M403,526h8c0.4,0,1.1,0.1,1.9,0.3l0-2.9c0-0.6-0.2-1.1-0.6-1.5c-0.4-0.4-0.9-0.6-1.5-0.6H403
		c-0.6,0-1-0.2-1.4-0.6c-0.4-0.4-0.6-0.9-0.6-1.4c0-0.6,0.2-1.1,0.6-1.5c0.4-0.4,0.9-0.6,1.5-0.6h7.8c1.7,0,3.1,0.6,4.3,1.8
		c1.2,1.2,1.8,2.6,1.9,4.4l0.5,15.4c0,0.6-0.2,1.1-0.6,1.5c-0.4,0.4-0.9,0.6-1.4,0.6c-0.6,0-1.1-0.2-1.5-0.6
		c-0.4-0.4-0.6-0.9-0.6-1.5l-3.5,2.1H403c-1.7,0-3.2-0.6-4.4-1.8c-1.2-1.2-1.8-2.7-1.8-4.4v-2.4c0-1.7,0.6-3.2,1.8-4.4
		C399.8,526.6,401.2,526,403,526z M413.2,534l-0.1-1.7c0-0.6-0.2-1.1-0.6-1.5c-0.4-0.4-0.9-0.6-1.4-0.6h-8.1c-0.6,0-1.1,0.2-1.5,0.6
		c-0.4,0.4-0.6,0.9-0.6,1.5v2.3c0,0.6,0.2,1,0.6,1.4c0.4,0.4,0.9,0.6,1.4,0.6h5.8L413.2,534z"/>
	<path class="st0" d="M445.7,540.8h-8.8c-1.5,0-2.9-0.5-4-1.4l-4-3.5c-1.3-1.1-1.9-2.5-1.9-4.3v-5.3c-0.1-1.7,0.7-3.3,2.1-4.5
		l3.6-3.1c1.2-0.9,2.4-1.4,3.7-1.4h9.2c0.6,0,1.1,0.2,1.5,0.6c0.4,0.4,0.6,0.9,0.6,1.5c0,0.6-0.2,1.1-0.6,1.5
		c-0.4,0.4-0.9,0.6-1.5,0.6h-8.8c-0.6,0-1.1,0.2-1.6,0.7l-3.3,2.8c-0.5,0.5-0.8,1.1-0.8,1.8v5c0,0.5,0.2,1,0.6,1.4l3.6,3.1
		c0.5,0.4,1.1,0.6,1.8,0.6h8.4c0.6,0,1,0.2,1.4,0.6c0.4,0.4,0.6,0.9,0.6,1.5c0,0.6-0.2,1.1-0.6,1.5
		C446.7,540.6,446.3,540.8,445.7,540.8z"/>
	<path class="st0" d="M471.6,540.8h-4.1c-1.7,0-3.1-0.6-4.4-1.8c-1.2-1.2-1.8-2.7-1.8-4.3v-13.3h-2.1c-0.6,0-1.1-0.2-1.5-0.6
		c-0.4-0.4-0.6-0.9-0.6-1.5c0-0.6,0.2-1.1,0.6-1.5c0.4-0.4,0.9-0.6,1.5-0.6h2.1v-5c0-0.6,0.2-1.1,0.6-1.5c0.4-0.4,0.9-0.6,1.5-0.6
		c0.5,0,1,0.2,1.4,0.6c0.4,0.4,0.6,0.9,0.6,1.4v5h8.3c0.6,0,1,0.2,1.4,0.6c0.4,0.4,0.6,0.9,0.6,1.4c0,0.6-0.2,1.1-0.6,1.5
		c-0.4,0.4-0.9,0.6-1.4,0.6h-8.3v13.3c0,0.6,0.2,1,0.6,1.4c0.4,0.4,0.9,0.6,1.5,0.6h4c1.1,0,1.8-0.6,2.2-1.8c0.4-1.2,1-1.8,2.1-1.8
		c0.6,0,1.1,0.2,1.5,0.6c0.4,0.4,0.6,0.9,0.6,1.5c0,1.2-0.6,2.5-1.7,3.7C474.9,540.2,473.4,540.8,471.6,540.8z"/>
	<path class="st0" d="M504,540.8h-12.5c-0.6,0-1.1-0.2-1.5-0.6c-0.4-0.4-0.6-0.9-0.6-1.5c0-0.6,0.2-1,0.6-1.4
		c0.4-0.4,0.9-0.6,1.5-0.6h4.2v-15.3h-4.2c-0.6,0-1.1-0.2-1.5-0.6c-0.4-0.4-0.6-0.9-0.6-1.4c0-0.6,0.2-1.1,0.6-1.5
		c0.4-0.4,0.9-0.6,1.5-0.6h6.3c0.6,0,1.1,0.2,1.5,0.6c0.4,0.4,0.6,0.9,0.6,1.5v17.4h4.1c0.6,0,1.1,0.2,1.5,0.6
		c0.4,0.4,0.6,0.9,0.6,1.5c0,0.6-0.2,1.1-0.6,1.5C505,540.6,504.5,540.8,504,540.8z M495.6,506.6h2.1c0.6,0,1.1,0.2,1.5,0.6
		c0.4,0.4,0.6,0.9,0.6,1.5v1.8c0,0.6-0.2,1.1-0.6,1.5c-0.4,0.4-0.9,0.6-1.5,0.6h-2.2c-0.6,0-1.1-0.2-1.5-0.6
		c-0.4-0.4-0.6-0.9-0.6-1.4l0-1.8c0-0.6,0.2-1.1,0.6-1.5C494.6,506.8,495.1,506.6,495.6,506.6z"/>
	<path class="st0" d="M538.3,519.3v3.9l-7.1,16.2c-0.5,1-1.1,1.4-1.8,1.4h-2.6c-1,0-1.7-0.5-2.1-1.5l-7.1-16.1v-4
		c0-0.6,0.2-1.1,0.6-1.5c0.4-0.4,0.9-0.6,1.5-0.6c0.6,0,1.1,0.2,1.5,0.6c0.4,0.4,0.6,0.9,0.6,1.5l0,3.1l6.2,14.1l6.2-14.1l0-3.1
		c0-0.6,0.2-1.1,0.6-1.5c0.4-0.4,0.9-0.6,1.5-0.6c0.6,0,1.1,0.2,1.5,0.6C538.1,518.3,538.3,518.8,538.3,519.3z"/>
	<path class="st0" d="M568.5,525v5c0,0.6-0.2,1-0.6,1.4c-0.4,0.4-0.9,0.6-1.4,0.6h-14.5v1.2c0,0.7,0.3,1.3,0.9,1.8l1.2,1
		c0.7,0.5,1.3,0.8,1.9,0.8h10.5c0.6,0,1,0.2,1.4,0.6c0.4,0.4,0.6,0.9,0.6,1.5c0,0.6-0.2,1-0.6,1.4c-0.4,0.4-0.9,0.6-1.4,0.6h-10.8
		c-0.7,0-1.5-0.2-2.3-0.5c-0.8-0.3-1.4-0.6-1.7-0.9l-1.8-1.6c-0.6-0.5-1-1.1-1.4-1.9c-0.4-0.8-0.6-1.6-0.6-2.2v-9.4
		c0-0.5,0.2-1.3,0.6-2.2c0.4-0.9,0.9-1.6,1.6-2.1l1.7-1.3c1.1-0.9,2.4-1.4,3.7-1.4h5.8c1.4,0,2.8,0.6,4.1,1.8l1.5,1.5
		C567.9,521.5,568.5,523,568.5,525z M552,524.7v3.2h12.5V525c0-0.8-0.2-1.4-0.7-1.8l-1.2-1c-0.6-0.5-1.2-0.8-1.7-0.8h-5.2
		c-0.6,0-1.2,0.2-1.7,0.7l-1.2,1C552.3,523.5,552,524,552,524.7z"/>
	<path class="st0" d="M614.4,526h8c0.4,0,1.1,0.1,1.9,0.3l0-2.9c0-0.6-0.2-1.1-0.6-1.5c-0.4-0.4-0.9-0.6-1.5-0.6h-7.8
		c-0.6,0-1-0.2-1.4-0.6c-0.4-0.4-0.6-0.9-0.6-1.4c0-0.6,0.2-1.1,0.6-1.5c0.4-0.4,0.9-0.6,1.5-0.6h7.8c1.7,0,3.1,0.6,4.3,1.8
		c1.2,1.2,1.8,2.6,1.9,4.4l0.5,15.4c0,0.6-0.2,1.1-0.6,1.5c-0.4,0.4-0.9,0.6-1.4,0.6c-0.6,0-1.1-0.2-1.5-0.6
		c-0.4-0.4-0.6-0.9-0.6-1.5l-3.5,2.1h-6.9c-1.7,0-3.2-0.6-4.4-1.8c-1.2-1.2-1.8-2.7-1.8-4.4v-2.4c0-1.7,0.6-3.2,1.8-4.4
		C611.2,526.6,612.6,526,614.4,526z M624.6,534l-0.1-1.7c0-0.6-0.2-1.1-0.6-1.5c-0.4-0.4-0.9-0.6-1.4-0.6h-8.1
		c-0.6,0-1.1,0.2-1.5,0.6c-0.4,0.4-0.6,0.9-0.6,1.5v2.3c0,0.6,0.2,1,0.6,1.4c0.4,0.4,0.9,0.6,1.4,0.6h5.8L624.6,534z"/>
	<path class="st0" d="M648.1,522l-5.6,3.6v13.1c0,0.6-0.2,1-0.6,1.4c-0.4,0.4-0.9,0.6-1.4,0.6c-0.6,0-1-0.2-1.4-0.6
		c-0.4-0.4-0.6-0.9-0.6-1.4v-19.5c0-0.6,0.2-1.1,0.6-1.5c0.4-0.4,0.9-0.6,1.5-0.6c0.6,0,1,0.2,1.4,0.6c0.4,0.4,0.6,0.9,0.6,1.5v1.4
		l3.7-2.3c1.3-0.8,2.7-1.2,4.3-1.2h1.9c1.6,0,3,0.6,4.2,1.7c1.2,1.2,1.8,2.6,1.9,4.3l0.6,15.6c0,0.6-0.2,1-0.6,1.4
		c-0.4,0.4-0.9,0.6-1.5,0.6c-0.5,0-1-0.2-1.4-0.5c-0.4-0.4-0.6-0.9-0.6-1.5l-0.6-15.3c0-1.4-0.8-2.1-2.3-2.1h-2
		C649.5,521.3,648.9,521.6,648.1,522z"/>
	<path class="st0" d="M685.2,540.8h-12.5c-0.6,0-1.1-0.2-1.5-0.6c-0.4-0.4-0.6-0.9-0.6-1.5c0-0.6,0.2-1,0.6-1.4
		c0.4-0.4,0.9-0.6,1.5-0.6h4.2v-15.3h-4.2c-0.6,0-1.1-0.2-1.5-0.6c-0.4-0.4-0.6-0.9-0.6-1.4c0-0.6,0.2-1.1,0.6-1.5
		c0.4-0.4,0.9-0.6,1.5-0.6h6.3c0.6,0,1.1,0.2,1.5,0.6c0.4,0.4,0.6,0.9,0.6,1.5v17.4h4.1c0.6,0,1.1,0.2,1.5,0.6
		c0.4,0.4,0.6,0.9,0.6,1.5c0,0.6-0.2,1.1-0.6,1.5C686.2,540.6,685.7,540.8,685.2,540.8z M676.8,506.6h2.1c0.6,0,1.1,0.2,1.5,0.6
		c0.4,0.4,0.6,0.9,0.6,1.5v1.8c0,0.6-0.2,1.1-0.6,1.5c-0.4,0.4-0.9,0.6-1.5,0.6h-2.2c-0.6,0-1.1-0.2-1.5-0.6
		c-0.4-0.4-0.6-0.9-0.6-1.4l0-1.8c0-0.6,0.2-1.1,0.6-1.5C675.8,506.8,676.3,506.6,676.8,506.6z"/>
	<path class="st0" d="M698.3,538.8v-19.5c0-0.6,0.2-1.1,0.6-1.5c0.4-0.4,0.9-0.6,1.5-0.6c1.1,0,1.7,0.5,2,1.6
		c1.1-1.1,2.4-1.6,3.8-1.6c1.6,0,3,0.7,4,2.1c1.3-1.4,2.7-2.1,4.3-2.1c1.3,0,2.4,0.5,3.3,1.4c0.9,0.9,1.4,2.1,1.5,3.5l0.6,16.7
		c0,0.6-0.2,1-0.6,1.4c-0.4,0.4-0.9,0.6-1.4,0.6c-0.6,0-1.1-0.2-1.5-0.6c-0.4-0.4-0.6-0.9-0.6-1.4l-0.5-16.1c0-0.9-0.3-1.3-0.8-1.3
		c-0.3,0-0.6,0.1-0.9,0.4l-2.4,2.1v15c0,0.6-0.2,1-0.6,1.4c-0.4,0.4-0.9,0.6-1.5,0.6c-0.6,0-1-0.2-1.4-0.6c-0.4-0.4-0.6-0.9-0.6-1.5
		v-16.3c0-0.7-0.3-1-0.9-1c-0.3,0-0.6,0.1-0.8,0.3l-2.9,2.5v14.6c0,0.6-0.2,1-0.6,1.4c-0.4,0.4-0.9,0.6-1.4,0.6
		c-0.6,0-1.1-0.2-1.5-0.6C698.5,539.8,698.3,539.3,698.3,538.8z"/>
	<path class="st0" d="M735.2,526h8c0.4,0,1.1,0.1,1.9,0.3l0-2.9c0-0.6-0.2-1.1-0.6-1.5c-0.4-0.4-0.9-0.6-1.5-0.6h-7.8
		c-0.6,0-1-0.2-1.4-0.6c-0.4-0.4-0.6-0.9-0.6-1.4c0-0.6,0.2-1.1,0.6-1.5c0.4-0.4,0.9-0.6,1.5-0.6h7.8c1.7,0,3.1,0.6,4.3,1.8
		c1.2,1.2,1.8,2.6,1.9,4.4l0.5,15.4c0,0.6-0.2,1.1-0.6,1.5c-0.4,0.4-0.9,0.6-1.4,0.6c-0.6,0-1.1-0.2-1.5-0.6
		c-0.4-0.4-0.6-0.9-0.6-1.5l-3.5,2.1h-6.9c-1.7,0-3.2-0.6-4.4-1.8c-1.2-1.2-1.8-2.7-1.8-4.4v-2.4c0-1.7,0.6-3.2,1.8-4.4
		C732,526.6,733.4,526,735.2,526z M745.4,534l-0.1-1.7c0-0.6-0.2-1.1-0.6-1.5c-0.4-0.4-0.9-0.6-1.4-0.6h-8.1c-0.6,0-1.1,0.2-1.5,0.6
		c-0.4,0.4-0.6,0.9-0.6,1.5v2.3c0,0.6,0.2,1,0.6,1.4c0.4,0.4,0.9,0.6,1.4,0.6h5.8L745.4,534z"/>
	<path class="st0" d="M773.6,540.8h-4.1c-1.7,0-3.1-0.6-4.4-1.8c-1.2-1.2-1.8-2.7-1.8-4.3v-13.3h-2.1c-0.6,0-1.1-0.2-1.5-0.6
		c-0.4-0.4-0.6-0.9-0.6-1.5c0-0.6,0.2-1.1,0.6-1.5c0.4-0.4,0.9-0.6,1.5-0.6h2.1v-5c0-0.6,0.2-1.1,0.6-1.5c0.4-0.4,0.9-0.6,1.5-0.6
		c0.5,0,1,0.2,1.4,0.6c0.4,0.4,0.6,0.9,0.6,1.4v5h8.3c0.6,0,1,0.2,1.4,0.6c0.4,0.4,0.6,0.9,0.6,1.4c0,0.6-0.2,1.1-0.6,1.5
		c-0.4,0.4-0.9,0.6-1.4,0.6h-8.3v13.3c0,0.6,0.2,1,0.6,1.4c0.4,0.4,0.9,0.6,1.5,0.6h4c1.1,0,1.8-0.6,2.2-1.8c0.4-1.2,1-1.8,2.1-1.8
		c0.6,0,1.1,0.2,1.5,0.6c0.4,0.4,0.6,0.9,0.6,1.5c0,1.2-0.6,2.5-1.7,3.7C776.9,540.2,775.5,540.8,773.6,540.8z"/>
	<path class="st0" d="M806,540.8h-12.5c-0.6,0-1.1-0.2-1.5-0.6c-0.4-0.4-0.6-0.9-0.6-1.5c0-0.6,0.2-1,0.6-1.4
		c0.4-0.4,0.9-0.6,1.5-0.6h4.2v-15.3h-4.2c-0.6,0-1.1-0.2-1.5-0.6c-0.4-0.4-0.6-0.9-0.6-1.4c0-0.6,0.2-1.1,0.6-1.5
		c0.4-0.4,0.9-0.6,1.5-0.6h6.3c0.6,0,1.1,0.2,1.5,0.6c0.4,0.4,0.6,0.9,0.6,1.5v17.4h4.1c0.6,0,1.1,0.2,1.5,0.6
		c0.4,0.4,0.6,0.9,0.6,1.5c0,0.6-0.2,1.1-0.6,1.5C807,540.6,806.5,540.8,806,540.8z M797.6,506.6h2.1c0.6,0,1.1,0.2,1.5,0.6
		c0.4,0.4,0.6,0.9,0.6,1.5v1.8c0,0.6-0.2,1.1-0.6,1.5c-0.4,0.4-0.9,0.6-1.5,0.6h-2.2c-0.6,0-1.1-0.2-1.5-0.6
		c-0.4-0.4-0.6-0.9-0.6-1.4l0-1.8c0-0.6,0.2-1.1,0.6-1.5C796.6,506.8,797.1,506.6,797.6,506.6z"/>
	<path class="st0" d="M840.3,524.7v8.7c0,1.8-0.9,3.5-2.6,5.1c-1.7,1.6-3.5,2.3-5.4,2.3h-4.8c-1.9,0-3.7-0.8-5.4-2.4
		c-1.7-1.6-2.6-3.3-2.6-5.1v-8.7c0-1.8,0.8-3.5,2.5-5.1c1.7-1.6,3.5-2.4,5.4-2.4h4.8c1.8,0,3.6,0.7,5.4,2.3
		C839.4,521.1,840.3,522.8,840.3,524.7z M823.7,524.8v8.3c0,0.7,0.3,1.3,0.8,1.8l1.5,1.3c0.3,0.3,0.8,0.4,1.4,0.4h4.8
		c0.7,0,1.3-0.3,1.9-0.8l1.2-1.1c0.5-0.4,0.8-0.9,0.8-1.6v-8.3c0-0.8-0.3-1.4-0.8-1.8l-1.4-1.1c-0.5-0.4-1.1-0.6-1.7-0.6H828
		c-0.9,0-1.6,0.2-2.1,0.7l-1.4,1.2C824,523.6,823.7,524.2,823.7,524.8z"/>
	<path class="st0" d="M859.5,522l-5.6,3.6v13.1c0,0.6-0.2,1-0.6,1.4c-0.4,0.4-0.9,0.6-1.4,0.6c-0.6,0-1-0.2-1.4-0.6
		c-0.4-0.4-0.6-0.9-0.6-1.4v-19.5c0-0.6,0.2-1.1,0.6-1.5c0.4-0.4,0.9-0.6,1.5-0.6c0.6,0,1,0.2,1.4,0.6c0.4,0.4,0.6,0.9,0.6,1.5v1.4
		l3.7-2.3c1.3-0.8,2.7-1.2,4.3-1.2h1.9c1.6,0,3,0.6,4.2,1.7c1.2,1.2,1.8,2.6,1.9,4.3l0.6,15.6c0,0.6-0.2,1-0.6,1.4
		c-0.4,0.4-0.9,0.6-1.5,0.6c-0.5,0-1-0.2-1.4-0.5c-0.4-0.4-0.6-0.9-0.6-1.5l-0.6-15.3c0-1.4-0.8-2.1-2.3-2.1h-2
		C860.9,521.3,860.3,521.6,859.5,522z"/>
	<path class="st0" d="M914.4,510.4v9.6l1.8-1.4c1.1-0.9,2.3-1.4,3.5-1.4h3.8c1.4,0,2.6,0.5,3.7,1.4l2,1.7c0.5,0.5,1,1.1,1.3,2
		c0.3,0.9,0.5,1.7,0.5,2.6v8.3c0,0.7-0.2,1.5-0.5,2.4c-0.3,0.8-0.7,1.4-1.1,1.8l-1.8,1.7c-0.5,0.4-1.1,0.8-2,1.2
		c-0.8,0.4-1.6,0.5-2.1,0.5H920c-1.7,0-3.6-1-5.6-2.9v0.8c0,0.6-0.2,1.1-0.6,1.5c-0.4,0.4-0.9,0.6-1.5,0.6c-0.6,0-1.1-0.2-1.5-0.6
		c-0.4-0.4-0.6-0.9-0.6-1.5v-28.3c0-0.6,0.2-1.1,0.6-1.5c0.4-0.4,0.9-0.6,1.4-0.6c0.6,0,1.1,0.2,1.5,0.6
		C914.2,509.4,914.4,509.9,914.4,510.4z M923.2,521.4h-2.8c-0.7,0-1.2,0.2-1.6,0.5l-3.7,3.1c-0.5,0.4-0.7,1.1-0.7,1.9v4.6
		c0,0.7,0.3,1.3,0.8,1.7l3.3,2.8c0.5,0.4,1,0.7,1.5,0.7h3.3c0.5,0,0.9-0.1,1.2-0.4l1.6-1.5c0.4-0.3,0.7-0.8,0.7-1.4v-8.6
		c0-0.7-0.2-1.2-0.7-1.6l-1.5-1.2C924.3,521.6,923.8,521.4,923.2,521.4z"/>
	<path class="st0" d="M961.1,524.7v8.7c0,1.8-0.9,3.5-2.6,5.1c-1.7,1.6-3.5,2.3-5.4,2.3h-4.8c-1.9,0-3.7-0.8-5.4-2.4
		c-1.7-1.6-2.6-3.3-2.6-5.1v-8.7c0-1.8,0.8-3.5,2.5-5.1c1.7-1.6,3.5-2.4,5.4-2.4h4.8c1.8,0,3.6,0.7,5.4,2.3
		C960.2,521.1,961.1,522.8,961.1,524.7z M944.5,524.8v8.3c0,0.7,0.3,1.3,0.8,1.8l1.5,1.3c0.3,0.3,0.8,0.4,1.4,0.4h4.8
		c0.7,0,1.3-0.3,1.9-0.8l1.2-1.1c0.5-0.4,0.8-0.9,0.8-1.6v-8.3c0-0.8-0.3-1.4-0.8-1.8l-1.4-1.1c-0.5-0.4-1.1-0.6-1.7-0.6h-4.2
		c-0.9,0-1.6,0.2-2.1,0.7l-1.4,1.2C944.8,523.6,944.5,524.2,944.5,524.8z"/>
	<path class="st0" d="M991.3,524.7v8.7c0,1.8-0.9,3.5-2.6,5.1c-1.7,1.6-3.5,2.3-5.4,2.3h-4.8c-1.9,0-3.7-0.8-5.4-2.4
		c-1.7-1.6-2.6-3.3-2.6-5.1v-8.7c0-1.8,0.8-3.5,2.5-5.1c1.7-1.6,3.5-2.4,5.4-2.4h4.8c1.8,0,3.6,0.7,5.4,2.3
		C990.4,521.1,991.3,522.8,991.3,524.7z M974.7,524.8v8.3c0,0.7,0.3,1.3,0.8,1.8l1.5,1.3c0.3,0.3,0.8,0.4,1.4,0.4h4.8
		c0.7,0,1.3-0.3,1.9-0.8l1.2-1.1c0.5-0.4,0.8-0.9,0.8-1.6v-8.3c0-0.8-0.3-1.4-0.8-1.8l-1.4-1.1c-0.5-0.4-1.1-0.6-1.7-0.6H979
		c-0.9,0-1.6,0.2-2.1,0.7l-1.4,1.2C975,523.6,974.7,524.2,974.7,524.8z"/>
	<path class="st0" d="M1000.8,538.8v-28.3c0-0.6,0.2-1.1,0.6-1.5c0.4-0.4,0.9-0.6,1.5-0.6c0.6,0,1.1,0.2,1.5,0.6
		c0.4,0.4,0.6,0.9,0.6,1.5v16.8l11-9.4c0.5-0.4,1-0.6,1.5-0.6c0.6,0,1.1,0.2,1.5,0.6s0.6,0.9,0.6,1.5c0,0.6-0.2,1.1-0.6,1.4
		l-8.6,7.3l10.6,9.3c0.4,0.3,0.6,0.8,0.6,1.3c0,0.5-0.2,1-0.6,1.5c-0.4,0.4-0.9,0.6-1.4,0.6c-0.6,0-1.1-0.2-1.5-0.6l-10.9-9.5
		l-2.2,1.8v6.2c0,0.6-0.2,1.1-0.6,1.5c-0.4,0.4-0.9,0.6-1.5,0.6c-0.6,0-1.1-0.2-1.5-0.6C1001,539.8,1000.8,539.4,1000.8,538.8z"/>
	<path class="st0" d="M159.4,570.4v9.6l1.8-1.4c1.1-0.9,2.3-1.4,3.5-1.4h3.8c1.4,0,2.6,0.5,3.7,1.4l2,1.7c0.5,0.5,1,1.1,1.3,2
		c0.3,0.9,0.5,1.7,0.5,2.6v8.3c0,0.7-0.2,1.5-0.5,2.4c-0.3,0.8-0.7,1.4-1.1,1.8l-1.8,1.7c-0.5,0.4-1.1,0.8-2,1.2
		c-0.8,0.4-1.6,0.5-2.1,0.5H165c-1.7,0-3.6-1-5.6-2.9v0.8c0,0.6-0.2,1.1-0.6,1.5c-0.4,0.4-0.9,0.6-1.5,0.6c-0.6,0-1.1-0.2-1.5-0.6
		c-0.4-0.4-0.6-0.9-0.6-1.5v-28.3c0-0.6,0.2-1.1,0.6-1.5c0.4-0.4,0.9-0.6,1.4-0.6c0.6,0,1.1,0.2,1.5,0.6
		C159.2,569.4,159.4,569.9,159.4,570.4z M168.2,581.4h-2.8c-0.7,0-1.2,0.2-1.6,0.5l-3.7,3.1c-0.5,0.4-0.7,1.1-0.7,1.9v4.6
		c0,0.7,0.3,1.3,0.8,1.7l3.3,2.8c0.5,0.4,1,0.7,1.5,0.7h3.3c0.5,0,0.9-0.1,1.2-0.4l1.6-1.5c0.4-0.3,0.7-0.8,0.7-1.4v-8.6
		c0-0.7-0.2-1.2-0.7-1.6l-1.5-1.2C169.3,581.6,168.8,581.4,168.2,581.4z"/>
	<path class="st0" d="M206.1,583.3l-11.1,25c-0.4,0.9-1,1.3-2,1.3h-5.7c-0.6,0-1.1-0.2-1.5-0.6s-0.6-0.9-0.6-1.5
		c0-0.6,0.2-1,0.6-1.4c0.4-0.4,0.9-0.6,1.5-0.6h4.4l2.8-6.5h-1c-0.9,0-1.6-0.5-2-1.4l-6.1-14.3v-4c0-0.6,0.2-1.1,0.6-1.5
		c0.4-0.4,0.9-0.6,1.4-0.6c0.6,0,1.1,0.2,1.5,0.6c0.4,0.4,0.6,0.9,0.6,1.5l0,3.1l5.4,12.5h1.4l5.6-12.5l0-3.1c0-0.5,0.2-1,0.6-1.4
		c0.4-0.4,0.9-0.6,1.5-0.6c0.6,0,1,0.2,1.4,0.6c0.4,0.4,0.6,0.9,0.6,1.4V583.3z"/>
	<path class="st0" d="M262.4,600.8H250c-0.6,0-1.1-0.2-1.5-0.6c-0.4-0.4-0.6-0.9-0.6-1.5c0-0.6,0.2-1,0.6-1.4
		c0.4-0.4,0.9-0.6,1.5-0.6h4.1v-24.2h-4.2c-0.6,0-1.1-0.2-1.5-0.6c-0.4-0.4-0.6-0.9-0.6-1.5c0-0.6,0.2-1.1,0.6-1.5
		c0.4-0.4,0.9-0.6,1.5-0.6h6.3c0.6,0,1,0.2,1.4,0.6c0.4,0.4,0.6,0.9,0.6,1.4v26.2h4.2c0.6,0,1,0.2,1.4,0.6c0.4,0.4,0.6,0.9,0.6,1.4
		c0,0.6-0.2,1.1-0.6,1.5C263.4,600.6,263,600.8,262.4,600.8z"/>
	<path class="st0" d="M292.6,600.8h-12.5c-0.6,0-1.1-0.2-1.5-0.6c-0.4-0.4-0.6-0.9-0.6-1.5c0-0.6,0.2-1,0.6-1.4
		c0.4-0.4,0.9-0.6,1.5-0.6h4.2v-15.3h-4.2c-0.6,0-1.1-0.2-1.5-0.6c-0.4-0.4-0.6-0.9-0.6-1.4c0-0.6,0.2-1.1,0.6-1.5
		c0.4-0.4,0.9-0.6,1.5-0.6h6.3c0.6,0,1.1,0.2,1.5,0.6c0.4,0.4,0.6,0.9,0.6,1.5v17.4h4.1c0.6,0,1.1,0.2,1.5,0.6
		c0.4,0.4,0.6,0.9,0.6,1.5c0,0.6-0.2,1.1-0.6,1.5C293.6,600.6,293.1,600.8,292.6,600.8z M284.2,566.6h2.1c0.6,0,1.1,0.2,1.5,0.6
		c0.4,0.4,0.6,0.9,0.6,1.5v1.8c0,0.6-0.2,1.1-0.6,1.5c-0.4,0.4-0.9,0.6-1.5,0.6h-2.2c-0.6,0-1.1-0.2-1.5-0.6
		c-0.4-0.4-0.6-0.9-0.6-1.4l0-1.8c0-0.6,0.2-1.1,0.6-1.5C283.2,566.8,283.7,566.6,284.2,566.6z"/>
	<path class="st0" d="M312,577.3h9.4c1.5,0,2.8,0.4,3.9,1.3c1.1,0.9,1.7,1.7,1.7,2.6c0,0.6-0.2,1.1-0.6,1.4
		c-0.4,0.4-0.9,0.6-1.4,0.6c-0.7,0-1.2-0.3-1.8-0.9s-1.1-0.9-1.7-0.9h-9.3c-0.9,0-1.4,0.4-1.4,1.1c0,0.5,0.3,0.9,0.9,1.2l10.9,4.9
		c1.1,0.5,2,1.3,2.7,2.4c0.7,1.1,1.1,2.3,1.1,3.6c0,1.8-0.6,3.2-1.9,4.5s-2.7,1.8-4.2,1.8H312c-1.4,0-2.8-0.4-4-1.3
		c-1.2-0.9-1.8-1.7-1.8-2.5c0-0.5,0.2-1,0.6-1.4c0.4-0.4,0.9-0.6,1.6-0.6c0.5,0,1.1,0.3,1.7,0.9c0.6,0.6,1.5,0.9,2.6,0.9h7.6
		c0.6,0,1.1-0.2,1.5-0.7c0.4-0.5,0.6-1,0.6-1.6c0-0.9-0.5-1.6-1.4-2l-11-5c-1.1-0.5-1.9-1.2-2.4-2.1c-0.6-0.9-0.9-1.8-0.9-2.7
		c0-1.5,0.5-2.7,1.5-3.8C309.2,577.8,310.5,577.3,312,577.3z"/>
	<path class="st0" d="M346.1,582l-5.6,3.6v13.1c0,0.6-0.2,1-0.6,1.4c-0.4,0.4-0.9,0.6-1.4,0.6c-0.6,0-1-0.2-1.4-0.6
		c-0.4-0.4-0.6-0.9-0.6-1.4v-19.5c0-0.6,0.2-1.1,0.6-1.5c0.4-0.4,0.9-0.6,1.5-0.6c0.6,0,1,0.2,1.4,0.6c0.4,0.4,0.6,0.9,0.6,1.5v1.4
		l3.7-2.3c1.3-0.8,2.7-1.2,4.3-1.2h1.9c1.6,0,3,0.6,4.2,1.7c1.2,1.2,1.8,2.6,1.9,4.3l0.6,15.6c0,0.6-0.2,1-0.6,1.4
		c-0.4,0.4-0.9,0.6-1.5,0.6c-0.5,0-1-0.2-1.4-0.5c-0.4-0.4-0.6-0.9-0.6-1.5l-0.6-15.3c0-1.4-0.8-2.1-2.3-2.1h-2
		C347.5,581.3,346.9,581.6,346.1,582z"/>
	<path class="st0" d="M372.8,586h8c0.4,0,1.1,0.1,1.9,0.3l0-2.9c0-0.6-0.2-1.1-0.6-1.5c-0.4-0.4-0.9-0.6-1.5-0.6h-7.8
		c-0.6,0-1-0.2-1.4-0.6c-0.4-0.4-0.6-0.9-0.6-1.4c0-0.6,0.2-1.1,0.6-1.5c0.4-0.4,0.9-0.6,1.5-0.6h7.8c1.7,0,3.1,0.6,4.3,1.8
		c1.2,1.2,1.8,2.6,1.9,4.4l0.5,15.4c0,0.6-0.2,1.1-0.6,1.5c-0.4,0.4-0.9,0.6-1.4,0.6c-0.6,0-1.1-0.2-1.5-0.6
		c-0.4-0.4-0.6-0.9-0.6-1.5l-3.5,2.1h-6.9c-1.7,0-3.2-0.6-4.4-1.8c-1.2-1.2-1.8-2.7-1.8-4.4v-2.4c0-1.7,0.6-3.2,1.8-4.4
		C369.6,586.6,371,586,372.8,586z M383,594l-0.1-1.7c0-0.6-0.2-1.1-0.6-1.5c-0.4-0.4-0.9-0.6-1.4-0.6h-8.1c-0.6,0-1.1,0.2-1.5,0.6
		c-0.4,0.4-0.6,0.9-0.6,1.5v2.3c0,0.6,0.2,1,0.6,1.4c0.4,0.4,0.9,0.6,1.4,0.6h5.8L383,594z"/>
</g>
</svg>
