<?xml version="1.0" encoding="utf-8"?>
<!-- Generator: Adobe Illustrator 21.1.0, SVG Export Plug-In . SVG Version: 6.00 Build 0)  -->
<svg version="1.1" id="Layer_1" xmlns="http://www.w3.org/2000/svg" xmlns:xlink="http://www.w3.org/1999/xlink" x="0px" y="0px"
	 viewBox="0 0 1280 800" style="enable-background:new 0 0 1280 800;" xml:space="preserve">
<style type="text/css">
	.st0{stroke:#000000;}
</style>
<g>
	<path class="st0" d="M201,158.8h20.4c1.7,0,3.2,0.6,4.4,1.8c1.2,1.2,1.8,2.6,1.8,4.4c0,1.8-0.6,3.3-1.9,4.5
		c-1.3,1.2-2.7,1.8-4.2,1.8h-19.5c-1.9,0-3.6,0.9-5,2.7l-17.3,22.2c-1.5,1.8-2.2,4.2-2.2,7.3v34.1c0,1.8,0.6,3.2,1.8,4.5
		c1.2,1.2,2.6,1.8,4.4,1.8h25c1.7,0,3.1-0.6,4.3-1.8c1.2-1.2,1.8-2.7,1.8-4.3v-13.3h-12.7c-1.8,0-3.2-0.6-4.4-1.8
		c-1.2-1.2-1.8-2.6-1.8-4.4c0-1.7,0.6-3.2,1.8-4.4c1.2-1.2,2.6-1.8,4.4-1.8h25v25.6c0,5.1-1.8,9.4-5.4,13c-3.6,3.6-8,5.4-13,5.4h-25
		c-5.1,0-9.5-1.8-13.1-5.4c-3.6-3.6-5.5-8-5.5-13v-34.1c0-6.1,1.6-11.3,4.9-15.5l18.2-23.1c1.3-1.8,3.2-3.2,5.5-4.5
		C196,159.4,198.5,158.8,201,158.8z"/>
	<path class="st0" d="M255.9,250v-58.4c0-1.7,0.6-3.2,1.8-4.4c1.2-1.2,2.6-1.9,4.4-1.9c1.7,0,3.2,0.6,4.4,1.8
		c1.2,1.2,1.8,2.7,1.8,4.5v7.7l10-8.6c4.1-3.5,8.2-5.3,12.2-5.3h9c5.1,0,9.4,1.8,13,5.4c3.6,3.6,5.4,8,5.4,13v3.3
		c0,1.8-0.6,3.2-1.8,4.5c-1.2,1.2-2.6,1.8-4.4,1.8c-1.7,0-3.2-0.6-4.4-1.8c-1.2-1.2-1.8-2.6-1.8-4.4V204c0-1.7-0.6-3.2-1.8-4.4
		c-1.2-1.2-2.6-1.8-4.4-1.8h-8c-1.7,0-3.6,0.9-5.7,2.7l-17.5,15.2V250c0,1.7-0.6,3.2-1.8,4.4c-1.2,1.2-2.7,1.8-4.3,1.8
		c-1.7,0-3.2-0.6-4.4-1.8C256.5,253.2,255.9,251.7,255.9,250z"/>
	<path class="st0" d="M402.4,255.9h-6.2c-1.7,0-3.1-0.6-4.3-1.8c-1.2-1.2-1.8-2.6-1.8-4.4c0-1.7,0.6-3.2,1.8-4.4
		c1.2-1.2,2.6-1.8,4.4-1.8v-40.6h-43.4c-1.7,0-3.1-0.6-4.3-1.8c-1.2-1.2-1.8-2.7-1.8-4.3v-31.9c0-1.7,0.6-3.1,1.8-4.3
		c1.2-1.2,2.7-1.8,4.3-1.8h49.5c1.7,0,3.1,0.6,4.3,1.8c1.2,1.2,1.8,2.7,1.8,4.3v84.9c0,1.7-0.6,3.2-1.8,4.4
		C405.5,255.3,404.1,255.9,402.4,255.9z M396.3,190.5v-19.3H359v19.3H396.3z"/>
	<path class="st0" d="M208.6,436.2h-12.3c-5.1,0-9.4-1.8-13.1-5.4c-3.7-3.6-5.5-8-5.5-13v-39.9h-6.3c-1.7,0-3.2-0.6-4.4-1.8
		c-1.2-1.2-1.8-2.6-1.8-4.4c0-1.7,0.6-3.2,1.8-4.4c1.2-1.2,2.6-1.8,4.4-1.8h6.4v-15.1c0-1.7,0.6-3.2,1.8-4.4
		c1.2-1.2,2.6-1.8,4.4-1.8c1.6,0,3,0.6,4.3,1.8c1.2,1.2,1.9,2.7,1.9,4.3v15.1h24.8c1.7,0,3.1,0.6,4.3,1.8c1.2,1.2,1.8,2.7,1.8,4.3
		c0,1.7-0.6,3.2-1.8,4.4c-1.2,1.2-2.7,1.8-4.3,1.8H190v39.9c0,1.7,0.6,3.1,1.9,4.3c1.2,1.2,2.7,1.8,4.4,1.8h12
		c3.3,0,5.4-1.8,6.5-5.3c1.1-3.5,3.1-5.3,6.2-5.3c1.8,0,3.3,0.6,4.4,1.8c1.1,1.2,1.7,2.7,1.7,4.5c0,3.7-1.7,7.4-5.2,11.1
		C218.4,434.3,214,436.2,208.6,436.2z"/>
	<path class="st0" d="M255.8,430v-85c0-1.7,0.6-3.1,1.8-4.2c1.2-1.2,2.6-1.8,4.4-1.8c1.7,0,3.2,0.6,4.4,1.8c1.2,1.2,1.8,2.6,1.8,4.4
		v31.1l9.9-6.4c4.5-2.8,8.5-4.2,12-4.2h7.6c5,0,9.3,1.8,13,5.4c3.6,3.6,5.5,7.9,5.6,13.1l1.5,46.1c0,1.7-0.5,3.2-1.8,4.4
		c-1.2,1.2-2.7,1.8-4.4,1.8c-1.7,0-3.1-0.6-4.3-1.9s-1.8-2.7-1.8-4.3l-1.5-46.2c0-1.7-0.7-3.1-1.9-4.3c-1.2-1.2-2.7-1.8-4.4-1.8
		h-6.9c-1.6,0-3.3,0.6-5.1,1.8l-17.5,11.4V430c0,1.7-0.6,3.2-1.8,4.4c-1.2,1.2-2.6,1.8-4.4,1.8c-1.7,0-3.2-0.6-4.4-1.8
		C256.4,433.2,255.8,431.7,255.8,430z"/>
	<path class="st0" d="M346.5,430v-58.4c0-1.7,0.6-3.2,1.8-4.4c1.2-1.2,2.6-1.9,4.4-1.9c1.7,0,3.2,0.6,4.4,1.8
		c1.2,1.2,1.8,2.7,1.8,4.5v7.7l10-8.6c4.1-3.5,8.2-5.3,12.2-5.3h9c5.1,0,9.4,1.8,13,5.4c3.6,3.6,5.4,8,5.4,13v3.3
		c0,1.8-0.6,3.2-1.8,4.5c-1.2,1.2-2.6,1.8-4.4,1.8c-1.7,0-3.2-0.6-4.4-1.8c-1.2-1.2-1.8-2.6-1.8-4.4V384c0-1.7-0.6-3.2-1.8-4.4
		c-1.2-1.2-2.6-1.8-4.4-1.8h-8c-1.7,0-3.6,0.9-5.7,2.7l-17.5,15.2V430c0,1.7-0.6,3.2-1.8,4.4c-1.2,1.2-2.7,1.8-4.3,1.8
		c-1.7,0-3.2-0.6-4.4-1.8C347.1,433.2,346.5,431.7,346.5,430z"/>
	<path class="st0" d="M499.1,388.6v14.9c0,1.7-0.6,3.1-1.8,4.3c-1.2,1.2-2.7,1.8-4.3,1.8h-43.5v3.6c0,2.1,0.9,3.9,2.7,5.3l3.6,3
		c2,1.5,3.8,2.3,5.6,2.3H493c1.7,0,3.1,0.6,4.3,1.8c1.2,1.2,1.8,2.6,1.8,4.4c0,1.7-0.6,3.1-1.9,4.3c-1.2,1.2-2.7,1.8-4.3,1.8h-32.4
		c-2.1,0-4.4-0.5-6.8-1.4c-2.4-0.9-4.1-1.8-5.2-2.8l-5.5-4.8c-1.7-1.4-3.1-3.3-4.3-5.7c-1.1-2.4-1.7-4.7-1.7-6.7v-28.2
		c0-1.6,0.6-3.8,1.9-6.5c1.2-2.7,2.8-4.9,4.7-6.4l5.1-4c3.4-2.7,7.1-4.1,11.2-4.1h17.3c4.3,0,8.4,1.8,12.3,5.4l4.6,4.4
		C497.4,378.3,499.1,382.7,499.1,388.6z M449.6,387.7v9.5H487v-8.6c0-2.3-0.7-4.1-2.1-5.3l-3.6-3.1c-1.9-1.5-3.5-2.3-5-2.3h-15.5
		c-1.9,0-3.6,0.7-5.2,2l-3.6,3C450.4,384.1,449.6,385.7,449.6,387.7z"/>
	<path class="st0" d="M546.1,391.8h24.1c1.3,0,3.2,0.3,5.7,0.9l-0.1-8.7c0-1.7-0.6-3.2-1.8-4.4c-1.2-1.2-2.7-1.8-4.4-1.8h-23.4
		c-1.7,0-3.1-0.6-4.3-1.8c-1.2-1.2-1.8-2.7-1.8-4.3c0-1.7,0.6-3.2,1.8-4.4c1.2-1.2,2.7-1.8,4.4-1.8h23.4c5.1,0,9.4,1.8,13,5.3
		c3.6,3.6,5.5,7.9,5.6,13.1l1.5,46.1c0,1.7-0.6,3.2-1.8,4.4c-1.2,1.2-2.7,1.8-4.3,1.8c-1.8,0-3.2-0.6-4.5-1.8
		c-1.2-1.2-1.8-2.6-1.8-4.4l-10.4,6.2h-20.8c-5.2,0-9.6-1.8-13.2-5.4c-3.6-3.6-5.4-8-5.4-13.2v-7.2c0-5.1,1.8-9.5,5.5-13.1
		C536.6,393.6,540.9,391.8,546.1,391.8z M576.9,415.7l-0.4-5.2c0-1.8-0.7-3.2-1.8-4.4c-1.2-1.2-2.6-1.8-4.3-1.8h-24.3
		c-1.7,0-3.2,0.6-4.4,1.8c-1.2,1.2-1.8,2.6-1.8,4.4v6.9c0,1.7,0.6,3.1,1.8,4.3c1.2,1.2,2.7,1.8,4.3,1.8h17.4L576.9,415.7z"/>
	<path class="st0" d="M661.6,436.2h-12.3c-5.1,0-9.4-1.8-13.1-5.4c-3.7-3.6-5.5-8-5.5-13v-39.9h-6.3c-1.7,0-3.2-0.6-4.4-1.8
		s-1.8-2.6-1.8-4.4c0-1.7,0.6-3.2,1.8-4.4c1.2-1.2,2.6-1.8,4.4-1.8h6.4v-15.1c0-1.7,0.6-3.2,1.8-4.4c1.2-1.2,2.6-1.8,4.4-1.8
		c1.6,0,3,0.6,4.3,1.8c1.2,1.2,1.9,2.7,1.9,4.3v15.1h24.8c1.7,0,3.1,0.6,4.3,1.8c1.2,1.2,1.8,2.7,1.8,4.3c0,1.7-0.6,3.2-1.8,4.4
		c-1.2,1.2-2.7,1.8-4.3,1.8H643v39.9c0,1.7,0.6,3.1,1.9,4.3c1.2,1.2,2.7,1.8,4.4,1.8h12c3.3,0,5.4-1.8,6.5-5.3
		c1.1-3.5,3.1-5.3,6.2-5.3c1.8,0,3.3,0.6,4.4,1.8c1.1,1.2,1.7,2.7,1.7,4.5c0,3.7-1.7,7.4-5.2,11.1
		C671.4,434.3,667,436.2,661.6,436.2z"/>
	<path class="st0" d="M726.2,365.5h28.2c4.4,0,8.3,1.3,11.6,3.9c3.4,2.6,5.1,5.2,5.1,7.7c0,1.8-0.6,3.2-1.9,4.3
		c-1.2,1.1-2.6,1.7-4.1,1.7c-2,0-3.7-0.9-5.3-2.6s-3.3-2.6-5.1-2.6h-27.8c-2.7,0-4.1,1.1-4.1,3.4c0,1.6,0.9,2.8,2.7,3.6l32.7,14.6
		c3.3,1.5,6,3.8,8.2,7.1c2.1,3.2,3.2,6.8,3.2,10.8c0,5.3-1.9,9.7-5.6,13.4c-3.7,3.7-8,5.5-12.7,5.5h-24.9c-4.3,0-8.3-1.3-12-3.9
		c-3.7-2.6-5.5-5.1-5.5-7.5c0-1.6,0.6-3,1.8-4.3s2.7-1.9,4.7-1.9c1.6,0,3.2,0.9,5,2.6s4.4,2.6,7.7,2.6h22.9c1.8,0,3.3-0.7,4.5-2.1
		c1.2-1.4,1.8-3,1.8-4.8c0-2.8-1.4-4.8-4.1-6l-33-14.9c-3.2-1.4-5.6-3.5-7.3-6.2c-1.7-2.7-2.6-5.4-2.6-8.2c0-4.4,1.5-8.2,4.6-11.4
		S721.7,365.5,726.2,365.5z"/>
</g>
<g>
	<path class="st0" d="M161.3,526h8c0.4,0,1.1,0.1,1.9,0.3l0-2.9c0-0.6-0.2-1.1-0.6-1.5c-0.4-0.4-0.9-0.6-1.5-0.6h-7.8
		c-0.6,0-1-0.2-1.4-0.6c-0.4-0.4-0.6-0.9-0.6-1.4c0-0.6,0.2-1.1,0.6-1.5c0.4-0.4,0.9-0.6,1.5-0.6h7.8c1.7,0,3.1,0.6,4.3,1.8
		c1.2,1.2,1.8,2.6,1.9,4.4l0.5,15.4c0,0.6-0.2,1.1-0.6,1.5c-0.4,0.4-0.9,0.6-1.4,0.6c-0.6,0-1.1-0.2-1.5-0.6
		c-0.4-0.4-0.6-0.9-0.6-1.5l-3.5,2.1h-6.9c-1.7,0-3.2-0.6-4.4-1.8c-1.2-1.2-1.8-2.7-1.8-4.4v-2.4c0-1.7,0.6-3.2,1.8-4.4
		C158.2,526.6,159.6,526,161.3,526z M171.6,534l-0.1-1.7c0-0.6-0.2-1.1-0.6-1.5c-0.4-0.4-0.9-0.6-1.4-0.6h-8.1
		c-0.6,0-1.1,0.2-1.5,0.6c-0.4,0.4-0.6,0.9-0.6,1.5v2.3c0,0.6,0.2,1,0.6,1.4c0.4,0.4,0.9,0.6,1.4,0.6h5.8L171.6,534z"/>
	<path class="st0" d="M195.1,522l-5.6,3.6v13.1c0,0.6-0.2,1-0.6,1.4c-0.4,0.4-0.9,0.6-1.4,0.6c-0.6,0-1-0.2-1.4-0.6
		c-0.4-0.4-0.6-0.9-0.6-1.4v-19.5c0-0.6,0.2-1.1,0.6-1.5c0.4-0.4,0.9-0.6,1.5-0.6c0.6,0,1,0.2,1.4,0.6c0.4,0.4,0.6,0.9,0.6,1.5v1.4
		l3.7-2.3c1.3-0.8,2.7-1.2,4.3-1.2h1.9c1.6,0,3,0.6,4.2,1.7c1.2,1.2,1.8,2.6,1.9,4.3l0.6,15.6c0,0.6-0.2,1-0.6,1.4
		c-0.4,0.4-0.9,0.6-1.5,0.6c-0.5,0-1-0.2-1.4-0.5c-0.4-0.4-0.6-0.9-0.6-1.5l-0.6-15.3c0-1.4-0.8-2.1-2.3-2.1h-2
		C196.5,521.3,195.9,521.6,195.1,522z"/>
	<path class="st0" d="M262.4,540.8h-12.5c-0.6,0-1.1-0.2-1.5-0.6c-0.4-0.4-0.6-0.9-0.6-1.5c0-0.6,0.2-1,0.6-1.4
		c0.4-0.4,0.9-0.6,1.5-0.6h4.2v-15.3h-4.2c-0.6,0-1.1-0.2-1.5-0.6c-0.4-0.4-0.6-0.9-0.6-1.4c0-0.6,0.2-1.1,0.6-1.5
		c0.4-0.4,0.9-0.6,1.5-0.6h6.3c0.6,0,1.1,0.2,1.5,0.6c0.4,0.4,0.6,0.9,0.6,1.5v17.4h4.1c0.6,0,1.1,0.2,1.5,0.6
		c0.4,0.4,0.6,0.9,0.6,1.5c0,0.6-0.2,1.1-0.6,1.5C263.4,540.6,262.9,540.8,262.4,540.8z M254,506.6h2.1c0.6,0,1.1,0.2,1.5,0.6
		c0.4,0.4,0.6,0.9,0.6,1.5v1.8c0,0.6-0.2,1.1-0.6,1.5c-0.4,0.4-0.9,0.6-1.5,0.6H254c-0.6,0-1.1-0.2-1.5-0.6
		c-0.4-0.4-0.6-0.9-0.6-1.4l0-1.8c0-0.6,0.2-1.1,0.6-1.5C253,506.8,253.5,506.6,254,506.6z"/>
	<path class="st0" d="M285.7,522l-5.6,3.6v13.1c0,0.6-0.2,1-0.6,1.4c-0.4,0.4-0.9,0.6-1.4,0.6c-0.6,0-1-0.2-1.4-0.6
		c-0.4-0.4-0.6-0.9-0.6-1.4v-19.5c0-0.6,0.2-1.1,0.6-1.5c0.4-0.4,0.9-0.6,1.5-0.6c0.6,0,1,0.2,1.4,0.6c0.4,0.4,0.6,0.9,0.6,1.5v1.4
		l3.7-2.3c1.3-0.8,2.7-1.2,4.3-1.2h1.9c1.6,0,3,0.6,4.2,1.7c1.2,1.2,1.8,2.6,1.9,4.3l0.6,15.6c0,0.6-0.2,1-0.6,1.4
		c-0.4,0.4-0.9,0.6-1.5,0.6c-0.5,0-1-0.2-1.4-0.5c-0.4-0.4-0.6-0.9-0.6-1.5l-0.6-15.3c0-1.4-0.8-2.1-2.3-2.1h-2
		C287.1,521.3,286.5,521.6,285.7,522z"/>
	<path class="st0" d="M320.6,540.8h-4.1c-1.7,0-3.1-0.6-4.4-1.8c-1.2-1.2-1.8-2.7-1.8-4.3v-13.3h-2.1c-0.6,0-1.1-0.2-1.5-0.6
		c-0.4-0.4-0.6-0.9-0.6-1.5c0-0.6,0.2-1.1,0.6-1.5c0.4-0.4,0.9-0.6,1.5-0.6h2.1v-5c0-0.6,0.2-1.1,0.6-1.5c0.4-0.4,0.9-0.6,1.5-0.6
		c0.5,0,1,0.2,1.4,0.6c0.4,0.4,0.6,0.9,0.6,1.4v5h8.3c0.6,0,1,0.2,1.4,0.6c0.4,0.4,0.6,0.9,0.6,1.4c0,0.6-0.2,1.1-0.6,1.5
		c-0.4,0.4-0.9,0.6-1.4,0.6h-8.3v13.3c0,0.6,0.2,1,0.6,1.4c0.4,0.4,0.9,0.6,1.5,0.6h4c1.1,0,1.8-0.6,2.2-1.8c0.4-1.2,1-1.8,2.1-1.8
		c0.6,0,1.1,0.2,1.5,0.6c0.4,0.4,0.6,0.9,0.6,1.5c0,1.2-0.6,2.5-1.7,3.7C323.9,540.2,322.4,540.8,320.6,540.8z"/>
	<path class="st0" d="M357.1,525v5c0,0.6-0.2,1-0.6,1.4c-0.4,0.4-0.9,0.6-1.4,0.6h-14.5v1.2c0,0.7,0.3,1.3,0.9,1.8l1.2,1
		c0.7,0.5,1.3,0.8,1.9,0.8H355c0.6,0,1,0.2,1.4,0.6c0.4,0.4,0.6,0.9,0.6,1.5c0,0.6-0.2,1-0.6,1.4c-0.4,0.4-0.9,0.6-1.4,0.6h-10.8
		c-0.7,0-1.5-0.2-2.3-0.5c-0.8-0.3-1.4-0.6-1.7-0.9l-1.8-1.6c-0.6-0.5-1-1.1-1.4-1.9c-0.4-0.8-0.6-1.6-0.6-2.2v-9.4
		c0-0.5,0.2-1.3,0.6-2.2c0.4-0.9,0.9-1.6,1.6-2.1l1.7-1.3c1.1-0.9,2.4-1.4,3.7-1.4h5.8c1.4,0,2.8,0.6,4.1,1.8l1.5,1.5
		C356.5,521.5,357.1,523,357.1,525z M340.6,524.7v3.2H353V525c0-0.8-0.2-1.4-0.7-1.8l-1.2-1c-0.6-0.5-1.2-0.8-1.7-0.8h-5.2
		c-0.6,0-1.2,0.2-1.7,0.7l-1.2,1C340.9,523.5,340.6,524,340.6,524.7z"/>
	<path class="st0" d="M366.6,538.8v-19.5c0-0.6,0.2-1.1,0.6-1.5c0.4-0.4,0.9-0.6,1.5-0.6c0.6,0,1.1,0.2,1.5,0.6
		c0.4,0.4,0.6,0.9,0.6,1.5v2.6l3.3-2.9c1.4-1.2,2.7-1.8,4.1-1.8h3c1.7,0,3.1,0.6,4.3,1.8c1.2,1.2,1.8,2.7,1.8,4.3v1.1
		c0,0.6-0.2,1.1-0.6,1.5c-0.4,0.4-0.9,0.6-1.5,0.6c-0.6,0-1.1-0.2-1.5-0.6c-0.4-0.4-0.6-0.9-0.6-1.5v-1.1c0-0.6-0.2-1.1-0.6-1.5
		c-0.4-0.4-0.9-0.6-1.5-0.6h-2.7c-0.6,0-1.2,0.3-1.9,0.9l-5.8,5.1v11.5c0,0.6-0.2,1.1-0.6,1.5c-0.4,0.4-0.9,0.6-1.4,0.6
		c-0.6,0-1.1-0.2-1.5-0.6C366.8,539.8,366.6,539.4,366.6,538.8z"/>
	<path class="st0" d="M403,526h8c0.4,0,1.1,0.1,1.9,0.3l0-2.9c0-0.6-0.2-1.1-0.6-1.5c-0.4-0.4-0.9-0.6-1.5-0.6H403
		c-0.6,0-1-0.2-1.4-0.6c-0.4-0.4-0.6-0.9-0.6-1.4c0-0.6,0.2-1.1,0.6-1.5c0.4-0.4,0.9-0.6,1.5-0.6h7.8c1.7,0,3.1,0.6,4.3,1.8
		c1.2,1.2,1.8,2.6,1.9,4.4l0.5,15.4c0,0.6-0.2,1.1-0.6,1.5c-0.4,0.4-0.9,0.6-1.4,0.6c-0.6,0-1.1-0.2-1.5-0.6
		c-0.4-0.4-0.6-0.9-0.6-1.5l-3.5,2.1H403c-1.7,0-3.2-0.6-4.4-1.8c-1.2-1.2-1.8-2.7-1.8-4.4v-2.4c0-1.7,0.6-3.2,1.8-4.4
		C399.8,526.6,401.2,526,403,526z M413.2,534l-0.1-1.7c0-0.6-0.2-1.1-0.6-1.5c-0.4-0.4-0.9-0.6-1.4-0.6h-8.1c-0.6,0-1.1,0.2-1.5,0.6
		c-0.4,0.4-0.6,0.9-0.6,1.5v2.3c0,0.6,0.2,1,0.6,1.4c0.4,0.4,0.9,0.6,1.4,0.6h5.8L413.2,534z"/>
	<path class="st0" d="M445.7,540.8h-8.8c-1.5,0-2.9-0.5-4-1.4l-4-3.5c-1.3-1.1-1.9-2.5-1.9-4.3v-5.3c-0.1-1.7,0.7-3.3,2.1-4.5
		l3.6-3.1c1.2-0.9,2.4-1.4,3.7-1.4h9.2c0.6,0,1.1,0.2,1.5,0.6c0.4,0.4,0.6,0.9,0.6,1.5c0,0.6-0.2,1.1-0.6,1.5
		c-0.4,0.4-0.9,0.6-1.5,0.6h-8.8c-0.6,0-1.1,0.2-1.6,0.7l-3.3,2.8c-0.5,0.5-0.8,1.1-0.8,1.8v5c0,0.5,0.2,1,0.6,1.4l3.6,3.1
		c0.5,0.4,1.1,0.6,1.8,0.6h8.4c0.6,0,1,0.2,1.4,0.6c0.4,0.4,0.6,0.9,0.6,1.5c0,0.6-0.2,1.1-0.6,1.5
		C446.7,540.6,446.3,540.8,445.7,540.8z"/>
	<path class="st0" d="M471.6,540.8h-4.1c-1.7,0-3.1-0.6-4.4-1.8c-1.2-1.2-1.8-2.7-1.8-4.3v-13.3h-2.1c-0.6,0-1.1-0.2-1.5-0.6
		c-0.4-0.4-0.6-0.9-0.6-1.5c0-0.6,0.2-1.1,0.6-1.5c0.4-0.4,0.9-0.6,1.5-0.6h2.1v-5c0-0.6,0.2-1.1,0.6-1.5c0.4-0.4,0.9-0.6,1.5-0.6
		c0.5,0,1,0.2,1.4,0.6c0.4,0.4,0.6,0.9,0.6,1.4v5h8.3c0.6,0,1,0.2,1.4,0.6c0.4,0.4,0.6,0.9,0.6,1.4c0,0.6-0.2,1.1-0.6,1.5
		c-0.4,0.4-0.9,0.6-1.4,0.6h-8.3v13.3c0,0.6,0.2,1,0.6,1.4c0.4,0.4,0.9,0.6,1.5,0.6h4c1.1,0,1.8-0.6,2.2-1.8c0.4-1.2,1-1.8,2.1-1.8
		c0.6,0,1.1,0.2,1.5,0.6c0.4,0.4,0.6,0.9,0.6,1.5c0,1.2-0.6,2.5-1.7,3.7C474.9,540.2,473.4,540.8,471.6,540.8z"/>
	<path class="st0" d="M504,540.8h-12.5c-0.6,0-1.1-0.2-1.5-0.6c-0.4-0.4-0.6-0.9-0.6-1.5c0-0.6,0.2-1,0.6-1.4
		c0.4-0.4,0.9-0.6,1.5-0.6h4.2v-15.3h-4.2c-0.6,0-1.1-0.2-1.5-0.6c-0.4-0.4-0.6-0.9-0.6-1.4c0-0.6,0.2-1.1,0.6-1.5
		c0.4-0.4,0.9-0.6,1.5-0.6h6.3c0.6,0,1.1,0.2,1.5,0.6c0.4,0.4,0.6,0.9,0.6,1.5v17.4h4.1c0.6,0,1.1,0.2,1.5,0.6
		c0.4,0.4,0.6,0.9,0.6,1.5c0,0.6-0.2,1.1-0.6,1.5C505,540.6,504.5,540.8,504,540.8z M495.6,506.6h2.1c0.6,0,1.1,0.2,1.5,0.6
		c0.4,0.4,0.6,0.9,0.6,1.5v1.8c0,0.6-0.2,1.1-0.6,1.5c-0.4,0.4-0.9,0.6-1.5,0.6h-2.2c-0.6,0-1.1-0.2-1.5-0.6
		c-0.4-0.4-0.6-0.9-0.6-1.4l0-1.8c0-0.6,0.2-1.1,0.6-1.5C494.6,506.8,495.1,506.6,495.6,506.6z"/>
	<path class="st0" d="M538.3,519.3v3.9l-7.1,16.2c-0.5,1-1.1,1.4-1.8,1.4h-2.6c-1,0-1.7-0.5-2.1-1.5l-7.1-16.1v-4
		c0-0.6,0.2-1.1,0.6-1.5c0.4-0.4,0.9-0.6,1.5-0.6c0.6,0,1.1,0.2,1.5,0.6c0.4,0.4,0.6,0.9,0.6,1.5l0,3.1l6.2,14.1l6.2-14.1l0-3.1
		c0-0.6,0.2-1.1,0.6-1.5c0.4-0.4,0.9-0.6,1.5-0.6c0.6,0,1.1,0.2,1.5,0.6C538.1,518.3,538.3,518.8,538.3,519.3z"/>
	<path class="st0" d="M568.5,525v5c0,0.6-0.2,1-0.6,1.4c-0.4,0.4-0.9,0.6-1.4,0.6h-14.5v1.2c0,0.7,0.3,1.3,0.9,1.8l1.2,1
		c0.7,0.5,1.3,0.8,1.9,0.8h10.5c0.6,0,1,0.2,1.4,0.6c0.4,0.4,0.6,0.9,0.6,1.5c0,0.6-0.2,1-0.6,1.4c-0.4,0.4-0.9,0.6-1.4,0.6h-10.8
		c-0.7,0-1.5-0.2-2.3-0.5c-0.8-0.3-1.4-0.6-1.7-0.9l-1.8-1.6c-0.6-0.5-1-1.1-1.4-1.9c-0.4-0.8-0.6-1.6-0.6-2.2v-9.4
		c0-0.5,0.2-1.3,0.6-2.2c0.4-0.9,0.9-1.6,1.6-2.1l1.7-1.3c1.1-0.9,2.4-1.4,3.7-1.4h5.8c1.4,0,2.8,0.6,4.1,1.8l1.5,1.5
		C567.9,521.5,568.5,523,568.5,525z M552,524.7v3.2h12.5V525c0-0.8-0.2-1.4-0.7-1.8l-1.2-1c-0.6-0.5-1.2-0.8-1.7-0.8h-5.2
		c-0.6,0-1.2,0.2-1.7,0.7l-1.2,1C552.3,523.5,552,524,552,524.7z"/>
	<path class="st0" d="M614.4,526h8c0.4,0,1.1,0.1,1.9,0.3l0-2.9c0-0.6-0.2-1.1-0.6-1.5c-0.4-0.4-0.9-0.6-1.5-0.6h-7.8
		c-0.6,0-1-0.2-1.4-0.6c-0.4-0.4-0.6-0.9-0.6-1.4c0-0.6,0.2-1.1,0.6-1.5c0.4-0.4,0.9-0.6,1.5-0.6h7.8c1.7,0,3.1,0.6,4.3,1.8
		c1.2,1.2,1.8,2.6,1.9,4.4l0.5,15.4c0,0.6-0.2,1.1-0.6,1.5c-0.4,0.4-0.9,0.6-1.4,0.6c-0.6,0-1.1-0.2-1.5-0.6
		c-0.4-0.4-0.6-0.9-0.6-1.5l-3.5,2.1h-6.9c-1.7,0-3.2-0.6-4.4-1.8c-1.2-1.2-1.8-2.7-1.8-4.4v-2.4c0-1.7,0.6-3.2,1.8-4.4
		C611.2,526.6,612.6,526,614.4,526z M624.6,534l-0.1-1.7c0-0.6-0.2-1.1-0.6-1.5c-0.4-0.4-0.9-0.6-1.4-0.6h-8.1
		c-0.6,0-1.1,0.2-1.5,0.6c-0.4,0.4-0.6,0.9-0.6,1.5v2.3c0,0.6,0.2,1,0.6,1.4c0.4,0.4,0.9,0.6,1.4,0.6h5.8L624.6,534z"/>
	<path class="st0" d="M648.1,522l-5.6,3.6v13.1c0,0.6-0.2,1-0.6,1.4c-0.4,0.4-0.9,0.6-1.4,0.6c-0.6,0-1-0.2-1.4-0.6
		c-0.4-0.4-0.6-0.9-0.6-1.4v-19.5c0-0.6,0.2-1.1,0.6-1.5c0.4-0.4,0.9-0.6,1.5-0.6c0.6,0,1,0.2,1.4,0.6c0.4,0.4,0.6,0.9,0.6,1.5v1.4
		l3.7-2.3c1.3-0.8,2.7-1.2,4.3-1.2h1.9c1.6,0,3,0.6,4.2,1.7c1.2,1.2,1.8,2.6,1.9,4.3l0.6,15.6c0,0.6-0.2,1-0.6,1.4
		c-0.4,0.4-0.9,0.6-1.5,0.6c-0.5,0-1-0.2-1.4-0.5c-0.4-0.4-0.6-0.9-0.6-1.5l-0.6-15.3c0-1.4-0.8-2.1-2.3-2.1h-2
		C649.5,521.3,648.9,521.6,648.1,522z"/>
	<path class="st0" d="M685.2,540.8h-12.5c-0.6,0-1.1-0.2-1.5-0.6c-0.4-0.4-0.6-0.9-0.6-1.5c0-0.6,0.2-1,0.6-1.4
		c0.4-0.4,0.9-0.6,1.5-0.6h4.2v-15.3h-4.2c-0.6,0-1.1-0.2-1.5-0.6c-0.4-0.4-0.6-0.9-0.6-1.4c0-0.6,0.2-1.1,0.6-1.5
		c0.4-0.4,0.9-0.6,1.5-0.6h6.3c0.6,0,1.1,0.2,1.5,0.6c0.4,0.4,0.6,0.9,0.6,1.5v17.4h4.1c0.6,0,1.1,0.2,1.5,0.6
		c0.4,0.4,0.6,0.9,0.6,1.5c0,0.6-0.2,1.1-0.6,1.5C686.2,540.6,685.7,540.8,685.2,540.8z M676.8,506.6h2.1c0.6,0,1.1,0.2,1.5,0.6
		c0.4,0.4,0.6,0.9,0.6,1.5v1.8c0,0.6-0.2,1.1-0.6,1.5c-0.4,0.4-0.9,0.6-1.5,0.6h-2.2c-0.6,0-1.1-0.2-1.5-0.6
		c-0.4-0.4-0.6-0.9-0.6-1.4l0-1.8c0-0.6,0.2-1.1,0.6-1.5C675.8,506.8,676.3,506.6,676.8,506.6z"/>
	<path class="st0" d="M698.3,538.8v-19.5c0-0.6,0.2-1.1,0.6-1.5c0.4-0.4,0.9-0.6,1.5-0.6c1.1,0,1.7,0.5,2,1.6
		c1.1-1.1,2.4-1.6,3.8-1.6c1.6,0,3,0.7,4,2.1c1.3-1.4,2.7-2.1,4.3-2.1c1.3,0,2.4,0.5,3.3,1.4c0.9,0.9,1.4,2.1,1.5,3.5l0.6,16.7
		c0,0.6-0.2,1-0.6,1.4c-0.4,0.4-0.9,0.6-1.4,0.6c-0.6,0-1.1-0.2-1.5-0.6c-0.4-0.4-0.6-0.9-0.6-1.4l-0.5-16.1c0-0.9-0.3-1.3-0.8-1.3
		c-0.3,0-0.6,0.1-0.9,0.4l-2.4,2.1v15c0,0.6-0.2,1-0.6,1.4c-0.4,0.4-0.9,0.6-1.5,0.6c-0.6,0-1-0.2-1.4-0.6c-0.4-0.4-0.6-0.9-0.6-1.5
		v-16.3c0-0.7-0.3-1-0.9-1c-0.3,0-0.6,0.1-0.8,0.3l-2.9,2.5v14.6c0,0.6-0.2,1-0.6,1.4c-0.4,0.4-0.9,0.6-1.4,0.6
		c-0.6,0-1.1-0.2-1.5-0.6C698.5,539.8,698.3,539.3,698.3,538.8z"/>
	<path class="st0" d="M735.2,526h8c0.4,0,1.1,0.1,1.9,0.3l0-2.9c0-0.6-0.2-1.1-0.6-1.5c-0.4-0.4-0.9-0.6-1.5-0.6h-7.8
		c-0.6,0-1-0.2-1.4-0.6c-0.4-0.4-0.6-0.9-0.6-1.4c0-0.6,0.2-1.1,0.6-1.5c0.4-0.4,0.9-0.6,1.5-0.6h7.8c1.7,0,3.1,0.6,4.3,1.8
		c1.2,1.2,1.8,2.6,1.9,4.4l0.5,15.4c0,0.6-0.2,1.1-0.6,1.5c-0.4,0.4-0.9,0.6-1.4,0.6c-0.6,0-1.1-0.2-1.5-0.6
		c-0.4-0.4-0.6-0.9-0.6-1.5l-3.5,2.1h-6.9c-1.7,0-3.2-0.6-4.4-1.8c-1.2-1.2-1.8-2.7-1.8-4.4v-2.4c0-1.7,0.6-3.2,1.8-4.4
		C732,526.6,733.4,526,735.2,526z M745.4,534l-0.1-1.7c0-0.6-0.2-1.1-0.6-1.5c-0.4-0.4-0.9-0.6-1.4-0.6h-8.1c-0.6,0-1.1,0.2-1.5,0.6
		c-0.4,0.4-0.6,0.9-0.6,1.5v2.3c0,0.6,0.2,1,0.6,1.4c0.4,0.4,0.9,0.6,1.4,0.6h5.8L745.4,534z"/>
	<path class="st0" d="M773.6,540.8h-4.1c-1.7,0-3.1-0.6-4.4-1.8c-1.2-1.2-1.8-2.7-1.8-4.3v-13.3h-2.1c-0.6,0-1.1-0.2-1.5-0.6
		c-0.4-0.4-0.6-0.9-0.6-1.5c0-0.6,0.2-1.1,0.6-1.5c0.4-0.4,0.9-0.6,1.5-0.6h2.1v-5c0-0.6,0.2-1.1,0.6-1.5c0.4-0.4,0.9-0.6,1.5-0.6
		c0.5,0,1,0.2,1.4,0.6c0.4,0.4,0.6,0.9,0.6,1.4v5h8.3c0.6,0,1,0.2,1.4,0.6c0.4,0.4,0.6,0.9,0.6,1.4c0,0.6-0.2,1.1-0.6,1.5
		c-0.4,0.4-0.9,0.6-1.4,0.6h-8.3v13.3c0,0.6,0.2,1,0.6,1.4c0.4,0.4,0.9,0.6,1.5,0.6h4c1.1,0,1.8-0.6,2.2-1.8c0.4-1.2,1-1.8,2.1-1.8
		c0.6,0,1.1,0.2,1.5,0.6c0.4,0.4,0.6,0.9,0.6,1.5c0,1.2-0.6,2.5-1.7,3.7C776.9,540.2,775.5,540.8,773.6,540.8z"/>
	<path class="st0" d="M806,540.8h-12.5c-0.6,0-1.1-0.2-1.5-0.6c-0.4-0.4-0.6-0.9-0.6-1.5c0-0.6,0.2-1,0.6-1.4
		c0.4-0.4,0.9-0.6,1.5-0.6h4.2v-15.3h-4.2c-0.6,0-1.1-0.2-1.5-0.6c-0.4-0.4-0.6-0.9-0.6-1.4c0-0.6,0.2-1.1,0.6-1.5
		c0.4-0.4,0.9-0.6,1.5-0.6h6.3c0.6,0,1.1,0.2,1.5,0.6c0.4,0.4,0.6,0.9,0.6,1.5v17.4h4.1c0.6,0,1.1,0.2,1.5,0.6
		c0.4,0.4,0.6,0.9,0.6,1.5c0,0.6-0.2,1.1-0.6,1.5C807,540.6,806.5,540.8,806,540.8z M797.6,506.6h2.1c0.6,0,1.1,0.2,1.5,0.6
		c0.4,0.4,0.6,0.9,0.6,1.5v1.8c0,0.6-0.2,1.1-0.6,1.5c-0.4,0.4-0.9,0.6-1.5,0.6h-2.2c-0.6,0-1.1-0.2-1.5-0.6
		c-0.4-0.4-0.6-0.9-0.6-1.4l0-1.8c0-0.6,0.2-1.1,0.6-1.5C796.6,506.8,797.1,506.6,797.6,506.6z"/>
	<path class="st0" d="M840.3,524.7v8.7c0,1.8-0.9,3.5-2.6,5.1c-1.7,1.6-3.5,2.3-5.4,2.3h-4.8c-1.9,0-3.7-0.8-5.4-2.4
		c-1.7-1.6-2.6-3.3-2.6-5.1v-8.7c0-1.8,0.8-3.5,2.5-5.1c1.7-1.6,3.5-2.4,5.4-2.4h4.8c1.8,0,3.6,0.7,5.4,2.3
		C839.4,521.1,840.3,522.8,840.3,524.7z M823.7,524.8v8.3c0,0.7,0.3,1.3,0.8,1.8l1.5,1.3c0.3,0.3,0.8,0.4,1.4,0.4h4.8
		c0.7,0,1.3-0.3,1.9-0.8l1.2-1.1c0.5-0.4,0.8-0.9,0.8-1.6v-8.3c0-0.8-0.3-1.4-0.8-1.8l-1.4-1.1c-0.5-0.4-1.1-0.6-1.7-0.6H828
		c-0.9,0-1.6,0.2-2.1,0.7l-1.4,1.2C824,523.6,823.7,524.2,823.7,524.8z"/>
	<path class="st0" d="M859.5,522l-5.6,3.6v13.1c0,0.6-0.2,1-0.6,1.4c-0.4,0.4-0.9,0.6-1.4,0.6c-0.6,0-1-0.2-1.4-0.6
		c-0.4-0.4-0.6-0.9-0.6-1.4v-19.5c0-0.6,0.2-1.1,0.6-1.5c0.4-0.4,0.9-0.6,1.5-0.6c0.6,0,1,0.2,1.4,0.6c0.4,0.4,0.6,0.9,0.6,1.5v1.4
		l3.7-2.3c1.3-0.8,2.7-1.2,4.3-1.2h1.9c1.6,0,3,0.6,4.2,1.7c1.2,1.2,1.8,2.6,1.9,4.3l0.6,15.6c0,0.6-0.2,1-0.6,1.4
		c-0.4,0.4-0.9,0.6-1.5,0.6c-0.5,0-1-0.2-1.4-0.5c-0.4-0.4-0.6-0.9-0.6-1.5l-0.6-15.3c0-1.4-0.8-2.1-2.3-2.1h-2
		C860.9,521.3,860.3,521.6,859.5,522z"/>
	<path class="st0" d="M914.4,510.4v9.6l1.8-1.4c1.1-0.9,2.3-1.4,3.5-1.4h3.8c1.4,0,2.6,0.5,3.7,1.4l2,1.7c0.5,0.5,1,1.1,1.3,2
		c0.3,0.9,0.5,1.7,0.5,2.6v8.3c0,0.7-0.2,1.5-0.5,2.4c-0.3,0.8-0.7,1.4-1.1,1.8l-1.8,1.7c-0.5,0.4-1.1,0.8-2,1.2
		c-0.8,0.4-1.6,0.5-2.1,0.5H920c-1.7,0-3.6-1-5.6-2.9v0.8c0,0.6-0.2,1.1-0.6,1.5c-0.4,0.4-0.9,0.6-1.5,0.6c-0.6,0-1.1-0.2-1.5-0.6
		c-0.4-0.4-0.6-0.9-0.6-1.5v-28.3c0-0.6,0.2-1.1,0.6-1.5c0.4-0.4,0.9-0.6,1.4-0.6c0.6,0,1.1,0.2,1.5,0.6
		C914.2,509.4,914.4,509.9,914.4,510.4z M923.2,521.4h-2.8c-0.7,0-1.2,0.2-1.6,0.5l-3.7,3.1c-0.5,0.4-0.7,1.1-0.7,1.9v4.6
		c0,0.7,0.3,1.3,0.8,1.7l3.3,2.8c0.5,0.4,1,0.7,1.5,0.7h3.3c0.5,0,0.9-0.1,1.2-0.4l1.6-1.5c0.4-0.3,0.7-0.8,0.7-1.4v-8.6
		c0-0.7-0.2-1.2-0.7-1.6l-1.5-1.2C924.3,521.6,923.8,521.4,923.2,521.4z"/>
	<path class="st0" d="M961.1,524.7v8.7c0,1.8-0.9,3.5-2.6,5.1c-1.7,1.6-3.5,2.3-5.4,2.3h-4.8c-1.9,0-3.7-0.8-5.4-2.4
		c-1.7-1.6-2.6-3.3-2.6-5.1v-8.7c0-1.8,0.8-3.5,2.5-5.1c1.7-1.6,3.5-2.4,5.4-2.4h4.8c1.8,0,3.6,0.7,5.4,2.3
		C960.2,521.1,961.1,522.8,961.1,524.7z M944.5,524.8v8.3c0,0.7,0.3,1.3,0.8,1.8l1.5,1.3c0.3,0.3,0.8,0.4,1.4,0.4h4.8
		c0.7,0,1.3-0.3,1.9-0.8l1.2-1.1c0.5-0.4,0.8-0.9,0.8-1.6v-8.3c0-0.8-0.3-1.4-0.8-1.8l-1.4-1.1c-0.5-0.4-1.1-0.6-1.7-0.6h-4.2
		c-0.9,0-1.6,0.2-2.1,0.7l-1.4,1.2C944.8,523.6,944.5,524.2,944.5,524.8z"/>
	<path class="st0" d="M991.3,524.7v8.7c0,1.8-0.9,3.5-2.6,5.1c-1.7,1.6-3.5,2.3-5.4,2.3h-4.8c-1.9,0-3.7-0.8-5.4-2.4
		c-1.7-1.6-2.6-3.3-2.6-5.1v-8.7c0-1.8,0.8-3.5,2.5-5.1c1.7-1.6,3.5-2.4,5.4-2.4h4.8c1.8,0,3.6,0.7,5.4,2.3
		C990.4,521.1,991.3,522.8,991.3,524.7z M974.7,524.8v8.3c0,0.7,0.3,1.3,0.8,1.8l1.5,1.3c0.3,0.3,0.8,0.4,1.4,0.4h4.8
		c0.7,0,1.3-0.3,1.9-0.8l1.2-1.1c0.5-0.4,0.8-0.9,0.8-1.6v-8.3c0-0.8-0.3-1.4-0.8-1.8l-1.4-1.1c-0.5-0.4-1.1-0.6-1.7-0.6H979
		c-0.9,0-1.6,0.2-2.1,0.7l-1.4,1.2C975,523.6,974.7,524.2,974.7,524.8z"/>
	<path class="st0" d="M1000.8,538.8v-28.3c0-0.6,0.2-1.1,0.6-1.5c0.4-0.4,0.9-0.6,1.5-0.6c0.6,0,1.1,0.2,1.5,0.6
		c0.4,0.4,0.6,0.9,0.6,1.5v16.8l11-9.4c0.5-0.4,1-0.6,1.5-0.6c0.6,0,1.1,0.2,1.5,0.6s0.6,0.9,0.6,1.5c0,0.6-0.2,1.1-0.6,1.4
		l-8.6,7.3l10.6,9.3c0.4,0.3,0.6,0.8,0.6,1.3c0,0.5-0.2,1-0.6,1.5c-0.4,0.4-0.9,0.6-1.4,0.6c-0.6,0-1.1-0.2-1.5-0.6l-10.9-9.5
		l-2.2,1.8v6.2c0,0.6-0.2,1.1-0.6,1.5c-0.4,0.4-0.9,0.6-1.5,0.6c-0.6,0-1.1-0.2-1.5-0.6C1001,539.8,1000.8,539.4,1000.8,538.8z"/>
	<path class="st0" d="M159.4,570.4v9.6l1.8-1.4c1.1-0.9,2.3-1.4,3.5-1.4h3.8c1.4,0,2.6,0.5,3.7,1.4l2,1.7c0.5,0.5,1,1.1,1.3,2
		c0.3,0.9,0.5,1.7,0.5,2.6v8.3c0,0.7-0.2,1.5-0.5,2.4c-0.3,0.8-0.7,1.4-1.1,1.8l-1.8,1.7c-0.5,0.4-1.1,0.8-2,1.2
		c-0.8,0.4-1.6,0.5-2.1,0.5H165c-1.7,0-3.6-1-5.6-2.9v0.8c0,0.6-0.2,1.1-0.6,1.5c-0.4,0.4-0.9,0.6-1.5,0.6c-0.6,0-1.1-0.2-1.5-0.6
		c-0.4-0.4-0.6-0.9-0.6-1.5v-28.3c0-0.6,0.2-1.1,0.6-1.5c0.4-0.4,0.9-0.6,1.4-0.6c0.6,0,1.1,0.2,1.5,0.6
		C159.2,569.4,159.4,569.9,159.4,570.4z M168.2,581.4h-2.8c-0.7,0-1.2,0.2-1.6,0.5l-3.7,3.1c-0.5,0.4-0.7,1.1-0.7,1.9v4.6
		c0,0.7,0.3,1.3,0.8,1.7l3.3,2.8c0.5,0.4,1,0.7,1.5,0.7h3.3c0.5,0,0.9-0.1,1.2-0.4l1.6-1.5c0.4-0.3,0.7-0.8,0.7-1.4v-8.6
		c0-0.7-0.2-1.2-0.7-1.6l-1.5-1.2C169.3,581.6,168.8,581.4,168.2,581.4z"/>
	<path class="st0" d="M206.1,583.3l-11.1,25c-0.4,0.9-1,1.3-2,1.3h-5.7c-0.6,0-1.1-0.2-1.5-0.6s-0.6-0.9-0.6-1.5
		c0-0.6,0.2-1,0.6-1.4c0.4-0.4,0.9-0.6,1.5-0.6h4.4l2.8-6.5h-1c-0.9,0-1.6-0.5-2-1.4l-6.1-14.3v-4c0-0.6,0.2-1.1,0.6-1.5
		c0.4-0.4,0.9-0.6,1.4-0.6c0.6,0,1.1,0.2,1.5,0.6c0.4,0.4,0.6,0.9,0.6,1.5l0,3.1l5.4,12.5h1.4l5.6-12.5l0-3.1c0-0.5,0.2-1,0.6-1.4
		c0.4-0.4,0.9-0.6,1.5-0.6c0.6,0,1,0.2,1.4,0.6c0.4,0.4,0.6,0.9,0.6,1.4V583.3z"/>
	<path class="st0" d="M262.4,600.8H250c-0.6,0-1.1-0.2-1.5-0.6c-0.4-0.4-0.6-0.9-0.6-1.5c0-0.6,0.2-1,0.6-1.4
		c0.4-0.4,0.9-0.6,1.5-0.6h4.1v-24.2h-4.2c-0.6,0-1.1-0.2-1.5-0.6c-0.4-0.4-0.6-0.9-0.6-1.5c0-0.6,0.2-1.1,0.6-1.5
		c0.4-0.4,0.9-0.6,1.5-0.6h6.3c0.6,0,1,0.2,1.4,0.6c0.4,0.4,0.6,0.9,0.6,1.4v26.2h4.2c0.6,0,1,0.2,1.4,0.6c0.4,0.4,0.6,0.9,0.6,1.4
		c0,0.6-0.2,1.1-0.6,1.5C263.4,600.6,263,600.8,262.4,600.8z"/>
	<path class="st0" d="M292.6,600.8h-12.5c-0.6,0-1.1-0.2-1.5-0.6c-0.4-0.4-0.6-0.9-0.6-1.5c0-0.6,0.2-1,0.6-1.4
		c0.4-0.4,0.9-0.6,1.5-0.6h4.2v-15.3h-4.2c-0.6,0-1.1-0.2-1.5-0.6c-0.4-0.4-0.6-0.9-0.6-1.4c0-0.6,0.2-1.1,0.6-1.5
		c0.4-0.4,0.9-0.6,1.5-0.6h6.3c0.6,0,1.1,0.2,1.5,0.6c0.4,0.4,0.6,0.9,0.6,1.5v17.4h4.1c0.6,0,1.1,0.2,1.5,0.6
		c0.4,0.4,0.6,0.9,0.6,1.5c0,0.6-0.2,1.1-0.6,1.5C293.6,600.6,293.1,600.8,292.6,600.8z M284.2,566.6h2.1c0.6,0,1.1,0.2,1.5,0.6
		c0.4,0.4,0.6,0.9,0.6,1.5v1.8c0,0.6-0.2,1.1-0.6,1.5c-0.4,0.4-0.9,0.6-1.5,0.6h-2.2c-0.6,0-1.1-0.2-1.5-0.6
		c-0.4-0.4-0.6-0.9-0.6-1.4l0-1.8c0-0.6,0.2-1.1,0.6-1.5C283.2,566.8,283.7,566.6,284.2,566.6z"/>
	<path class="st0" d="M312,577.3h9.4c1.5,0,2.8,0.4,3.9,1.3c1.1,0.9,1.7,1.7,1.7,2.6c0,0.6-0.2,1.1-0.6,1.4
		c-0.4,0.4-0.9,0.6-1.4,0.6c-0.7,0-1.2-0.3-1.8-0.9s-1.1-0.9-1.7-0.9h-9.3c-0.9,0-1.4,0.4-1.4,1.1c0,0.5,0.3,0.9,0.9,1.2l10.9,4.9
		c1.1,0.5,2,1.3,2.7,2.4c0.7,1.1,1.1,2.3,1.1,3.6c0,1.8-0.6,3.2-1.9,4.5s-2.7,1.8-4.2,1.8H312c-1.4,0-2.8-0.4-4-1.3
		c-1.2-0.9-1.8-1.7-1.8-2.5c0-0.5,0.2-1,0.6-1.4c0.4-0.4,0.9-0.6,1.6-0.6c0.5,0,1.1,0.3,1.7,0.9c0.6,0.6,1.5,0.9,2.6,0.9h7.6
		c0.6,0,1.1-0.2,1.5-0.7c0.4-0.5,0.6-1,0.6-1.6c0-0.9-0.5-1.6-1.4-2l-11-5c-1.1-0.5-1.9-1.2-2.4-2.1c-0.6-0.9-0.9-1.8-0.9-2.7
		c0-1.5,0.5-2.7,1.5-3.8C309.2,577.8,310.5,577.3,312,577.3z"/>
	<path class="st0" d="M346.1,582l-5.6,3.6v13.1c0,0.6-0.2,1-0.6,1.4c-0.4,0.4-0.9,0.6-1.4,0.6c-0.6,0-1-0.2-1.4-0.6
		c-0.4-0.4-0.6-0.9-0.6-1.4v-19.5c0-0.6,0.2-1.1,0.6-1.5c0.4-0.4,0.9-0.6,1.5-0.6c0.6,0,1,0.2,1.4,0.6c0.4,0.4,0.6,0.9,0.6,1.5v1.4
		l3.7-2.3c1.3-0.8,2.7-1.2,4.3-1.2h1.9c1.6,0,3,0.6,4.2,1.7c1.2,1.2,1.8,2.6,1.9,4.3l0.6,15.6c0,0.6-0.2,1-0.6,1.4
		c-0.4,0.4-0.9,0.6-1.5,0.6c-0.5,0-1-0.2-1.4-0.5c-0.4-0.4-0.6-0.9-0.6-1.5l-0.6-15.3c0-1.4-0.8-2.1-2.3-2.1h-2
		C347.5,581.3,346.9,581.6,346.1,582z"/>
	<path class="st0" d="M372.8,586h8c0.4,0,1.1,0.1,1.9,0.3l0-2.9c0-0.6-0.2-1.1-0.6-1.5c-0.4-0.4-0.9-0.6-1.5-0.6h-7.8
		c-0.6,0-1-0.2-1.4-0.6c-0.4-0.4-0.6-0.9-0.6-1.4c0-0.6,0.2-1.1,0.6-1.5c0.4-0.4,0.9-0.6,1.5-0.6h7.8c1.7,0,3.1,0.6,4.3,1.8
		c1.2,1.2,1.8,2.6,1.9,4.4l0.5,15.4c0,0.6-0.2,1.1-0.6,1.5c-0.4,0.4-0.9,0.6-1.4,0.6c-0.6,0-1.1-0.2-1.5-0.6
		c-0.4-0.4-0.6-0.9-0.6-1.5l-3.5,2.1h-6.9c-1.7,0-3.2-0.6-4.4-1.8c-1.2-1.2-1.8-2.7-1.8-4.4v-2.4c0-1.7,0.6-3.2,1.8-4.4
		C369.6,586.6,371,586,372.8,586z M383,594l-0.1-1.7c0-0.6-0.2-1.1-0.6-1.5c-0.4-0.4-0.9-0.6-1.4-0.6h-8.1c-0.6,0-1.1,0.2-1.5,0.6
		c-0.4,0.4-0.6,0.9-0.6,1.5v2.3c0,0.6,0.2,1,0.6,1.4c0.4,0.4,0.9,0.6,1.4,0.6h5.8L383,594z"/>
</g>
</svg>
