<?xml version="1.0" encoding="utf-8"?>
<!-- Generator: Adobe Illustrator 21.1.0, SVG Export Plug-In . SVG Version: 6.00 Build 0)  -->
<svg version="1.1" id="Layer_1" xmlns="http://www.w3.org/2000/svg" xmlns:xlink="http://www.w3.org/1999/xlink" x="0px" y="0px"
	 viewBox="0 0 800 400" style="enable-background:new 0 0 800 400;" xml:space="preserve">
<style type="text/css">
	.st0{fill:#9D005D;stroke:#FFFFFF;stroke-miterlimit:10;}
	.st1{fill:#1B1464;}
	.st2{fill:#CCCC33;}
	.st3{fill:none;stroke:#FFFFFF;stroke-miterlimit:10;}
	.st4{fill:none;stroke:#FFFFFF;stroke-width:10;stroke-miterlimit:10;}
	.st5{fill:#1B1464;stroke:#FFFFFF;stroke-miterlimit:10;}
	.st6{fill:none;stroke:#000000;stroke-miterlimit:10;}
</style>
<rect x="-8" y="-5.5" class="st0" width="816.9" height="405.5"/>
<g id="XMLID_2_">
	
		<image style="overflow:visible;opacity:0.75;" width="646" height="395" xlink:href="FDD41509.png"  transform="matrix(1 0 0 1 74 141)">
	</image>
	<g>
		<g>
			<g>
				<path class="st1" d="M364.8,280.6c0.6,0.1,1.3,0.2,2.1,0.1c5.1,3.9,8.2,6.1,10.1,7c0.4,0.2,1.3,0.6,1.9,1.1c0,0,0,0,0.1,0.1
					c0.3,0.3,0.4,0.6,0.5,1c0.1,0.9-0.8,1.4-0.7,2.5c0.1,0.7,0.4,1.1,0.8,1.5c0.1,0.1,0.2,0.2,0.2,0.2c0,0,0,0.1,0.1,0.1
					c0.6,0.4,1.5,0.9,2.7,0.9c1.3,0,1.9-0.6,2.8-0.7c1-0.1,2.3,0.2,4.4,2c0.2,0.2,0.5,0.4,0.7,0.7c2.2,5.6,4.3,9,6.1,11
					c0.3,0.4,0.7,0.7,1,1c0.8,0.8,1.6,1.2,2.3,1.5c0.5,0.2,2.8,1.2,5.5,2.8c1.4,0.9,2.4,1.7,3.1,2.2c-0.7,1.6-0.3,2.7,0.2,3.3
					c0.1,0.1,0.2,0.3,0.3,0.4c0.1,0.1,0.1,0.1,0.2,0.2c1.1,1,2.8,1.6,4.3,2.9c0.2,0.2,0.5,0.4,0.6,0.7c0.1,0.2,0.2,0.3,0.4,0.5
					c0.2,0.3,0.3,0.5,0.4,0.6c0,0,0,0,0,0c0,0,0.1,0.1,0.1,0.1c1.5,0.9,4.6,2.5,9.1,3.2c4,0.7,7.4,0.3,9.3,0
					c-1.8,2.1-4.4,5.8-4.6,10.5c-0.1,1.3-0.3,6.6,3.8,11.4c0.2,0.2,0.4,0.5,0.6,0.7c0.6,0.6,1.2,1.3,1.9,2c0.7,0.8,1.5,1.7,2.3,2.9
					c0,0,0.1,0.2,0.4,0.5c0,0.1,0.1,0.2,0.2,0.3c0.1,0.2,0.2,0.4,0.4,0.6c0.1,0.1,0.2,0.3,0.2,0.4c0.1,0.1,0.1,0.3,0.2,0.4
					c3,5.3,4.8,19.8,5.6,24.1c0.9,4.7,3.4,11,10.7,18.1c0.2,0.2,0.4,0.4,0.6,0.6c0,0,0.1,0.1,0.1,0.1H525h174.8c0,38.5,0,77,0,115.5
					h-605V364.1c18.5-13.5,113.7-80.6,267.2-89.8l0.2,2.7c0,0,0.1,0,0.1,0.1v0c1.1,0.9,2.1,1.7,3,2.4
					C365.2,279.9,365,280.3,364.8,280.6z M289.7,317.4c0.6-1.4-0.8-2.8-2.1-4c-5.2-4.8-10.8-9.9-17.7-9.5c-2,0.2-5.6,0.8-8.3,1.5
					c-1.6,0.4-3,0.8-5.2,0.9c-2.5,0.1-3-0.3-4.7-0.3c-4.7,0.1-6.1,3.6-9.3,3.3c-2.1-0.2-2.5-1.7-6-4.5c-0.6-0.5-1.1-0.9-1.7-1.3
					c-0.6-0.4-1.1-0.7-1.6-1c-18.4,3.9-41.9,10.7-67.6,23c-24.1,11.5-43.2,24.6-57.4,35.9c0.9,0.3,1.9,0.6,2.9,0.9
					c1.8,0.5,3.7,0.9,5.8,1.2c1.5,0.2,3.1,0.4,4.7,0.4c7.8,0.3,13.8-1.5,15.5-2c3.3-1.1,6.1-2.4,8.4-3.8c6.4-3.8,9.8-8.1,13.9-8.8
					c0.9-0.2,1.8-0.1,2.7,0.1c0.9,0.2,1.7,0.5,2.3,1c0.2,0.1,0.4,0.3,0.6,0.5h0c2.2,1.9,3.3,4.9,7.5,7.3c0.2,0.1,0.4,0.2,0.6,0.3
					c6.6,3.4,14.1,2,19.3,0.4c8.6,1.4,15.6,1.9,19.7,1.8c4-0.1,6.5-0.5,6.5-0.5c1.8-0.3,2.2-0.5,4.7-0.8c2.3-0.3,2.9-0.3,4.7-0.6
					c2.4-0.4,3.2-0.8,4.5-1c4.6-0.9,6.2,1.5,10.8,1c3.9-0.4,8.4-2.7,8.7-4.8c0.1-0.6-0.2-1.4,0.7-2.3c0.7-0.7,1.5-1,2.2-1.1v0.1
					c0.4-0.1,1.1-0.3,1.9-0.5c0.1,0,0.3-0.1,0.4-0.1c2.7-0.8,3.1-1.4,4.7-1.9c3.1-1,4.7,0.3,7.7-0.6c1.8-0.6,3-1.5,3.7-2.3
					c0.8-0.4,1.8-0.9,2-1.7c0.2-1.1-1.6-1.6-2-3c-0.4-1.6,1.4-3.1,2.7-4.1c2.5-2,4-1.6,5-3c1.3-1.9-1.1-2.9-1-5.9
					c0.1-2.7,2.4-5.7,5.5-7.5C287.5,318.8,289.2,318.7,289.7,317.4z"/>
				<path class="st1" d="M699.8,364.1c0,12,0,23.9,0,35.9H525c-0.5-0.8-1-1.5-1.6-2.1c-0.3-0.3-0.5-0.7-0.8-1
					c-7.6-9.8-13.7-11.9-18.1-11.7c-4.1,0.2-7,2.4-13.3,1.7c-2.5-0.2-6.8-0.8-9.4-2.9c-0.1-0.1-0.2-0.2-0.3-0.3
					c-0.2-0.1-0.3-0.3-0.5-0.5c-0.3-0.3-0.5-0.6-0.7-1c-3-5.1,5.2-10.8,3.7-21.9c-0.2-1.5-0.6-3.9-1.7-5.4c-0.1-0.1-0.1-0.2-0.2-0.3
					c-0.1-0.1-0.2-0.2-0.3-0.3c-0.3-0.2-0.5-0.4-0.9-0.6c-0.8-0.3-2.4-0.5-11,4.4c-5.4,3.1-6,3.9-7.7,3.7c-3.6-0.5-3.8-4.7-8-5.7
					c-3.5-0.9-4.7,1.7-8.3,1c-1.7-0.3-3.3-1.2-4.6-2.4c-0.2-0.2-0.3-0.3-0.5-0.5c-1.9-2-3-4.6-2.4-6.2c0.9-2.5,5.4-2.3,5.7-4.7
					c0.1-0.6-0.1-1.4-0.5-1.9c0,0-0.1-0.1-0.1-0.1c-0.2-0.2-0.4-0.3-0.6-0.4c-1.8-0.5-3.8,2.6-6,2.3c-0.5-0.1-0.9-0.3-1.3-0.7
					c-1.4-1.4-2.1-4.5-1.9-7c0.4-4.4,3.9-6.9,4.5-7.3h0.1c5.4-0.4,10.9-0.3,16.3,0.5c7.7,1.1,14.4,3.8,22.6,2.9
					c9.9-1,19.8-3.6,29.5-5.6V326c7.2-4.7,14.1-6.8,19.8-7.7c6.3-1,6.8,0.1,16.7-1.1c8.8-1.1,15.3-1.9,21.2-5.1
					c2.1-1.1,3-1.9,5.5-2.6c4.8-1.2,14.6-1.6,18.1-0.6l0.8-2.2c25.3,9.2,46.7,19.2,63.8,28.3c0,0,0,0,0,0c6.6,3.5,12.6,6.9,17.9,10
					c1.1,0.6,2.1,1.3,3.1,1.9c2,1.2,3.9,2.4,5.8,3.5c0.9,0.6,1.8,1.1,2.7,1.7c1.3,0.8,2.5,1.6,3.7,2.4
					C692.5,358.8,697.1,362.1,699.8,364.1z"/>
				<path class="st2" d="M401.8,279.5h0.4c0,0.1,4.1,1.2,5.1,0.1c0.5-0.5,0.1-1.1,0.5-1.5c0.7-0.7,2.3,0.3,3.9,0.8
					c4,1.2,8.7-0.1,8.9-1.5c0.1-0.4-0.3-0.9-0.6-1.2c-0.7-0.5-1.4,0.2-3.2,0c0,0-0.9-0.1-1.7-0.5c-0.2-0.1-0.4-0.2-0.4-0.2
					c-0.2-0.1-0.3-0.2-0.4-0.3c-0.1-0.1-0.2-0.2-0.2-0.2c-0.4-0.4-1.2-0.8-1.2-0.8c-0.2-0.1-0.8-0.4-1.4-0.8
					c30.7,0.7,59.2,3.9,85.5,8.5c1.1,0.2,2.3,0.4,3.4,0.6c1.9,0.4,3.8,0.7,5.7,1.1c1.1,0.2,2.2,0.4,3.3,0.6c1,0.2,2,0.4,3,0.6
					c1,0.2,2,0.4,2.9,0.6c11.6,2.5,22.8,5.2,33.4,8.2c0.9,0.2,1.8,0.5,2.7,0.8c13.3,3.8,25.8,7.9,37.5,12.1l-0.8,2.2
					c-3.5-1-13.3-0.6-18.1,0.6c-2.5,0.7-3.4,1.5-5.5,2.6c-5.9,3.2-12.4,4-21.2,5.1c-9.9,1.2-10.4,0.1-16.7,1.1
					c-5.7,0.9-12.6,3-19.8,7.7v0.2c-9.7,2-19.6,4.6-29.5,5.6c-8.2,0.9-14.9-1.8-22.6-2.9c-5.4-0.8-10.9-0.9-16.3-0.5h-0.1
					c-0.6,0.4-4.1,2.9-4.5,7.3c-0.2,2.6,0.6,5.7,2,7.1c0.4,0.4,0.9,0.7,1.4,0.8c2.2,0.3,4.2-2.8,6-2.3c0.2,0.1,0.4,0.2,0.5,0.3
					c0.1,0,0.1,0.1,0.1,0.1c0.4,0.5,0.5,1.2,0.4,1.8c-0.3,2.4-4.8,2.2-5.7,4.7c-0.6,1.7,0.5,4.3,2.5,6.3c0.2,0.2,0.3,0.3,0.5,0.5
					c1.3,1.2,2.9,2.2,4.7,2.5c3.6,0.7,4.8-1.9,8.3-1c4.2,1.1,4.4,5.2,8,5.7c1.7,0.2,2.4-0.6,7.7-3.7c8.6-5,10.1-4.8,11-4.4
					c0.3,0.1,0.5,0.3,0.8,0.5c0.1,0.1,0.2,0.2,0.3,0.3c0.1,0.1,0.2,0.2,0.2,0.3c1.1,1.5,1.4,3.7,1.6,5.3c1.5,11.2-6.7,16.8-3.7,21.9
					c0.2,0.4,0.5,0.7,0.8,1.1c0.1,0.2,0.3,0.3,0.5,0.5c0.1,0.1,0.2,0.2,0.3,0.3c2.7,2.2,7,2.7,9.5,3c6.2,0.7,9.1-1.5,13.3-1.7
					c4.3-0.2,10.3,1.9,18,11.6c0.3,0.3,0.5,0.7,0.8,1c0.5,0.7,1,1.3,1.5,2h-69.3c-0.2-0.2-0.4-0.4-0.6-0.6c-7.1-7-9.6-13.4-10.6-18
					c-0.9-4.3-2.6-18.8-5.6-24.1c-0.1-0.2-0.2-0.3-0.3-0.5c-0.1-0.1-0.2-0.3-0.2-0.4c-0.1-0.2-0.3-0.4-0.4-0.6
					c-0.1-0.1-0.1-0.2-0.2-0.3c-0.2-0.3-0.3-0.4-0.3-0.4c-0.9-1.3-1.6-2.2-2.4-3c-0.7-0.7-1.3-1.4-1.9-2c-0.2-0.2-0.4-0.4-0.5-0.6
					c-4.1-4.8-3.9-10.1-3.8-11.4c0.2-4.8,2.9-8.5,4.7-10.6c-0.1,0-0.1,0-0.2,0c0,0,0.1-0.1,0.1-0.1c-1.8,0.3-5.3,0.7-9.5,0
					c-4.5-0.7-7.6-2.3-9.1-3.2c-0.1-0.1-0.2-0.3-0.3-0.5c-0.1-0.2-0.3-0.4-0.5-0.6c-0.2-0.2-0.4-0.5-0.6-0.7
					c-1.4-1.3-3.2-1.9-4.3-2.9c-0.1-0.1-0.1-0.1-0.2-0.2c-0.1-0.1-0.2-0.2-0.2-0.3c-0.5-0.6-0.9-1.7-0.2-3.3c0,0-0.1-0.1-0.1-0.1
					c0,0,0,0,0,0c-0.7-0.5-1.7-1.4-3.2-2.3c-2.7-1.6-5-2.6-5.5-2.8c-0.7-0.3-1.4-0.7-2.2-1.4c-0.3-0.3-0.6-0.6-1-1
					c-1.8-2-3.8-5.4-6-10.9c0,0-0.1-0.1-0.1-0.1c-0.3-0.3-0.5-0.5-0.7-0.7c-2.1-1.9-3.5-2.2-4.5-2.1c-0.9,0.1-1.5,0.7-2.8,0.7
					c-1.2,0-2.1-0.5-2.7-0.9c-0.1-0.1-0.2-0.1-0.2-0.2c-0.3-0.4-0.6-0.8-0.7-1.4c-0.1-1.1,0.8-1.6,0.7-2.5c0-0.4-0.3-0.8-0.6-1.1
					c0,0,0,0-0.1-0.1c-0.6-0.6-1.5-1-2-1.2c-1.9-0.9-5-3-10-6.9c0.3,0,0.7-0.1,1.1-0.2c1.5-0.4,1.4-1,2.5-1.2c1.7-0.3,2.3,1,5.4,1.6
					c0.8,0.1,1.3,0.2,1.8,0.2c1.5,0.1,3.4,0.1,5.5-0.4c0.1-0.3,0.2-0.8,0-1.4c-0.7-1.9-3.8-1.5-6.6-3.4c-0.6-0.4-1.4-1.1-2.2-2.2
					c5.1-0.2,10.2-0.4,15.4-0.4c4.1,0,8.1-0.1,12.1,0C401.8,275.3,401.8,277.4,401.8,279.5z"/>
				<path class="st2" d="M515.2,285.5c-1-0.2-2-0.4-2.9-0.6C513.3,285.1,514.3,285.3,515.2,285.5z"/>
				<path class="st2" d="M512.3,284.9c-1-0.2-2-0.4-3-0.6C510.4,284.5,511.3,284.7,512.3,284.9z"/>
				<path class="st2" d="M522.7,396.9c-7.7-9.7-13.7-11.8-18-11.6c-4.2,0.2-7.1,2.4-13.3,1.7c-2.5-0.3-6.9-0.8-9.5-3
					c2.7,2.2,6.9,2.7,9.4,2.9c6.3,0.7,9.2-1.5,13.3-1.7C509,385,515,387.1,522.7,396.9z"/>
				<path class="st2" d="M506.1,283.6c-1.9-0.4-3.8-0.7-5.7-1.1C502.3,282.9,504.2,283.3,506.1,283.6z"/>
				<path class="st2" d="M482.1,354.8c-0.1-0.1-0.2-0.2-0.3-0.3C482,354.6,482,354.6,482.1,354.8z"/>
				<path class="st2" d="M481.6,383.7c0.1,0.1,0.2,0.2,0.3,0.3C481.8,383.9,481.7,383.8,481.6,383.7z"/>
				<path class="st2" d="M481.9,354.5c-0.2-0.2-0.5-0.4-0.8-0.5c-0.9-0.4-2.4-0.6-11,4.4c-5.3,3.1-6,3.9-7.7,3.7
					c-3.6-0.5-3.8-4.6-8-5.7c-3.5-0.9-4.7,1.7-8.3,1c-1.7-0.3-3.4-1.3-4.7-2.5c1.3,1.2,2.9,2.1,4.6,2.4c3.6,0.7,4.8-1.9,8.3-1
					c4.2,1,4.4,5.2,8,5.7c1.7,0.2,2.3-0.6,7.7-3.7c8.6-4.9,10.2-4.7,11-4.4C481.3,354,481.6,354.2,481.9,354.5z"/>
				<path class="st2" d="M444.4,381.3c1,4.7,3.4,11,10.6,18c-7.3-7.1-9.8-13.5-10.7-18.1c-0.8-4.3-2.6-18.8-5.6-24.1
					c-0.1-0.1-0.2-0.3-0.2-0.4c0.1,0.2,0.2,0.3,0.3,0.5C441.8,362.5,443.5,377,444.4,381.3z"/>
				<path class="st2" d="M443.6,341.5c-0.1-0.1-0.3-0.2-0.5-0.3c-1.8-0.5-3.8,2.6-6,2.3c-0.5-0.1-1-0.4-1.4-0.8
					c0.4,0.4,0.8,0.6,1.3,0.7c2.2,0.3,4.2-2.8,6-2.3C443.3,341.2,443.5,341.3,443.6,341.5z"/>
				<path class="st2" d="M437.4,355c0,0,0.1,0.2,0.3,0.4c-0.2-0.3-0.4-0.5-0.4-0.5c-0.8-1.2-1.6-2.1-2.3-2.9
					C435.8,352.8,436.5,353.7,437.4,355z"/>
				<path class="st2" d="M433.3,327.4c0.1,0,0.1,0,0.2,0c-1.8,2.1-4.5,5.8-4.7,10.6c-0.1,1.3-0.3,6.6,3.8,11.4
					c0.2,0.2,0.4,0.4,0.5,0.6c-0.2-0.2-0.4-0.4-0.6-0.7c-4.1-4.8-3.9-10.1-3.8-11.4C428.9,333.2,431.5,329.6,433.3,327.4z"/>
				<path d="M399.9,225.8c1.4,2.3,2.1,4.3,2.4,5.7c0.2,1,0.5,2.4,1.1,4.6c0.3,1,0.5,1.6,0.7,2.2c0.3,0.8,0.5,1.3,0.8,2.2
					c0,0,0.2,0.6,0.3,1.3c0.5,2.3,0.5,5.9-0.1,6c-0.1,0.1-0.2-0.1-0.3-0.1c-0.4,0.1,0.7,4.2,1.5,7.4c1.9,7.5,1.9,9.6,2.6,11.4
					c0,0,0.3,0.6,0.7,2.9c0,0.1,0.1,0.4,0,0.7c0,0.2-0.1,0.2-0.1,0.4c-0.1,0.2-0.1,0.5-0.1,0.8c0,0,0.1,0.2,0.2,0.5
					c0.2,0.5,1,1.1,1.8,1.6c-3.1-0.1-6.3-0.1-9.5-0.2c0-1.1,0-2.3,0-3.4c-1.3-2.8-2.7-6.3-3.8-10.4c-1.2-4.7-1.7-8.9-1.9-12.4
					c-2.2-4-4.5-8-6.8-12c-3.9,6.7-7.7,13.5-11.6,20.2l-2.8,9.3l-1.5,7.5c0.3,0.6,0.6,1.1,0.9,1.6c-2.6,0.1-5.1,0.2-7.6,0.4
					c0-0.1,0-0.2,0-0.3c0.2-2,0.1-3.7,0-5.1c1.7-1.1,0.6-4.4,1.1-9.8c0.2-1.6,0.4-3.5,1.3-5.8c1-2.5,1.9-3.2,3.3-5.4
					c1.4-2.2,2-4.6,3.3-9.4c1.8-6.8,1.1-7.6,2.6-9.8c0.4-0.5,1.2-1.6,1.3-3.1c0-0.2,0-2.4-1.6-3.3c-0.6-0.3-1.1-0.3-1.5-0.3
					l-0.2,0.3c0,1-0.3,3-1.7,4.9c-1.3,1.6-3.9,3.7-5.4,2.8c-1.1-0.7-1.4-2.8-0.7-5.2c1.5-1.4,2.4-2.7,2.7-3.4
					c0.2-0.6,0.4-1.5,0.4-1.5c0.3-1.1,0.2-1.6,0.3-3.5c0.1-1.8,0.3-3,0.6-5.3c0.9-5.8,3-13.7,3.9-16.8c0.8-2.9,1.9-6.6,3.3-10.9
					l-0.1,0c1.2-2.1,2.5-3.4,3.4-4.1c1.3-1,2.1-1.1,2.8-2.1c1.2-1.5,1-3.5,0.8-4.9c-2.5-3.1-2.9-7.3-1-10.6c1.6-2.8,5-5,8.8-4.5
					c4.7,0.7,6.7,5.1,6.8,5.4c0.5,1,1.1,2.6,1.1,4.5c0,1.3-0.3,1.9-0.7,3.5c-1.2,5.2,0,7.3-1.7,8.7c-1.2,1-2.7-0.1-3.3,0.8
					c-0.8,1,0.4,3,1,4.3c3.1,6.6-0.7,10.6,2.2,15.8c1,1.9,1.2,0.6,5.7,5.2c3.8,3.9,4.4,5.4,7.2,6.8c2.4,1.2,2.9,0.6,5.3,2
					c1.7,1,4.6,2.7,4.7,5.3c0.1,1.2-0.4,3-1.7,3.5c-1.7,0.8-3.2-1.7-8.3-3.5c-2.4-0.8-2.4-0.4-3.8-1.1c-2.4-1.2-3-2.7-5.7-4.4
					c-1.3-0.8-2.5-1.3-3.3-1.5L399.9,225.8L399.9,225.8z"/>
				<path d="M402.2,279.5h-0.4c0-2.1,0-4.2,0.1-6.2c3.2,0,6.4,0.1,9.6,0.2c0.6,0.4,1.2,0.7,1.4,0.8c0,0,0.8,0.4,1.2,0.8
					c0,0,0.1,0.1,0.2,0.2c0.1,0.1,0.2,0.2,0.4,0.3c0,0,0.2,0.1,0.4,0.2c0.8,0.4,1.7,0.5,1.7,0.5c1.8,0.2,2.5-0.5,3.2,0
					c0.3,0.3,0.7,0.8,0.6,1.2c-0.2,1.4-4.9,2.7-8.9,1.5c-1.6-0.5-3.2-1.5-3.9-0.8c-0.4,0.4,0,1-0.5,1.5
					C406.3,280.6,402.2,279.6,402.2,279.5z"/>
				<path class="st2" d="M414.8,324.1C414.8,324.1,414.8,324.1,414.8,324.1c-0.1-0.1-0.2-0.3-0.4-0.6c-0.1-0.2-0.2-0.3-0.4-0.5
					c0.2,0.2,0.3,0.4,0.5,0.6C414.6,323.8,414.7,324,414.8,324.1z"/>
				<path class="st2" d="M411.4,273.4c30.7,0.8,59.3,3.9,85.7,8.6c-26.3-4.7-54.9-7.8-85.5-8.5C411.4,273.4,411.4,273.4,411.4,273.4
					z"/>
				<path class="st2" d="M411.4,273.4c0,0,0.1,0,0.1,0.1c-3.2-0.1-6.4-0.1-9.6-0.2c0,0,0-0.1,0-0.1
					C405.1,273.2,408.2,273.3,411.4,273.4z"/>
				<path class="st2" d="M408.7,319c0.1,0.1,0.2,0.2,0.2,0.3c-0.1-0.1-0.2-0.3-0.3-0.4c-0.5-0.6-0.9-1.7-0.2-3.3
					c0,0,0.1,0.1,0.1,0.1C407.8,317.3,408.2,318.4,408.7,319z"/>
				<path class="st2" d="M401.9,273.2C401.9,273.2,401.9,273.2,401.9,273.2c-4,0-8,0.1-12.1,0.1c-5.2,0.1-10.3,0.2-15.4,0.4
					c0,0,0-0.1-0.1-0.1c5-0.2,10.2-0.4,15.3-0.4C393.8,273.1,397.9,273.1,401.9,273.2z"/>
				<path class="st2" d="M390.5,297.2c2.2,5.5,4.2,8.9,6,10.9c-1.8-2-3.9-5.4-6.1-11C390.4,297.1,390.5,297.2,390.5,297.2z"/>
				<path d="M383.2,279.3c0.2,0.6,0.1,1.1,0,1.4c-2.2,0.5-4,0.5-5.5,0.4c-0.5,0-1-0.1-1.8-0.2c-3.1-0.6-3.7-1.8-5.4-1.6
					c-1.1,0.2-1,0.7-2.5,1.2c-0.4,0.1-0.7,0.2-1.1,0.2c-0.5-0.4-1-0.8-1.6-1.2c0.6-1.4,1.2-3.3,1.4-5.4c2.5-0.1,5.1-0.3,7.7-0.4
					c0.8,1.1,1.5,1.8,2.2,2.2C379.4,277.8,382.5,277.4,383.2,279.3z"/>
				<path class="st2" d="M379.5,290c0.1,0.9-0.8,1.4-0.7,2.5c0.1,0.6,0.4,1,0.7,1.4c-0.3-0.4-0.7-0.8-0.8-1.5
					c-0.1-1.1,0.8-1.6,0.7-2.5c0-0.4-0.2-0.7-0.5-1C379.2,289.2,379.5,289.6,379.5,290z"/>
				<path class="st2" d="M374.4,273.6c0,0,0,0.1,0.1,0.1c-2.6,0.1-5.1,0.2-7.7,0.4c0,0,0-0.1,0-0.1
					C369.3,273.8,371.8,273.7,374.4,273.6z"/>
				<path class="st2" d="M366.8,274c0,0,0,0.1,0,0.1c-1.6,0.1-3.1,0.1-4.7,0.2c0,0-0.1,0-0.1,0l0-0.1
					C363.6,274.1,365.2,274,366.8,274z"/>
				<path class="st1" d="M366.9,280.7c-0.8,0.1-1.5,0-2.1-0.1c0.2-0.3,0.3-0.7,0.5-1.1C365.9,279.9,366.4,280.3,366.9,280.7z"/>
				<path class="st2" d="M362.1,274.3c1.5-0.1,3.1-0.2,4.7-0.2c-0.3,2.2-0.9,4-1.4,5.4c-0.9-0.7-2-1.5-3-2.4L362.1,274.3z"/>
				<path class="st2" d="M362.1,274.3l0.2,2.8c0,0-0.1,0-0.1-0.1L362.1,274.3C362,274.3,362.1,274.3,362.1,274.3z"/>
				<path class="st2" d="M287.6,313.4c1.3,1.2,2.7,2.6,2.1,4c-0.5,1.3-2.2,1.4-4.3,2.7c-3.1,1.8-5.4,4.8-5.5,7.5c-0.1,3,2.3,4,1,5.9
					c-1,1.4-2.5,1-5,3c-1.3,1-3.1,2.5-2.7,4.1c0.4,1.4,2.2,1.9,2,3c-0.2,0.8-1.2,1.3-2,1.7c-0.7,0.8-1.9,1.7-3.7,2.3
					c-3,0.9-4.6-0.4-7.7,0.6c-1.6,0.5-2,1.1-4.7,1.9c-0.1,0-0.3,0.1-0.4,0.1c-0.8,0.2-1.5,0.4-1.9,0.4c-0.7,0.1-1.5,0.4-2.2,1.1
					c-0.9,0.9-0.6,1.7-0.7,2.3c-0.3,2.1-4.8,4.4-8.7,4.8c-4.6,0.5-6.2-1.9-10.8-1c-1.3,0.2-2.1,0.6-4.5,1c-1.8,0.3-2.4,0.3-4.7,0.6
					c-2.5,0.3-2.9,0.5-4.7,0.8c0,0-2.5,0.4-6.5,0.5c-4.1,0.1-11.1-0.4-19.7-1.8c-5.2,1.6-12.7,3-19.3-0.4c-0.2-0.1-0.4-0.2-0.6-0.3
					c-4.2-2.4-5.3-5.4-7.5-7.3h0c-0.2-0.2-0.4-0.3-0.6-0.5c-0.6-0.4-1.4-0.8-2.3-1c-1-0.2-1.9-0.2-2.7-0.1c-4.1,0.7-7.5,5-13.9,8.8
					c-2.3,1.4-5.1,2.7-8.4,3.8c-1.7,0.5-7.7,2.3-15.5,2c-1.6-0.1-3.2-0.2-4.7-0.4c-2.1-0.3-4-0.7-5.8-1.2c-1-0.3-2-0.6-2.9-0.9
					c14.2-11.3,33.3-24.4,57.4-35.9c25.7-12.3,49.2-19.1,67.6-23c0.5,0.3,1,0.6,1.6,1c0.5,0.4,1.1,0.8,1.7,1.3
					c3.5,2.8,3.9,4.3,6,4.5c3.2,0.3,4.6-3.2,9.3-3.3c1.7,0,2.2,0.4,4.7,0.3c2.2-0.1,3.6-0.5,5.2-0.9c2.7-0.7,6.3-1.3,8.3-1.5
					C276.8,303.5,282.4,308.6,287.6,313.4z"/>
				<path class="st2" d="M164.9,350.9c2.2,1.8,3.3,4.9,7.5,7.3C168.2,355.8,167.1,352.8,164.9,350.9z"/>
				<path class="st2" d="M164.3,350.5c0.2,0.1,0.4,0.3,0.6,0.5C164.7,350.8,164.5,350.6,164.3,350.5z"/>
				<path class="st2" d="M111,362.3c1.8,0.5,3.7,0.9,5.8,1.2C114.7,363.3,112.8,362.8,111,362.3z"/>
			</g>
			<g>
				<line class="st3" x1="362.3" y1="277.1" x2="362.3" y2="277.1"/>
				<line class="st3" x1="455.7" y1="400" x2="525" y2="400"/>
				<path class="st3" d="M236.4,304.8c-0.6-0.5-1.1-0.9-1.7-1.3"/>
				<line class="st3" x1="254.8" y1="350.6" x2="254.8" y2="350.7"/>
				<path class="st3" d="M145.4,358.2c6.4-3.8,9.8-8.1,13.9-8.8"/>
				<path class="st3" d="M548.7,293.7c0.9,0.2,1.8,0.5,2.7,0.8"/>
				<path class="st3" d="M509.4,284.3c1,0.2,2,0.4,3,0.6c1,0.2,2,0.4,2.9,0.6"/>
				<path class="st3" d="M500.4,282.6c1.9,0.4,3.8,0.7,5.7,1.1"/>
				<path class="st3" d="M378.9,288.8c-0.6-0.6-1.5-1-2-1.2c-1.9-0.9-5-3-10-6.9c-0.5-0.4-1-0.8-1.6-1.2c-0.9-0.7-2-1.5-3-2.4
					c0,0-0.1,0-0.1-0.1l-0.2-2.7l0-0.1c1.6-0.1,3.2-0.2,4.8-0.3c2.5-0.1,5-0.3,7.6-0.4c5-0.2,10.2-0.4,15.3-0.4
					c4.1-0.1,8.1-0.1,12.2,0c3.2,0,6.4,0.1,9.5,0.2c30.7,0.8,59.3,3.9,85.7,8.6"/>
				<path class="st3" d="M379.5,293.9c-0.3-0.4-0.7-0.8-0.8-1.5c-0.1-1.1,0.8-1.6,0.7-2.5c0-0.4-0.2-0.7-0.5-1"/>
				<path class="st3" d="M389.7,296.4c-2.1-1.9-3.5-2.2-4.5-2.1c-0.9,0.1-1.5,0.7-2.8,0.7c-1.2,0-2.1-0.5-2.7-0.9"/>
				<path class="st3" d="M396.5,308.1c-1.8-2-3.9-5.4-6.1-11"/>
				<path class="st3" d="M408.9,319.3c-0.1-0.1-0.2-0.3-0.3-0.4c-0.5-0.6-0.9-1.7-0.2-3.3c0,0,0,0,0,0c-0.7-0.5-1.7-1.4-3.2-2.3
					c-2.7-1.6-5-2.6-5.5-2.8c-0.7-0.3-1.4-0.7-2.2-1.4"/>
				<path class="st3" d="M413.4,322.4c-1.4-1.3-3.2-1.9-4.3-2.9"/>
				<path class="st3" d="M433.1,350c-0.2-0.2-0.4-0.4-0.6-0.7c-4.1-4.8-3.9-10.1-3.8-11.4c0.2-4.7,2.8-8.3,4.6-10.5
					c0,0,0.1-0.1,0.1-0.1c-1.8,0.3-5.3,0.7-9.5,0c-4.5-0.7-7.6-2.3-9.1-3.2c0,0,0,0,0,0c-0.1-0.1-0.2-0.3-0.4-0.6
					c-0.1-0.2-0.2-0.3-0.4-0.5"/>
				<path class="st3" d="M437.7,355.4c-0.2-0.3-0.4-0.5-0.4-0.5c-0.8-1.2-1.6-2.1-2.3-2.9"/>
				<path class="st3" d="M438.2,356.3c-0.1-0.2-0.3-0.4-0.4-0.6"/>
				<path class="st3" d="M455,399.3c-7.3-7.1-9.8-13.5-10.7-18.1c-0.8-4.3-2.6-18.8-5.6-24.1c-0.1-0.1-0.2-0.3-0.2-0.4"/>
				<path class="st3" d="M523.4,397.9c0.5,0.7,1,1.3,1.5,2h-69.3"/>
				<path class="st3" d="M481.6,383.7c0.1,0.1,0.2,0.2,0.3,0.3c2.7,2.2,6.9,2.7,9.4,2.9c6.3,0.7,9.2-1.5,13.3-1.7
					c4.4-0.2,10.4,1.9,18.1,11.7"/>
				<path class="st3" d="M482.4,355c1.1,1.5,1.4,3.7,1.6,5.3c1.5,11.2-6.7,16.8-3.7,21.9c0.2,0.4,0.5,0.7,0.8,1.1"/>
				<path class="st3" d="M441.4,354.9c1.3,1.2,2.9,2.1,4.6,2.4c3.6,0.7,4.8-1.9,8.3-1c4.2,1,4.4,5.2,8,5.7c1.7,0.2,2.3-0.6,7.7-3.7
					c8.6-4.9,10.2-4.7,11-4.4c0.3,0.1,0.6,0.3,0.9,0.6c0.1,0.1,0.2,0.2,0.3,0.3"/>
				<path class="st3" d="M443.8,341.6c0.4,0.5,0.5,1.2,0.4,1.8c-0.3,2.4-4.8,2.2-5.7,4.7c-0.6,1.7,0.5,4.3,2.5,6.3"/>
				<path class="st3" d="M438.3,328.3L438.3,328.3c-0.7,0.4-4.2,2.9-4.6,7.3c-0.2,2.6,0.6,5.7,2,7.1c0.4,0.4,0.8,0.6,1.3,0.7
					c2.2,0.3,4.2-2.8,6-2.3c0.3,0.1,0.5,0.2,0.6,0.4"/>
				<line class="st3" x1="506.7" y1="325.9" x2="506.7" y2="326.1"/>
				<line class="st3" x1="588.8" y1="306.6" x2="588" y2="308.8"/>
				<path class="st3" d="M682.2,352.1c1.3,0.8,2.5,1.6,3.7,2.4"/>
				<path class="st3" d="M673.8,346.9c2,1.2,3.9,2.4,5.8,3.5"/>
				<path class="st3" d="M652.8,335c6.6,3.5,12.6,6.9,17.9,10"/>
				<path class="st3" d="M438.3,328.4h0.1c5.4-0.4,10.9-0.3,16.3,0.5c7.7,1.1,14.4,3.8,22.6,2.9c9.9-1,19.8-3.6,29.5-5.6V326
					c7.2-4.7,14.1-6.8,19.8-7.7c6.3-1,6.8,0.1,16.7-1.1c8.8-1.1,15.3-1.9,21.2-5.1c2.1-1.1,3-1.9,5.5-2.6c4.8-1.2,14.6-1.6,18.1-0.6
					l0.8-2.2c25.3,9.2,46.7,19.2,63.8,28.3"/>
				<line class="st3" x1="699.8" y1="400" x2="525" y2="400"/>
				<path class="st4" d="M699.8,400c0,38.5,0,77,0,115.5h-605V364.1c18.5-13.5,113.7-80.6,267.2-89.8c0,0,0.1,0,0.1,0
					c1.5-0.1,3.1-0.2,4.7-0.2c2.5-0.1,5.1-0.3,7.7-0.4c5.1-0.2,10.2-0.4,15.4-0.4c4.1,0,8.1-0.1,12.1,0c3.2,0,6.4,0.1,9.6,0.2
					c30.7,0.7,59.2,3.9,85.5,8.5c1.1,0.2,2.3,0.4,3.4,0.6c1.9,0.4,3.8,0.7,5.7,1.1c1.1,0.2,2.2,0.4,3.3,0.6c1,0.2,2,0.4,3,0.6
					c1,0.2,2,0.4,2.9,0.6c11.6,2.5,22.8,5.2,33.4,8.2c0.9,0.2,1.8,0.5,2.7,0.8c13.3,3.8,25.8,7.9,37.5,12.1
					c25.4,9.3,46.8,19.3,63.9,28.4c0,0,0,0,0,0c6.6,3.5,12.6,6.9,17.9,10c1.1,0.6,2.1,1.3,3.1,1.9c2,1.2,3.9,2.4,5.8,3.5
					c0.9,0.6,1.8,1.1,2.7,1.7c1.3,0.8,2.5,1.6,3.7,2.4c6.6,4.3,11.3,7.7,13.9,9.6C699.8,376.1,699.8,388,699.8,400z"/>
				<path class="st3" d="M362.3,277.1c1.1,0.9,2.1,1.7,3,2.4c0.5,0.4,1.1,0.8,1.6,1.2c5.1,3.9,8.2,6.1,10.1,7
					c0.4,0.2,1.3,0.6,1.9,1.1c0,0,0,0,0.1,0.1c0.3,0.3,0.5,0.7,0.6,1.1c0.1,0.9-0.8,1.4-0.7,2.5c0.1,0.6,0.4,1,0.7,1.4
					c0.1,0.1,0.2,0.2,0.2,0.2c0,0,0,0.1,0.1,0.1c0.6,0.4,1.5,0.9,2.7,0.9c1.3,0,1.9-0.6,2.8-0.7c1-0.1,2.3,0.2,4.4,2
					c0.2,0.2,0.5,0.4,0.7,0.7c0,0,0.1,0.1,0.1,0.1c2.2,5.5,4.2,8.9,6,10.9c0.3,0.4,0.7,0.7,1,1c0.8,0.8,1.6,1.2,2.3,1.5
					c0.5,0.2,2.8,1.2,5.5,2.8c1.4,0.9,2.4,1.7,3.1,2.2c0,0,0.1,0.1,0.1,0.1c-0.7,1.6-0.3,2.7,0.2,3.3c0.1,0.1,0.2,0.2,0.2,0.3
					c0.1,0.1,0.1,0.1,0.2,0.2c1.1,1,2.8,1.6,4.3,2.9c0.2,0.2,0.5,0.4,0.6,0.7c0.2,0.2,0.3,0.4,0.5,0.6c0.1,0.2,0.2,0.4,0.3,0.5
					c0,0,0.1,0.1,0.1,0.1"/>
				<path class="st3" d="M256.7,350.2c-0.8,0.2-1.5,0.4-1.9,0.4c-0.7,0.1-1.5,0.4-2.2,1.1c-0.9,0.9-0.6,1.7-0.7,2.3
					c-0.3,2.1-4.8,4.4-8.7,4.8c-4.6,0.5-6.2-1.9-10.8-1c-1.3,0.2-2.1,0.6-4.5,1c-1.8,0.3-2.4,0.3-4.7,0.6c-2.5,0.3-2.9,0.5-4.7,0.8
					c0,0-2.5,0.4-6.5,0.5c-4.1,0.1-11.1-0.4-19.7-1.8c-5.2,1.6-12.7,3-19.3-0.4c-0.2-0.1-0.4-0.2-0.6-0.3c-4.2-2.4-5.3-5.4-7.5-7.3
					h0c-0.2-0.2-0.4-0.3-0.6-0.5c-0.6-0.4-1.4-0.8-2.3-1c-1-0.2-1.9-0.2-2.7-0.1c-4.1,0.7-7.5,5-13.9,8.8c-2.3,1.4-5.1,2.7-8.4,3.8
					c-1.7,0.5-7.7,2.3-15.5,2c-1.6-0.1-3.2-0.2-4.7-0.4c-2.1-0.3-4-0.7-5.8-1.2c-1-0.3-2-0.6-2.9-0.9c14.2-11.3,33.3-24.4,57.4-35.9
					c25.7-12.3,49.2-19.1,67.6-23"/>
				<path class="st3" d="M433.5,327.4c-0.1,0-0.1,0-0.2,0c-1.9,0.3-5.3,0.6-9.3,0c-4.5-0.7-7.6-2.3-9.1-3.2c0,0,0,0-0.1,0"/>
				<path class="st3" d="M506.7,326.1c-9.7,2-19.6,4.6-29.5,5.6c-8.2,0.9-14.9-1.8-22.6-2.9c-5.4-0.8-10.9-0.9-16.3-0.5"/>
				<path class="st3" d="M588,308.8c-3.5-1-13.3-0.6-18.1,0.6c-2.5,0.7-3.4,1.5-5.5,2.6c-5.9,3.2-12.4,4-21.2,5.1
					c-9.9,1.2-10.4,0.1-16.7,1.1c-5.7,0.9-12.6,3-19.8,7.7"/>
				<path class="st3" d="M433.5,327.4c-1.8,2.1-4.5,5.8-4.7,10.6c-0.1,1.3-0.3,6.6,3.8,11.4c0.2,0.2,0.4,0.4,0.5,0.6
					c0.6,0.6,1.2,1.3,1.9,2c0.7,0.8,1.5,1.7,2.4,3c0,0,0.1,0.2,0.3,0.4c0,0.1,0.1,0.2,0.2,0.3c0.1,0.2,0.2,0.4,0.4,0.6
					c0.1,0.1,0.2,0.3,0.2,0.4c0.1,0.2,0.2,0.3,0.3,0.5c3,5.3,4.7,19.8,5.6,24.1c1,4.7,3.4,11,10.6,18c0.2,0.2,0.4,0.4,0.6,0.6
					c0,0,0.1,0.1,0.1,0.1"/>
				<path class="st3" d="M525,400c-0.5-0.8-1-1.5-1.6-2.1c-0.3-0.3-0.5-0.7-0.8-1c-7.7-9.7-13.7-11.8-18-11.6
					c-4.2,0.2-7.1,2.4-13.3,1.7c-2.5-0.3-6.9-0.8-9.5-3c-0.1-0.1-0.2-0.2-0.3-0.3c-0.2-0.1-0.3-0.3-0.5-0.5c-0.3-0.3-0.5-0.6-0.7-1
					c-3-5.1,5.2-10.8,3.7-21.9c-0.2-1.5-0.6-3.9-1.7-5.4c-0.1-0.1-0.1-0.2-0.2-0.3c-0.1-0.1-0.2-0.2-0.3-0.3
					c-0.2-0.2-0.5-0.4-0.8-0.5c-0.9-0.4-2.4-0.6-11,4.4c-5.3,3.1-6,3.9-7.7,3.7c-3.6-0.5-3.8-4.6-8-5.7c-3.5-0.9-4.7,1.7-8.3,1
					c-1.7-0.3-3.4-1.3-4.7-2.5c-0.2-0.2-0.3-0.3-0.5-0.5c-1.9-2-3-4.6-2.4-6.2c0.9-2.5,5.4-2.3,5.7-4.7c0.1-0.6-0.1-1.4-0.5-1.9
					c0,0-0.1-0.1-0.1-0.1c-0.1-0.1-0.3-0.2-0.5-0.3c-1.8-0.5-3.8,2.6-6,2.3c-0.5-0.1-1-0.4-1.4-0.8c-1.4-1.4-2.1-4.5-1.9-7
					c0.4-4.4,3.9-6.9,4.5-7.3"/>
				<path class="st3" d="M233.1,302.5c0.5,0.3,1,0.6,1.6,1c0.5,0.4,1.1,0.8,1.7,1.3c3.5,2.8,3.9,4.3,6,4.5c3.2,0.3,4.6-3.2,9.3-3.3
					c1.7,0,2.2,0.4,4.7,0.3c2.2-0.1,3.6-0.5,5.2-0.9c2.7-0.7,6.3-1.3,8.3-1.5c6.9-0.4,12.5,4.7,17.7,9.5c1.3,1.2,2.7,2.6,2.1,4
					c-0.5,1.3-2.2,1.4-4.3,2.7c-3.1,1.8-5.4,4.8-5.5,7.5c-0.1,3,2.3,4,1,5.9c-1,1.4-2.5,1-5,3c-1.3,1-3.1,2.5-2.7,4.1
					c0.4,1.4,2.2,1.9,2,3c-0.2,0.8-1.2,1.3-2,1.7c-0.7,0.8-1.9,1.7-3.7,2.3c-3,0.9-4.6-0.4-7.7,0.6c-1.6,0.5-2,1.1-4.7,1.9
					c-0.1,0-0.3,0.1-0.4,0.1c-0.8,0.2-1.5,0.4-1.9,0.5"/>
				<path class="st3" d="M377.8,255.2c3.9-6.7,7.7-13.5,11.6-20.2c2.3,4,4.6,8,6.8,12"/>
				<path class="st3" d="M401.9,269.8c-1.3-2.8-2.7-6.3-3.8-10.4c-1.2-4.7-1.7-8.9-1.9-12.4"/>
				<line class="st3" x1="375" y1="264.5" x2="377.8" y2="255.2"/>
				<line class="st3" x1="373.5" y1="272" x2="375" y2="264.5"/>
				<path class="st3" d="M364.3,280.5c0.2,0,0.4,0.1,0.5,0.1c0.6,0.1,1.3,0.2,2.1,0.1c0,0,0,0,0,0c0.3,0,0.7-0.1,1.1-0.2
					c1.5-0.4,1.4-1,2.5-1.2c1.7-0.3,2.3,1,5.4,1.6c0.8,0.1,1.3,0.2,1.8,0.2c1.5,0.1,3.4,0.1,5.5-0.4c0.1-0.3,0.2-0.8,0-1.4
					c-0.7-1.9-3.8-1.5-6.6-3.4c-0.6-0.4-1.4-1.1-2.2-2.2c0,0,0-0.1-0.1-0.1c-0.3-0.5-0.6-1-0.9-1.6"/>
				<path class="st3" d="M364.8,280.7C364.8,280.7,364.8,280.6,364.8,280.7c0.2-0.4,0.4-0.8,0.5-1.2c0,0,0,0,0,0
					c0.6-1.4,1.2-3.3,1.4-5.4c0,0,0-0.1,0-0.1c0-0.1,0-0.2,0-0.3c0.2-2,0.1-3.7,0-5.1c1.7-1.1,0.6-4.4,1.1-9.8
					c0.2-1.6,0.4-3.5,1.3-5.8c1-2.5,1.9-3.2,3.3-5.4c1.4-2.2,2-4.6,3.3-9.4c1.8-6.8,1.1-7.6,2.6-9.8c0.4-0.5,1.2-1.6,1.3-3.1
					c0-0.2,0-2.4-1.6-3.3c-0.6-0.3-1.1-0.3-1.5-0.3"/>
				<path class="st3" d="M401.8,279.8c0-0.1,0-0.2,0-0.3c0-2.1,0-4.2,0.1-6.2c0,0,0-0.1,0-0.1c0-1.1,0-2.3,0-3.4"/>
				<path class="st3" d="M376.4,222c0,1-0.3,3-1.7,4.9c-1.3,1.6-3.9,3.7-5.4,2.8c-1.1-0.7-1.4-2.8-0.7-5.2"/>
				<path class="st3" d="M379.9,183.1c-1.4,4.3-2.5,8-3.3,10.9c-0.9,3.1-3,11-3.9,16.8c-0.3,2.3-0.5,3.5-0.6,5.3
					c-0.1,1.9,0,2.4-0.3,3.5c0,0-0.2,0.8-0.4,1.5c-0.3,0.8-1.2,2.1-2.7,3.4"/>
				<path class="st3" d="M386.8,172c0.2,1.4,0.4,3.4-0.8,4.9c-0.7,1-1.5,1.1-2.8,2.1c-0.9,0.7-2.2,2-3.4,4.1c0,0,0,0,0,0"/>
				<path class="st3" d="M386.8,172c-2.5-3.1-2.9-7.3-1-10.6c1.6-2.8,5-5,8.8-4.5c4.7,0.7,6.7,5.1,6.8,5.4c0.5,1,1.1,2.6,1.1,4.5
					c0,1.3-0.3,1.9-0.7,3.5c-1.2,5.2,0,7.3-1.7,8.7c-1.2,1-2.7-0.1-3.3,0.8c-0.8,1,0.4,3,1,4.3c3.1,6.6-0.7,10.6,2.2,15.8
					c1,1.9,1.2,0.6,5.7,5.2c3.8,3.9,4.4,5.4,7.2,6.8c2.4,1.2,2.9,0.6,5.3,2c1.7,1,4.6,2.7,4.7,5.3c0.1,1.2-0.4,3-1.7,3.5
					c-1.7,0.8-3.2-1.7-8.3-3.5c-2.4-0.8-2.4-0.4-3.8-1.1c-2.4-1.2-3-2.7-5.7-4.4c-1.3-0.8-2.5-1.3-3.3-1.5"/>
				<line class="st3" x1="400" y1="225.8" x2="400" y2="212.3"/>
				<path class="st3" d="M402.5,279.5c-0.2,0-0.3,0-0.3,0c0,0.1,4.1,1.2,5.1,0.1c0.5-0.5,0.1-1.1,0.5-1.5c0.7-0.7,2.3,0.3,3.9,0.8
					c4,1.2,8.7-0.1,8.9-1.5c0.1-0.4-0.3-0.9-0.6-1.2c-0.7-0.5-1.4,0.2-3.2,0c0,0-0.9-0.1-1.7-0.5c-0.2-0.1-0.4-0.2-0.4-0.2
					c-0.2-0.1-0.3-0.2-0.4-0.3c-0.1-0.1-0.2-0.2-0.2-0.2c-0.4-0.4-1.2-0.8-1.2-0.8c-0.2-0.1-0.8-0.4-1.4-0.8c0,0-0.1,0-0.1-0.1
					c-0.8-0.5-1.5-1.1-1.8-1.6c-0.1-0.3-0.2-0.5-0.2-0.5c0-0.3,0-0.6,0.1-0.8c0-0.2,0.1-0.2,0.1-0.4c0.1-0.3,0-0.6,0-0.7
					c-0.4-2.3-0.7-2.9-0.7-2.9c-0.7-1.8-0.7-3.9-2.6-11.4c-0.8-3.2-1.9-7.3-1.5-7.4c0.1,0,0.2,0.2,0.3,0.1c0.6-0.1,0.6-3.7,0.1-6
					c-0.1-0.7-0.3-1.3-0.3-1.3c-0.3-0.9-0.5-1.4-0.8-2.2c-0.2-0.6-0.4-1.2-0.7-2.2c-0.6-2.2-0.9-3.6-1.1-4.6c-0.3-1.4-1-3.4-2.4-5.7
					c0,0,0,0,0,0"/>
			</g>
		</g>
	</g>
</g>
<g id="XMLID_1_">
	<g>
		<path class="st5" d="M194.5,400c-0.1,0-0.4,0-0.9,0h-6.5c-7.5-0.2-18.3-1.4-20.8-6.6c-1-2.1-0.9-5.4,2.7-10.9
			c-2.2-3.7-5.8-8.2-11.5-11.5c-7-4-18.7-7-24-2c-2.8,2.6-1.9,5.2-5,8.5c-3,3.2-7.7,3.7-11.5,3.5c-0.5,1.5-1,4,0,6.5s3.1,3.7,7,6
			c2.1,1.2,5.6,3.3,11,6.5h52.1c2.8,0.1,5.2,0,6.5,0H194.5z"/>
		<path class="st2" d="M187.1,400H135c-5.4-3.2-8.9-5.3-11-6.5c-3.9-2.3-6-3.5-7-6s-0.5-5,0-6.5c3.8,0.2,8.5-0.3,11.5-3.5
			c3.1-3.3,2.2-5.9,5-8.5c5.3-5,17-2,24,2c5.7,3.3,9.3,7.8,11.5,11.5c-3.6,5.5-3.6,8.8-2.7,10.9C168.8,398.6,179.6,399.8,187.1,400z
			"/>
	</g>
	<g>
		<path class="st3" d="M229.9,300.7c0.9,0.5,2,1.1,3.2,1.8"/>
		<path class="st3" d="M192.3,358.9c8.6,1.4,15.6,1.9,19.7,1.8c4-0.1,6.5-0.5,6.5-0.5c1.8-0.3,2.2-0.5,4.7-0.8
			c2.3-0.3,2.9-0.3,4.7-0.6c2.4-0.4,3.2-0.8,4.5-1c4.6-0.9,6.2,1.5,10.8,1c3.9-0.4,8.4-2.7,8.7-4.8c0.1-0.6-0.2-1.4,0.7-2.3
			c0.7-0.7,1.5-1,2.2-1.1h0.1"/>
		<path class="st3" d="M102.3,358.9c1.5,0.8,3.5,1.7,5.8,2.5c3.6,1.3,8.2,2.4,13.4,2.6c7.8,0.3,13.8-1.5,15.5-2
			c14.4-4.6,17.8-14.1,25-12.5c4.9,1.1,4.8,5.8,11,9c6.6,3.4,14.1,2,19.3,0.4"/>
		<path class="st3" d="M117,381c3.8,0.2,8.5-0.3,11.5-3.5c3.1-3.3,2.2-5.9,5-8.5c5.3-5,17-2,24,2c5.7,3.3,9.3,7.8,11.5,11.5
			c-3.6,5.5-3.6,8.8-2.7,10.9c2.5,5.2,13.3,6.4,20.8,6.6c2.8,0.1,5.2,0,6.5,0c0.5,0,0.8,0,0.9,0"/>
		<path class="st3" d="M117,381c-0.5,1.5-1,4,0,6.5s3.1,3.7,7,6c2.1,1.2,5.6,3.3,11,6.5"/>
		<polyline class="st3" points="102.3,400 135,400 187.1,400 193.6,400 194.5,400 455.7,400 525,400 699.8,400 		"/>
	</g>
</g>
<g>
	<path d="M371.1,274.2v0.4c-0.3,0.4-0.7,0.8-1.1,0.9c-0.4,0.2-0.8,0.3-1.3,0.3c-0.9,0-1.6-0.3-2.2-0.8c-0.6-0.6-0.9-1.3-0.9-2.1
		c0-0.9,0.3-1.6,0.8-2.2c0.5-0.6,1.2-0.9,2-0.9c0.7,0,1.2,0.2,1.7,0.7c0.5,0.4,0.7,1,0.7,1.6v0.1h-4.2v0.1c0,0.6,0.1,1.2,0.3,1.6
		c0.2,0.5,0.5,0.8,0.8,1.1c0.4,0.3,0.7,0.4,1.1,0.4c0.4,0,0.7-0.1,0.9-0.2C370.3,275,370.6,274.7,371.1,274.2z M366.8,271.9h3.1
		v-0.1c0-0.5-0.1-0.9-0.4-1.2s-0.6-0.4-1.1-0.4c-0.5,0-0.8,0.2-1.1,0.5C367,270.9,366.8,271.4,366.8,271.9z"/>
	<path d="M376.6,279v-3.6c-0.5,0.3-1.1,0.5-1.7,0.5c-0.8,0-1.5-0.3-2-0.8s-0.8-1.2-0.8-2c0-1,0.3-1.7,1-2.2c0.7-0.5,1.6-0.8,2.9-0.8
		c0.3,0,0.9,0,1.7,0.1v8.9c0,0.3,0.1,0.5,0.2,0.7c0.1,0.1,0.4,0.2,0.8,0.2v0.3h-3v-0.3c0.4,0,0.6-0.1,0.7-0.2
		C376.5,279.5,376.6,279.3,376.6,279z M376.6,275v-4.5c-0.3-0.1-0.5-0.1-0.8-0.1c-0.8,0-1.4,0.2-1.9,0.7c-0.5,0.4-0.7,1.1-0.7,1.8
		c0,0.7,0.2,1.3,0.6,1.8s0.9,0.7,1.5,0.7C375.7,275.4,376.1,275.2,376.6,275z"/>
	<path d="M384.6,269.8h0.3v4.8c0,0.3,0.1,0.5,0.2,0.6s0.4,0.2,0.8,0.2v0.3l-2.1,0.1v-1h0c-0.6,0.7-1.2,1.1-2,1.1
		c-0.5,0-1-0.2-1.3-0.5c-0.3-0.4-0.5-0.8-0.5-1.4V271c0-0.3-0.1-0.5-0.2-0.6c-0.1-0.1-0.4-0.2-0.8-0.2V270l1.8-0.2h0.3v4
		c0,0.4,0.1,0.7,0.3,0.9c0.2,0.2,0.5,0.3,0.9,0.3c0.5,0,1-0.3,1.5-0.9v-3.1c0-0.4-0.1-0.6-0.2-0.7c-0.1-0.1-0.4-0.2-0.9-0.2V270
		L384.6,269.8z"/>
	<path d="M388.2,275.8c-0.4,0-0.8-0.1-1.1-0.4c-0.3-0.3-0.5-0.6-0.5-1.1c0-0.4,0.1-0.7,0.4-1s0.8-0.5,1.7-0.7
		c0.5-0.1,0.9-0.3,1.1-0.4v-0.4c0-0.4-0.1-0.7-0.3-1c-0.2-0.3-0.5-0.4-0.9-0.4c-0.3,0-0.7,0.1-0.9,0.3c-0.3,0.2-0.5,0.5-0.6,0.9
		l-0.3-0.1c0.1-0.5,0.4-0.9,0.7-1.3s0.8-0.5,1.3-0.5c0.6,0,1.1,0.2,1.5,0.6c0.4,0.4,0.6,0.9,0.6,1.5v2.4c0,0.3,0,0.6,0.1,0.7
		c0,0.1,0.1,0.2,0.3,0.2c0.1,0,0.2,0,0.2-0.1c0.1-0.1,0.1-0.2,0.2-0.4h0.3c0,0.4-0.1,0.6-0.3,0.8s-0.5,0.3-0.8,0.3
		c-0.5,0-0.8-0.3-1-0.8c-0.3,0.3-0.5,0.5-0.8,0.6S388.5,275.8,388.2,275.8z M389.7,274.5v-1.9c-0.2,0.1-0.4,0.2-0.7,0.3
		c-0.6,0.2-0.9,0.4-1.1,0.6c-0.2,0.2-0.2,0.4-0.2,0.8c0,0.3,0.1,0.5,0.3,0.7c0.2,0.2,0.4,0.3,0.6,0.3c0.2,0,0.4-0.1,0.7-0.2
		S389.6,274.7,389.7,274.5z"/>
	<path d="M393.9,268h0.3v1.9h2v0.4h-2v3.6c0,0.4,0.1,0.7,0.3,0.9c0.2,0.2,0.4,0.3,0.8,0.3c0.4,0,0.7-0.2,1.1-0.5l0.2,0.2
		c-0.5,0.6-1.1,0.9-1.7,0.9c-0.5,0-0.9-0.2-1.2-0.5c-0.3-0.3-0.5-0.7-0.5-1.2v-3.8H392v-0.3C392.8,269.7,393.4,269,393.9,268z"/>
	<path d="M403.2,272.8c0,0.9-0.3,1.6-0.9,2.1s-1.3,0.9-2.2,0.9s-1.6-0.3-2.2-0.9c-0.6-0.6-0.9-1.3-0.9-2.1c0-0.9,0.3-1.6,0.9-2.2
		c0.6-0.6,1.3-0.9,2.2-0.9s1.6,0.3,2.2,0.9S403.2,271.9,403.2,272.8z M402,272.8c0-0.8-0.2-1.5-0.5-2c-0.3-0.5-0.8-0.7-1.4-0.7
		s-1.1,0.2-1.4,0.7s-0.5,1.1-0.5,2c0,0.8,0.2,1.5,0.5,1.9c0.3,0.5,0.8,0.7,1.4,0.7c0.6,0,1.1-0.2,1.4-0.7S402,273.6,402,272.8z"/>
	<path d="M406.1,269.8v1.2c0.5-0.5,0.9-0.8,1.2-1s0.5-0.3,0.7-0.3c0.4,0,0.7,0.1,1,0.4l-0.4,1c-0.6-0.3-1.1-0.5-1.3-0.5
		c-0.3,0-0.7,0.2-1.2,0.7v3.1c0,0.3,0.1,0.5,0.2,0.6s0.4,0.2,0.8,0.2v0.3h-3v-0.3c0.4,0,0.7-0.1,0.8-0.2c0.1-0.1,0.2-0.4,0.2-0.9
		v-3.1c0-0.4-0.1-0.6-0.2-0.8c-0.1-0.1-0.5-0.2-1-0.2V270l2-0.2H406.1z"/>
</g>
<g>
	<path d="M69.3,31.1h7.3c0.2,0,0.4,0.1,0.6,0.3c0.2,0.2,0.3,0.4,0.3,0.6c0,0.3-0.1,0.5-0.3,0.6c-0.2,0.2-0.4,0.3-0.6,0.3h-2.7v10.6
		h2.7c0.3,0,0.5,0.1,0.6,0.3c0.2,0.2,0.3,0.4,0.3,0.6c0,0.3-0.1,0.5-0.3,0.6c-0.2,0.2-0.4,0.3-0.6,0.3h-7.3c-0.3,0-0.5-0.1-0.6-0.3
		c-0.2-0.2-0.3-0.4-0.3-0.6c0-0.3,0.1-0.5,0.3-0.6c0.2-0.2,0.4-0.3,0.6-0.3h2.8V32.9h-2.8c-0.3,0-0.5-0.1-0.6-0.3
		c-0.2-0.2-0.3-0.4-0.3-0.6c0-0.3,0.1-0.5,0.3-0.7C68.8,31.2,69,31.1,69.3,31.1z"/>
	<path d="M95,44.5V32c0-0.2,0.1-0.5,0.3-0.6c0.2-0.2,0.4-0.3,0.6-0.3c0.3,0,0.5,0.1,0.6,0.3c0.2,0.2,0.3,0.4,0.3,0.6v4.6l1.5-0.9
		c0.7-0.4,1.2-0.6,1.8-0.6h1.1c0.7,0,1.4,0.3,1.9,0.8c0.5,0.5,0.8,1.2,0.8,1.9l0.2,6.8c0,0.3-0.1,0.5-0.3,0.6
		c-0.2,0.2-0.4,0.3-0.6,0.3c-0.3,0-0.5-0.1-0.6-0.3s-0.3-0.4-0.3-0.6l-0.2-6.8c0-0.2-0.1-0.5-0.3-0.6c-0.2-0.2-0.4-0.3-0.6-0.3h-1
		c-0.2,0-0.5,0.1-0.8,0.3l-2.6,1.7v5.7c0,0.3-0.1,0.5-0.3,0.6c-0.2,0.2-0.4,0.3-0.6,0.3c-0.3,0-0.5-0.1-0.6-0.3
		C95.1,44.9,95,44.7,95,44.5z"/>
	<path d="M117.4,38.2v3.8c0,0.8-0.4,1.6-1.1,2.2s-1.5,1-2.4,1h-2.1c-0.8,0-1.6-0.3-2.4-1s-1.1-1.4-1.1-2.2v-3.8
		c0-0.8,0.4-1.5,1.1-2.2c0.7-0.7,1.5-1,2.4-1h2.1c0.8,0,1.6,0.3,2.4,1S117.4,37.4,117.4,38.2z M110.1,38.3V42c0,0.3,0.1,0.6,0.4,0.8
		l0.7,0.6c0.2,0.1,0.4,0.2,0.6,0.2h2.1c0.3,0,0.6-0.1,0.8-0.3l0.5-0.5c0.2-0.2,0.3-0.4,0.3-0.7v-3.7c0-0.4-0.1-0.6-0.3-0.8l-0.6-0.5
		c-0.2-0.2-0.5-0.3-0.8-0.3H112c-0.4,0-0.7,0.1-0.9,0.3l-0.6,0.5C110.2,37.8,110.1,38,110.1,38.3z"/>
	<path d="M123.4,44.3v4c0,0.3-0.1,0.5-0.3,0.7c-0.2,0.2-0.4,0.3-0.6,0.3c-0.3,0-0.5-0.1-0.6-0.3c-0.2-0.2-0.3-0.4-0.3-0.7V35.5
		c0-0.2,0.1-0.5,0.3-0.6c0.2-0.2,0.4-0.3,0.7-0.3c0.2,0,0.5,0.1,0.6,0.3c0.2,0.2,0.3,0.4,0.3,0.6V36c0.9-1,1.7-1.5,2.6-1.5h0.4
		c0.6,0,1.2,0.2,1.8,0.7l1.5,1.3c0.7,0.6,1,1.3,1,2.2v2.8c0,0.9-0.4,1.6-1.1,2.2l-1.5,1.3c-0.5,0.4-1.1,0.7-1.8,0.7h-0.4
		c-0.7,0-1.3-0.2-1.8-0.7L123.4,44.3z M125.9,43.9h0.5c0.2,0,0.5-0.1,0.7-0.3l1.4-1.2c0.2-0.2,0.4-0.4,0.4-0.8v-2.9
		c0-0.3-0.1-0.5-0.4-0.8l-1.5-1.3c-0.2-0.2-0.4-0.2-0.6-0.2h-0.5c-0.2,0-0.5,0.2-0.8,0.5l-1.3,1.3c-0.2,0.2-0.4,0.5-0.4,0.8v2.3
		c0,0.3,0.1,0.6,0.4,0.8l1.3,1.3C125.4,43.8,125.7,43.9,125.9,43.9z"/>
	<path d="M143.9,38.4v2.2c0,0.2-0.1,0.5-0.3,0.6c-0.2,0.2-0.4,0.3-0.6,0.3h-6.4V42c0,0.3,0.1,0.6,0.4,0.8l0.5,0.4
		c0.3,0.2,0.6,0.3,0.8,0.3h4.6c0.2,0,0.5,0.1,0.6,0.3c0.2,0.2,0.3,0.4,0.3,0.6c0,0.2-0.1,0.5-0.3,0.6c-0.2,0.2-0.4,0.3-0.6,0.3h-4.8
		c-0.3,0-0.6-0.1-1-0.2c-0.3-0.1-0.6-0.3-0.8-0.4l-0.8-0.7c-0.3-0.2-0.5-0.5-0.6-0.8c-0.2-0.4-0.3-0.7-0.3-1v-4.1
		c0-0.2,0.1-0.6,0.3-1c0.2-0.4,0.4-0.7,0.7-0.9l0.8-0.6c0.5-0.4,1-0.6,1.6-0.6h2.5c0.6,0,1.2,0.3,1.8,0.8l0.7,0.6
		C143.7,36.9,143.9,37.5,143.9,38.4z M136.7,38.2v1.4h5.5v-1.3c0-0.3-0.1-0.6-0.3-0.8l-0.5-0.5c-0.3-0.2-0.5-0.3-0.7-0.3h-2.3
		c-0.3,0-0.5,0.1-0.8,0.3l-0.5,0.4C136.8,37.7,136.7,38,136.7,38.2z"/>
	<path d="M170.5,37.6l-4.9,11c-0.2,0.4-0.5,0.6-0.9,0.6h-2.5c-0.3,0-0.5-0.1-0.6-0.3s-0.3-0.4-0.3-0.6c0-0.3,0.1-0.5,0.3-0.6
		c0.2-0.2,0.4-0.3,0.6-0.3h1.9l1.2-2.9H165c-0.4,0-0.7-0.2-0.9-0.6l-2.7-6.3v-1.7c0-0.3,0.1-0.5,0.3-0.6c0.2-0.2,0.4-0.3,0.6-0.3
		c0.3,0,0.5,0.1,0.6,0.3c0.2,0.2,0.3,0.4,0.3,0.6l0,1.3l2.4,5.5h0.6l2.5-5.5l0-1.4c0-0.2,0.1-0.4,0.3-0.6c0.2-0.2,0.4-0.3,0.6-0.3
		c0.2,0,0.5,0.1,0.6,0.3c0.2,0.2,0.3,0.4,0.3,0.6V37.6z"/>
	<path d="M183.8,38.2v3.8c0,0.8-0.4,1.6-1.1,2.2s-1.5,1-2.4,1h-2.1c-0.8,0-1.6-0.3-2.4-1s-1.1-1.4-1.1-2.2v-3.8
		c0-0.8,0.4-1.5,1.1-2.2c0.7-0.7,1.5-1,2.4-1h2.1c0.8,0,1.6,0.3,2.4,1S183.8,37.4,183.8,38.2z M176.5,38.3V42c0,0.3,0.1,0.6,0.4,0.8
		l0.7,0.6c0.2,0.1,0.4,0.2,0.6,0.2h2.1c0.3,0,0.6-0.1,0.8-0.3l0.5-0.5c0.2-0.2,0.3-0.4,0.3-0.7v-3.7c0-0.4-0.1-0.6-0.3-0.8L181,37
		c-0.2-0.2-0.5-0.3-0.8-0.3h-1.9c-0.4,0-0.7,0.1-0.9,0.3l-0.6,0.5C176.6,37.8,176.5,38,176.5,38.3z"/>
	<path d="M192.3,43.5l3-1.9v-5.7c0-0.3,0.1-0.5,0.3-0.6c0.2-0.2,0.4-0.3,0.6-0.3c0.3,0,0.5,0.1,0.6,0.3c0.2,0.2,0.3,0.4,0.3,0.6v8.6
		c0,0.2-0.1,0.5-0.3,0.6c-0.2,0.2-0.4,0.3-0.6,0.3c-0.2,0-0.5-0.1-0.6-0.3c-0.2-0.2-0.3-0.4-0.3-0.6v-0.7l-1.6,1
		c-0.6,0.4-1.2,0.6-1.9,0.6h-0.8c-0.7,0-1.4-0.3-1.9-0.8c-0.5-0.5-0.8-1.1-0.8-1.9l-0.3-6.8c0-0.2,0.1-0.4,0.3-0.6s0.4-0.3,0.6-0.3
		c0.2,0,0.5,0.1,0.6,0.3c0.2,0.2,0.3,0.4,0.3,0.6l0.2,6.7c0,0.6,0.4,1,1.1,1H192.3z"/>
	<path d="M221.9,45.4h-5.5c-0.3,0-0.5-0.1-0.6-0.3c-0.2-0.2-0.3-0.4-0.3-0.6c0-0.2,0.1-0.5,0.3-0.6c0.2-0.2,0.4-0.3,0.6-0.3h1.8
		V32.9h-1.8c-0.3,0-0.5-0.1-0.6-0.3c-0.2-0.2-0.3-0.4-0.3-0.6c0-0.3,0.1-0.5,0.3-0.6c0.2-0.2,0.4-0.3,0.6-0.3h2.8
		c0.2,0,0.5,0.1,0.6,0.3c0.2,0.2,0.3,0.4,0.3,0.6v11.5h1.8c0.2,0,0.5,0.1,0.6,0.3c0.2,0.2,0.3,0.4,0.3,0.6c0,0.3-0.1,0.5-0.3,0.6
		C222.3,45.3,222.1,45.4,221.9,45.4z"/>
	<path d="M235.2,45.3h-5.5c-0.3,0-0.5-0.1-0.6-0.3c-0.2-0.2-0.3-0.4-0.3-0.6c0-0.2,0.1-0.5,0.3-0.6c0.2-0.2,0.4-0.3,0.6-0.3h1.8
		v-6.7h-1.8c-0.3,0-0.5-0.1-0.6-0.3c-0.2-0.2-0.3-0.4-0.3-0.6c0-0.3,0.1-0.5,0.3-0.6c0.2-0.2,0.4-0.3,0.6-0.3h2.8
		c0.3,0,0.5,0.1,0.6,0.3c0.2,0.2,0.3,0.4,0.3,0.6v7.6h1.8c0.3,0,0.5,0.1,0.6,0.3c0.2,0.2,0.3,0.4,0.3,0.6c0,0.3-0.1,0.5-0.3,0.6
		C235.6,45.2,235.4,45.3,235.2,45.3z M231.5,30.3h0.9c0.3,0,0.5,0.1,0.6,0.3c0.2,0.2,0.3,0.4,0.3,0.6V32c0,0.3-0.1,0.5-0.3,0.6
		c-0.2,0.2-0.4,0.3-0.6,0.3h-1c-0.3,0-0.5-0.1-0.6-0.3c-0.2-0.2-0.3-0.4-0.3-0.6l0-0.8c0-0.3,0.1-0.5,0.3-0.6
		C231,30.4,231.2,30.3,231.5,30.3z"/>
	<path d="M250.3,35.9v1.7l-3.1,7.1c-0.2,0.4-0.5,0.6-0.8,0.6h-1.2c-0.4,0-0.7-0.2-0.9-0.7l-3.1-7.1v-1.7c0-0.3,0.1-0.5,0.3-0.6
		c0.2-0.2,0.4-0.3,0.6-0.3c0.3,0,0.5,0.1,0.6,0.3c0.2,0.2,0.3,0.4,0.3,0.6l0,1.4l2.7,6.2l2.7-6.2l0-1.4c0-0.3,0.1-0.5,0.3-0.6
		c0.2-0.2,0.4-0.3,0.7-0.3c0.3,0,0.5,0.1,0.6,0.3C250.2,35.4,250.3,35.6,250.3,35.9z"/>
	<path d="M263.5,38.4v2.2c0,0.2-0.1,0.5-0.3,0.6c-0.2,0.2-0.4,0.3-0.6,0.3h-6.4V42c0,0.3,0.1,0.6,0.4,0.8l0.5,0.4
		c0.3,0.2,0.6,0.3,0.8,0.3h4.6c0.2,0,0.5,0.1,0.6,0.3c0.2,0.2,0.3,0.4,0.3,0.6c0,0.2-0.1,0.5-0.3,0.6c-0.2,0.2-0.4,0.3-0.6,0.3h-4.8
		c-0.3,0-0.6-0.1-1-0.2c-0.3-0.1-0.6-0.3-0.8-0.4l-0.8-0.7c-0.3-0.2-0.5-0.5-0.6-0.8c-0.2-0.4-0.3-0.7-0.3-1v-4.1
		c0-0.2,0.1-0.6,0.3-1c0.2-0.4,0.4-0.7,0.7-0.9l0.8-0.6c0.5-0.4,1-0.6,1.6-0.6h2.5c0.6,0,1.2,0.3,1.8,0.8l0.7,0.6
		C263.3,36.9,263.5,37.5,263.5,38.4z M256.3,38.2v1.4h5.5v-1.3c0-0.3-0.1-0.6-0.3-0.8l-0.5-0.5c-0.3-0.2-0.5-0.3-0.7-0.3h-2.3
		c-0.3,0-0.5,0.1-0.8,0.3l-0.5,0.4C256.4,37.7,256.3,38,256.3,38.2z"/>
	<path d="M290.1,38.2v3.8c0,0.8-0.4,1.6-1.1,2.2s-1.5,1-2.4,1h-2.1c-0.8,0-1.6-0.3-2.4-1s-1.1-1.4-1.1-2.2v-3.8
		c0-0.8,0.4-1.5,1.1-2.2c0.7-0.7,1.5-1,2.4-1h2.1c0.8,0,1.6,0.3,2.4,1S290.1,37.4,290.1,38.2z M282.8,38.3V42c0,0.3,0.1,0.6,0.4,0.8
		l0.7,0.6c0.2,0.1,0.4,0.2,0.6,0.2h2.1c0.3,0,0.6-0.1,0.8-0.3l0.5-0.5c0.2-0.2,0.3-0.4,0.3-0.7v-3.7c0-0.4-0.1-0.6-0.3-0.8l-0.6-0.5
		c-0.2-0.2-0.5-0.3-0.8-0.3h-1.9c-0.4,0-0.7,0.1-0.9,0.3l-0.6,0.5C282.9,37.8,282.8,38,282.8,38.3z"/>
	<path d="M298.6,37.1l-2.5,1.6v5.8c0,0.2-0.1,0.5-0.3,0.6c-0.2,0.2-0.4,0.3-0.6,0.3c-0.2,0-0.5-0.1-0.6-0.3
		c-0.2-0.2-0.3-0.4-0.3-0.6v-8.6c0-0.3,0.1-0.5,0.3-0.6c0.2-0.2,0.4-0.3,0.6-0.3c0.2,0,0.5,0.1,0.6,0.3c0.2,0.2,0.3,0.4,0.3,0.6v0.6
		l1.6-1c0.6-0.4,1.2-0.5,1.9-0.5h0.8c0.7,0,1.3,0.3,1.9,0.8c0.5,0.5,0.8,1.1,0.8,1.9l0.2,6.8c0,0.2-0.1,0.5-0.3,0.6
		c-0.2,0.2-0.4,0.3-0.6,0.3c-0.2,0-0.4-0.1-0.6-0.2c-0.2-0.2-0.3-0.4-0.3-0.7l-0.3-6.7c0-0.6-0.4-0.9-1-0.9h-0.9
		C299.2,36.8,298.9,36.9,298.6,37.1z"/>
	<path d="M327.2,45.4h-1.8c-0.7,0-1.4-0.3-1.9-0.8c-0.5-0.5-0.8-1.2-0.8-1.9v-5.9h-0.9c-0.3,0-0.5-0.1-0.6-0.3
		c-0.2-0.2-0.3-0.4-0.3-0.6c0-0.3,0.1-0.5,0.3-0.6c0.2-0.2,0.4-0.3,0.6-0.3h0.9v-2.2c0-0.3,0.1-0.5,0.3-0.6c0.2-0.2,0.4-0.3,0.6-0.3
		c0.2,0,0.4,0.1,0.6,0.3c0.2,0.2,0.3,0.4,0.3,0.6V35h3.6c0.2,0,0.5,0.1,0.6,0.3c0.2,0.2,0.3,0.4,0.3,0.6c0,0.3-0.1,0.5-0.3,0.6
		c-0.2,0.2-0.4,0.3-0.6,0.3h-3.7v5.9c0,0.2,0.1,0.5,0.3,0.6c0.2,0.2,0.4,0.3,0.6,0.3h1.8c0.5,0,0.8-0.3,1-0.8
		c0.2-0.5,0.5-0.8,0.9-0.8c0.3,0,0.5,0.1,0.6,0.3c0.2,0.2,0.3,0.4,0.3,0.7c0,0.5-0.3,1.1-0.8,1.6C328.7,45.1,328,45.4,327.2,45.4z"
		/>
	<path d="M334.2,44.5V32c0-0.2,0.1-0.5,0.3-0.6c0.2-0.2,0.4-0.3,0.6-0.3c0.3,0,0.5,0.1,0.6,0.3c0.2,0.2,0.3,0.4,0.3,0.6v4.6l1.5-0.9
		c0.7-0.4,1.2-0.6,1.8-0.6h1.1c0.7,0,1.4,0.3,1.9,0.8c0.5,0.5,0.8,1.2,0.8,1.9l0.2,6.8c0,0.3-0.1,0.5-0.3,0.6
		c-0.2,0.2-0.4,0.3-0.6,0.3c-0.3,0-0.5-0.1-0.6-0.3s-0.3-0.4-0.3-0.6l-0.2-6.8c0-0.2-0.1-0.5-0.3-0.6c-0.2-0.2-0.4-0.3-0.6-0.3h-1
		c-0.2,0-0.5,0.1-0.8,0.3l-2.6,1.7v5.7c0,0.3-0.1,0.5-0.3,0.6c-0.2,0.2-0.4,0.3-0.6,0.3c-0.3,0-0.5-0.1-0.6-0.3
		C334.2,44.9,334.2,44.7,334.2,44.5z"/>
	<path d="M356.6,38.4v2.2c0,0.2-0.1,0.5-0.3,0.6c-0.2,0.2-0.4,0.3-0.6,0.3h-6.4V42c0,0.3,0.1,0.6,0.4,0.8l0.5,0.4
		c0.3,0.2,0.6,0.3,0.8,0.3h4.6c0.2,0,0.5,0.1,0.6,0.3c0.2,0.2,0.3,0.4,0.3,0.6c0,0.2-0.1,0.5-0.3,0.6c-0.2,0.2-0.4,0.3-0.6,0.3h-4.8
		c-0.3,0-0.6-0.1-1-0.2c-0.3-0.1-0.6-0.3-0.8-0.4l-0.8-0.7c-0.3-0.2-0.5-0.5-0.6-0.8c-0.2-0.4-0.3-0.7-0.3-1v-4.1
		c0-0.2,0.1-0.6,0.3-1c0.2-0.4,0.4-0.7,0.7-0.9l0.8-0.6c0.5-0.4,1-0.6,1.6-0.6h2.5c0.6,0,1.2,0.3,1.8,0.8l0.7,0.6
		C356.3,36.9,356.6,37.5,356.6,38.4z M349.3,38.2v1.4h5.5v-1.3c0-0.3-0.1-0.6-0.3-0.8l-0.5-0.5c-0.3-0.2-0.5-0.3-0.7-0.3h-2.3
		c-0.3,0-0.5,0.1-0.8,0.3l-0.5,0.4C349.4,37.7,349.3,38,349.3,38.2z"/>
	<path d="M383.1,38.4v2.2c0,0.2-0.1,0.5-0.3,0.6c-0.2,0.2-0.4,0.3-0.6,0.3h-6.4V42c0,0.3,0.1,0.6,0.4,0.8l0.5,0.4
		c0.3,0.2,0.6,0.3,0.8,0.3h4.6c0.2,0,0.5,0.1,0.6,0.3c0.2,0.2,0.3,0.4,0.3,0.6c0,0.2-0.1,0.5-0.3,0.6c-0.2,0.2-0.4,0.3-0.6,0.3h-4.8
		c-0.3,0-0.6-0.1-1-0.2c-0.3-0.1-0.6-0.3-0.8-0.4l-0.8-0.7c-0.3-0.2-0.5-0.5-0.6-0.8c-0.2-0.4-0.3-0.7-0.3-1v-4.1
		c0-0.2,0.1-0.6,0.3-1c0.2-0.4,0.4-0.7,0.7-0.9l0.8-0.6c0.5-0.4,1-0.6,1.6-0.6h2.5c0.6,0,1.2,0.3,1.8,0.8l0.7,0.6
		C382.9,36.9,383.1,37.5,383.1,38.4z M375.9,38.2v1.4h5.5v-1.3c0-0.3-0.1-0.6-0.3-0.8l-0.5-0.5c-0.3-0.2-0.5-0.3-0.7-0.3h-2.3
		c-0.3,0-0.5,0.1-0.8,0.3l-0.5,0.4C376,37.7,375.9,38,375.9,38.2z"/>
	<path d="M394.6,48.3v-4.2l-0.7,0.6c-0.6,0.5-1.2,0.7-1.9,0.7h-1.2c-0.7,0-1.3-0.2-1.8-0.6l-0.8-0.7c-0.3-0.2-0.5-0.5-0.6-0.9
		c-0.2-0.4-0.2-0.7-0.2-1.1v-3.8c0-0.9,0.3-1.5,0.8-2l0.7-0.6c0.6-0.5,1.3-0.8,2-0.8h1.3c0.8,0,1.6,0.4,2.5,1.3v-0.4
		c0-0.3,0.1-0.5,0.3-0.6c0.2-0.2,0.4-0.3,0.6-0.3c0.3,0,0.5,0.1,0.6,0.3c0.2,0.2,0.3,0.4,0.3,0.6v12.4c0,0.3-0.1,0.5-0.3,0.7
		c-0.2,0.2-0.4,0.3-0.6,0.3c-0.3,0-0.5-0.1-0.6-0.3C394.7,48.8,394.6,48.6,394.6,48.3z M390.7,43.5h1.3c0.3,0,0.6-0.1,0.7-0.2
		l1.6-1.4c0.2-0.2,0.3-0.5,0.3-0.8V39c0-0.2-0.1-0.5-0.4-0.7l-1.4-1.2c-0.2-0.2-0.5-0.3-0.7-0.3h-1.5c-0.2,0-0.4,0.1-0.5,0.2
		l-0.7,0.6c-0.2,0.2-0.3,0.4-0.3,0.7v3.8c0,0.2,0.1,0.5,0.4,0.7l0.6,0.5C390.3,43.4,390.5,43.5,390.7,43.5z"/>
	<path d="M404.9,43.5l3-1.9v-5.7c0-0.3,0.1-0.5,0.3-0.6c0.2-0.2,0.4-0.3,0.6-0.3s0.5,0.1,0.6,0.3c0.2,0.2,0.3,0.4,0.3,0.6v8.6
		c0,0.2-0.1,0.5-0.3,0.6c-0.2,0.2-0.4,0.3-0.6,0.3s-0.5-0.1-0.6-0.3c-0.2-0.2-0.3-0.4-0.3-0.6v-0.7l-1.6,1c-0.6,0.4-1.2,0.6-1.9,0.6
		h-0.8c-0.7,0-1.4-0.3-1.9-0.8c-0.5-0.5-0.8-1.1-0.8-1.9l-0.3-6.8c0-0.2,0.1-0.4,0.3-0.6c0.2-0.2,0.4-0.3,0.6-0.3
		c0.2,0,0.5,0.1,0.6,0.3c0.2,0.2,0.3,0.4,0.3,0.6l0.2,6.7c0,0.6,0.4,1,1.1,1H404.9z"/>
	<path d="M416.6,38.8h3.5c0.2,0,0.5,0,0.8,0.1l0-1.3c0-0.3-0.1-0.5-0.3-0.6c-0.2-0.2-0.4-0.3-0.6-0.3h-3.4c-0.2,0-0.5-0.1-0.6-0.3
		c-0.2-0.2-0.3-0.4-0.3-0.6c0-0.3,0.1-0.5,0.3-0.6c0.2-0.2,0.4-0.3,0.6-0.3h3.4c0.7,0,1.4,0.3,1.9,0.8c0.5,0.5,0.8,1.2,0.8,1.9
		l0.2,6.8c0,0.3-0.1,0.5-0.3,0.6c-0.2,0.2-0.4,0.3-0.6,0.3c-0.3,0-0.5-0.1-0.7-0.3c-0.2-0.2-0.3-0.4-0.3-0.6l-1.5,0.9h-3.1
		c-0.8,0-1.4-0.3-1.9-0.8c-0.5-0.5-0.8-1.2-0.8-1.9v-1.1c0-0.8,0.3-1.4,0.8-1.9C415.2,39.1,415.8,38.8,416.6,38.8z M421.1,42.4
		l-0.1-0.8c0-0.3-0.1-0.5-0.3-0.6s-0.4-0.3-0.6-0.3h-3.6c-0.3,0-0.5,0.1-0.6,0.3c-0.2,0.2-0.3,0.4-0.3,0.6v1c0,0.2,0.1,0.5,0.3,0.6
		c0.2,0.2,0.4,0.3,0.6,0.3h2.5L421.1,42.4z"/>
	<path d="M433.5,45.4h-1.8c-0.7,0-1.4-0.3-1.9-0.8c-0.5-0.5-0.8-1.2-0.8-1.9v-5.9h-0.9c-0.3,0-0.5-0.1-0.6-0.3
		c-0.2-0.2-0.3-0.4-0.3-0.6c0-0.3,0.1-0.5,0.3-0.6c0.2-0.2,0.4-0.3,0.6-0.3h0.9v-2.2c0-0.3,0.1-0.5,0.3-0.6c0.2-0.2,0.4-0.3,0.6-0.3
		c0.2,0,0.4,0.1,0.6,0.3c0.2,0.2,0.3,0.4,0.3,0.6V35h3.6c0.2,0,0.5,0.1,0.6,0.3c0.2,0.2,0.3,0.4,0.3,0.6c0,0.3-0.1,0.5-0.3,0.6
		c-0.2,0.2-0.4,0.3-0.6,0.3h-3.7v5.9c0,0.2,0.1,0.5,0.3,0.6c0.2,0.2,0.4,0.3,0.6,0.3h1.8c0.5,0,0.8-0.3,1-0.8
		c0.2-0.5,0.5-0.8,0.9-0.8c0.3,0,0.5,0.1,0.6,0.3c0.2,0.2,0.3,0.4,0.3,0.7c0,0.5-0.3,1.1-0.8,1.6C435,45.1,434.3,45.4,433.5,45.4z"
		/>
	<path d="M449.6,38.2v3.8c0,0.8-0.4,1.6-1.1,2.2c-0.8,0.7-1.5,1-2.4,1H444c-0.8,0-1.6-0.3-2.4-1s-1.1-1.4-1.1-2.2v-3.8
		c0-0.8,0.4-1.5,1.1-2.2c0.7-0.7,1.5-1,2.4-1h2.1c0.8,0,1.6,0.3,2.4,1C449.2,36.7,449.6,37.4,449.6,38.2z M442.3,38.3V42
		c0,0.3,0.1,0.6,0.4,0.8l0.7,0.6c0.2,0.1,0.4,0.2,0.6,0.2h2.1c0.3,0,0.6-0.1,0.8-0.3l0.5-0.5c0.2-0.2,0.3-0.4,0.3-0.7v-3.7
		c0-0.4-0.1-0.6-0.3-0.8l-0.6-0.5c-0.2-0.2-0.5-0.3-0.8-0.3h-1.9c-0.4,0-0.7,0.1-0.9,0.3l-0.6,0.5C442.4,37.8,442.3,38,442.3,38.3z"
		/>
	<path d="M453.8,44.5v-8.6c0-0.3,0.1-0.5,0.3-0.6c0.2-0.2,0.4-0.3,0.6-0.3s0.5,0.1,0.6,0.3c0.2,0.2,0.3,0.4,0.3,0.7V37l1.5-1.3
		c0.6-0.5,1.2-0.8,1.8-0.8h1.3c0.7,0,1.4,0.3,1.9,0.8c0.5,0.5,0.8,1.2,0.8,1.9v0.5c0,0.3-0.1,0.5-0.3,0.7c-0.2,0.2-0.4,0.3-0.6,0.3
		s-0.5-0.1-0.6-0.3c-0.2-0.2-0.3-0.4-0.3-0.6v-0.5c0-0.3-0.1-0.5-0.3-0.6c-0.2-0.2-0.4-0.3-0.6-0.3H459c-0.3,0-0.5,0.1-0.8,0.4
		l-2.6,2.2v5c0,0.3-0.1,0.5-0.3,0.6c-0.2,0.2-0.4,0.3-0.6,0.3c-0.3,0-0.5-0.1-0.6-0.3C453.9,44.9,453.8,44.7,453.8,44.5z"/>
	<path d="M486.7,45.4h-1.8c-0.7,0-1.4-0.3-1.9-0.8c-0.5-0.5-0.8-1.2-0.8-1.9v-5.9h-0.9c-0.3,0-0.5-0.1-0.6-0.3
		c-0.2-0.2-0.3-0.4-0.3-0.6c0-0.3,0.1-0.5,0.3-0.6c0.2-0.2,0.4-0.3,0.6-0.3h0.9v-2.2c0-0.3,0.1-0.5,0.3-0.6c0.2-0.2,0.4-0.3,0.6-0.3
		c0.2,0,0.4,0.1,0.6,0.3c0.2,0.2,0.3,0.4,0.3,0.6V35h3.6c0.2,0,0.5,0.1,0.6,0.3c0.2,0.2,0.3,0.4,0.3,0.6c0,0.3-0.1,0.5-0.3,0.6
		c-0.2,0.2-0.4,0.3-0.6,0.3H484v5.9c0,0.2,0.1,0.5,0.3,0.6c0.2,0.2,0.4,0.3,0.6,0.3h1.8c0.5,0,0.8-0.3,1-0.8
		c0.2-0.5,0.5-0.8,0.9-0.8c0.3,0,0.5,0.1,0.6,0.3c0.2,0.2,0.3,0.4,0.3,0.7c0,0.5-0.3,1.1-0.8,1.6C488.1,45.1,487.5,45.4,486.7,45.4z
		"/>
	<path d="M493.6,44.5V32c0-0.2,0.1-0.5,0.3-0.6c0.2-0.2,0.4-0.3,0.6-0.3s0.5,0.1,0.6,0.3c0.2,0.2,0.3,0.4,0.3,0.6v4.6l1.5-0.9
		c0.7-0.4,1.2-0.6,1.8-0.6h1.1c0.7,0,1.4,0.3,1.9,0.8s0.8,1.2,0.8,1.9l0.2,6.8c0,0.3-0.1,0.5-0.3,0.6c-0.2,0.2-0.4,0.3-0.6,0.3
		s-0.5-0.1-0.6-0.3s-0.3-0.4-0.3-0.6l-0.2-6.8c0-0.2-0.1-0.5-0.3-0.6c-0.2-0.2-0.4-0.3-0.6-0.3h-1c-0.2,0-0.5,0.1-0.8,0.3l-2.6,1.7
		v5.7c0,0.3-0.1,0.5-0.3,0.6c-0.2,0.2-0.4,0.3-0.6,0.3s-0.5-0.1-0.6-0.3C493.7,44.9,493.6,44.7,493.6,44.5z"/>
	<path d="M516,38.4v2.2c0,0.2-0.1,0.5-0.3,0.6c-0.2,0.2-0.4,0.3-0.6,0.3h-6.4V42c0,0.3,0.1,0.6,0.4,0.8l0.5,0.4
		c0.3,0.2,0.6,0.3,0.8,0.3h4.6c0.2,0,0.5,0.1,0.6,0.3c0.2,0.2,0.3,0.4,0.3,0.6c0,0.2-0.1,0.5-0.3,0.6c-0.2,0.2-0.4,0.3-0.6,0.3h-4.8
		c-0.3,0-0.6-0.1-1-0.2c-0.3-0.1-0.6-0.3-0.8-0.4l-0.8-0.7c-0.3-0.2-0.5-0.5-0.6-0.8c-0.2-0.4-0.3-0.7-0.3-1v-4.1
		c0-0.2,0.1-0.6,0.3-1c0.2-0.4,0.4-0.7,0.7-0.9l0.8-0.6c0.5-0.4,1-0.6,1.6-0.6h2.5c0.6,0,1.2,0.3,1.8,0.8l0.7,0.6
		C515.8,36.9,516,37.5,516,38.4z M508.8,38.2v1.4h5.5v-1.3c0-0.3-0.1-0.6-0.3-0.8l-0.5-0.5c-0.3-0.2-0.5-0.3-0.7-0.3h-2.3
		c-0.3,0-0.5,0.1-0.8,0.3l-0.5,0.4C508.9,37.7,508.8,38,508.8,38.2z"/>
	<path d="M533.5,44.5v-8.6c0-0.3,0.1-0.5,0.3-0.6c0.2-0.2,0.4-0.3,0.6-0.3s0.5,0.1,0.6,0.3c0.2,0.2,0.3,0.4,0.3,0.7V37l1.5-1.3
		c0.6-0.5,1.2-0.8,1.8-0.8h1.3c0.7,0,1.4,0.3,1.9,0.8c0.5,0.5,0.8,1.2,0.8,1.9v0.5c0,0.3-0.1,0.5-0.3,0.7c-0.2,0.2-0.4,0.3-0.6,0.3
		s-0.5-0.1-0.6-0.3c-0.2-0.2-0.3-0.4-0.3-0.6v-0.5c0-0.3-0.1-0.5-0.3-0.6c-0.2-0.2-0.4-0.3-0.6-0.3h-1.2c-0.3,0-0.5,0.1-0.8,0.4
		l-2.6,2.2v5c0,0.3-0.1,0.5-0.3,0.6c-0.2,0.2-0.4,0.3-0.6,0.3c-0.3,0-0.5-0.1-0.6-0.3C533.6,44.9,533.5,44.7,533.5,44.5z"/>
	<path d="M555.9,38.4v2.2c0,0.2-0.1,0.5-0.3,0.6c-0.2,0.2-0.4,0.3-0.6,0.3h-6.4V42c0,0.3,0.1,0.6,0.4,0.8l0.5,0.4
		c0.3,0.2,0.6,0.3,0.8,0.3h4.6c0.2,0,0.5,0.1,0.6,0.3c0.2,0.2,0.3,0.4,0.3,0.6c0,0.2-0.1,0.5-0.3,0.6c-0.2,0.2-0.4,0.3-0.6,0.3h-4.8
		c-0.3,0-0.6-0.1-1-0.2c-0.3-0.1-0.6-0.3-0.8-0.4l-0.8-0.7c-0.3-0.2-0.5-0.5-0.6-0.8c-0.2-0.4-0.3-0.7-0.3-1v-4.1
		c0-0.2,0.1-0.6,0.3-1c0.2-0.4,0.4-0.7,0.7-0.9l0.8-0.6c0.5-0.4,1-0.6,1.6-0.6h2.5c0.6,0,1.2,0.3,1.8,0.8l0.7,0.6
		C555.6,36.9,555.9,37.5,555.9,38.4z M548.6,38.2v1.4h5.5v-1.3c0-0.3-0.1-0.6-0.3-0.8l-0.5-0.5c-0.3-0.2-0.5-0.3-0.7-0.3h-2.3
		c-0.3,0-0.5,0.1-0.8,0.3l-0.5,0.4C548.7,37.7,548.6,38,548.6,38.2z"/>
	<path d="M562.6,35h4.1c0.6,0,1.2,0.2,1.7,0.6c0.5,0.4,0.7,0.8,0.7,1.1c0,0.3-0.1,0.5-0.3,0.6c-0.2,0.2-0.4,0.2-0.6,0.2
		c-0.3,0-0.5-0.1-0.8-0.4s-0.5-0.4-0.7-0.4h-4.1c-0.4,0-0.6,0.2-0.6,0.5c0,0.2,0.1,0.4,0.4,0.5l4.8,2.1c0.5,0.2,0.9,0.6,1.2,1
		c0.3,0.5,0.5,1,0.5,1.6c0,0.8-0.3,1.4-0.8,2c-0.5,0.5-1.2,0.8-1.9,0.8h-3.7c-0.6,0-1.2-0.2-1.8-0.6c-0.5-0.4-0.8-0.7-0.8-1.1
		c0-0.2,0.1-0.4,0.3-0.6c0.2-0.2,0.4-0.3,0.7-0.3c0.2,0,0.5,0.1,0.7,0.4c0.3,0.3,0.6,0.4,1.1,0.4h3.4c0.3,0,0.5-0.1,0.7-0.3
		s0.3-0.4,0.3-0.7c0-0.4-0.2-0.7-0.6-0.9l-4.8-2.2c-0.5-0.2-0.8-0.5-1.1-0.9c-0.3-0.4-0.4-0.8-0.4-1.2c0-0.6,0.2-1.2,0.7-1.7
		C561.4,35.2,561.9,35,562.6,35z"/>
	<path d="M579.7,45.4h-1.8c-0.7,0-1.4-0.3-1.9-0.8c-0.5-0.5-0.8-1.2-0.8-1.9v-5.9h-0.9c-0.3,0-0.5-0.1-0.6-0.3
		c-0.2-0.2-0.3-0.4-0.3-0.6c0-0.3,0.1-0.5,0.3-0.6c0.2-0.2,0.4-0.3,0.6-0.3h0.9v-2.2c0-0.3,0.1-0.5,0.3-0.6c0.2-0.2,0.4-0.3,0.6-0.3
		c0.2,0,0.4,0.1,0.6,0.3c0.2,0.2,0.3,0.4,0.3,0.6V35h3.6c0.2,0,0.5,0.1,0.6,0.3c0.2,0.2,0.3,0.4,0.3,0.6c0,0.3-0.1,0.5-0.3,0.6
		c-0.2,0.2-0.4,0.3-0.6,0.3H577v5.9c0,0.2,0.1,0.5,0.3,0.6c0.2,0.2,0.4,0.3,0.6,0.3h1.8c0.5,0,0.8-0.3,1-0.8
		c0.2-0.5,0.5-0.8,0.9-0.8c0.3,0,0.5,0.1,0.6,0.3c0.2,0.2,0.3,0.4,0.3,0.7c0,0.5-0.3,1.1-0.8,1.6C581.2,45.1,580.5,45.4,579.7,45.4z
		"/>
	<path d="M609,38.2v3.8c0,0.8-0.4,1.6-1.1,2.2c-0.8,0.7-1.5,1-2.4,1h-2.1c-0.8,0-1.6-0.3-2.4-1s-1.1-1.4-1.1-2.2v-3.8
		c0-0.8,0.4-1.5,1.1-2.2c0.7-0.7,1.5-1,2.4-1h2.1c0.8,0,1.6,0.3,2.4,1C608.6,36.7,609,37.4,609,38.2z M601.7,38.3V42
		c0,0.3,0.1,0.6,0.4,0.8l0.7,0.6c0.2,0.1,0.4,0.2,0.6,0.2h2.1c0.3,0,0.6-0.1,0.8-0.3l0.5-0.5c0.2-0.2,0.3-0.4,0.3-0.7v-3.7
		c0-0.4-0.1-0.6-0.3-0.8l-0.6-0.5c-0.2-0.2-0.5-0.3-0.8-0.3h-1.9c-0.4,0-0.7,0.1-0.9,0.3l-0.6,0.5C601.9,37.8,601.7,38,601.7,38.3z"
		/>
	<path d="M617.3,36.8v7.7c0,0.3-0.1,0.5-0.3,0.6c-0.2,0.2-0.4,0.3-0.6,0.3c-0.3,0-0.5-0.1-0.7-0.3c-0.2-0.2-0.3-0.4-0.3-0.6v-7.7
		h-0.9c-0.3,0-0.5-0.1-0.6-0.3c-0.2-0.2-0.3-0.4-0.3-0.6c0-0.2,0.1-0.4,0.2-0.6c0.2-0.2,0.4-0.3,0.7-0.3h0.9v-0.7
		c0-0.9,0.3-1.7,1-2.3c0.6-0.6,1.4-0.9,2.4-0.9h2.1c0.3,0,0.5,0.1,0.6,0.3c0.2,0.2,0.3,0.4,0.3,0.7c0,0.2-0.1,0.5-0.3,0.6
		c-0.2,0.2-0.4,0.3-0.6,0.3h-2.1c-0.4,0-0.8,0.1-1.1,0.4c-0.3,0.3-0.4,0.6-0.4,1V35h1.8c0.2,0,0.5,0.1,0.6,0.3
		c0.2,0.2,0.3,0.4,0.3,0.6c0,0.2-0.1,0.5-0.3,0.6c-0.2,0.2-0.4,0.3-0.6,0.3H617.3z"/>
	<path d="M648.9,37.6l-4.9,11c-0.2,0.4-0.5,0.6-0.9,0.6h-2.5c-0.3,0-0.5-0.1-0.6-0.3c-0.2-0.2-0.3-0.4-0.3-0.6
		c0-0.3,0.1-0.5,0.3-0.6c0.2-0.2,0.4-0.3,0.6-0.3h1.9l1.2-2.9h-0.4c-0.4,0-0.7-0.2-0.9-0.6l-2.7-6.3v-1.7c0-0.3,0.1-0.5,0.3-0.6
		c0.2-0.2,0.4-0.3,0.6-0.3c0.3,0,0.5,0.1,0.6,0.3c0.2,0.2,0.3,0.4,0.3,0.6v1.3l2.4,5.5h0.6l2.5-5.5l0-1.4c0-0.2,0.1-0.4,0.3-0.6
		c0.2-0.2,0.4-0.3,0.6-0.3c0.2,0,0.5,0.1,0.6,0.3c0.2,0.2,0.3,0.4,0.3,0.6V37.6z"/>
	<path d="M662.2,38.2v3.8c0,0.8-0.4,1.6-1.1,2.2c-0.8,0.7-1.5,1-2.4,1h-2.1c-0.8,0-1.6-0.3-2.4-1s-1.1-1.4-1.1-2.2v-3.8
		c0-0.8,0.4-1.5,1.1-2.2c0.7-0.7,1.5-1,2.4-1h2.1c0.8,0,1.6,0.3,2.4,1C661.8,36.7,662.2,37.4,662.2,38.2z M654.9,38.3V42
		c0,0.3,0.1,0.6,0.4,0.8l0.7,0.6c0.2,0.1,0.4,0.2,0.6,0.2h2.1c0.3,0,0.6-0.1,0.8-0.3l0.5-0.5c0.2-0.2,0.3-0.4,0.3-0.7v-3.7
		c0-0.4-0.1-0.6-0.3-0.8l-0.6-0.5c-0.2-0.2-0.5-0.3-0.8-0.3h-1.9c-0.4,0-0.7,0.1-0.9,0.3l-0.6,0.5C655,37.8,654.9,38,654.9,38.3z"/>
	<path d="M670.7,43.5l3-1.9v-5.7c0-0.3,0.1-0.5,0.3-0.6c0.2-0.2,0.4-0.3,0.6-0.3s0.5,0.1,0.6,0.3c0.2,0.2,0.3,0.4,0.3,0.6v8.6
		c0,0.2-0.1,0.5-0.3,0.6c-0.2,0.2-0.4,0.3-0.6,0.3s-0.5-0.1-0.6-0.3c-0.2-0.2-0.3-0.4-0.3-0.6v-0.7l-1.6,1c-0.6,0.4-1.2,0.6-1.9,0.6
		h-0.8c-0.7,0-1.4-0.3-1.9-0.8c-0.5-0.5-0.8-1.1-0.8-1.9l-0.3-6.8c0-0.2,0.1-0.4,0.3-0.6c0.2-0.2,0.4-0.3,0.6-0.3
		c0.2,0,0.5,0.1,0.6,0.3c0.2,0.2,0.3,0.4,0.3,0.6l0.2,6.7c0,0.6,0.4,1,1.1,1H670.7z"/>
	<path d="M679.7,44.5v-8.6c0-0.3,0.1-0.5,0.3-0.6c0.2-0.2,0.4-0.3,0.6-0.3s0.5,0.1,0.6,0.3c0.2,0.2,0.3,0.4,0.3,0.7V37l1.5-1.3
		c0.6-0.5,1.2-0.8,1.8-0.8h1.3c0.7,0,1.4,0.3,1.9,0.8c0.5,0.5,0.8,1.2,0.8,1.9v0.5c0,0.3-0.1,0.5-0.3,0.7c-0.2,0.2-0.4,0.3-0.6,0.3
		s-0.5-0.1-0.6-0.3c-0.2-0.2-0.3-0.4-0.3-0.6v-0.5c0-0.3-0.1-0.5-0.3-0.6c-0.2-0.2-0.4-0.3-0.6-0.3h-1.2c-0.3,0-0.5,0.1-0.8,0.4
		l-2.6,2.2v5c0,0.3-0.1,0.5-0.3,0.6c-0.2,0.2-0.4,0.3-0.6,0.3c-0.3,0-0.5-0.1-0.6-0.3C679.8,44.9,679.7,44.7,679.7,44.5z"/>
	<path d="M713.5,45.4h-5.5c-0.3,0-0.5-0.1-0.6-0.3c-0.2-0.2-0.3-0.4-0.3-0.6c0-0.2,0.1-0.5,0.3-0.6c0.2-0.2,0.4-0.3,0.6-0.3h1.8
		V32.9H708c-0.3,0-0.5-0.1-0.6-0.3c-0.2-0.2-0.3-0.4-0.3-0.6c0-0.3,0.1-0.5,0.3-0.6c0.2-0.2,0.4-0.3,0.6-0.3h2.8
		c0.2,0,0.5,0.1,0.6,0.3c0.2,0.2,0.3,0.4,0.3,0.6v11.5h1.8c0.2,0,0.5,0.1,0.6,0.3c0.2,0.2,0.3,0.4,0.3,0.6c0,0.3-0.1,0.5-0.3,0.6
		C714,45.3,713.8,45.4,713.5,45.4z"/>
	<path d="M726.8,45.3h-5.5c-0.3,0-0.5-0.1-0.6-0.3c-0.2-0.2-0.3-0.4-0.3-0.6c0-0.2,0.1-0.5,0.3-0.6c0.2-0.2,0.4-0.3,0.6-0.3h1.8
		v-6.7h-1.8c-0.3,0-0.5-0.1-0.6-0.3c-0.2-0.2-0.3-0.4-0.3-0.6c0-0.3,0.1-0.5,0.3-0.6c0.2-0.2,0.4-0.3,0.6-0.3h2.8
		c0.3,0,0.5,0.1,0.6,0.3c0.2,0.2,0.3,0.4,0.3,0.6v7.6h1.8c0.3,0,0.5,0.1,0.6,0.3c0.2,0.2,0.3,0.4,0.3,0.6c0,0.3-0.1,0.5-0.3,0.6
		C727.3,45.2,727.1,45.3,726.8,45.3z M723.1,30.3h0.9c0.3,0,0.5,0.1,0.6,0.3c0.2,0.2,0.3,0.4,0.3,0.6V32c0,0.3-0.1,0.5-0.3,0.6
		c-0.2,0.2-0.4,0.3-0.6,0.3h-1c-0.3,0-0.5-0.1-0.6-0.3c-0.2-0.2-0.3-0.4-0.3-0.6l0-0.8c0-0.3,0.1-0.5,0.3-0.6
		C722.7,30.4,722.9,30.3,723.1,30.3z"/>
	<path d="M736.9,36.8v7.7c0,0.3-0.1,0.5-0.3,0.6c-0.2,0.2-0.4,0.3-0.6,0.3c-0.3,0-0.5-0.1-0.7-0.3c-0.2-0.2-0.3-0.4-0.3-0.6v-7.7
		h-0.9c-0.3,0-0.5-0.1-0.6-0.3c-0.2-0.2-0.3-0.4-0.3-0.6c0-0.2,0.1-0.4,0.2-0.6c0.2-0.2,0.4-0.3,0.7-0.3h0.9v-0.7
		c0-0.9,0.3-1.7,1-2.3c0.6-0.6,1.4-0.9,2.4-0.9h2.1c0.3,0,0.5,0.1,0.6,0.3c0.2,0.2,0.3,0.4,0.3,0.7c0,0.2-0.1,0.5-0.3,0.6
		c-0.2,0.2-0.4,0.3-0.6,0.3h-2.1c-0.4,0-0.8,0.1-1.1,0.4c-0.3,0.3-0.4,0.6-0.4,1V35h1.8c0.2,0,0.5,0.1,0.6,0.3
		c0.2,0.2,0.3,0.4,0.3,0.6c0,0.2-0.1,0.5-0.3,0.6c-0.2,0.2-0.4,0.3-0.6,0.3H736.9z"/>
	<path d="M755.2,38.4v2.2c0,0.2-0.1,0.5-0.3,0.6c-0.2,0.2-0.4,0.3-0.6,0.3h-6.4V42c0,0.3,0.1,0.6,0.4,0.8l0.5,0.4
		c0.3,0.2,0.6,0.3,0.8,0.3h4.6c0.2,0,0.5,0.1,0.6,0.3c0.2,0.2,0.3,0.4,0.3,0.6c0,0.2-0.1,0.5-0.3,0.6c-0.2,0.2-0.4,0.3-0.6,0.3h-4.8
		c-0.3,0-0.6-0.1-1-0.2c-0.3-0.1-0.6-0.3-0.8-0.4L747,44c-0.3-0.2-0.5-0.5-0.6-0.8c-0.2-0.4-0.3-0.7-0.3-1v-4.1c0-0.2,0.1-0.6,0.3-1
		c0.2-0.4,0.4-0.7,0.7-0.9l0.8-0.6c0.5-0.4,1-0.6,1.6-0.6h2.5c0.6,0,1.2,0.3,1.8,0.8l0.7,0.6C755,36.9,755.2,37.5,755.2,38.4z
		 M747.9,38.2v1.4h5.5v-1.3c0-0.3-0.1-0.6-0.3-0.8l-0.5-0.5c-0.3-0.2-0.5-0.3-0.7-0.3h-2.3c-0.3,0-0.5,0.1-0.8,0.3l-0.5,0.4
		C748.1,37.7,747.9,38,747.9,38.2z"/>
	<path d="M73.9,65.4v2.1l1.2,2.1l0.6-2.1l0.2-5.3c0-0.2,0.1-0.5,0.3-0.6c0.2-0.2,0.4-0.3,0.6-0.3c0.3,0,0.5,0.1,0.6,0.3
		c0.2,0.2,0.3,0.4,0.3,0.6l-0.2,5.6l-1,3.2c-0.1,0.4-0.4,0.7-0.8,0.7h-1c-0.3,0-0.6-0.2-0.8-0.5l-1-1.7l-1,1.7
		c-0.2,0.3-0.5,0.5-0.8,0.5h-0.9c-0.2,0-0.4-0.1-0.6-0.2c-0.2-0.1-0.3-0.3-0.3-0.4l-0.9-3.3l-0.2-5.5c0-0.2,0.1-0.4,0.3-0.6
		c0.2-0.2,0.4-0.3,0.7-0.3c0.2,0,0.4,0.1,0.6,0.3c0.2,0.2,0.3,0.4,0.3,0.6l0.2,5.3l0.6,2l1.3-2.1v-2.1c0-0.2,0.1-0.5,0.3-0.6
		c0.2-0.2,0.4-0.3,0.7-0.3c0.2,0,0.5,0.1,0.6,0.3C73.8,64.9,73.9,65.1,73.9,65.4z"/>
	<path d="M89,71.7h-5.5c-0.3,0-0.5-0.1-0.6-0.3c-0.2-0.2-0.3-0.4-0.3-0.6c0-0.2,0.1-0.5,0.3-0.6c0.2-0.2,0.4-0.3,0.6-0.3h1.8v-6.7
		h-1.8c-0.3,0-0.5-0.1-0.6-0.3c-0.2-0.2-0.3-0.4-0.3-0.6c0-0.3,0.1-0.5,0.3-0.6c0.2-0.2,0.4-0.3,0.6-0.3h2.8c0.3,0,0.5,0.1,0.6,0.3
		c0.2,0.2,0.3,0.4,0.3,0.6v7.6H89c0.3,0,0.5,0.1,0.6,0.3c0.2,0.2,0.3,0.4,0.3,0.6c0,0.3-0.1,0.5-0.3,0.6
		C89.4,71.6,89.2,71.7,89,71.7z M85.3,56.7h0.9c0.3,0,0.5,0.1,0.6,0.3c0.2,0.2,0.3,0.4,0.3,0.6v0.8c0,0.3-0.1,0.5-0.3,0.6
		c-0.2,0.2-0.4,0.3-0.6,0.3h-1c-0.3,0-0.5-0.1-0.6-0.3c-0.2-0.2-0.3-0.4-0.3-0.6l0-0.8c0-0.3,0.1-0.5,0.3-0.6
		C84.9,56.8,85.1,56.7,85.3,56.7z"/>
	<path d="M101.3,71.8h-1.8c-0.7,0-1.4-0.3-1.9-0.8c-0.5-0.5-0.8-1.2-0.8-1.9v-5.9h-0.9c-0.3,0-0.5-0.1-0.6-0.3
		c-0.2-0.2-0.3-0.4-0.3-0.6c0-0.3,0.1-0.5,0.3-0.6c0.2-0.2,0.4-0.3,0.6-0.3h0.9v-2.2c0-0.3,0.1-0.5,0.3-0.6c0.2-0.2,0.4-0.3,0.6-0.3
		c0.2,0,0.4,0.1,0.6,0.3c0.2,0.2,0.3,0.4,0.3,0.6v2.2h3.6c0.2,0,0.5,0.1,0.6,0.3c0.2,0.2,0.3,0.4,0.3,0.6c0,0.3-0.1,0.5-0.3,0.6
		c-0.2,0.2-0.4,0.3-0.6,0.3h-3.7V69c0,0.2,0.1,0.5,0.3,0.6c0.2,0.2,0.4,0.3,0.6,0.3h1.8c0.5,0,0.8-0.3,1-0.8
		c0.2-0.5,0.5-0.8,0.9-0.8c0.3,0,0.5,0.1,0.6,0.3c0.2,0.2,0.3,0.4,0.3,0.7c0,0.5-0.3,1.1-0.8,1.6C102.8,71.5,102.1,71.8,101.3,71.8z
		"/>
	<path d="M108.3,70.9V58.4c0-0.2,0.1-0.5,0.3-0.6c0.2-0.2,0.4-0.3,0.6-0.3c0.3,0,0.5,0.1,0.6,0.3c0.2,0.2,0.3,0.4,0.3,0.6V63
		l1.5-0.9c0.7-0.4,1.2-0.6,1.8-0.6h1.1c0.7,0,1.4,0.3,1.9,0.8c0.5,0.5,0.8,1.2,0.8,1.9l0.2,6.8c0,0.3-0.1,0.5-0.3,0.6
		c-0.2,0.2-0.4,0.3-0.6,0.3c-0.3,0-0.5-0.1-0.6-0.3s-0.3-0.4-0.3-0.6l-0.2-6.8c0-0.2-0.1-0.5-0.3-0.6c-0.2-0.2-0.4-0.3-0.6-0.3h-1
		c-0.2,0-0.5,0.1-0.8,0.3l-2.6,1.7v5.7c0,0.3-0.1,0.5-0.3,0.6c-0.2,0.2-0.4,0.3-0.6,0.3c-0.3,0-0.5-0.1-0.6-0.3
		C108.3,71.3,108.3,71.1,108.3,70.9z"/>
	<path d="M143.9,64.6v3.8c0,0.8-0.4,1.6-1.1,2.2s-1.5,1-2.4,1h-2.1c-0.8,0-1.6-0.3-2.4-1s-1.1-1.4-1.1-2.2v-3.8
		c0-0.8,0.4-1.5,1.1-2.2c0.7-0.7,1.5-1,2.4-1h2.1c0.8,0,1.6,0.3,2.4,1S143.9,63.8,143.9,64.6z M136.7,64.7v3.7
		c0,0.3,0.1,0.6,0.4,0.8l0.7,0.6c0.2,0.1,0.4,0.2,0.6,0.2h2.1c0.3,0,0.6-0.1,0.8-0.3l0.5-0.5c0.2-0.2,0.3-0.4,0.3-0.7v-3.7
		c0-0.4-0.1-0.6-0.3-0.8l-0.6-0.5c-0.2-0.2-0.5-0.3-0.8-0.3h-1.9c-0.4,0-0.7,0.1-0.9,0.3L137,64C136.8,64.2,136.7,64.4,136.7,64.7z"
		/>
	<path d="M152.4,63.5l-2.5,1.6v5.8c0,0.2-0.1,0.5-0.3,0.6c-0.2,0.2-0.4,0.3-0.6,0.3c-0.2,0-0.5-0.1-0.6-0.3
		c-0.2-0.2-0.3-0.4-0.3-0.6v-8.6c0-0.3,0.1-0.5,0.3-0.6c0.2-0.2,0.4-0.3,0.6-0.3c0.2,0,0.5,0.1,0.6,0.3c0.2,0.2,0.3,0.4,0.3,0.6v0.6
		l1.6-1c0.6-0.4,1.2-0.5,1.9-0.5h0.8c0.7,0,1.3,0.3,1.9,0.8c0.5,0.5,0.8,1.1,0.8,1.9l0.2,6.8c0,0.2-0.1,0.5-0.3,0.6
		c-0.2,0.2-0.4,0.3-0.6,0.3c-0.2,0-0.4-0.1-0.6-0.2c-0.2-0.2-0.3-0.4-0.3-0.7l-0.3-6.7c0-0.6-0.4-0.9-1-0.9h-0.9
		C153,63.2,152.7,63.3,152.4,63.5z"/>
	<path d="M168.7,71.8h-5.5c-0.3,0-0.5-0.1-0.6-0.3c-0.2-0.2-0.3-0.4-0.3-0.6c0-0.2,0.1-0.5,0.3-0.6c0.2-0.2,0.4-0.3,0.6-0.3h1.8
		V59.3h-1.8c-0.3,0-0.5-0.1-0.6-0.3c-0.2-0.2-0.3-0.4-0.3-0.6c0-0.3,0.1-0.5,0.3-0.6c0.2-0.2,0.4-0.3,0.6-0.3h2.8
		c0.2,0,0.5,0.1,0.6,0.3c0.2,0.2,0.3,0.4,0.3,0.6v11.5h1.8c0.2,0,0.5,0.1,0.6,0.3c0.2,0.2,0.3,0.4,0.3,0.6c0,0.3-0.1,0.5-0.3,0.6
		C169.2,71.7,169,71.8,168.7,71.8z"/>
	<path d="M183.8,64L179,75c-0.2,0.4-0.5,0.6-0.9,0.6h-2.5c-0.3,0-0.5-0.1-0.6-0.3s-0.3-0.4-0.3-0.6c0-0.3,0.1-0.5,0.3-0.6
		c0.2-0.2,0.4-0.3,0.6-0.3h1.9l1.2-2.9h-0.4c-0.4,0-0.7-0.2-0.9-0.6l-2.7-6.3v-1.7c0-0.3,0.1-0.5,0.3-0.6c0.2-0.2,0.4-0.3,0.6-0.3
		c0.3,0,0.5,0.1,0.6,0.3c0.2,0.2,0.3,0.4,0.3,0.6l0,1.3l2.4,5.5h0.6l2.5-5.5l0-1.4c0-0.2,0.1-0.4,0.3-0.6c0.2-0.2,0.4-0.3,0.6-0.3
		c0.2,0,0.5,0.1,0.6,0.3c0.2,0.2,0.3,0.4,0.3,0.6V64z"/>
	<path d="M208.6,71.8h-5.5c-0.3,0-0.5-0.1-0.6-0.3c-0.2-0.2-0.3-0.4-0.3-0.6c0-0.2,0.1-0.5,0.3-0.6c0.2-0.2,0.4-0.3,0.6-0.3h1.8
		V59.3h-1.8c-0.3,0-0.5-0.1-0.6-0.3c-0.2-0.2-0.3-0.4-0.3-0.6c0-0.3,0.1-0.5,0.3-0.6c0.2-0.2,0.4-0.3,0.6-0.3h2.8
		c0.2,0,0.5,0.1,0.6,0.3c0.2,0.2,0.3,0.4,0.3,0.6v11.5h1.8c0.2,0,0.5,0.1,0.6,0.3c0.2,0.2,0.3,0.4,0.3,0.6c0,0.3-0.1,0.5-0.3,0.6
		C209,71.7,208.8,71.8,208.6,71.8z"/>
	<path d="M223.7,64.8V67c0,0.2-0.1,0.5-0.3,0.6c-0.2,0.2-0.4,0.3-0.6,0.3h-6.4v0.5c0,0.3,0.1,0.6,0.4,0.8l0.5,0.4
		c0.3,0.2,0.6,0.3,0.8,0.3h4.6c0.2,0,0.5,0.1,0.6,0.3c0.2,0.2,0.3,0.4,0.3,0.6c0,0.2-0.1,0.5-0.3,0.6c-0.2,0.2-0.4,0.3-0.6,0.3H218
		c-0.3,0-0.6-0.1-1-0.2c-0.3-0.1-0.6-0.3-0.8-0.4l-0.8-0.7c-0.3-0.2-0.5-0.5-0.6-0.8c-0.2-0.4-0.3-0.7-0.3-1v-4.1
		c0-0.2,0.1-0.6,0.3-1c0.2-0.4,0.4-0.7,0.7-0.9l0.8-0.6c0.5-0.4,1-0.6,1.6-0.6h2.5c0.6,0,1.2,0.3,1.8,0.8l0.7,0.6
		C223.4,63.3,223.7,63.9,223.7,64.8z M216.4,64.6V66h5.5v-1.3c0-0.3-0.1-0.6-0.3-0.8l-0.5-0.5c-0.3-0.2-0.5-0.3-0.7-0.3h-2.3
		c-0.3,0-0.5,0.1-0.8,0.3l-0.5,0.4C216.5,64.1,216.4,64.4,216.4,64.6z"/>
	<path d="M233.5,75.6h-3.9c-0.3,0-0.5-0.1-0.6-0.3c-0.2-0.2-0.3-0.4-0.3-0.6c0-0.3,0.1-0.5,0.3-0.6c0.2-0.2,0.4-0.3,0.6-0.3h3.9
		c0.2,0,0.5-0.1,0.7-0.3l0.6-0.5c0.2-0.2,0.3-0.4,0.3-0.6v-2.8c-0.8,0.9-1.7,1.3-2.5,1.3h-1.4c-0.7,0-1.4-0.2-1.9-0.7l-0.7-0.6
		c-0.2-0.2-0.4-0.5-0.6-0.8c-0.2-0.4-0.2-0.7-0.2-1.1v-3c0-0.4,0.1-0.8,0.2-1.2c0.2-0.4,0.4-0.7,0.6-0.8l0.7-0.6
		c0.5-0.5,1.2-0.7,1.9-0.7h1.3c0.7,0,1.4,0.3,1.9,0.8l0.6,0.5l0-0.4c0-0.2,0.1-0.5,0.3-0.6c0.2-0.2,0.4-0.3,0.6-0.3
		c0.3,0,0.5,0.1,0.6,0.3c0.2,0.2,0.3,0.4,0.3,0.6v10.1c0,0.8-0.3,1.4-0.9,2l-0.7,0.6c-0.2,0.2-0.4,0.3-0.8,0.4
		C234.2,75.6,233.8,75.6,233.5,75.6z M232.5,63.2h-1.2c-0.3,0-0.5,0.1-0.8,0.3l-0.6,0.5c-0.2,0.2-0.3,0.4-0.3,0.7v3
		c0,0.2,0.1,0.5,0.4,0.7l0.6,0.5c0.2,0.2,0.4,0.2,0.6,0.2h1.5c0.2,0,0.5-0.1,0.7-0.3l1.4-1.2c0.2-0.2,0.3-0.4,0.3-0.7v-1.4
		c0-0.3-0.1-0.6-0.4-0.8l-1.5-1.3C233.1,63.3,232.8,63.2,232.5,63.2z"/>
	<path d="M250.3,64.6v3.8c0,0.8-0.4,1.6-1.1,2.2s-1.5,1-2.4,1h-2.1c-0.8,0-1.6-0.3-2.4-1s-1.1-1.4-1.1-2.2v-3.8
		c0-0.8,0.4-1.5,1.1-2.2c0.7-0.7,1.5-1,2.4-1h2.1c0.8,0,1.6,0.3,2.4,1S250.3,63.8,250.3,64.6z M243,64.7v3.7c0,0.3,0.1,0.6,0.4,0.8
		l0.7,0.6c0.2,0.1,0.4,0.2,0.6,0.2h2.1c0.3,0,0.6-0.1,0.8-0.3l0.5-0.5c0.2-0.2,0.3-0.4,0.3-0.7v-3.7c0-0.4-0.1-0.6-0.3-0.8l-0.6-0.5
		c-0.2-0.2-0.5-0.3-0.8-0.3h-1.9c-0.4,0-0.7,0.1-0.9,0.3l-0.6,0.5C243.1,64.2,243,64.4,243,64.7z"/>
	<path d="M257,61.4h4.1c0.6,0,1.2,0.2,1.7,0.6c0.5,0.4,0.7,0.8,0.7,1.1c0,0.3-0.1,0.5-0.3,0.6c-0.2,0.2-0.4,0.2-0.6,0.2
		c-0.3,0-0.5-0.1-0.8-0.4s-0.5-0.4-0.7-0.4h-4.1c-0.4,0-0.6,0.2-0.6,0.5c0,0.2,0.1,0.4,0.4,0.5l4.8,2.1c0.5,0.2,0.9,0.6,1.2,1
		c0.3,0.5,0.5,1,0.5,1.6c0,0.8-0.3,1.4-0.8,2s-1.2,0.8-1.9,0.8H257c-0.6,0-1.2-0.2-1.8-0.6c-0.5-0.4-0.8-0.7-0.8-1.1
		c0-0.2,0.1-0.4,0.3-0.6c0.2-0.2,0.4-0.3,0.7-0.3c0.2,0,0.5,0.1,0.7,0.4c0.3,0.3,0.6,0.4,1.1,0.4h3.4c0.3,0,0.5-0.1,0.7-0.3
		c0.2-0.2,0.3-0.4,0.3-0.7c0-0.4-0.2-0.7-0.6-0.9l-4.8-2.2c-0.5-0.2-0.8-0.5-1.1-0.9c-0.3-0.4-0.4-0.8-0.4-1.2
		c0-0.6,0.2-1.2,0.7-1.7C255.8,61.6,256.3,61.4,257,61.4z"/>
	<path d="M283.7,65.2h3.5c0.2,0,0.5,0,0.8,0.1l0-1.3c0-0.3-0.1-0.5-0.3-0.6c-0.2-0.2-0.4-0.3-0.6-0.3h-3.4c-0.2,0-0.5-0.1-0.6-0.3
		c-0.2-0.2-0.3-0.4-0.3-0.6c0-0.3,0.1-0.5,0.3-0.6c0.2-0.2,0.4-0.3,0.6-0.3h3.4c0.7,0,1.4,0.3,1.9,0.8c0.5,0.5,0.8,1.2,0.8,1.9
		l0.2,6.8c0,0.3-0.1,0.5-0.3,0.6c-0.2,0.2-0.4,0.3-0.6,0.3c-0.3,0-0.5-0.1-0.7-0.3c-0.2-0.2-0.3-0.4-0.3-0.6l-1.5,0.9h-3.1
		c-0.8,0-1.4-0.3-1.9-0.8c-0.5-0.5-0.8-1.2-0.8-1.9V68c0-0.8,0.3-1.4,0.8-1.9C282.3,65.5,283,65.2,283.7,65.2z M288.2,68.8l-0.1-0.8
		c0-0.3-0.1-0.5-0.3-0.6s-0.4-0.3-0.6-0.3h-3.6c-0.3,0-0.5,0.1-0.6,0.3c-0.2,0.2-0.3,0.4-0.3,0.6v1c0,0.2,0.1,0.5,0.3,0.6
		c0.2,0.2,0.4,0.3,0.6,0.3h2.5L288.2,68.8z"/>
	<path d="M298.6,63.5l-2.5,1.6v5.8c0,0.2-0.1,0.5-0.3,0.6c-0.2,0.2-0.4,0.3-0.6,0.3c-0.2,0-0.5-0.1-0.6-0.3
		c-0.2-0.2-0.3-0.4-0.3-0.6v-8.6c0-0.3,0.1-0.5,0.3-0.6c0.2-0.2,0.4-0.3,0.6-0.3c0.2,0,0.5,0.1,0.6,0.3c0.2,0.2,0.3,0.4,0.3,0.6v0.6
		l1.6-1c0.6-0.4,1.2-0.5,1.9-0.5h0.8c0.7,0,1.3,0.3,1.9,0.8c0.5,0.5,0.8,1.1,0.8,1.9l0.2,6.8c0,0.2-0.1,0.5-0.3,0.6
		c-0.2,0.2-0.4,0.3-0.6,0.3c-0.2,0-0.4-0.1-0.6-0.2c-0.2-0.2-0.3-0.4-0.3-0.7l-0.3-6.7c0-0.6-0.4-0.9-1-0.9h-0.9
		C299.2,63.2,298.9,63.3,298.6,63.5z"/>
	<path d="M314.9,62.6v-4.3c0-0.3,0.1-0.5,0.3-0.6c0.2-0.2,0.4-0.3,0.6-0.3c0.3,0,0.5,0.1,0.6,0.3c0.2,0.2,0.3,0.4,0.3,0.6v12.5
		c0,0.3-0.1,0.5-0.3,0.6c-0.2,0.2-0.4,0.3-0.6,0.3c-0.3,0-0.5-0.1-0.6-0.3c-0.2-0.2-0.3-0.4-0.3-0.6v-0.4c-0.9,0.9-1.7,1.3-2.5,1.3
		h-1.5c-0.6,0-1.2-0.3-1.8-0.8l-0.8-0.6c-0.2-0.2-0.3-0.4-0.5-0.8c-0.2-0.4-0.2-0.7-0.2-1.1v-3.7c0-0.4,0.1-0.8,0.3-1.2
		c0.2-0.4,0.4-0.7,0.6-0.9l0.7-0.6c0.5-0.5,1.2-0.7,1.9-0.7h1.3c0.7,0,1.4,0.3,1.9,0.8L314.9,62.6z M312.2,63.2H311
		c-0.3,0-0.5,0.1-0.7,0.3l-0.6,0.5c-0.2,0.2-0.3,0.4-0.3,0.7v3.8c0,0.3,0.1,0.5,0.4,0.7l0.6,0.5c0.2,0.2,0.4,0.2,0.6,0.2h1.5
		c0.2,0,0.4-0.1,0.7-0.3l1.4-1.2c0.2-0.2,0.4-0.5,0.4-0.8v-2c0-0.4-0.1-0.8-0.4-1l-1.5-1.3C312.8,63.3,312.6,63.2,312.2,63.2z"/>
	<path d="M342.4,71.8h-3.9c-0.7,0-1.3-0.2-1.7-0.6l-1.8-1.5c-0.6-0.5-0.8-1.1-0.8-1.9v-2.4c0-0.8,0.3-1.4,0.9-2l1.6-1.4
		c0.5-0.4,1.1-0.6,1.6-0.6h4c0.3,0,0.5,0.1,0.6,0.3c0.2,0.2,0.3,0.4,0.3,0.6c0,0.3-0.1,0.5-0.3,0.6c-0.2,0.2-0.4,0.3-0.6,0.3h-3.9
		c-0.2,0-0.5,0.1-0.7,0.3l-1.5,1.2c-0.2,0.2-0.4,0.5-0.4,0.8v2.2c0,0.2,0.1,0.4,0.3,0.6l1.6,1.4c0.2,0.2,0.5,0.3,0.8,0.3h3.7
		c0.2,0,0.5,0.1,0.6,0.3c0.2,0.2,0.3,0.4,0.3,0.6c0,0.3-0.1,0.5-0.3,0.6C342.8,71.7,342.6,71.8,342.4,71.8z"/>
	<path d="M347.4,70.9V58.4c0-0.2,0.1-0.5,0.3-0.6c0.2-0.2,0.4-0.3,0.6-0.3c0.3,0,0.5,0.1,0.6,0.3c0.2,0.2,0.3,0.4,0.3,0.6V63
		l1.5-0.9c0.7-0.4,1.2-0.6,1.8-0.6h1.1c0.7,0,1.4,0.3,1.9,0.8c0.5,0.5,0.8,1.2,0.8,1.9l0.2,6.8c0,0.3-0.1,0.5-0.3,0.6
		c-0.2,0.2-0.4,0.3-0.6,0.3c-0.3,0-0.5-0.1-0.6-0.3s-0.3-0.4-0.3-0.6l-0.2-6.8c0-0.2-0.1-0.5-0.3-0.6c-0.2-0.2-0.4-0.3-0.6-0.3h-1
		c-0.2,0-0.5,0.1-0.8,0.3l-2.6,1.7v5.7c0,0.3-0.1,0.5-0.3,0.6c-0.2,0.2-0.4,0.3-0.6,0.3c-0.3,0-0.5-0.1-0.6-0.3
		C347.5,71.3,347.4,71.1,347.4,70.9z"/>
	<path d="M368,71.7h-5.5c-0.3,0-0.5-0.1-0.6-0.3c-0.2-0.2-0.3-0.4-0.3-0.6c0-0.2,0.1-0.5,0.3-0.6c0.2-0.2,0.4-0.3,0.6-0.3h1.8v-6.7
		h-1.8c-0.3,0-0.5-0.1-0.6-0.3c-0.2-0.2-0.3-0.4-0.3-0.6c0-0.3,0.1-0.5,0.3-0.6c0.2-0.2,0.4-0.3,0.6-0.3h2.8c0.3,0,0.5,0.1,0.6,0.3
		c0.2,0.2,0.3,0.4,0.3,0.6v7.6h1.8c0.3,0,0.5,0.1,0.6,0.3c0.2,0.2,0.3,0.4,0.3,0.6c0,0.3-0.1,0.5-0.3,0.6
		C368.5,71.6,368.3,71.7,368,71.7z M364.4,56.7h0.9c0.3,0,0.5,0.1,0.6,0.3c0.2,0.2,0.3,0.4,0.3,0.6v0.8c0,0.3-0.1,0.5-0.3,0.6
		c-0.2,0.2-0.4,0.3-0.6,0.3h-1c-0.3,0-0.5-0.1-0.6-0.3c-0.2-0.2-0.3-0.4-0.3-0.6l0-0.8c0-0.3,0.1-0.5,0.3-0.6
		C363.9,56.8,364.1,56.7,364.4,56.7z"/>
	<path d="M383.1,62.3V64l-3.1,7.1c-0.2,0.4-0.5,0.6-0.8,0.6h-1.2c-0.4,0-0.7-0.2-0.9-0.7L374,64v-1.7c0-0.3,0.1-0.5,0.3-0.6
		c0.2-0.2,0.4-0.3,0.6-0.3c0.3,0,0.5,0.1,0.6,0.3c0.2,0.2,0.3,0.4,0.3,0.6l0,1.4l2.7,6.2l2.7-6.2l0-1.4c0-0.3,0.1-0.5,0.3-0.6
		c0.2-0.2,0.4-0.3,0.7-0.3c0.3,0,0.5,0.1,0.6,0.3C383.1,61.8,383.1,62,383.1,62.3z"/>
	<path d="M396.4,64.8V67c0,0.2-0.1,0.5-0.3,0.6c-0.2,0.2-0.4,0.3-0.6,0.3h-6.4v0.5c0,0.3,0.1,0.6,0.4,0.8l0.5,0.4
		c0.3,0.2,0.6,0.3,0.8,0.3h4.6c0.2,0,0.5,0.1,0.6,0.3c0.2,0.2,0.3,0.4,0.3,0.6c0,0.2-0.1,0.5-0.3,0.6c-0.2,0.2-0.4,0.3-0.6,0.3h-4.8
		c-0.3,0-0.6-0.1-1-0.2c-0.3-0.1-0.6-0.3-0.8-0.4l-0.8-0.7c-0.3-0.2-0.5-0.5-0.6-0.8c-0.2-0.4-0.3-0.7-0.3-1v-4.1
		c0-0.2,0.1-0.6,0.3-1c0.2-0.4,0.4-0.7,0.7-0.9L389,62c0.5-0.4,1-0.6,1.6-0.6h2.5c0.6,0,1.2,0.3,1.8,0.8l0.7,0.6
		C396.2,63.3,396.4,63.9,396.4,64.8z M389.2,64.6V66h5.5v-1.3c0-0.3-0.1-0.6-0.3-0.8l-0.5-0.5c-0.3-0.2-0.5-0.3-0.7-0.3h-2.3
		c-0.3,0-0.5,0.1-0.8,0.3l-0.5,0.4C389.3,64.1,389.2,64.4,389.2,64.6z"/>
	<path d="M403.1,61.4h4.1c0.6,0,1.2,0.2,1.7,0.6c0.5,0.4,0.7,0.8,0.7,1.1c0,0.3-0.1,0.5-0.3,0.6c-0.2,0.2-0.4,0.2-0.6,0.2
		c-0.3,0-0.5-0.1-0.8-0.4s-0.5-0.4-0.7-0.4h-4.1c-0.4,0-0.6,0.2-0.6,0.5c0,0.2,0.1,0.4,0.4,0.5l4.8,2.1c0.5,0.2,0.9,0.6,1.2,1
		c0.3,0.5,0.5,1,0.5,1.6c0,0.8-0.3,1.4-0.8,2c-0.5,0.5-1.2,0.8-1.9,0.8h-3.7c-0.6,0-1.2-0.2-1.8-0.6c-0.5-0.4-0.8-0.7-0.8-1.1
		c0-0.2,0.1-0.4,0.3-0.6c0.2-0.2,0.4-0.3,0.7-0.3c0.2,0,0.5,0.1,0.7,0.4c0.3,0.3,0.6,0.4,1.1,0.4h3.4c0.3,0,0.5-0.1,0.7-0.3
		s0.3-0.4,0.3-0.7c0-0.4-0.2-0.7-0.6-0.9l-4.8-2.2c-0.5-0.2-0.8-0.5-1.1-0.9c-0.3-0.4-0.4-0.8-0.4-1.2c0-0.6,0.2-1.2,0.7-1.7
		C401.9,61.6,402.5,61.4,403.1,61.4z"/>
	<path d="M433.5,71.8h-1.8c-0.7,0-1.4-0.3-1.9-0.8c-0.5-0.5-0.8-1.2-0.8-1.9v-5.9h-0.9c-0.3,0-0.5-0.1-0.6-0.3
		c-0.2-0.2-0.3-0.4-0.3-0.6c0-0.3,0.1-0.5,0.3-0.6c0.2-0.2,0.4-0.3,0.6-0.3h0.9v-2.2c0-0.3,0.1-0.5,0.3-0.6c0.2-0.2,0.4-0.3,0.6-0.3
		c0.2,0,0.4,0.1,0.6,0.3c0.2,0.2,0.3,0.4,0.3,0.6v2.2h3.6c0.2,0,0.5,0.1,0.6,0.3c0.2,0.2,0.3,0.4,0.3,0.6c0,0.3-0.1,0.5-0.3,0.6
		c-0.2,0.2-0.4,0.3-0.6,0.3h-3.7V69c0,0.2,0.1,0.5,0.3,0.6c0.2,0.2,0.4,0.3,0.6,0.3h1.8c0.5,0,0.8-0.3,1-0.8
		c0.2-0.5,0.5-0.8,0.9-0.8c0.3,0,0.5,0.1,0.6,0.3c0.2,0.2,0.3,0.4,0.3,0.7c0,0.5-0.3,1.1-0.8,1.6C435,71.5,434.3,71.8,433.5,71.8z"
		/>
	<path d="M449.6,64.6v3.8c0,0.8-0.4,1.6-1.1,2.2c-0.8,0.7-1.5,1-2.4,1H444c-0.8,0-1.6-0.3-2.4-1s-1.1-1.4-1.1-2.2v-3.8
		c0-0.8,0.4-1.5,1.1-2.2c0.7-0.7,1.5-1,2.4-1h2.1c0.8,0,1.6,0.3,2.4,1C449.2,63.1,449.6,63.8,449.6,64.6z M442.3,64.7v3.7
		c0,0.3,0.1,0.6,0.4,0.8l0.7,0.6c0.2,0.1,0.4,0.2,0.6,0.2h2.1c0.3,0,0.6-0.1,0.8-0.3l0.5-0.5c0.2-0.2,0.3-0.4,0.3-0.7v-3.7
		c0-0.4-0.1-0.6-0.3-0.8l-0.6-0.5c-0.2-0.2-0.5-0.3-0.8-0.3h-1.9c-0.4,0-0.7,0.1-0.9,0.3l-0.6,0.5C442.4,64.2,442.3,64.4,442.3,64.7
		z"/>
	<path d="M469.6,61.4h4.1c0.6,0,1.2,0.2,1.7,0.6c0.5,0.4,0.7,0.8,0.7,1.1c0,0.3-0.1,0.5-0.3,0.6c-0.2,0.2-0.4,0.2-0.6,0.2
		c-0.3,0-0.5-0.1-0.8-0.4s-0.5-0.4-0.7-0.4h-4.1c-0.4,0-0.6,0.2-0.6,0.5c0,0.2,0.1,0.4,0.4,0.5l4.8,2.1c0.5,0.2,0.9,0.6,1.2,1
		c0.3,0.5,0.5,1,0.5,1.6c0,0.8-0.3,1.4-0.8,2c-0.5,0.5-1.2,0.8-1.9,0.8h-3.7c-0.6,0-1.2-0.2-1.8-0.6c-0.5-0.4-0.8-0.7-0.8-1.1
		c0-0.2,0.1-0.4,0.3-0.6c0.2-0.2,0.4-0.3,0.7-0.3c0.2,0,0.5,0.1,0.7,0.4c0.3,0.3,0.6,0.4,1.1,0.4h3.4c0.3,0,0.5-0.1,0.7-0.3
		s0.3-0.4,0.3-0.7c0-0.4-0.2-0.7-0.6-0.9l-4.8-2.2c-0.5-0.2-0.8-0.5-1.1-0.9c-0.3-0.4-0.4-0.8-0.4-1.2c0-0.6,0.2-1.2,0.7-1.7
		C468.4,61.6,468.9,61.4,469.6,61.4z"/>
	<path d="M486.7,71.8h-1.8c-0.7,0-1.4-0.3-1.9-0.8c-0.5-0.5-0.8-1.2-0.8-1.9v-5.9h-0.9c-0.3,0-0.5-0.1-0.6-0.3
		c-0.2-0.2-0.3-0.4-0.3-0.6c0-0.3,0.1-0.5,0.3-0.6c0.2-0.2,0.4-0.3,0.6-0.3h0.9v-2.2c0-0.3,0.1-0.5,0.3-0.6c0.2-0.2,0.4-0.3,0.6-0.3
		c0.2,0,0.4,0.1,0.6,0.3c0.2,0.2,0.3,0.4,0.3,0.6v2.2h3.6c0.2,0,0.5,0.1,0.6,0.3c0.2,0.2,0.3,0.4,0.3,0.6c0,0.3-0.1,0.5-0.3,0.6
		c-0.2,0.2-0.4,0.3-0.6,0.3H484V69c0,0.2,0.1,0.5,0.3,0.6c0.2,0.2,0.4,0.3,0.6,0.3h1.8c0.5,0,0.8-0.3,1-0.8c0.2-0.5,0.5-0.8,0.9-0.8
		c0.3,0,0.5,0.1,0.6,0.3c0.2,0.2,0.3,0.4,0.3,0.7c0,0.5-0.3,1.1-0.8,1.6C488.1,71.5,487.5,71.8,486.7,71.8z"/>
	<path d="M496.3,65.2h3.5c0.2,0,0.5,0,0.8,0.1l0-1.3c0-0.3-0.1-0.5-0.3-0.6c-0.2-0.2-0.4-0.3-0.6-0.3h-3.4c-0.2,0-0.5-0.1-0.6-0.3
		c-0.2-0.2-0.3-0.4-0.3-0.6c0-0.3,0.1-0.5,0.3-0.6c0.2-0.2,0.4-0.3,0.6-0.3h3.4c0.7,0,1.4,0.3,1.9,0.8c0.5,0.5,0.8,1.2,0.8,1.9
		l0.2,6.8c0,0.3-0.1,0.5-0.3,0.6c-0.2,0.2-0.4,0.3-0.6,0.3c-0.3,0-0.5-0.1-0.7-0.3c-0.2-0.2-0.3-0.4-0.3-0.6l-1.5,0.9h-3.1
		c-0.8,0-1.4-0.3-1.9-0.8c-0.5-0.5-0.8-1.2-0.8-1.9V68c0-0.8,0.3-1.4,0.8-1.9C494.9,65.5,495.6,65.2,496.3,65.2z M500.8,68.8
		l-0.1-0.8c0-0.3-0.1-0.5-0.3-0.6s-0.4-0.3-0.6-0.3h-3.6c-0.3,0-0.5,0.1-0.6,0.3c-0.2,0.2-0.3,0.4-0.3,0.6v1c0,0.2,0.1,0.5,0.3,0.6
		c0.2,0.2,0.4,0.3,0.6,0.3h2.5L500.8,68.8z"/>
	<path d="M506.9,70.9v-8.6c0-0.3,0.1-0.5,0.3-0.6c0.2-0.2,0.4-0.3,0.6-0.3s0.5,0.1,0.6,0.3c0.2,0.2,0.3,0.4,0.3,0.7v1.1l1.5-1.3
		c0.6-0.5,1.2-0.8,1.8-0.8h1.3c0.7,0,1.4,0.3,1.9,0.8c0.5,0.5,0.8,1.2,0.8,1.9v0.5c0,0.3-0.1,0.5-0.3,0.7c-0.2,0.2-0.4,0.3-0.6,0.3
		s-0.5-0.1-0.6-0.3c-0.2-0.2-0.3-0.4-0.3-0.6v-0.5c0-0.3-0.1-0.5-0.3-0.6c-0.2-0.2-0.4-0.3-0.6-0.3h-1.2c-0.3,0-0.5,0.1-0.8,0.4
		l-2.6,2.2v5c0,0.3-0.1,0.5-0.3,0.6c-0.2,0.2-0.4,0.3-0.6,0.3c-0.3,0-0.5-0.1-0.6-0.3C507,71.3,506.9,71.1,506.9,70.9z"/>
	<path d="M529.3,64.8V67c0,0.2-0.1,0.5-0.3,0.6c-0.2,0.2-0.4,0.3-0.6,0.3H522v0.5c0,0.3,0.1,0.6,0.4,0.8l0.5,0.4
		c0.3,0.2,0.6,0.3,0.8,0.3h4.6c0.2,0,0.5,0.1,0.6,0.3c0.2,0.2,0.3,0.4,0.3,0.6c0,0.2-0.1,0.5-0.3,0.6c-0.2,0.2-0.4,0.3-0.6,0.3h-4.8
		c-0.3,0-0.6-0.1-1-0.2c-0.3-0.1-0.6-0.3-0.8-0.4l-0.8-0.7c-0.3-0.2-0.5-0.5-0.6-0.8c-0.2-0.4-0.3-0.7-0.3-1v-4.1
		c0-0.2,0.1-0.6,0.3-1c0.2-0.4,0.4-0.7,0.7-0.9l0.8-0.6c0.5-0.4,1-0.6,1.6-0.6h2.5c0.6,0,1.2,0.3,1.8,0.8l0.7,0.6
		C529.1,63.3,529.3,63.9,529.3,64.8z M522,64.6V66h5.5v-1.3c0-0.3-0.1-0.6-0.3-0.8l-0.5-0.5c-0.3-0.2-0.5-0.3-0.7-0.3h-2.3
		c-0.3,0-0.5,0.1-0.8,0.3l-0.5,0.4C522.2,64.1,522,64.4,522,64.6z"/>
	<path d="M549.5,65.2h3.5c0.2,0,0.5,0,0.8,0.1l0-1.3c0-0.3-0.1-0.5-0.3-0.6c-0.2-0.2-0.4-0.3-0.6-0.3h-3.4c-0.2,0-0.5-0.1-0.6-0.3
		c-0.2-0.2-0.3-0.4-0.3-0.6c0-0.3,0.1-0.5,0.3-0.6c0.2-0.2,0.4-0.3,0.6-0.3h3.4c0.7,0,1.4,0.3,1.9,0.8c0.5,0.5,0.8,1.2,0.8,1.9
		l0.2,6.8c0,0.3-0.1,0.5-0.3,0.6c-0.2,0.2-0.4,0.3-0.6,0.3c-0.3,0-0.5-0.1-0.7-0.3c-0.2-0.2-0.3-0.4-0.3-0.6l-1.5,0.9h-3.1
		c-0.8,0-1.4-0.3-1.9-0.8c-0.5-0.5-0.8-1.2-0.8-1.9V68c0-0.8,0.3-1.4,0.8-1.9C548.1,65.5,548.7,65.2,549.5,65.2z M554,68.8l-0.1-0.8
		c0-0.3-0.1-0.5-0.3-0.6s-0.4-0.3-0.6-0.3h-3.6c-0.3,0-0.5,0.1-0.6,0.3c-0.2,0.2-0.3,0.4-0.3,0.6v1c0,0.2,0.1,0.5,0.3,0.6
		c0.2,0.2,0.4,0.3,0.6,0.3h2.5L554,68.8z"/>
	<path d="M566.4,71.8h-1.8c-0.7,0-1.4-0.3-1.9-0.8c-0.5-0.5-0.8-1.2-0.8-1.9v-5.9H561c-0.3,0-0.5-0.1-0.6-0.3
		c-0.2-0.2-0.3-0.4-0.3-0.6c0-0.3,0.1-0.5,0.3-0.6c0.2-0.2,0.4-0.3,0.6-0.3h0.9v-2.2c0-0.3,0.1-0.5,0.3-0.6c0.2-0.2,0.4-0.3,0.6-0.3
		c0.2,0,0.4,0.1,0.6,0.3c0.2,0.2,0.3,0.4,0.3,0.6v2.2h3.6c0.2,0,0.5,0.1,0.6,0.3c0.2,0.2,0.3,0.4,0.3,0.6c0,0.3-0.1,0.5-0.3,0.6
		c-0.2,0.2-0.4,0.3-0.6,0.3h-3.7V69c0,0.2,0.1,0.5,0.3,0.6c0.2,0.2,0.4,0.3,0.6,0.3h1.8c0.5,0,0.8-0.3,1-0.8
		c0.2-0.5,0.5-0.8,0.9-0.8c0.3,0,0.5,0.1,0.6,0.3c0.2,0.2,0.3,0.4,0.3,0.7c0,0.5-0.3,1.1-0.8,1.6C567.9,71.5,567.2,71.8,566.4,71.8z
		"/>
</g>
</svg>
