<?xml version="1.0" encoding="utf-8"?>
<!-- Generator: Adobe Illustrator 21.1.0, SVG Export Plug-In . SVG Version: 6.00 Build 0)  -->
<svg version="1.1" id="Layer_1" xmlns="http://www.w3.org/2000/svg" xmlns:xlink="http://www.w3.org/1999/xlink" x="0px" y="0px"
	 viewBox="0 0 800 400" style="enable-background:new 0 0 800 400;" xml:space="preserve">
<style type="text/css">
	.st0{fill:#EC1E79;}
	.st1{fill:#29AAE1;}
	.st2{fill:#FFFFFF;}
	.st3{fill:#1B1464;}
	.st4{fill:#85005C;}
	.st5{fill:#FFFFFF;stroke:#000000;stroke-miterlimit:10;}
	.st6{fill:none;stroke:#000000;stroke-miterlimit:10;}
	.st7{fill:#BCD000;}
</style>
<polygon class="st0" points="800.4,446.2 0.4,446.2 -0.4,0 799.6,0 "/>
<rect x="15.1" y="84.3" class="st1" width="767.5" height="41.7"/>
<rect x="111.8" y="95.2" class="st2" width="245" height="20"/>
<rect x="216.8" y="137.7" class="st3" width="328.3" height="49.2"/>
<rect x="15.1" y="140.2" class="st3" width="135.8" height="308.3"/>
<rect x="220.9" y="212.7" class="st3" width="324.2" height="81.7"/>
<rect x="220.9" y="313.5" class="st3" width="324.2" height="139.2"/>
<rect x="578.4" y="140.2" class="st4" width="204.2" height="173.3"/>
<rect x="578.4" y="335.2" class="st4" width="204.2" height="113.3"/>
<circle class="st2" cx="566.5" cy="104.2" r="11.9"/>
<polygon class="st2" points="627.3,114.6 614.4,118.5 604.5,109.4 607.4,96.4 620.3,92.5 630.3,101.6 "/>
<polygon class="st2" points="679.7,117.5 670.2,113.4 661.5,118.9 662.5,108.6 654.6,101.9 664.7,99.7 668.6,90.2 673.8,99.1 
	684.1,99.8 677.2,107.5 "/>
<rect x="345.9" y="126.8" class="st5" width="225.8" height="253.3"/>
<rect x="345.9" y="158.5" class="st6" width="225.8" height="54.2"/>
<rect x="345.9" y="212.7" class="st6" width="225.8" height="55.8"/>
<rect x="345.9" y="268.5" class="st6" width="225.8" height="55.8"/>
<rect x="345.9" y="324.3" class="st6" width="225.8" height="55.8"/>
<g>
	<path d="M355.3,138.3c0-0.7,0-1.3-0.1-1.8h1.1l0.1,1.1h0c0.3-0.6,1.2-1.3,2.3-1.3c1,0,2.5,0.6,2.5,2.9v4H360v-3.9
		c0-1.1-0.4-2-1.6-2c-0.8,0-1.5,0.6-1.7,1.3c-0.1,0.2-0.1,0.4-0.1,0.6v4.1h-1.3V138.3z"/>
	<path d="M369.7,139.8c0,2.5-1.8,3.6-3.5,3.6c-1.9,0-3.4-1.3-3.4-3.5c0-2.3,1.5-3.6,3.5-3.6C368.3,136.3,369.7,137.7,369.7,139.8z
		 M364.1,139.8c0,1.5,0.9,2.6,2.1,2.6c1.2,0,2.1-1.1,2.1-2.6c0-1.1-0.6-2.6-2.1-2.6C364.8,137.2,364.1,138.6,364.1,139.8z"/>
	<path d="M372.8,134.5v1.9h1.8v0.9h-1.8v3.7c0,0.8,0.2,1.3,1,1.3c0.3,0,0.6,0,0.7-0.1l0.1,0.9c-0.2,0.1-0.6,0.2-1.1,0.2
		c-0.6,0-1.1-0.2-1.4-0.5c-0.4-0.4-0.5-1-0.5-1.8v-3.7h-1.1v-0.9h1.1v-1.6L372.8,134.5z"/>
	<path d="M377.5,134.5c0,0.4-0.3,0.8-0.8,0.8c-0.4,0-0.8-0.3-0.8-0.8c0-0.4,0.3-0.8,0.8-0.8C377.2,133.8,377.5,134.1,377.5,134.5z
		 M376.1,143.2v-6.8h1.3v6.8H376.1z"/>
	<path d="M379.6,143.2v-5.8h-1v-0.9h1v-0.4c0-1.8,1.1-3,3.1-3c0.7,0,1.4,0.2,1.8,0.4l-0.4,0.9c-0.3-0.2-0.9-0.4-1.5-0.4
		c-1.3,0-1.7,0.9-1.7,2v0.3h4.1v6.8h-1.3v-5.8h-2.8v5.8H379.6z"/>
	<path d="M392,143c-0.3,0.2-1.1,0.4-2,0.4c-2.1,0-3.5-1.4-3.5-3.5c0-2.1,1.5-3.6,3.8-3.6c0.8,0,1.4,0.2,1.8,0.4l-0.3,1
		c-0.3-0.2-0.8-0.3-1.5-0.3c-1.6,0-2.5,1.1-2.5,2.6c0,1.6,1,2.5,2.4,2.5c0.7,0,1.2-0.2,1.6-0.3L392,143z"/>
	<path d="M397.4,143.2l-0.1-0.9h0c-0.4,0.5-1.1,1-2.1,1c-1.4,0-2.1-1-2.1-1.9c0-1.6,1.5-2.5,4.2-2.5v-0.1c0-0.6-0.2-1.6-1.6-1.6
		c-0.7,0-1.3,0.2-1.8,0.5l-0.3-0.8c0.6-0.4,1.4-0.6,2.3-0.6c2.1,0,2.7,1.4,2.7,2.8v2.5c0,0.6,0,1.2,0.1,1.6H397.4z M397.2,139.8
		c-1.4,0-3,0.2-3,1.5c0,0.8,0.5,1.2,1.2,1.2c0.9,0,1.5-0.6,1.7-1.1c0-0.1,0.1-0.3,0.1-0.4V139.8z"/>
	<path d="M401.9,134.5v1.9h1.8v0.9h-1.8v3.7c0,0.8,0.2,1.3,1,1.3c0.3,0,0.6,0,0.7-0.1l0.1,0.9c-0.2,0.1-0.6,0.2-1.1,0.2
		c-0.6,0-1.1-0.2-1.4-0.5c-0.4-0.4-0.5-1-0.5-1.8v-3.7h-1.1v-0.9h1.1v-1.6L401.9,134.5z"/>
	<path d="M406.6,134.5c0,0.4-0.3,0.8-0.8,0.8c-0.4,0-0.8-0.3-0.8-0.8c0-0.4,0.3-0.8,0.8-0.8C406.3,133.8,406.6,134.1,406.6,134.5z
		 M405.2,143.2v-6.8h1.3v6.8H405.2z"/>
	<path d="M414.9,139.8c0,2.5-1.8,3.6-3.5,3.6c-1.9,0-3.4-1.3-3.4-3.5c0-2.3,1.5-3.6,3.5-3.6C413.5,136.3,414.9,137.7,414.9,139.8z
		 M409.4,139.8c0,1.5,0.9,2.6,2.1,2.6c1.2,0,2.1-1.1,2.1-2.6c0-1.1-0.6-2.6-2.1-2.6C410,137.2,409.4,138.6,409.4,139.8z"/>
	<path d="M416.5,138.3c0-0.7,0-1.3-0.1-1.8h1.1l0.1,1.1h0c0.3-0.6,1.2-1.3,2.3-1.3c1,0,2.5,0.6,2.5,2.9v4h-1.3v-3.9
		c0-1.1-0.4-2-1.6-2c-0.8,0-1.5,0.6-1.7,1.3c-0.1,0.2-0.1,0.4-0.1,0.6v4.1h-1.3V138.3z"/>
	<path d="M424.4,142c0.4,0.2,1,0.5,1.7,0.5c0.9,0,1.4-0.4,1.4-1c0-0.6-0.4-0.9-1.3-1.2c-1.3-0.4-1.9-1.1-1.9-1.9c0-1.1,0.9-2,2.4-2
		c0.7,0,1.3,0.2,1.7,0.4l-0.3,0.9c-0.3-0.2-0.8-0.4-1.4-0.4c-0.8,0-1.2,0.4-1.2,0.9c0,0.6,0.4,0.8,1.3,1.1c1.2,0.4,1.8,1,1.8,2
		c0,1.2-1,2-2.6,2c-0.8,0-1.5-0.2-2-0.5L424.4,142z"/>
</g>
<g>
	<path d="M394.2,176.5h-2.5v-0.9h6v0.9h-2.5v7.2h-1.1V176.5z"/>
	<path d="M403,180.8c0,2.1-1.5,3.1-2.9,3.1c-1.6,0-2.8-1.2-2.8-3c0-1.9,1.3-3.1,2.9-3.1C401.9,177.8,403,179,403,180.8z
		 M398.4,180.8c0,1.3,0.7,2.2,1.8,2.2c1,0,1.8-0.9,1.8-2.3c0-1-0.5-2.2-1.7-2.2C398.9,178.6,398.4,179.7,398.4,180.8z"/>
	<path d="M404.3,179.5c0-0.6,0-1.1,0-1.6h0.9l0,0.9h0c0.3-0.6,0.9-1.1,1.8-1.1c0.8,0,1.4,0.5,1.6,1.2h0c0.2-0.3,0.4-0.6,0.6-0.8
		c0.3-0.3,0.7-0.4,1.3-0.4c0.8,0,1.9,0.5,1.9,2.5v3.4h-1v-3.3c0-1.1-0.4-1.8-1.3-1.8c-0.6,0-1.1,0.4-1.2,1c0,0.1-0.1,0.3-0.1,0.5
		v3.6h-1v-3.5c0-0.9-0.4-1.6-1.2-1.6c-0.7,0-1.1,0.5-1.3,1.1c-0.1,0.2-0.1,0.3-0.1,0.5v3.5h-1V179.5z"/>
	<path d="M416.9,175.2h1.1v3.6h0c0.2-0.3,0.4-0.6,0.8-0.7c0.3-0.2,0.7-0.3,1.1-0.3c0.8,0,2,0.5,2,2.5v3.5h-1.1v-3.3
		c0-0.9-0.3-1.7-1.3-1.7c-0.7,0-1.2,0.5-1.4,1.1c-0.1,0.1-0.1,0.3-0.1,0.5v3.5h-1.1V175.2z"/>
	<path d="M426.8,183.7l-0.1-0.7h0c-0.3,0.5-0.9,0.9-1.8,0.9c-1.2,0-1.8-0.8-1.8-1.7c0-1.4,1.2-2.2,3.5-2.2v-0.1
		c0-0.5-0.1-1.3-1.3-1.3c-0.5,0-1.1,0.2-1.5,0.4l-0.2-0.7c0.5-0.3,1.2-0.5,1.9-0.5c1.8,0,2.2,1.2,2.2,2.4v2.2c0,0.5,0,1,0.1,1.4
		H426.8z M426.6,180.8c-1.2,0-2.5,0.2-2.5,1.3c0,0.7,0.5,1,1,1c0.8,0,1.2-0.5,1.4-1c0-0.1,0.1-0.2,0.1-0.3V180.8z"/>
	<path d="M429.2,182.7c0.3,0.2,0.9,0.4,1.4,0.4c0.8,0,1.1-0.4,1.1-0.9c0-0.5-0.3-0.8-1.1-1.1c-1-0.4-1.5-0.9-1.5-1.6
		c0-0.9,0.8-1.7,2-1.7c0.6,0,1.1,0.2,1.4,0.4l-0.3,0.8c-0.2-0.1-0.6-0.3-1.2-0.3c-0.6,0-1,0.4-1,0.8c0,0.5,0.3,0.7,1.1,1
		c1,0.4,1.5,0.9,1.5,1.8c0,1-0.8,1.7-2.2,1.7c-0.6,0-1.2-0.2-1.6-0.4L429.2,182.7z"/>
	<path d="M437.8,176.3c0,0.4-0.3,0.6-0.7,0.6c-0.4,0-0.6-0.3-0.6-0.6c0-0.4,0.3-0.7,0.7-0.7C437.5,175.6,437.8,175.9,437.8,176.3z
		 M436.6,183.7v-5.8h1.1v5.8H436.6z"/>
	<path d="M439.4,179.5c0-0.6,0-1.1,0-1.6h0.9l0.1,1h0c0.3-0.6,1-1.1,1.9-1.1c0.8,0,2.1,0.5,2.1,2.5v3.5h-1.1v-3.3
		c0-0.9-0.3-1.7-1.3-1.7c-0.7,0-1.2,0.5-1.4,1.1c0,0.1-0.1,0.3-0.1,0.5v3.5h-1.1V179.5z"/>
	<path d="M446.3,177.9l1.1,3.3c0.2,0.5,0.3,1,0.5,1.5h0c0.1-0.5,0.3-1,0.5-1.5l1.1-3.3h1.1l-2.3,5.8h-1l-2.2-5.8H446.3z"/>
	<path d="M452.9,176.3c0,0.4-0.3,0.6-0.7,0.6c-0.4,0-0.6-0.3-0.6-0.6c0-0.4,0.3-0.7,0.7-0.7C452.6,175.6,452.9,175.9,452.9,176.3z
		 M451.7,183.7v-5.8h1.1v5.8H451.7z"/>
	<path d="M455.8,176.3v1.7h1.5v0.8h-1.5v3.1c0,0.7,0.2,1.1,0.8,1.1c0.3,0,0.5,0,0.6-0.1l0,0.8c-0.2,0.1-0.5,0.1-0.9,0.1
		c-0.5,0-0.9-0.2-1.1-0.4c-0.3-0.3-0.4-0.8-0.4-1.5v-3.2h-0.9v-0.8h0.9v-1.4L455.8,176.3z"/>
	<path d="M459,181c0,1.4,0.9,2,2,2c0.8,0,1.2-0.1,1.6-0.3l0.2,0.8c-0.4,0.2-1,0.4-1.9,0.4c-1.8,0-2.9-1.2-2.9-2.9s1-3.1,2.7-3.1
		c1.9,0,2.4,1.7,2.4,2.7c0,0.2,0,0.4,0,0.5H459z M462.1,180.3c0-0.7-0.3-1.7-1.5-1.7c-1.1,0-1.5,1-1.6,1.7H462.1z"/>
	<path d="M469.4,175.2v7c0,0.5,0,1.1,0,1.5h-0.9l0-1h0c-0.3,0.6-1,1.1-2,1.1c-1.4,0-2.5-1.2-2.5-3c0-1.9,1.2-3.1,2.6-3.1
		c0.9,0,1.5,0.4,1.8,0.9h0v-3.5H469.4z M468.4,180.3c0-0.1,0-0.3,0-0.4c-0.2-0.7-0.7-1.2-1.5-1.2c-1.1,0-1.7,1-1.7,2.2
		c0,1.2,0.6,2.1,1.7,2.1c0.7,0,1.4-0.5,1.5-1.3c0-0.1,0-0.3,0-0.5V180.3z"/>
	<path d="M474.1,177.9l1.3,3.4c0.1,0.4,0.3,0.8,0.4,1.2h0c0.1-0.3,0.2-0.8,0.4-1.2l1.2-3.4h1.1l-1.6,4.1c-0.8,2-1.3,3-2,3.6
		c-0.5,0.5-1,0.6-1.3,0.7l-0.3-0.9c0.3-0.1,0.6-0.3,0.9-0.5c0.3-0.2,0.6-0.6,0.9-1.2c0-0.1,0.1-0.2,0.1-0.3c0-0.1,0-0.1-0.1-0.3
		l-2.1-5.3H474.1z"/>
	<path d="M484.5,180.8c0,2.1-1.5,3.1-2.9,3.1c-1.6,0-2.8-1.2-2.8-3c0-1.9,1.3-3.1,2.9-3.1C483.4,177.8,484.5,179,484.5,180.8z
		 M479.9,180.8c0,1.3,0.7,2.2,1.8,2.2c1,0,1.8-0.9,1.8-2.3c0-1-0.5-2.2-1.7-2.2C480.5,178.6,479.9,179.7,479.9,180.8z"/>
	<path d="M490.7,182.2c0,0.6,0,1.1,0,1.6h-0.9l-0.1-0.9h0c-0.3,0.5-0.9,1.1-1.9,1.1c-0.9,0-2-0.5-2-2.5v-3.4h1.1v3.2
		c0,1.1,0.3,1.8,1.3,1.8c0.7,0,1.2-0.5,1.4-1c0.1-0.2,0.1-0.3,0.1-0.5v-3.6h1.1V182.2z"/>
	<path d="M496.3,176.3v1.7h1.5v0.8h-1.5v3.1c0,0.7,0.2,1.1,0.8,1.1c0.3,0,0.5,0,0.6-0.1l0,0.8c-0.2,0.1-0.5,0.1-0.9,0.1
		c-0.5,0-0.9-0.2-1.1-0.4c-0.3-0.3-0.4-0.8-0.4-1.5v-3.2h-0.9v-0.8h0.9v-1.4L496.3,176.3z"/>
	<path d="M504.2,180.8c0,2.1-1.5,3.1-2.9,3.1c-1.6,0-2.8-1.2-2.8-3c0-1.9,1.3-3.1,2.9-3.1C503,177.8,504.2,179,504.2,180.8z
		 M499.6,180.8c0,1.3,0.7,2.2,1.8,2.2c1,0,1.8-0.9,1.8-2.3c0-1-0.5-2.2-1.7-2.2C500.1,178.6,499.6,179.7,499.6,180.8z"/>
	<path d="M508,179.8c0-0.7,0-1.3,0-1.9h0.9l0,1h0c0.4-0.7,1.1-1.1,2.1-1.1c1.4,0,2.5,1.2,2.5,3c0,2.1-1.3,3.1-2.6,3.1
		c-0.8,0-1.4-0.3-1.8-0.9h0v3.2h-1V179.8z M509.1,181.4c0,0.2,0,0.3,0,0.4c0.2,0.7,0.8,1.2,1.6,1.2c1.1,0,1.8-0.9,1.8-2.2
		c0-1.2-0.6-2.2-1.7-2.2c-0.7,0-1.4,0.5-1.6,1.3c0,0.1-0.1,0.3-0.1,0.4V181.4z"/>
	<path d="M514.9,175.2h1.1v8.5h-1.1V175.2z"/>
	<path d="M520.9,183.7l-0.1-0.7h0c-0.3,0.5-0.9,0.9-1.8,0.9c-1.2,0-1.8-0.8-1.8-1.7c0-1.4,1.2-2.2,3.5-2.2v-0.1
		c0-0.5-0.1-1.3-1.3-1.3c-0.5,0-1.1,0.2-1.5,0.4l-0.2-0.7c0.5-0.3,1.2-0.5,1.9-0.5c1.8,0,2.2,1.2,2.2,2.4v2.2c0,0.5,0,1,0.1,1.4
		H520.9z M520.8,180.8c-1.2,0-2.5,0.2-2.5,1.3c0,0.7,0.5,1,1,1c0.8,0,1.2-0.5,1.4-1c0-0.1,0.1-0.2,0.1-0.3V180.8z"/>
	<path d="M523.8,177.9l1.3,3.4c0.1,0.4,0.3,0.8,0.4,1.2h0c0.1-0.3,0.2-0.8,0.4-1.2l1.2-3.4h1.1l-1.6,4.1c-0.8,2-1.3,3-2,3.6
		c-0.5,0.5-1,0.6-1.3,0.7l-0.3-0.9c0.3-0.1,0.6-0.3,0.9-0.5c0.3-0.2,0.6-0.6,0.9-1.2c0-0.1,0.1-0.2,0.1-0.3c0-0.1,0-0.1-0.1-0.3
		l-2.1-5.3H523.8z"/>
	<path d="M396.8,197.9c-0.3,0.1-0.9,0.3-1.7,0.3c-1.8,0-2.9-1.2-2.9-3c0-1.8,1.2-3.1,3.1-3.1c0.6,0,1.2,0.2,1.5,0.3l-0.2,0.8
		c-0.3-0.1-0.6-0.3-1.2-0.3c-1.3,0-2.1,1-2.1,2.2c0,1.3,0.9,2.2,2,2.2c0.6,0,1-0.2,1.3-0.3L396.8,197.9z"/>
	<path d="M401.2,198.1l-0.1-0.7h0c-0.3,0.5-0.9,0.9-1.8,0.9c-1.2,0-1.8-0.8-1.8-1.7c0-1.4,1.2-2.2,3.5-2.2v-0.1
		c0-0.5-0.1-1.3-1.3-1.3c-0.5,0-1.1,0.2-1.5,0.4l-0.2-0.7c0.5-0.3,1.2-0.5,1.9-0.5c1.8,0,2.2,1.2,2.2,2.4v2.2c0,0.5,0,1,0.1,1.4
		H401.2z M401.1,195.2c-1.2,0-2.5,0.2-2.5,1.3c0,0.7,0.5,1,1,1c0.8,0,1.2-0.5,1.4-1c0-0.1,0.1-0.2,0.1-0.3V195.2z"/>
	<path d="M403.8,193.9c0-0.6,0-1.1,0-1.6h0.9l0.1,1h0c0.3-0.6,1-1.1,1.9-1.1c0.8,0,2.1,0.5,2.1,2.5v3.5h-1.1v-3.3
		c0-0.9-0.3-1.7-1.3-1.7c-0.7,0-1.2,0.5-1.4,1.1c0,0.1-0.1,0.3-0.1,0.5v3.5h-1.1V193.9z"/>
	<path d="M415.5,189.6v7c0,0.5,0,1.1,0,1.5h-0.9l0-1h0c-0.3,0.6-1,1.1-2,1.1c-1.4,0-2.5-1.2-2.5-3c0-1.9,1.2-3.1,2.6-3.1
		c0.9,0,1.5,0.4,1.8,0.9h0v-3.5H415.5z M414.4,194.7c0-0.1,0-0.3,0-0.4c-0.2-0.7-0.7-1.2-1.5-1.2c-1.1,0-1.7,1-1.7,2.2
		c0,1.2,0.6,2.1,1.7,2.1c0.7,0,1.4-0.5,1.5-1.3c0-0.1,0-0.3,0-0.5V194.7z"/>
	<path d="M417.6,192.3l1.3,3.4c0.1,0.4,0.3,0.8,0.4,1.2h0c0.1-0.3,0.2-0.8,0.4-1.2l1.2-3.4h1.1l-1.6,4.1c-0.8,2-1.3,3-2,3.6
		c-0.5,0.5-1,0.6-1.3,0.7l-0.3-0.9c0.3-0.1,0.6-0.3,0.9-0.5c0.3-0.2,0.6-0.6,0.9-1.2c0-0.1,0.1-0.2,0.1-0.3c0-0.1,0-0.1-0.1-0.3
		l-2.1-5.3H417.6z"/>
	<path d="M429.5,197.9c-0.3,0.1-0.9,0.3-1.7,0.3c-1.8,0-2.9-1.2-2.9-3c0-1.8,1.2-3.1,3.1-3.1c0.6,0,1.2,0.2,1.5,0.3l-0.2,0.8
		c-0.3-0.1-0.6-0.3-1.2-0.3c-1.3,0-2.1,1-2.1,2.2c0,1.3,0.9,2.2,2,2.2c0.6,0,1-0.2,1.3-0.3L429.5,197.9z"/>
	<path d="M430.8,194.1c0-0.7,0-1.3,0-1.8h0.9l0,1.1h0c0.3-0.8,0.9-1.3,1.6-1.3c0.1,0,0.2,0,0.3,0v1c-0.1,0-0.2,0-0.4,0
		c-0.7,0-1.3,0.6-1.4,1.4c0,0.1,0,0.3,0,0.5v3.1h-1V194.1z"/>
	<path d="M439.6,196.6c0,0.6,0,1.1,0,1.6h-0.9l-0.1-0.9h0c-0.3,0.5-0.9,1.1-1.9,1.1c-0.9,0-2-0.5-2-2.5v-3.4h1.1v3.2
		c0,1.1,0.3,1.8,1.3,1.8c0.7,0,1.2-0.5,1.4-1c0.1-0.2,0.1-0.3,0.1-0.5v-3.6h1.1V196.6z"/>
	<path d="M441.2,197.1c0.3,0.2,0.9,0.4,1.4,0.4c0.8,0,1.1-0.4,1.1-0.9c0-0.5-0.3-0.8-1.1-1.1c-1-0.4-1.5-0.9-1.5-1.6
		c0-0.9,0.8-1.7,2-1.7c0.6,0,1.1,0.2,1.4,0.4l-0.3,0.8c-0.2-0.1-0.6-0.3-1.2-0.3c-0.6,0-1,0.4-1,0.8c0,0.5,0.3,0.7,1.1,1
		c1,0.4,1.5,0.9,1.5,1.8c0,1-0.8,1.7-2.2,1.7c-0.6,0-1.2-0.2-1.6-0.4L441.2,197.1z"/>
	<path d="M446.1,189.6h1.1v3.6h0c0.2-0.3,0.4-0.6,0.8-0.7c0.3-0.2,0.7-0.3,1.1-0.3c0.8,0,2,0.5,2,2.5v3.5H450v-3.3
		c0-0.9-0.3-1.7-1.3-1.7c-0.7,0-1.2,0.5-1.4,1.1c-0.1,0.1-0.1,0.3-0.1,0.5v3.5h-1.1V189.6z"/>
</g>
<g>
	<path d="M393.7,223.8v8.1h-1v-8.1H393.7z"/>
	<path d="M395.6,227.8c0-0.7,0-1.3,0-1.8h0.9l0,1.1h0c0.3-0.8,0.9-1.3,1.6-1.3c0.1,0,0.2,0,0.3,0v1c-0.1,0-0.2,0-0.4,0
		c-0.7,0-1.3,0.6-1.4,1.4c0,0.1,0,0.3,0,0.5v3.1h-1V227.8z"/>
	<path d="M400,229.1c0,1.4,0.9,2,2,2c0.8,0,1.2-0.1,1.6-0.3l0.2,0.8c-0.4,0.2-1,0.4-1.9,0.4c-1.8,0-2.9-1.2-2.9-2.9s1-3.1,2.7-3.1
		c1.9,0,2.4,1.7,2.4,2.7c0,0.2,0,0.4,0,0.5H400z M403.1,228.4c0-0.7-0.3-1.7-1.5-1.7c-1.1,0-1.5,1-1.6,1.7H403.1z"/>
	<path d="M405.4,227.6c0-0.6,0-1.1,0-1.6h0.9l0.1,1h0c0.3-0.6,1-1.1,1.9-1.1c0.8,0,2,0.5,2,2.5v3.5h-1.1v-3.3c0-0.9-0.3-1.7-1.3-1.7
		c-0.7,0-1.2,0.5-1.4,1.1c0,0.1-0.1,0.3-0.1,0.5v3.5h-1.1V227.6z"/>
	<path d="M412.7,229.1c0,1.4,0.9,2,2,2c0.8,0,1.2-0.1,1.6-0.3l0.2,0.8c-0.4,0.2-1,0.4-1.9,0.4c-1.8,0-2.9-1.2-2.9-2.9s1-3.1,2.7-3.1
		c1.9,0,2.4,1.7,2.4,2.7c0,0.2,0,0.4,0,0.5H412.7z M415.8,228.4c0-0.7-0.3-1.7-1.5-1.7c-1.1,0-1.5,1-1.6,1.7H415.8z"/>
	<path d="M420.6,223.3h1.1v3.6h0c0.2-0.3,0.4-0.6,0.8-0.7c0.3-0.2,0.7-0.3,1.1-0.3c0.8,0,2,0.5,2,2.5v3.5h-1.1v-3.3
		c0-0.9-0.3-1.7-1.3-1.7c-0.7,0-1.2,0.5-1.4,1.1c-0.1,0.1-0.1,0.3-0.1,0.5v3.5h-1.1V223.3z"/>
	<path d="M430.5,231.8l-0.1-0.7h0c-0.3,0.5-0.9,0.9-1.8,0.9c-1.2,0-1.8-0.8-1.8-1.7c0-1.4,1.2-2.2,3.5-2.2V228
		c0-0.5-0.1-1.3-1.3-1.3c-0.5,0-1.1,0.2-1.5,0.4l-0.2-0.7c0.5-0.3,1.2-0.5,1.9-0.5c1.8,0,2.2,1.2,2.2,2.4v2.2c0,0.5,0,1,0.1,1.4
		H430.5z M430.4,228.9c-1.2,0-2.5,0.2-2.5,1.3c0,0.7,0.5,1,1,1c0.8,0,1.2-0.5,1.4-1c0-0.1,0.1-0.2,0.1-0.3V228.9z"/>
	<path d="M432.9,230.8c0.3,0.2,0.9,0.4,1.4,0.4c0.8,0,1.1-0.4,1.1-0.9c0-0.5-0.3-0.8-1.1-1.1c-1-0.4-1.5-0.9-1.5-1.6
		c0-0.9,0.8-1.7,2-1.7c0.6,0,1.1,0.2,1.4,0.4L436,227c-0.2-0.1-0.6-0.3-1.2-0.3c-0.6,0-1,0.4-1,0.8c0,0.5,0.3,0.7,1.1,1
		c1,0.4,1.5,0.9,1.5,1.8c0,1-0.8,1.7-2.2,1.7c-0.6,0-1.2-0.2-1.6-0.4L432.9,230.8z"/>
	<path d="M441.6,224.4c0,0.4-0.3,0.6-0.7,0.6c-0.4,0-0.6-0.3-0.6-0.6c0-0.4,0.3-0.7,0.7-0.7C441.3,223.7,441.6,224,441.6,224.4z
		 M440.4,231.8V226h1.1v5.8H440.4z"/>
	<path d="M443.2,227.6c0-0.6,0-1.1,0-1.6h0.9l0.1,1h0c0.3-0.6,1-1.1,1.9-1.1c0.8,0,2.1,0.5,2.1,2.5v3.5h-1.1v-3.3
		c0-0.9-0.3-1.7-1.3-1.7c-0.7,0-1.2,0.5-1.4,1.1c0,0.1-0.1,0.3-0.1,0.5v3.5h-1.1V227.6z"/>
	<path d="M450.1,226l1.1,3.3c0.2,0.5,0.3,1,0.5,1.5h0c0.1-0.5,0.3-1,0.5-1.5l1.1-3.3h1.1l-2.3,5.8h-1L449,226H450.1z"/>
	<path d="M456.6,224.4c0,0.4-0.3,0.6-0.7,0.6c-0.4,0-0.6-0.3-0.6-0.6c0-0.4,0.3-0.7,0.7-0.7C456.4,223.7,456.6,224,456.6,224.4z
		 M455.5,231.8V226h1.1v5.8H455.5z"/>
	<path d="M459.5,224.4v1.7h1.5v0.8h-1.5v3.1c0,0.7,0.2,1.1,0.8,1.1c0.3,0,0.5,0,0.6-0.1l0,0.8c-0.2,0.1-0.5,0.1-0.9,0.1
		c-0.5,0-0.9-0.2-1.1-0.4c-0.3-0.3-0.4-0.8-0.4-1.5v-3.2h-0.9V226h0.9v-1.4L459.5,224.4z"/>
	<path d="M463.4,224.4c0,0.4-0.3,0.6-0.7,0.6c-0.4,0-0.6-0.3-0.6-0.6c0-0.4,0.3-0.7,0.7-0.7C463.2,223.7,463.4,224,463.4,224.4z
		 M462.2,231.8V226h1.1v5.8H462.2z"/>
	<path d="M465.6,229.1c0,1.4,0.9,2,2,2c0.8,0,1.2-0.1,1.6-0.3l0.2,0.8c-0.4,0.2-1,0.4-1.9,0.4c-1.8,0-2.9-1.2-2.9-2.9s1-3.1,2.7-3.1
		c1.9,0,2.4,1.7,2.4,2.7c0,0.2,0,0.4,0,0.5H465.6z M468.7,228.4c0-0.7-0.3-1.7-1.5-1.7c-1.1,0-1.5,1-1.6,1.7H468.7z"/>
	<path d="M476.1,223.3v7c0,0.5,0,1.1,0,1.5h-0.9l0-1h0c-0.3,0.6-1,1.1-2,1.1c-1.4,0-2.5-1.2-2.5-3c0-1.9,1.2-3.1,2.6-3.1
		c0.9,0,1.5,0.4,1.8,0.9h0v-3.5H476.1z M475,228.4c0-0.1,0-0.3,0-0.4c-0.2-0.7-0.7-1.2-1.5-1.2c-1.1,0-1.7,1-1.7,2.2
		c0,1.2,0.6,2.1,1.7,2.1c0.7,0,1.4-0.5,1.5-1.3c0-0.1,0-0.3,0-0.5V228.4z"/>
	<path d="M480.8,226l1.3,3.4c0.1,0.4,0.3,0.8,0.4,1.2h0c0.1-0.3,0.2-0.8,0.4-1.2l1.2-3.4h1.1l-1.6,4.1c-0.8,2-1.3,3-2,3.6
		c-0.5,0.5-1,0.6-1.3,0.7l-0.3-0.9c0.3-0.1,0.6-0.3,0.9-0.5c0.3-0.2,0.6-0.6,0.9-1.2c0-0.1,0.1-0.2,0.1-0.3c0-0.1,0-0.1-0.1-0.3
		l-2.1-5.3H480.8z"/>
	<path d="M491.2,228.9c0,2.1-1.5,3.1-2.9,3.1c-1.6,0-2.8-1.2-2.8-3c0-1.9,1.3-3.1,2.9-3.1C490,225.9,491.2,227.1,491.2,228.9z
		 M486.6,228.9c0,1.3,0.7,2.2,1.8,2.2c1,0,1.8-0.9,1.8-2.3c0-1-0.5-2.2-1.7-2.2C487.1,226.7,486.6,227.8,486.6,228.9z"/>
	<path d="M497.4,230.3c0,0.6,0,1.1,0,1.6h-0.9l-0.1-0.9h0c-0.3,0.5-0.9,1.1-1.9,1.1c-0.9,0-2-0.5-2-2.5V226h1.1v3.2
		c0,1.1,0.3,1.8,1.3,1.8c0.7,0,1.2-0.5,1.4-1c0.1-0.2,0.1-0.3,0.1-0.5V226h1.1V230.3z"/>
	<path d="M502.9,224.4v1.7h1.5v0.8h-1.5v3.1c0,0.7,0.2,1.1,0.8,1.1c0.3,0,0.5,0,0.6-0.1l0,0.8c-0.2,0.1-0.5,0.1-0.9,0.1
		c-0.5,0-0.9-0.2-1.1-0.4c-0.3-0.3-0.4-0.8-0.4-1.5v-3.2H501V226h0.9v-1.4L502.9,224.4z"/>
	<path d="M510.8,228.9c0,2.1-1.5,3.1-2.9,3.1c-1.6,0-2.8-1.2-2.8-3c0-1.9,1.3-3.1,2.9-3.1C509.7,225.9,510.8,227.1,510.8,228.9z
		 M506.2,228.9c0,1.3,0.7,2.2,1.8,2.2c1,0,1.8-0.9,1.8-2.3c0-1-0.5-2.2-1.7-2.2C506.7,226.7,506.2,227.8,506.2,228.9z"/>
	<path d="M514.7,227.9c0-0.7,0-1.3,0-1.9h0.9l0,1h0c0.4-0.7,1.1-1.1,2.1-1.1c1.4,0,2.5,1.2,2.5,3c0,2.1-1.3,3.1-2.6,3.1
		c-0.8,0-1.4-0.3-1.8-0.9h0v3.2h-1V227.9z M515.7,229.5c0,0.2,0,0.3,0,0.4c0.2,0.7,0.8,1.2,1.6,1.2c1.1,0,1.8-0.9,1.8-2.2
		c0-1.2-0.6-2.2-1.7-2.2c-0.7,0-1.4,0.5-1.6,1.3c0,0.1-0.1,0.3-0.1,0.4V229.5z"/>
	<path d="M521.5,223.3h1.1v8.5h-1.1V223.3z"/>
	<path d="M527.6,231.8l-0.1-0.7h0c-0.3,0.5-0.9,0.9-1.8,0.9c-1.2,0-1.8-0.8-1.8-1.7c0-1.4,1.2-2.2,3.5-2.2V228
		c0-0.5-0.1-1.3-1.3-1.3c-0.5,0-1.1,0.2-1.5,0.4l-0.2-0.7c0.5-0.3,1.2-0.5,1.9-0.5c1.8,0,2.2,1.2,2.2,2.4v2.2c0,0.5,0,1,0.1,1.4
		H527.6z M527.4,228.9c-1.2,0-2.5,0.2-2.5,1.3c0,0.7,0.5,1,1,1c0.8,0,1.2-0.5,1.4-1c0-0.1,0.1-0.2,0.1-0.3V228.9z"/>
	<path d="M530.4,226l1.3,3.4c0.1,0.4,0.3,0.8,0.4,1.2h0c0.1-0.3,0.2-0.8,0.4-1.2l1.2-3.4h1.1l-1.6,4.1c-0.8,2-1.3,3-2,3.6
		c-0.5,0.5-1,0.6-1.3,0.7l-0.3-0.9c0.3-0.1,0.6-0.3,0.9-0.5c0.3-0.2,0.6-0.6,0.9-1.2c0-0.1,0.1-0.2,0.1-0.3c0-0.1,0-0.1-0.1-0.3
		l-2.1-5.3H530.4z"/>
	<path d="M392.7,246.2v-5h-0.8v-0.8h0.8v-0.3c0-0.8,0.2-1.6,0.7-2c0.4-0.4,0.9-0.5,1.4-0.5c0.4,0,0.7,0.1,0.9,0.2l-0.1,0.8
		c-0.2-0.1-0.4-0.1-0.7-0.1c-0.9,0-1.1,0.8-1.1,1.7v0.3h1.4v0.8h-1.4v5H392.7z"/>
	<path d="M399.3,246.2l-0.1-0.7h0c-0.3,0.5-0.9,0.9-1.8,0.9c-1.2,0-1.8-0.8-1.8-1.7c0-1.4,1.2-2.2,3.5-2.2v-0.1
		c0-0.5-0.1-1.3-1.3-1.3c-0.5,0-1.1,0.2-1.5,0.4l-0.2-0.7c0.5-0.3,1.2-0.5,1.9-0.5c1.8,0,2.2,1.2,2.2,2.4v2.2c0,0.5,0,1,0.1,1.4
		H399.3z M399.2,243.3c-1.2,0-2.5,0.2-2.5,1.3c0,0.7,0.5,1,1,1c0.8,0,1.2-0.5,1.4-1c0-0.1,0.1-0.2,0.1-0.3V243.3z"/>
	<path d="M401.9,242.2c0-0.7,0-1.3,0-1.8h0.9l0,1.1h0c0.3-0.8,0.9-1.3,1.6-1.3c0.1,0,0.2,0,0.3,0v1c-0.1,0-0.2,0-0.4,0
		c-0.7,0-1.3,0.6-1.4,1.4c0,0.1,0,0.3,0,0.5v3.1h-1V242.2z"/>
	<path d="M405.9,242c0-0.6,0-1.1,0-1.6h0.9l0,0.9h0c0.3-0.6,0.9-1.1,1.8-1.1c0.8,0,1.4,0.5,1.6,1.2h0c0.2-0.3,0.4-0.6,0.6-0.8
		c0.3-0.3,0.7-0.4,1.3-0.4c0.8,0,1.9,0.5,1.9,2.5v3.4h-1v-3.3c0-1.1-0.4-1.8-1.3-1.8c-0.6,0-1.1,0.4-1.2,1c0,0.1-0.1,0.3-0.1,0.5
		v3.6h-1v-3.5c0-0.9-0.4-1.6-1.2-1.6c-0.7,0-1.1,0.5-1.3,1.1c-0.1,0.2-0.1,0.3-0.1,0.5v3.5h-1V242z"/>
	<path d="M416.1,240.4l1.1,3.3c0.2,0.5,0.3,1,0.5,1.5h0c0.1-0.5,0.3-1,0.5-1.5l1.1-3.3h1.1l-2.3,5.8h-1l-2.2-5.8H416.1z"/>
	<path d="M422.7,238.8c0,0.4-0.3,0.6-0.7,0.6c-0.4,0-0.6-0.3-0.6-0.6c0-0.4,0.3-0.7,0.7-0.7C422.4,238.1,422.7,238.4,422.7,238.8z
		 M421.5,246.2v-5.8h1.1v5.8H421.5z"/>
	<path d="M424.3,237.7h1.1v8.5h-1.1V237.7z"/>
	<path d="M427.1,237.7h1.1v8.5h-1.1V237.7z"/>
	<path d="M430.6,243.5c0,1.4,0.9,2,2,2c0.8,0,1.2-0.1,1.6-0.3l0.2,0.8c-0.4,0.2-1,0.4-1.9,0.4c-1.8,0-2.9-1.2-2.9-2.9s1-3.1,2.7-3.1
		c1.9,0,2.4,1.7,2.4,2.7c0,0.2,0,0.4,0,0.5H430.6z M433.7,242.8c0-0.7-0.3-1.7-1.5-1.7c-1.1,0-1.5,1-1.6,1.7H433.7z"/>
</g>
<g>
	<path d="M396.8,279.7h-3.1v2.9h3.5v0.9h-4.5v-8.1h4.4v0.9h-3.3v2.6h3.1V279.7z"/>
	<path d="M398.5,279.5c0-0.7,0-1.3,0-1.8h0.9l0,1.1h0c0.3-0.8,0.9-1.3,1.6-1.3c0.1,0,0.2,0,0.3,0v1c-0.1,0-0.2,0-0.4,0
		c-0.7,0-1.3,0.6-1.4,1.4c0,0.1,0,0.3,0,0.5v3.1h-1V279.5z"/>
	<path d="M403.7,276.1c0,0.4-0.3,0.6-0.7,0.6c-0.4,0-0.6-0.3-0.6-0.6c0-0.4,0.3-0.7,0.7-0.7C403.4,275.4,403.7,275.7,403.7,276.1z
		 M402.5,283.5v-5.8h1.1v5.8H402.5z"/>
	<path d="M406.4,280.4L406.4,280.4c0.2-0.2,0.4-0.5,0.5-0.7l1.7-2h1.3l-2.2,2.4l2.6,3.4h-1.3l-2-2.8l-0.5,0.6v2.2h-1V275h1V280.4z"
		/>
	<path d="M414.4,283.5l-0.1-0.7h0c-0.3,0.5-0.9,0.9-1.8,0.9c-1.2,0-1.8-0.8-1.8-1.7c0-1.4,1.2-2.2,3.5-2.2v-0.1
		c0-0.5-0.1-1.3-1.3-1.3c-0.5,0-1.1,0.2-1.5,0.4l-0.2-0.7c0.5-0.3,1.2-0.5,1.9-0.5c1.8,0,2.2,1.2,2.2,2.4v2.2c0,0.5,0,1,0.1,1.4
		H414.4z M414.2,280.5c-1.2,0-2.5,0.2-2.5,1.3c0,0.7,0.5,1,1,1c0.8,0,1.2-0.5,1.4-1c0-0.1,0.1-0.2,0.1-0.3V280.5z"/>
	<path d="M419.5,275h1.1v3.6h0c0.2-0.3,0.4-0.6,0.8-0.7c0.3-0.2,0.7-0.3,1.1-0.3c0.8,0,2,0.5,2,2.5v3.5h-1.1v-3.3
		c0-0.9-0.3-1.7-1.3-1.7c-0.7,0-1.2,0.5-1.4,1.1c-0.1,0.1-0.1,0.3-0.1,0.5v3.5h-1.1V275z"/>
	<path d="M429.4,283.5l-0.1-0.7h0c-0.3,0.5-0.9,0.9-1.8,0.9c-1.2,0-1.8-0.8-1.8-1.7c0-1.4,1.2-2.2,3.5-2.2v-0.1
		c0-0.5-0.1-1.3-1.3-1.3c-0.5,0-1.1,0.2-1.5,0.4l-0.2-0.7c0.5-0.3,1.2-0.5,1.9-0.5c1.8,0,2.2,1.2,2.2,2.4v2.2c0,0.5,0,1,0.1,1.4
		H429.4z M429.2,280.5c-1.2,0-2.5,0.2-2.5,1.3c0,0.7,0.5,1,1,1c0.8,0,1.2-0.5,1.4-1c0-0.1,0.1-0.2,0.1-0.3V280.5z"/>
	<path d="M431.8,282.4c0.3,0.2,0.9,0.4,1.4,0.4c0.8,0,1.1-0.4,1.1-0.9c0-0.5-0.3-0.8-1.1-1.1c-1-0.4-1.5-0.9-1.5-1.6
		c0-0.9,0.8-1.7,2-1.7c0.6,0,1.1,0.2,1.4,0.4l-0.3,0.8c-0.2-0.1-0.6-0.3-1.2-0.3c-0.6,0-1,0.4-1,0.8c0,0.5,0.3,0.7,1.1,1
		c1,0.4,1.5,0.9,1.5,1.8c0,1-0.8,1.7-2.2,1.7c-0.6,0-1.2-0.2-1.6-0.4L431.8,282.4z"/>
	<path d="M440.4,276.1c0,0.4-0.3,0.6-0.7,0.6c-0.4,0-0.6-0.3-0.6-0.6c0-0.4,0.3-0.7,0.7-0.7C440.1,275.4,440.4,275.7,440.4,276.1z
		 M439.2,283.5v-5.8h1.1v5.8H439.2z"/>
	<path d="M442,279.3c0-0.6,0-1.1,0-1.6h0.9l0.1,1h0c0.3-0.6,1-1.1,1.9-1.1c0.8,0,2.1,0.5,2.1,2.5v3.5h-1.1v-3.3
		c0-0.9-0.3-1.7-1.3-1.7c-0.7,0-1.2,0.5-1.4,1.1c0,0.1-0.1,0.3-0.1,0.5v3.5H442V279.3z"/>
	<path d="M448.9,277.7l1.1,3.3c0.2,0.5,0.3,1,0.5,1.5h0c0.1-0.5,0.3-1,0.5-1.5l1.1-3.3h1.1l-2.3,5.8h-1l-2.2-5.8H448.9z"/>
	<path d="M455.5,276.1c0,0.4-0.3,0.6-0.7,0.6c-0.4,0-0.6-0.3-0.6-0.6c0-0.4,0.3-0.7,0.7-0.7C455.2,275.4,455.5,275.7,455.5,276.1z
		 M454.3,283.5v-5.8h1.1v5.8H454.3z"/>
	<path d="M458.4,276v1.7h1.5v0.8h-1.5v3.1c0,0.7,0.2,1.1,0.8,1.1c0.3,0,0.5,0,0.6-0.1l0,0.8c-0.2,0.1-0.5,0.1-0.9,0.1
		c-0.5,0-0.9-0.2-1.1-0.4c-0.3-0.3-0.4-0.8-0.4-1.5v-3.2h-0.9v-0.8h0.9v-1.4L458.4,276z"/>
	<path d="M461.6,280.8c0,1.4,0.9,2,2,2c0.8,0,1.2-0.1,1.6-0.3l0.2,0.8c-0.4,0.2-1,0.4-1.9,0.4c-1.8,0-2.9-1.2-2.9-2.9s1-3.1,2.7-3.1
		c1.9,0,2.4,1.7,2.4,2.7c0,0.2,0,0.4,0,0.5H461.6z M464.7,280c0-0.7-0.3-1.7-1.5-1.7c-1.1,0-1.5,1-1.6,1.7H464.7z"/>
	<path d="M472,275v7c0,0.5,0,1.1,0,1.5h-0.9l0-1h0c-0.3,0.6-1,1.1-2,1.1c-1.4,0-2.5-1.2-2.5-3c0-1.9,1.2-3.1,2.6-3.1
		c0.9,0,1.5,0.4,1.8,0.9h0V275H472z M471,280.1c0-0.1,0-0.3,0-0.4c-0.2-0.7-0.7-1.2-1.5-1.2c-1.1,0-1.7,1-1.7,2.2
		c0,1.2,0.6,2.1,1.7,2.1c0.7,0,1.4-0.5,1.5-1.3c0-0.1,0-0.3,0-0.5V280.1z"/>
	<path d="M476.7,277.7l1.3,3.4c0.1,0.4,0.3,0.8,0.4,1.2h0c0.1-0.3,0.2-0.8,0.4-1.2l1.2-3.4h1.1l-1.6,4.1c-0.8,2-1.3,3-2,3.6
		c-0.5,0.5-1,0.6-1.3,0.7l-0.3-0.9c0.3-0.1,0.6-0.3,0.9-0.5c0.3-0.2,0.6-0.6,0.9-1.2c0-0.1,0.1-0.2,0.1-0.3c0-0.1,0-0.1-0.1-0.3
		l-2.1-5.3H476.7z"/>
	<path d="M487.1,280.5c0,2.1-1.5,3.1-2.9,3.1c-1.6,0-2.8-1.2-2.8-3c0-1.9,1.3-3.1,2.9-3.1C486,277.6,487.1,278.8,487.1,280.5z
		 M482.5,280.6c0,1.3,0.7,2.2,1.8,2.2c1,0,1.8-0.9,1.8-2.3c0-1-0.5-2.2-1.7-2.2C483.1,278.4,482.5,279.5,482.5,280.6z"/>
	<path d="M493.3,281.9c0,0.6,0,1.1,0,1.6h-0.9l-0.1-0.9h0c-0.3,0.5-0.9,1.1-1.9,1.1c-0.9,0-2-0.5-2-2.5v-3.4h1.1v3.2
		c0,1.1,0.3,1.8,1.3,1.8c0.7,0,1.2-0.5,1.4-1c0.1-0.2,0.1-0.3,0.1-0.5v-3.6h1.1V281.9z"/>
	<path d="M498.9,276v1.7h1.5v0.8h-1.5v3.1c0,0.7,0.2,1.1,0.8,1.1c0.3,0,0.5,0,0.6-0.1l0,0.8c-0.2,0.1-0.5,0.1-0.9,0.1
		c-0.5,0-0.9-0.2-1.1-0.4c-0.3-0.3-0.4-0.8-0.4-1.5v-3.2H497v-0.8h0.9v-1.4L498.9,276z"/>
	<path d="M506.8,280.5c0,2.1-1.5,3.1-2.9,3.1c-1.6,0-2.8-1.2-2.8-3c0-1.9,1.3-3.1,2.9-3.1C505.6,277.6,506.8,278.8,506.8,280.5z
		 M502.2,280.6c0,1.3,0.7,2.2,1.8,2.2c1,0,1.8-0.9,1.8-2.3c0-1-0.5-2.2-1.7-2.2C502.7,278.4,502.2,279.5,502.2,280.6z"/>
	<path d="M510.6,279.6c0-0.7,0-1.3,0-1.9h0.9l0,1h0c0.4-0.7,1.1-1.1,2.1-1.1c1.4,0,2.5,1.2,2.5,3c0,2.1-1.3,3.1-2.6,3.1
		c-0.8,0-1.4-0.3-1.8-0.9h0v3.2h-1V279.6z M511.7,281.1c0,0.2,0,0.3,0,0.4c0.2,0.7,0.8,1.2,1.6,1.2c1.1,0,1.8-0.9,1.8-2.2
		c0-1.2-0.6-2.2-1.7-2.2c-0.7,0-1.4,0.5-1.6,1.3c0,0.1-0.1,0.3-0.1,0.4V281.1z"/>
	<path d="M517.5,275h1.1v8.5h-1.1V275z"/>
	<path d="M523.5,283.5l-0.1-0.7h0c-0.3,0.5-0.9,0.9-1.8,0.9c-1.2,0-1.8-0.8-1.8-1.7c0-1.4,1.2-2.2,3.5-2.2v-0.1
		c0-0.5-0.1-1.3-1.3-1.3c-0.5,0-1.1,0.2-1.5,0.4l-0.2-0.7c0.5-0.3,1.2-0.5,1.9-0.5c1.8,0,2.2,1.2,2.2,2.4v2.2c0,0.5,0,1,0.1,1.4
		H523.5z M523.4,280.5c-1.2,0-2.5,0.2-2.5,1.3c0,0.7,0.5,1,1,1c0.8,0,1.2-0.5,1.4-1c0-0.1,0.1-0.2,0.1-0.3V280.5z"/>
	<path d="M526.4,277.7l1.3,3.4c0.1,0.4,0.3,0.8,0.4,1.2h0c0.1-0.3,0.2-0.8,0.4-1.2l1.2-3.4h1.1l-1.6,4.1c-0.8,2-1.3,3-2,3.6
		c-0.5,0.5-1,0.6-1.3,0.7l-0.3-0.9c0.3-0.1,0.6-0.3,0.9-0.5c0.3-0.2,0.6-0.6,0.9-1.2c0-0.1,0.1-0.2,0.1-0.3c0-0.1,0-0.1-0.1-0.3
		l-2.1-5.3H526.4z"/>
	<path d="M394,297.9l-2.1-8.1h1.1l1,4.1c0.2,1,0.5,2,0.6,2.8h0c0.1-0.8,0.4-1.8,0.7-2.8l1.1-4.1h1.1l1,4.1c0.2,1,0.4,1.9,0.6,2.8h0
		c0.2-0.9,0.4-1.8,0.6-2.8l1.1-4.1h1.1l-2.3,8.1h-1.1l-1-4.2c-0.3-1-0.4-1.8-0.5-2.6h0c-0.1,0.8-0.3,1.6-0.6,2.6l-1.2,4.2H394z"/>
	<path d="M407.6,295c0,2.1-1.5,3.1-2.9,3.1c-1.6,0-2.8-1.2-2.8-3c0-1.9,1.3-3.1,2.9-3.1C406.5,292,407.6,293.2,407.6,295z M403,295
		c0,1.3,0.7,2.2,1.8,2.2c1,0,1.8-0.9,1.8-2.3c0-1-0.5-2.2-1.7-2.2C403.6,292.8,403,293.9,403,295z"/>
	<path d="M409,293.9c0-0.7,0-1.3,0-1.8h0.9l0,1.1h0c0.3-0.8,0.9-1.3,1.6-1.3c0.1,0,0.2,0,0.3,0v1c-0.1,0-0.2,0-0.4,0
		c-0.7,0-1.3,0.6-1.4,1.4c0,0.1,0,0.3,0,0.5v3.1h-1V293.9z"/>
	<path d="M417.8,289.4v7c0,0.5,0,1.1,0,1.5h-0.9l0-1h0c-0.3,0.6-1,1.1-2,1.1c-1.4,0-2.5-1.2-2.5-3c0-1.9,1.2-3.1,2.6-3.1
		c0.9,0,1.5,0.4,1.8,0.9h0v-3.5H417.8z M416.7,294.5c0-0.1,0-0.3,0-0.4c-0.2-0.7-0.7-1.2-1.5-1.2c-1.1,0-1.7,1-1.7,2.2
		c0,1.2,0.6,2.1,1.7,2.1c0.7,0,1.4-0.5,1.5-1.3c0-0.1,0-0.3,0-0.5V294.5z"/>
	<path d="M419.4,296.8c0.3,0.2,0.9,0.4,1.4,0.4c0.8,0,1.1-0.4,1.1-0.9c0-0.5-0.3-0.8-1.1-1.1c-1-0.4-1.5-0.9-1.5-1.6
		c0-0.9,0.8-1.7,2-1.7c0.6,0,1.1,0.2,1.4,0.4l-0.3,0.8c-0.2-0.1-0.6-0.3-1.2-0.3c-0.6,0-1,0.4-1,0.8c0,0.5,0.3,0.7,1.1,1
		c1,0.4,1.5,0.9,1.5,1.8c0,1-0.8,1.7-2.2,1.7c-0.6,0-1.2-0.2-1.6-0.4L419.4,296.8z"/>
	<path d="M427.8,297.9l-2.1-8.1h1.1l1,4.1c0.2,1,0.5,2,0.6,2.8h0c0.1-0.8,0.4-1.8,0.7-2.8l1.1-4.1h1.1l1,4.1c0.2,1,0.4,1.9,0.6,2.8
		h0c0.2-0.9,0.4-1.8,0.6-2.8l1.1-4.1h1.1l-2.3,8.1h-1.1l-1-4.2c-0.3-1-0.4-1.8-0.5-2.6h0c-0.1,0.8-0.3,1.6-0.6,2.6l-1.2,4.2H427.8z"
		/>
	<path d="M437.5,290.5c0,0.4-0.3,0.6-0.7,0.6c-0.4,0-0.6-0.3-0.6-0.6c0-0.4,0.3-0.7,0.7-0.7C437.3,289.8,437.5,290.1,437.5,290.5z
		 M436.4,297.9v-5.8h1.1v5.8H436.4z"/>
	<path d="M440.4,290.4v1.7h1.5v0.8h-1.5v3.1c0,0.7,0.2,1.1,0.8,1.1c0.3,0,0.5,0,0.6-0.1l0,0.8c-0.2,0.1-0.5,0.1-0.9,0.1
		c-0.5,0-0.9-0.2-1.1-0.4c-0.3-0.3-0.4-0.8-0.4-1.5v-3.2h-0.9v-0.8h0.9v-1.4L440.4,290.4z"/>
	<path d="M443.1,289.4h1.1v3.6h0c0.2-0.3,0.4-0.6,0.8-0.7c0.3-0.2,0.7-0.3,1.1-0.3c0.8,0,2,0.5,2,2.5v3.5H447v-3.3
		c0-0.9-0.3-1.7-1.3-1.7c-0.7,0-1.2,0.5-1.4,1.1c-0.1,0.1-0.1,0.3-0.1,0.5v3.5h-1.1V289.4z"/>
	<path d="M452.4,289.8h4.4v0.9h-3.3v2.7h3.1v0.9h-3.1v3.7h-1V289.8z"/>
	<path d="M457.9,293.9c0-0.7,0-1.3,0-1.8h0.9l0,1.1h0c0.3-0.8,0.9-1.3,1.6-1.3c0.1,0,0.2,0,0.3,0v1c-0.1,0-0.2,0-0.4,0
		c-0.7,0-1.3,0.6-1.4,1.4c0,0.1,0,0.3,0,0.5v3.1h-1V293.9z"/>
	<path d="M463,290.5c0,0.4-0.3,0.6-0.7,0.6c-0.4,0-0.6-0.3-0.6-0.6c0-0.4,0.3-0.7,0.7-0.7C462.8,289.8,463,290.1,463,290.5z
		 M461.9,297.9v-5.8h1.1v5.8H461.9z"/>
	<path d="M465.2,295.2c0,1.4,0.9,2,2,2c0.8,0,1.2-0.1,1.6-0.3l0.2,0.8c-0.4,0.2-1,0.4-1.9,0.4c-1.8,0-2.9-1.2-2.9-2.9s1-3.1,2.7-3.1
		c1.9,0,2.4,1.7,2.4,2.7c0,0.2,0,0.4,0,0.5H465.2z M468.3,294.4c0-0.7-0.3-1.7-1.5-1.7c-1.1,0-1.5,1-1.6,1.7H468.3z"/>
	<path d="M470.7,293.7c0-0.6,0-1.1,0-1.6h0.9l0.1,1h0c0.3-0.6,1-1.1,1.9-1.1c0.8,0,2.1,0.5,2.1,2.5v3.5h-1.1v-3.3
		c0-0.9-0.3-1.7-1.3-1.7c-0.7,0-1.2,0.5-1.4,1.1c0,0.1-0.1,0.3-0.1,0.5v3.5h-1.1V293.7z"/>
	<path d="M482.3,289.4v7c0,0.5,0,1.1,0,1.5h-0.9l0-1h0c-0.3,0.6-1,1.1-2,1.1c-1.4,0-2.5-1.2-2.5-3c0-1.9,1.2-3.1,2.6-3.1
		c0.9,0,1.5,0.4,1.8,0.9h0v-3.5H482.3z M481.3,294.5c0-0.1,0-0.3,0-0.4c-0.2-0.7-0.7-1.2-1.5-1.2c-1.1,0-1.7,1-1.7,2.2
		c0,1.2,0.6,2.1,1.7,2.1c0.7,0,1.4-0.5,1.5-1.3c0-0.1,0-0.3,0-0.5V294.5z"/>
	<path d="M484,296.8c0.3,0.2,0.9,0.4,1.4,0.4c0.8,0,1.1-0.4,1.1-0.9c0-0.5-0.3-0.8-1.1-1.1c-1-0.4-1.5-0.9-1.5-1.6
		c0-0.9,0.8-1.7,2-1.7c0.6,0,1.1,0.2,1.4,0.4l-0.3,0.8c-0.2-0.1-0.6-0.3-1.2-0.3c-0.6,0-1,0.4-1,0.8c0,0.5,0.3,0.7,1.1,1
		c1,0.4,1.5,0.9,1.5,1.8c0,1-0.8,1.7-2.2,1.7c-0.6,0-1.2-0.2-1.6-0.4L484,296.8z"/>
</g>
<g>
	<path d="M399.5,337.5c-0.1-1.1-0.1-2.5-0.1-3.5h0c-0.3,0.9-0.6,2-1,3.1l-1.4,3.9h-0.8l-1.3-3.8c-0.4-1.1-0.7-2.2-0.9-3.1h0
		c0,1-0.1,2.4-0.2,3.6l-0.2,3.5h-1l0.6-8.1h1.3l1.4,3.9c0.3,1,0.6,1.9,0.8,2.7h0c0.2-0.8,0.5-1.7,0.9-2.7l1.4-3.9h1.3l0.5,8.1h-1
		L399.5,337.5z"/>
	<path d="M405.6,341l-0.1-0.7h0c-0.3,0.5-0.9,0.9-1.8,0.9c-1.2,0-1.8-0.8-1.8-1.7c0-1.4,1.2-2.2,3.5-2.2v-0.1c0-0.5-0.1-1.3-1.3-1.3
		c-0.5,0-1.1,0.2-1.5,0.4l-0.2-0.7c0.5-0.3,1.2-0.5,1.9-0.5c1.8,0,2.2,1.2,2.2,2.4v2.2c0,0.5,0,1,0.1,1.4H405.6z M405.4,338
		c-1.2,0-2.5,0.2-2.5,1.3c0,0.7,0.5,1,1,1c0.8,0,1.2-0.5,1.4-1c0-0.1,0.1-0.2,0.1-0.3V338z"/>
	<path d="M408.4,335.2l1.3,3.4c0.1,0.4,0.3,0.8,0.4,1.2h0c0.1-0.3,0.2-0.8,0.4-1.2l1.2-3.4h1.1l-1.6,4.1c-0.8,2-1.3,3-2,3.6
		c-0.5,0.5-1,0.6-1.3,0.7l-0.3-0.9c0.3-0.1,0.6-0.3,0.9-0.5c0.3-0.2,0.6-0.6,0.9-1.2c0-0.1,0.1-0.2,0.1-0.3c0-0.1,0-0.1-0.1-0.3
		l-2.1-5.3H408.4z"/>
	<path d="M416.2,332.5h1.1v3.6h0c0.2-0.3,0.4-0.6,0.8-0.7c0.3-0.2,0.7-0.3,1.1-0.3c0.8,0,2,0.5,2,2.5v3.5h-1.1v-3.3
		c0-0.9-0.3-1.7-1.3-1.7c-0.7,0-1.2,0.5-1.4,1.1c-0.1,0.1-0.1,0.3-0.1,0.5v3.5h-1.1V332.5z"/>
	<path d="M426.1,341l-0.1-0.7h0c-0.3,0.5-0.9,0.9-1.8,0.9c-1.2,0-1.8-0.8-1.8-1.7c0-1.4,1.2-2.2,3.5-2.2v-0.1c0-0.5-0.1-1.3-1.3-1.3
		c-0.5,0-1.1,0.2-1.5,0.4l-0.2-0.7c0.5-0.3,1.2-0.5,1.9-0.5c1.8,0,2.2,1.2,2.2,2.4v2.2c0,0.5,0,1,0.1,1.4H426.1z M425.9,338
		c-1.2,0-2.5,0.2-2.5,1.3c0,0.7,0.5,1,1,1c0.8,0,1.2-0.5,1.4-1c0-0.1,0.1-0.2,0.1-0.3V338z"/>
	<path d="M428.5,339.9c0.3,0.2,0.9,0.4,1.4,0.4c0.8,0,1.1-0.4,1.1-0.9c0-0.5-0.3-0.8-1.1-1.1c-1-0.4-1.5-0.9-1.5-1.6
		c0-0.9,0.8-1.7,2-1.7c0.6,0,1.1,0.2,1.4,0.4l-0.3,0.8c-0.2-0.1-0.6-0.3-1.2-0.3c-0.6,0-1,0.4-1,0.8c0,0.5,0.3,0.7,1.1,1
		c1,0.4,1.5,0.9,1.5,1.8c0,1-0.8,1.7-2.2,1.7c-0.6,0-1.2-0.2-1.6-0.4L428.5,339.9z"/>
	<path d="M437.1,333.6c0,0.4-0.3,0.6-0.7,0.6c-0.4,0-0.6-0.3-0.6-0.6c0-0.4,0.3-0.7,0.7-0.7C436.9,332.9,437.1,333.2,437.1,333.6z
		 M436,341v-5.8h1.1v5.8H436z"/>
	<path d="M438.8,336.8c0-0.6,0-1.1,0-1.6h0.9l0.1,1h0c0.3-0.6,1-1.1,1.9-1.1c0.8,0,2.1,0.5,2.1,2.5v3.5h-1.1v-3.3
		c0-0.9-0.3-1.7-1.3-1.7c-0.7,0-1.2,0.5-1.4,1.1c0,0.1-0.1,0.3-0.1,0.5v3.5h-1.1V336.8z"/>
	<path d="M445.7,335.2l1.1,3.3c0.2,0.5,0.3,1,0.5,1.5h0c0.1-0.5,0.3-1,0.5-1.5l1.1-3.3h1.1l-2.3,5.8h-1l-2.2-5.8H445.7z"/>
	<path d="M452.2,333.6c0,0.4-0.3,0.6-0.7,0.6c-0.4,0-0.6-0.3-0.6-0.6c0-0.4,0.3-0.7,0.7-0.7C452,332.9,452.2,333.2,452.2,333.6z
		 M451.1,341v-5.8h1.1v5.8H451.1z"/>
	<path d="M455.1,333.5v1.7h1.5v0.8h-1.5v3.1c0,0.7,0.2,1.1,0.8,1.1c0.3,0,0.5,0,0.6-0.1l0,0.8c-0.2,0.1-0.5,0.1-0.9,0.1
		c-0.5,0-0.9-0.2-1.1-0.4c-0.3-0.3-0.4-0.8-0.4-1.5V336h-0.9v-0.8h0.9v-1.4L455.1,333.5z"/>
	<path d="M458.3,338.3c0,1.4,0.9,2,2,2c0.8,0,1.2-0.1,1.6-0.3l0.2,0.8c-0.4,0.2-1,0.4-1.9,0.4c-1.8,0-2.9-1.2-2.9-2.9s1-3.1,2.7-3.1
		c1.9,0,2.4,1.7,2.4,2.7c0,0.2,0,0.4,0,0.5H458.3z M461.4,337.5c0-0.7-0.3-1.7-1.5-1.7c-1.1,0-1.5,1-1.6,1.7H461.4z"/>
	<path d="M468.8,332.5v7c0,0.5,0,1.1,0,1.5h-0.9l0-1h0c-0.3,0.6-1,1.1-2,1.1c-1.4,0-2.5-1.2-2.5-3c0-1.9,1.2-3.1,2.6-3.1
		c0.9,0,1.5,0.4,1.8,0.9h0v-3.5H468.8z M467.7,337.6c0-0.1,0-0.3,0-0.4c-0.2-0.7-0.7-1.2-1.5-1.2c-1.1,0-1.7,1-1.7,2.2
		c0,1.2,0.6,2.1,1.7,2.1c0.7,0,1.4-0.5,1.5-1.3c0-0.1,0-0.3,0-0.5V337.6z"/>
	<path d="M473.5,335.2l1.3,3.4c0.1,0.4,0.3,0.8,0.4,1.2h0c0.1-0.3,0.2-0.8,0.4-1.2l1.2-3.4h1.1l-1.6,4.1c-0.8,2-1.3,3-2,3.6
		c-0.5,0.5-1,0.6-1.3,0.7l-0.3-0.9c0.3-0.1,0.6-0.3,0.9-0.5c0.3-0.2,0.6-0.6,0.9-1.2c0-0.1,0.1-0.2,0.1-0.3c0-0.1,0-0.1-0.1-0.3
		l-2.1-5.3H473.5z"/>
	<path d="M483.9,338c0,2.1-1.5,3.1-2.9,3.1c-1.6,0-2.8-1.2-2.8-3c0-1.9,1.3-3.1,2.9-3.1C482.7,335.1,483.9,336.3,483.9,338z
		 M479.3,338.1c0,1.3,0.7,2.2,1.8,2.2c1,0,1.8-0.9,1.8-2.3c0-1-0.5-2.2-1.7-2.2C479.8,335.9,479.3,337,479.3,338.1z"/>
	<path d="M490.1,339.4c0,0.6,0,1.1,0,1.6h-0.9l-0.1-0.9h0c-0.3,0.5-0.9,1.1-1.9,1.1c-0.9,0-2-0.5-2-2.5v-3.4h1.1v3.2
		c0,1.1,0.3,1.8,1.3,1.8c0.7,0,1.2-0.5,1.4-1c0.1-0.2,0.1-0.3,0.1-0.5v-3.6h1.1V339.4z"/>
	<path d="M495.6,333.5v1.7h1.5v0.8h-1.5v3.1c0,0.7,0.2,1.1,0.8,1.1c0.3,0,0.5,0,0.6-0.1l0,0.8c-0.2,0.1-0.5,0.1-0.9,0.1
		c-0.5,0-0.9-0.2-1.1-0.4c-0.3-0.3-0.4-0.8-0.4-1.5V336h-0.9v-0.8h0.9v-1.4L495.6,333.5z"/>
	<path d="M503.5,338c0,2.1-1.5,3.1-2.9,3.1c-1.6,0-2.8-1.2-2.8-3c0-1.9,1.3-3.1,2.9-3.1C502.4,335.1,503.5,336.3,503.5,338z
		 M498.9,338.1c0,1.3,0.7,2.2,1.8,2.2c1,0,1.8-0.9,1.8-2.3c0-1-0.5-2.2-1.7-2.2C499.4,335.9,498.9,337,498.9,338.1z"/>
	<path d="M507.4,337.1c0-0.7,0-1.3,0-1.9h0.9l0,1h0c0.4-0.7,1.1-1.1,2.1-1.1c1.4,0,2.5,1.2,2.5,3c0,2.1-1.3,3.1-2.6,3.1
		c-0.8,0-1.4-0.3-1.8-0.9h0v3.2h-1V337.1z M508.4,338.6c0,0.2,0,0.3,0,0.4c0.2,0.7,0.8,1.2,1.6,1.2c1.1,0,1.8-0.9,1.8-2.2
		c0-1.2-0.6-2.2-1.7-2.2c-0.7,0-1.4,0.5-1.6,1.3c0,0.1-0.1,0.3-0.1,0.4V338.6z"/>
	<path d="M514.2,332.5h1.1v8.5h-1.1V332.5z"/>
	<path d="M520.3,341l-0.1-0.7h0c-0.3,0.5-0.9,0.9-1.8,0.9c-1.2,0-1.8-0.8-1.8-1.7c0-1.4,1.2-2.2,3.5-2.2v-0.1c0-0.5-0.1-1.3-1.3-1.3
		c-0.5,0-1.1,0.2-1.5,0.4l-0.2-0.7c0.5-0.3,1.2-0.5,1.9-0.5c1.8,0,2.2,1.2,2.2,2.4v2.2c0,0.5,0,1,0.1,1.4H520.3z M520.1,338
		c-1.2,0-2.5,0.2-2.5,1.3c0,0.7,0.5,1,1,1c0.8,0,1.2-0.5,1.4-1c0-0.1,0.1-0.2,0.1-0.3V338z"/>
	<path d="M523.1,335.2l1.3,3.4c0.1,0.4,0.3,0.8,0.4,1.2h0c0.1-0.3,0.2-0.8,0.4-1.2l1.2-3.4h1.1l-1.6,4.1c-0.8,2-1.3,3-2,3.6
		c-0.5,0.5-1,0.6-1.3,0.7l-0.3-0.9c0.3-0.1,0.6-0.3,0.9-0.5c0.3-0.2,0.6-0.6,0.9-1.2c0-0.1,0.1-0.2,0.1-0.3c0-0.1,0-0.1-0.1-0.3
		l-2.1-5.3H523.1z"/>
	<path d="M398.3,355.1c-0.4,0.2-1.2,0.4-2.1,0.4c-2.3,0-4-1.4-4-4.1c0-2.5,1.7-4.2,4.2-4.2c1,0,1.6,0.2,1.9,0.4l-0.3,0.9
		c-0.4-0.2-1-0.3-1.6-0.3c-1.9,0-3.2,1.2-3.2,3.3c0,2,1.1,3.3,3.1,3.3c0.6,0,1.3-0.1,1.7-0.3L398.3,355.1z"/>
	<path d="M399.6,346.9h1.1v3.6h0c0.2-0.3,0.4-0.6,0.8-0.7c0.3-0.2,0.7-0.3,1.1-0.3c0.8,0,2,0.5,2,2.5v3.5h-1.1v-3.3
		c0-0.9-0.3-1.7-1.3-1.7c-0.7,0-1.2,0.5-1.4,1.1c-0.1,0.1-0.1,0.3-0.1,0.5v3.5h-1.1V346.9z"/>
	<path d="M406.8,352.7c0,1.4,0.9,2,2,2c0.8,0,1.2-0.1,1.6-0.3l0.2,0.8c-0.4,0.2-1,0.4-1.9,0.4c-1.8,0-2.9-1.2-2.9-2.9s1-3.1,2.7-3.1
		c1.9,0,2.4,1.7,2.4,2.7c0,0.2,0,0.4,0,0.5H406.8z M409.9,351.9c0-0.7-0.3-1.7-1.5-1.7c-1.1,0-1.5,1-1.6,1.7H409.9z"/>
	<path d="M416.4,355.2c-0.3,0.1-0.9,0.3-1.7,0.3c-1.8,0-2.9-1.2-2.9-3c0-1.8,1.2-3.1,3.1-3.1c0.6,0,1.2,0.2,1.5,0.3l-0.2,0.8
		c-0.3-0.1-0.6-0.3-1.2-0.3c-1.3,0-2.1,1-2.1,2.2c0,1.3,0.9,2.2,2,2.2c0.6,0,1-0.2,1.3-0.3L416.4,355.2z"/>
	<path d="M418.7,352.3L418.7,352.3c0.2-0.2,0.4-0.5,0.5-0.7l1.7-2h1.3l-2.2,2.4l2.6,3.4h-1.3l-2-2.8l-0.5,0.6v2.2h-1v-8.5h1V352.3z"
		/>
	<path d="M423.8,352.7c0,1.4,0.9,2,2,2c0.8,0,1.2-0.1,1.6-0.3l0.2,0.8c-0.4,0.2-1,0.4-1.9,0.4c-1.8,0-2.9-1.2-2.9-2.9s1-3.1,2.7-3.1
		c1.9,0,2.4,1.7,2.4,2.7c0,0.2,0,0.4,0,0.5H423.8z M426.9,351.9c0-0.7-0.3-1.7-1.5-1.7c-1.1,0-1.5,1-1.6,1.7H426.9z"/>
	<path d="M429.3,351.4c0-0.7,0-1.3,0-1.8h0.9l0,1.1h0c0.3-0.8,0.9-1.3,1.6-1.3c0.1,0,0.2,0,0.3,0v1c-0.1,0-0.2,0-0.4,0
		c-0.7,0-1.3,0.6-1.4,1.4c0,0.1,0,0.3,0,0.5v3.1h-1V351.4z"/>
	<path d="M433.1,354.3c0.3,0.2,0.9,0.4,1.4,0.4c0.8,0,1.1-0.4,1.1-0.9c0-0.5-0.3-0.8-1.1-1.1c-1-0.4-1.5-0.9-1.5-1.6
		c0-0.9,0.8-1.7,2-1.7c0.6,0,1.1,0.2,1.4,0.4l-0.3,0.8c-0.2-0.1-0.6-0.3-1.2-0.3c-0.6,0-1,0.4-1,0.8c0,0.5,0.3,0.7,1.1,1
		c1,0.4,1.5,0.9,1.5,1.8c0,1-0.8,1.7-2.2,1.7c-0.6,0-1.2-0.2-1.6-0.4L433.1,354.3z"/>
</g>
<rect x="356.8" y="226.8" class="st3" width="28.3" height="33.3"/>
<rect x="356.8" y="281.8" class="st3" width="28.3" height="33.3"/>
<rect x="356.8" y="332.7" class="st3" width="28.3" height="33.3"/>
<rect x="356.8" y="168.9" class="st3" width="28.3" height="33.3"/>
<g>
	<path d="M62.6,107.8c0.5,0.3,1.3,0.6,2.2,0.6c1.2,0,2-0.7,2-1.6c0-0.9-0.5-1.4-1.8-1.9c-1.5-0.5-2.5-1.3-2.5-2.7
		c0-1.5,1.2-2.6,3.1-2.6c1,0,1.7,0.2,2.1,0.5l-0.3,1c-0.3-0.2-0.9-0.4-1.8-0.4c-1.3,0-1.8,0.8-1.8,1.4c0,0.9,0.6,1.3,1.9,1.8
		c1.6,0.6,2.4,1.4,2.4,2.8c0,1.5-1.1,2.7-3.3,2.7c-0.9,0-1.9-0.3-2.4-0.6L62.6,107.8z"/>
	<path d="M70.4,106.2c0,1.7,1.1,2.4,2.3,2.4c0.9,0,1.4-0.2,1.9-0.4l0.2,0.9c-0.4,0.2-1.2,0.4-2.3,0.4c-2.1,0-3.3-1.4-3.3-3.4
		s1.2-3.7,3.2-3.7c2.2,0,2.8,1.9,2.8,3.2c0,0.3,0,0.4,0,0.6H70.4z M74.1,105.3c0-0.8-0.3-2-1.7-2c-1.2,0-1.8,1.1-1.9,2H74.1z"/>
	<path d="M80.5,109.3l-0.1-0.9h0c-0.4,0.5-1.1,1-2.1,1c-1.4,0-2.1-1-2.1-1.9c0-1.6,1.5-2.5,4.1-2.5v-0.1c0-0.6-0.2-1.6-1.5-1.6
		c-0.6,0-1.3,0.2-1.8,0.5l-0.3-0.8c0.6-0.4,1.4-0.6,2.2-0.6c2.1,0,2.6,1.4,2.6,2.8v2.5c0,0.6,0,1.2,0.1,1.6H80.5z M80.3,105.9
		c-1.3,0-2.9,0.2-2.9,1.5c0,0.8,0.5,1.2,1.2,1.2c0.9,0,1.4-0.6,1.6-1.1c0-0.1,0.1-0.3,0.1-0.4V105.9z"/>
	<path d="M83.5,104.7c0-0.8,0-1.5-0.1-2.1h1.1l0,1.3h0.1c0.3-0.9,1.1-1.5,1.9-1.5c0.1,0,0.2,0,0.4,0v1.2c-0.1,0-0.3,0-0.4,0
		c-0.9,0-1.5,0.7-1.7,1.6c0,0.2-0.1,0.4-0.1,0.6v3.6h-1.2V104.7z"/>
	<path d="M92.8,109.1c-0.3,0.2-1,0.4-1.9,0.4c-2,0-3.4-1.4-3.4-3.5c0-2.1,1.4-3.6,3.6-3.6c0.7,0,1.4,0.2,1.7,0.4l-0.3,1
		c-0.3-0.2-0.8-0.3-1.4-0.3c-1.6,0-2.4,1.1-2.4,2.6c0,1.6,1,2.5,2.4,2.5c0.7,0,1.2-0.2,1.5-0.3L92.8,109.1z"/>
	<path d="M94.2,99.4h1.2v4.2h0c0.2-0.4,0.5-0.7,0.9-0.9c0.4-0.2,0.8-0.4,1.3-0.4c0.9,0,2.4,0.6,2.4,2.9v4h-1.2v-3.9
		c0-1.1-0.4-2-1.6-2c-0.8,0-1.4,0.6-1.7,1.2c-0.1,0.2-0.1,0.4-0.1,0.6v4.1h-1.2V99.4z"/>
</g>
<g>
	<path d="M48.1,32.5h7c0.2,0,0.4,0.1,0.6,0.3c0.2,0.2,0.3,0.4,0.3,0.6c0,0.2-0.1,0.4-0.3,0.6c-0.2,0.2-0.4,0.3-0.6,0.3h-2.6v10.2
		h2.6c0.2,0,0.4,0.1,0.6,0.3c0.2,0.2,0.3,0.4,0.3,0.6s-0.1,0.4-0.3,0.6s-0.4,0.3-0.6,0.3h-7c-0.2,0-0.4-0.1-0.6-0.3
		c-0.2-0.2-0.3-0.4-0.3-0.6s0.1-0.4,0.3-0.6c0.2-0.2,0.4-0.3,0.6-0.3h2.6V34.3h-2.6c-0.2,0-0.4-0.1-0.6-0.3
		c-0.2-0.2-0.3-0.4-0.3-0.6c0-0.2,0.1-0.5,0.3-0.6C47.7,32.6,47.9,32.5,48.1,32.5z"/>
	<path d="M72.6,45.3V33.4c0-0.2,0.1-0.4,0.3-0.6c0.2-0.2,0.4-0.2,0.6-0.2s0.4,0.1,0.6,0.3s0.3,0.4,0.3,0.6v4.3l1.4-0.9
		c0.6-0.4,1.2-0.6,1.7-0.6h1.1c0.7,0,1.3,0.3,1.8,0.8c0.5,0.5,0.8,1.1,0.8,1.8l0.2,6.4c0,0.2-0.1,0.4-0.2,0.6s-0.4,0.3-0.6,0.3
		s-0.4-0.1-0.6-0.3c-0.2-0.2-0.2-0.4-0.3-0.6l-0.2-6.5c0-0.2-0.1-0.4-0.3-0.6S78.7,38,78.5,38h-1c-0.2,0-0.5,0.1-0.7,0.3l-2.5,1.6
		v5.5c0,0.2-0.1,0.4-0.3,0.6s-0.4,0.3-0.6,0.3s-0.4-0.1-0.6-0.3C72.7,45.8,72.6,45.6,72.6,45.3z"/>
	<path d="M94,39.4V43c0,0.8-0.4,1.5-1.1,2.1c-0.7,0.7-1.5,1-2.3,1h-2c-0.8,0-1.5-0.3-2.3-1c-0.7-0.7-1.1-1.4-1.1-2.1v-3.6
		c0-0.8,0.4-1.5,1.1-2.1c0.7-0.7,1.5-1,2.3-1h2c0.8,0,1.5,0.3,2.3,1C93.7,37.9,94,38.6,94,39.4z M87.1,39.5v3.5
		c0,0.3,0.1,0.6,0.3,0.7l0.6,0.6c0.1,0.1,0.3,0.2,0.6,0.2h2c0.3,0,0.6-0.1,0.8-0.3l0.5-0.5c0.2-0.2,0.3-0.4,0.3-0.7v-3.5
		c0-0.3-0.1-0.6-0.3-0.8l-0.6-0.5c-0.2-0.2-0.4-0.3-0.7-0.3h-1.8c-0.4,0-0.7,0.1-0.9,0.3l-0.6,0.5C87.2,38.9,87.1,39.2,87.1,39.5z"
		/>
	<path d="M99.8,45.2V49c0,0.2-0.1,0.5-0.3,0.6s-0.4,0.3-0.6,0.3s-0.4-0.1-0.6-0.3C98.1,49.5,98,49.3,98,49V36.7
		c0-0.2,0.1-0.4,0.3-0.6s0.4-0.3,0.6-0.3c0.2,0,0.4,0.1,0.6,0.3s0.3,0.4,0.3,0.6v0.6c0.8-0.9,1.7-1.4,2.5-1.4h0.4
		c0.6,0,1.2,0.2,1.7,0.7l1.4,1.2c0.6,0.5,0.9,1.2,0.9,2.1v2.7c0,0.8-0.3,1.6-1,2.1l-1.4,1.2c-0.5,0.4-1.1,0.6-1.8,0.6h-0.4
		c-0.7,0-1.2-0.2-1.7-0.7L99.8,45.2z M102.2,44.8h0.4c0.2,0,0.4-0.1,0.7-0.3l1.3-1.2c0.2-0.2,0.3-0.4,0.3-0.7v-2.8
		c0-0.3-0.1-0.5-0.4-0.7l-1.4-1.2c-0.2-0.1-0.3-0.2-0.5-0.2h-0.5c-0.2,0-0.4,0.2-0.7,0.5l-1.3,1.3c-0.2,0.2-0.3,0.5-0.3,0.8v2.2
		c0,0.3,0.1,0.5,0.4,0.8l1.2,1.2C101.7,44.7,102,44.8,102.2,44.8z"/>
	<path d="M119.4,39.5v2.1c0,0.2-0.1,0.4-0.3,0.6s-0.4,0.3-0.6,0.3h-6.1V43c0,0.3,0.1,0.5,0.4,0.7l0.5,0.4c0.3,0.2,0.5,0.3,0.8,0.3
		h4.4c0.2,0,0.4,0.1,0.6,0.3c0.2,0.2,0.3,0.4,0.3,0.6c0,0.2-0.1,0.4-0.3,0.6c-0.2,0.2-0.4,0.3-0.6,0.3H114c-0.3,0-0.6-0.1-0.9-0.2
		c-0.3-0.1-0.6-0.3-0.7-0.4l-0.8-0.7c-0.2-0.2-0.4-0.5-0.6-0.8s-0.2-0.7-0.2-0.9v-3.9c0-0.2,0.1-0.5,0.3-0.9
		c0.2-0.4,0.4-0.7,0.7-0.9l0.7-0.6c0.5-0.4,1-0.6,1.6-0.6h2.4c0.6,0,1.2,0.3,1.7,0.8l0.6,0.6C119.2,38.1,119.4,38.7,119.4,39.5z
		 M112.5,39.4v1.3h5.2v-1.2c0-0.3-0.1-0.6-0.3-0.7l-0.5-0.4c-0.3-0.2-0.5-0.3-0.7-0.3H114c-0.3,0-0.5,0.1-0.7,0.3l-0.5,0.4
		C112.6,38.9,112.5,39.1,112.5,39.4z"/>
	<path d="M144.8,38.8l-4.6,10.5c-0.2,0.4-0.4,0.6-0.8,0.6h-2.4c-0.2,0-0.4-0.1-0.6-0.2c-0.2-0.2-0.3-0.4-0.3-0.6
		c0-0.2,0.1-0.4,0.3-0.6c0.2-0.2,0.4-0.2,0.6-0.2h1.8l1.2-2.7h-0.4c-0.4,0-0.7-0.2-0.8-0.6l-2.6-6v-1.7c0-0.2,0.1-0.4,0.2-0.6
		s0.4-0.3,0.6-0.3c0.2,0,0.4,0.1,0.6,0.3c0.2,0.2,0.3,0.4,0.3,0.6l0,1.3l2.3,5.3h0.6l2.3-5.2l0-1.3c0-0.2,0.1-0.4,0.3-0.6
		c0.2-0.2,0.4-0.3,0.6-0.3c0.2,0,0.4,0.1,0.6,0.3s0.3,0.4,0.3,0.6V38.8z"/>
	<path d="M157.4,39.4V43c0,0.8-0.4,1.5-1.1,2.1c-0.7,0.7-1.5,1-2.3,1h-2c-0.8,0-1.5-0.3-2.3-1c-0.7-0.7-1.1-1.4-1.1-2.1v-3.6
		c0-0.8,0.4-1.5,1.1-2.1c0.7-0.7,1.5-1,2.3-1h2c0.8,0,1.5,0.3,2.3,1C157.1,37.9,157.4,38.6,157.4,39.4z M150.5,39.5v3.5
		c0,0.3,0.1,0.6,0.3,0.7l0.6,0.6c0.1,0.1,0.3,0.2,0.6,0.2h2c0.3,0,0.6-0.1,0.8-0.3l0.5-0.5c0.2-0.2,0.3-0.4,0.3-0.7v-3.5
		c0-0.3-0.1-0.6-0.3-0.8l-0.6-0.5c-0.2-0.2-0.4-0.3-0.7-0.3h-1.8c-0.4,0-0.7,0.1-0.9,0.3l-0.6,0.5C150.6,38.9,150.5,39.2,150.5,39.5
		z"/>
	<path d="M165.6,44.4l2.9-1.8v-5.4c0-0.2,0.1-0.4,0.3-0.6c0.2-0.2,0.4-0.3,0.6-0.3s0.4,0.1,0.6,0.3c0.2,0.2,0.3,0.4,0.3,0.6v8.2
		c0,0.2-0.1,0.4-0.3,0.6s-0.4,0.3-0.6,0.3s-0.4-0.1-0.6-0.3s-0.3-0.4-0.3-0.6v-0.7l-1.5,1c-0.6,0.4-1.2,0.6-1.8,0.6h-0.8
		c-0.7,0-1.3-0.2-1.8-0.7c-0.5-0.5-0.8-1.1-0.8-1.8l-0.3-6.5c0-0.2,0.1-0.4,0.2-0.6c0.2-0.2,0.4-0.3,0.6-0.3c0.2,0,0.4,0.1,0.6,0.3
		c0.2,0.2,0.3,0.4,0.3,0.6l0.2,6.4c0,0.6,0.4,0.9,1.1,0.9H165.6z"/>
	<path d="M189.4,40h3.4c0.2,0,0.5,0,0.8,0.1l0-1.2c0-0.2-0.1-0.4-0.3-0.6c-0.2-0.2-0.4-0.3-0.6-0.3h-3.3c-0.2,0-0.4-0.1-0.6-0.3
		s-0.3-0.4-0.3-0.6c0-0.2,0.1-0.4,0.3-0.6c0.2-0.2,0.4-0.3,0.6-0.3h3.3c0.7,0,1.3,0.2,1.8,0.7s0.8,1.1,0.8,1.8l0.2,6.4
		c0,0.2-0.1,0.4-0.3,0.6s-0.4,0.3-0.6,0.3c-0.2,0-0.5-0.1-0.6-0.3s-0.3-0.4-0.3-0.6l-1.5,0.9h-2.9c-0.7,0-1.3-0.3-1.8-0.8
		c-0.5-0.5-0.8-1.1-0.8-1.8v-1c0-0.7,0.3-1.3,0.8-1.8C188.1,40.2,188.7,40,189.4,40z M193.7,43.3l-0.1-0.7c0-0.2-0.1-0.5-0.3-0.6
		c-0.2-0.2-0.4-0.2-0.6-0.2h-3.4c-0.2,0-0.4,0.1-0.6,0.3c-0.2,0.2-0.3,0.4-0.3,0.6v1c0,0.2,0.1,0.4,0.3,0.6c0.2,0.2,0.4,0.3,0.6,0.3
		h2.4L193.7,43.3z"/>
	<path d="M206.5,46.2h-5.2c-0.2,0-0.4-0.1-0.6-0.3c-0.2-0.2-0.3-0.4-0.3-0.6c0-0.2,0.1-0.4,0.3-0.6c0.2-0.2,0.4-0.3,0.6-0.3h1.7
		V34.3h-1.7c-0.2,0-0.4-0.1-0.6-0.3c-0.2-0.2-0.3-0.4-0.3-0.6s0.1-0.4,0.3-0.6c0.2-0.2,0.4-0.3,0.6-0.3h2.6c0.2,0,0.4,0.1,0.6,0.3
		s0.3,0.4,0.3,0.6v11h1.7c0.2,0,0.4,0.1,0.6,0.3s0.3,0.4,0.3,0.6c0,0.2-0.1,0.4-0.3,0.6C206.9,46.1,206.7,46.2,206.5,46.2z"/>
	<path d="M217.4,40.1v2l1.1,2l0.6-2l0.2-5c0-0.2,0.1-0.4,0.3-0.6s0.4-0.3,0.6-0.3c0.2,0,0.4,0.1,0.6,0.3s0.3,0.4,0.2,0.6l-0.2,5.4
		l-0.9,3c-0.1,0.4-0.4,0.6-0.8,0.6h-0.9c-0.3,0-0.6-0.2-0.8-0.5l-0.9-1.6l-0.9,1.6c-0.2,0.3-0.5,0.5-0.8,0.5h-0.9
		c-0.2,0-0.4-0.1-0.5-0.2c-0.2-0.1-0.3-0.3-0.3-0.4l-0.9-3.2l-0.2-5.3c0-0.2,0.1-0.4,0.3-0.6c0.2-0.2,0.4-0.3,0.6-0.3
		c0.2,0,0.4,0.1,0.6,0.2c0.2,0.2,0.3,0.4,0.3,0.6l0.2,5l0.6,1.9l1.2-2v-2c0-0.2,0.1-0.4,0.3-0.6s0.4-0.3,0.6-0.3
		c0.2,0,0.4,0.1,0.6,0.2S217.4,39.9,217.4,40.1z"/>
	<path d="M227.4,40h3.4c0.2,0,0.5,0,0.8,0.1l0-1.2c0-0.2-0.1-0.4-0.3-0.6c-0.2-0.2-0.4-0.3-0.6-0.3h-3.3c-0.2,0-0.4-0.1-0.6-0.3
		s-0.3-0.4-0.3-0.6c0-0.2,0.1-0.4,0.3-0.6c0.2-0.2,0.4-0.3,0.6-0.3h3.3c0.7,0,1.3,0.2,1.8,0.7s0.8,1.1,0.8,1.8l0.2,6.4
		c0,0.2-0.1,0.4-0.3,0.6s-0.4,0.3-0.6,0.3c-0.2,0-0.5-0.1-0.6-0.3s-0.3-0.4-0.3-0.6l-1.5,0.9h-2.9c-0.7,0-1.3-0.3-1.8-0.8
		c-0.5-0.5-0.8-1.1-0.8-1.8v-1c0-0.7,0.3-1.3,0.8-1.8C226.1,40.2,226.7,40,227.4,40z M231.8,43.3l-0.1-0.7c0-0.2-0.1-0.5-0.3-0.6
		c-0.2-0.2-0.4-0.2-0.6-0.2h-3.4c-0.2,0-0.4,0.1-0.6,0.3c-0.2,0.2-0.3,0.4-0.3,0.6v1c0,0.2,0.1,0.4,0.3,0.6c0.2,0.2,0.4,0.3,0.6,0.3
		h2.4L231.8,43.3z"/>
	<path d="M246.3,38.8l-4.6,10.5c-0.2,0.4-0.4,0.6-0.8,0.6h-2.4c-0.2,0-0.4-0.1-0.6-0.2c-0.2-0.2-0.3-0.4-0.3-0.6
		c0-0.2,0.1-0.4,0.3-0.6c0.2-0.2,0.4-0.2,0.6-0.2h1.8l1.2-2.7H241c-0.4,0-0.7-0.2-0.8-0.6l-2.6-6v-1.7c0-0.2,0.1-0.4,0.2-0.6
		s0.4-0.3,0.6-0.3c0.2,0,0.4,0.1,0.6,0.3c0.2,0.2,0.3,0.4,0.3,0.6l0,1.3l2.3,5.3h0.6l2.3-5.2l0-1.3c0-0.2,0.1-0.4,0.3-0.6
		c0.2-0.2,0.4-0.3,0.6-0.3c0.2,0,0.4,0.1,0.6,0.3s0.3,0.4,0.3,0.6V38.8z"/>
	<path d="M252.7,36.3h3.9c0.6,0,1.2,0.2,1.6,0.5c0.5,0.4,0.7,0.7,0.7,1.1c0,0.2-0.1,0.4-0.3,0.6c-0.2,0.2-0.4,0.2-0.6,0.2
		c-0.3,0-0.5-0.1-0.7-0.4s-0.5-0.4-0.7-0.4h-3.9c-0.4,0-0.6,0.2-0.6,0.5c0,0.2,0.1,0.4,0.4,0.5l4.6,2c0.5,0.2,0.8,0.5,1.1,1
		c0.3,0.5,0.4,1,0.4,1.5c0,0.7-0.3,1.4-0.8,1.9c-0.5,0.5-1.1,0.8-1.8,0.8h-3.5c-0.6,0-1.2-0.2-1.7-0.5s-0.8-0.7-0.8-1.1
		c0-0.2,0.1-0.4,0.3-0.6c0.2-0.2,0.4-0.3,0.7-0.3c0.2,0,0.5,0.1,0.7,0.4c0.2,0.2,0.6,0.4,1.1,0.4h3.2c0.3,0,0.5-0.1,0.6-0.3
		c0.2-0.2,0.3-0.4,0.3-0.7c0-0.4-0.2-0.7-0.6-0.8l-4.6-2.1c-0.4-0.2-0.8-0.5-1-0.9s-0.4-0.8-0.4-1.1c0-0.6,0.2-1.1,0.6-1.6
		C251.5,36.5,252,36.3,252.7,36.3z"/>
	<path d="M281,49.9h-3.7c-0.2,0-0.4-0.1-0.6-0.2c-0.2-0.2-0.3-0.4-0.3-0.6c0-0.2,0.1-0.4,0.3-0.6c0.2-0.2,0.4-0.2,0.6-0.2h3.7
		c0.2,0,0.4-0.1,0.6-0.3l0.6-0.5c0.2-0.2,0.3-0.3,0.3-0.6v-2.6c-0.8,0.8-1.6,1.2-2.4,1.2h-1.3c-0.7,0-1.3-0.2-1.8-0.7l-0.6-0.6
		c-0.2-0.2-0.4-0.4-0.5-0.8c-0.2-0.3-0.2-0.7-0.2-1v-2.9c0-0.4,0.1-0.8,0.2-1.1c0.2-0.4,0.3-0.6,0.5-0.8l0.7-0.6
		c0.5-0.4,1.1-0.7,1.8-0.7h1.2c0.7,0,1.3,0.2,1.8,0.7l0.6,0.5l0-0.3c0-0.2,0.1-0.4,0.3-0.6s0.4-0.3,0.6-0.3c0.2,0,0.4,0.1,0.6,0.3
		c0.2,0.2,0.3,0.4,0.3,0.6v9.7c0,0.7-0.3,1.4-0.9,1.9l-0.7,0.6c-0.2,0.2-0.4,0.3-0.8,0.4C281.6,49.8,281.3,49.9,281,49.9z M280,38
		h-1.2c-0.3,0-0.5,0.1-0.7,0.3l-0.5,0.4c-0.2,0.2-0.3,0.4-0.3,0.7v2.9c0,0.2,0.1,0.5,0.3,0.7l0.6,0.5c0.2,0.2,0.4,0.2,0.6,0.2h1.4
		c0.2,0,0.4-0.1,0.7-0.3l1.4-1.2c0.2-0.2,0.3-0.4,0.3-0.7v-1.3c0-0.3-0.1-0.6-0.4-0.8l-1.4-1.2C280.6,38.1,280.3,38,280,38z"/>
	<path d="M297,39.5v2.1c0,0.2-0.1,0.4-0.3,0.6s-0.4,0.3-0.6,0.3H290V43c0,0.3,0.1,0.5,0.4,0.7l0.5,0.4c0.3,0.2,0.5,0.3,0.8,0.3h4.4
		c0.2,0,0.4,0.1,0.6,0.3c0.2,0.2,0.3,0.4,0.3,0.6c0,0.2-0.1,0.4-0.3,0.6c-0.2,0.2-0.4,0.3-0.6,0.3h-4.5c-0.3,0-0.6-0.1-0.9-0.2
		c-0.3-0.1-0.6-0.3-0.7-0.4l-0.8-0.7c-0.2-0.2-0.4-0.5-0.6-0.8s-0.2-0.7-0.2-0.9v-3.9c0-0.2,0.1-0.5,0.3-0.9
		c0.2-0.4,0.4-0.7,0.7-0.9l0.7-0.6c0.5-0.4,1-0.6,1.6-0.6h2.4c0.6,0,1.2,0.3,1.7,0.8l0.6,0.6C296.7,38.1,297,38.7,297,39.5z
		 M290,39.4v1.3h5.2v-1.2c0-0.3-0.1-0.6-0.3-0.7l-0.5-0.4c-0.3-0.2-0.5-0.3-0.7-0.3h-2.2c-0.3,0-0.5,0.1-0.7,0.3l-0.5,0.4
		C290.2,38.9,290,39.1,290,39.4z"/>
	<path d="M307,46.2h-1.7c-0.7,0-1.3-0.3-1.8-0.8s-0.8-1.1-0.8-1.8V38h-0.9c-0.2,0-0.4-0.1-0.6-0.2c-0.2-0.2-0.3-0.4-0.3-0.6
		c0-0.2,0.1-0.4,0.3-0.6c0.2-0.2,0.4-0.3,0.6-0.3h0.9v-2.1c0-0.2,0.1-0.4,0.3-0.6c0.2-0.2,0.4-0.3,0.6-0.3c0.2,0,0.4,0.1,0.6,0.3
		c0.2,0.2,0.3,0.4,0.3,0.6v2.1h3.5c0.2,0,0.4,0.1,0.6,0.3s0.3,0.4,0.3,0.6c0,0.2-0.1,0.4-0.3,0.6c-0.2,0.2-0.4,0.3-0.6,0.3h-3.5v5.6
		c0,0.2,0.1,0.4,0.3,0.6c0.2,0.2,0.4,0.3,0.6,0.3h1.7c0.5,0,0.8-0.2,0.9-0.7s0.4-0.7,0.9-0.7c0.3,0,0.5,0.1,0.6,0.3
		c0.2,0.2,0.2,0.4,0.2,0.6c0,0.5-0.2,1-0.7,1.6C308.4,45.9,307.8,46.2,307,46.2z"/>
	<path d="M327.2,32.5h0.9c0.2,0,0.4,0.1,0.6,0.3s0.3,0.4,0.3,0.6c0,0.2-0.1,0.4-0.3,0.6c-0.2,0.2-0.4,0.3-0.6,0.3V40h6.1
		c0.2,0,0.4,0.1,0.6,0.3c0.2,0.2,0.3,0.4,0.3,0.6v4.5c0,0.2-0.1,0.4-0.3,0.6c-0.2,0.2-0.4,0.3-0.6,0.3h-6.9c-0.2,0-0.4-0.1-0.6-0.3
		c-0.2-0.2-0.3-0.4-0.3-0.6V33.4c0-0.2,0.1-0.4,0.3-0.6S327,32.5,327.2,32.5z M328.1,41.7v2.7h5.2v-2.7H328.1z"/>
	<path d="M339,44.5V34.2c0-0.5,0.2-0.8,0.5-1.2s0.7-0.5,1.2-0.5h5.4c0.4,0,0.8,0.2,1.2,0.5c0.3,0.3,0.5,0.7,0.5,1.2v10.3
		c0,0.5-0.2,0.8-0.5,1.2c-0.3,0.3-0.7,0.5-1.2,0.5h-5.4c-0.5,0-0.9-0.2-1.2-0.5C339.2,45.3,339,45,339,44.5z M346,44.4V34.3h-5.3
		v10.2H346z"/>
	<path d="M368.5,38.3l-2.4,1.5v5.5c0,0.2-0.1,0.4-0.3,0.6s-0.4,0.3-0.6,0.3s-0.4-0.1-0.6-0.3s-0.3-0.4-0.3-0.6v-8.2
		c0-0.2,0.1-0.4,0.3-0.6c0.2-0.2,0.4-0.3,0.6-0.3c0.2,0,0.4,0.1,0.6,0.3c0.2,0.2,0.3,0.4,0.3,0.6v0.6l1.6-1c0.5-0.3,1.1-0.5,1.8-0.5
		h0.8c0.7,0,1.3,0.2,1.8,0.7c0.5,0.5,0.8,1.1,0.8,1.8l0.2,6.5c0,0.2-0.1,0.4-0.2,0.6s-0.4,0.3-0.6,0.3c-0.2,0-0.4-0.1-0.6-0.2
		c-0.2-0.2-0.3-0.4-0.3-0.6l-0.3-6.4c0-0.6-0.3-0.9-0.9-0.9h-0.8C369.1,38,368.8,38.1,368.5,38.3z"/>
	<path d="M385.8,39.4V43c0,0.8-0.4,1.5-1.1,2.1c-0.7,0.7-1.5,1-2.3,1h-2c-0.8,0-1.5-0.3-2.3-1c-0.7-0.7-1.1-1.4-1.1-2.1v-3.6
		c0-0.8,0.4-1.5,1.1-2.1c0.7-0.7,1.5-1,2.3-1h2c0.8,0,1.5,0.3,2.3,1C385.4,37.9,385.8,38.6,385.8,39.4z M378.8,39.5v3.5
		c0,0.3,0.1,0.6,0.3,0.7l0.6,0.6c0.1,0.1,0.3,0.2,0.6,0.2h2c0.3,0,0.6-0.1,0.8-0.3l0.5-0.5c0.2-0.2,0.3-0.4,0.3-0.7v-3.5
		c0-0.3-0.1-0.6-0.3-0.8l-0.6-0.5c-0.2-0.2-0.4-0.3-0.7-0.3h-1.8c-0.4,0-0.7,0.1-0.9,0.3l-0.6,0.5C378.9,38.9,378.8,39.2,378.8,39.5
		z"/>
	<path d="M395.8,46.2h-1.7c-0.7,0-1.3-0.3-1.8-0.8s-0.8-1.1-0.8-1.8V38h-0.9c-0.2,0-0.4-0.1-0.6-0.2c-0.2-0.2-0.3-0.4-0.3-0.6
		c0-0.2,0.1-0.4,0.3-0.6c0.2-0.2,0.4-0.3,0.6-0.3h0.9v-2.1c0-0.2,0.1-0.4,0.3-0.6c0.2-0.2,0.4-0.3,0.6-0.3c0.2,0,0.4,0.1,0.6,0.3
		c0.2,0.2,0.3,0.4,0.3,0.6v2.1h3.5c0.2,0,0.4,0.1,0.6,0.3s0.3,0.4,0.3,0.6c0,0.2-0.1,0.4-0.3,0.6c-0.2,0.2-0.4,0.3-0.6,0.3h-3.5v5.6
		c0,0.2,0.1,0.4,0.3,0.6c0.2,0.2,0.4,0.3,0.6,0.3h1.7c0.5,0,0.8-0.2,0.9-0.7s0.4-0.7,0.9-0.7c0.3,0,0.5,0.1,0.6,0.3
		c0.2,0.2,0.2,0.4,0.2,0.6c0,0.5-0.2,1-0.7,1.6C397.2,45.9,396.6,46.2,395.8,46.2z"/>
	<path d="M409.4,46.2h-5.3c-0.2,0-0.4-0.1-0.6-0.3c-0.2-0.2-0.3-0.4-0.3-0.6c0-0.2,0.1-0.4,0.3-0.6c0.2-0.2,0.4-0.3,0.6-0.3h1.8V38
		h-1.7c-0.2,0-0.4-0.1-0.6-0.3c-0.2-0.2-0.3-0.4-0.3-0.6c0-0.2,0.1-0.4,0.3-0.6c0.2-0.2,0.4-0.3,0.6-0.3h2.6c0.2,0,0.4,0.1,0.6,0.3
		c0.2,0.2,0.3,0.4,0.3,0.6v7.3h1.7c0.2,0,0.4,0.1,0.6,0.3c0.2,0.2,0.3,0.4,0.3,0.6s-0.1,0.4-0.3,0.6S409.6,46.2,409.4,46.2z
		 M405.9,31.8h0.9c0.2,0,0.4,0.1,0.6,0.3c0.2,0.2,0.3,0.4,0.3,0.6v0.7c0,0.2-0.1,0.4-0.3,0.6c-0.2,0.2-0.4,0.3-0.6,0.3h-0.9
		c-0.2,0-0.5-0.1-0.6-0.3c-0.2-0.2-0.2-0.4-0.2-0.6l0-0.8c0-0.2,0.1-0.4,0.3-0.6C405.5,31.9,405.7,31.8,405.9,31.8z"/>
	<path d="M419.1,38v7.3c0,0.2-0.1,0.4-0.3,0.6s-0.4,0.3-0.6,0.3c-0.2,0-0.5-0.1-0.6-0.3s-0.3-0.4-0.3-0.6V38h-0.9
		c-0.2,0-0.4-0.1-0.6-0.3c-0.2-0.2-0.3-0.4-0.3-0.6c0-0.2,0.1-0.4,0.2-0.6c0.2-0.2,0.4-0.3,0.6-0.3h0.9v-0.7c0-0.9,0.3-1.6,0.9-2.2
		c0.6-0.6,1.4-0.9,2.3-0.9h2c0.2,0,0.4,0.1,0.6,0.3c0.2,0.2,0.3,0.4,0.3,0.6c0,0.2-0.1,0.4-0.3,0.6c-0.2,0.2-0.4,0.3-0.6,0.3h-2
		c-0.4,0-0.8,0.1-1,0.4c-0.3,0.2-0.4,0.6-0.4,1v0.7h1.7c0.2,0,0.4,0.1,0.6,0.2c0.2,0.2,0.3,0.4,0.3,0.6c0,0.2-0.1,0.4-0.3,0.6
		c-0.2,0.2-0.4,0.3-0.6,0.3H419.1z"/>
	<path d="M435.7,46.2H432c-0.6,0-1.2-0.2-1.7-0.6l-1.7-1.5c-0.5-0.4-0.8-1-0.8-1.8v-2.2c0-0.7,0.3-1.4,0.9-1.9l1.5-1.3
		c0.5-0.4,1-0.6,1.6-0.6h3.9c0.2,0,0.4,0.1,0.6,0.3c0.2,0.2,0.3,0.4,0.3,0.6c0,0.2-0.1,0.5-0.3,0.6c-0.2,0.2-0.4,0.2-0.6,0.2H432
		c-0.2,0-0.5,0.1-0.7,0.3l-1.4,1.2c-0.2,0.2-0.3,0.4-0.3,0.8v2.1c0,0.2,0.1,0.4,0.3,0.6l1.5,1.3c0.2,0.2,0.4,0.3,0.8,0.3h3.5
		c0.2,0,0.4,0.1,0.6,0.3c0.2,0.2,0.3,0.4,0.3,0.6s-0.1,0.4-0.3,0.6C436.1,46.1,435.9,46.2,435.7,46.2z"/>
	<path d="M443.1,40h3.4c0.2,0,0.5,0,0.8,0.1l0-1.2c0-0.2-0.1-0.4-0.3-0.6s-0.4-0.3-0.6-0.3h-3.3c-0.2,0-0.4-0.1-0.6-0.3
		c-0.2-0.2-0.3-0.4-0.3-0.6c0-0.2,0.1-0.4,0.3-0.6s0.4-0.3,0.6-0.3h3.3c0.7,0,1.3,0.2,1.8,0.7s0.8,1.1,0.8,1.8l0.2,6.4
		c0,0.2-0.1,0.4-0.3,0.6s-0.4,0.3-0.6,0.3c-0.2,0-0.5-0.1-0.6-0.3s-0.3-0.4-0.3-0.6l-1.5,0.9h-2.9c-0.7,0-1.3-0.3-1.8-0.8
		c-0.5-0.5-0.8-1.1-0.8-1.8v-1c0-0.7,0.3-1.3,0.8-1.8C441.7,40.2,442.4,40,443.1,40z M447.4,43.3l-0.1-0.7c0-0.2-0.1-0.5-0.3-0.6
		s-0.4-0.2-0.6-0.2h-3.4c-0.2,0-0.4,0.1-0.6,0.3c-0.2,0.2-0.3,0.4-0.3,0.6v1c0,0.2,0.1,0.4,0.3,0.6s0.4,0.3,0.6,0.3h2.4L447.4,43.3z
		"/>
	<path d="M459.2,46.2h-1.7c-0.7,0-1.3-0.3-1.8-0.8s-0.8-1.1-0.8-1.8V38H454c-0.2,0-0.4-0.1-0.6-0.2c-0.2-0.2-0.3-0.4-0.3-0.6
		c0-0.2,0.1-0.4,0.3-0.6c0.2-0.2,0.4-0.3,0.6-0.3h0.9v-2.1c0-0.2,0.1-0.4,0.3-0.6c0.2-0.2,0.4-0.3,0.6-0.3c0.2,0,0.4,0.1,0.6,0.3
		c0.2,0.2,0.3,0.4,0.3,0.6v2.1h3.5c0.2,0,0.4,0.1,0.6,0.3s0.3,0.4,0.3,0.6c0,0.2-0.1,0.4-0.3,0.6c-0.2,0.2-0.4,0.3-0.6,0.3h-3.5v5.6
		c0,0.2,0.1,0.4,0.3,0.6c0.2,0.2,0.4,0.3,0.6,0.3h1.7c0.5,0,0.8-0.2,0.9-0.7s0.4-0.7,0.9-0.7c0.3,0,0.5,0.1,0.6,0.3
		c0.2,0.2,0.2,0.4,0.2,0.6c0,0.5-0.2,1-0.7,1.6C460.6,45.9,460,46.2,459.2,46.2z"/>
	<path d="M472.8,46.2h-5.3c-0.2,0-0.4-0.1-0.6-0.3c-0.2-0.2-0.3-0.4-0.3-0.6c0-0.2,0.1-0.4,0.3-0.6c0.2-0.2,0.4-0.3,0.6-0.3h1.8V38
		h-1.7c-0.2,0-0.4-0.1-0.6-0.3c-0.2-0.2-0.3-0.4-0.3-0.6c0-0.2,0.1-0.4,0.3-0.6c0.2-0.2,0.4-0.3,0.6-0.3h2.6c0.2,0,0.4,0.1,0.6,0.3
		c0.2,0.2,0.3,0.4,0.3,0.6v7.3h1.7c0.2,0,0.4,0.1,0.6,0.3c0.2,0.2,0.3,0.4,0.3,0.6s-0.1,0.4-0.3,0.6S473.1,46.2,472.8,46.2z
		 M469.3,31.8h0.9c0.2,0,0.4,0.1,0.6,0.3c0.2,0.2,0.3,0.4,0.3,0.6v0.7c0,0.2-0.1,0.4-0.3,0.6c-0.2,0.2-0.4,0.3-0.6,0.3h-0.9
		c-0.2,0-0.5-0.1-0.6-0.3c-0.2-0.2-0.2-0.4-0.2-0.6l0-0.8c0-0.2,0.1-0.4,0.3-0.6C468.9,31.9,469.1,31.8,469.3,31.8z"/>
	<path d="M487.2,39.4V43c0,0.8-0.4,1.5-1.1,2.1c-0.7,0.7-1.5,1-2.3,1h-2c-0.8,0-1.5-0.3-2.3-1c-0.7-0.7-1.1-1.4-1.1-2.1v-3.6
		c0-0.8,0.4-1.5,1.1-2.1c0.7-0.7,1.5-1,2.3-1h2c0.8,0,1.5,0.3,2.3,1C486.9,37.9,487.2,38.6,487.2,39.4z M480.3,39.5v3.5
		c0,0.3,0.1,0.6,0.3,0.7l0.6,0.6c0.1,0.1,0.3,0.2,0.6,0.2h2c0.3,0,0.6-0.1,0.8-0.3l0.5-0.5c0.2-0.2,0.3-0.4,0.3-0.7v-3.5
		c0-0.3-0.1-0.6-0.3-0.8l-0.6-0.5c-0.2-0.2-0.4-0.3-0.7-0.3h-1.8c-0.4,0-0.7,0.1-0.9,0.3l-0.6,0.5C480.4,38.9,480.3,39.2,480.3,39.5
		z"/>
	<path d="M495.3,38.3l-2.4,1.5v5.5c0,0.2-0.1,0.4-0.3,0.6s-0.4,0.3-0.6,0.3c-0.2,0-0.4-0.1-0.6-0.3s-0.3-0.4-0.3-0.6v-8.2
		c0-0.2,0.1-0.4,0.3-0.6c0.2-0.2,0.4-0.3,0.6-0.3c0.2,0,0.4,0.1,0.6,0.3c0.2,0.2,0.3,0.4,0.3,0.6v0.6l1.6-1c0.5-0.3,1.1-0.5,1.8-0.5
		h0.8c0.7,0,1.3,0.2,1.8,0.7s0.8,1.1,0.8,1.8l0.2,6.5c0,0.2-0.1,0.4-0.2,0.6s-0.4,0.3-0.6,0.3c-0.2,0-0.4-0.1-0.6-0.2
		c-0.2-0.2-0.3-0.4-0.3-0.6l-0.3-6.4c0-0.6-0.3-0.9-0.9-0.9h-0.8C495.9,38,495.6,38.1,495.3,38.3z"/>
	<path d="M506.3,36.3h3.9c0.6,0,1.2,0.2,1.6,0.5c0.5,0.4,0.7,0.7,0.7,1.1c0,0.2-0.1,0.4-0.3,0.6c-0.2,0.2-0.4,0.2-0.6,0.2
		c-0.3,0-0.5-0.1-0.7-0.4s-0.5-0.4-0.7-0.4h-3.9c-0.4,0-0.6,0.2-0.6,0.5c0,0.2,0.1,0.4,0.4,0.5l4.6,2c0.5,0.2,0.8,0.5,1.1,1
		c0.3,0.5,0.4,1,0.4,1.5c0,0.7-0.3,1.4-0.8,1.9c-0.5,0.5-1.1,0.8-1.8,0.8h-3.5c-0.6,0-1.2-0.2-1.7-0.5c-0.5-0.4-0.8-0.7-0.8-1.1
		c0-0.2,0.1-0.4,0.3-0.6c0.2-0.2,0.4-0.3,0.7-0.3c0.2,0,0.5,0.1,0.7,0.4c0.2,0.2,0.6,0.4,1.1,0.4h3.2c0.3,0,0.5-0.1,0.6-0.3
		c0.2-0.2,0.3-0.4,0.3-0.7c0-0.4-0.2-0.7-0.6-0.8l-4.6-2.1c-0.4-0.2-0.8-0.5-1-0.9s-0.4-0.8-0.4-1.1c0-0.6,0.2-1.1,0.6-1.6
		C505.2,36.5,505.7,36.3,506.3,36.3z"/>
	<path d="M538,39.4V43c0,0.8-0.4,1.5-1.1,2.1c-0.7,0.7-1.5,1-2.3,1h-2c-0.8,0-1.5-0.3-2.3-1c-0.7-0.7-1.1-1.4-1.1-2.1v-3.6
		c0-0.8,0.4-1.5,1.1-2.1c0.7-0.7,1.5-1,2.3-1h2c0.8,0,1.5,0.3,2.3,1C537.6,37.9,538,38.6,538,39.4z M531,39.5v3.5
		c0,0.3,0.1,0.6,0.3,0.7l0.6,0.6c0.1,0.1,0.3,0.2,0.6,0.2h2c0.3,0,0.6-0.1,0.8-0.3l0.5-0.5c0.2-0.2,0.3-0.4,0.3-0.7v-3.5
		c0-0.3-0.1-0.6-0.3-0.8l-0.6-0.5c-0.2-0.2-0.4-0.3-0.7-0.3h-1.8c-0.4,0-0.7,0.1-0.9,0.3l-0.6,0.5C531.1,38.9,531,39.2,531,39.5z"/>
	<path d="M546.1,38.3l-2.4,1.5v5.5c0,0.2-0.1,0.4-0.3,0.6s-0.4,0.3-0.6,0.3c-0.2,0-0.4-0.1-0.6-0.3s-0.3-0.4-0.3-0.6v-8.2
		c0-0.2,0.1-0.4,0.3-0.6c0.2-0.2,0.4-0.3,0.6-0.3c0.2,0,0.4,0.1,0.6,0.3c0.2,0.2,0.3,0.4,0.3,0.6v0.6l1.6-1c0.5-0.3,1.1-0.5,1.8-0.5
		h0.8c0.7,0,1.3,0.2,1.8,0.7s0.8,1.1,0.8,1.8l0.2,6.5c0,0.2-0.1,0.4-0.2,0.6s-0.4,0.3-0.6,0.3c-0.2,0-0.4-0.1-0.6-0.2
		c-0.2-0.2-0.3-0.4-0.3-0.6l-0.3-6.4c0-0.6-0.3-0.9-0.9-0.9h-0.8C546.6,38,546.4,38.1,546.1,38.3z"/>
	<path d="M571.3,38v7.3c0,0.2-0.1,0.4-0.3,0.6s-0.4,0.3-0.6,0.3c-0.2,0-0.5-0.1-0.6-0.3s-0.3-0.4-0.3-0.6V38h-0.9
		c-0.2,0-0.4-0.1-0.6-0.3c-0.2-0.2-0.3-0.4-0.3-0.6c0-0.2,0.1-0.4,0.2-0.6c0.2-0.2,0.4-0.3,0.6-0.3h0.9v-0.7c0-0.9,0.3-1.6,0.9-2.2
		c0.6-0.6,1.4-0.9,2.3-0.9h2c0.2,0,0.4,0.1,0.6,0.3c0.2,0.2,0.3,0.4,0.3,0.6c0,0.2-0.1,0.4-0.3,0.6c-0.2,0.2-0.4,0.3-0.6,0.3h-2
		c-0.4,0-0.8,0.1-1,0.4c-0.3,0.2-0.4,0.6-0.4,1v0.7h1.7c0.2,0,0.4,0.1,0.6,0.2c0.2,0.2,0.3,0.4,0.3,0.6c0,0.2-0.1,0.4-0.3,0.6
		c-0.2,0.2-0.4,0.3-0.6,0.3H571.3z"/>
	<path d="M582.6,40h3.4c0.2,0,0.5,0,0.8,0.1l0-1.2c0-0.2-0.1-0.4-0.3-0.6s-0.4-0.3-0.6-0.3h-3.3c-0.2,0-0.4-0.1-0.6-0.3
		c-0.2-0.2-0.3-0.4-0.3-0.6c0-0.2,0.1-0.4,0.3-0.6s0.4-0.3,0.6-0.3h3.3c0.7,0,1.3,0.2,1.8,0.7s0.8,1.1,0.8,1.8l0.2,6.4
		c0,0.2-0.1,0.4-0.3,0.6s-0.4,0.3-0.6,0.3c-0.2,0-0.5-0.1-0.6-0.3s-0.3-0.4-0.3-0.6l-1.5,0.9h-2.9c-0.7,0-1.3-0.3-1.8-0.8
		c-0.5-0.5-0.8-1.1-0.8-1.8v-1c0-0.7,0.3-1.3,0.8-1.8C581.3,40.2,581.9,40,582.6,40z M586.9,43.3l-0.1-0.7c0-0.2-0.1-0.5-0.3-0.6
		s-0.4-0.2-0.6-0.2h-3.4c-0.2,0-0.4,0.1-0.6,0.3c-0.2,0.2-0.3,0.4-0.3,0.6v1c0,0.2,0.1,0.4,0.3,0.6s0.4,0.3,0.6,0.3h2.4L586.9,43.3z
		"/>
	<path d="M600.6,46.2h-3.7c-0.6,0-1.2-0.2-1.7-0.6l-1.7-1.5c-0.5-0.4-0.8-1-0.8-1.8v-2.2c0-0.7,0.3-1.4,0.9-1.9l1.5-1.3
		c0.5-0.4,1-0.6,1.6-0.6h3.9c0.2,0,0.4,0.1,0.6,0.3c0.2,0.2,0.3,0.4,0.3,0.6c0,0.2-0.1,0.5-0.3,0.6c-0.2,0.2-0.4,0.2-0.6,0.2h-3.7
		c-0.2,0-0.5,0.1-0.7,0.3l-1.4,1.2c-0.2,0.2-0.3,0.4-0.3,0.8v2.1c0,0.2,0.1,0.4,0.3,0.6l1.5,1.3c0.2,0.2,0.4,0.3,0.8,0.3h3.5
		c0.2,0,0.4,0.1,0.6,0.3c0.2,0.2,0.3,0.4,0.3,0.6s-0.1,0.4-0.3,0.6C601,46.1,600.8,46.2,600.6,46.2z"/>
	<path d="M614.1,39.5v2.1c0,0.2-0.1,0.4-0.3,0.6s-0.4,0.3-0.6,0.3h-6.1V43c0,0.3,0.1,0.5,0.4,0.7l0.5,0.4c0.3,0.2,0.5,0.3,0.8,0.3
		h4.4c0.2,0,0.4,0.1,0.6,0.3c0.2,0.2,0.3,0.4,0.3,0.6c0,0.2-0.1,0.4-0.3,0.6c-0.2,0.2-0.4,0.3-0.6,0.3h-4.5c-0.3,0-0.6-0.1-0.9-0.2
		c-0.3-0.1-0.6-0.3-0.7-0.4l-0.8-0.7c-0.2-0.2-0.4-0.5-0.6-0.8c-0.2-0.3-0.2-0.7-0.2-0.9v-3.9c0-0.2,0.1-0.5,0.3-0.9
		c0.2-0.4,0.4-0.7,0.7-0.9l0.7-0.6c0.5-0.4,1-0.6,1.6-0.6h2.4c0.6,0,1.2,0.3,1.7,0.8l0.6,0.6C613.8,38.1,614.1,38.7,614.1,39.5z
		 M607.1,39.4v1.3h5.2v-1.2c0-0.3-0.1-0.6-0.3-0.7l-0.5-0.4c-0.3-0.2-0.5-0.3-0.7-0.3h-2.2c-0.3,0-0.5,0.1-0.7,0.3l-0.5,0.4
		C607.3,38.9,607.1,39.1,607.1,39.4z"/>
	<path d="M619.8,33.4v4.1l0.8-0.6c0.5-0.4,1-0.6,1.5-0.6h1.6c0.6,0,1.1,0.2,1.5,0.6l0.8,0.7c0.2,0.2,0.4,0.5,0.6,0.9
		c0.1,0.4,0.2,0.7,0.2,1.1V43c0,0.3-0.1,0.6-0.2,1c-0.1,0.3-0.3,0.6-0.5,0.8l-0.7,0.7c-0.2,0.2-0.5,0.4-0.8,0.5
		c-0.4,0.1-0.7,0.2-0.9,0.2h-1.5c-0.7,0-1.5-0.4-2.3-1.2v0.3c0,0.2-0.1,0.4-0.3,0.6c-0.2,0.2-0.4,0.3-0.6,0.3
		c-0.2,0-0.4-0.1-0.6-0.3c-0.2-0.2-0.3-0.4-0.3-0.6V33.4c0-0.2,0.1-0.4,0.3-0.6s0.4-0.3,0.6-0.3c0.2,0,0.4,0.1,0.6,0.3
		C619.8,33,619.8,33.2,619.8,33.4z M623.5,38h-1.2c-0.3,0-0.5,0.1-0.7,0.2l-1.5,1.3c-0.2,0.2-0.3,0.4-0.3,0.8v1.9
		c0,0.3,0.1,0.5,0.3,0.7l1.4,1.2c0.2,0.2,0.4,0.3,0.6,0.3h1.4c0.2,0,0.4-0.1,0.5-0.2l0.7-0.6c0.2-0.1,0.3-0.3,0.3-0.6v-3.6
		c0-0.3-0.1-0.5-0.3-0.7l-0.6-0.5C624,38.1,623.8,38,623.5,38z"/>
	<path d="M639.4,39.4V43c0,0.8-0.4,1.5-1.1,2.1c-0.7,0.7-1.5,1-2.3,1h-2c-0.8,0-1.5-0.3-2.3-1c-0.7-0.7-1.1-1.4-1.1-2.1v-3.6
		c0-0.8,0.4-1.5,1.1-2.1c0.7-0.7,1.5-1,2.3-1h2c0.8,0,1.5,0.3,2.3,1C639.1,37.9,639.4,38.6,639.4,39.4z M632.5,39.5v3.5
		c0,0.3,0.1,0.6,0.3,0.7l0.6,0.6c0.1,0.1,0.3,0.2,0.6,0.2h2c0.3,0,0.6-0.1,0.8-0.3l0.5-0.5c0.2-0.2,0.3-0.4,0.3-0.7v-3.5
		c0-0.3-0.1-0.6-0.3-0.8l-0.6-0.5c-0.2-0.2-0.4-0.3-0.7-0.3h-1.8c-0.4,0-0.7,0.1-0.9,0.3l-0.6,0.5C632.6,38.9,632.5,39.2,632.5,39.5
		z"/>
	<path d="M652.1,39.4V43c0,0.8-0.4,1.5-1.1,2.1c-0.7,0.7-1.5,1-2.3,1h-2c-0.8,0-1.5-0.3-2.3-1c-0.7-0.7-1.1-1.4-1.1-2.1v-3.6
		c0-0.8,0.4-1.5,1.1-2.1c0.7-0.7,1.5-1,2.3-1h2c0.8,0,1.5,0.3,2.3,1C651.8,37.9,652.1,38.6,652.1,39.4z M645.2,39.5v3.5
		c0,0.3,0.1,0.6,0.3,0.7l0.6,0.6c0.1,0.1,0.3,0.2,0.6,0.2h2c0.3,0,0.6-0.1,0.8-0.3l0.5-0.5c0.2-0.2,0.3-0.4,0.3-0.7v-3.5
		c0-0.3-0.1-0.6-0.3-0.8l-0.6-0.5c-0.2-0.2-0.4-0.3-0.7-0.3H647c-0.4,0-0.7,0.1-0.9,0.3l-0.6,0.5C645.3,38.9,645.2,39.2,645.2,39.5z
		"/>
	<path d="M656.1,45.3V33.4c0-0.2,0.1-0.5,0.3-0.6c0.2-0.2,0.4-0.3,0.6-0.3c0.2,0,0.4,0.1,0.6,0.3c0.2,0.2,0.3,0.4,0.3,0.6v7l4.6-3.9
		c0.2-0.2,0.4-0.2,0.6-0.2c0.2,0,0.5,0.1,0.6,0.3c0.2,0.2,0.2,0.4,0.2,0.6c0,0.3-0.1,0.5-0.3,0.6l-3.6,3.1l4.5,3.9
		c0.2,0.1,0.3,0.3,0.3,0.6c0,0.2-0.1,0.4-0.2,0.6s-0.4,0.3-0.6,0.3s-0.5-0.1-0.6-0.2l-4.6-4l-0.9,0.8v2.6c0,0.2-0.1,0.4-0.3,0.6
		c-0.2,0.2-0.4,0.3-0.6,0.3c-0.2,0-0.4-0.1-0.6-0.3C656.2,45.8,656.1,45.6,656.1,45.3z"/>
	<path d="M56,64.6v3.6c0,0.8-0.4,1.5-1.1,2.1c-0.7,0.7-1.5,1-2.3,1h-2c-0.8,0-1.5-0.3-2.3-1c-0.7-0.7-1.1-1.4-1.1-2.1v-3.6
		c0-0.8,0.4-1.5,1.1-2.1c0.7-0.7,1.5-1,2.3-1h2c0.8,0,1.5,0.3,2.3,1C55.6,63.1,56,63.8,56,64.6z M49,64.7v3.5c0,0.3,0.1,0.6,0.3,0.7
		l0.6,0.6c0.1,0.1,0.3,0.2,0.6,0.2h2c0.3,0,0.6-0.1,0.8-0.3l0.5-0.5c0.2-0.2,0.3-0.4,0.3-0.7v-3.5c0-0.3-0.1-0.6-0.3-0.8l-0.6-0.5
		c-0.2-0.2-0.4-0.3-0.7-0.3h-1.8c-0.4,0-0.7,0.1-0.9,0.3L49.3,64C49.1,64.1,49,64.4,49,64.7z"/>
	<path d="M64.1,63.5L61.7,65v5.5c0,0.2-0.1,0.4-0.3,0.6s-0.4,0.3-0.6,0.3s-0.4-0.1-0.6-0.3S60,70.7,60,70.5v-8.2
		c0-0.2,0.1-0.4,0.3-0.6c0.2-0.2,0.4-0.3,0.6-0.3c0.2,0,0.4,0.1,0.6,0.3c0.2,0.2,0.3,0.4,0.3,0.6v0.6l1.6-1c0.5-0.3,1.1-0.5,1.8-0.5
		h0.8c0.7,0,1.3,0.2,1.8,0.7c0.5,0.5,0.8,1.1,0.8,1.8l0.2,6.5c0,0.2-0.1,0.4-0.2,0.6s-0.4,0.3-0.6,0.3c-0.2,0-0.4-0.1-0.6-0.2
		C67,71,67,70.8,66.9,70.5l-0.3-6.4c0-0.6-0.3-0.9-0.9-0.9h-0.8C64.6,63.2,64.4,63.3,64.1,63.5z"/>
	<path d="M79.6,71.4h-5.2c-0.2,0-0.4-0.1-0.6-0.3c-0.2-0.2-0.3-0.4-0.3-0.6c0-0.2,0.1-0.4,0.3-0.6c0.2-0.2,0.4-0.3,0.6-0.3h1.7V59.5
		h-1.7c-0.2,0-0.4-0.1-0.6-0.3c-0.2-0.2-0.3-0.4-0.3-0.6s0.1-0.4,0.3-0.6c0.2-0.2,0.4-0.3,0.6-0.3H77c0.2,0,0.4,0.1,0.6,0.3
		s0.3,0.4,0.3,0.6v11h1.7c0.2,0,0.4,0.1,0.6,0.3s0.3,0.4,0.3,0.6c0,0.2-0.1,0.4-0.3,0.6C80.1,71.3,79.9,71.4,79.6,71.4z"/>
	<path d="M94,64l-4.6,10.5c-0.2,0.4-0.4,0.6-0.8,0.6h-2.4c-0.2,0-0.4-0.1-0.6-0.2c-0.2-0.2-0.3-0.4-0.3-0.6c0-0.2,0.1-0.4,0.3-0.6
		c0.2-0.2,0.4-0.2,0.6-0.2H88l1.2-2.7h-0.4c-0.4,0-0.7-0.2-0.8-0.6l-2.6-6v-1.7c0-0.2,0.1-0.4,0.2-0.6s0.4-0.3,0.6-0.3
		c0.2,0,0.4,0.1,0.6,0.3c0.2,0.2,0.3,0.4,0.3,0.6l0,1.3l2.3,5.3H90l2.3-5.2l0-1.3c0-0.2,0.1-0.4,0.3-0.6c0.2-0.2,0.4-0.3,0.6-0.3
		c0.2,0,0.4,0.1,0.6,0.3s0.3,0.4,0.3,0.6V64z"/>
	<path d="M116.8,71.4H115c-0.7,0-1.3-0.3-1.8-0.8s-0.8-1.1-0.8-1.8v-5.6h-0.9c-0.2,0-0.4-0.1-0.6-0.2c-0.2-0.2-0.3-0.4-0.3-0.6
		c0-0.2,0.1-0.4,0.3-0.6c0.2-0.2,0.4-0.3,0.6-0.3h0.9v-2.1c0-0.2,0.1-0.4,0.3-0.6c0.2-0.2,0.4-0.3,0.6-0.3c0.2,0,0.4,0.1,0.6,0.3
		c0.2,0.2,0.3,0.4,0.3,0.6v2.1h3.5c0.2,0,0.4,0.1,0.6,0.3s0.3,0.4,0.3,0.6c0,0.2-0.1,0.4-0.3,0.6c-0.2,0.2-0.4,0.3-0.6,0.3h-3.5v5.6
		c0,0.2,0.1,0.4,0.3,0.6c0.2,0.2,0.4,0.3,0.6,0.3h1.7c0.5,0,0.8-0.2,0.9-0.7s0.4-0.7,0.9-0.7c0.3,0,0.5,0.1,0.6,0.3
		c0.2,0.2,0.2,0.4,0.2,0.6c0,0.5-0.2,1-0.7,1.6C118.2,71.1,117.5,71.4,116.8,71.4z"/>
	<path d="M132.1,64.6v3.6c0,0.8-0.4,1.5-1.1,2.1c-0.7,0.7-1.5,1-2.3,1h-2c-0.8,0-1.5-0.3-2.3-1c-0.7-0.7-1.1-1.4-1.1-2.1v-3.6
		c0-0.8,0.4-1.5,1.1-2.1c0.7-0.7,1.5-1,2.3-1h2c0.8,0,1.5,0.3,2.3,1C131.7,63.1,132.1,63.8,132.1,64.6z M125.1,64.7v3.5
		c0,0.3,0.1,0.6,0.3,0.7l0.6,0.6c0.1,0.1,0.3,0.2,0.6,0.2h2c0.3,0,0.6-0.1,0.8-0.3l0.5-0.5c0.2-0.2,0.3-0.4,0.3-0.7v-3.5
		c0-0.3-0.1-0.6-0.3-0.8l-0.6-0.5c-0.2-0.2-0.4-0.3-0.7-0.3h-1.8c-0.4,0-0.7,0.1-0.9,0.3l-0.6,0.5C125.2,64.1,125.1,64.4,125.1,64.7
		z"/>
	<path d="M148.8,70.5v-8.2c0-0.2,0.1-0.4,0.3-0.6c0.2-0.2,0.4-0.3,0.6-0.3s0.4,0.1,0.6,0.3s0.3,0.4,0.3,0.6v1.1l1.4-1.2
		c0.6-0.5,1.1-0.7,1.7-0.7h1.3c0.7,0,1.3,0.3,1.8,0.8s0.8,1.1,0.8,1.8v0.5c0,0.2-0.1,0.5-0.3,0.6s-0.4,0.3-0.6,0.3s-0.4-0.1-0.6-0.3
		c-0.2-0.2-0.3-0.4-0.3-0.6v-0.5c0-0.2-0.1-0.4-0.3-0.6s-0.4-0.3-0.6-0.3h-1.1c-0.2,0-0.5,0.1-0.8,0.4l-2.5,2.1v4.8
		c0,0.2-0.1,0.4-0.3,0.6s-0.4,0.3-0.6,0.3c-0.2,0-0.4-0.1-0.6-0.3C148.9,71,148.8,70.8,148.8,70.5z"/>
	<path d="M170.1,64.7v2.1c0,0.2-0.1,0.4-0.3,0.6s-0.4,0.3-0.6,0.3h-6.1v0.5c0,0.3,0.1,0.5,0.4,0.7l0.5,0.4c0.3,0.2,0.5,0.3,0.8,0.3
		h4.4c0.2,0,0.4,0.1,0.6,0.3c0.2,0.2,0.3,0.4,0.3,0.6c0,0.2-0.1,0.4-0.3,0.6c-0.2,0.2-0.4,0.3-0.6,0.3h-4.5c-0.3,0-0.6-0.1-0.9-0.2
		c-0.3-0.1-0.6-0.3-0.7-0.4l-0.8-0.7c-0.2-0.2-0.4-0.5-0.6-0.8s-0.2-0.7-0.2-0.9v-3.9c0-0.2,0.1-0.5,0.3-0.9
		c0.2-0.4,0.4-0.7,0.7-0.9l0.7-0.6c0.5-0.4,1-0.6,1.6-0.6h2.4c0.6,0,1.2,0.3,1.7,0.8l0.6,0.6C169.9,63.3,170.1,63.9,170.1,64.7z
		 M163.2,64.6v1.3h5.2v-1.2c0-0.3-0.1-0.6-0.3-0.7l-0.5-0.4c-0.3-0.2-0.5-0.3-0.7-0.3h-2.2c-0.3,0-0.5,0.1-0.7,0.3l-0.5,0.4
		C163.3,64.1,163.2,64.3,163.2,64.6z"/>
	<path d="M176.7,65.2h3.4c0.2,0,0.5,0,0.8,0.1l0-1.2c0-0.2-0.1-0.4-0.3-0.6c-0.2-0.2-0.4-0.3-0.6-0.3h-3.3c-0.2,0-0.4-0.1-0.6-0.3
		s-0.3-0.4-0.3-0.6c0-0.2,0.1-0.4,0.3-0.6c0.2-0.2,0.4-0.3,0.6-0.3h3.3c0.7,0,1.3,0.2,1.8,0.7s0.8,1.1,0.8,1.8l0.2,6.4
		c0,0.2-0.1,0.4-0.3,0.6s-0.4,0.3-0.6,0.3c-0.2,0-0.5-0.1-0.6-0.3s-0.3-0.4-0.3-0.6l-1.5,0.9h-2.9c-0.7,0-1.3-0.3-1.8-0.8
		c-0.5-0.5-0.8-1.1-0.8-1.8v-1c0-0.7,0.3-1.3,0.8-1.8C175.4,65.4,176,65.2,176.7,65.2z M181,68.5l-0.1-0.7c0-0.2-0.1-0.5-0.3-0.6
		c-0.2-0.2-0.4-0.2-0.6-0.2h-3.4c-0.2,0-0.4,0.1-0.6,0.3c-0.2,0.2-0.3,0.4-0.3,0.6v1c0,0.2,0.1,0.4,0.3,0.6c0.2,0.2,0.4,0.3,0.6,0.3
		h2.4L181,68.5z"/>
	<path d="M193.8,71.4h-5.2c-0.2,0-0.4-0.1-0.6-0.3c-0.2-0.2-0.3-0.4-0.3-0.6c0-0.2,0.1-0.4,0.3-0.6c0.2-0.2,0.4-0.3,0.6-0.3h1.7
		V59.5h-1.7c-0.2,0-0.4-0.1-0.6-0.3c-0.2-0.2-0.3-0.4-0.3-0.6s0.1-0.4,0.3-0.6c0.2-0.2,0.4-0.3,0.6-0.3h2.6c0.2,0,0.4,0.1,0.6,0.3
		s0.3,0.4,0.3,0.6v11h1.7c0.2,0,0.4,0.1,0.6,0.3s0.3,0.4,0.3,0.6c0,0.2-0.1,0.4-0.3,0.6C194.2,71.3,194,71.4,193.8,71.4z"/>
	<path d="M206.5,71.4h-5.3c-0.2,0-0.4-0.1-0.6-0.3c-0.2-0.2-0.3-0.4-0.3-0.6c0-0.2,0.1-0.4,0.3-0.6c0.2-0.2,0.4-0.3,0.6-0.3h1.8
		v-6.4h-1.7c-0.2,0-0.4-0.1-0.6-0.3c-0.2-0.2-0.3-0.4-0.3-0.6c0-0.2,0.1-0.4,0.3-0.6c0.2-0.2,0.4-0.3,0.6-0.3h2.6
		c0.2,0,0.4,0.1,0.6,0.3c0.2,0.2,0.3,0.4,0.3,0.6v7.3h1.7c0.2,0,0.4,0.1,0.6,0.3c0.2,0.2,0.3,0.4,0.3,0.6s-0.1,0.4-0.3,0.6
		S206.7,71.4,206.5,71.4z M203,57h0.9c0.2,0,0.4,0.1,0.6,0.3s0.3,0.4,0.3,0.6v0.7c0,0.2-0.1,0.4-0.3,0.6c-0.2,0.2-0.4,0.3-0.6,0.3
		h-0.9c-0.2,0-0.5-0.1-0.6-0.3s-0.2-0.4-0.2-0.6l0-0.8c0-0.2,0.1-0.4,0.3-0.6C202.5,57.1,202.7,57,203,57z"/>
	<path d="M220.9,62.3V63c0,0.3-0.1,0.5-0.3,0.7l-6.1,5.9h5.5c0.2,0,0.4,0.1,0.6,0.3c0.2,0.2,0.3,0.4,0.3,0.6s-0.1,0.4-0.3,0.6
		s-0.4,0.3-0.6,0.3h-6.9c-0.2,0-0.5-0.1-0.6-0.3s-0.3-0.4-0.3-0.6v-0.7c0-0.2,0.2-0.5,0.5-0.8l6-5.8h-5.2c-0.2,0-0.4-0.1-0.6-0.3
		c-0.2-0.2-0.3-0.4-0.3-0.6c0-0.2,0.1-0.4,0.3-0.6c0.2-0.2,0.4-0.3,0.6-0.3h6.6c0.2,0,0.4,0.1,0.6,0.3
		C220.8,61.9,220.9,62.1,220.9,62.3z"/>
	<path d="M233.6,64.7v2.1c0,0.2-0.1,0.4-0.3,0.6s-0.4,0.3-0.6,0.3h-6.1v0.5c0,0.3,0.1,0.5,0.4,0.7l0.5,0.4c0.3,0.2,0.5,0.3,0.8,0.3
		h4.4c0.2,0,0.4,0.1,0.6,0.3c0.2,0.2,0.3,0.4,0.3,0.6c0,0.2-0.1,0.4-0.3,0.6c-0.2,0.2-0.4,0.3-0.6,0.3h-4.5c-0.3,0-0.6-0.1-0.9-0.2
		c-0.3-0.1-0.6-0.3-0.7-0.4l-0.8-0.7c-0.2-0.2-0.4-0.5-0.6-0.8s-0.2-0.7-0.2-0.9v-3.9c0-0.2,0.1-0.5,0.3-0.9
		c0.2-0.4,0.4-0.7,0.7-0.9l0.7-0.6c0.5-0.4,1-0.6,1.6-0.6h2.4c0.6,0,1.2,0.3,1.7,0.8l0.6,0.6C233.3,63.3,233.6,63.9,233.6,64.7z
		 M226.6,64.6v1.3h5.2v-1.2c0-0.3-0.1-0.6-0.3-0.7l-0.5-0.4c-0.3-0.2-0.5-0.3-0.7-0.3h-2.2c-0.3,0-0.5,0.1-0.7,0.3l-0.5,0.4
		C226.7,64.1,226.6,64.3,226.6,64.6z"/>
	<path d="M256.3,71.4h-1.7c-0.7,0-1.3-0.3-1.8-0.8s-0.8-1.1-0.8-1.8v-5.6h-0.9c-0.2,0-0.4-0.1-0.6-0.2c-0.2-0.2-0.3-0.4-0.3-0.6
		c0-0.2,0.1-0.4,0.3-0.6c0.2-0.2,0.4-0.3,0.6-0.3h0.9v-2.1c0-0.2,0.1-0.4,0.3-0.6c0.2-0.2,0.4-0.3,0.6-0.3c0.2,0,0.4,0.1,0.6,0.3
		c0.2,0.2,0.3,0.4,0.3,0.6v2.1h3.5c0.2,0,0.4,0.1,0.6,0.3s0.3,0.4,0.3,0.6c0,0.2-0.1,0.4-0.3,0.6c-0.2,0.2-0.4,0.3-0.6,0.3h-3.5v5.6
		c0,0.2,0.1,0.4,0.3,0.6c0.2,0.2,0.4,0.3,0.6,0.3h1.7c0.5,0,0.8-0.2,0.9-0.7s0.4-0.7,0.9-0.7c0.3,0,0.5,0.1,0.6,0.3
		c0.2,0.2,0.2,0.4,0.2,0.6c0,0.5-0.2,1-0.7,1.6C257.7,71.1,257.1,71.4,256.3,71.4z"/>
	<path d="M262.9,70.5V58.6c0-0.2,0.1-0.4,0.3-0.6c0.2-0.2,0.4-0.2,0.6-0.2s0.4,0.1,0.6,0.3s0.3,0.4,0.3,0.6V63l1.4-0.9
		c0.6-0.4,1.2-0.6,1.7-0.6h1.1c0.7,0,1.3,0.3,1.8,0.8c0.5,0.5,0.8,1.1,0.8,1.8l0.2,6.4c0,0.2-0.1,0.4-0.2,0.6s-0.4,0.3-0.6,0.3
		s-0.4-0.1-0.6-0.3c-0.2-0.2-0.2-0.4-0.3-0.6l-0.2-6.5c0-0.2-0.1-0.4-0.3-0.6s-0.4-0.3-0.6-0.3h-1c-0.2,0-0.5,0.1-0.7,0.3l-2.5,1.6
		v5.5c0,0.2-0.1,0.4-0.3,0.6s-0.4,0.3-0.6,0.3s-0.4-0.1-0.6-0.3C263,71,262.9,70.8,262.9,70.5z"/>
	<path d="M284.3,64.7v2.1c0,0.2-0.1,0.4-0.3,0.6s-0.4,0.3-0.6,0.3h-6.1v0.5c0,0.3,0.1,0.5,0.4,0.7l0.5,0.4c0.3,0.2,0.5,0.3,0.8,0.3
		h4.4c0.2,0,0.4,0.1,0.6,0.3c0.2,0.2,0.3,0.4,0.3,0.6c0,0.2-0.1,0.4-0.3,0.6c-0.2,0.2-0.4,0.3-0.6,0.3h-4.5c-0.3,0-0.6-0.1-0.9-0.2
		c-0.3-0.1-0.6-0.3-0.7-0.4l-0.8-0.7c-0.2-0.2-0.4-0.5-0.6-0.8s-0.2-0.7-0.2-0.9v-3.9c0-0.2,0.1-0.5,0.3-0.9
		c0.2-0.4,0.4-0.7,0.7-0.9l0.7-0.6c0.5-0.4,1-0.6,1.6-0.6h2.4c0.6,0,1.2,0.3,1.7,0.8l0.6,0.6C284.1,63.3,284.3,63.9,284.3,64.7z
		 M277.4,64.6v1.3h5.2v-1.2c0-0.3-0.1-0.6-0.3-0.7l-0.5-0.4c-0.3-0.2-0.5-0.3-0.7-0.3h-2.2c-0.3,0-0.5,0.1-0.7,0.3l-0.5,0.4
		C277.5,64.1,277.4,64.3,277.4,64.6z"/>
	<path d="M297,64l-4.6,10.5c-0.2,0.4-0.4,0.6-0.8,0.6h-2.4c-0.2,0-0.4-0.1-0.6-0.2c-0.2-0.2-0.3-0.4-0.3-0.6c0-0.2,0.1-0.4,0.3-0.6
		c0.2-0.2,0.4-0.2,0.6-0.2h1.8l1.2-2.7h-0.4c-0.4,0-0.7-0.2-0.8-0.6l-2.6-6v-1.7c0-0.2,0.1-0.4,0.2-0.6s0.4-0.3,0.6-0.3
		c0.2,0,0.4,0.1,0.6,0.3c0.2,0.2,0.3,0.4,0.3,0.6l0,1.3l2.3,5.3h0.6l2.3-5.2l0-1.3c0-0.2,0.1-0.4,0.3-0.6c0.2-0.2,0.4-0.3,0.6-0.3
		c0.2,0,0.4,0.1,0.6,0.3s0.3,0.4,0.3,0.6V64z"/>
	<path d="M316.2,65.2h3.4c0.2,0,0.5,0,0.8,0.1l0-1.2c0-0.2-0.1-0.4-0.3-0.6c-0.2-0.2-0.4-0.3-0.6-0.3h-3.3c-0.2,0-0.4-0.1-0.6-0.3
		s-0.3-0.4-0.3-0.6c0-0.2,0.1-0.4,0.3-0.6c0.2-0.2,0.4-0.3,0.6-0.3h3.3c0.7,0,1.3,0.2,1.8,0.7s0.8,1.1,0.8,1.8l0.2,6.4
		c0,0.2-0.1,0.4-0.3,0.6s-0.4,0.3-0.6,0.3c-0.2,0-0.5-0.1-0.6-0.3s-0.3-0.4-0.3-0.6l-1.5,0.9h-2.9c-0.7,0-1.3-0.3-1.8-0.8
		c-0.5-0.5-0.8-1.1-0.8-1.8v-1c0-0.7,0.3-1.3,0.8-1.8C314.9,65.4,315.5,65.2,316.2,65.2z M320.5,68.5l-0.1-0.7
		c0-0.2-0.1-0.5-0.3-0.6c-0.2-0.2-0.4-0.2-0.6-0.2h-3.4c-0.2,0-0.4,0.1-0.6,0.3c-0.2,0.2-0.3,0.4-0.3,0.6v1c0,0.2,0.1,0.4,0.3,0.6
		c0.2,0.2,0.4,0.3,0.6,0.3h2.4L320.5,68.5z"/>
	<path d="M326.4,70.5v-8.2c0-0.2,0.1-0.4,0.3-0.6c0.2-0.2,0.4-0.3,0.6-0.3s0.4,0.1,0.6,0.3s0.3,0.4,0.3,0.6v1.1l1.4-1.2
		c0.6-0.5,1.1-0.7,1.7-0.7h1.3c0.7,0,1.3,0.3,1.8,0.8s0.8,1.1,0.8,1.8v0.5c0,0.2-0.1,0.5-0.3,0.6s-0.4,0.3-0.6,0.3s-0.4-0.1-0.6-0.3
		c-0.2-0.2-0.3-0.4-0.3-0.6v-0.5c0-0.2-0.1-0.4-0.3-0.6s-0.4-0.3-0.6-0.3h-1.1c-0.2,0-0.5,0.1-0.8,0.4l-2.5,2.1v4.8
		c0,0.2-0.1,0.4-0.3,0.6s-0.4,0.3-0.6,0.3c-0.2,0-0.4-0.1-0.6-0.3C326.4,71,326.4,70.8,326.4,70.5z"/>
	<path d="M347.7,64.7v2.1c0,0.2-0.1,0.4-0.3,0.6s-0.4,0.3-0.6,0.3h-6.1v0.5c0,0.3,0.1,0.5,0.4,0.7l0.5,0.4c0.3,0.2,0.5,0.3,0.8,0.3
		h4.4c0.2,0,0.4,0.1,0.6,0.3c0.2,0.2,0.3,0.4,0.3,0.6c0,0.2-0.1,0.4-0.3,0.6c-0.2,0.2-0.4,0.3-0.6,0.3h-4.5c-0.3,0-0.6-0.1-0.9-0.2
		c-0.3-0.1-0.6-0.3-0.7-0.4l-0.8-0.7c-0.2-0.2-0.4-0.5-0.6-0.8s-0.2-0.7-0.2-0.9v-3.9c0-0.2,0.1-0.5,0.3-0.9
		c0.2-0.4,0.4-0.7,0.7-0.9l0.7-0.6c0.5-0.4,1-0.6,1.6-0.6h2.4c0.6,0,1.2,0.3,1.7,0.8l0.6,0.6C347.5,63.3,347.7,63.9,347.7,64.7z
		 M340.8,64.6v1.3h5.2v-1.2c0-0.3-0.1-0.6-0.3-0.7l-0.5-0.4c-0.3-0.2-0.5-0.3-0.7-0.3h-2.2c-0.3,0-0.5,0.1-0.7,0.3l-0.5,0.4
		C340.9,64.1,340.8,64.3,340.8,64.6z"/>
	<path d="M369.8,75.1h-3.7c-0.2,0-0.4-0.1-0.6-0.2c-0.2-0.2-0.3-0.4-0.3-0.6c0-0.2,0.1-0.4,0.3-0.6c0.2-0.2,0.4-0.2,0.6-0.2h3.7
		c0.2,0,0.4-0.1,0.6-0.3l0.6-0.5c0.2-0.2,0.3-0.3,0.3-0.6v-2.6c-0.8,0.8-1.6,1.2-2.4,1.2h-1.3c-0.7,0-1.3-0.2-1.8-0.7l-0.6-0.6
		c-0.2-0.2-0.4-0.4-0.5-0.8c-0.2-0.3-0.2-0.7-0.2-1v-2.9c0-0.4,0.1-0.8,0.2-1.1c0.2-0.4,0.3-0.6,0.5-0.8l0.7-0.6
		c0.5-0.4,1.1-0.7,1.8-0.7h1.2c0.7,0,1.3,0.2,1.8,0.7l0.6,0.5l0-0.3c0-0.2,0.1-0.4,0.3-0.6s0.4-0.3,0.6-0.3c0.2,0,0.4,0.1,0.6,0.3
		c0.2,0.2,0.3,0.4,0.3,0.6V72c0,0.7-0.3,1.4-0.9,1.9l-0.7,0.6c-0.2,0.2-0.4,0.3-0.8,0.4C370.4,75,370.1,75.1,369.8,75.1z
		 M368.8,63.2h-1.2c-0.3,0-0.5,0.1-0.7,0.3l-0.5,0.4c-0.2,0.2-0.3,0.4-0.3,0.7v2.9c0,0.2,0.1,0.5,0.3,0.7l0.6,0.5
		c0.2,0.2,0.4,0.2,0.6,0.2h1.4c0.2,0,0.4-0.1,0.7-0.3l1.4-1.2c0.2-0.2,0.3-0.4,0.3-0.7v-1.3c0-0.3-0.1-0.6-0.4-0.8l-1.4-1.2
		C369.4,63.3,369.1,63.2,368.8,63.2z"/>
	<path d="M379.7,65.2h3.4c0.2,0,0.5,0,0.8,0.1l0-1.2c0-0.2-0.1-0.4-0.3-0.6c-0.2-0.2-0.4-0.3-0.6-0.3h-3.3c-0.2,0-0.4-0.1-0.6-0.3
		s-0.3-0.4-0.3-0.6c0-0.2,0.1-0.4,0.3-0.6c0.2-0.2,0.4-0.3,0.6-0.3h3.3c0.7,0,1.3,0.2,1.8,0.7s0.8,1.1,0.8,1.8l0.2,6.4
		c0,0.2-0.1,0.4-0.3,0.6s-0.4,0.3-0.6,0.3c-0.2,0-0.5-0.1-0.6-0.3s-0.3-0.4-0.3-0.6l-1.5,0.9h-2.9c-0.7,0-1.3-0.3-1.8-0.8
		c-0.5-0.5-0.8-1.1-0.8-1.8v-1c0-0.7,0.3-1.3,0.8-1.8C378.3,65.4,378.9,65.2,379.7,65.2z M384,68.5l-0.1-0.7c0-0.2-0.1-0.5-0.3-0.6
		c-0.2-0.2-0.4-0.2-0.6-0.2h-3.4c-0.2,0-0.4,0.1-0.6,0.3c-0.2,0.2-0.3,0.4-0.3,0.6v1c0,0.2,0.1,0.4,0.3,0.6c0.2,0.2,0.4,0.3,0.6,0.3
		h2.4L384,68.5z"/>
	<path d="M389.6,70.5v-8.2c0-0.2,0.1-0.4,0.3-0.6s0.4-0.3,0.6-0.3c0.4,0,0.7,0.2,0.8,0.7c0.5-0.5,1-0.7,1.6-0.7
		c0.7,0,1.3,0.3,1.7,0.9c0.5-0.6,1.1-0.9,1.8-0.9c0.5,0,1,0.2,1.4,0.6c0.4,0.4,0.6,0.9,0.6,1.5l0.2,7c0,0.2-0.1,0.4-0.3,0.6
		s-0.4,0.3-0.6,0.3c-0.2,0-0.4-0.1-0.6-0.3s-0.3-0.4-0.3-0.6l-0.2-6.8c0-0.4-0.1-0.6-0.3-0.6c-0.1,0-0.2,0.1-0.4,0.2l-1,0.9v6.3
		c0,0.2-0.1,0.4-0.3,0.6c-0.2,0.2-0.4,0.2-0.6,0.2c-0.2,0-0.4-0.1-0.6-0.3s-0.3-0.4-0.3-0.6v-6.8c0-0.3-0.1-0.4-0.4-0.4
		c-0.1,0-0.2,0-0.3,0.1l-1.2,1v6.1c0,0.2-0.1,0.4-0.2,0.6s-0.4,0.3-0.6,0.3c-0.2,0-0.4-0.1-0.6-0.3
		C389.6,70.9,389.6,70.7,389.6,70.5z"/>
	<path d="M411.1,64.7v2.1c0,0.2-0.1,0.4-0.3,0.6s-0.4,0.3-0.6,0.3h-6.1v0.5c0,0.3,0.1,0.5,0.4,0.7l0.5,0.4c0.3,0.2,0.5,0.3,0.8,0.3
		h4.4c0.2,0,0.4,0.1,0.6,0.3c0.2,0.2,0.3,0.4,0.3,0.6c0,0.2-0.1,0.4-0.3,0.6c-0.2,0.2-0.4,0.3-0.6,0.3h-4.5c-0.3,0-0.6-0.1-0.9-0.2
		c-0.3-0.1-0.6-0.3-0.7-0.4l-0.8-0.7c-0.2-0.2-0.4-0.5-0.6-0.8c-0.2-0.3-0.2-0.7-0.2-0.9v-3.9c0-0.2,0.1-0.5,0.3-0.9
		c0.2-0.4,0.4-0.7,0.7-0.9l0.7-0.6c0.5-0.4,1-0.6,1.6-0.6h2.4c0.6,0,1.2,0.3,1.7,0.8l0.6,0.6C410.9,63.3,411.1,63.9,411.1,64.7z
		 M404.2,64.6v1.3h5.2v-1.2c0-0.3-0.1-0.6-0.3-0.7l-0.5-0.4c-0.3-0.2-0.5-0.3-0.7-0.3h-2.2c-0.3,0-0.5,0.1-0.7,0.3l-0.5,0.4
		C404.3,64.1,404.2,64.3,404.2,64.6z"/>
	<path d="M434.8,71.4h-5.3c-0.2,0-0.4-0.1-0.6-0.3c-0.2-0.2-0.3-0.4-0.3-0.6c0-0.2,0.1-0.4,0.3-0.6c0.2-0.2,0.4-0.3,0.6-0.3h1.8
		v-6.4h-1.7c-0.2,0-0.4-0.1-0.6-0.3c-0.2-0.2-0.3-0.4-0.3-0.6c0-0.2,0.1-0.4,0.3-0.6c0.2-0.2,0.4-0.3,0.6-0.3h2.6
		c0.2,0,0.4,0.1,0.6,0.3c0.2,0.2,0.3,0.4,0.3,0.6v7.3h1.7c0.2,0,0.4,0.1,0.6,0.3c0.2,0.2,0.3,0.4,0.3,0.6s-0.1,0.4-0.3,0.6
		S435,71.4,434.8,71.4z M431.3,57h0.9c0.2,0,0.4,0.1,0.6,0.3c0.2,0.2,0.3,0.4,0.3,0.6v0.7c0,0.2-0.1,0.4-0.3,0.6
		c-0.2,0.2-0.4,0.3-0.6,0.3h-0.9c-0.2,0-0.5-0.1-0.6-0.3c-0.2-0.2-0.2-0.4-0.2-0.6l0-0.8c0-0.2,0.1-0.4,0.3-0.6
		C430.8,57.1,431,57,431.3,57z"/>
	<path d="M444.6,63.5l-2.4,1.5v5.5c0,0.2-0.1,0.4-0.3,0.6s-0.4,0.3-0.6,0.3c-0.2,0-0.4-0.1-0.6-0.3s-0.3-0.4-0.3-0.6v-8.2
		c0-0.2,0.1-0.4,0.3-0.6c0.2-0.2,0.4-0.3,0.6-0.3c0.2,0,0.4,0.1,0.6,0.3c0.2,0.2,0.3,0.4,0.3,0.6v0.6l1.6-1c0.5-0.3,1.1-0.5,1.8-0.5
		h0.8c0.7,0,1.3,0.2,1.8,0.7s0.8,1.1,0.8,1.8l0.2,6.5c0,0.2-0.1,0.4-0.2,0.6s-0.4,0.3-0.6,0.3c-0.2,0-0.4-0.1-0.6-0.2
		c-0.2-0.2-0.3-0.4-0.3-0.6l-0.3-6.4c0-0.6-0.3-0.9-0.9-0.9h-0.8C445.2,63.2,444.9,63.3,444.6,63.5z"/>
	<path d="M461.9,62.3V64l-3,6.8c-0.2,0.4-0.4,0.6-0.8,0.6H457c-0.4,0-0.7-0.2-0.9-0.6l-3-6.7v-1.7c0-0.2,0.1-0.4,0.3-0.6
		c0.2-0.2,0.4-0.3,0.6-0.3s0.4,0.1,0.6,0.3c0.2,0.2,0.3,0.4,0.3,0.6l0,1.3l2.6,5.9l2.6-5.9l0-1.3c0-0.2,0.1-0.4,0.3-0.6
		s0.4-0.3,0.6-0.3c0.2,0,0.4,0.1,0.6,0.3C461.8,61.9,461.9,62.1,461.9,62.3z"/>
	<path d="M472.8,71.4h-5.3c-0.2,0-0.4-0.1-0.6-0.3c-0.2-0.2-0.3-0.4-0.3-0.6c0-0.2,0.1-0.4,0.3-0.6c0.2-0.2,0.4-0.3,0.6-0.3h1.8
		v-6.4h-1.7c-0.2,0-0.4-0.1-0.6-0.3c-0.2-0.2-0.3-0.4-0.3-0.6c0-0.2,0.1-0.4,0.3-0.6c0.2-0.2,0.4-0.3,0.6-0.3h2.6
		c0.2,0,0.4,0.1,0.6,0.3c0.2,0.2,0.3,0.4,0.3,0.6v7.3h1.7c0.2,0,0.4,0.1,0.6,0.3c0.2,0.2,0.3,0.4,0.3,0.6s-0.1,0.4-0.3,0.6
		S473.1,71.4,472.8,71.4z M469.3,57h0.9c0.2,0,0.4,0.1,0.6,0.3c0.2,0.2,0.3,0.4,0.3,0.6v0.7c0,0.2-0.1,0.4-0.3,0.6
		c-0.2,0.2-0.4,0.3-0.6,0.3h-0.9c-0.2,0-0.5-0.1-0.6-0.3c-0.2-0.2-0.2-0.4-0.2-0.6l0-0.8c0-0.2,0.1-0.4,0.3-0.6
		C468.9,57.1,469.1,57,469.3,57z"/>
	<path d="M484.6,71.4h-1.7c-0.7,0-1.3-0.3-1.8-0.8s-0.8-1.1-0.8-1.8v-5.6h-0.9c-0.2,0-0.4-0.1-0.6-0.2c-0.2-0.2-0.3-0.4-0.3-0.6
		c0-0.2,0.1-0.4,0.3-0.6c0.2-0.2,0.4-0.3,0.6-0.3h0.9v-2.1c0-0.2,0.1-0.4,0.3-0.6c0.2-0.2,0.4-0.3,0.6-0.3c0.2,0,0.4,0.1,0.6,0.3
		c0.2,0.2,0.3,0.4,0.3,0.6v2.1h3.5c0.2,0,0.4,0.1,0.6,0.3s0.3,0.4,0.3,0.6c0,0.2-0.1,0.4-0.3,0.6c-0.2,0.2-0.4,0.3-0.6,0.3H482v5.6
		c0,0.2,0.1,0.4,0.3,0.6c0.2,0.2,0.4,0.3,0.6,0.3h1.7c0.5,0,0.8-0.2,0.9-0.7s0.4-0.7,0.9-0.7c0.3,0,0.5,0.1,0.6,0.3
		c0.2,0.2,0.2,0.4,0.2,0.6c0,0.5-0.2,1-0.7,1.6C486,71.1,485.4,71.4,484.6,71.4z"/>
	<path d="M499.9,64.7v2.1c0,0.2-0.1,0.4-0.3,0.6s-0.4,0.3-0.6,0.3H493v0.5c0,0.3,0.1,0.5,0.4,0.7l0.5,0.4c0.3,0.2,0.5,0.3,0.8,0.3
		h4.4c0.2,0,0.4,0.1,0.6,0.3c0.2,0.2,0.3,0.4,0.3,0.6c0,0.2-0.1,0.4-0.3,0.6c-0.2,0.2-0.4,0.3-0.6,0.3h-4.5c-0.3,0-0.6-0.1-0.9-0.2
		c-0.3-0.1-0.6-0.3-0.7-0.4l-0.8-0.7c-0.2-0.2-0.4-0.5-0.6-0.8c-0.2-0.3-0.2-0.7-0.2-0.9v-3.9c0-0.2,0.1-0.5,0.3-0.9
		c0.2-0.4,0.4-0.7,0.7-0.9l0.7-0.6c0.5-0.4,1-0.6,1.6-0.6h2.4c0.6,0,1.2,0.3,1.7,0.8l0.6,0.6C499.7,63.3,499.9,63.9,499.9,64.7z
		 M493,64.6v1.3h5.2v-1.2c0-0.3-0.1-0.6-0.3-0.7l-0.5-0.4c-0.3-0.2-0.5-0.3-0.7-0.3h-2.2c-0.3,0-0.5,0.1-0.7,0.3l-0.5,0.4
		C493.1,64.1,493,64.3,493,64.6z"/>
	<path d="M506.3,61.5h3.9c0.6,0,1.2,0.2,1.6,0.5c0.5,0.4,0.7,0.7,0.7,1.1c0,0.2-0.1,0.4-0.3,0.6c-0.2,0.2-0.4,0.2-0.6,0.2
		c-0.3,0-0.5-0.1-0.7-0.4s-0.5-0.4-0.7-0.4h-3.9c-0.4,0-0.6,0.2-0.6,0.5c0,0.2,0.1,0.4,0.4,0.5l4.6,2c0.5,0.2,0.8,0.5,1.1,1
		c0.3,0.5,0.4,1,0.4,1.5c0,0.7-0.3,1.4-0.8,1.9c-0.5,0.5-1.1,0.8-1.8,0.8h-3.5c-0.6,0-1.2-0.2-1.7-0.5c-0.5-0.4-0.8-0.7-0.8-1.1
		c0-0.2,0.1-0.4,0.3-0.6c0.2-0.2,0.4-0.3,0.7-0.3c0.2,0,0.5,0.1,0.7,0.4c0.2,0.2,0.6,0.4,1.1,0.4h3.2c0.3,0,0.5-0.1,0.6-0.3
		c0.2-0.2,0.3-0.4,0.3-0.7c0-0.4-0.2-0.7-0.6-0.8l-4.6-2.1c-0.4-0.2-0.8-0.5-1-0.9s-0.4-0.8-0.4-1.1c0-0.6,0.2-1.1,0.6-1.6
		C505.2,61.7,505.7,61.5,506.3,61.5z"/>
</g>
<rect x="562" y="79" class="st7" width="30.8" height="25.5"/>
<g>
	<path class="st2" d="M575.3,87c-0.4,0-0.9,0-1.4,0.1c-2.9,0.5-4.4,2.6-4.7,4.9h0.1c0.7-0.9,1.8-1.6,3.3-1.6c2.4,0,4.1,1.7,4.1,4.4
		c0,2.5-1.7,4.8-4.5,4.8c-2.9,0-4.8-2.3-4.8-5.8c0-2.7,1-4.8,2.3-6.2c1.1-1.1,2.6-1.8,4.4-2c0.5-0.1,1-0.1,1.3-0.1V87z M574.8,94.9
		c0-2-1.1-3.1-2.8-3.1c-1.1,0-2.1,0.7-2.6,1.7c-0.1,0.2-0.2,0.5-0.2,0.8c0,2.2,1.1,3.9,3,3.9C573.7,98.2,574.8,96.9,574.8,94.9z"/>
	<path class="st2" d="M587.3,92.4c0,4.6-1.7,7.2-4.7,7.2c-2.7,0-4.5-2.5-4.5-7c0-4.6,2-7.1,4.7-7.1
		C585.7,85.5,587.3,88.1,587.3,92.4z M579.9,92.6c0,3.5,1.1,5.6,2.8,5.6c1.9,0,2.8-2.2,2.8-5.7c0-3.4-0.9-5.6-2.8-5.6
		C581.1,86.9,579.9,88.9,579.9,92.6z"/>
</g>
</svg>
