<?xml version="1.0" encoding="UTF-8"?>
<svg width="855px" height="416px" viewBox="0 0 855 416" version="1.1" xmlns="http://www.w3.org/2000/svg" xmlns:xlink="http://www.w3.org/1999/xlink">
    <!-- Generator: Sketch 50.2 (55047) - http://www.bohemiancoding.com/sketch -->
    <title>Group 2</title>
    <desc>Created with Sketch.</desc>
    <defs></defs>
    <g id="Page-1" stroke="none" stroke-width="1" fill="none" fill-rule="evenodd">
        <g id="Group-2" transform="translate(1.000000, 0.000000)">
            <g id="socksTwo">
                <polygon id="Shape" stroke="#FFFFFF" fill="#C1D721" fill-rule="nonzero" points="836.6 415.3 0.3 415.3 16.4 0.7 852.7 0.7"></polygon>
                <g id="XMLID_1_" transform="translate(104.000000, 85.000000)">
                    <g id="Group" fill="#991C6F" fill-rule="nonzero">
                        <polygon id="Shape" points="420.6 0.4 470.4 103.1 449.6 113.7 405.9 8.8"></polygon>
                        <polygon id="Shape" points="405.9 8.8 449.6 113.7 436.4 120.5 393.7 15.7"></polygon>
                        <polygon id="Shape" points="393.7 15.7 436.4 120.5 410.9 133.5 364.6 32.2"></polygon>
                        <polygon id="Shape" points="364.6 32.2 410.9 133.5 399.3 139.5 351 39.9"></polygon>
                        <path d="M351,39.9 L399.3,139.4 L236,223.1 C240.7,198.6 212.3,195.2 175.1,138.9 L176.7,138.8 L351,39.9 Z" id="Shape"></path>
                        <path d="M175,139 C212.2,195.3 240.6,198.7 235.9,223.2 C231.8,244.5 206.2,263 176.2,271.3 C172.3,263.8 164.9,252.5 152.1,242.8 C146.4,238.5 140.8,235.4 135.9,233.3 C130.3,231.1 120,228 107.1,229.2 C88.1,231 75.4,241 70.9,245 L70.6,245.3 C50.2,227 37,206.3 34.2,201.9 C34.2,201.9 34.2,201.9 34.2,201.9 C34.2,201.9 34.2,201.9 34.2,201.9 C2.2,149.4 -1.1,111.7 1.5,89.8 L1.7,89.8 C12.2,90.7 37,91.3 63.7,77.4 C71.3,73.4 88.5,63.3 102.5,44.3 C103.7,42.6 104.7,41.2 105.4,40.3 L106.2,38.9 C131.8,56.8 144.3,88.2 165.7,124.4 C168.9,129.5 172,134.4 175,139 Z" id="Shape"></path>
                        <path d="M152.2,242.8 C165,252.4 172.3,263.8 176.3,271.3 C157.7,276.4 137.5,277.6 119.6,273.2 C100.8,268.5 84.3,257.4 70.8,245.3 L71.1,245 C75.6,241.1 88.3,231 107.3,229.2 C120.2,228 130.5,231.2 136.1,233.3 C140.9,235.4 146.5,238.5 152.2,242.8 Z" id="Shape"></path>
                        <path d="M106.3,38.7 L105.5,40.1 C104.8,41.1 103.9,42.5 102.6,44.1 C88.6,63.1 71.4,73.2 63.8,77.2 C37.1,91.1 12.2,90.4 1.8,89.6 L1.6,89.6 C3.4,74.4 8.1,66.7 8.1,66.7 C18.1,47 39.7,27.2 64.7,25.5 C71.5,25 80,25.8 90.7,30.2 C96.4,32.5 101.6,35.4 106.3,38.7 Z" id="Shape"></path>
                    </g>
                    <g id="Group" stroke="#FFFFFF">
                        <path d="M175,139 C172,134.4 168.9,129.5 165.8,124.2 C144.5,88 131.9,56.7 106.3,38.7 C101.6,35.4 96.4,32.5 90.6,30.2 C79.9,25.8 71.4,25.1 64.6,25.5 C39.6,27.2 18,47 8,66.7 C8,66.7 3.3,74.4 1.5,89.6 C-1.1,111.6 2.2,149.2 34.2,201.7 C34.2,201.7 34.2,201.7 34.2,201.7 C34.2,201.7 34.2,201.7 34.2,201.7 C37,206.1 50.2,226.8 70.6,245.1 C84.1,257.2 100.6,268.3 119.4,273 C137.3,277.5 157.5,276.3 176.1,271.1 C206.1,262.8 231.7,244.3 235.8,223 C240.6,198.7 212.3,195.2 175,139 Z" id="Shape"></path>
                        <polyline id="Shape" points="176.7 138.9 351 39.9 364.6 32.2 393.7 15.7 405.9 8.8 420.6 0.4"></polyline>
                        <path d="M1.8,89.6 C12.3,90.5 37.1,91.1 63.8,77.2 C71.4,73.2 88.6,63.1 102.6,44.1 C103.8,42.4 104.8,41 105.5,40.1" id="Shape"></path>
                    </g>
                </g>
                <path d="M210.7,126.6 C206.4,122.4 196.2,113.6 180.5,109.8 C176.8,108.9 157.9,104.7 139.7,113.5 C118.2,124 104.8,149 105.5,177 C114,177.7 121.2,177.4 126.6,176.9 C139.9,175.6 150.2,172.3 156.1,170.1 C163.4,167.3 169.3,164.3 173.5,161.8 C180.7,157.6 189.6,151.3 198.4,142.1 C203.5,136.7 207.5,131.4 210.7,126.6 Z" id="Shape" stroke="#FFFFFF" fill="#FBB03B" fill-rule="nonzero"></path>
                <path d="M175,329.9 C178,334.5 194.9,358.8 227.4,364.8 C253.7,369.6 274.1,359.5 280.2,356.2 C276.8,349.2 268.6,335.2 252.2,325 C246.3,321.3 233.5,313.3 216.8,313.8 C213.1,313.9 202.8,314.1 191,319.4 C183.9,322.8 178.5,326.8 175,329.9 Z" id="Shape" stroke="#FFFFFF" fill="#FBB03B" fill-rule="nonzero"></path>
                <path d="M333.6,308.1 C313.4,301 293.2,293.9 273.1,286.7 L278.5,224.7 C280.1,224.1 282.3,223.6 284.8,224 C284.8,224 287.2,224.3 289.4,225.7 C293.2,227.9 312.9,245.8 339.3,270.9 C347.5,285.2 349.8,298.2 345.8,303.4 C342.4,307.9 338.3,308.5 338.3,308.5 C336.3,308.9 334.6,308.5 333.6,308.1 Z" id="Shape" fill="#991C6F" fill-rule="nonzero"></path>
                <path d="M568.1,174.5 C480.5,215.6 392.8,256.7 305.2,297.8 C313.9,305.1 322.6,312.4 331.3,319.7 C414.7,280.2 498,240.6 581.4,201 C577,192.2 572.5,183.4 568.1,174.5 Z" id="Shape" fill="#991C6F" fill-rule="nonzero"></path>
                <path d="M524.5,228.6 C520.1,230.8 515.7,233 511.3,235.2 C492.9,198.3 474.6,161.5 456.2,124.6 C460.8,122 465.4,119.5 470.1,116.9 C488.2,154.1 506.4,191.3 524.5,228.6 Z" id="Shape" stroke="#FFFFFF" fill="#FBB03B" fill-rule="nonzero"></path>
                <path d="M567.8,208.4 C563.3,210.7 558.7,212.9 554.2,215.2 C535.3,177.1 516.5,138.9 497.6,100.8 C502.4,98.2 507.1,95.5 511.9,92.9 C530.5,131.4 549.2,169.9 567.8,208.4 Z" id="Shape" stroke="#FFFFFF" fill="#FBB03B" fill-rule="nonzero"></path>
                <g id="XMLID_2_" transform="translate(221.000000, 113.000000)">
                    <g id="Group" fill="#991C6F" fill-rule="nonzero">
                        <polygon id="Shape" points="420.1 0.6 469.9 103.3 449.1 113.9 405.4 9"></polygon>
                        <polygon id="Shape" points="405.4 9 449.1 113.9 435.9 120.7 393.2 15.9"></polygon>
                        <polygon id="Shape" points="393.2 15.9 435.9 120.7 410.4 133.7 364.1 32.4"></polygon>
                        <polygon id="Shape" points="364.1 32.4 410.4 133.7 398.8 139.7 350.5 40.1"></polygon>
                        <path d="M350.5,40.1 L398.8,139.6 L235.5,223.3 C240.2,198.8 211.8,195.4 174.6,139.1 L176.2,139 L350.5,40.1 Z" id="Shape"></path>
                        <path d="M174.6,139.2 C211.8,195.5 240.2,198.9 235.5,223.4 C231.4,244.7 205.8,263.2 175.8,271.5 C171.9,264 164.5,252.7 151.7,243 C146,238.7 140.4,235.6 135.5,233.5 C129.9,231.3 119.6,228.2 106.7,229.4 C87.7,231.2 75,241.2 70.5,245.2 L70.2,245.5 C49.8,227.2 36.6,206.5 33.8,202.1 C33.8,202.1 33.8,202.1 33.8,202.1 C33.8,202.1 33.8,202.1 33.8,202.1 C1.8,149.6 -1.5,111.9 1.1,90 L1.3,90 C11.8,90.9 36.6,91.5 63.3,77.6 C70.9,73.6 88.1,63.5 102.1,44.5 C103.3,42.8 104.3,41.4 105,40.5 L105.8,39.1 C131.4,57 143.9,88.4 165.3,124.6 C168.4,129.7 171.5,134.6 174.6,139.2 Z" id="Shape"></path>
                        <path d="M151.7,243 C164.5,252.6 171.8,264 175.8,271.5 C157.2,276.6 137,277.8 119.1,273.4 C100.3,268.7 83.8,257.6 70.3,245.5 L70.6,245.2 C75.1,241.3 87.8,231.2 106.8,229.4 C119.7,228.2 130,231.4 135.6,233.5 C140.4,235.6 146,238.7 151.7,243 Z" id="Shape"></path>
                        <path d="M105.8,38.9 L105,40.3 C104.3,41.3 103.4,42.7 102.1,44.3 C88.1,63.3 70.9,73.4 63.3,77.4 C36.6,91.3 11.7,90.6 1.3,89.8 L1.1,89.8 C2.9,74.6 7.6,66.9 7.6,66.9 C17.6,47.2 39.2,27.4 64.2,25.7 C71,25.2 79.5,26 90.2,30.4 C95.9,32.7 101.1,35.6 105.8,38.9 Z" id="Shape"></path>
                    </g>
                    <g id="Group" stroke="#FFFFFF">
                        <path d="M174.6,139.2 C171.6,134.6 168.5,129.7 165.4,124.4 C144.1,88.2 131.5,56.9 105.9,38.9 C101.2,35.6 96,32.7 90.2,30.4 C79.5,26 71,25.3 64.2,25.7 C39.2,27.4 17.6,47.2 7.6,66.9 C7.6,66.9 2.9,74.6 1.1,89.8 C-1.5,111.8 1.8,149.4 33.8,201.9 C33.8,201.9 33.8,201.9 33.8,201.9 C33.8,201.9 33.8,201.9 33.8,201.9 C36.6,206.3 49.8,227 70.2,245.3 C83.7,257.4 100.2,268.5 119,273.2 C136.9,277.7 157.1,276.5 175.7,271.3 C205.7,263 231.3,244.5 235.4,223.2 C240.2,198.9 211.8,195.4 174.6,139.2 Z" id="Shape"></path>
                        <polyline id="Shape" points="176.2 139.1 350.5 40.1 364.1 32.4 393.2 15.9 405.4 9 420.1 0.6"></polyline>
                        <path d="M1.3,89.8 C11.8,90.7 36.6,91.3 63.3,77.4 C70.9,73.4 88.1,63.3 102.1,44.3 C103.3,42.6 104.3,41.2 105,40.3" id="Shape"></path>
                    </g>
                </g>
                <path d="M326.9,152.9 C307.9,137.7 282.1,134.4 260.1,144.3 C237.3,154.6 222.5,177.5 222.3,202.7 C230.5,203.6 237.5,203.4 242.6,202.9 C246.3,202.6 257.9,201.4 272.1,196 C279.4,193.2 285.3,190.2 289.5,187.7 C296.7,183.5 305.6,177.2 314.4,168.1 C319.6,162.9 323.7,157.7 326.9,152.9 Z" id="Shape" stroke="#FFFFFF" fill="#FBB03B" fill-rule="nonzero"></path>
                <path d="M291.6,358.1 C294.6,362.7 311.5,387 344,393 C370.3,397.8 390.7,387.7 396.8,384.4 C393.4,377.4 385.2,363.4 368.8,353.2 C362.9,349.5 350.1,341.5 333.4,342 C329.7,342.1 319.4,342.3 307.6,347.6 C300.4,351 295,355 291.6,358.1 Z" id="Shape" stroke="#FFFFFF" fill="#FBB03B" fill-rule="nonzero"></path>
                <path d="M450.1,336.3 C429.9,329.2 409.7,322.1 389.6,314.9 L395,252.9 C396.6,252.3 398.8,251.8 401.3,252.2 C401.3,252.2 403.7,252.5 405.9,253.9 C409.7,256.1 429.4,274 455.8,299.1 C464,313.4 466.3,326.4 462.3,331.6 C458.9,336.1 454.8,336.7 454.8,336.7 C452.8,337 451.1,336.6 450.1,336.3 Z" id="Shape" fill="#991C6F" fill-rule="nonzero"></path>
                <path d="M684.6,202.7 C597,243.9 509.3,285 421.7,326.1 C430.4,333.4 439.1,340.7 447.8,348 C531.2,308.4 614.5,268.8 697.9,229.2 C693.5,220.4 689,211.6 684.6,202.7 Z" id="Shape" fill="#991C6F" fill-rule="nonzero"></path>
                <path d="M641,256.8 C636.6,259 632.2,261.2 627.8,263.4 C609.4,226.5 591.1,189.7 572.7,152.8 C577.3,150.2 581.9,147.7 586.6,145.1 C604.7,182.3 622.9,219.5 641,256.8 Z" id="Shape" stroke="#FFFFFF" fill="#FBB03B" fill-rule="nonzero"></path>
                <path d="M684.3,236.6 C679.8,238.9 675.2,241.1 670.7,243.4 C651.8,205.3 633,167.1 614.1,129 C618.9,126.4 623.6,123.7 628.4,121.1 C647,159.6 665.7,198.1 684.3,236.6 Z" id="Shape" stroke="#FFFFFF" fill="#FBB03B" fill-rule="nonzero"></path>
                <path d="M455.2,344.5 L701.3,228.1" id="Shape" stroke="#FFFFFF"></path>
                <path d="M524.6,85.4 L560.5,159.4" id="Shape" stroke="#FFFFFF"></path>
                <path d="M641.1,113.6 L697.9,229.2" id="Shape" stroke="#FFFFFF"></path>
                <g id="Group" transform="translate(103.000000, 30.000000)" fill="#000000" fill-rule="nonzero">
                    <path d="M1.7,0.8 L9,0.8 C9.2,0.8 9.4,0.9 9.6,1.1 C9.8,1.3 9.9,1.5 9.9,1.7 C9.9,2 9.8,2.2 9.6,2.3 C9.4,2.5 9.2,2.6 9,2.6 L6.3,2.6 L6.3,13.2 L9,13.2 C9.3,13.2 9.5,13.3 9.6,13.5 C9.8,13.7 9.9,13.9 9.9,14.1 C9.9,14.4 9.8,14.6 9.6,14.7 C9.4,14.9 9.2,15 9,15 L1.7,15 C1.4,15 1.2,14.9 1.1,14.7 C0.9,14.5 0.8,14.3 0.8,14.1 C0.8,13.8 0.9,13.6 1.1,13.5 C1.3,13.3 1.5,13.2 1.7,13.2 L4.5,13.2 L4.5,2.6 L1.7,2.6 C1.4,2.6 1.2,2.5 1.1,2.3 C0.9,2.1 0.8,1.9 0.8,1.7 C0.8,1.4 0.9,1.2 1.1,1 C1.2,0.9 1.4,0.8 1.7,0.8 Z" id="Shape"></path>
                    <path d="M27.4,14.2 L27.4,1.7 C27.4,1.5 27.5,1.2 27.7,1.1 C27.9,0.9 28.1,0.8 28.3,0.8 C28.6,0.8 28.8,0.9 28.9,1.1 C29.1,1.3 29.2,1.5 29.2,1.7 L29.2,6.3 L30.7,5.4 C31.4,5 31.9,4.8 32.5,4.8 L33.6,4.8 C34.3,4.8 35,5.1 35.5,5.6 C36,6.1 36.3,6.8 36.3,7.5 L36.5,14.3 C36.5,14.6 36.4,14.8 36.2,14.9 C36,15.1 35.8,15.2 35.6,15.2 C35.3,15.2 35.1,15.1 35,14.9 C34.9,14.7 34.7,14.5 34.7,14.3 L34.5,7.5 C34.5,7.3 34.4,7 34.2,6.9 C34,6.7 33.8,6.6 33.6,6.6 L32.6,6.6 C32.4,6.6 32.1,6.7 31.8,6.9 L29.2,8.6 L29.2,14.3 C29.2,14.6 29.1,14.8 28.9,14.9 C28.7,15.1 28.5,15.2 28.3,15.2 C28,15.2 27.8,15.1 27.7,14.9 C27.4,14.7 27.4,14.4 27.4,14.2 Z" id="Shape"></path>
                    <path d="M49.7,8 L49.7,11.8 C49.7,12.6 49.3,13.4 48.6,14 C47.9,14.6 47.1,15 46.2,15 L44.1,15 C43.3,15 42.5,14.7 41.7,14 C40.9,13.3 40.6,12.6 40.6,11.8 L40.6,8 C40.6,7.2 41,6.5 41.7,5.8 C42.4,5.1 43.2,4.8 44.1,4.8 L46.2,4.8 C47,4.8 47.8,5.1 48.6,5.8 C49.4,6.5 49.7,7.2 49.7,8 Z M42.5,8.1 L42.5,11.8 C42.5,12.1 42.6,12.4 42.9,12.6 L43.6,13.2 C43.8,13.3 44,13.4 44.2,13.4 L46.3,13.4 C46.6,13.4 46.9,13.3 47.1,13.1 L47.6,12.6 C47.8,12.4 47.9,12.2 47.9,11.9 L47.9,8.2 C47.9,7.8 47.8,7.6 47.6,7.4 L47,6.9 C46.8,6.7 46.5,6.6 46.2,6.6 L44.3,6.6 C43.9,6.6 43.6,6.7 43.4,6.9 L42.8,7.4 C42.6,7.5 42.5,7.8 42.5,8.1 Z" id="Shape"></path>
                    <path d="M55.8,14.1 L55.8,18.1 C55.8,18.4 55.7,18.6 55.5,18.8 C55.3,19 55.1,19.1 54.9,19.1 C54.6,19.1 54.4,19 54.3,18.8 C54.1,18.6 54,18.4 54,18.1 L54,5.2 C54,5 54.1,4.7 54.3,4.6 C54.5,4.4 54.7,4.3 55,4.3 C55.2,4.3 55.5,4.4 55.6,4.6 C55.8,4.8 55.9,5 55.9,5.2 L55.9,5.8 C56.8,4.8 57.6,4.3 58.5,4.3 L58.9,4.3 C59.5,4.3 60.1,4.5 60.7,5 L62.2,6.3 C62.9,6.9 63.2,7.6 63.2,8.5 L63.2,11.3 C63.2,12.2 62.8,12.9 62.1,13.5 L60.6,14.8 C60.1,15.2 59.5,15.5 58.8,15.5 L58.4,15.5 C57.7,15.5 57.1,15.3 56.6,14.8 L55.8,14.1 Z M58.3,13.7 L58.8,13.7 C59,13.7 59.3,13.6 59.5,13.4 L60.9,12.2 C61.1,12 61.3,11.8 61.3,11.4 L61.3,8.5 C61.3,8.2 61.2,8 60.9,7.7 L59.4,6.4 C59.2,6.2 59,6.2 58.8,6.2 L58.3,6.2 C58.1,6.2 57.8,6.4 57.5,6.7 L56.2,8 C56,8.2 55.8,8.5 55.8,8.8 L55.8,11.1 C55.8,11.4 55.9,11.7 56.2,11.9 L57.5,13.2 C57.8,13.5 58.1,13.7 58.3,13.7 Z" id="Shape"></path>
                    <path d="M76.3,8.1 L76.3,10.3 C76.3,10.5 76.2,10.8 76,10.9 C75.8,11.1 75.6,11.2 75.4,11.2 L69,11.2 L69,11.7 C69,12 69.1,12.3 69.4,12.5 L70,13 C70.3,13.2 70.6,13.3 70.8,13.3 L75.4,13.3 C75.6,13.3 75.9,13.4 76,13.6 C76.2,13.8 76.3,14 76.3,14.2 C76.3,14.4 76.2,14.7 76,14.8 C75.8,15 75.6,15.1 75.4,15.1 L70.6,15.1 C70.3,15.1 70,15 69.6,14.9 C69.3,14.8 69,14.6 68.8,14.5 L68,13.8 C67.7,13.6 67.5,13.3 67.4,13 C67.2,12.6 67.1,12.3 67.1,12 L67.1,7.9 C67.1,7.7 67.2,7.3 67.4,6.9 C67.6,6.5 67.8,6.2 68.1,6 L68.9,5.4 C69.4,5 69.9,4.8 70.5,4.8 L73,4.8 C73.6,4.8 74.2,5.1 74.8,5.6 L75.5,6.2 C76.1,6.6 76.3,7.3 76.3,8.1 Z M69.1,8 L69.1,9.4 L74.6,9.4 L74.6,8.1 C74.6,7.8 74.5,7.5 74.3,7.3 L73.8,6.8 C73.5,6.6 73.3,6.5 73.1,6.5 L70.8,6.5 C70.5,6.5 70.3,6.6 70,6.8 L69.5,7.2 C69.2,7.5 69.1,7.7 69.1,8 Z" id="Shape"></path>
                    <path d="M102.9,7.4 L98,18.4 C97.8,18.8 97.5,19 97.1,19 L94.6,19 C94.3,19 94.1,18.9 94,18.7 C93.9,18.5 93.7,18.3 93.7,18.1 C93.7,17.8 93.8,17.6 94,17.5 C94.2,17.3 94.4,17.2 94.6,17.2 L96.5,17.2 L97.7,14.3 L97.3,14.3 C96.9,14.3 96.6,14.1 96.4,13.7 L93.7,7.4 L93.7,5.7 C93.7,5.4 93.8,5.2 94,5.1 C94.2,4.9 94.4,4.8 94.6,4.8 C94.9,4.8 95.1,4.9 95.2,5.1 C95.4,5.3 95.5,5.5 95.5,5.7 L95.5,7 L97.9,12.5 L98.5,12.5 L101,7 L101,5.6 C101,5.4 101.1,5.2 101.3,5 C101.5,4.8 101.7,4.7 101.9,4.7 C102.1,4.7 102.4,4.8 102.5,5 C102.7,5.2 102.8,5.4 102.8,5.6 L102.8,7.4 L102.9,7.4 Z" id="Shape"></path>
                    <path d="M116.2,8 L116.2,11.8 C116.2,12.6 115.8,13.4 115.1,14 C114.4,14.6 113.6,15 112.7,15 L110.6,15 C109.8,15 109,14.7 108.2,14 C107.4,13.3 107.1,12.6 107.1,11.8 L107.1,8 C107.1,7.2 107.5,6.5 108.2,5.8 C108.9,5.1 109.7,4.8 110.6,4.8 L112.7,4.8 C113.5,4.8 114.3,5.1 115.1,5.8 C115.9,6.5 116.2,7.2 116.2,8 Z M108.9,8.1 L108.9,11.8 C108.9,12.1 109,12.4 109.3,12.6 L110,13.2 C110.2,13.3 110.4,13.4 110.6,13.4 L112.7,13.4 C113,13.4 113.3,13.3 113.5,13.1 L114,12.6 C114.2,12.4 114.3,12.2 114.3,11.9 L114.3,8.2 C114.3,7.8 114.2,7.6 114,7.4 L113.4,6.9 C113.2,6.7 112.9,6.6 112.6,6.6 L110.7,6.6 C110.3,6.6 110,6.7 109.8,6.9 L109.2,7.4 C109,7.5 108.9,7.8 108.9,8.1 Z" id="Shape"></path>
                    <path d="M124.7,13.3 L127.7,11.4 L127.7,5.7 C127.7,5.4 127.8,5.2 128,5.1 C128.2,4.9 128.4,4.8 128.6,4.8 C128.9,4.8 129.1,4.9 129.2,5.1 C129.4,5.3 129.5,5.5 129.5,5.7 L129.5,14.3 C129.5,14.5 129.4,14.8 129.2,14.9 C129,15.1 128.8,15.2 128.6,15.2 C128.4,15.2 128.1,15.1 128,14.9 C127.8,14.7 127.7,14.5 127.7,14.3 L127.7,13.6 L126.1,14.6 C125.5,15 124.9,15.2 124.2,15.2 L123.4,15.2 C122.7,15.2 122,14.9 121.5,14.4 C121,13.9 120.7,13.3 120.7,12.5 L120.4,5.7 C120.4,5.5 120.5,5.3 120.7,5.1 C120.9,4.9 121.1,4.8 121.3,4.8 C121.5,4.8 121.8,4.9 121.9,5.1 C122.1,5.3 122.2,5.5 122.2,5.7 L122.4,12.4 C122.4,13 122.8,13.4 123.5,13.4 L124.7,13.4 L124.7,13.3 Z" id="Shape"></path>
                    <path d="M133.7,14.2 L133.7,5.6 C133.7,5.3 133.8,5.1 134,5 C134.2,4.8 134.4,4.7 134.6,4.7 C134.9,4.7 135.1,4.8 135.2,5 C135.4,5.2 135.5,5.4 135.5,5.7 L135.5,6.8 L137,5.5 C137.6,5 138.2,4.7 138.8,4.7 L140.1,4.7 C140.8,4.7 141.5,5 142,5.5 C142.5,6 142.8,6.7 142.8,7.4 L142.8,7.9 C142.8,8.2 142.7,8.4 142.5,8.6 C142.3,8.8 142.1,8.9 141.9,8.9 C141.6,8.9 141.4,8.8 141.3,8.6 C141.1,8.4 141,8.2 141,8 L141,7.5 C141,7.2 140.9,7 140.7,6.9 C140.5,6.7 140.3,6.6 140.1,6.6 L138.9,6.6 C138.6,6.6 138.4,6.7 138.1,7 L135.5,9.2 L135.5,14.2 C135.5,14.5 135.4,14.7 135.2,14.8 C135,15 134.8,15.1 134.6,15.1 C134.3,15.1 134.1,15 134,14.8 C133.8,14.7 133.7,14.4 133.7,14.2 Z" id="Shape"></path>
                    <path d="M162.8,4.7 L166.9,4.7 C167.5,4.7 168.1,4.9 168.6,5.3 C169.1,5.7 169.3,6.1 169.3,6.4 C169.3,6.7 169.2,6.9 169,7 C168.8,7.2 168.6,7.2 168.4,7.2 C168.1,7.2 167.9,7.1 167.6,6.8 C167.3,6.5 167.1,6.4 166.9,6.4 L162.8,6.4 C162.4,6.4 162.2,6.6 162.2,6.9 C162.2,7.1 162.3,7.3 162.6,7.4 L167.4,9.5 C167.9,9.7 168.3,10.1 168.6,10.5 C168.9,11 169.1,11.5 169.1,12.1 C169.1,12.9 168.8,13.5 168.3,14.1 C167.8,14.7 167.1,14.9 166.4,14.9 L162.7,14.9 C162.1,14.9 161.5,14.7 160.9,14.3 C160.4,13.9 160.1,13.6 160.1,13.2 C160.1,13 160.2,12.8 160.4,12.6 C160.6,12.4 160.8,12.3 161.1,12.3 C161.3,12.3 161.6,12.4 161.8,12.7 C162.1,13 162.4,13.1 162.9,13.1 L166.3,13.1 C166.6,13.1 166.8,13 167,12.8 C167.2,12.6 167.3,12.4 167.3,12.1 C167.3,11.7 167.1,11.4 166.7,11.2 L161.9,9 C161.4,8.8 161.1,8.5 160.8,8.1 C160.5,7.7 160.4,7.3 160.4,6.9 C160.4,6.3 160.6,5.7 161.1,5.2 C161.6,5 162.1,4.7 162.8,4.7 Z" id="Shape"></path>
                    <path d="M182.6,8 L182.6,11.8 C182.6,12.6 182.2,13.4 181.5,14 C180.8,14.6 180,15 179.1,15 L177,15 C176.2,15 175.4,14.7 174.6,14 C173.8,13.3 173.5,12.6 173.5,11.8 L173.5,8 C173.5,7.2 173.9,6.5 174.6,5.8 C175.3,5.1 176.1,4.8 177,4.8 L179.1,4.8 C179.9,4.8 180.7,5.1 181.5,5.8 C182.3,6.5 182.6,7.2 182.6,8 Z M175.3,8.1 L175.3,11.8 C175.3,12.1 175.4,12.4 175.7,12.6 L176.4,13.2 C176.6,13.3 176.8,13.4 177,13.4 L179.1,13.4 C179.4,13.4 179.7,13.3 179.9,13.1 L180.4,12.6 C180.6,12.4 180.7,12.2 180.7,11.9 L180.7,8.2 C180.7,7.8 180.6,7.6 180.4,7.4 L179.8,6.9 C179.6,6.7 179.3,6.6 179,6.6 L177.1,6.6 C176.7,6.6 176.4,6.7 176.2,6.9 L175.6,7.4 C175.5,7.5 175.3,7.8 175.3,8.1 Z" id="Shape"></path>
                    <path d="M195,15.1 L191.1,15.1 C190.4,15.1 189.8,14.9 189.4,14.5 L187.6,13 C187,12.5 186.8,11.9 186.8,11.1 L186.8,8.7 C186.8,7.9 187.1,7.3 187.7,6.7 L189.3,5.3 C189.8,4.9 190.4,4.7 190.9,4.7 L194.9,4.7 C195.2,4.7 195.4,4.8 195.5,5 C195.7,5.2 195.8,5.4 195.8,5.6 C195.8,5.9 195.7,6.1 195.5,6.2 C195.3,6.4 195.1,6.5 194.9,6.5 L191,6.5 C190.8,6.5 190.5,6.6 190.3,6.8 L188.8,8 C188.6,8.2 188.4,8.5 188.4,8.8 L188.4,11 C188.4,11.2 188.5,11.4 188.7,11.6 L190.3,13 C190.5,13.2 190.8,13.3 191.1,13.3 L194.8,13.3 C195,13.3 195.3,13.4 195.4,13.6 C195.6,13.8 195.7,14 195.7,14.2 C195.7,14.5 195.6,14.7 195.4,14.8 C195.5,15 195.3,15.1 195,15.1 Z" id="Shape"></path>
                    <path d="M200.1,14.2 L200.1,1.7 C200.1,1.4 200.2,1.2 200.4,1 C200.6,0.8 200.8,0.7 201,0.7 C201.3,0.7 201.5,0.8 201.6,1 C201.8,1.2 201.9,1.4 201.9,1.7 L201.9,9.1 L206.8,5 C207,4.8 207.2,4.7 207.5,4.7 C207.8,4.7 208,4.8 208.1,5 C208.3,5.2 208.4,5.4 208.4,5.7 C208.4,6 208.3,6.2 208.1,6.3 L204.3,9.5 L209,13.6 C209.2,13.8 209.3,13.9 209.3,14.2 C209.3,14.4 209.2,14.6 209,14.8 C208.8,15 208.6,15.1 208.4,15.1 C208.1,15.1 207.9,15 207.7,14.9 L202.9,10.7 L202,11.5 L202,14.2 C202,14.5 201.9,14.7 201.7,14.8 C201.5,15 201.3,15.1 201.1,15.1 C200.8,15.1 200.6,15 200.5,14.8 C200.2,14.7 200.1,14.4 200.1,14.2 Z" id="Shape"></path>
                    <path d="M215.9,4.7 L220,4.7 C220.6,4.7 221.2,4.9 221.7,5.3 C222.2,5.7 222.4,6.1 222.4,6.4 C222.4,6.7 222.3,6.9 222.1,7 C221.9,7.2 221.7,7.2 221.5,7.2 C221.2,7.2 221,7.1 220.7,6.8 C220.4,6.5 220.2,6.4 220,6.4 L216,6.4 C215.6,6.4 215.4,6.6 215.4,6.9 C215.4,7.1 215.5,7.3 215.8,7.4 L220.6,9.5 C221.1,9.7 221.5,10.1 221.8,10.5 C222.1,11 222.3,11.5 222.3,12.1 C222.3,12.9 222,13.5 221.5,14.1 C221,14.7 220.3,14.9 219.6,14.9 L216,14.9 C215.4,14.9 214.8,14.7 214.2,14.3 C213.7,13.9 213.4,13.6 213.4,13.2 C213.4,13 213.5,12.8 213.7,12.6 C213.9,12.4 214.1,12.3 214.4,12.3 C214.6,12.3 214.9,12.4 215.1,12.7 C215.4,13 215.7,13.1 216.2,13.1 L219.6,13.1 C219.9,13.1 220.1,13 220.3,12.8 C220.5,12.6 220.6,12.4 220.6,12.1 C220.6,11.7 220.4,11.4 220,11.2 L215.2,9 C214.7,8.8 214.4,8.5 214.1,8.1 C213.8,7.7 213.7,7.3 213.7,6.9 C213.7,6.3 213.9,5.7 214.4,5.2 C214.7,5 215.3,4.7 215.9,4.7 Z" id="Shape"></path>
                    <path d="M242.7,8.6 L246.2,8.6 C246.4,8.6 246.7,8.6 247,8.7 L247,7.4 C247,7.1 246.9,6.9 246.7,6.8 C246.5,6.6 246.3,6.5 246.1,6.5 L242.7,6.5 C242.5,6.5 242.2,6.4 242.1,6.2 C241.9,6 241.8,5.8 241.8,5.6 C241.8,5.3 241.9,5.1 242.1,5 C242.3,4.8 242.5,4.7 242.7,4.7 L246.1,4.7 C246.8,4.7 247.5,5 248,5.5 C248.5,6 248.8,6.7 248.8,7.4 L249,14.2 C249,14.5 248.9,14.7 248.7,14.8 C248.5,15 248.3,15.1 248.1,15.1 C247.8,15.1 247.6,15 247.4,14.8 C247.2,14.6 247.1,14.4 247.1,14.2 L245.6,15.1 L242.5,15.1 C241.7,15.1 241.1,14.8 240.6,14.3 C240.1,13.8 239.8,13.1 239.8,12.4 L239.8,11.3 C239.8,10.5 240.1,9.9 240.6,9.4 C241.3,8.9 241.9,8.6 242.7,8.6 Z M247.2,12.1 L247.1,11.3 C247.1,11 247,10.8 246.8,10.7 C246.6,10.6 246.4,10.4 246.2,10.4 L242.6,10.4 C242.3,10.4 242.1,10.5 242,10.7 C241.8,10.9 241.7,11.1 241.7,11.3 L241.7,12.3 C241.7,12.5 241.8,12.8 242,12.9 C242.2,13.1 242.4,13.2 242.6,13.2 L245.1,13.2 L247.2,12.1 Z" id="Shape"></path>
                    <path d="M253.3,14.2 L253.3,5.6 C253.3,5.3 253.4,5.1 253.6,5 C253.8,4.8 254,4.7 254.2,4.7 C254.5,4.7 254.7,4.8 254.8,5 C255,5.2 255.1,5.4 255.1,5.7 L255.1,6.8 L256.6,5.5 C257.2,5 257.8,4.7 258.4,4.7 L259.7,4.7 C260.4,4.7 261.1,5 261.6,5.5 C262.1,6 262.4,6.7 262.4,7.4 L262.4,7.9 C262.4,8.2 262.3,8.4 262.1,8.6 C261.9,8.8 261.7,8.9 261.5,8.9 C261.2,8.9 261,8.8 260.9,8.6 C260.7,8.4 260.6,8.2 260.6,8 L260.6,7.5 C260.6,7.2 260.5,7 260.3,6.9 C260.1,6.7 259.9,6.6 259.7,6.6 L258.5,6.6 C258.2,6.6 258,6.7 257.7,7 L255.1,9.2 L255.1,14.2 C255.1,14.5 255,14.7 254.8,14.8 C254.6,15 254.4,15.1 254.2,15.1 C253.9,15.1 253.7,15 253.6,14.8 C253.4,14.7 253.3,14.4 253.3,14.2 Z" id="Shape"></path>
                    <path d="M275.6,8.1 L275.6,10.3 C275.6,10.5 275.5,10.8 275.3,10.9 C275.1,11.1 274.9,11.2 274.7,11.2 L268.3,11.2 L268.3,11.7 C268.3,12 268.4,12.3 268.7,12.5 L269.2,12.9 C269.5,13.1 269.8,13.2 270,13.2 L274.6,13.2 C274.8,13.2 275.1,13.3 275.2,13.5 C275.4,13.7 275.5,13.9 275.5,14.1 C275.5,14.3 275.4,14.6 275.2,14.7 C275,14.9 274.8,15 274.6,15 L270,15 C269.7,15 269.4,14.9 269,14.8 C268.7,14.7 268.4,14.5 268.2,14.4 L267.4,13.7 C267.1,13.5 266.9,13.2 266.8,12.9 C266.6,12.5 266.5,12.2 266.5,11.9 L266.5,7.8 C266.5,7.6 266.6,7.2 266.8,6.8 C267,6.4 267.2,6.1 267.5,5.9 L268.3,5.3 C268.8,4.9 269.3,4.7 269.9,4.7 L272.4,4.7 C273,4.7 273.6,5 274.2,5.5 L274.9,6.1 C275.4,6.6 275.6,7.3 275.6,8.1 Z M268.4,8 L268.4,9.4 L273.9,9.4 L273.9,8.1 C273.9,7.8 273.8,7.5 273.6,7.3 L273.1,6.8 C272.8,6.6 272.6,6.5 272.4,6.5 L270,6.5 C269.7,6.5 269.5,6.6 269.2,6.8 L268.7,7.2 C268.5,7.5 268.4,7.7 268.4,8 Z" id="Shape"></path>
                    <path d="M295.8,8.6 L299.3,8.6 C299.5,8.6 299.8,8.6 300.1,8.7 L300.1,7.4 C300.1,7.1 300,6.9 299.8,6.8 C299.6,6.6 299.4,6.5 299.2,6.5 L295.8,6.5 C295.6,6.5 295.3,6.4 295.2,6.2 C295,6 294.9,5.8 294.9,5.6 C294.9,5.3 295,5.1 295.2,5 C295.4,4.8 295.6,4.7 295.8,4.7 L299.2,4.7 C299.9,4.7 300.6,5 301.1,5.5 C301.6,6 301.9,6.7 301.9,7.4 L302.1,14.2 C302.1,14.5 302,14.7 301.8,14.8 C301.6,15 301.4,15.1 301.2,15.1 C300.9,15.1 300.7,15 300.5,14.8 C300.3,14.6 300.2,14.4 300.2,14.2 L298.7,15.1 L295.6,15.1 C294.8,15.1 294.2,14.8 293.7,14.3 C293.2,13.8 292.9,13.1 292.9,12.4 L292.9,11.3 C292.9,10.5 293.2,9.9 293.7,9.4 C294.4,8.9 295.1,8.6 295.8,8.6 Z M300.3,12.1 L300.2,11.3 C300.2,11 300.1,10.8 299.9,10.7 C299.7,10.6 299.5,10.4 299.3,10.4 L295.7,10.4 C295.4,10.4 295.2,10.5 295.1,10.7 C294.9,10.9 294.8,11.1 294.8,11.3 L294.8,12.3 C294.8,12.5 294.9,12.8 295.1,12.9 C295.3,13.1 295.5,13.2 295.7,13.2 L298.2,13.2 L300.3,12.1 Z" id="Shape"></path>
                    <path d="M313.7,15.1 L308.2,15.1 C307.9,15.1 307.7,15 307.6,14.8 C307.4,14.6 307.3,14.4 307.3,14.2 C307.3,14 307.4,13.7 307.6,13.6 C307.8,13.4 308,13.3 308.2,13.3 L310,13.3 L310,2.6 L308.2,2.6 C307.9,2.6 307.7,2.5 307.6,2.3 C307.4,2.1 307.3,1.9 307.3,1.7 C307.3,1.4 307.4,1.2 307.6,1.1 C307.8,0.9 308,0.8 308.2,0.8 L311,0.8 C311.2,0.8 311.5,0.9 311.6,1.1 C311.8,1.3 311.9,1.5 311.9,1.7 L311.9,13.2 L313.7,13.2 C313.9,13.2 314.2,13.3 314.3,13.5 C314.5,13.7 314.6,13.9 314.6,14.1 C314.6,14.4 314.5,14.6 314.3,14.7 C314.2,15 314,15.1 313.7,15.1 Z" id="Shape"></path>
                    <path d="M325.2,8.7 L325.2,10.8 L326.4,12.9 L327,10.8 L327.2,5.5 C327.2,5.3 327.3,5 327.5,4.9 C327.7,4.7 327.9,4.6 328.1,4.6 C328.4,4.6 328.6,4.7 328.7,4.9 C328.9,5.1 329,5.3 329,5.5 L328.8,11.1 L327.8,14.3 C327.7,14.7 327.4,15 327,15 L326,15 C325.7,15 325.4,14.8 325.2,14.5 L324.2,12.8 L323.2,14.5 C323,14.8 322.7,15 322.4,15 L321.5,15 C321.3,15 321.1,14.9 320.9,14.8 C320.7,14.7 320.6,14.5 320.6,14.4 L319.7,11.1 L319.5,5.6 C319.5,5.4 319.6,5.2 319.8,5 C320,4.8 320.2,4.7 320.5,4.7 C320.7,4.7 320.9,4.8 321.1,5 C321.3,5.2 321.4,5.4 321.4,5.6 L321.6,10.9 L322.2,12.9 L323.5,10.8 L323.5,8.7 C323.5,8.5 323.6,8.2 323.8,8.1 C324,8 324.2,7.8 324.5,7.8 C324.7,7.8 325,7.9 325.1,8.1 C325.1,8.3 325.2,8.5 325.2,8.7 Z" id="Shape"></path>
                    <path d="M335.7,8.6 L339.2,8.6 C339.4,8.6 339.7,8.6 340,8.7 L340,7.4 C340,7.1 339.9,6.9 339.7,6.8 C339.5,6.6 339.3,6.5 339.1,6.5 L335.7,6.5 C335.5,6.5 335.2,6.4 335.1,6.2 C334.9,6 334.8,5.8 334.8,5.6 C334.8,5.3 334.9,5.1 335.1,5 C335.3,4.8 335.5,4.7 335.7,4.7 L339.1,4.7 C339.8,4.7 340.5,5 341,5.5 C341.5,6 341.8,6.7 341.8,7.4 L342,14.2 C342,14.5 341.9,14.7 341.7,14.8 C341.5,15 341.3,15.1 341.1,15.1 C340.8,15.1 340.6,15 340.4,14.8 C340.2,14.6 340.1,14.4 340.1,14.2 L338.6,15.1 L335.5,15.1 C334.7,15.1 334.1,14.8 333.6,14.3 C333.1,13.8 332.8,13.1 332.8,12.4 L332.8,11.3 C332.8,10.5 333.1,9.9 333.6,9.4 C334.3,8.9 334.9,8.6 335.7,8.6 Z M340.2,12.1 L340.1,11.3 C340.1,11 340,10.8 339.8,10.7 C339.6,10.6 339.4,10.4 339.2,10.4 L335.6,10.4 C335.3,10.4 335.1,10.5 335,10.7 C334.8,10.9 334.7,11.1 334.7,11.3 L334.7,12.3 C334.7,12.5 334.8,12.8 335,12.9 C335.2,13.1 335.4,13.2 335.6,13.2 L338.1,13.2 L340.2,12.1 Z" id="Shape"></path>
                    <path d="M355.4,7.4 L350.5,18.4 C350.3,18.8 350,19 349.6,19 L347.1,19 C346.8,19 346.6,18.9 346.5,18.7 C346.3,18.5 346.2,18.3 346.2,18.1 C346.2,17.8 346.3,17.6 346.5,17.5 C346.7,17.3 346.9,17.2 347.1,17.2 L349,17.2 L350.2,14.3 L349.8,14.3 C349.4,14.3 349.1,14.1 348.9,13.7 L346.2,7.4 L346.2,5.7 C346.2,5.4 346.3,5.2 346.5,5.1 C346.7,4.9 346.9,4.8 347.1,4.8 C347.4,4.8 347.6,4.9 347.7,5.1 C347.9,5.3 348,5.5 348,5.7 L348,7 L350.4,12.5 L351,12.5 L353.5,7 L353.5,5.6 C353.5,5.4 353.6,5.2 353.8,5 C354,4.8 354.2,4.7 354.4,4.7 C354.6,4.7 354.9,4.8 355,5 C355.2,5.2 355.3,5.4 355.3,5.6 L355.3,7.4 L355.4,7.4 Z" id="Shape"></path>
                    <path d="M362.1,4.7 L366.2,4.7 C366.8,4.7 367.4,4.9 367.9,5.3 C368.4,5.7 368.6,6.1 368.6,6.4 C368.6,6.7 368.5,6.9 368.3,7 C368.1,7.2 367.9,7.2 367.7,7.2 C367.4,7.2 367.2,7.1 366.9,6.8 C366.6,6.5 366.4,6.4 366.2,6.4 L362.1,6.4 C361.7,6.4 361.5,6.6 361.5,6.9 C361.5,7.1 361.6,7.3 361.9,7.4 L366.7,9.5 C367.2,9.7 367.6,10.1 367.9,10.5 C368.2,11 368.4,11.5 368.4,12.1 C368.4,12.9 368.1,13.5 367.6,14.1 C367.1,14.6 366.4,14.9 365.7,14.9 L362,14.9 C361.4,14.9 360.8,14.7 360.2,14.3 C359.7,13.9 359.4,13.6 359.4,13.2 C359.4,13 359.5,12.8 359.7,12.6 C359.9,12.4 360.1,12.3 360.4,12.3 C360.6,12.3 360.9,12.4 361.1,12.7 C361.4,13 361.7,13.1 362.2,13.1 L365.6,13.1 C365.9,13.1 366.1,13 366.3,12.8 C366.5,12.6 366.6,12.4 366.6,12.1 C366.6,11.7 366.4,11.4 366,11.2 L361.2,9 C360.7,8.8 360.4,8.5 360.1,8.1 C359.8,7.7 359.7,7.3 359.7,6.9 C359.7,6.3 359.9,5.7 360.4,5.2 C360.9,5 361.4,4.7 362.1,4.7 Z" id="Shape"></path>
                    <path d="M388.7,4.7 L392.8,4.7 C393.4,4.7 394,4.9 394.5,5.3 C395,5.7 395.2,6.1 395.2,6.4 C395.2,6.7 395.1,6.9 394.9,7 C394.7,7.2 394.5,7.2 394.3,7.2 C394,7.2 393.8,7.1 393.5,6.8 C393.2,6.5 393,6.4 392.8,6.4 L388.7,6.4 C388.3,6.4 388.1,6.6 388.1,6.9 C388.1,7.1 388.2,7.3 388.5,7.4 L393.3,9.5 C393.8,9.7 394.2,10.1 394.5,10.5 C394.8,11 395,11.5 395,12.1 C395,12.9 394.7,13.5 394.2,14.1 C393.7,14.6 393,14.9 392.3,14.9 L388.6,14.9 C388,14.9 387.4,14.7 386.8,14.3 C386.3,13.9 386,13.6 386,13.2 C386,13 386.1,12.8 386.3,12.6 C386.5,12.4 386.7,12.3 387,12.3 C387.2,12.3 387.5,12.4 387.7,12.7 C388,13 388.3,13.1 388.8,13.1 L392.2,13.1 C392.5,13.1 392.7,13 392.9,12.8 C393.1,12.6 393.2,12.4 393.2,12.1 C393.2,11.7 393,11.4 392.6,11.2 L387.8,9 C387.3,8.8 387,8.5 386.7,8.1 C386.4,7.7 386.3,7.3 386.3,6.9 C386.3,6.3 386.5,5.7 387,5.2 C387.5,5 388,4.7 388.7,4.7 Z" id="Shape"></path>
                    <path d="M406.7,15.1 L401.2,15.1 C400.9,15.1 400.7,15 400.6,14.8 C400.4,14.6 400.3,14.4 400.3,14.2 C400.3,14 400.4,13.7 400.6,13.6 C400.8,13.4 401,13.3 401.2,13.3 L403,13.3 L403,2.6 L401.2,2.6 C400.9,2.6 400.7,2.5 400.6,2.3 C400.4,2.1 400.3,1.9 400.3,1.7 C400.3,1.4 400.4,1.2 400.6,1.1 C400.8,0.9 401,0.8 401.2,0.8 L404,0.8 C404.2,0.8 404.5,0.9 404.6,1.1 C404.8,1.3 404.9,1.5 404.9,1.7 L404.9,13.2 L406.7,13.2 C406.9,13.2 407.2,13.3 407.3,13.5 C407.5,13.7 407.6,13.9 407.6,14.1 C407.6,14.4 407.5,14.6 407.3,14.7 C407.2,15 407,15.1 406.7,15.1 Z" id="Shape"></path>
                    <path d="M420,15.1 L414.5,15.1 C414.2,15.1 414,15 413.9,14.8 C413.7,14.6 413.6,14.4 413.6,14.2 C413.6,14 413.7,13.7 413.9,13.6 C414.1,13.4 414.3,13.3 414.5,13.3 L416.3,13.3 L416.3,6.6 L414.5,6.6 C414.2,6.6 414,6.5 413.9,6.3 C413.7,6.1 413.6,5.9 413.6,5.7 C413.6,5.4 413.7,5.2 413.9,5.1 C414.1,4.9 414.3,4.8 414.5,4.8 L417.3,4.8 C417.6,4.8 417.8,4.9 417.9,5.1 C418.1,5.3 418.2,5.5 418.2,5.7 L418.2,13.3 L420,13.3 C420.3,13.3 420.5,13.4 420.6,13.6 C420.8,13.8 420.9,14 420.9,14.2 C420.9,14.5 420.8,14.7 420.6,14.8 C420.5,15 420.3,15.1 420,15.1 Z M416.3,0 L417.2,0 C417.5,0 417.7,0.1 417.8,0.3 C418,0.5 418.1,0.7 418.1,0.9 L418.1,1.7 C418.1,2 418,2.2 417.8,2.3 C417.6,2.5 417.4,2.6 417.2,2.6 L416.2,2.6 C415.9,2.6 415.7,2.5 415.6,2.3 C415.4,2.1 415.3,1.9 415.3,1.7 L415.3,0.9 C415.3,0.6 415.4,0.4 415.6,0.3 C415.9,0.1 416.1,0 416.3,0 Z" id="Shape"></path>
                    <path d="M431.7,19 L427.8,19 C427.5,19 427.3,18.9 427.2,18.7 C427,18.5 426.9,18.3 426.9,18.1 C426.9,17.8 427,17.6 427.2,17.5 C427.4,17.3 427.6,17.2 427.8,17.2 L431.7,17.2 C431.9,17.2 432.2,17.1 432.4,16.9 L433,16.4 C433.2,16.2 433.3,16 433.3,15.8 L433.3,13 C432.5,13.9 431.6,14.3 430.8,14.3 L429.4,14.3 C428.7,14.3 428,14.1 427.5,13.6 L426.8,13 C426.6,12.8 426.4,12.5 426.2,12.2 C426,11.8 426,11.5 426,11.1 L426,8.1 C426,7.7 426.1,7.3 426.2,6.9 C426.4,6.5 426.6,6.2 426.8,6.1 L427.5,5.5 C428,5 428.7,4.8 429.4,4.8 L430.7,4.8 C431.4,4.8 432.1,5.1 432.6,5.6 L433.2,6.1 L433.2,5.7 C433.2,5.5 433.3,5.2 433.5,5.1 C433.7,4.9 433.9,4.8 434.1,4.8 C434.4,4.8 434.6,4.9 434.7,5.1 C434.9,5.3 435,5.5 435,5.7 L435,15.8 C435,16.6 434.7,17.2 434.1,17.8 L433.4,18.4 C433.2,18.6 433,18.7 432.6,18.8 C432.3,18.9 432,19 431.7,19 Z M430.7,6.5 L429.5,6.5 C429.2,6.5 429,6.6 428.7,6.8 L428.1,7.3 C427.9,7.5 427.8,7.7 427.8,8 L427.8,11 C427.8,11.2 427.9,11.5 428.2,11.7 L428.8,12.2 C429,12.4 429.2,12.4 429.4,12.4 L430.9,12.4 C431.1,12.4 431.4,12.3 431.6,12.1 L433,10.9 C433.2,10.7 433.3,10.5 433.3,10.2 L433.3,8.8 C433.3,8.5 433.2,8.2 432.9,8 L431.4,6.7 C431.2,6.6 431,6.5 430.7,6.5 Z" id="Shape"></path>
                    <path d="M439.3,14.2 L439.3,1.7 C439.3,1.5 439.4,1.2 439.6,1.1 C439.8,0.9 440,0.8 440.2,0.8 C440.4,0.8 440.7,0.9 440.8,1.1 C441,1.3 441.1,1.5 441.1,1.7 L441.1,6.3 L442.6,5.4 C443.3,5 443.8,4.8 444.4,4.8 L445.5,4.8 C446.2,4.8 446.9,5.1 447.4,5.6 C447.9,6.1 448.2,6.8 448.2,7.5 L448.4,14.3 C448.4,14.6 448.3,14.8 448.1,14.9 C447.9,15.1 447.7,15.2 447.5,15.2 C447.3,15.2 447,15.1 446.9,14.9 C446.8,14.7 446.6,14.5 446.6,14.3 L446.4,7.5 C446.4,7.3 446.3,7 446.1,6.9 C445.9,6.7 445.7,6.6 445.5,6.6 L444.5,6.6 C444.3,6.6 444,6.7 443.7,6.9 L441.1,8.6 L441.1,14.3 C441.1,14.6 441,14.8 440.8,14.9 C440.6,15.1 440.4,15.2 440.2,15.2 C440,15.2 439.7,15.1 439.6,14.9 C439.4,14.7 439.3,14.4 439.3,14.2 Z" id="Shape"></path>
                    <path d="M458.9,15.1 L457.1,15.1 C456.4,15.1 455.7,14.8 455.2,14.3 C454.7,13.8 454.4,13.1 454.4,12.4 L454.4,6.5 L453.5,6.5 C453.2,6.5 453,6.4 452.9,6.2 C452.7,6 452.6,5.8 452.6,5.6 C452.6,5.3 452.7,5.1 452.9,5 C453.1,4.8 453.3,4.7 453.5,4.7 L454.4,4.7 L454.4,2.5 C454.4,2.2 454.5,2 454.7,1.9 C454.9,1.7 455.1,1.6 455.3,1.6 C455.5,1.6 455.7,1.7 455.9,1.9 C456.1,2.1 456.2,2.3 456.2,2.5 L456.2,4.7 L459.8,4.7 C460,4.7 460.3,4.8 460.4,5 C460.6,5.2 460.7,5.4 460.7,5.6 C460.7,5.9 460.6,6.1 460.4,6.2 C460.2,6.4 460,6.5 459.8,6.5 L456.1,6.5 L456.1,12.4 C456.1,12.6 456.2,12.9 456.4,13 C456.6,13.2 456.8,13.3 457,13.3 L458.8,13.3 C459.3,13.3 459.6,13 459.8,12.5 C460,12 460.3,11.7 460.7,11.7 C461,11.7 461.2,11.8 461.3,12 C461.5,12.2 461.6,12.4 461.6,12.7 C461.6,13.2 461.3,13.8 460.8,14.3 C460.4,14.8 459.7,15.1 458.9,15.1 Z" id="Shape"></path>
                    <path d="M473.2,15.1 L467.7,15.1 C467.4,15.1 467.2,15 467.1,14.8 C466.9,14.6 466.8,14.4 466.8,14.2 C466.8,14 466.9,13.7 467.1,13.6 C467.3,13.4 467.5,13.3 467.7,13.3 L469.5,13.3 L469.5,2.6 L467.7,2.6 C467.4,2.6 467.2,2.5 467.1,2.3 C466.9,2.1 466.8,1.9 466.8,1.7 C466.8,1.4 466.9,1.2 467.1,1.1 C467.3,0.9 467.5,0.8 467.7,0.8 L470.5,0.8 C470.7,0.8 471,0.9 471.1,1.1 C471.3,1.3 471.4,1.5 471.4,1.7 L471.4,13.2 L473.2,13.2 C473.4,13.2 473.7,13.3 473.8,13.5 C474,13.7 474.1,13.9 474.1,14.1 C474.1,14.4 474,14.6 473.8,14.7 C473.6,15 473.4,15.1 473.2,15.1 Z" id="Shape"></path>
                    <path d="M488.3,7.4 L483.4,18.4 C483.2,18.8 482.9,19 482.5,19 L480,19 C479.7,19 479.5,18.9 479.4,18.7 C479.2,18.5 479.1,18.3 479.1,18.1 C479.1,17.8 479.2,17.6 479.4,17.5 C479.6,17.3 479.8,17.2 480,17.2 L481.9,17.2 L483.1,14.3 L482.7,14.3 C482.3,14.3 482,14.1 481.8,13.7 L479.1,7.4 L479.1,5.7 C479.1,5.4 479.2,5.2 479.4,5.1 C479.6,4.9 479.8,4.8 480,4.8 C480.3,4.8 480.5,4.9 480.6,5.1 C480.8,5.3 480.9,5.5 480.9,5.7 L480.9,7 L483.3,12.5 L483.9,12.5 L486.4,7 L486.4,5.6 C486.4,5.4 486.5,5.2 486.7,5 C486.9,4.8 487.1,4.7 487.3,4.7 C487.5,4.7 487.8,4.8 487.9,5 C488.1,5.2 488.2,5.4 488.2,5.6 L488.2,7.4 L488.3,7.4 Z" id="Shape"></path>
                    <path d="M0.8,40.6 L0.8,32 C0.8,31.7 0.9,31.5 1.1,31.4 C1.3,31.2 1.5,31.1 1.7,31.1 C2,31.1 2.2,31.2 2.3,31.4 C2.5,31.6 2.6,31.8 2.6,32.1 L2.6,33.2 L4.1,31.9 C4.7,31.4 5.3,31.1 5.9,31.1 L7.2,31.1 C7.9,31.1 8.6,31.4 9.1,31.9 C9.6,32.4 9.9,33.1 9.9,33.8 L9.9,34.3 C9.9,34.6 9.8,34.8 9.6,35 C9.4,35.2 9.2,35.3 9,35.3 C8.7,35.3 8.5,35.2 8.4,35 C8.2,34.8 8.1,34.6 8.1,34.4 L8.1,33.9 C8.1,33.6 8,33.4 7.8,33.3 C7.6,33.1 7.4,33 7.2,33 L6,33 C5.7,33 5.5,33.1 5.2,33.4 L2.6,35.6 L2.6,40.6 C2.6,40.9 2.5,41.1 2.3,41.2 C2.1,41.4 1.9,41.5 1.7,41.5 C1.4,41.5 1.2,41.4 1.1,41.2 C0.9,41.1 0.8,40.8 0.8,40.6 Z" id="Shape"></path>
                    <path d="M23.2,34.4 L23.2,38.2 C23.2,39 22.8,39.8 22.1,40.4 C21.4,41 20.6,41.4 19.7,41.4 L17.6,41.4 C16.8,41.4 16,41.1 15.2,40.4 C14.4,39.7 14.1,39 14.1,38.2 L14.1,34.4 C14.1,33.6 14.5,32.9 15.2,32.2 C15.9,31.5 16.7,31.2 17.6,31.2 L19.7,31.2 C20.5,31.2 21.3,31.5 22.1,32.2 C22.9,32.9 23.2,33.6 23.2,34.4 Z M15.9,34.5 L15.9,38.2 C15.9,38.5 16,38.8 16.3,39 L17,39.6 C17.2,39.7 17.4,39.8 17.6,39.8 L19.7,39.8 C20,39.8 20.3,39.7 20.5,39.5 L21,39 C21.2,38.8 21.3,38.6 21.3,38.3 L21.3,34.6 C21.3,34.2 21.2,34 21,33.8 L20.4,33.3 C20.2,33.1 19.9,33 19.6,33 L17.7,33 C17.3,33 17,33.1 16.8,33.3 L16.2,33.8 C16,33.9 15.9,34.2 15.9,34.5 Z" id="Shape"></path>
                    <path d="M33.7,41.5 L31.9,41.5 C31.2,41.5 30.5,41.2 30,40.7 C29.5,40.2 29.2,39.5 29.2,38.8 L29.2,32.9 L28.3,32.9 C28,32.9 27.8,32.8 27.7,32.6 C27.5,32.4 27.4,32.2 27.4,32 C27.4,31.7 27.5,31.5 27.7,31.4 C27.9,31.2 28.1,31.1 28.3,31.1 L29.2,31.1 L29.2,28.9 C29.2,28.6 29.3,28.4 29.5,28.3 C29.7,28.1 29.9,28 30.1,28 C30.3,28 30.5,28.1 30.7,28.3 C30.9,28.5 31,28.7 31,28.9 L31,31.1 L34.6,31.1 C34.8,31.1 35.1,31.2 35.2,31.4 C35.4,31.6 35.5,31.8 35.5,32 C35.5,32.3 35.4,32.5 35.2,32.6 C35,32.8 34.8,32.9 34.6,32.9 L31,32.9 L31,38.8 C31,39 31.1,39.3 31.3,39.4 C31.5,39.6 31.7,39.7 31.9,39.7 L33.7,39.7 C34.2,39.7 34.5,39.4 34.7,38.9 C34.9,38.4 35.2,38.1 35.6,38.1 C35.9,38.1 36.1,38.2 36.2,38.4 C36.4,38.6 36.5,38.8 36.5,39.1 C36.5,39.6 36.2,40.2 35.7,40.7 C35.2,41.2 34.5,41.5 33.7,41.5 Z" id="Shape"></path>
                    <path d="M43.3,35 L46.8,35 C47,35 47.3,35 47.6,35.1 L47.6,33.8 C47.6,33.5 47.5,33.3 47.3,33.2 C47.1,33 46.9,32.9 46.7,32.9 L43.3,32.9 C43.1,32.9 42.8,32.8 42.7,32.6 C42.5,32.4 42.4,32.2 42.4,32 C42.4,31.7 42.5,31.5 42.7,31.4 C42.9,31.2 43.1,31.1 43.3,31.1 L46.7,31.1 C47.4,31.1 48.1,31.4 48.6,31.9 C49.1,32.4 49.4,33.1 49.4,33.8 L49.6,40.6 C49.6,40.9 49.5,41.1 49.3,41.2 C49.1,41.4 48.9,41.5 48.7,41.5 C48.4,41.5 48.2,41.4 48,41.2 C47.8,41 47.7,40.8 47.7,40.6 L46.2,41.5 L43.1,41.5 C42.3,41.5 41.7,41.2 41.2,40.7 C40.7,40.2 40.4,39.5 40.4,38.8 L40.4,37.7 C40.4,36.9 40.7,36.3 41.2,35.8 C42,35.3 42.6,35 43.3,35 Z M47.9,38.5 L47.8,37.7 C47.8,37.4 47.7,37.2 47.5,37.1 C47.3,37 47.1,36.8 46.9,36.8 L43.3,36.8 C43,36.8 42.8,36.9 42.7,37.1 C42.5,37.3 42.4,37.5 42.4,37.7 L42.4,38.7 C42.4,38.9 42.5,39.2 42.7,39.3 C42.9,39.5 43.1,39.6 43.3,39.6 L45.8,39.6 L47.9,38.5 Z" id="Shape"></path>
                    <path d="M60.3,41.5 L58.5,41.5 C57.8,41.5 57.1,41.2 56.6,40.7 C56.1,40.2 55.8,39.5 55.8,38.8 L55.8,32.9 L54.9,32.9 C54.6,32.9 54.4,32.8 54.3,32.6 C54.1,32.4 54,32.2 54,32 C54,31.7 54.1,31.5 54.3,31.4 C54.5,31.2 54.7,31.1 54.9,31.1 L55.8,31.1 L55.8,28.9 C55.8,28.6 55.9,28.4 56.1,28.3 C56.3,28.1 56.5,28 56.7,28 C56.9,28 57.1,28.1 57.3,28.3 C57.5,28.5 57.6,28.7 57.6,28.9 L57.6,31.1 L61.2,31.1 C61.4,31.1 61.7,31.2 61.8,31.4 C62,31.6 62.1,31.8 62.1,32 C62.1,32.3 62,32.5 61.8,32.6 C61.6,32.8 61.4,32.9 61.2,32.9 L57.5,32.9 L57.5,38.8 C57.5,39 57.6,39.3 57.8,39.4 C58,39.6 58.2,39.7 58.4,39.7 L60.2,39.7 C60.7,39.7 61,39.4 61.2,38.9 C61.4,38.4 61.7,38.1 62.1,38.1 C62.4,38.1 62.6,38.2 62.7,38.4 C62.9,38.6 63,38.8 63,39.1 C63,39.6 62.7,40.2 62.2,40.7 C61.7,41.2 61.1,41.5 60.3,41.5 Z" id="Shape"></path>
                    <path d="M76.3,34.5 L76.3,36.7 C76.3,36.9 76.2,37.2 76,37.3 C75.8,37.5 75.6,37.6 75.4,37.6 L69,37.6 L69,38.1 C69,38.4 69.1,38.7 69.4,38.9 L69.9,39.3 C70.2,39.5 70.5,39.6 70.7,39.6 L75.3,39.6 C75.5,39.6 75.8,39.7 75.9,39.9 C76.1,40.1 76.2,40.3 76.2,40.5 C76.2,40.7 76.1,41 75.9,41.1 C75.7,41.3 75.5,41.4 75.3,41.4 L70.5,41.4 C70.2,41.4 69.9,41.3 69.5,41.2 C69.2,41.1 68.9,40.9 68.7,40.8 L67.9,40.1 C67.6,39.9 67.4,39.6 67.3,39.3 C67.1,38.9 67,38.6 67,38.3 L67,34.2 C67,34 67.1,33.6 67.3,33.2 C67.5,32.8 67.7,32.5 68,32.3 L68.8,31.7 C69.3,31.3 69.8,31.1 70.4,31.1 L72.9,31.1 C73.5,31.1 74.1,31.4 74.7,31.9 L75.4,32.5 C76.1,33 76.3,33.7 76.3,34.5 Z M69.1,34.4 L69.1,35.8 L74.6,35.8 L74.6,34.5 C74.6,34.2 74.5,33.9 74.3,33.7 L73.8,33.2 C73.5,33 73.3,32.9 73.1,32.9 L70.8,32.9 C70.5,32.9 70.3,33 70,33.2 L69.5,33.6 C69.2,33.9 69.1,34.1 69.1,34.4 Z" id="Shape"></path>
                    <path d="M87.8,32.4 L87.8,28.1 C87.8,27.8 87.9,27.6 88.1,27.5 C88.3,27.3 88.5,27.2 88.7,27.2 C89,27.2 89.2,27.3 89.3,27.5 C89.5,27.7 89.6,27.9 89.6,28.1 L89.6,40.6 C89.6,40.9 89.5,41.1 89.3,41.2 C89.1,41.4 88.9,41.5 88.7,41.5 C88.4,41.5 88.2,41.4 88.1,41.2 C87.9,41 87.8,40.8 87.8,40.6 L87.8,40.2 C86.9,41.1 86.1,41.5 85.3,41.5 L83.8,41.5 C83.2,41.5 82.6,41.2 82,40.7 L81.2,40.1 C81,39.9 80.9,39.7 80.7,39.3 C80.5,38.9 80.5,38.6 80.5,38.2 L80.5,34.5 C80.5,34.1 80.6,33.7 80.8,33.3 C81,32.9 81.2,32.6 81.4,32.4 L82.1,31.8 C82.6,31.3 83.3,31.1 84,31.1 L85.3,31.1 C86,31.1 86.7,31.4 87.2,31.9 L87.8,32.4 Z M85.2,32.9 L83.9,32.9 C83.6,32.9 83.4,33 83.2,33.2 L82.6,33.7 C82.4,33.9 82.3,34.1 82.3,34.4 L82.3,38.2 C82.3,38.5 82.4,38.7 82.7,38.9 L83.3,39.4 C83.5,39.6 83.7,39.6 83.9,39.6 L85.4,39.6 C85.6,39.6 85.8,39.5 86.1,39.3 L87.5,38.1 C87.7,37.9 87.9,37.6 87.9,37.3 L87.9,35.3 C87.9,34.9 87.8,34.5 87.5,34.3 L86,33 C85.7,33 85.5,32.9 85.2,32.9 Z" id="Shape"></path>
                    <path d="M109.6,31.1 L113.7,31.1 C114.3,31.1 114.9,31.3 115.4,31.7 C115.9,32.1 116.1,32.5 116.1,32.8 C116.1,33.1 116,33.3 115.8,33.4 C115.6,33.6 115.4,33.6 115.2,33.6 C114.9,33.6 114.7,33.5 114.4,33.2 C114.1,32.9 113.9,32.8 113.7,32.8 L109.6,32.8 C109.2,32.8 109,33 109,33.3 C109,33.5 109.1,33.7 109.4,33.8 L114.2,35.9 C114.7,36.1 115.1,36.5 115.4,36.9 C115.7,37.4 115.9,37.9 115.9,38.5 C115.9,39.3 115.6,39.9 115.1,40.5 C114.6,41.1 113.9,41.3 113.2,41.3 L109.5,41.3 C108.9,41.3 108.3,41.1 107.7,40.7 C107.2,40.3 106.9,40 106.9,39.6 C106.9,39.4 107,39.2 107.2,39 C107.4,38.8 107.6,38.7 107.9,38.7 C108.1,38.7 108.4,38.8 108.6,39.1 C108.9,39.4 109.2,39.5 109.7,39.5 L113.1,39.5 C113.4,39.5 113.6,39.4 113.8,39.2 C114,39 114.1,38.8 114.1,38.5 C114.1,38.1 113.9,37.8 113.5,37.6 L108.7,35.4 C108.2,35.2 107.9,34.9 107.6,34.5 C107.3,34.1 107.2,33.7 107.2,33.3 C107.2,32.7 107.4,32.1 107.9,31.6 C108.4,31.4 109,31.1 109.6,31.1 Z" id="Shape"></path>
                    <path d="M129.5,34.4 L129.5,38.2 C129.5,39 129.1,39.8 128.4,40.4 C127.7,41 126.9,41.4 126,41.4 L123.9,41.4 C123.1,41.4 122.3,41.1 121.5,40.4 C120.7,39.7 120.4,39 120.4,38.2 L120.4,34.4 C120.4,33.6 120.8,32.9 121.5,32.2 C122.2,31.5 123,31.2 123.9,31.2 L126,31.2 C126.8,31.2 127.6,31.5 128.4,32.2 C129.2,32.9 129.5,33.6 129.5,34.4 Z M122.2,34.5 L122.2,38.2 C122.2,38.5 122.3,38.8 122.6,39 L123.3,39.6 C123.5,39.7 123.7,39.8 123.9,39.8 L126,39.8 C126.3,39.8 126.6,39.7 126.8,39.5 L127.3,39 C127.5,38.8 127.6,38.6 127.6,38.3 L127.6,34.6 C127.6,34.2 127.5,34 127.3,33.8 L126.7,33.3 C126.5,33.1 126.2,33 125.9,33 L124,33 C123.6,33 123.3,33.1 123.1,33.3 L122.5,33.8 C122.3,33.9 122.2,34.2 122.2,34.5 Z" id="Shape"></path>
                    <path d="M156.1,33.8 L151.2,44.8 C151,45.2 150.7,45.4 150.3,45.4 L147.8,45.4 C147.5,45.4 147.3,45.3 147.2,45.1 C147.1,44.9 146.9,44.7 146.9,44.5 C146.9,44.2 147,44 147.2,43.9 C147.4,43.7 147.6,43.6 147.8,43.6 L149.7,43.6 L150.9,40.7 L150.5,40.7 C150.1,40.7 149.8,40.5 149.6,40.1 L146.9,33.8 L146.9,32 C146.9,31.7 147,31.5 147.2,31.4 C147.4,31.2 147.6,31.1 147.8,31.1 C148.1,31.1 148.3,31.2 148.4,31.4 C148.6,31.6 148.7,31.8 148.7,32 L148.7,33.3 L151.1,38.8 L151.7,38.8 L154.2,33.3 L154.2,31.9 C154.2,31.7 154.3,31.5 154.5,31.3 C154.7,31.1 154.9,31 155.1,31 C155.3,31 155.6,31.1 155.7,31.3 C155.9,31.5 156,31.7 156,31.9 L156,33.8 L156.1,33.8 Z" id="Shape"></path>
                    <path d="M169.3,34.4 L169.3,38.2 C169.3,39 168.9,39.8 168.2,40.4 C167.5,41 166.7,41.4 165.8,41.4 L163.7,41.4 C162.9,41.4 162.1,41.1 161.3,40.4 C160.5,39.7 160.2,39 160.2,38.2 L160.2,34.4 C160.2,33.6 160.6,32.9 161.3,32.2 C162,31.5 162.8,31.2 163.7,31.2 L165.8,31.2 C166.6,31.2 167.4,31.5 168.2,32.2 C169,32.9 169.3,33.6 169.3,34.4 Z M162.1,34.5 L162.1,38.2 C162.1,38.5 162.2,38.8 162.5,39 L163.2,39.6 C163.4,39.7 163.6,39.8 163.8,39.8 L165.9,39.8 C166.2,39.8 166.5,39.7 166.7,39.5 L167.2,39 C167.4,38.8 167.5,38.6 167.5,38.3 L167.5,34.6 C167.5,34.2 167.4,34 167.2,33.8 L166.6,33.3 C166.4,33.1 166.1,33 165.8,33 L163.9,33 C163.5,33 163.2,33.1 163,33.3 L162.4,33.8 C162.2,33.9 162.1,34.2 162.1,34.5 Z" id="Shape"></path>
                    <path d="M177.8,39.7 L180.8,37.8 L180.8,32 C180.8,31.7 180.9,31.5 181.1,31.4 C181.3,31.2 181.5,31.1 181.7,31.1 C182,31.1 182.2,31.2 182.3,31.4 C182.5,31.6 182.6,31.8 182.6,32 L182.6,40.6 C182.6,40.8 182.5,41.1 182.3,41.2 C182.1,41.4 181.9,41.5 181.7,41.5 C181.5,41.5 181.2,41.4 181.1,41.2 C180.9,41 180.8,40.8 180.8,40.6 L180.8,39.9 L179.2,40.9 C178.6,41.3 178,41.5 177.3,41.5 L176.5,41.5 C175.8,41.5 175.1,41.2 174.6,40.7 C174.1,40.2 173.8,39.6 173.8,38.8 L173.5,32 C173.5,31.8 173.6,31.6 173.8,31.4 C174,31.2 174.2,31.1 174.4,31.1 C174.6,31.1 174.9,31.2 175,31.4 C175.2,31.6 175.3,31.8 175.3,32 L175.5,38.7 C175.5,39.3 175.9,39.7 176.6,39.7 L177.8,39.7 Z" id="Shape"></path>
                    <path d="M186.8,40.6 L186.8,32 C186.8,31.7 186.9,31.5 187.1,31.4 C187.3,31.2 187.5,31.1 187.7,31.1 C188,31.1 188.2,31.2 188.3,31.4 C188.5,31.6 188.6,31.8 188.6,32.1 L188.6,33.2 L190.1,31.9 C190.7,31.4 191.3,31.1 191.9,31.1 L193.2,31.1 C193.9,31.1 194.6,31.4 195.1,31.9 C195.6,32.4 195.9,33.1 195.9,33.8 L195.9,34.3 C195.9,34.6 195.8,34.8 195.6,35 C195.4,35.2 195.2,35.3 195,35.3 C194.7,35.3 194.5,35.2 194.4,35 C194.2,34.8 194.1,34.6 194.1,34.4 L194.1,33.9 C194.1,33.6 194,33.4 193.8,33.3 C193.6,33.1 193.4,33 193.2,33 L192,33 C191.7,33 191.5,33.1 191.2,33.4 L188.6,35.6 L188.6,40.6 C188.6,40.9 188.5,41.1 188.3,41.2 C188.1,41.4 187.9,41.5 187.7,41.5 C187.4,41.5 187.2,41.4 187.1,41.2 C186.9,41.1 186.8,40.8 186.8,40.6 Z" id="Shape"></path>
                    <path d="M227.1,35 L230.6,35 C230.8,35 231.1,35 231.4,35.1 L231.4,33.8 C231.4,33.5 231.3,33.3 231.1,33.2 C230.9,33 230.7,32.9 230.5,32.9 L227.1,32.9 C226.9,32.9 226.6,32.8 226.5,32.6 C226.3,32.4 226.2,32.2 226.2,32 C226.2,31.7 226.3,31.5 226.5,31.4 C226.7,31.2 226.9,31.1 227.1,31.1 L230.5,31.1 C231.2,31.1 231.9,31.4 232.4,31.9 C232.9,32.4 233.2,33.1 233.2,33.8 L233.4,40.6 C233.4,40.9 233.3,41.1 233.1,41.2 C232.9,41.4 232.7,41.5 232.5,41.5 C232.2,41.5 232,41.4 231.8,41.2 C231.6,41 231.5,40.8 231.5,40.6 L230,41.5 L226.9,41.5 C226.1,41.5 225.5,41.2 225,40.7 C224.5,40.2 224.2,39.5 224.2,38.8 L224.2,37.7 C224.2,36.9 224.5,36.3 225,35.8 C225.7,35.3 226.3,35 227.1,35 Z M231.6,38.5 L231.5,37.7 C231.5,37.4 231.4,37.2 231.2,37.1 C231,37 230.8,36.8 230.6,36.8 L227,36.8 C226.7,36.8 226.5,36.9 226.4,37.1 C226.2,37.3 226.1,37.5 226.1,37.7 L226.1,38.7 C226.1,38.9 226.2,39.2 226.4,39.3 C226.6,39.5 226.8,39.6 227,39.6 L229.5,39.6 L231.6,38.5 Z" id="Shape"></path>
                    <path d="M245,41.5 L239.5,41.5 C239.2,41.5 239,41.4 238.9,41.2 C238.7,41 238.6,40.8 238.6,40.6 C238.6,40.4 238.7,40.1 238.9,40 C239.1,39.8 239.3,39.7 239.5,39.7 L241.3,39.7 L241.3,29 L239.5,29 C239.2,29 239,28.9 238.9,28.7 C238.7,28.5 238.6,28.3 238.6,28.1 C238.6,27.8 238.7,27.6 238.9,27.5 C239.1,27.3 239.3,27.2 239.5,27.2 L242.3,27.2 C242.5,27.2 242.8,27.3 242.9,27.5 C243.1,27.7 243.2,27.9 243.2,28.1 L243.2,39.6 L245,39.6 C245.2,39.6 245.5,39.7 245.6,39.9 C245.8,40.1 245.9,40.3 245.9,40.5 C245.9,40.8 245.8,41 245.6,41.1 C245.4,41.4 245.2,41.5 245,41.5 Z" id="Shape"></path>
                    <path d="M256.4,35.1 L256.4,37.2 L257.6,39.3 L258.2,37.2 L258.4,31.9 C258.4,31.7 258.5,31.4 258.7,31.3 C258.9,31.1 259.1,31 259.3,31 C259.6,31 259.8,31.1 259.9,31.3 C260.1,31.5 260.2,31.7 260.2,31.9 L260,37.5 L259,40.7 C258.9,41.1 258.6,41.4 258.2,41.4 L257.2,41.4 C256.9,41.4 256.6,41.2 256.4,40.9 L255.4,39.2 L254.4,40.9 C254.2,41.2 253.9,41.4 253.6,41.4 L252.7,41.4 C252.5,41.4 252.3,41.3 252.1,41.2 C251.9,41.1 251.8,40.9 251.8,40.8 L250.9,37.5 L250.7,32 C250.7,31.8 250.8,31.6 251,31.4 C251.2,31.2 251.4,31.1 251.7,31.1 C251.9,31.1 252.1,31.2 252.3,31.4 C252.5,31.6 252.6,31.8 252.6,32 L252.8,37.3 L253.4,39.3 L254.7,37.2 L254.7,35.1 C254.7,34.9 254.8,34.6 255,34.5 C255.2,34.3 255.4,34.2 255.7,34.2 C255.9,34.2 256.2,34.3 256.3,34.5 C256.3,34.7 256.4,34.9 256.4,35.1 Z" id="Shape"></path>
                    <path d="M267,35 L270.5,35 C270.7,35 271,35 271.3,35.1 L271.3,33.8 C271.3,33.5 271.2,33.3 271,33.2 C270.8,33 270.6,32.9 270.4,32.9 L267,32.9 C266.8,32.9 266.5,32.8 266.4,32.6 C266.2,32.4 266.1,32.2 266.1,32 C266.1,31.7 266.2,31.5 266.4,31.4 C266.6,31.2 266.8,31.1 267,31.1 L270.4,31.1 C271.1,31.1 271.8,31.4 272.3,31.9 C272.8,32.4 273.1,33.1 273.1,33.8 L273.3,40.6 C273.3,40.9 273.2,41.1 273,41.2 C272.8,41.4 272.6,41.5 272.4,41.5 C272.1,41.5 271.9,41.4 271.7,41.2 C271.5,41 271.4,40.8 271.4,40.6 L269.9,41.5 L267,41.5 C266.2,41.5 265.6,41.2 265.1,40.7 C264.6,40.2 264.3,39.5 264.3,38.8 L264.3,37.7 C264.3,36.9 264.6,36.3 265.1,35.8 C265.6,35.3 266.2,35 267,35 Z M271.5,38.5 L271.4,37.7 C271.4,37.4 271.3,37.2 271.1,37.1 C270.9,37 270.7,36.8 270.5,36.8 L267,36.8 C266.7,36.8 266.5,36.9 266.4,37.1 C266.2,37.3 266.1,37.5 266.1,37.7 L266.1,38.7 C266.1,38.9 266.2,39.2 266.4,39.3 C266.6,39.5 266.8,39.6 267,39.6 L269.5,39.6 L271.5,38.5 Z" id="Shape"></path>
                    <path d="M286.7,33.8 L281.8,44.8 C281.6,45.2 281.3,45.4 280.9,45.4 L278.4,45.4 C278.1,45.4 277.9,45.3 277.8,45.1 C277.7,44.9 277.5,44.7 277.5,44.5 C277.5,44.2 277.6,44 277.8,43.9 C278,43.7 278.2,43.6 278.4,43.6 L280.3,43.6 L281.5,40.7 L281.1,40.7 C280.7,40.7 280.4,40.5 280.2,40.1 L277.5,33.8 L277.5,32 C277.5,31.7 277.6,31.5 277.8,31.4 C278,31.2 278.2,31.1 278.4,31.1 C278.7,31.1 278.9,31.2 279,31.4 C279.2,31.6 279.3,31.8 279.3,32 L279.3,33.3 L281.7,38.8 L282.3,38.8 L284.8,33.3 L284.8,31.9 C284.8,31.7 284.9,31.5 285.1,31.3 C285.3,31.1 285.5,31 285.7,31 C285.9,31 286.2,31.1 286.3,31.3 C286.5,31.5 286.6,31.7 286.6,31.9 L286.6,33.8 L286.7,33.8 Z" id="Shape"></path>
                    <path d="M293.4,31.1 L297.5,31.1 C298.1,31.1 298.7,31.3 299.2,31.7 C299.7,32.1 299.9,32.5 299.9,32.8 C299.9,33.1 299.8,33.3 299.6,33.4 C299.4,33.6 299.2,33.6 299,33.6 C298.7,33.6 298.5,33.5 298.2,33.2 C297.9,32.9 297.7,32.8 297.5,32.8 L293.4,32.8 C293,32.8 292.8,33 292.8,33.3 C292.8,33.5 292.9,33.7 293.2,33.8 L298,35.9 C298.5,36.1 298.9,36.5 299.2,36.9 C299.5,37.4 299.7,37.9 299.7,38.5 C299.7,39.3 299.4,39.9 298.9,40.5 C298.4,41.1 297.7,41.3 297,41.3 L293.3,41.3 C292.7,41.3 292.1,41.1 291.5,40.7 C291,40.3 290.7,40 290.7,39.6 C290.7,39.4 290.8,39.2 291,39 C291.2,38.8 291.4,38.7 291.7,38.7 C291.9,38.7 292.2,38.8 292.4,39.1 C292.7,39.4 293,39.5 293.5,39.5 L296.9,39.5 C297.2,39.5 297.4,39.4 297.6,39.2 C297.8,39 297.9,38.8 297.9,38.5 C297.9,38.1 297.7,37.8 297.3,37.6 L292.5,35.4 C292,35.2 291.7,34.9 291.4,34.5 C291.1,34.1 291,33.7 291,33.3 C291,32.7 291.2,32.1 291.7,31.6 C292.2,31.4 292.7,31.1 293.4,31.1 Z" id="Shape"></path>
                    <path d="M321.7,39.7 L324.7,37.8 L324.7,32 C324.7,31.7 324.8,31.5 325,31.4 C325.2,31.2 325.4,31.1 325.6,31.1 C325.9,31.1 326.1,31.2 326.2,31.4 C326.4,31.6 326.5,31.8 326.5,32 L326.5,40.6 C326.5,40.8 326.4,41.1 326.2,41.2 C326,41.4 325.8,41.5 325.6,41.5 C325.4,41.5 325.1,41.4 325,41.2 C324.8,41 324.7,40.8 324.7,40.6 L324.7,39.9 L323.1,40.9 C322.5,41.3 321.9,41.5 321.2,41.5 L320.4,41.5 C319.7,41.5 319,41.2 318.5,40.7 C318,40.2 317.7,39.6 317.7,38.8 L317.4,32 C317.4,31.8 317.5,31.6 317.7,31.4 C317.9,31.2 318.1,31.1 318.3,31.1 C318.5,31.1 318.8,31.2 318.9,31.4 C319.1,31.6 319.2,31.8 319.2,32 L319.4,38.7 C319.4,39.3 319.8,39.7 320.5,39.7 L321.7,39.7 Z" id="Shape"></path>
                    <path d="M335,33.2 L332.5,34.8 L332.5,40.6 C332.5,40.8 332.4,41.1 332.2,41.2 C332,41.4 331.8,41.5 331.6,41.5 C331.4,41.5 331.1,41.4 331,41.2 C330.8,41 330.7,40.8 330.7,40.6 L330.7,32 C330.7,31.7 330.8,31.5 331,31.4 C331.2,31.2 331.4,31.1 331.6,31.1 C331.8,31.1 332.1,31.2 332.2,31.4 C332.3,31.6 332.5,31.8 332.5,32 L332.5,32.6 L334.1,31.6 C334.7,31.2 335.3,31.1 336,31.1 L336.8,31.1 C337.5,31.1 338.1,31.4 338.7,31.9 C339.2,32.4 339.5,33 339.5,33.8 L339.7,40.6 C339.7,40.8 339.6,41.1 339.4,41.2 C339.2,41.4 339,41.5 338.8,41.5 C338.6,41.5 338.4,41.4 338.2,41.3 C338,41.2 337.9,40.9 337.9,40.6 L337.6,33.9 C337.6,33.3 337.2,33 336.6,33 L335.7,33 C335.6,32.9 335.3,33 335,33.2 Z" id="Shape"></path>
                    <path d="M352.2,41.5 L348.3,41.5 C347.6,41.5 347,41.3 346.6,40.9 L344.8,39.4 C344.2,38.9 344,38.3 344,37.5 L344,35.1 C344,34.3 344.3,33.7 344.9,33.1 L346.5,31.7 C347,31.3 347.6,31.1 348.1,31.1 L352.1,31.1 C352.4,31.1 352.6,31.2 352.7,31.4 C352.9,31.6 353,31.8 353,32 C353,32.3 352.9,32.5 352.7,32.6 C352.5,32.8 352.3,32.9 352.1,32.9 L348.2,32.9 C348,32.9 347.7,33 347.5,33.2 L346,34.4 C345.8,34.6 345.6,34.9 345.6,35.2 L345.6,37.4 C345.6,37.6 345.7,37.8 345.9,38 L347.5,39.4 C347.7,39.6 348,39.7 348.3,39.7 L352,39.7 C352.2,39.7 352.5,39.8 352.6,40 C352.8,40.2 352.9,40.4 352.9,40.6 C352.9,40.9 352.8,41.1 352.6,41.2 C352.7,41.4 352.5,41.5 352.2,41.5 Z" id="Shape"></path>
                    <path d="M366.4,34.4 L366.4,38.2 C366.4,39 366,39.8 365.3,40.4 C364.5,41.1 363.8,41.4 362.9,41.4 L360.8,41.4 C360,41.4 359.2,41.1 358.4,40.4 C357.6,39.7 357.3,39 357.3,38.2 L357.3,34.4 C357.3,33.6 357.7,32.9 358.4,32.2 C359.1,31.5 359.9,31.2 360.8,31.2 L362.9,31.2 C363.7,31.2 364.5,31.5 365.3,32.2 C366,32.8 366.4,33.6 366.4,34.4 Z M359.1,34.5 L359.1,38.2 C359.1,38.5 359.2,38.8 359.5,39 L360.2,39.6 C360.4,39.7 360.6,39.8 360.8,39.8 L362.9,39.8 C363.2,39.8 363.5,39.7 363.7,39.5 L364.2,39 C364.4,38.8 364.5,38.6 364.5,38.3 L364.5,34.6 C364.5,34.2 364.4,34 364.2,33.8 L363.6,33.3 C363.4,33.1 363.1,33 362.8,33 L361,33 C360.6,33 360.3,33.1 360.1,33.3 L359.5,33.8 C359.2,33.9 359.1,34.2 359.1,34.5 Z" id="Shape"></path>
                    <path d="M370.3,40.6 L370.3,32 C370.3,31.7 370.4,31.5 370.6,31.4 C370.8,31.2 371,31.1 371.2,31.1 C371.7,31.1 372,31.3 372.1,31.8 C372.6,31.3 373.2,31.1 373.8,31.1 C374.5,31.1 375.1,31.4 375.6,32 C376.2,31.4 376.8,31.1 377.5,31.1 C378.1,31.1 378.5,31.3 379,31.7 C379.5,32.1 379.6,32.6 379.7,33.2 L380,40.6 C380,40.8 379.9,41.1 379.7,41.2 C379.5,41.4 379.3,41.5 379.1,41.5 C378.8,41.5 378.6,41.4 378.5,41.2 C378.3,41 378.2,40.8 378.2,40.6 L378,33.5 C378,33.1 377.9,32.9 377.6,32.9 C377.5,32.9 377.4,33 377.2,33.1 L376,34 L376,40.6 C376,40.8 375.9,41.1 375.7,41.2 C375.5,41.4 375.3,41.5 375.1,41.5 C374.9,41.5 374.6,41.4 374.5,41.2 C374.3,41 374.2,40.8 374.2,40.6 L374.2,33.4 C374.2,33.1 374.1,32.9 373.8,32.9 C373.7,32.9 373.6,32.9 373.4,33 L372.1,34.1 L372.1,40.5 C372.1,40.7 372,41 371.8,41.1 C371.6,41.3 371.4,41.4 371.2,41.4 C370.9,41.4 370.7,41.3 370.5,41.1 C370.4,41 370.3,40.8 370.3,40.6 Z" id="Shape"></path>
                    <path d="M388,32.9 L388,40.6 C388,40.9 387.9,41.1 387.7,41.2 C387.5,41.4 387.3,41.5 387.1,41.5 C386.8,41.5 386.6,41.4 386.4,41.2 C386.2,41 386.1,40.8 386.1,40.6 L386.1,32.9 L385.2,32.9 C384.9,32.9 384.7,32.8 384.6,32.6 C384.4,32.4 384.3,32.2 384.3,32 C384.3,31.8 384.4,31.6 384.5,31.4 C384.7,31.2 384.9,31.1 385.2,31.1 L386.1,31.1 L386.1,30.4 C386.1,29.5 386.4,28.7 387.1,28.1 C387.7,27.5 388.5,27.2 389.5,27.2 L391.6,27.2 C391.9,27.2 392.1,27.3 392.2,27.5 C392.4,27.7 392.5,27.9 392.5,28.2 C392.5,28.4 392.4,28.7 392.2,28.8 C392,29 391.8,29.1 391.6,29.1 L389.5,29.1 C389.1,29.1 388.7,29.2 388.4,29.5 C388.1,29.8 388,30.1 388,30.5 L388,31.2 L389.8,31.2 C390,31.2 390.3,31.3 390.4,31.5 C390.6,31.7 390.7,31.9 390.7,32.1 C390.7,32.3 390.6,32.6 390.4,32.7 C390.2,32.9 390,33 389.8,33 L388,33 L388,32.9 Z" id="Shape"></path>
                    <path d="M406.2,34.4 L406.2,38.2 C406.2,39 405.8,39.8 405.1,40.4 C404.3,41.1 403.6,41.4 402.7,41.4 L400.6,41.4 C399.8,41.4 399,41.1 398.2,40.4 C397.4,39.7 397.1,39 397.1,38.2 L397.1,34.4 C397.1,33.6 397.5,32.9 398.2,32.2 C398.9,31.5 399.7,31.2 400.6,31.2 L402.7,31.2 C403.5,31.2 404.3,31.5 405.1,32.2 C405.9,32.8 406.2,33.6 406.2,34.4 Z M399,34.5 L399,38.2 C399,38.5 399.1,38.8 399.4,39 L400.1,39.6 C400.3,39.7 400.5,39.8 400.7,39.8 L402.8,39.8 C403.1,39.8 403.4,39.7 403.6,39.5 L404.1,39 C404.3,38.8 404.4,38.6 404.4,38.3 L404.4,34.6 C404.4,34.2 404.3,34 404.1,33.8 L403.5,33.3 C403.3,33.1 403,33 402.7,33 L400.8,33 C400.4,33 400.1,33.1 399.9,33.3 L399.3,33.8 C399.1,33.9 399,34.2 399,34.5 Z" id="Shape"></path>
                    <path d="M410.4,40.6 L410.4,32 C410.4,31.7 410.5,31.5 410.7,31.4 C410.9,31.2 411.1,31.1 411.3,31.1 C411.5,31.1 411.8,31.2 411.9,31.4 C412.1,31.6 412.2,31.8 412.2,32.1 L412.2,33.2 L413.7,31.9 C414.3,31.4 414.9,31.1 415.5,31.1 L416.8,31.1 C417.5,31.1 418.2,31.4 418.7,31.9 C419.2,32.4 419.5,33.1 419.5,33.8 L419.5,34.3 C419.5,34.6 419.4,34.8 419.2,35 C419,35.2 418.8,35.3 418.6,35.3 C418.4,35.3 418.1,35.2 418,35 C417.8,34.8 417.7,34.6 417.7,34.4 L417.7,33.9 C417.7,33.6 417.6,33.4 417.4,33.3 C417.2,33.1 417,33 416.8,33 L415.6,33 C415.3,33 415.1,33.1 414.8,33.4 L412.2,35.6 L412.2,40.6 C412.2,40.9 412.1,41.1 411.9,41.2 C411.7,41.4 411.5,41.5 411.3,41.5 C411,41.5 410.8,41.4 410.7,41.2 C410.5,41.1 410.4,40.8 410.4,40.6 Z" id="Shape"></path>
                    <path d="M430.1,41.5 L428.3,41.5 C427.6,41.5 426.9,41.2 426.4,40.7 C425.9,40.2 425.6,39.5 425.6,38.8 L425.6,32.9 L424.7,32.9 C424.4,32.9 424.2,32.8 424.1,32.6 C423.9,32.4 423.8,32.2 423.8,32 C423.8,31.7 423.9,31.5 424.1,31.4 C424.3,31.2 424.5,31.1 424.7,31.1 L425.6,31.1 L425.6,28.9 C425.6,28.6 425.7,28.4 425.9,28.3 C426.1,28.1 426.3,28 426.5,28 C426.7,28 426.9,28.1 427.1,28.3 C427.3,28.5 427.4,28.7 427.4,28.9 L427.4,31.1 L431,31.1 C431.2,31.1 431.5,31.2 431.6,31.4 C431.8,31.6 431.9,31.8 431.9,32 C431.9,32.3 431.8,32.5 431.6,32.6 C431.4,32.8 431.2,32.9 431,32.9 L427.3,32.9 L427.3,38.8 C427.3,39 427.4,39.3 427.6,39.4 C427.8,39.6 428,39.7 428.2,39.7 L430,39.7 C430.5,39.7 430.8,39.4 431,38.9 C431.2,38.4 431.5,38.1 431.9,38.1 C432.2,38.1 432.4,38.2 432.5,38.4 C432.7,38.6 432.8,38.8 432.8,39.1 C432.8,39.6 432.5,40.2 432,40.7 C431.5,41.2 430.9,41.5 430.1,41.5 Z" id="Shape"></path>
                    <path d="M439.7,35 L443.2,35 C443.4,35 443.7,35 444,35.1 L444,33.8 C444,33.5 443.9,33.3 443.7,33.2 C443.5,33 443.3,32.9 443.1,32.9 L439.7,32.9 C439.5,32.9 439.2,32.8 439.1,32.6 C438.9,32.4 438.8,32.2 438.8,32 C438.8,31.7 438.9,31.5 439.1,31.4 C439.3,31.2 439.5,31.1 439.7,31.1 L443.1,31.1 C443.8,31.1 444.5,31.4 445,31.9 C445.5,32.4 445.8,33.1 445.8,33.8 L446,40.6 C446,40.9 445.9,41.1 445.7,41.2 C445.5,41.4 445.3,41.5 445.1,41.5 C444.8,41.5 444.6,41.4 444.4,41.2 C444.2,41 444.1,40.8 444.1,40.6 L442.6,41.5 L439.5,41.5 C438.7,41.5 438.1,41.2 437.6,40.7 C437.1,40.2 436.8,39.5 436.8,38.8 L436.8,37.7 C436.8,36.9 437.1,36.3 437.6,35.8 C438.3,35.3 439,35 439.7,35 Z M444.2,38.5 L444.1,37.7 C444.1,37.4 444,37.2 443.8,37.1 C443.6,37 443.4,36.8 443.2,36.8 L439.6,36.8 C439.3,36.8 439.1,36.9 439,37.1 C438.8,37.3 438.7,37.5 438.7,37.7 L438.7,38.7 C438.7,38.9 438.8,39.2 439,39.3 C439.2,39.5 439.4,39.6 439.6,39.6 L442.1,39.6 L444.2,38.5 Z" id="Shape"></path>
                    <path d="M452.1,28.1 L452.1,32.3 L452.9,31.7 C453.4,31.3 453.9,31.1 454.5,31.1 L456.2,31.1 C456.8,31.1 457.3,31.3 457.8,31.7 L458.7,32.4 C458.9,32.6 459.1,32.9 459.3,33.3 C459.5,33.7 459.5,34.1 459.5,34.4 L459.5,38.1 C459.5,38.4 459.4,38.8 459.3,39.1 C459.2,39.4 459,39.7 458.8,39.9 L458,40.6 C457.8,40.8 457.5,41 457.1,41.1 C456.7,41.3 456.4,41.3 456.2,41.3 L454.7,41.3 C453.9,41.3 453.1,40.9 452.2,40 L452.2,40.4 C452.2,40.7 452.1,40.9 451.9,41 C451.7,41.2 451.5,41.3 451.3,41.3 C451.1,41.3 450.8,41.2 450.7,41 C450.5,40.8 450.4,40.6 450.4,40.4 L450.4,28.1 C450.4,27.8 450.5,27.6 450.7,27.5 C450.9,27.3 451.1,27.2 451.3,27.2 C451.6,27.2 451.8,27.3 451.9,27.5 C452.1,27.7 452.1,27.9 452.1,28.1 Z M456,32.9 L454.8,32.9 C454.5,32.9 454.3,33 454.1,33.1 L452.5,34.5 C452.3,34.7 452.2,35 452.2,35.3 L452.2,37.3 C452.2,37.6 452.3,37.9 452.6,38.1 L454.1,39.3 C454.3,39.5 454.5,39.6 454.8,39.6 L456.3,39.6 C456.5,39.6 456.7,39.5 456.8,39.4 L457.5,38.8 C457.7,38.7 457.8,38.5 457.8,38.2 L457.8,34.4 C457.8,34.1 457.7,33.9 457.5,33.7 L456.8,33.2 C456.5,33 456.3,32.9 456,32.9 Z" id="Shape"></path>
                    <path d="M470.9,41.5 L465.4,41.5 C465.1,41.5 464.9,41.4 464.8,41.2 C464.6,41 464.5,40.8 464.5,40.6 C464.5,40.4 464.6,40.1 464.8,40 C465,39.8 465.2,39.7 465.4,39.7 L467.2,39.7 L467.2,29 L465.4,29 C465.1,29 464.9,28.9 464.8,28.7 C464.6,28.5 464.5,28.3 464.5,28.1 C464.5,27.8 464.6,27.6 464.8,27.5 C465,27.3 465.2,27.2 465.4,27.2 L468.2,27.2 C468.4,27.2 468.7,27.3 468.8,27.5 C469,27.7 469.1,27.9 469.1,28.1 L469.1,39.6 L470.9,39.6 C471.1,39.6 471.4,39.7 471.5,39.9 C471.7,40.1 471.8,40.3 471.8,40.5 C471.8,40.8 471.7,41 471.5,41.1 C471.3,41.4 471.1,41.5 470.9,41.5 Z" id="Shape"></path>
                    <path d="M486,34.5 L486,36.7 C486,36.9 485.9,37.2 485.7,37.3 C485.5,37.5 485.3,37.6 485.1,37.6 L478.7,37.6 L478.7,38.1 C478.7,38.4 478.8,38.7 479.1,38.9 L479.6,39.3 C479.9,39.5 480.2,39.6 480.4,39.6 L485,39.6 C485.2,39.6 485.5,39.7 485.6,39.9 C485.8,40.1 485.9,40.3 485.9,40.5 C485.9,40.7 485.8,41 485.6,41.1 C485.4,41.3 485.2,41.4 485,41.4 L480.2,41.4 C479.9,41.4 479.6,41.3 479.2,41.2 C478.9,41.1 478.6,40.9 478.4,40.8 L477.6,40.1 C477.3,39.9 477.1,39.6 477,39.3 C476.8,38.9 476.7,38.6 476.7,38.3 L476.7,34.2 C476.7,34 476.8,33.6 477,33.2 C477.2,32.8 477.4,32.5 477.7,32.3 L478.5,31.7 C479,31.3 479.5,31.1 480.1,31.1 L482.6,31.1 C483.2,31.1 483.8,31.4 484.4,31.9 L485.1,32.5 C485.7,33 486,33.7 486,34.5 Z M478.7,34.4 L478.7,35.8 L484.2,35.8 L484.2,34.5 C484.2,34.2 484.1,33.9 483.9,33.7 L483.4,33.2 C483.1,33 482.9,32.9 482.7,32.9 L480.4,32.9 C480.1,32.9 479.9,33 479.6,33.2 L479.1,33.6 C478.8,33.9 478.7,34.1 478.7,34.4 Z" id="Shape"></path>
                </g>
            </g>
            <rect id="Rectangle" fill="#C1D721" x="245" y="58" width="62" height="23"></rect>
            <text id="youre" font-family="Consolas" font-size="20" font-weight="normal" fill="#000000">
                <tspan x="248.011719" y="70">youre</tspan>
            </text>
        </g>
    </g>
</svg>