<?xml version="1.0" encoding="utf-8"?>
<!-- Generator: Adobe Illustrator 21.1.0, SVG Export Plug-In . SVG Version: 6.00 Build 0)  -->
<svg version="1.1" id="Layer_1" xmlns="http://www.w3.org/2000/svg" xmlns:xlink="http://www.w3.org/1999/xlink" x="0px" y="0px"
	 viewBox="0 0 800 400" style="enable-background:new 0 0 800 400;" xml:space="preserve">
<style type="text/css">
	.st0{fill:#C1D721;stroke:#FFFFFF;stroke-miterlimit:10;}
	.st1{fill:#991C6F;}
	.st2{fill:none;stroke:#FFFFFF;stroke-miterlimit:10;}
	.st3{fill:#991C6F;stroke:#000000;stroke-miterlimit:10;}
	.st4{fill:#991C6F;stroke:#FFFFFF;stroke-miterlimit:10;}
	.st5{fill:#FBB03B;stroke:#FFFFFF;stroke-miterlimit:10;}
</style>
<polygon class="st0" points="814.6,408.3 -21.7,408.3 -5.6,-6.3 830.7,-6.3 "/>
<g id="XMLID_1_">
	<g>
		<polygon class="st1" points="489,67.7 547.6,165.6 527.7,178.1 475,77.4 		"/>
		<polygon class="st1" points="475,77.4 527.7,178.1 515.2,186 463.5,85.3 		"/>
		<polygon class="st1" points="463.5,85.3 515.2,186 490.9,201.2 436,104.3 		"/>
		<polygon class="st1" points="436,104.3 490.9,201.2 479.9,208.1 423.1,113.2 		"/>
		<path class="st1" d="M423.1,113.2l56.8,95l-155.4,97.6c2.6-24.8-26-25.8-68-78.5l1.6-0.2L423.1,113.2z"/>
		<path class="st1" d="M256.4,227.2c42,52.8,70.6,53.8,68,78.5c-2.2,21.6-26.1,42.3-55.2,53.1c-4.6-7.1-12.9-17.8-26.5-26.3
			c-6.1-3.8-11.9-6.3-16.9-8.1c-5.7-1.7-16.3-3.9-29-1.6c-18.8,3.4-30.6,14.5-34.7,18.9l-0.2,0.3c-21.9-16.5-36.9-36-40.1-40.1
			c0,0,0,0,0,0s0,0,0,0c-36.5-49.5-43.1-86.7-42.3-108.9h0.2c10.5-0.1,35.3-1.6,60.7-17.7c7.3-4.6,23.5-16.2,35.8-36.3
			c1.1-1.8,1.9-3.3,2.5-4.3l0.6-1.5c27,15.7,42.3,45.8,66.7,80C249.5,218.2,253,222.9,256.4,227.2z"/>
		<path class="st1" d="M242.7,332.6c13.6,8.5,21.9,19.2,26.5,26.3c-18.1,6.7-38.1,9.7-56.3,6.8c-19.1-3.1-36.6-12.7-51-23.6l0.2-0.3
			c4.1-4.3,15.9-15.5,34.7-18.9c12.8-2.3,23.3-0.1,29,1.6C230.8,326.2,236.6,328.8,242.7,332.6z"/>
		<path class="st1" d="M179.2,133.3l-0.6,1.5c-0.6,1-1.4,2.5-2.5,4.3c-12.3,20.1-28.6,31.7-35.8,36.3
			c-25.4,16.1-50.2,17.7-60.7,17.7h-0.2c0.5-15.3,4.5-23.4,4.5-23.4c8.2-20.4,28-42.1,52.8-45.9c6.7-1,15.2-1,26.3,2.4
			C168.8,128,174.2,130.4,179.2,133.3z"/>
	</g>
	<g>
		<path class="st2" d="M256.4,227.2c-3.4-4.3-6.9-8.9-10.5-13.9c-24.4-34.2-39.7-64.3-66.7-80c-5-2.9-10.4-5.3-16.4-7.1
			c-11.1-3.4-19.6-3.4-26.3-2.4c-24.8,3.9-44.5,25.5-52.8,45.9c0,0-4,8.1-4.5,23.4c-0.7,22.1,5.9,59.3,42.3,108.9c0,0,0,0,0,0
			s0,0,0,0c3.2,4.1,18.2,23.6,40.1,40.1c14.5,10.9,31.9,20.5,51,23.6c18.2,2.9,38.3-0.1,56.3-6.8c29.1-10.9,53-31.6,55.2-53.1
			C327,280.9,298.4,280,256.4,227.2z"/>
		<polyline class="st2" points="258,226.9 423.1,113.2 436,104.3 463.5,85.3 475,77.4 489,67.7 		"/>
		<path class="st2" d="M79.6,193.1c10.5-0.1,35.3-1.6,60.7-17.7c7.3-4.6,23.5-16.2,35.8-36.3c1.1-1.8,1.9-3.3,2.5-4.3"/>
	</g>
</g>
<path class="st3" d="M267.4,355.5"/>
<path class="st4" d="M69.4,150.8"/>
<path class="st5" d="M406.5,97.8"/>
<path class="st5" d="M458.2,156.1"/>
<path class="st5" d="M179.9,136.2c-4.7-3.9-15.6-11.7-31.5-14.1c-3.7-0.6-22.9-3.1-40.3,7.3c-20.6,12.2-31.7,38.3-28.6,66.1
	c8.5,0,15.7-0.9,21-1.9c13.2-2.4,23.2-6.6,28.8-9.4c7.1-3.4,12.6-7,16.6-9.8c6.8-4.8,15.1-11.9,23.1-21.8
	C173.6,146.8,177.1,141.2,179.9,136.2z"/>
<path class="st5" d="M162.1,341.8c3.4,4.3,22.3,27.1,55.3,30.2c26.6,2.5,46.1-9.3,51.8-13.2c-4-6.6-13.4-19.9-30.6-28.6
	c-6.2-3.2-19.6-10-36.2-8c-3.7,0.4-14,1.6-25.2,7.8C170.2,333.9,165.3,338.4,162.1,341.8z"/>
<path class="st5" d="M308,357.6"/>
<path class="st5" d="M275.9,370.2"/>
<path class="st1" d="M318.1,306.2c-20.7-5.3-41.4-10.7-62.2-16V228c1.5-0.7,3.6-1.4,6.2-1.3c0,0,2.4,0.1,4.8,1.3
	c3.9,1.9,25.2,17.9,53.6,40.7c9.4,13.5,12.9,26.3,9.4,31.8c-3,4.8-7,5.7-7,5.8C320.9,306.7,319.2,306.5,318.1,306.2z"/>
<path class="st1" d="M540.1,152.7c-83.7,48.6-167.5,97.2-251.2,145.8c9.3,6.5,18.6,13,27.9,19.5c79.6-46.7,159.2-93.4,238.8-140.1
	C550.4,169.5,545.3,161.1,540.1,152.7z"/>
<path class="st1" d="M364.9,288.5"/>
<path class="st1" d="M527.7,178.1"/>
<path class="st5" d="M501.4,210.3c-4.2,2.6-8.4,5.1-12.6,7.7c-21.5-35.1-43-70.3-64.5-105.4c4.4-3,8.8-5.9,13.2-8.9
	C458.7,139.3,480.1,174.8,501.4,210.3z"/>
<path class="st5" d="M542.7,186.5c-4.3,2.7-8.6,5.3-12.9,8c-22.1-36.4-44.2-72.7-66.3-109.1c4.5-3.1,9-6.1,13.5-9.2
	C498.9,113,520.8,149.8,542.7,186.5z"/>
<g id="XMLID_2_">
	<g>
		<polygon class="st1" points="607.5,85.7 666.1,183.6 646.2,196 593.6,95.3 		"/>
		<polygon class="st1" points="593.6,95.3 646.2,196 633.7,203.9 582,103.3 		"/>
		<polygon class="st1" points="582,103.3 633.7,203.9 609.5,219.1 554.5,122.2 		"/>
		<polygon class="st1" points="554.5,122.2 609.5,219.1 598.4,226.1 541.6,131.1 		"/>
		<path class="st1" d="M541.6,131.1l56.8,95L443,323.6c2.5-24.8-26-25.8-68-78.6l1.6-0.2L541.6,131.1z"/>
		<path class="st1" d="M375,245.1c42,52.8,70.5,53.8,68,78.6c-2.2,21.6-26.1,42.3-55.2,53.1c-4.6-7.1-12.9-17.8-26.5-26.3
			c-6.1-3.8-11.9-6.3-16.9-8.1c-5.7-1.7-16.3-3.9-29-1.6c-18.8,3.4-30.6,14.5-34.7,18.9l-0.2,0.3c-21.9-16.5-36.9-35.9-40.1-40.1
			c0,0,0,0,0,0s0,0,0,0c-36.5-49.5-43.1-86.7-42.3-108.9h0.2c10.5-0.1,35.3-1.6,60.7-17.7c7.3-4.6,23.5-16.2,35.8-36.3
			c1.1-1.8,1.9-3.3,2.5-4.3l0.6-1.5c27,15.6,42.3,45.8,66.7,80C368.1,236.2,371.6,240.8,375,245.1z"/>
		<path class="st1" d="M361.2,350.5c13.6,8.5,21.9,19.1,26.5,26.3c-18.1,6.7-38.1,9.7-56.3,6.8c-19.1-3.1-36.6-12.7-51-23.6l0.2-0.3
			c4.1-4.3,15.9-15.5,34.7-18.9c12.8-2.3,23.3-0.1,29,1.6C349.3,344.2,355.2,346.7,361.2,350.5z"/>
		<path class="st1" d="M297.8,151.2l-0.6,1.5c-0.6,1-1.4,2.5-2.5,4.3c-12.3,20.1-28.5,31.7-35.8,36.3
			c-25.4,16.1-50.2,17.7-60.7,17.7h-0.2c0.5-15.3,4.5-23.4,4.5-23.4c8.2-20.4,28-42.1,52.8-45.9c6.7-1.1,15.2-1,26.3,2.4
			C287.4,145.9,292.8,148.3,297.8,151.2z"/>
	</g>
	<g>
		<path class="st2" d="M375,245.1c-3.4-4.3-6.9-8.9-10.5-13.9c-24.4-34.2-39.7-64.3-66.7-80c-5-2.9-10.4-5.3-16.4-7.1
			c-11.1-3.4-19.6-3.4-26.3-2.4c-24.8,3.9-44.5,25.5-52.8,45.9c0,0-4,8.1-4.5,23.4c-0.7,22.1,5.9,59.3,42.3,108.9c0,0,0,0,0,0
			s0,0,0,0c3.2,4.1,18.2,23.6,40.1,40.1c14.5,10.9,32,20.5,51,23.6c18.2,2.9,38.3-0.1,56.3-6.8c29.1-10.9,53-31.6,55.2-53.1
			C445.5,298.9,417,297.9,375,245.1z"/>
		<polyline class="st2" points="376.6,244.9 541.6,131.1 554.5,122.2 582,103.3 593.6,95.3 607.5,85.7 		"/>
		<path class="st2" d="M198.1,211c10.5-0.1,35.3-1.6,60.7-17.7c7.3-4.6,23.5-16.2,35.8-36.3c1.1-1.8,1.9-3.3,2.5-4.3"/>
	</g>
</g>
<path class="st3" d="M386,373.4"/>
<path class="st5" d="M525,115.7"/>
<path class="st5" d="M576.7,174.1"/>
<path class="st5" d="M297.9,152.2c-20.2-13.4-46.3-14.5-67.3-2.7c-21.8,12.2-34.6,36.3-32.5,61.5c8.3,0.2,15.2-0.6,20.3-1.5
	c3.7-0.6,15.1-2.8,28.8-9.4c7.1-3.4,12.6-7,16.6-9.8c6.8-4.8,15.2-11.8,23.1-21.7C291.5,162.8,295.1,157.2,297.9,152.2z"/>
<path class="st5" d="M280.6,359.7c3.4,4.3,22.3,27.1,55.3,30.2c26.6,2.5,46.1-9.3,51.8-13.2c-4-6.6-13.4-19.9-30.6-28.6
	c-6.2-3.2-19.6-10-36.2-8c-3.7,0.4-14,1.6-25.2,7.8C288.8,351.8,283.8,356.3,280.6,359.7z"/>
<path class="st5" d="M426.6,375.5"/>
<path class="st5" d="M394.4,388.2"/>
<path class="st1" d="M436.6,324.2c-20.7-5.3-41.4-10.7-62.2-16v-62.3c1.5-0.7,3.6-1.4,6.2-1.3c0,0,2.4,0.1,4.8,1.3
	c3.9,1.9,25.2,17.9,53.6,40.7c9.4,13.5,12.9,26.3,9.4,31.8c-3,4.8-7,5.7-7,5.8C439.4,324.7,437.7,324.4,436.6,324.2z"/>
<path class="st1" d="M658.6,170.7c-83.7,48.6-167.5,97.2-251.2,145.8c9.3,6.5,18.6,13,27.9,19.5c79.6-46.7,159.2-93.4,238.8-140.1
	C669,187.5,663.8,179.1,658.6,170.7z"/>
<path class="st1" d="M483.4,306.4"/>
<path class="st1" d="M646.2,196"/>
<path class="st5" d="M619.9,228.3c-4.2,2.6-8.4,5.1-12.6,7.7c-21.5-35.1-43-70.3-64.5-105.4c4.4-3,8.8-5.9,13.2-8.9
	C577.3,157.3,598.6,192.8,619.9,228.3z"/>
<path class="st5" d="M661.2,204.4c-4.3,2.7-8.6,5.3-12.9,8c-22.1-36.4-44.2-72.7-66.3-109.1c4.5-3.1,9-6.1,13.5-9.2
	C617.4,130.9,639.3,167.7,661.2,204.4z"/>
<line class="st2" x1="442.4" y1="331.8" x2="677.4" y2="194.5"/>
<line class="st2" x1="489" y1="67.7" x2="531.2" y2="138.3"/>
<line class="st2" x1="607.5" y1="85.7" x2="674.1" y2="195.9"/>
<g>
	<path d="M82.7,23.8H90c0.2,0,0.4,0.1,0.6,0.3c0.2,0.2,0.3,0.4,0.3,0.6c0,0.3-0.1,0.5-0.3,0.6c-0.2,0.2-0.4,0.3-0.6,0.3h-2.7v10.6
		H90c0.3,0,0.5,0.1,0.6,0.3c0.2,0.2,0.3,0.4,0.3,0.6c0,0.3-0.1,0.5-0.3,0.6c-0.2,0.2-0.4,0.3-0.6,0.3h-7.3c-0.3,0-0.5-0.1-0.6-0.3
		c-0.2-0.2-0.3-0.4-0.3-0.6c0-0.3,0.1-0.5,0.3-0.6c0.2-0.2,0.4-0.3,0.6-0.3h2.8V25.6h-2.8c-0.3,0-0.5-0.1-0.6-0.3
		c-0.2-0.2-0.3-0.4-0.3-0.6c0-0.3,0.1-0.5,0.3-0.7C82.2,23.9,82.4,23.8,82.7,23.8z"/>
	<path d="M108.4,37.2V24.7c0-0.2,0.1-0.5,0.3-0.6c0.2-0.2,0.4-0.3,0.6-0.3c0.3,0,0.5,0.1,0.6,0.3c0.2,0.2,0.3,0.4,0.3,0.6v4.6
		l1.5-0.9c0.7-0.4,1.2-0.6,1.8-0.6h1.1c0.7,0,1.4,0.3,1.9,0.8c0.5,0.5,0.8,1.2,0.8,1.9l0.2,6.8c0,0.3-0.1,0.5-0.3,0.6
		c-0.2,0.2-0.4,0.3-0.6,0.3c-0.3,0-0.5-0.1-0.6-0.3s-0.3-0.4-0.3-0.6l-0.2-6.8c0-0.2-0.1-0.5-0.3-0.6c-0.2-0.2-0.4-0.3-0.6-0.3h-1
		c-0.2,0-0.5,0.1-0.8,0.3l-2.6,1.7v5.7c0,0.3-0.1,0.5-0.3,0.6c-0.2,0.2-0.4,0.3-0.6,0.3c-0.3,0-0.5-0.1-0.6-0.3
		C108.4,37.7,108.4,37.4,108.4,37.2z"/>
	<path d="M130.7,31v3.8c0,0.8-0.4,1.6-1.1,2.2s-1.5,1-2.4,1h-2.1c-0.8,0-1.6-0.3-2.4-1s-1.1-1.4-1.1-2.2V31c0-0.8,0.4-1.5,1.1-2.2
		c0.7-0.7,1.5-1,2.4-1h2.1c0.8,0,1.6,0.3,2.4,1S130.7,30.2,130.7,31z M123.5,31.1v3.7c0,0.3,0.1,0.6,0.4,0.8l0.7,0.6
		c0.2,0.1,0.4,0.2,0.6,0.2h2.1c0.3,0,0.6-0.1,0.8-0.3l0.5-0.5c0.2-0.2,0.3-0.4,0.3-0.7v-3.7c0-0.4-0.1-0.6-0.3-0.8l-0.6-0.5
		c-0.2-0.2-0.5-0.3-0.8-0.3h-1.9c-0.4,0-0.7,0.1-0.9,0.3l-0.6,0.5C123.6,30.5,123.5,30.8,123.5,31.1z"/>
	<path d="M136.8,37.1v4c0,0.3-0.1,0.5-0.3,0.7c-0.2,0.2-0.4,0.3-0.6,0.3c-0.3,0-0.5-0.1-0.6-0.3c-0.2-0.2-0.3-0.4-0.3-0.7V28.2
		c0-0.2,0.1-0.5,0.3-0.6c0.2-0.2,0.4-0.3,0.7-0.3c0.2,0,0.5,0.1,0.6,0.3c0.2,0.2,0.3,0.4,0.3,0.6v0.6c0.9-1,1.7-1.5,2.6-1.5h0.4
		c0.6,0,1.2,0.2,1.8,0.7l1.5,1.3c0.7,0.6,1,1.3,1,2.2v2.8c0,0.9-0.4,1.6-1.1,2.2l-1.5,1.3c-0.5,0.4-1.1,0.7-1.8,0.7h-0.4
		c-0.7,0-1.3-0.2-1.8-0.7L136.8,37.1z M139.3,36.7h0.5c0.2,0,0.5-0.1,0.7-0.3l1.4-1.2c0.2-0.2,0.4-0.4,0.4-0.8v-2.9
		c0-0.3-0.1-0.5-0.4-0.8l-1.5-1.3c-0.2-0.2-0.4-0.2-0.6-0.2h-0.5c-0.2,0-0.5,0.2-0.8,0.5l-1.3,1.3c-0.2,0.2-0.4,0.5-0.4,0.8v2.3
		c0,0.3,0.1,0.6,0.4,0.8l1.3,1.3C138.8,36.5,139.1,36.7,139.3,36.7z"/>
	<path d="M157.3,31.1v2.2c0,0.2-0.1,0.5-0.3,0.6c-0.2,0.2-0.4,0.3-0.6,0.3H150v0.5c0,0.3,0.1,0.6,0.4,0.8L151,36
		c0.3,0.2,0.6,0.3,0.8,0.3h4.6c0.2,0,0.5,0.1,0.6,0.3c0.2,0.2,0.3,0.4,0.3,0.6c0,0.2-0.1,0.5-0.3,0.6c-0.2,0.2-0.4,0.3-0.6,0.3h-4.8
		c-0.3,0-0.6-0.1-1-0.2c-0.3-0.1-0.6-0.3-0.8-0.4l-0.8-0.7c-0.3-0.2-0.5-0.5-0.6-0.8c-0.2-0.4-0.3-0.7-0.3-1v-4.1
		c0-0.2,0.1-0.6,0.3-1c0.2-0.4,0.4-0.7,0.7-0.9l0.8-0.6c0.5-0.4,1-0.6,1.6-0.6h2.5c0.6,0,1.2,0.3,1.8,0.8l0.7,0.6
		C157.1,29.6,157.3,30.3,157.3,31.1z M150.1,31v1.4h5.5v-1.3c0-0.3-0.1-0.6-0.3-0.8l-0.5-0.5c-0.3-0.2-0.5-0.3-0.7-0.3h-2.3
		c-0.3,0-0.5,0.1-0.8,0.3l-0.5,0.4C150.2,30.5,150.1,30.7,150.1,31z"/>
	<path d="M183.9,30.4l-4.9,11c-0.2,0.4-0.5,0.6-0.9,0.6h-2.5c-0.3,0-0.5-0.1-0.6-0.3s-0.3-0.4-0.3-0.6c0-0.3,0.1-0.5,0.3-0.6
		c0.2-0.2,0.4-0.3,0.6-0.3h1.9l1.2-2.9h-0.4c-0.4,0-0.7-0.2-0.9-0.6l-2.7-6.3v-1.7c0-0.3,0.1-0.5,0.3-0.6c0.2-0.2,0.4-0.3,0.6-0.3
		c0.3,0,0.5,0.1,0.6,0.3c0.2,0.2,0.3,0.4,0.3,0.6l0,1.3l2.4,5.5h0.6l2.5-5.5l0-1.4c0-0.2,0.1-0.4,0.3-0.6c0.2-0.2,0.4-0.3,0.6-0.3
		c0.2,0,0.5,0.1,0.6,0.3c0.2,0.2,0.3,0.4,0.3,0.6V30.4z"/>
	<path d="M197.2,31v3.8c0,0.8-0.4,1.6-1.1,2.2s-1.5,1-2.4,1h-2.1c-0.8,0-1.6-0.3-2.4-1s-1.1-1.4-1.1-2.2V31c0-0.8,0.4-1.5,1.1-2.2
		c0.7-0.7,1.5-1,2.4-1h2.1c0.8,0,1.6,0.3,2.4,1S197.2,30.2,197.2,31z M189.9,31.1v3.7c0,0.3,0.1,0.6,0.4,0.8l0.7,0.6
		c0.2,0.1,0.4,0.2,0.6,0.2h2.1c0.3,0,0.6-0.1,0.8-0.3l0.5-0.5c0.2-0.2,0.3-0.4,0.3-0.7v-3.7c0-0.4-0.1-0.6-0.3-0.8l-0.6-0.5
		c-0.2-0.2-0.5-0.3-0.8-0.3h-1.9c-0.4,0-0.7,0.1-0.9,0.3l-0.6,0.5C190,30.5,189.9,30.8,189.9,31.1z"/>
	<path d="M205.7,36.3l3-1.9v-5.7c0-0.3,0.1-0.5,0.3-0.6c0.2-0.2,0.4-0.3,0.6-0.3c0.3,0,0.5,0.1,0.6,0.3c0.2,0.2,0.3,0.4,0.3,0.6v8.6
		c0,0.2-0.1,0.5-0.3,0.6c-0.2,0.2-0.4,0.3-0.6,0.3c-0.2,0-0.5-0.1-0.6-0.3c-0.2-0.2-0.3-0.4-0.3-0.6v-0.7l-1.6,1
		c-0.6,0.4-1.2,0.6-1.9,0.6h-0.8c-0.7,0-1.4-0.3-1.9-0.8c-0.5-0.5-0.8-1.1-0.8-1.9l-0.3-6.8c0-0.2,0.1-0.4,0.3-0.6s0.4-0.3,0.6-0.3
		c0.2,0,0.5,0.1,0.6,0.3c0.2,0.2,0.3,0.4,0.3,0.6l0.2,6.7c0,0.6,0.4,1,1.1,1H205.7z"/>
	<path d="M214.7,37.2v-8.6c0-0.3,0.1-0.5,0.3-0.6c0.2-0.2,0.4-0.3,0.6-0.3c0.3,0,0.5,0.1,0.6,0.3c0.2,0.2,0.3,0.4,0.3,0.7v1.1
		l1.5-1.3c0.6-0.5,1.2-0.8,1.8-0.8h1.3c0.7,0,1.4,0.3,1.9,0.8c0.5,0.5,0.8,1.2,0.8,1.9v0.5c0,0.3-0.1,0.5-0.3,0.7
		c-0.2,0.2-0.4,0.3-0.6,0.3c-0.3,0-0.5-0.1-0.6-0.3c-0.2-0.2-0.3-0.4-0.3-0.6v-0.5c0-0.3-0.1-0.5-0.3-0.6c-0.2-0.2-0.4-0.3-0.6-0.3
		h-1.2c-0.3,0-0.5,0.1-0.8,0.4l-2.6,2.2v5c0,0.3-0.1,0.5-0.3,0.6c-0.2,0.2-0.4,0.3-0.6,0.3c-0.3,0-0.5-0.1-0.6-0.3
		C214.8,37.7,214.7,37.4,214.7,37.2z"/>
	<path d="M243.8,27.7h4.1c0.6,0,1.2,0.2,1.7,0.6c0.5,0.4,0.7,0.8,0.7,1.1c0,0.3-0.1,0.5-0.3,0.6c-0.2,0.2-0.4,0.2-0.6,0.2
		c-0.3,0-0.5-0.1-0.8-0.4s-0.5-0.4-0.7-0.4h-4.1c-0.4,0-0.6,0.2-0.6,0.5c0,0.2,0.1,0.4,0.4,0.5l4.8,2.1c0.5,0.2,0.9,0.6,1.2,1
		c0.3,0.5,0.5,1,0.5,1.6c0,0.8-0.3,1.4-0.8,2s-1.2,0.8-1.9,0.8h-3.7c-0.6,0-1.2-0.2-1.8-0.6c-0.5-0.4-0.8-0.7-0.8-1.1
		c0-0.2,0.1-0.4,0.3-0.6c0.2-0.2,0.4-0.3,0.7-0.3c0.2,0,0.5,0.1,0.7,0.4c0.3,0.3,0.6,0.4,1.1,0.4h3.4c0.3,0,0.5-0.1,0.7-0.3
		c0.2-0.2,0.3-0.4,0.3-0.7c0-0.4-0.2-0.7-0.6-0.9l-4.8-2.2c-0.5-0.2-0.8-0.5-1.1-0.9c-0.3-0.4-0.4-0.8-0.4-1.2
		c0-0.6,0.2-1.2,0.7-1.7C242.6,28,243.1,27.7,243.8,27.7z"/>
	<path d="M263.6,31v3.8c0,0.8-0.4,1.6-1.1,2.2s-1.5,1-2.4,1H258c-0.8,0-1.6-0.3-2.4-1s-1.1-1.4-1.1-2.2V31c0-0.8,0.4-1.5,1.1-2.2
		c0.7-0.7,1.5-1,2.4-1h2.1c0.8,0,1.6,0.3,2.4,1S263.6,30.2,263.6,31z M256.3,31.1v3.7c0,0.3,0.1,0.6,0.4,0.8l0.7,0.6
		c0.2,0.1,0.4,0.2,0.6,0.2h2.1c0.3,0,0.6-0.1,0.8-0.3l0.5-0.5c0.2-0.2,0.3-0.4,0.3-0.7v-3.7c0-0.4-0.1-0.6-0.3-0.8l-0.6-0.5
		c-0.2-0.2-0.5-0.3-0.8-0.3h-1.9c-0.4,0-0.7,0.1-0.9,0.3l-0.6,0.5C256.5,30.5,256.3,30.8,256.3,31.1z"/>
	<path d="M276,38.1h-3.9c-0.7,0-1.3-0.2-1.7-0.6l-1.8-1.5c-0.6-0.5-0.8-1.1-0.8-1.9v-2.4c0-0.8,0.3-1.4,0.9-2l1.6-1.4
		c0.5-0.4,1.1-0.6,1.6-0.6h4c0.3,0,0.5,0.1,0.6,0.3c0.2,0.2,0.3,0.4,0.3,0.6c0,0.3-0.1,0.5-0.3,0.6c-0.2,0.2-0.4,0.3-0.6,0.3h-3.9
		c-0.2,0-0.5,0.1-0.7,0.3l-1.5,1.2c-0.2,0.2-0.4,0.5-0.4,0.8v2.2c0,0.2,0.1,0.4,0.3,0.6l1.6,1.4c0.2,0.2,0.5,0.3,0.8,0.3h3.7
		c0.2,0,0.5,0.1,0.6,0.3c0.2,0.2,0.3,0.4,0.3,0.6c0,0.3-0.1,0.5-0.3,0.6C276.5,38,276.3,38.1,276,38.1z"/>
	<path d="M281.1,37.2V24.7c0-0.3,0.1-0.5,0.3-0.7c0.2-0.2,0.4-0.3,0.6-0.3c0.3,0,0.5,0.1,0.6,0.3c0.2,0.2,0.3,0.4,0.3,0.7v7.4
		l4.9-4.1c0.2-0.2,0.4-0.3,0.7-0.3c0.3,0,0.5,0.1,0.6,0.3c0.2,0.2,0.3,0.4,0.3,0.7c0,0.3-0.1,0.5-0.3,0.6l-3.8,3.2l4.7,4.1
		c0.2,0.2,0.3,0.3,0.3,0.6c0,0.2-0.1,0.4-0.3,0.6c-0.2,0.2-0.4,0.3-0.6,0.3c-0.3,0-0.5-0.1-0.7-0.2l-4.8-4.2l-0.9,0.8v2.7
		c0,0.3-0.1,0.5-0.3,0.6c-0.2,0.2-0.4,0.3-0.6,0.3c-0.3,0-0.5-0.1-0.6-0.3C281.2,37.7,281.1,37.4,281.1,37.2z"/>
	<path d="M296.9,27.7h4.1c0.6,0,1.2,0.2,1.7,0.6c0.5,0.4,0.7,0.8,0.7,1.1c0,0.3-0.1,0.5-0.3,0.6c-0.2,0.2-0.4,0.2-0.6,0.2
		c-0.3,0-0.5-0.1-0.8-0.4s-0.5-0.4-0.7-0.4H297c-0.4,0-0.6,0.2-0.6,0.5c0,0.2,0.1,0.4,0.4,0.5l4.8,2.1c0.5,0.2,0.9,0.6,1.2,1
		c0.3,0.5,0.5,1,0.5,1.6c0,0.8-0.3,1.4-0.8,2s-1.2,0.8-1.9,0.8H297c-0.6,0-1.2-0.2-1.8-0.6c-0.5-0.4-0.8-0.7-0.8-1.1
		c0-0.2,0.1-0.4,0.3-0.6c0.2-0.2,0.4-0.3,0.7-0.3c0.2,0,0.5,0.1,0.7,0.4c0.3,0.3,0.6,0.4,1.1,0.4h3.4c0.3,0,0.5-0.1,0.7-0.3
		c0.2-0.2,0.3-0.4,0.3-0.7c0-0.4-0.2-0.7-0.6-0.9l-4.8-2.2c-0.5-0.2-0.8-0.5-1.1-0.9c-0.3-0.4-0.4-0.8-0.4-1.2
		c0-0.6,0.2-1.2,0.7-1.7C295.7,28,296.3,27.7,296.9,27.7z"/>
	<path d="M323.7,31.6h3.5c0.2,0,0.5,0,0.8,0.1l0-1.3c0-0.3-0.1-0.5-0.3-0.6c-0.2-0.2-0.4-0.3-0.6-0.3h-3.4c-0.2,0-0.5-0.1-0.6-0.3
		c-0.2-0.2-0.3-0.4-0.3-0.6c0-0.3,0.1-0.5,0.3-0.6c0.2-0.2,0.4-0.3,0.6-0.3h3.4c0.7,0,1.4,0.3,1.9,0.8c0.5,0.5,0.8,1.2,0.8,1.9
		l0.2,6.8c0,0.3-0.1,0.5-0.3,0.6c-0.2,0.2-0.4,0.3-0.6,0.3c-0.3,0-0.5-0.1-0.7-0.3c-0.2-0.2-0.3-0.4-0.3-0.6l-1.5,0.9h-3.1
		c-0.8,0-1.4-0.3-1.9-0.8c-0.5-0.5-0.8-1.2-0.8-1.9v-1.1c0-0.8,0.3-1.4,0.8-1.9C322.3,31.9,322.9,31.6,323.7,31.6z M328.2,35.1
		l-0.1-0.8c0-0.3-0.1-0.5-0.3-0.6s-0.4-0.3-0.6-0.3h-3.6c-0.3,0-0.5,0.1-0.6,0.3c-0.2,0.2-0.3,0.4-0.3,0.6v1c0,0.2,0.1,0.5,0.3,0.6
		c0.2,0.2,0.4,0.3,0.6,0.3h2.5L328.2,35.1z"/>
	<path d="M334.3,37.2v-8.6c0-0.3,0.1-0.5,0.3-0.6c0.2-0.2,0.4-0.3,0.6-0.3c0.3,0,0.5,0.1,0.6,0.3c0.2,0.2,0.3,0.4,0.3,0.7v1.1
		l1.5-1.3c0.6-0.5,1.2-0.8,1.8-0.8h1.3c0.7,0,1.4,0.3,1.9,0.8c0.5,0.5,0.8,1.2,0.8,1.9v0.5c0,0.3-0.1,0.5-0.3,0.7
		c-0.2,0.2-0.4,0.3-0.6,0.3c-0.3,0-0.5-0.1-0.6-0.3c-0.2-0.2-0.3-0.4-0.3-0.6v-0.5c0-0.3-0.1-0.5-0.3-0.6c-0.2-0.2-0.4-0.3-0.6-0.3
		h-1.2c-0.3,0-0.5,0.1-0.8,0.4l-2.6,2.2v5c0,0.3-0.1,0.5-0.3,0.6c-0.2,0.2-0.4,0.3-0.6,0.3c-0.3,0-0.5-0.1-0.6-0.3
		C334.4,37.7,334.3,37.4,334.3,37.2z"/>
	<path d="M356.6,31.1v2.2c0,0.2-0.1,0.5-0.3,0.6c-0.2,0.2-0.4,0.3-0.6,0.3h-6.4v0.5c0,0.3,0.1,0.6,0.4,0.8l0.5,0.4
		c0.3,0.2,0.6,0.3,0.8,0.3h4.6c0.2,0,0.5,0.1,0.6,0.3c0.2,0.2,0.3,0.4,0.3,0.6c0,0.2-0.1,0.5-0.3,0.6c-0.2,0.2-0.4,0.3-0.6,0.3H351
		c-0.3,0-0.6-0.1-1-0.2c-0.3-0.1-0.6-0.3-0.8-0.4l-0.8-0.7c-0.3-0.2-0.5-0.5-0.6-0.8c-0.2-0.4-0.3-0.7-0.3-1v-4.1
		c0-0.2,0.1-0.6,0.3-1c0.2-0.4,0.4-0.7,0.7-0.9l0.8-0.6c0.5-0.4,1-0.6,1.6-0.6h2.5c0.6,0,1.2,0.3,1.8,0.8l0.7,0.6
		C356.4,29.6,356.6,30.3,356.6,31.1z M349.4,31v1.4h5.5v-1.3c0-0.3-0.1-0.6-0.3-0.8l-0.5-0.5c-0.3-0.2-0.5-0.3-0.7-0.3H351
		c-0.3,0-0.5,0.1-0.8,0.3l-0.5,0.4C349.5,30.5,349.4,30.7,349.4,31z"/>
	<path d="M376.8,31.6h3.5c0.2,0,0.5,0,0.8,0.1l0-1.3c0-0.3-0.1-0.5-0.3-0.6c-0.2-0.2-0.4-0.3-0.6-0.3h-3.4c-0.2,0-0.5-0.1-0.6-0.3
		c-0.2-0.2-0.3-0.4-0.3-0.6c0-0.3,0.1-0.5,0.3-0.6c0.2-0.2,0.4-0.3,0.6-0.3h3.4c0.7,0,1.4,0.3,1.9,0.8c0.5,0.5,0.8,1.2,0.8,1.9
		l0.2,6.8c0,0.3-0.1,0.5-0.3,0.6c-0.2,0.2-0.4,0.3-0.6,0.3c-0.3,0-0.5-0.1-0.7-0.3c-0.2-0.2-0.3-0.4-0.3-0.6l-1.5,0.9h-3.1
		c-0.8,0-1.4-0.3-1.9-0.8c-0.5-0.5-0.8-1.2-0.8-1.9v-1.1c0-0.8,0.3-1.4,0.8-1.9C375.4,31.9,376.1,31.6,376.8,31.6z M381.3,35.1
		l-0.1-0.8c0-0.3-0.1-0.5-0.3-0.6s-0.4-0.3-0.6-0.3h-3.6c-0.3,0-0.5,0.1-0.6,0.3c-0.2,0.2-0.3,0.4-0.3,0.6v1c0,0.2,0.1,0.5,0.3,0.6
		c0.2,0.2,0.4,0.3,0.6,0.3h2.5L381.3,35.1z"/>
	<path d="M394.7,38.1h-5.5c-0.3,0-0.5-0.1-0.6-0.3c-0.2-0.2-0.3-0.4-0.3-0.6c0-0.2,0.1-0.5,0.3-0.6c0.2-0.2,0.4-0.3,0.6-0.3h1.8
		V25.6h-1.8c-0.3,0-0.5-0.1-0.6-0.3c-0.2-0.2-0.3-0.4-0.3-0.6c0-0.3,0.1-0.5,0.3-0.6c0.2-0.2,0.4-0.3,0.6-0.3h2.8
		c0.2,0,0.5,0.1,0.6,0.3c0.2,0.2,0.3,0.4,0.3,0.6v11.5h1.8c0.2,0,0.5,0.1,0.6,0.3c0.2,0.2,0.3,0.4,0.3,0.6c0,0.3-0.1,0.5-0.3,0.6
		C395.2,38,395,38.1,394.7,38.1z"/>
	<path d="M406.2,31.7v2.1l1.2,2.1l0.6-2.1l0.2-5.3c0-0.2,0.1-0.5,0.3-0.6c0.2-0.2,0.4-0.3,0.6-0.3c0.3,0,0.5,0.1,0.6,0.3
		c0.2,0.2,0.3,0.4,0.3,0.6l-0.2,5.6l-1,3.2c-0.1,0.4-0.4,0.7-0.8,0.7h-1c-0.3,0-0.6-0.2-0.8-0.5l-1-1.7l-1,1.7
		c-0.2,0.3-0.5,0.5-0.8,0.5h-0.9c-0.2,0-0.4-0.1-0.6-0.2c-0.2-0.1-0.3-0.3-0.3-0.4l-0.9-3.3l-0.2-5.5c0-0.2,0.1-0.4,0.3-0.6
		c0.2-0.2,0.4-0.3,0.7-0.3c0.2,0,0.4,0.1,0.6,0.3c0.2,0.2,0.3,0.4,0.3,0.6l0.2,5.3l0.6,2l1.3-2.1v-2.1c0-0.2,0.1-0.5,0.3-0.6
		s0.4-0.3,0.7-0.3c0.2,0,0.5,0.1,0.6,0.3C406.1,31.3,406.2,31.5,406.2,31.7z"/>
	<path d="M416.7,31.6h3.5c0.2,0,0.5,0,0.8,0.1l0-1.3c0-0.3-0.1-0.5-0.3-0.6c-0.2-0.2-0.4-0.3-0.6-0.3h-3.4c-0.2,0-0.5-0.1-0.6-0.3
		c-0.2-0.2-0.3-0.4-0.3-0.6c0-0.3,0.1-0.5,0.3-0.6c0.2-0.2,0.4-0.3,0.6-0.3h3.4c0.7,0,1.4,0.3,1.9,0.8c0.5,0.5,0.8,1.2,0.8,1.9
		l0.2,6.8c0,0.3-0.1,0.5-0.3,0.6c-0.2,0.2-0.4,0.3-0.6,0.3c-0.3,0-0.5-0.1-0.7-0.3c-0.2-0.2-0.3-0.4-0.3-0.6l-1.5,0.9h-3.1
		c-0.8,0-1.4-0.3-1.9-0.8c-0.5-0.5-0.8-1.2-0.8-1.9v-1.1c0-0.8,0.3-1.4,0.8-1.9C415.3,31.9,415.9,31.6,416.7,31.6z M421.2,35.1
		l-0.1-0.8c0-0.3-0.1-0.5-0.3-0.6s-0.4-0.3-0.6-0.3h-3.6c-0.3,0-0.5,0.1-0.6,0.3c-0.2,0.2-0.3,0.4-0.3,0.6v1c0,0.2,0.1,0.5,0.3,0.6
		c0.2,0.2,0.4,0.3,0.6,0.3h2.5L421.2,35.1z"/>
	<path d="M436.4,30.4l-4.9,11c-0.2,0.4-0.5,0.6-0.9,0.6h-2.5c-0.3,0-0.5-0.1-0.6-0.3c-0.2-0.2-0.3-0.4-0.3-0.6
		c0-0.3,0.1-0.5,0.3-0.6c0.2-0.2,0.4-0.3,0.6-0.3h1.9l1.2-2.9h-0.4c-0.4,0-0.7-0.2-0.9-0.6l-2.7-6.3v-1.7c0-0.3,0.1-0.5,0.3-0.6
		c0.2-0.2,0.4-0.3,0.6-0.3c0.3,0,0.5,0.1,0.6,0.3c0.2,0.2,0.3,0.4,0.3,0.6V30l2.4,5.5h0.6l2.5-5.5l0-1.4c0-0.2,0.1-0.4,0.3-0.6
		c0.2-0.2,0.4-0.3,0.6-0.3c0.2,0,0.5,0.1,0.6,0.3c0.2,0.2,0.3,0.4,0.3,0.6V30.4z"/>
	<path d="M443.1,27.7h4.1c0.6,0,1.2,0.2,1.7,0.6c0.5,0.4,0.7,0.8,0.7,1.1c0,0.3-0.1,0.5-0.3,0.6c-0.2,0.2-0.4,0.2-0.6,0.2
		c-0.3,0-0.5-0.1-0.8-0.4s-0.5-0.4-0.7-0.4h-4.1c-0.4,0-0.6,0.2-0.6,0.5c0,0.2,0.1,0.4,0.4,0.5l4.8,2.1c0.5,0.2,0.9,0.6,1.2,1
		c0.3,0.5,0.5,1,0.5,1.6c0,0.8-0.3,1.4-0.8,2c-0.5,0.5-1.2,0.8-1.9,0.8h-3.7c-0.6,0-1.2-0.2-1.8-0.6c-0.5-0.4-0.8-0.7-0.8-1.1
		c0-0.2,0.1-0.4,0.3-0.6c0.2-0.2,0.4-0.3,0.7-0.3c0.2,0,0.5,0.1,0.7,0.4c0.3,0.3,0.6,0.4,1.1,0.4h3.4c0.3,0,0.5-0.1,0.7-0.3
		s0.3-0.4,0.3-0.7c0-0.4-0.2-0.7-0.6-0.9l-4.8-2.2c-0.5-0.2-0.8-0.5-1.1-0.9c-0.3-0.4-0.4-0.8-0.4-1.2c0-0.6,0.2-1.2,0.7-1.7
		C441.9,28,442.4,27.7,443.1,27.7z"/>
	<path d="M469.7,27.7h4.1c0.6,0,1.2,0.2,1.7,0.6c0.5,0.4,0.7,0.8,0.7,1.1c0,0.3-0.1,0.5-0.3,0.6c-0.2,0.2-0.4,0.2-0.6,0.2
		c-0.3,0-0.5-0.1-0.8-0.4s-0.5-0.4-0.7-0.4h-4.1c-0.4,0-0.6,0.2-0.6,0.5c0,0.2,0.1,0.4,0.4,0.5l4.8,2.1c0.5,0.2,0.9,0.6,1.2,1
		c0.3,0.5,0.5,1,0.5,1.6c0,0.8-0.3,1.4-0.8,2c-0.5,0.5-1.2,0.8-1.9,0.8h-3.7c-0.6,0-1.2-0.2-1.8-0.6c-0.5-0.4-0.8-0.7-0.8-1.1
		c0-0.2,0.1-0.4,0.3-0.6c0.2-0.2,0.4-0.3,0.7-0.3c0.2,0,0.5,0.1,0.7,0.4c0.3,0.3,0.6,0.4,1.1,0.4h3.4c0.3,0,0.5-0.1,0.7-0.3
		s0.3-0.4,0.3-0.7c0-0.4-0.2-0.7-0.6-0.9l-4.8-2.2c-0.5-0.2-0.8-0.5-1.1-0.9c-0.3-0.4-0.4-0.8-0.4-1.2c0-0.6,0.2-1.2,0.7-1.7
		C468.5,28,469,27.7,469.7,27.7z"/>
	<path d="M487.7,38.1h-5.5c-0.3,0-0.5-0.1-0.6-0.3c-0.2-0.2-0.3-0.4-0.3-0.6c0-0.2,0.1-0.5,0.3-0.6c0.2-0.2,0.4-0.3,0.6-0.3h1.8
		V25.6h-1.8c-0.3,0-0.5-0.1-0.6-0.3c-0.2-0.2-0.3-0.4-0.3-0.6c0-0.3,0.1-0.5,0.3-0.6c0.2-0.2,0.4-0.3,0.6-0.3h2.8
		c0.2,0,0.5,0.1,0.6,0.3c0.2,0.2,0.3,0.4,0.3,0.6v11.5h1.8c0.2,0,0.5,0.1,0.6,0.3c0.2,0.2,0.3,0.4,0.3,0.6c0,0.3-0.1,0.5-0.3,0.6
		C488.2,38,488,38.1,487.7,38.1z"/>
	<path d="M501,38.1h-5.5c-0.3,0-0.5-0.1-0.6-0.3c-0.2-0.2-0.3-0.4-0.3-0.6c0-0.2,0.1-0.5,0.3-0.6c0.2-0.2,0.4-0.3,0.6-0.3h1.8v-6.7
		h-1.8c-0.3,0-0.5-0.1-0.6-0.3c-0.2-0.2-0.3-0.4-0.3-0.6c0-0.3,0.1-0.5,0.3-0.6c0.2-0.2,0.4-0.3,0.6-0.3h2.8c0.3,0,0.5,0.1,0.6,0.3
		c0.2,0.2,0.3,0.4,0.3,0.6v7.6h1.8c0.3,0,0.5,0.1,0.6,0.3c0.2,0.2,0.3,0.4,0.3,0.6c0,0.3-0.1,0.5-0.3,0.6
		C501.5,38,501.3,38.1,501,38.1z M497.3,23h0.9c0.3,0,0.5,0.1,0.6,0.3c0.2,0.2,0.3,0.4,0.3,0.6v0.8c0,0.3-0.1,0.5-0.3,0.6
		c-0.2,0.2-0.4,0.3-0.6,0.3h-1c-0.3,0-0.5-0.1-0.6-0.3c-0.2-0.2-0.3-0.4-0.3-0.6l0-0.8c0-0.3,0.1-0.5,0.3-0.6
		C496.9,23.1,497.1,23,497.3,23z"/>
	<path d="M512.7,42h-3.9c-0.3,0-0.5-0.1-0.6-0.3c-0.2-0.2-0.3-0.4-0.3-0.6c0-0.3,0.1-0.5,0.3-0.6c0.2-0.2,0.4-0.3,0.6-0.3h3.9
		c0.2,0,0.5-0.1,0.7-0.3l0.6-0.5c0.2-0.2,0.3-0.4,0.3-0.6V36c-0.8,0.9-1.7,1.3-2.5,1.3h-1.4c-0.7,0-1.4-0.2-1.9-0.7l-0.7-0.6
		c-0.2-0.2-0.4-0.5-0.6-0.8c-0.2-0.4-0.2-0.7-0.2-1.1v-3c0-0.4,0.1-0.8,0.2-1.2c0.2-0.4,0.4-0.7,0.6-0.8l0.7-0.6
		c0.5-0.5,1.2-0.7,1.9-0.7h1.3c0.7,0,1.4,0.3,1.9,0.8l0.6,0.5l0-0.4c0-0.2,0.1-0.5,0.3-0.6c0.2-0.2,0.4-0.3,0.6-0.3
		c0.3,0,0.5,0.1,0.6,0.3c0.2,0.2,0.3,0.4,0.3,0.6v10.1c0,0.8-0.3,1.4-0.9,2l-0.7,0.6c-0.2,0.2-0.4,0.3-0.8,0.4
		C513.3,41.9,513,42,512.7,42z M511.7,29.5h-1.2c-0.3,0-0.5,0.1-0.8,0.3l-0.6,0.5c-0.2,0.2-0.3,0.4-0.3,0.7v3c0,0.2,0.1,0.5,0.4,0.7
		l0.6,0.5c0.2,0.2,0.4,0.2,0.6,0.2h1.5c0.2,0,0.5-0.1,0.7-0.3l1.4-1.2c0.2-0.2,0.3-0.4,0.3-0.7v-1.4c0-0.3-0.1-0.6-0.4-0.8l-1.5-1.3
		C512.2,29.6,512,29.5,511.7,29.5z"/>
	<path d="M520.3,37.2V24.7c0-0.2,0.1-0.5,0.3-0.6c0.2-0.2,0.4-0.3,0.6-0.3s0.5,0.1,0.6,0.3c0.2,0.2,0.3,0.4,0.3,0.6v4.6l1.5-0.9
		c0.7-0.4,1.2-0.6,1.8-0.6h1.1c0.7,0,1.4,0.3,1.9,0.8s0.8,1.2,0.8,1.9l0.2,6.8c0,0.3-0.1,0.5-0.3,0.6c-0.2,0.2-0.4,0.3-0.6,0.3
		s-0.5-0.1-0.6-0.3s-0.3-0.4-0.3-0.6l-0.2-6.8c0-0.2-0.1-0.5-0.3-0.6c-0.2-0.2-0.4-0.3-0.6-0.3h-1c-0.2,0-0.5,0.1-0.8,0.3l-2.6,1.7
		v5.7c0,0.3-0.1,0.5-0.3,0.6c-0.2,0.2-0.4,0.3-0.6,0.3s-0.5-0.1-0.6-0.3C520.4,37.7,520.3,37.4,520.3,37.2z"/>
	<path d="M539.9,38.1h-1.8c-0.7,0-1.4-0.3-1.9-0.8c-0.5-0.5-0.8-1.2-0.8-1.9v-5.9h-0.9c-0.3,0-0.5-0.1-0.6-0.3
		c-0.2-0.2-0.3-0.4-0.3-0.6c0-0.3,0.1-0.5,0.3-0.6c0.2-0.2,0.4-0.3,0.6-0.3h0.9v-2.2c0-0.3,0.1-0.5,0.3-0.6c0.2-0.2,0.4-0.3,0.6-0.3
		c0.2,0,0.4,0.1,0.6,0.3c0.2,0.2,0.3,0.4,0.3,0.6v2.2h3.6c0.2,0,0.5,0.1,0.6,0.3c0.2,0.2,0.3,0.4,0.3,0.6c0,0.3-0.1,0.5-0.3,0.6
		c-0.2,0.2-0.4,0.3-0.6,0.3h-3.7v5.9c0,0.2,0.1,0.5,0.3,0.6c0.2,0.2,0.4,0.3,0.6,0.3h1.8c0.5,0,0.8-0.3,1-0.8
		c0.2-0.5,0.5-0.8,0.9-0.8c0.3,0,0.5,0.1,0.6,0.3c0.2,0.2,0.3,0.4,0.3,0.7c0,0.5-0.3,1.1-0.8,1.6C541.4,37.8,540.7,38.1,539.9,38.1z
		"/>
	<path d="M554.2,38.1h-5.5c-0.3,0-0.5-0.1-0.6-0.3c-0.2-0.2-0.3-0.4-0.3-0.6c0-0.2,0.1-0.5,0.3-0.6c0.2-0.2,0.4-0.3,0.6-0.3h1.8
		V25.6h-1.8c-0.3,0-0.5-0.1-0.6-0.3c-0.2-0.2-0.3-0.4-0.3-0.6c0-0.3,0.1-0.5,0.3-0.6c0.2-0.2,0.4-0.3,0.6-0.3h2.8
		c0.2,0,0.5,0.1,0.6,0.3c0.2,0.2,0.3,0.4,0.3,0.6v11.5h1.8c0.2,0,0.5,0.1,0.6,0.3c0.2,0.2,0.3,0.4,0.3,0.6c0,0.3-0.1,0.5-0.3,0.6
		C554.6,38,554.4,38.1,554.2,38.1z"/>
	<path d="M569.3,30.4l-4.9,11c-0.2,0.4-0.5,0.6-0.9,0.6H561c-0.3,0-0.5-0.1-0.6-0.3c-0.2-0.2-0.3-0.4-0.3-0.6c0-0.3,0.1-0.5,0.3-0.6
		c0.2-0.2,0.4-0.3,0.6-0.3h1.9l1.2-2.9h-0.4c-0.4,0-0.7-0.2-0.9-0.6l-2.7-6.3v-1.7c0-0.3,0.1-0.5,0.3-0.6c0.2-0.2,0.4-0.3,0.6-0.3
		c0.3,0,0.5,0.1,0.6,0.3c0.2,0.2,0.3,0.4,0.3,0.6V30l2.4,5.5h0.6l2.5-5.5l0-1.4c0-0.2,0.1-0.4,0.3-0.6c0.2-0.2,0.4-0.3,0.6-0.3
		c0.2,0,0.5,0.1,0.6,0.3c0.2,0.2,0.3,0.4,0.3,0.6V30.4z"/>
	<path d="M81.8,63.6V55c0-0.3,0.1-0.5,0.3-0.6c0.2-0.2,0.4-0.3,0.6-0.3c0.3,0,0.5,0.1,0.6,0.3c0.2,0.2,0.3,0.4,0.3,0.7v1.1l1.5-1.3
		c0.6-0.5,1.2-0.8,1.8-0.8h1.3c0.7,0,1.4,0.3,1.9,0.8c0.5,0.5,0.8,1.2,0.8,1.9v0.5c0,0.3-0.1,0.5-0.3,0.7c-0.2,0.2-0.4,0.3-0.6,0.3
		c-0.3,0-0.5-0.1-0.6-0.3c-0.2-0.2-0.3-0.4-0.3-0.6v-0.5c0-0.3-0.1-0.5-0.3-0.6c-0.2-0.2-0.4-0.3-0.6-0.3H87c-0.3,0-0.5,0.1-0.8,0.4
		l-2.6,2.2v5c0,0.3-0.1,0.5-0.3,0.6c-0.2,0.2-0.4,0.3-0.6,0.3c-0.3,0-0.5-0.1-0.6-0.3C81.9,64.1,81.8,63.8,81.8,63.6z"/>
	<path d="M104.2,57.4v3.8c0,0.8-0.4,1.6-1.1,2.2s-1.5,1-2.4,1h-2.1c-0.8,0-1.6-0.3-2.4-1s-1.1-1.4-1.1-2.2v-3.8
		c0-0.8,0.4-1.5,1.1-2.2c0.7-0.7,1.5-1,2.4-1h2.1c0.8,0,1.6,0.3,2.4,1S104.2,56.6,104.2,57.4z M96.9,57.5v3.7c0,0.3,0.1,0.6,0.4,0.8
		l0.7,0.6c0.2,0.1,0.4,0.2,0.6,0.2h2.1c0.3,0,0.6-0.1,0.8-0.3l0.5-0.5c0.2-0.2,0.3-0.4,0.3-0.7v-3.7c0-0.4-0.1-0.6-0.3-0.8l-0.6-0.5
		c-0.2-0.2-0.5-0.3-0.8-0.3h-1.9c-0.4,0-0.7,0.1-0.9,0.3l-0.6,0.5C97,56.9,96.9,57.2,96.9,57.5z"/>
	<path d="M114.7,64.5h-1.8c-0.7,0-1.4-0.3-1.9-0.8c-0.5-0.5-0.8-1.2-0.8-1.9v-5.9h-0.9c-0.3,0-0.5-0.1-0.6-0.3
		c-0.2-0.2-0.3-0.4-0.3-0.6c0-0.3,0.1-0.5,0.3-0.6c0.2-0.2,0.4-0.3,0.6-0.3h0.9v-2.2c0-0.3,0.1-0.5,0.3-0.6c0.2-0.2,0.4-0.3,0.6-0.3
		c0.2,0,0.4,0.1,0.6,0.3c0.2,0.2,0.3,0.4,0.3,0.6v2.2h3.6c0.2,0,0.5,0.1,0.6,0.3c0.2,0.2,0.3,0.4,0.3,0.6c0,0.3-0.1,0.5-0.3,0.6
		c-0.2,0.2-0.4,0.3-0.6,0.3H112v5.9c0,0.2,0.1,0.5,0.3,0.6c0.2,0.2,0.4,0.3,0.6,0.3h1.8c0.5,0,0.8-0.3,1-0.8
		c0.2-0.5,0.5-0.8,0.9-0.8c0.3,0,0.5,0.1,0.6,0.3c0.2,0.2,0.3,0.4,0.3,0.7c0,0.5-0.3,1.1-0.8,1.6C116.2,64.2,115.5,64.5,114.7,64.5z
		"/>
	<path d="M124.3,58h3.5c0.2,0,0.5,0,0.8,0.1l0-1.3c0-0.3-0.1-0.5-0.3-0.6c-0.2-0.2-0.4-0.3-0.6-0.3h-3.4c-0.2,0-0.5-0.1-0.6-0.3
		c-0.2-0.2-0.3-0.4-0.3-0.6c0-0.3,0.1-0.5,0.3-0.6c0.2-0.2,0.4-0.3,0.6-0.3h3.4c0.7,0,1.4,0.3,1.9,0.8c0.5,0.5,0.8,1.2,0.8,1.9
		l0.2,6.8c0,0.3-0.1,0.5-0.3,0.6c-0.2,0.2-0.4,0.3-0.6,0.3c-0.3,0-0.5-0.1-0.7-0.3c-0.2-0.2-0.3-0.4-0.3-0.6l-1.5,0.9h-3.1
		c-0.8,0-1.4-0.3-1.9-0.8c-0.5-0.5-0.8-1.2-0.8-1.9v-1.1c0-0.8,0.3-1.4,0.8-1.9C123,58.3,123.6,58,124.3,58z M128.9,61.5l-0.1-0.8
		c0-0.3-0.1-0.5-0.3-0.6s-0.4-0.3-0.6-0.3h-3.6c-0.3,0-0.5,0.1-0.6,0.3c-0.2,0.2-0.3,0.4-0.3,0.6v1c0,0.2,0.1,0.5,0.3,0.6
		c0.2,0.2,0.4,0.3,0.6,0.3h2.5L128.9,61.5z"/>
	<path d="M141.3,64.5h-1.8c-0.7,0-1.4-0.3-1.9-0.8c-0.5-0.5-0.8-1.2-0.8-1.9v-5.9h-0.9c-0.3,0-0.5-0.1-0.6-0.3
		c-0.2-0.2-0.3-0.4-0.3-0.6c0-0.3,0.1-0.5,0.3-0.6c0.2-0.2,0.4-0.3,0.6-0.3h0.9v-2.2c0-0.3,0.1-0.5,0.3-0.6c0.2-0.2,0.4-0.3,0.6-0.3
		c0.2,0,0.4,0.1,0.6,0.3c0.2,0.2,0.3,0.4,0.3,0.6v2.2h3.6c0.2,0,0.5,0.1,0.6,0.3c0.2,0.2,0.3,0.4,0.3,0.6c0,0.3-0.1,0.5-0.3,0.6
		c-0.2,0.2-0.4,0.3-0.6,0.3h-3.7v5.9c0,0.2,0.1,0.5,0.3,0.6c0.2,0.2,0.4,0.3,0.6,0.3h1.8c0.5,0,0.8-0.3,1-0.8
		c0.2-0.5,0.5-0.8,0.9-0.8c0.3,0,0.5,0.1,0.6,0.3c0.2,0.2,0.3,0.4,0.3,0.7c0,0.5-0.3,1.1-0.8,1.6C142.7,64.2,142.1,64.5,141.3,64.5z
		"/>
	<path d="M157.3,57.5v2.2c0,0.2-0.1,0.5-0.3,0.6c-0.2,0.2-0.4,0.3-0.6,0.3H150v0.5c0,0.3,0.1,0.6,0.4,0.8l0.5,0.4
		c0.3,0.2,0.6,0.3,0.8,0.3h4.6c0.2,0,0.5,0.1,0.6,0.3c0.2,0.2,0.3,0.4,0.3,0.6c0,0.2-0.1,0.5-0.3,0.6c-0.2,0.2-0.4,0.3-0.6,0.3h-4.8
		c-0.3,0-0.6-0.1-1-0.2c-0.3-0.1-0.6-0.3-0.8-0.4l-0.8-0.7c-0.3-0.2-0.5-0.5-0.6-0.8c-0.2-0.4-0.3-0.7-0.3-1v-4.1
		c0-0.2,0.1-0.6,0.3-1c0.2-0.4,0.4-0.7,0.7-0.9l0.8-0.6c0.5-0.4,1-0.6,1.6-0.6h2.5c0.6,0,1.2,0.3,1.8,0.8l0.7,0.6
		C157.1,56,157.3,56.7,157.3,57.5z M150.1,57.4v1.4h5.5v-1.3c0-0.3-0.1-0.6-0.3-0.8l-0.5-0.5c-0.3-0.2-0.5-0.3-0.7-0.3h-2.3
		c-0.3,0-0.5,0.1-0.8,0.3l-0.5,0.4C150.2,56.9,150.1,57.1,150.1,57.4z"/>
	<path d="M168.8,55.4v-4.3c0-0.3,0.1-0.5,0.3-0.6c0.2-0.2,0.4-0.3,0.6-0.3c0.3,0,0.5,0.1,0.6,0.3c0.2,0.2,0.3,0.4,0.3,0.6v12.5
		c0,0.3-0.1,0.5-0.3,0.6c-0.2,0.2-0.4,0.3-0.6,0.3c-0.3,0-0.5-0.1-0.6-0.3c-0.2-0.2-0.3-0.4-0.3-0.6v-0.4c-0.9,0.9-1.7,1.3-2.5,1.3
		h-1.5c-0.6,0-1.2-0.3-1.8-0.8l-0.8-0.6c-0.2-0.2-0.3-0.4-0.5-0.8c-0.2-0.4-0.2-0.7-0.2-1.1v-3.7c0-0.4,0.1-0.8,0.3-1.2
		c0.2-0.4,0.4-0.7,0.6-0.9l0.7-0.6c0.5-0.5,1.2-0.7,1.9-0.7h1.3c0.7,0,1.4,0.3,1.9,0.8L168.8,55.4z M166.2,55.9h-1.3
		c-0.3,0-0.5,0.1-0.7,0.3l-0.6,0.5c-0.2,0.2-0.3,0.4-0.3,0.7v3.8c0,0.3,0.1,0.5,0.4,0.7l0.6,0.5c0.2,0.2,0.4,0.2,0.6,0.2h1.5
		c0.2,0,0.4-0.1,0.7-0.3l1.4-1.2c0.2-0.2,0.4-0.5,0.4-0.8v-2c0-0.4-0.1-0.8-0.4-1l-1.5-1.3C166.7,56,166.5,55.9,166.2,55.9z"/>
	<path d="M190.6,54.1h4.1c0.6,0,1.2,0.2,1.7,0.6c0.5,0.4,0.7,0.8,0.7,1.1c0,0.3-0.1,0.5-0.3,0.6c-0.2,0.2-0.4,0.2-0.6,0.2
		c-0.3,0-0.5-0.1-0.8-0.4s-0.5-0.4-0.7-0.4h-4.1c-0.4,0-0.6,0.2-0.6,0.5c0,0.2,0.1,0.4,0.4,0.5l4.8,2.1c0.5,0.2,0.9,0.6,1.2,1
		c0.3,0.5,0.5,1,0.5,1.6c0,0.8-0.3,1.4-0.8,2s-1.2,0.8-1.9,0.8h-3.7c-0.6,0-1.2-0.2-1.8-0.6c-0.5-0.4-0.8-0.7-0.8-1.1
		c0-0.2,0.1-0.4,0.3-0.6c0.2-0.2,0.4-0.3,0.7-0.3c0.2,0,0.5,0.1,0.7,0.4c0.3,0.3,0.6,0.4,1.1,0.4h3.4c0.3,0,0.5-0.1,0.7-0.3
		c0.2-0.2,0.3-0.4,0.3-0.7c0-0.4-0.2-0.7-0.6-0.9l-4.8-2.2c-0.5-0.2-0.8-0.5-1.1-0.9c-0.3-0.4-0.4-0.8-0.4-1.2
		c0-0.6,0.2-1.2,0.7-1.7C189.4,54.4,190,54.1,190.6,54.1z"/>
	<path d="M210.5,57.4v3.8c0,0.8-0.4,1.6-1.1,2.2s-1.5,1-2.4,1h-2.1c-0.8,0-1.6-0.3-2.4-1s-1.1-1.4-1.1-2.2v-3.8
		c0-0.8,0.4-1.5,1.1-2.2c0.7-0.7,1.5-1,2.4-1h2.1c0.8,0,1.6,0.3,2.4,1S210.5,56.6,210.5,57.4z M203.2,57.5v3.7
		c0,0.3,0.1,0.6,0.4,0.8l0.7,0.6c0.2,0.1,0.4,0.2,0.6,0.2h2.1c0.3,0,0.6-0.1,0.8-0.3l0.5-0.5c0.2-0.2,0.3-0.4,0.3-0.7v-3.7
		c0-0.4-0.1-0.6-0.3-0.8l-0.6-0.5c-0.2-0.2-0.5-0.3-0.8-0.3h-1.9c-0.4,0-0.7,0.1-0.9,0.3l-0.6,0.5C203.3,56.9,203.2,57.2,203.2,57.5
		z"/>
	<path d="M237.1,56.8l-4.9,11c-0.2,0.4-0.5,0.6-0.9,0.6h-2.5c-0.3,0-0.5-0.1-0.6-0.3s-0.3-0.4-0.3-0.6c0-0.3,0.1-0.5,0.3-0.6
		c0.2-0.2,0.4-0.3,0.6-0.3h1.9l1.2-2.9h-0.4c-0.4,0-0.7-0.2-0.9-0.6l-2.7-6.3V55c0-0.3,0.1-0.5,0.3-0.6c0.2-0.2,0.4-0.3,0.6-0.3
		c0.3,0,0.5,0.1,0.6,0.3c0.2,0.2,0.3,0.4,0.3,0.6l0,1.3l2.4,5.5h0.6l2.5-5.5l0-1.4c0-0.2,0.1-0.4,0.3-0.6c0.2-0.2,0.4-0.3,0.6-0.3
		c0.2,0,0.5,0.1,0.6,0.3c0.2,0.2,0.3,0.4,0.3,0.6V56.8z"/>
	<path d="M250.3,57.4v3.8c0,0.8-0.4,1.6-1.1,2.2s-1.5,1-2.4,1h-2.1c-0.8,0-1.6-0.3-2.4-1s-1.1-1.4-1.1-2.2v-3.8
		c0-0.8,0.4-1.5,1.1-2.2c0.7-0.7,1.5-1,2.4-1h2.1c0.8,0,1.6,0.3,2.4,1S250.3,56.6,250.3,57.4z M243.1,57.5v3.7
		c0,0.3,0.1,0.6,0.4,0.8l0.7,0.6c0.2,0.1,0.4,0.2,0.6,0.2h2.1c0.3,0,0.6-0.1,0.8-0.3l0.5-0.5c0.2-0.2,0.3-0.4,0.3-0.7v-3.7
		c0-0.4-0.1-0.6-0.3-0.8l-0.6-0.5c-0.2-0.2-0.5-0.3-0.8-0.3h-1.9c-0.4,0-0.7,0.1-0.9,0.3l-0.6,0.5C243.2,56.9,243.1,57.2,243.1,57.5
		z"/>
	<path d="M258.8,62.7l3-1.9V55c0-0.3,0.1-0.5,0.3-0.6c0.2-0.2,0.4-0.3,0.6-0.3c0.3,0,0.5,0.1,0.6,0.3c0.2,0.2,0.3,0.4,0.3,0.6v8.6
		c0,0.2-0.1,0.5-0.3,0.6c-0.2,0.2-0.4,0.3-0.6,0.3c-0.2,0-0.5-0.1-0.6-0.3c-0.2-0.2-0.3-0.4-0.3-0.6v-0.7l-1.6,1
		c-0.6,0.4-1.2,0.6-1.9,0.6h-0.8c-0.7,0-1.4-0.3-1.9-0.8c-0.5-0.5-0.8-1.1-0.8-1.9l-0.3-6.8c0-0.2,0.1-0.4,0.3-0.6s0.4-0.3,0.6-0.3
		c0.2,0,0.5,0.1,0.6,0.3c0.2,0.2,0.3,0.4,0.3,0.6l0.2,6.7c0,0.6,0.4,1,1.1,1H258.8z"/>
	<path d="M267.8,63.6V55c0-0.3,0.1-0.5,0.3-0.6c0.2-0.2,0.4-0.3,0.6-0.3c0.3,0,0.5,0.1,0.6,0.3c0.2,0.2,0.3,0.4,0.3,0.7v1.1l1.5-1.3
		c0.6-0.5,1.2-0.8,1.8-0.8h1.3c0.7,0,1.4,0.3,1.9,0.8c0.5,0.5,0.8,1.2,0.8,1.9v0.5c0,0.3-0.1,0.5-0.3,0.7c-0.2,0.2-0.4,0.3-0.6,0.3
		c-0.3,0-0.5-0.1-0.6-0.3c-0.2-0.2-0.3-0.4-0.3-0.6v-0.5c0-0.3-0.1-0.5-0.3-0.6c-0.2-0.2-0.4-0.3-0.6-0.3H273
		c-0.3,0-0.5,0.1-0.8,0.4l-2.6,2.2v5c0,0.3-0.1,0.5-0.3,0.6c-0.2,0.2-0.4,0.3-0.6,0.3c-0.3,0-0.5-0.1-0.6-0.3
		C267.9,64.1,267.8,63.8,267.8,63.6z"/>
	<path d="M297.1,58h3.5c0.2,0,0.5,0,0.8,0.1l0-1.3c0-0.3-0.1-0.5-0.3-0.6c-0.2-0.2-0.4-0.3-0.6-0.3h-3.4c-0.2,0-0.5-0.1-0.6-0.3
		c-0.2-0.2-0.3-0.4-0.3-0.6c0-0.3,0.1-0.5,0.3-0.6c0.2-0.2,0.4-0.3,0.6-0.3h3.4c0.7,0,1.4,0.3,1.9,0.8c0.5,0.5,0.8,1.2,0.8,1.9
		l0.2,6.8c0,0.3-0.1,0.5-0.3,0.6c-0.2,0.2-0.4,0.3-0.6,0.3c-0.3,0-0.5-0.1-0.7-0.3c-0.2-0.2-0.3-0.4-0.3-0.6l-1.5,0.9h-3.1
		c-0.8,0-1.4-0.3-1.9-0.8c-0.5-0.5-0.8-1.2-0.8-1.9v-1.1c0-0.8,0.3-1.4,0.8-1.9C295.7,58.3,296.3,58,297.1,58z M301.6,61.5l-0.1-0.8
		c0-0.3-0.1-0.5-0.3-0.6s-0.4-0.3-0.6-0.3h-3.6c-0.3,0-0.5,0.1-0.6,0.3c-0.2,0.2-0.3,0.4-0.3,0.6v1c0,0.2,0.1,0.5,0.3,0.6
		c0.2,0.2,0.4,0.3,0.6,0.3h2.5L301.6,61.5z"/>
	<path d="M315,64.5h-5.5c-0.3,0-0.5-0.1-0.6-0.3c-0.2-0.2-0.3-0.4-0.3-0.6c0-0.2,0.1-0.5,0.3-0.6c0.2-0.2,0.4-0.3,0.6-0.3h1.8V52
		h-1.8c-0.3,0-0.5-0.1-0.6-0.3c-0.2-0.2-0.3-0.4-0.3-0.6c0-0.3,0.1-0.5,0.3-0.6c0.2-0.2,0.4-0.3,0.6-0.3h2.8c0.2,0,0.5,0.1,0.6,0.3
		c0.2,0.2,0.3,0.4,0.3,0.6v11.5h1.8c0.2,0,0.5,0.1,0.6,0.3c0.2,0.2,0.3,0.4,0.3,0.6c0,0.3-0.1,0.5-0.3,0.6
		C315.4,64.4,315.2,64.5,315,64.5z"/>
	<path d="M326.4,58.1v2.1l1.2,2.1l0.6-2.1l0.2-5.3c0-0.2,0.1-0.5,0.3-0.6c0.2-0.2,0.4-0.3,0.6-0.3c0.3,0,0.5,0.1,0.6,0.3
		c0.2,0.2,0.3,0.4,0.3,0.6l-0.2,5.6l-1,3.2c-0.1,0.4-0.4,0.7-0.8,0.7h-1c-0.3,0-0.6-0.2-0.8-0.5l-1-1.7l-1,1.7
		c-0.2,0.3-0.5,0.5-0.8,0.5h-0.9c-0.2,0-0.4-0.1-0.6-0.2c-0.2-0.1-0.3-0.3-0.3-0.4l-0.9-3.3l-0.2-5.5c0-0.2,0.1-0.4,0.3-0.6
		c0.2-0.2,0.4-0.3,0.7-0.3c0.2,0,0.4,0.1,0.6,0.3c0.2,0.2,0.3,0.4,0.3,0.6l0.2,5.3l0.6,2l1.3-2.1v-2.1c0-0.2,0.1-0.5,0.3-0.6
		c0.2-0.2,0.4-0.3,0.7-0.3c0.2,0,0.5,0.1,0.6,0.3C326.3,57.7,326.4,57.9,326.4,58.1z"/>
	<path d="M337,58h3.5c0.2,0,0.5,0,0.8,0.1l0-1.3c0-0.3-0.1-0.5-0.3-0.6c-0.2-0.2-0.4-0.3-0.6-0.3H337c-0.2,0-0.5-0.1-0.6-0.3
		c-0.2-0.2-0.3-0.4-0.3-0.6c0-0.3,0.1-0.5,0.3-0.6c0.2-0.2,0.4-0.3,0.6-0.3h3.4c0.7,0,1.4,0.3,1.9,0.8c0.5,0.5,0.8,1.2,0.8,1.9
		l0.2,6.8c0,0.3-0.1,0.5-0.3,0.6c-0.2,0.2-0.4,0.3-0.6,0.3c-0.3,0-0.5-0.1-0.7-0.3c-0.2-0.2-0.3-0.4-0.3-0.6l-1.5,0.9H337
		c-0.8,0-1.4-0.3-1.9-0.8c-0.5-0.5-0.8-1.2-0.8-1.9v-1.1c0-0.8,0.3-1.4,0.8-1.9C335.6,58.3,336.2,58,337,58z M341.5,61.5l-0.1-0.8
		c0-0.3-0.1-0.5-0.3-0.6s-0.4-0.3-0.6-0.3H337c-0.3,0-0.5,0.1-0.6,0.3c-0.2,0.2-0.3,0.4-0.3,0.6v1c0,0.2,0.1,0.5,0.3,0.6
		c0.2,0.2,0.4,0.3,0.6,0.3h2.5L341.5,61.5z"/>
	<path d="M356.7,56.8l-4.9,11c-0.2,0.4-0.5,0.6-0.9,0.6h-2.5c-0.3,0-0.5-0.1-0.6-0.3s-0.3-0.4-0.3-0.6c0-0.3,0.1-0.5,0.3-0.6
		c0.2-0.2,0.4-0.3,0.6-0.3h1.9l1.2-2.9h-0.4c-0.4,0-0.7-0.2-0.9-0.6l-2.7-6.3V55c0-0.3,0.1-0.5,0.3-0.6c0.2-0.2,0.4-0.3,0.6-0.3
		c0.3,0,0.5,0.1,0.6,0.3c0.2,0.2,0.3,0.4,0.3,0.6l0,1.3l2.4,5.5h0.6l2.5-5.5l0-1.4c0-0.2,0.1-0.4,0.3-0.6c0.2-0.2,0.4-0.3,0.6-0.3
		c0.2,0,0.5,0.1,0.6,0.3c0.2,0.2,0.3,0.4,0.3,0.6V56.8z"/>
	<path d="M363.4,54.1h4.1c0.6,0,1.2,0.2,1.7,0.6c0.5,0.4,0.7,0.8,0.7,1.1c0,0.3-0.1,0.5-0.3,0.6c-0.2,0.2-0.4,0.2-0.6,0.2
		c-0.3,0-0.5-0.1-0.8-0.4s-0.5-0.4-0.7-0.4h-4.1c-0.4,0-0.6,0.2-0.6,0.5c0,0.2,0.1,0.4,0.4,0.5l4.8,2.1c0.5,0.2,0.9,0.6,1.2,1
		c0.3,0.5,0.5,1,0.5,1.6c0,0.8-0.3,1.4-0.8,2s-1.2,0.8-1.9,0.8h-3.7c-0.6,0-1.2-0.2-1.8-0.6c-0.5-0.4-0.8-0.7-0.8-1.1
		c0-0.2,0.1-0.4,0.3-0.6c0.2-0.2,0.4-0.3,0.7-0.3c0.2,0,0.5,0.1,0.7,0.4c0.3,0.3,0.6,0.4,1.1,0.4h3.4c0.3,0,0.5-0.1,0.7-0.3
		c0.2-0.2,0.3-0.4,0.3-0.7c0-0.4-0.2-0.7-0.6-0.9l-4.8-2.2c-0.5-0.2-0.8-0.5-1.1-0.9c-0.3-0.4-0.4-0.8-0.4-1.2
		c0-0.6,0.2-1.2,0.7-1.7C362.2,54.4,362.7,54.1,363.4,54.1z"/>
	<path d="M391.7,62.7l3-1.9V55c0-0.3,0.1-0.5,0.3-0.6c0.2-0.2,0.4-0.3,0.6-0.3c0.3,0,0.5,0.1,0.6,0.3c0.2,0.2,0.3,0.4,0.3,0.6v8.6
		c0,0.2-0.1,0.5-0.3,0.6c-0.2,0.2-0.4,0.3-0.6,0.3c-0.2,0-0.5-0.1-0.6-0.3c-0.2-0.2-0.3-0.4-0.3-0.6v-0.7l-1.6,1
		c-0.6,0.4-1.2,0.6-1.9,0.6h-0.8c-0.7,0-1.4-0.3-1.9-0.8c-0.5-0.5-0.8-1.1-0.8-1.9l-0.3-6.8c0-0.2,0.1-0.4,0.3-0.6s0.4-0.3,0.6-0.3
		c0.2,0,0.5,0.1,0.6,0.3c0.2,0.2,0.3,0.4,0.3,0.6l0.2,6.7c0,0.6,0.4,1,1.1,1H391.7z"/>
	<path d="M405,56.2l-2.5,1.6v5.8c0,0.2-0.1,0.5-0.3,0.6c-0.2,0.2-0.4,0.3-0.6,0.3s-0.5-0.1-0.6-0.3c-0.2-0.2-0.3-0.4-0.3-0.6V55
		c0-0.3,0.1-0.5,0.3-0.6c0.2-0.2,0.4-0.3,0.6-0.3c0.2,0,0.5,0.1,0.6,0.3s0.3,0.4,0.3,0.6v0.6l1.6-1c0.6-0.4,1.2-0.5,1.9-0.5h0.8
		c0.7,0,1.3,0.3,1.9,0.8c0.5,0.5,0.8,1.1,0.8,1.9l0.2,6.8c0,0.2-0.1,0.5-0.3,0.6c-0.2,0.2-0.4,0.3-0.6,0.3c-0.2,0-0.4-0.1-0.6-0.2
		s-0.3-0.4-0.3-0.7l-0.3-6.7c0-0.6-0.4-0.9-1-0.9h-0.9C405.6,55.9,405.3,56,405,56.2z"/>
	<path d="M422.2,64.5h-3.9c-0.7,0-1.3-0.2-1.7-0.6l-1.8-1.5c-0.6-0.5-0.8-1.1-0.8-1.9v-2.4c0-0.8,0.3-1.4,0.9-2l1.6-1.4
		c0.5-0.4,1.1-0.6,1.6-0.6h4c0.3,0,0.5,0.1,0.6,0.3c0.2,0.2,0.3,0.4,0.3,0.6c0,0.3-0.1,0.5-0.3,0.6c-0.2,0.2-0.4,0.3-0.6,0.3h-3.9
		c-0.2,0-0.5,0.1-0.7,0.3l-1.5,1.2c-0.2,0.2-0.4,0.5-0.4,0.8v2.2c0,0.2,0.1,0.4,0.3,0.6l1.6,1.4c0.2,0.2,0.5,0.3,0.8,0.3h3.7
		c0.2,0,0.5,0.1,0.6,0.3c0.2,0.2,0.3,0.4,0.3,0.6c0,0.3-0.1,0.5-0.3,0.6C422.7,64.4,422.5,64.5,422.2,64.5z"/>
	<path d="M436.4,57.4v3.8c0,0.8-0.4,1.6-1.1,2.2c-0.8,0.7-1.5,1-2.4,1h-2.1c-0.8,0-1.6-0.3-2.4-1s-1.1-1.4-1.1-2.2v-3.8
		c0-0.8,0.4-1.5,1.1-2.2c0.7-0.7,1.5-1,2.4-1h2.1c0.8,0,1.6,0.3,2.4,1C436,55.8,436.4,56.6,436.4,57.4z M429.1,57.5v3.7
		c0,0.3,0.1,0.6,0.4,0.8l0.7,0.6c0.2,0.1,0.4,0.2,0.6,0.2h2.1c0.3,0,0.6-0.1,0.8-0.3l0.5-0.5c0.2-0.2,0.3-0.4,0.3-0.7v-3.7
		c0-0.4-0.1-0.6-0.3-0.8l-0.6-0.5c-0.2-0.2-0.5-0.3-0.8-0.3H431c-0.4,0-0.7,0.1-0.9,0.3l-0.6,0.5C429.2,56.9,429.1,57.2,429.1,57.5z
		"/>
	<path d="M440.3,63.6V55c0-0.3,0.1-0.5,0.3-0.6c0.2-0.2,0.4-0.3,0.6-0.3c0.5,0,0.8,0.2,0.9,0.7c0.5-0.5,1.1-0.7,1.7-0.7
		c0.7,0,1.3,0.3,1.8,0.9c0.6-0.6,1.2-0.9,1.9-0.9c0.6,0,1,0.2,1.5,0.6s0.6,0.9,0.7,1.5l0.3,7.4c0,0.2-0.1,0.5-0.3,0.6
		c-0.2,0.2-0.4,0.3-0.6,0.3c-0.3,0-0.5-0.1-0.6-0.3c-0.2-0.2-0.3-0.4-0.3-0.6l-0.2-7.1c0-0.4-0.1-0.6-0.4-0.6
		c-0.1,0-0.2,0.1-0.4,0.2L446,57v6.6c0,0.2-0.1,0.5-0.3,0.6c-0.2,0.2-0.4,0.3-0.6,0.3c-0.2,0-0.5-0.1-0.6-0.3
		c-0.2-0.2-0.3-0.4-0.3-0.6v-7.2c0-0.3-0.1-0.5-0.4-0.5c-0.1,0-0.2,0-0.4,0.1l-1.3,1.1v6.4c0,0.2-0.1,0.5-0.3,0.6
		c-0.2,0.2-0.4,0.3-0.6,0.3c-0.3,0-0.5-0.1-0.7-0.3C440.4,64,440.3,63.8,440.3,63.6z"/>
	<path d="M458,55.9v7.7c0,0.3-0.1,0.5-0.3,0.6c-0.2,0.2-0.4,0.3-0.6,0.3c-0.3,0-0.5-0.1-0.7-0.3c-0.2-0.2-0.3-0.4-0.3-0.6v-7.7h-0.9
		c-0.3,0-0.5-0.1-0.6-0.3c-0.2-0.2-0.3-0.4-0.3-0.6c0-0.2,0.1-0.4,0.2-0.6c0.2-0.2,0.4-0.3,0.7-0.3h0.9v-0.7c0-0.9,0.3-1.7,1-2.3
		c0.6-0.6,1.4-0.9,2.4-0.9h2.1c0.3,0,0.5,0.1,0.6,0.3c0.2,0.2,0.3,0.4,0.3,0.7c0,0.2-0.1,0.5-0.3,0.6c-0.2,0.2-0.4,0.3-0.6,0.3h-2.1
		c-0.4,0-0.8,0.1-1.1,0.4c-0.3,0.3-0.4,0.6-0.4,1v0.7h1.8c0.2,0,0.5,0.1,0.6,0.3c0.2,0.2,0.3,0.4,0.3,0.6c0,0.2-0.1,0.5-0.3,0.6
		c-0.2,0.2-0.4,0.3-0.6,0.3H458z"/>
	<path d="M476.2,57.4v3.8c0,0.8-0.4,1.6-1.1,2.2c-0.8,0.7-1.5,1-2.4,1h-2.1c-0.8,0-1.6-0.3-2.4-1s-1.1-1.4-1.1-2.2v-3.8
		c0-0.8,0.4-1.5,1.1-2.2c0.7-0.7,1.5-1,2.4-1h2.1c0.8,0,1.6,0.3,2.4,1C475.9,55.8,476.2,56.6,476.2,57.4z M469,57.5v3.7
		c0,0.3,0.1,0.6,0.4,0.8l0.7,0.6c0.2,0.1,0.4,0.2,0.6,0.2h2.1c0.3,0,0.6-0.1,0.8-0.3l0.5-0.5c0.2-0.2,0.3-0.4,0.3-0.7v-3.7
		c0-0.4-0.1-0.6-0.3-0.8l-0.6-0.5c-0.2-0.2-0.5-0.3-0.8-0.3h-1.9c-0.4,0-0.7,0.1-0.9,0.3l-0.6,0.5C469.1,56.9,469,57.2,469,57.5z"/>
	<path d="M480.4,63.6V55c0-0.3,0.1-0.5,0.3-0.6c0.2-0.2,0.4-0.3,0.6-0.3s0.5,0.1,0.6,0.3c0.2,0.2,0.3,0.4,0.3,0.7v1.1l1.5-1.3
		c0.6-0.5,1.2-0.8,1.8-0.8h1.3c0.7,0,1.4,0.3,1.9,0.8c0.5,0.5,0.8,1.2,0.8,1.9v0.5c0,0.3-0.1,0.5-0.3,0.7c-0.2,0.2-0.4,0.3-0.6,0.3
		s-0.5-0.1-0.6-0.3c-0.2-0.2-0.3-0.4-0.3-0.6v-0.5c0-0.3-0.1-0.5-0.3-0.6c-0.2-0.2-0.4-0.3-0.6-0.3h-1.2c-0.3,0-0.5,0.1-0.8,0.4
		l-2.6,2.2v5c0,0.3-0.1,0.5-0.3,0.6c-0.2,0.2-0.4,0.3-0.6,0.3c-0.3,0-0.5-0.1-0.6-0.3C480.5,64.1,480.4,63.8,480.4,63.6z"/>
	<path d="M500.1,64.5h-1.8c-0.7,0-1.4-0.3-1.9-0.8c-0.5-0.5-0.8-1.2-0.8-1.9v-5.9h-0.9c-0.3,0-0.5-0.1-0.6-0.3
		c-0.2-0.2-0.3-0.4-0.3-0.6c0-0.3,0.1-0.5,0.3-0.6c0.2-0.2,0.4-0.3,0.6-0.3h0.9v-2.2c0-0.3,0.1-0.5,0.3-0.6c0.2-0.2,0.4-0.3,0.6-0.3
		c0.2,0,0.4,0.1,0.6,0.3c0.2,0.2,0.3,0.4,0.3,0.6v2.2h3.6c0.2,0,0.5,0.1,0.6,0.3c0.2,0.2,0.3,0.4,0.3,0.6c0,0.3-0.1,0.5-0.3,0.6
		c-0.2,0.2-0.4,0.3-0.6,0.3h-3.7v5.9c0,0.2,0.1,0.5,0.3,0.6c0.2,0.2,0.4,0.3,0.6,0.3h1.8c0.5,0,0.8-0.3,1-0.8
		c0.2-0.5,0.5-0.8,0.9-0.8c0.3,0,0.5,0.1,0.6,0.3c0.2,0.2,0.3,0.4,0.3,0.7c0,0.5-0.3,1.1-0.8,1.6C501.5,64.2,500.9,64.5,500.1,64.5z
		"/>
	<path d="M509.7,58h3.5c0.2,0,0.5,0,0.8,0.1l0-1.3c0-0.3-0.1-0.5-0.3-0.6c-0.2-0.2-0.4-0.3-0.6-0.3h-3.4c-0.2,0-0.5-0.1-0.6-0.3
		c-0.2-0.2-0.3-0.4-0.3-0.6c0-0.3,0.1-0.5,0.3-0.6c0.2-0.2,0.4-0.3,0.6-0.3h3.4c0.7,0,1.4,0.3,1.9,0.8c0.5,0.5,0.8,1.2,0.8,1.9
		l0.2,6.8c0,0.3-0.1,0.5-0.3,0.6c-0.2,0.2-0.4,0.3-0.6,0.3c-0.3,0-0.5-0.1-0.7-0.3c-0.2-0.2-0.3-0.4-0.3-0.6l-1.5,0.9h-3.1
		c-0.8,0-1.4-0.3-1.9-0.8c-0.5-0.5-0.8-1.2-0.8-1.9v-1.1c0-0.8,0.3-1.4,0.8-1.9C508.3,58.3,509,58,509.7,58z M514.2,61.5l-0.1-0.8
		c0-0.3-0.1-0.5-0.3-0.6s-0.4-0.3-0.6-0.3h-3.6c-0.3,0-0.5,0.1-0.6,0.3c-0.2,0.2-0.3,0.4-0.3,0.6v1c0,0.2,0.1,0.5,0.3,0.6
		c0.2,0.2,0.4,0.3,0.6,0.3h2.5L514.2,61.5z"/>
	<path d="M522.1,51.1v4.2l0.8-0.6c0.5-0.4,1-0.6,1.6-0.6h1.7c0.6,0,1.1,0.2,1.6,0.6l0.9,0.7c0.2,0.2,0.4,0.5,0.6,0.9
		c0.2,0.4,0.2,0.8,0.2,1.1v3.7c0,0.3-0.1,0.7-0.2,1s-0.3,0.6-0.5,0.8l-0.8,0.7c-0.2,0.2-0.5,0.4-0.9,0.5c-0.4,0.2-0.7,0.2-0.9,0.2
		h-1.5c-0.8,0-1.6-0.4-2.5-1.3v0.4c0,0.3-0.1,0.5-0.3,0.6c-0.2,0.2-0.4,0.3-0.6,0.3s-0.5-0.1-0.6-0.3c-0.2-0.2-0.3-0.4-0.3-0.6V51.1
		c0-0.3,0.1-0.5,0.3-0.6c0.2-0.2,0.4-0.3,0.6-0.3c0.3,0,0.5,0.1,0.6,0.3C522.1,50.7,522.1,50.9,522.1,51.1z M526,55.9h-1.2
		c-0.3,0-0.5,0.1-0.7,0.2l-1.6,1.4c-0.2,0.2-0.3,0.5-0.3,0.8v2c0,0.3,0.1,0.6,0.4,0.8l1.5,1.2c0.2,0.2,0.4,0.3,0.7,0.3h1.5
		c0.2,0,0.4-0.1,0.5-0.2l0.7-0.6c0.2-0.1,0.3-0.3,0.3-0.6v-3.8c0-0.3-0.1-0.5-0.3-0.7l-0.7-0.5C526.5,56,526.3,55.9,526,55.9z"/>
	<path d="M540.9,64.5h-5.5c-0.3,0-0.5-0.1-0.6-0.3c-0.2-0.2-0.3-0.4-0.3-0.6c0-0.2,0.1-0.5,0.3-0.6c0.2-0.2,0.4-0.3,0.6-0.3h1.8V52
		h-1.8c-0.3,0-0.5-0.1-0.6-0.3c-0.2-0.2-0.3-0.4-0.3-0.6c0-0.3,0.1-0.5,0.3-0.6c0.2-0.2,0.4-0.3,0.6-0.3h2.8c0.2,0,0.5,0.1,0.6,0.3
		c0.2,0.2,0.3,0.4,0.3,0.6v11.5h1.8c0.2,0,0.5,0.1,0.6,0.3c0.2,0.2,0.3,0.4,0.3,0.6c0,0.3-0.1,0.5-0.3,0.6
		C541.3,64.4,541.1,64.5,540.9,64.5z"/>
	<path d="M556,57.5v2.2c0,0.2-0.1,0.5-0.3,0.6c-0.2,0.2-0.4,0.3-0.6,0.3h-6.4v0.5c0,0.3,0.1,0.6,0.4,0.8l0.5,0.4
		c0.3,0.2,0.6,0.3,0.8,0.3h4.6c0.2,0,0.5,0.1,0.6,0.3c0.2,0.2,0.3,0.4,0.3,0.6c0,0.2-0.1,0.5-0.3,0.6c-0.2,0.2-0.4,0.3-0.6,0.3h-4.8
		c-0.3,0-0.6-0.1-1-0.2c-0.3-0.1-0.6-0.3-0.8-0.4l-0.8-0.7c-0.3-0.2-0.5-0.5-0.6-0.8c-0.2-0.4-0.3-0.7-0.3-1v-4.1
		c0-0.2,0.1-0.6,0.3-1c0.2-0.4,0.4-0.7,0.7-0.9l0.8-0.6c0.5-0.4,1-0.6,1.6-0.6h2.5c0.6,0,1.2,0.3,1.8,0.8l0.7,0.6
		C555.7,56,556,56.7,556,57.5z M548.7,57.4v1.4h5.5v-1.3c0-0.3-0.1-0.6-0.3-0.8l-0.5-0.5c-0.3-0.2-0.5-0.3-0.7-0.3h-2.3
		c-0.3,0-0.5,0.1-0.8,0.3l-0.5,0.4C548.8,56.9,548.7,57.1,548.7,57.4z"/>
</g>
</svg>
