<?xml version="1.0" encoding="utf-8"?>
<!-- Generator: Adobe Illustrator 21.1.0, SVG Export Plug-In . SVG Version: 6.00 Build 0)  -->
<svg version="1.1" id="Layer_1" xmlns="http://www.w3.org/2000/svg" xmlns:xlink="http://www.w3.org/1999/xlink" x="0px" y="0px"
	 viewBox="0 0 800 400" style="enable-background:new 0 0 800 400;" xml:space="preserve">
<style type="text/css">
	.st0{fill:#C1D721;stroke:#FFFFFF;stroke-miterlimit:10;}
	.st1{fill:#991C6F;}
	.st2{fill:none;stroke:#FFFFFF;stroke-miterlimit:10;}
	.st3{fill:#991C6F;stroke:#000000;stroke-miterlimit:10;}
	.st4{fill:#991C6F;stroke:#FFFFFF;stroke-miterlimit:10;}
	.st5{fill:#FBB03B;stroke:#FFFFFF;stroke-miterlimit:10;}
</style>
<polygon class="st0" points="814.6,408.3 -21.7,408.3 -5.6,-6.3 830.7,-6.3 "/>
<g id="XMLID_1_">
	<g>
		<polygon class="st1" points="502.6,78.4 552.4,181.1 531.6,191.7 487.9,86.8 		"/>
		<polygon class="st1" points="487.9,86.8 531.6,191.7 518.4,198.5 475.7,93.7 		"/>
		<polygon class="st1" points="475.7,93.7 518.4,198.5 492.9,211.5 446.6,110.2 		"/>
		<polygon class="st1" points="446.6,110.2 492.9,211.5 481.3,217.5 433,117.9 		"/>
		<path class="st1" d="M433,117.9l48.3,99.5l-163.3,83.7c4.7-24.5-23.7-27.9-60.9-84.2l1.6-0.1L433,117.9z"/>
		<path class="st1" d="M257,217c37.2,56.3,65.6,59.7,60.9,84.2c-4.1,21.3-29.7,39.8-59.7,48.1c-3.9-7.5-11.3-18.8-24.1-28.5
			c-5.7-4.3-11.3-7.4-16.2-9.5c-5.6-2.2-15.9-5.3-28.8-4.1c-19,1.8-31.7,11.8-36.2,15.8l-0.3,0.3c-20.4-18.3-33.6-39-36.4-43.4
			c0,0,0,0,0,0s0,0,0,0c-32-52.5-35.3-90.2-32.7-112.1l0.2,0c10.5,0.9,35.3,1.5,62-12.4c7.6-4,24.8-14.1,38.8-33.1
			c1.2-1.7,2.2-3.1,2.9-4l0.8-1.4c25.6,17.9,38.1,49.3,59.5,85.5C250.9,207.5,254,212.4,257,217z"/>
		<path class="st1" d="M234.2,320.8c12.8,9.6,20.1,21,24.1,28.5c-18.6,5.1-38.8,6.3-56.7,1.9c-18.8-4.7-35.3-15.8-48.8-27.9l0.3-0.3
			c4.5-3.9,17.2-14,36.2-15.8c12.9-1.2,23.2,2,28.8,4.1C222.9,313.4,228.5,316.5,234.2,320.8z"/>
		<path class="st1" d="M188.3,116.7l-0.8,1.4c-0.7,1-1.6,2.4-2.9,4c-14,19-31.2,29.1-38.8,33.1c-26.7,13.9-51.6,13.2-62,12.4l-0.2,0
			c1.8-15.2,6.5-22.9,6.5-22.9c10-19.7,31.6-39.5,56.6-41.2c6.8-0.5,15.3,0.3,26,4.7C178.4,110.5,183.6,113.4,188.3,116.7z"/>
	</g>
	<g>
		<path class="st2" d="M257,217c-3-4.6-6.1-9.5-9.2-14.8c-21.3-36.2-33.9-67.5-59.5-85.5c-4.7-3.3-9.9-6.2-15.7-8.5
			c-10.7-4.4-19.2-5.1-26-4.7c-25,1.7-46.6,21.5-56.6,41.2c0,0-4.7,7.7-6.5,22.9c-2.6,22,0.7,59.6,32.7,112.1c0,0,0,0,0,0s0,0,0,0
			c2.8,4.4,16,25.1,36.4,43.4c13.5,12.1,30,23.2,48.8,27.9c17.9,4.5,38.1,3.3,56.7-1.9c30-8.3,55.6-26.8,59.7-48.1
			C322.6,276.7,294.3,273.2,257,217z"/>
		<polyline class="st2" points="258.7,216.9 433,117.9 446.6,110.2 475.7,93.7 487.9,86.8 502.6,78.4 		"/>
		<path class="st2" d="M83.8,167.6c10.5,0.9,35.3,1.5,62-12.4c7.6-4,24.8-14.1,38.8-33.1c1.2-1.7,2.2-3.1,2.9-4"/>
	</g>
</g>
<path class="st3" d="M256.8,345.8"/>
<path class="st4" d="M77.4,124.6"/>
<path class="st5" d="M406.5,97.8"/>
<path class="st5" d="M464.2,163.8"/>
<path class="st5" d="M188.7,119.6c-4.3-4.2-14.5-13-30.2-16.8c-3.7-0.9-22.6-5.1-40.8,3.7C96.2,117,82.8,142,83.5,170
	c8.5,0.7,15.7,0.4,21.1-0.1c13.3-1.3,23.6-4.6,29.5-6.8c7.3-2.8,13.2-5.8,17.4-8.3c7.2-4.2,16.1-10.5,24.9-19.7
	C181.5,129.7,185.5,124.4,188.7,119.6z"/>
<path class="st5" d="M153,322.9c3,4.6,19.9,28.9,52.4,34.9c26.3,4.8,46.7-5.3,52.8-8.6c-3.4-7-11.6-21-28-31.2
	c-5.9-3.7-18.7-11.7-35.4-11.2c-3.7,0.1-14,0.3-25.8,5.6C161.9,315.8,156.5,319.8,153,322.9z"/>
<path class="st5" d="M297.1,351.4"/>
<path class="st5" d="M263.9,361.2"/>
<path class="st1" d="M311.6,301.1c-20.2-7.1-40.4-14.2-60.5-21.4l5.4-62c1.6-0.6,3.8-1.1,6.3-0.7c0,0,2.4,0.3,4.6,1.7
	c3.8,2.2,23.5,20.1,49.9,45.2c8.2,14.3,10.5,27.3,6.5,32.5c-3.4,4.5-7.5,5.1-7.5,5.1C314.3,301.9,312.6,301.5,311.6,301.1z"/>
<path class="st1" d="M546.1,167.5c-87.6,41.1-175.3,82.2-262.9,123.3c8.7,7.3,17.4,14.6,26.1,21.9C392.7,273.2,476,233.6,559.4,194
	C555,185.2,550.5,176.4,546.1,167.5z"/>
<path class="st1" d="M359.7,287.5"/>
<path class="st1" d="M531.6,191.7"/>
<path class="st5" d="M502.5,221.6c-4.4,2.2-8.8,4.4-13.2,6.6c-18.4-36.9-36.7-73.7-55.1-110.6c4.6-2.6,9.2-5.1,13.9-7.7
	C466.2,147.1,484.4,184.3,502.5,221.6z"/>
<path class="st5" d="M545.8,201.4c-4.5,2.3-9.1,4.5-13.6,6.8c-18.9-38.1-37.7-76.3-56.6-114.4c4.8-2.6,9.5-5.3,14.3-7.9
	C508.5,124.4,527.2,162.9,545.8,201.4z"/>
<g id="XMLID_2_">
	<g>
		<polygon class="st1" points="619.1,106.6 668.9,209.3 648.1,219.9 604.4,115 		"/>
		<polygon class="st1" points="604.4,115 648.1,219.9 634.9,226.7 592.2,121.9 		"/>
		<polygon class="st1" points="592.2,121.9 634.9,226.7 609.4,239.7 563.1,138.4 		"/>
		<polygon class="st1" points="563.1,138.4 609.4,239.7 597.8,245.7 549.5,146.1 		"/>
		<path class="st1" d="M549.5,146.1l48.3,99.5l-163.3,83.7c4.7-24.5-23.7-27.9-60.9-84.2l1.6-0.1L549.5,146.1z"/>
		<path class="st1" d="M373.6,245.2c37.2,56.3,65.6,59.7,60.9,84.2c-4.1,21.3-29.7,39.8-59.7,48.1c-3.9-7.5-11.3-18.8-24.1-28.5
			c-5.7-4.3-11.3-7.4-16.2-9.5c-5.6-2.2-15.9-5.3-28.8-4.1c-19,1.8-31.7,11.8-36.2,15.8l-0.3,0.3c-20.4-18.3-33.6-39-36.4-43.4
			c0,0,0,0,0,0s0,0,0,0c-32-52.5-35.3-90.2-32.7-112.1l0.2,0c10.5,0.9,35.3,1.5,62-12.4c7.6-4,24.8-14.1,38.8-33.1
			c1.2-1.7,2.2-3.1,2.9-4l0.8-1.4c25.6,17.9,38.1,49.3,59.5,85.5C367.4,235.7,370.5,240.6,373.6,245.2z"/>
		<path class="st1" d="M350.7,349c12.8,9.6,20.1,21,24.1,28.5c-18.6,5.1-38.8,6.3-56.7,1.9c-18.8-4.7-35.3-15.8-48.8-27.9l0.3-0.3
			c4.5-3.9,17.2-14,36.2-15.8c12.9-1.2,23.2,2,28.8,4.1C339.4,341.6,345,344.7,350.7,349z"/>
		<path class="st1" d="M304.8,144.9l-0.8,1.4c-0.7,1-1.6,2.4-2.9,4c-14,19-31.2,29.1-38.8,33.1c-26.7,13.9-51.6,13.2-62,12.4l-0.2,0
			c1.8-15.2,6.5-22.9,6.5-22.9c10-19.7,31.6-39.5,56.6-41.2c6.8-0.5,15.3,0.3,26,4.7C294.9,138.7,300.1,141.6,304.8,144.9z"/>
	</g>
	<g>
		<path class="st2" d="M373.6,245.2c-3-4.6-6.1-9.5-9.2-14.8c-21.3-36.2-33.9-67.5-59.5-85.5c-4.7-3.3-9.9-6.2-15.7-8.5
			c-10.7-4.4-19.2-5.1-26-4.7c-25,1.7-46.6,21.5-56.6,41.2c0,0-4.7,7.7-6.5,22.9c-2.6,22,0.7,59.6,32.7,112.1c0,0,0,0,0,0s0,0,0,0
			c2.8,4.4,16,25.1,36.4,43.4c13.5,12.1,30,23.2,48.8,27.9c17.9,4.5,38.1,3.3,56.7-1.9c30-8.3,55.6-26.8,59.7-48.1
			C439.2,304.9,410.8,301.4,373.6,245.2z"/>
		<polyline class="st2" points="375.2,245.1 549.5,146.1 563.1,138.4 592.2,121.9 604.4,115 619.1,106.6 		"/>
		<path class="st2" d="M200.3,195.8c10.5,0.9,35.3,1.5,62-12.4c7.6-4,24.8-14.1,38.8-33.1c1.2-1.7,2.2-3.1,2.9-4"/>
	</g>
</g>
<path class="st3" d="M373.3,374"/>
<path class="st5" d="M534.3,129.4"/>
<path class="st5" d="M580.7,192"/>
<path class="st5" d="M304.9,145.9c-19-15.2-44.8-18.5-66.8-8.6c-22.8,10.3-37.6,33.2-37.8,58.4c8.2,0.9,15.2,0.7,20.3,0.2
	c3.7-0.3,15.3-1.5,29.5-6.9c7.3-2.8,13.2-5.8,17.4-8.3c7.2-4.2,16.1-10.5,24.9-19.6C297.6,155.9,301.7,150.7,304.9,145.9z"/>
<path class="st5" d="M269.6,351.1c3,4.6,19.9,28.9,52.4,34.9c26.3,4.8,46.7-5.3,52.8-8.6c-3.4-7-11.6-21-28-31.2
	c-5.9-3.7-18.7-11.7-35.4-11.2c-3.7,0.1-14,0.3-25.8,5.6C278.4,344,273,348,269.6,351.1z"/>
<path class="st5" d="M413.6,379.6"/>
<path class="st5" d="M380.4,389.4"/>
<path class="st1" d="M428.1,329.3c-20.2-7.1-40.4-14.2-60.5-21.4l5.4-62c1.6-0.6,3.8-1.1,6.3-0.7c0,0,2.4,0.3,4.6,1.7
	c3.8,2.2,23.5,20.1,49.9,45.2c8.2,14.3,10.5,27.3,6.5,32.5c-3.4,4.5-7.5,5.1-7.5,5.1C430.8,330,429.1,329.6,428.1,329.3z"/>
<path class="st1" d="M662.6,195.7C575,236.9,487.3,278,399.7,319.1c8.7,7.3,17.4,14.6,26.1,21.9c83.4-39.6,166.7-79.2,250.1-118.8
	C671.5,213.4,667,204.6,662.6,195.7z"/>
<path class="st1" d="M476.2,315.7"/>
<path class="st1" d="M648.1,219.9"/>
<path class="st5" d="M619,249.8c-4.4,2.2-8.8,4.4-13.2,6.6c-18.4-36.9-36.7-73.7-55.1-110.6c4.6-2.6,9.2-5.1,13.9-7.7
	C582.7,175.3,600.9,212.5,619,249.8z"/>
<path class="st5" d="M662.3,229.6c-4.5,2.3-9.1,4.5-13.6,6.8c-18.9-38.1-37.7-76.3-56.6-114.4c4.8-2.6,9.5-5.3,14.3-7.9
	C625,152.6,643.7,191.1,662.3,229.6z"/>
<line class="st2" x1="433.2" y1="337.5" x2="679.3" y2="221.1"/>
<line class="st2" x1="502.6" y1="78.4" x2="538.5" y2="152.4"/>
<line class="st2" x1="619.1" y1="106.6" x2="675.9" y2="222.2"/>
<g>
	<path d="M82.7,23.8H90c0.2,0,0.4,0.1,0.6,0.3c0.2,0.2,0.3,0.4,0.3,0.6c0,0.3-0.1,0.5-0.3,0.6c-0.2,0.2-0.4,0.3-0.6,0.3h-2.7v10.6
		H90c0.3,0,0.5,0.1,0.6,0.3c0.2,0.2,0.3,0.4,0.3,0.6c0,0.3-0.1,0.5-0.3,0.6c-0.2,0.2-0.4,0.3-0.6,0.3h-7.3c-0.3,0-0.5-0.1-0.6-0.3
		c-0.2-0.2-0.3-0.4-0.3-0.6c0-0.3,0.1-0.5,0.3-0.6c0.2-0.2,0.4-0.3,0.6-0.3h2.8V25.6h-2.8c-0.3,0-0.5-0.1-0.6-0.3
		c-0.2-0.2-0.3-0.4-0.3-0.6c0-0.3,0.1-0.5,0.3-0.7C82.2,23.9,82.4,23.8,82.7,23.8z"/>
	<path d="M108.4,37.2V24.7c0-0.2,0.1-0.5,0.3-0.6c0.2-0.2,0.4-0.3,0.6-0.3c0.3,0,0.5,0.1,0.6,0.3c0.2,0.2,0.3,0.4,0.3,0.6v4.6
		l1.5-0.9c0.7-0.4,1.2-0.6,1.8-0.6h1.1c0.7,0,1.4,0.3,1.9,0.8c0.5,0.5,0.8,1.2,0.8,1.9l0.2,6.8c0,0.3-0.1,0.5-0.3,0.6
		c-0.2,0.2-0.4,0.3-0.6,0.3c-0.3,0-0.5-0.1-0.6-0.3s-0.3-0.4-0.3-0.6l-0.2-6.8c0-0.2-0.1-0.5-0.3-0.6c-0.2-0.2-0.4-0.3-0.6-0.3h-1
		c-0.2,0-0.5,0.1-0.8,0.3l-2.6,1.7v5.7c0,0.3-0.1,0.5-0.3,0.6c-0.2,0.2-0.4,0.3-0.6,0.3c-0.3,0-0.5-0.1-0.6-0.3
		C108.4,37.7,108.4,37.4,108.4,37.2z"/>
	<path d="M130.7,31v3.8c0,0.8-0.4,1.6-1.1,2.2s-1.5,1-2.4,1h-2.1c-0.8,0-1.6-0.3-2.4-1s-1.1-1.4-1.1-2.2V31c0-0.8,0.4-1.5,1.1-2.2
		c0.7-0.7,1.5-1,2.4-1h2.1c0.8,0,1.6,0.3,2.4,1S130.7,30.2,130.7,31z M123.5,31.1v3.7c0,0.3,0.1,0.6,0.4,0.8l0.7,0.6
		c0.2,0.1,0.4,0.2,0.6,0.2h2.1c0.3,0,0.6-0.1,0.8-0.3l0.5-0.5c0.2-0.2,0.3-0.4,0.3-0.7v-3.7c0-0.4-0.1-0.6-0.3-0.8l-0.6-0.5
		c-0.2-0.2-0.5-0.3-0.8-0.3h-1.9c-0.4,0-0.7,0.1-0.9,0.3l-0.6,0.5C123.6,30.5,123.5,30.8,123.5,31.1z"/>
	<path d="M136.8,37.1v4c0,0.3-0.1,0.5-0.3,0.7c-0.2,0.2-0.4,0.3-0.6,0.3c-0.3,0-0.5-0.1-0.6-0.3c-0.2-0.2-0.3-0.4-0.3-0.7V28.2
		c0-0.2,0.1-0.5,0.3-0.6c0.2-0.2,0.4-0.3,0.7-0.3c0.2,0,0.5,0.1,0.6,0.3c0.2,0.2,0.3,0.4,0.3,0.6v0.6c0.9-1,1.7-1.5,2.6-1.5h0.4
		c0.6,0,1.2,0.2,1.8,0.7l1.5,1.3c0.7,0.6,1,1.3,1,2.2v2.8c0,0.9-0.4,1.6-1.1,2.2l-1.5,1.3c-0.5,0.4-1.1,0.7-1.8,0.7h-0.4
		c-0.7,0-1.3-0.2-1.8-0.7L136.8,37.1z M139.3,36.7h0.5c0.2,0,0.5-0.1,0.7-0.3l1.4-1.2c0.2-0.2,0.4-0.4,0.4-0.8v-2.9
		c0-0.3-0.1-0.5-0.4-0.8l-1.5-1.3c-0.2-0.2-0.4-0.2-0.6-0.2h-0.5c-0.2,0-0.5,0.2-0.8,0.5l-1.3,1.3c-0.2,0.2-0.4,0.5-0.4,0.8v2.3
		c0,0.3,0.1,0.6,0.4,0.8l1.3,1.3C138.8,36.5,139.1,36.7,139.3,36.7z"/>
	<path d="M157.3,31.1v2.2c0,0.2-0.1,0.5-0.3,0.6c-0.2,0.2-0.4,0.3-0.6,0.3H150v0.5c0,0.3,0.1,0.6,0.4,0.8L151,36
		c0.3,0.2,0.6,0.3,0.8,0.3h4.6c0.2,0,0.5,0.1,0.6,0.3c0.2,0.2,0.3,0.4,0.3,0.6c0,0.2-0.1,0.5-0.3,0.6c-0.2,0.2-0.4,0.3-0.6,0.3h-4.8
		c-0.3,0-0.6-0.1-1-0.2c-0.3-0.1-0.6-0.3-0.8-0.4l-0.8-0.7c-0.3-0.2-0.5-0.5-0.6-0.8c-0.2-0.4-0.3-0.7-0.3-1v-4.1
		c0-0.2,0.1-0.6,0.3-1c0.2-0.4,0.4-0.7,0.7-0.9l0.8-0.6c0.5-0.4,1-0.6,1.6-0.6h2.5c0.6,0,1.2,0.3,1.8,0.8l0.7,0.6
		C157.1,29.6,157.3,30.3,157.3,31.1z M150.1,31v1.4h5.5v-1.3c0-0.3-0.1-0.6-0.3-0.8l-0.5-0.5c-0.3-0.2-0.5-0.3-0.7-0.3h-2.3
		c-0.3,0-0.5,0.1-0.8,0.3l-0.5,0.4C150.2,30.5,150.1,30.7,150.1,31z"/>
	<path d="M183.9,30.4l-4.9,11c-0.2,0.4-0.5,0.6-0.9,0.6h-2.5c-0.3,0-0.5-0.1-0.6-0.3s-0.3-0.4-0.3-0.6c0-0.3,0.1-0.5,0.3-0.6
		c0.2-0.2,0.4-0.3,0.6-0.3h1.9l1.2-2.9h-0.4c-0.4,0-0.7-0.2-0.9-0.6l-2.7-6.3v-1.7c0-0.3,0.1-0.5,0.3-0.6c0.2-0.2,0.4-0.3,0.6-0.3
		c0.3,0,0.5,0.1,0.6,0.3c0.2,0.2,0.3,0.4,0.3,0.6l0,1.3l2.4,5.5h0.6l2.5-5.5l0-1.4c0-0.2,0.1-0.4,0.3-0.6c0.2-0.2,0.4-0.3,0.6-0.3
		c0.2,0,0.5,0.1,0.6,0.3c0.2,0.2,0.3,0.4,0.3,0.6V30.4z"/>
	<path d="M197.2,31v3.8c0,0.8-0.4,1.6-1.1,2.2s-1.5,1-2.4,1h-2.1c-0.8,0-1.6-0.3-2.4-1s-1.1-1.4-1.1-2.2V31c0-0.8,0.4-1.5,1.1-2.2
		c0.7-0.7,1.5-1,2.4-1h2.1c0.8,0,1.6,0.3,2.4,1S197.2,30.2,197.2,31z M189.9,31.1v3.7c0,0.3,0.1,0.6,0.4,0.8l0.7,0.6
		c0.2,0.1,0.4,0.2,0.6,0.2h2.1c0.3,0,0.6-0.1,0.8-0.3l0.5-0.5c0.2-0.2,0.3-0.4,0.3-0.7v-3.7c0-0.4-0.1-0.6-0.3-0.8l-0.6-0.5
		c-0.2-0.2-0.5-0.3-0.8-0.3h-1.9c-0.4,0-0.7,0.1-0.9,0.3l-0.6,0.5C190,30.5,189.9,30.8,189.9,31.1z"/>
	<path d="M205.7,36.3l3-1.9v-5.7c0-0.3,0.1-0.5,0.3-0.6c0.2-0.2,0.4-0.3,0.6-0.3c0.3,0,0.5,0.1,0.6,0.3c0.2,0.2,0.3,0.4,0.3,0.6v8.6
		c0,0.2-0.1,0.5-0.3,0.6c-0.2,0.2-0.4,0.3-0.6,0.3c-0.2,0-0.5-0.1-0.6-0.3c-0.2-0.2-0.3-0.4-0.3-0.6v-0.7l-1.6,1
		c-0.6,0.4-1.2,0.6-1.9,0.6h-0.8c-0.7,0-1.4-0.3-1.9-0.8c-0.5-0.5-0.8-1.1-0.8-1.9l-0.3-6.8c0-0.2,0.1-0.4,0.3-0.6s0.4-0.3,0.6-0.3
		c0.2,0,0.5,0.1,0.6,0.3c0.2,0.2,0.3,0.4,0.3,0.6l0.2,6.7c0,0.6,0.4,1,1.1,1H205.7z"/>
	<path d="M214.7,37.2v-8.6c0-0.3,0.1-0.5,0.3-0.6c0.2-0.2,0.4-0.3,0.6-0.3c0.3,0,0.5,0.1,0.6,0.3c0.2,0.2,0.3,0.4,0.3,0.7v1.1
		l1.5-1.3c0.6-0.5,1.2-0.8,1.8-0.8h1.3c0.7,0,1.4,0.3,1.9,0.8c0.5,0.5,0.8,1.2,0.8,1.9v0.5c0,0.3-0.1,0.5-0.3,0.7
		c-0.2,0.2-0.4,0.3-0.6,0.3c-0.3,0-0.5-0.1-0.6-0.3c-0.2-0.2-0.3-0.4-0.3-0.6v-0.5c0-0.3-0.1-0.5-0.3-0.6c-0.2-0.2-0.4-0.3-0.6-0.3
		h-1.2c-0.3,0-0.5,0.1-0.8,0.4l-2.6,2.2v5c0,0.3-0.1,0.5-0.3,0.6c-0.2,0.2-0.4,0.3-0.6,0.3c-0.3,0-0.5-0.1-0.6-0.3
		C214.8,37.7,214.7,37.4,214.7,37.2z"/>
	<path d="M243.8,27.7h4.1c0.6,0,1.2,0.2,1.7,0.6c0.5,0.4,0.7,0.8,0.7,1.1c0,0.3-0.1,0.5-0.3,0.6c-0.2,0.2-0.4,0.2-0.6,0.2
		c-0.3,0-0.5-0.1-0.8-0.4s-0.5-0.4-0.7-0.4h-4.1c-0.4,0-0.6,0.2-0.6,0.5c0,0.2,0.1,0.4,0.4,0.5l4.8,2.1c0.5,0.2,0.9,0.6,1.2,1
		c0.3,0.5,0.5,1,0.5,1.6c0,0.8-0.3,1.4-0.8,2s-1.2,0.8-1.9,0.8h-3.7c-0.6,0-1.2-0.2-1.8-0.6c-0.5-0.4-0.8-0.7-0.8-1.1
		c0-0.2,0.1-0.4,0.3-0.6c0.2-0.2,0.4-0.3,0.7-0.3c0.2,0,0.5,0.1,0.7,0.4c0.3,0.3,0.6,0.4,1.1,0.4h3.4c0.3,0,0.5-0.1,0.7-0.3
		c0.2-0.2,0.3-0.4,0.3-0.7c0-0.4-0.2-0.7-0.6-0.9l-4.8-2.2c-0.5-0.2-0.8-0.5-1.1-0.9c-0.3-0.4-0.4-0.8-0.4-1.2
		c0-0.6,0.2-1.2,0.7-1.7C242.6,28,243.1,27.7,243.8,27.7z"/>
	<path d="M263.6,31v3.8c0,0.8-0.4,1.6-1.1,2.2s-1.5,1-2.4,1H258c-0.8,0-1.6-0.3-2.4-1s-1.1-1.4-1.1-2.2V31c0-0.8,0.4-1.5,1.1-2.2
		c0.7-0.7,1.5-1,2.4-1h2.1c0.8,0,1.6,0.3,2.4,1S263.6,30.2,263.6,31z M256.3,31.1v3.7c0,0.3,0.1,0.6,0.4,0.8l0.7,0.6
		c0.2,0.1,0.4,0.2,0.6,0.2h2.1c0.3,0,0.6-0.1,0.8-0.3l0.5-0.5c0.2-0.2,0.3-0.4,0.3-0.7v-3.7c0-0.4-0.1-0.6-0.3-0.8l-0.6-0.5
		c-0.2-0.2-0.5-0.3-0.8-0.3h-1.9c-0.4,0-0.7,0.1-0.9,0.3l-0.6,0.5C256.5,30.5,256.3,30.8,256.3,31.1z"/>
	<path d="M276,38.1h-3.9c-0.7,0-1.3-0.2-1.7-0.6l-1.8-1.5c-0.6-0.5-0.8-1.1-0.8-1.9v-2.4c0-0.8,0.3-1.4,0.9-2l1.6-1.4
		c0.5-0.4,1.1-0.6,1.6-0.6h4c0.3,0,0.5,0.1,0.6,0.3c0.2,0.2,0.3,0.4,0.3,0.6c0,0.3-0.1,0.5-0.3,0.6c-0.2,0.2-0.4,0.3-0.6,0.3h-3.9
		c-0.2,0-0.5,0.1-0.7,0.3l-1.5,1.2c-0.2,0.2-0.4,0.5-0.4,0.8v2.2c0,0.2,0.1,0.4,0.3,0.6l1.6,1.4c0.2,0.2,0.5,0.3,0.8,0.3h3.7
		c0.2,0,0.5,0.1,0.6,0.3c0.2,0.2,0.3,0.4,0.3,0.6c0,0.3-0.1,0.5-0.3,0.6C276.5,38,276.3,38.1,276,38.1z"/>
	<path d="M281.1,37.2V24.7c0-0.3,0.1-0.5,0.3-0.7c0.2-0.2,0.4-0.3,0.6-0.3c0.3,0,0.5,0.1,0.6,0.3c0.2,0.2,0.3,0.4,0.3,0.7v7.4
		l4.9-4.1c0.2-0.2,0.4-0.3,0.7-0.3c0.3,0,0.5,0.1,0.6,0.3c0.2,0.2,0.3,0.4,0.3,0.7c0,0.3-0.1,0.5-0.3,0.6l-3.8,3.2l4.7,4.1
		c0.2,0.2,0.3,0.3,0.3,0.6c0,0.2-0.1,0.4-0.3,0.6c-0.2,0.2-0.4,0.3-0.6,0.3c-0.3,0-0.5-0.1-0.7-0.2l-4.8-4.2l-0.9,0.8v2.7
		c0,0.3-0.1,0.5-0.3,0.6c-0.2,0.2-0.4,0.3-0.6,0.3c-0.3,0-0.5-0.1-0.6-0.3C281.2,37.7,281.1,37.4,281.1,37.2z"/>
	<path d="M296.9,27.7h4.1c0.6,0,1.2,0.2,1.7,0.6c0.5,0.4,0.7,0.8,0.7,1.1c0,0.3-0.1,0.5-0.3,0.6c-0.2,0.2-0.4,0.2-0.6,0.2
		c-0.3,0-0.5-0.1-0.8-0.4s-0.5-0.4-0.7-0.4H297c-0.4,0-0.6,0.2-0.6,0.5c0,0.2,0.1,0.4,0.4,0.5l4.8,2.1c0.5,0.2,0.9,0.6,1.2,1
		c0.3,0.5,0.5,1,0.5,1.6c0,0.8-0.3,1.4-0.8,2s-1.2,0.8-1.9,0.8H297c-0.6,0-1.2-0.2-1.8-0.6c-0.5-0.4-0.8-0.7-0.8-1.1
		c0-0.2,0.1-0.4,0.3-0.6c0.2-0.2,0.4-0.3,0.7-0.3c0.2,0,0.5,0.1,0.7,0.4c0.3,0.3,0.6,0.4,1.1,0.4h3.4c0.3,0,0.5-0.1,0.7-0.3
		c0.2-0.2,0.3-0.4,0.3-0.7c0-0.4-0.2-0.7-0.6-0.9l-4.8-2.2c-0.5-0.2-0.8-0.5-1.1-0.9c-0.3-0.4-0.4-0.8-0.4-1.2
		c0-0.6,0.2-1.2,0.7-1.7C295.7,28,296.3,27.7,296.9,27.7z"/>
	<path d="M323.7,31.6h3.5c0.2,0,0.5,0,0.8,0.1l0-1.3c0-0.3-0.1-0.5-0.3-0.6c-0.2-0.2-0.4-0.3-0.6-0.3h-3.4c-0.2,0-0.5-0.1-0.6-0.3
		c-0.2-0.2-0.3-0.4-0.3-0.6c0-0.3,0.1-0.5,0.3-0.6c0.2-0.2,0.4-0.3,0.6-0.3h3.4c0.7,0,1.4,0.3,1.9,0.8c0.5,0.5,0.8,1.2,0.8,1.9
		l0.2,6.8c0,0.3-0.1,0.5-0.3,0.6c-0.2,0.2-0.4,0.3-0.6,0.3c-0.3,0-0.5-0.1-0.7-0.3c-0.2-0.2-0.3-0.4-0.3-0.6l-1.5,0.9h-3.1
		c-0.8,0-1.4-0.3-1.9-0.8c-0.5-0.5-0.8-1.2-0.8-1.9v-1.1c0-0.8,0.3-1.4,0.8-1.9C322.3,31.9,322.9,31.6,323.7,31.6z M328.2,35.1
		l-0.1-0.8c0-0.3-0.1-0.5-0.3-0.6s-0.4-0.3-0.6-0.3h-3.6c-0.3,0-0.5,0.1-0.6,0.3c-0.2,0.2-0.3,0.4-0.3,0.6v1c0,0.2,0.1,0.5,0.3,0.6
		c0.2,0.2,0.4,0.3,0.6,0.3h2.5L328.2,35.1z"/>
	<path d="M334.3,37.2v-8.6c0-0.3,0.1-0.5,0.3-0.6c0.2-0.2,0.4-0.3,0.6-0.3c0.3,0,0.5,0.1,0.6,0.3c0.2,0.2,0.3,0.4,0.3,0.7v1.1
		l1.5-1.3c0.6-0.5,1.2-0.8,1.8-0.8h1.3c0.7,0,1.4,0.3,1.9,0.8c0.5,0.5,0.8,1.2,0.8,1.9v0.5c0,0.3-0.1,0.5-0.3,0.7
		c-0.2,0.2-0.4,0.3-0.6,0.3c-0.3,0-0.5-0.1-0.6-0.3c-0.2-0.2-0.3-0.4-0.3-0.6v-0.5c0-0.3-0.1-0.5-0.3-0.6c-0.2-0.2-0.4-0.3-0.6-0.3
		h-1.2c-0.3,0-0.5,0.1-0.8,0.4l-2.6,2.2v5c0,0.3-0.1,0.5-0.3,0.6c-0.2,0.2-0.4,0.3-0.6,0.3c-0.3,0-0.5-0.1-0.6-0.3
		C334.4,37.7,334.3,37.4,334.3,37.2z"/>
	<path d="M356.6,31.1v2.2c0,0.2-0.1,0.5-0.3,0.6c-0.2,0.2-0.4,0.3-0.6,0.3h-6.4v0.5c0,0.3,0.1,0.6,0.4,0.8l0.5,0.4
		c0.3,0.2,0.6,0.3,0.8,0.3h4.6c0.2,0,0.5,0.1,0.6,0.3c0.2,0.2,0.3,0.4,0.3,0.6c0,0.2-0.1,0.5-0.3,0.6c-0.2,0.2-0.4,0.3-0.6,0.3H351
		c-0.3,0-0.6-0.1-1-0.2c-0.3-0.1-0.6-0.3-0.8-0.4l-0.8-0.7c-0.3-0.2-0.5-0.5-0.6-0.8c-0.2-0.4-0.3-0.7-0.3-1v-4.1
		c0-0.2,0.1-0.6,0.3-1c0.2-0.4,0.4-0.7,0.7-0.9l0.8-0.6c0.5-0.4,1-0.6,1.6-0.6h2.5c0.6,0,1.2,0.3,1.8,0.8l0.7,0.6
		C356.4,29.6,356.6,30.3,356.6,31.1z M349.4,31v1.4h5.5v-1.3c0-0.3-0.1-0.6-0.3-0.8l-0.5-0.5c-0.3-0.2-0.5-0.3-0.7-0.3H351
		c-0.3,0-0.5,0.1-0.8,0.3l-0.5,0.4C349.5,30.5,349.4,30.7,349.4,31z"/>
	<path d="M376.8,31.6h3.5c0.2,0,0.5,0,0.8,0.1l0-1.3c0-0.3-0.1-0.5-0.3-0.6c-0.2-0.2-0.4-0.3-0.6-0.3h-3.4c-0.2,0-0.5-0.1-0.6-0.3
		c-0.2-0.2-0.3-0.4-0.3-0.6c0-0.3,0.1-0.5,0.3-0.6c0.2-0.2,0.4-0.3,0.6-0.3h3.4c0.7,0,1.4,0.3,1.9,0.8c0.5,0.5,0.8,1.2,0.8,1.9
		l0.2,6.8c0,0.3-0.1,0.5-0.3,0.6c-0.2,0.2-0.4,0.3-0.6,0.3c-0.3,0-0.5-0.1-0.7-0.3c-0.2-0.2-0.3-0.4-0.3-0.6l-1.5,0.9h-3.1
		c-0.8,0-1.4-0.3-1.9-0.8c-0.5-0.5-0.8-1.2-0.8-1.9v-1.1c0-0.8,0.3-1.4,0.8-1.9C375.4,31.9,376.1,31.6,376.8,31.6z M381.3,35.1
		l-0.1-0.8c0-0.3-0.1-0.5-0.3-0.6s-0.4-0.3-0.6-0.3h-3.6c-0.3,0-0.5,0.1-0.6,0.3c-0.2,0.2-0.3,0.4-0.3,0.6v1c0,0.2,0.1,0.5,0.3,0.6
		c0.2,0.2,0.4,0.3,0.6,0.3h2.5L381.3,35.1z"/>
	<path d="M394.7,38.1h-5.5c-0.3,0-0.5-0.1-0.6-0.3c-0.2-0.2-0.3-0.4-0.3-0.6c0-0.2,0.1-0.5,0.3-0.6c0.2-0.2,0.4-0.3,0.6-0.3h1.8
		V25.6h-1.8c-0.3,0-0.5-0.1-0.6-0.3c-0.2-0.2-0.3-0.4-0.3-0.6c0-0.3,0.1-0.5,0.3-0.6c0.2-0.2,0.4-0.3,0.6-0.3h2.8
		c0.2,0,0.5,0.1,0.6,0.3c0.2,0.2,0.3,0.4,0.3,0.6v11.5h1.8c0.2,0,0.5,0.1,0.6,0.3c0.2,0.2,0.3,0.4,0.3,0.6c0,0.3-0.1,0.5-0.3,0.6
		C395.2,38,395,38.1,394.7,38.1z"/>
	<path d="M406.2,31.7v2.1l1.2,2.1l0.6-2.1l0.2-5.3c0-0.2,0.1-0.5,0.3-0.6c0.2-0.2,0.4-0.3,0.6-0.3c0.3,0,0.5,0.1,0.6,0.3
		c0.2,0.2,0.3,0.4,0.3,0.6l-0.2,5.6l-1,3.2c-0.1,0.4-0.4,0.7-0.8,0.7h-1c-0.3,0-0.6-0.2-0.8-0.5l-1-1.7l-1,1.7
		c-0.2,0.3-0.5,0.5-0.8,0.5h-0.9c-0.2,0-0.4-0.1-0.6-0.2c-0.2-0.1-0.3-0.3-0.3-0.4l-0.9-3.3l-0.2-5.5c0-0.2,0.1-0.4,0.3-0.6
		c0.2-0.2,0.4-0.3,0.7-0.3c0.2,0,0.4,0.1,0.6,0.3c0.2,0.2,0.3,0.4,0.3,0.6l0.2,5.3l0.6,2l1.3-2.1v-2.1c0-0.2,0.1-0.5,0.3-0.6
		s0.4-0.3,0.7-0.3c0.2,0,0.5,0.1,0.6,0.3C406.1,31.3,406.2,31.5,406.2,31.7z"/>
	<path d="M416.7,31.6h3.5c0.2,0,0.5,0,0.8,0.1l0-1.3c0-0.3-0.1-0.5-0.3-0.6c-0.2-0.2-0.4-0.3-0.6-0.3h-3.4c-0.2,0-0.5-0.1-0.6-0.3
		c-0.2-0.2-0.3-0.4-0.3-0.6c0-0.3,0.1-0.5,0.3-0.6c0.2-0.2,0.4-0.3,0.6-0.3h3.4c0.7,0,1.4,0.3,1.9,0.8c0.5,0.5,0.8,1.2,0.8,1.9
		l0.2,6.8c0,0.3-0.1,0.5-0.3,0.6c-0.2,0.2-0.4,0.3-0.6,0.3c-0.3,0-0.5-0.1-0.7-0.3c-0.2-0.2-0.3-0.4-0.3-0.6l-1.5,0.9h-3.1
		c-0.8,0-1.4-0.3-1.9-0.8c-0.5-0.5-0.8-1.2-0.8-1.9v-1.1c0-0.8,0.3-1.4,0.8-1.9C415.3,31.9,415.9,31.6,416.7,31.6z M421.2,35.1
		l-0.1-0.8c0-0.3-0.1-0.5-0.3-0.6s-0.4-0.3-0.6-0.3h-3.6c-0.3,0-0.5,0.1-0.6,0.3c-0.2,0.2-0.3,0.4-0.3,0.6v1c0,0.2,0.1,0.5,0.3,0.6
		c0.2,0.2,0.4,0.3,0.6,0.3h2.5L421.2,35.1z"/>
	<path d="M436.4,30.4l-4.9,11c-0.2,0.4-0.5,0.6-0.9,0.6h-2.5c-0.3,0-0.5-0.1-0.6-0.3c-0.2-0.2-0.3-0.4-0.3-0.6
		c0-0.3,0.1-0.5,0.3-0.6c0.2-0.2,0.4-0.3,0.6-0.3h1.9l1.2-2.9h-0.4c-0.4,0-0.7-0.2-0.9-0.6l-2.7-6.3v-1.7c0-0.3,0.1-0.5,0.3-0.6
		c0.2-0.2,0.4-0.3,0.6-0.3c0.3,0,0.5,0.1,0.6,0.3c0.2,0.2,0.3,0.4,0.3,0.6V30l2.4,5.5h0.6l2.5-5.5l0-1.4c0-0.2,0.1-0.4,0.3-0.6
		c0.2-0.2,0.4-0.3,0.6-0.3c0.2,0,0.5,0.1,0.6,0.3c0.2,0.2,0.3,0.4,0.3,0.6V30.4z"/>
	<path d="M443.1,27.7h4.1c0.6,0,1.2,0.2,1.7,0.6c0.5,0.4,0.7,0.8,0.7,1.1c0,0.3-0.1,0.5-0.3,0.6c-0.2,0.2-0.4,0.2-0.6,0.2
		c-0.3,0-0.5-0.1-0.8-0.4s-0.5-0.4-0.7-0.4h-4.1c-0.4,0-0.6,0.2-0.6,0.5c0,0.2,0.1,0.4,0.4,0.5l4.8,2.1c0.5,0.2,0.9,0.6,1.2,1
		c0.3,0.5,0.5,1,0.5,1.6c0,0.8-0.3,1.4-0.8,2c-0.5,0.5-1.2,0.8-1.9,0.8h-3.7c-0.6,0-1.2-0.2-1.8-0.6c-0.5-0.4-0.8-0.7-0.8-1.1
		c0-0.2,0.1-0.4,0.3-0.6c0.2-0.2,0.4-0.3,0.7-0.3c0.2,0,0.5,0.1,0.7,0.4c0.3,0.3,0.6,0.4,1.1,0.4h3.4c0.3,0,0.5-0.1,0.7-0.3
		s0.3-0.4,0.3-0.7c0-0.4-0.2-0.7-0.6-0.9l-4.8-2.2c-0.5-0.2-0.8-0.5-1.1-0.9c-0.3-0.4-0.4-0.8-0.4-1.2c0-0.6,0.2-1.2,0.7-1.7
		C441.9,28,442.4,27.7,443.1,27.7z"/>
	<path d="M469.7,27.7h4.1c0.6,0,1.2,0.2,1.7,0.6c0.5,0.4,0.7,0.8,0.7,1.1c0,0.3-0.1,0.5-0.3,0.6c-0.2,0.2-0.4,0.2-0.6,0.2
		c-0.3,0-0.5-0.1-0.8-0.4s-0.5-0.4-0.7-0.4h-4.1c-0.4,0-0.6,0.2-0.6,0.5c0,0.2,0.1,0.4,0.4,0.5l4.8,2.1c0.5,0.2,0.9,0.6,1.2,1
		c0.3,0.5,0.5,1,0.5,1.6c0,0.8-0.3,1.4-0.8,2c-0.5,0.5-1.2,0.8-1.9,0.8h-3.7c-0.6,0-1.2-0.2-1.8-0.6c-0.5-0.4-0.8-0.7-0.8-1.1
		c0-0.2,0.1-0.4,0.3-0.6c0.2-0.2,0.4-0.3,0.7-0.3c0.2,0,0.5,0.1,0.7,0.4c0.3,0.3,0.6,0.4,1.1,0.4h3.4c0.3,0,0.5-0.1,0.7-0.3
		s0.3-0.4,0.3-0.7c0-0.4-0.2-0.7-0.6-0.9l-4.8-2.2c-0.5-0.2-0.8-0.5-1.1-0.9c-0.3-0.4-0.4-0.8-0.4-1.2c0-0.6,0.2-1.2,0.7-1.7
		C468.5,28,469,27.7,469.7,27.7z"/>
	<path d="M487.7,38.1h-5.5c-0.3,0-0.5-0.1-0.6-0.3c-0.2-0.2-0.3-0.4-0.3-0.6c0-0.2,0.1-0.5,0.3-0.6c0.2-0.2,0.4-0.3,0.6-0.3h1.8
		V25.6h-1.8c-0.3,0-0.5-0.1-0.6-0.3c-0.2-0.2-0.3-0.4-0.3-0.6c0-0.3,0.1-0.5,0.3-0.6c0.2-0.2,0.4-0.3,0.6-0.3h2.8
		c0.2,0,0.5,0.1,0.6,0.3c0.2,0.2,0.3,0.4,0.3,0.6v11.5h1.8c0.2,0,0.5,0.1,0.6,0.3c0.2,0.2,0.3,0.4,0.3,0.6c0,0.3-0.1,0.5-0.3,0.6
		C488.2,38,488,38.1,487.7,38.1z"/>
	<path d="M501,38.1h-5.5c-0.3,0-0.5-0.1-0.6-0.3c-0.2-0.2-0.3-0.4-0.3-0.6c0-0.2,0.1-0.5,0.3-0.6c0.2-0.2,0.4-0.3,0.6-0.3h1.8v-6.7
		h-1.8c-0.3,0-0.5-0.1-0.6-0.3c-0.2-0.2-0.3-0.4-0.3-0.6c0-0.3,0.1-0.5,0.3-0.6c0.2-0.2,0.4-0.3,0.6-0.3h2.8c0.3,0,0.5,0.1,0.6,0.3
		c0.2,0.2,0.3,0.4,0.3,0.6v7.6h1.8c0.3,0,0.5,0.1,0.6,0.3c0.2,0.2,0.3,0.4,0.3,0.6c0,0.3-0.1,0.5-0.3,0.6
		C501.5,38,501.3,38.1,501,38.1z M497.3,23h0.9c0.3,0,0.5,0.1,0.6,0.3c0.2,0.2,0.3,0.4,0.3,0.6v0.8c0,0.3-0.1,0.5-0.3,0.6
		c-0.2,0.2-0.4,0.3-0.6,0.3h-1c-0.3,0-0.5-0.1-0.6-0.3c-0.2-0.2-0.3-0.4-0.3-0.6l0-0.8c0-0.3,0.1-0.5,0.3-0.6
		C496.9,23.1,497.1,23,497.3,23z"/>
	<path d="M512.7,42h-3.9c-0.3,0-0.5-0.1-0.6-0.3c-0.2-0.2-0.3-0.4-0.3-0.6c0-0.3,0.1-0.5,0.3-0.6c0.2-0.2,0.4-0.3,0.6-0.3h3.9
		c0.2,0,0.5-0.1,0.7-0.3l0.6-0.5c0.2-0.2,0.3-0.4,0.3-0.6V36c-0.8,0.9-1.7,1.3-2.5,1.3h-1.4c-0.7,0-1.4-0.2-1.9-0.7l-0.7-0.6
		c-0.2-0.2-0.4-0.5-0.6-0.8c-0.2-0.4-0.2-0.7-0.2-1.1v-3c0-0.4,0.1-0.8,0.2-1.2c0.2-0.4,0.4-0.7,0.6-0.8l0.7-0.6
		c0.5-0.5,1.2-0.7,1.9-0.7h1.3c0.7,0,1.4,0.3,1.9,0.8l0.6,0.5l0-0.4c0-0.2,0.1-0.5,0.3-0.6c0.2-0.2,0.4-0.3,0.6-0.3
		c0.3,0,0.5,0.1,0.6,0.3c0.2,0.2,0.3,0.4,0.3,0.6v10.1c0,0.8-0.3,1.4-0.9,2l-0.7,0.6c-0.2,0.2-0.4,0.3-0.8,0.4
		C513.3,41.9,513,42,512.7,42z M511.7,29.5h-1.2c-0.3,0-0.5,0.1-0.8,0.3l-0.6,0.5c-0.2,0.2-0.3,0.4-0.3,0.7v3c0,0.2,0.1,0.5,0.4,0.7
		l0.6,0.5c0.2,0.2,0.4,0.2,0.6,0.2h1.5c0.2,0,0.5-0.1,0.7-0.3l1.4-1.2c0.2-0.2,0.3-0.4,0.3-0.7v-1.4c0-0.3-0.1-0.6-0.4-0.8l-1.5-1.3
		C512.2,29.6,512,29.5,511.7,29.5z"/>
	<path d="M520.3,37.2V24.7c0-0.2,0.1-0.5,0.3-0.6c0.2-0.2,0.4-0.3,0.6-0.3s0.5,0.1,0.6,0.3c0.2,0.2,0.3,0.4,0.3,0.6v4.6l1.5-0.9
		c0.7-0.4,1.2-0.6,1.8-0.6h1.1c0.7,0,1.4,0.3,1.9,0.8s0.8,1.2,0.8,1.9l0.2,6.8c0,0.3-0.1,0.5-0.3,0.6c-0.2,0.2-0.4,0.3-0.6,0.3
		s-0.5-0.1-0.6-0.3s-0.3-0.4-0.3-0.6l-0.2-6.8c0-0.2-0.1-0.5-0.3-0.6c-0.2-0.2-0.4-0.3-0.6-0.3h-1c-0.2,0-0.5,0.1-0.8,0.3l-2.6,1.7
		v5.7c0,0.3-0.1,0.5-0.3,0.6c-0.2,0.2-0.4,0.3-0.6,0.3s-0.5-0.1-0.6-0.3C520.4,37.7,520.3,37.4,520.3,37.2z"/>
	<path d="M539.9,38.1h-1.8c-0.7,0-1.4-0.3-1.9-0.8c-0.5-0.5-0.8-1.2-0.8-1.9v-5.9h-0.9c-0.3,0-0.5-0.1-0.6-0.3
		c-0.2-0.2-0.3-0.4-0.3-0.6c0-0.3,0.1-0.5,0.3-0.6c0.2-0.2,0.4-0.3,0.6-0.3h0.9v-2.2c0-0.3,0.1-0.5,0.3-0.6c0.2-0.2,0.4-0.3,0.6-0.3
		c0.2,0,0.4,0.1,0.6,0.3c0.2,0.2,0.3,0.4,0.3,0.6v2.2h3.6c0.2,0,0.5,0.1,0.6,0.3c0.2,0.2,0.3,0.4,0.3,0.6c0,0.3-0.1,0.5-0.3,0.6
		c-0.2,0.2-0.4,0.3-0.6,0.3h-3.7v5.9c0,0.2,0.1,0.5,0.3,0.6c0.2,0.2,0.4,0.3,0.6,0.3h1.8c0.5,0,0.8-0.3,1-0.8
		c0.2-0.5,0.5-0.8,0.9-0.8c0.3,0,0.5,0.1,0.6,0.3c0.2,0.2,0.3,0.4,0.3,0.7c0,0.5-0.3,1.1-0.8,1.6C541.4,37.8,540.7,38.1,539.9,38.1z
		"/>
	<path d="M554.2,38.1h-5.5c-0.3,0-0.5-0.1-0.6-0.3c-0.2-0.2-0.3-0.4-0.3-0.6c0-0.2,0.1-0.5,0.3-0.6c0.2-0.2,0.4-0.3,0.6-0.3h1.8
		V25.6h-1.8c-0.3,0-0.5-0.1-0.6-0.3c-0.2-0.2-0.3-0.4-0.3-0.6c0-0.3,0.1-0.5,0.3-0.6c0.2-0.2,0.4-0.3,0.6-0.3h2.8
		c0.2,0,0.5,0.1,0.6,0.3c0.2,0.2,0.3,0.4,0.3,0.6v11.5h1.8c0.2,0,0.5,0.1,0.6,0.3c0.2,0.2,0.3,0.4,0.3,0.6c0,0.3-0.1,0.5-0.3,0.6
		C554.6,38,554.4,38.1,554.2,38.1z"/>
	<path d="M569.3,30.4l-4.9,11c-0.2,0.4-0.5,0.6-0.9,0.6H561c-0.3,0-0.5-0.1-0.6-0.3c-0.2-0.2-0.3-0.4-0.3-0.6c0-0.3,0.1-0.5,0.3-0.6
		c0.2-0.2,0.4-0.3,0.6-0.3h1.9l1.2-2.9h-0.4c-0.4,0-0.7-0.2-0.9-0.6l-2.7-6.3v-1.7c0-0.3,0.1-0.5,0.3-0.6c0.2-0.2,0.4-0.3,0.6-0.3
		c0.3,0,0.5,0.1,0.6,0.3c0.2,0.2,0.3,0.4,0.3,0.6V30l2.4,5.5h0.6l2.5-5.5l0-1.4c0-0.2,0.1-0.4,0.3-0.6c0.2-0.2,0.4-0.3,0.6-0.3
		c0.2,0,0.5,0.1,0.6,0.3c0.2,0.2,0.3,0.4,0.3,0.6V30.4z"/>
	<path d="M81.8,63.6V55c0-0.3,0.1-0.5,0.3-0.6c0.2-0.2,0.4-0.3,0.6-0.3c0.3,0,0.5,0.1,0.6,0.3c0.2,0.2,0.3,0.4,0.3,0.7v1.1l1.5-1.3
		c0.6-0.5,1.2-0.8,1.8-0.8h1.3c0.7,0,1.4,0.3,1.9,0.8c0.5,0.5,0.8,1.2,0.8,1.9v0.5c0,0.3-0.1,0.5-0.3,0.7c-0.2,0.2-0.4,0.3-0.6,0.3
		c-0.3,0-0.5-0.1-0.6-0.3c-0.2-0.2-0.3-0.4-0.3-0.6v-0.5c0-0.3-0.1-0.5-0.3-0.6c-0.2-0.2-0.4-0.3-0.6-0.3H87c-0.3,0-0.5,0.1-0.8,0.4
		l-2.6,2.2v5c0,0.3-0.1,0.5-0.3,0.6c-0.2,0.2-0.4,0.3-0.6,0.3c-0.3,0-0.5-0.1-0.6-0.3C81.9,64.1,81.8,63.8,81.8,63.6z"/>
	<path d="M104.2,57.4v3.8c0,0.8-0.4,1.6-1.1,2.2s-1.5,1-2.4,1h-2.1c-0.8,0-1.6-0.3-2.4-1s-1.1-1.4-1.1-2.2v-3.8
		c0-0.8,0.4-1.5,1.1-2.2c0.7-0.7,1.5-1,2.4-1h2.1c0.8,0,1.6,0.3,2.4,1S104.2,56.6,104.2,57.4z M96.9,57.5v3.7c0,0.3,0.1,0.6,0.4,0.8
		l0.7,0.6c0.2,0.1,0.4,0.2,0.6,0.2h2.1c0.3,0,0.6-0.1,0.8-0.3l0.5-0.5c0.2-0.2,0.3-0.4,0.3-0.7v-3.7c0-0.4-0.1-0.6-0.3-0.8l-0.6-0.5
		c-0.2-0.2-0.5-0.3-0.8-0.3h-1.9c-0.4,0-0.7,0.1-0.9,0.3l-0.6,0.5C97,56.9,96.9,57.2,96.9,57.5z"/>
	<path d="M114.7,64.5h-1.8c-0.7,0-1.4-0.3-1.9-0.8c-0.5-0.5-0.8-1.2-0.8-1.9v-5.9h-0.9c-0.3,0-0.5-0.1-0.6-0.3
		c-0.2-0.2-0.3-0.4-0.3-0.6c0-0.3,0.1-0.5,0.3-0.6c0.2-0.2,0.4-0.3,0.6-0.3h0.9v-2.2c0-0.3,0.1-0.5,0.3-0.6c0.2-0.2,0.4-0.3,0.6-0.3
		c0.2,0,0.4,0.1,0.6,0.3c0.2,0.2,0.3,0.4,0.3,0.6v2.2h3.6c0.2,0,0.5,0.1,0.6,0.3c0.2,0.2,0.3,0.4,0.3,0.6c0,0.3-0.1,0.5-0.3,0.6
		c-0.2,0.2-0.4,0.3-0.6,0.3H112v5.9c0,0.2,0.1,0.5,0.3,0.6c0.2,0.2,0.4,0.3,0.6,0.3h1.8c0.5,0,0.8-0.3,1-0.8
		c0.2-0.5,0.5-0.8,0.9-0.8c0.3,0,0.5,0.1,0.6,0.3c0.2,0.2,0.3,0.4,0.3,0.7c0,0.5-0.3,1.1-0.8,1.6C116.2,64.2,115.5,64.5,114.7,64.5z
		"/>
	<path d="M124.3,58h3.5c0.2,0,0.5,0,0.8,0.1l0-1.3c0-0.3-0.1-0.5-0.3-0.6c-0.2-0.2-0.4-0.3-0.6-0.3h-3.4c-0.2,0-0.5-0.1-0.6-0.3
		c-0.2-0.2-0.3-0.4-0.3-0.6c0-0.3,0.1-0.5,0.3-0.6c0.2-0.2,0.4-0.3,0.6-0.3h3.4c0.7,0,1.4,0.3,1.9,0.8c0.5,0.5,0.8,1.2,0.8,1.9
		l0.2,6.8c0,0.3-0.1,0.5-0.3,0.6c-0.2,0.2-0.4,0.3-0.6,0.3c-0.3,0-0.5-0.1-0.7-0.3c-0.2-0.2-0.3-0.4-0.3-0.6l-1.5,0.9h-3.1
		c-0.8,0-1.4-0.3-1.9-0.8c-0.5-0.5-0.8-1.2-0.8-1.9v-1.1c0-0.8,0.3-1.4,0.8-1.9C123,58.3,123.6,58,124.3,58z M128.9,61.5l-0.1-0.8
		c0-0.3-0.1-0.5-0.3-0.6s-0.4-0.3-0.6-0.3h-3.6c-0.3,0-0.5,0.1-0.6,0.3c-0.2,0.2-0.3,0.4-0.3,0.6v1c0,0.2,0.1,0.5,0.3,0.6
		c0.2,0.2,0.4,0.3,0.6,0.3h2.5L128.9,61.5z"/>
	<path d="M141.3,64.5h-1.8c-0.7,0-1.4-0.3-1.9-0.8c-0.5-0.5-0.8-1.2-0.8-1.9v-5.9h-0.9c-0.3,0-0.5-0.1-0.6-0.3
		c-0.2-0.2-0.3-0.4-0.3-0.6c0-0.3,0.1-0.5,0.3-0.6c0.2-0.2,0.4-0.3,0.6-0.3h0.9v-2.2c0-0.3,0.1-0.5,0.3-0.6c0.2-0.2,0.4-0.3,0.6-0.3
		c0.2,0,0.4,0.1,0.6,0.3c0.2,0.2,0.3,0.4,0.3,0.6v2.2h3.6c0.2,0,0.5,0.1,0.6,0.3c0.2,0.2,0.3,0.4,0.3,0.6c0,0.3-0.1,0.5-0.3,0.6
		c-0.2,0.2-0.4,0.3-0.6,0.3h-3.7v5.9c0,0.2,0.1,0.5,0.3,0.6c0.2,0.2,0.4,0.3,0.6,0.3h1.8c0.5,0,0.8-0.3,1-0.8
		c0.2-0.5,0.5-0.8,0.9-0.8c0.3,0,0.5,0.1,0.6,0.3c0.2,0.2,0.3,0.4,0.3,0.7c0,0.5-0.3,1.1-0.8,1.6C142.7,64.2,142.1,64.5,141.3,64.5z
		"/>
	<path d="M157.3,57.5v2.2c0,0.2-0.1,0.5-0.3,0.6c-0.2,0.2-0.4,0.3-0.6,0.3H150v0.5c0,0.3,0.1,0.6,0.4,0.8l0.5,0.4
		c0.3,0.2,0.6,0.3,0.8,0.3h4.6c0.2,0,0.5,0.1,0.6,0.3c0.2,0.2,0.3,0.4,0.3,0.6c0,0.2-0.1,0.5-0.3,0.6c-0.2,0.2-0.4,0.3-0.6,0.3h-4.8
		c-0.3,0-0.6-0.1-1-0.2c-0.3-0.1-0.6-0.3-0.8-0.4l-0.8-0.7c-0.3-0.2-0.5-0.5-0.6-0.8c-0.2-0.4-0.3-0.7-0.3-1v-4.1
		c0-0.2,0.1-0.6,0.3-1c0.2-0.4,0.4-0.7,0.7-0.9l0.8-0.6c0.5-0.4,1-0.6,1.6-0.6h2.5c0.6,0,1.2,0.3,1.8,0.8l0.7,0.6
		C157.1,56,157.3,56.7,157.3,57.5z M150.1,57.4v1.4h5.5v-1.3c0-0.3-0.1-0.6-0.3-0.8l-0.5-0.5c-0.3-0.2-0.5-0.3-0.7-0.3h-2.3
		c-0.3,0-0.5,0.1-0.8,0.3l-0.5,0.4C150.2,56.9,150.1,57.1,150.1,57.4z"/>
	<path d="M168.8,55.4v-4.3c0-0.3,0.1-0.5,0.3-0.6c0.2-0.2,0.4-0.3,0.6-0.3c0.3,0,0.5,0.1,0.6,0.3c0.2,0.2,0.3,0.4,0.3,0.6v12.5
		c0,0.3-0.1,0.5-0.3,0.6c-0.2,0.2-0.4,0.3-0.6,0.3c-0.3,0-0.5-0.1-0.6-0.3c-0.2-0.2-0.3-0.4-0.3-0.6v-0.4c-0.9,0.9-1.7,1.3-2.5,1.3
		h-1.5c-0.6,0-1.2-0.3-1.8-0.8l-0.8-0.6c-0.2-0.2-0.3-0.4-0.5-0.8c-0.2-0.4-0.2-0.7-0.2-1.1v-3.7c0-0.4,0.1-0.8,0.3-1.2
		c0.2-0.4,0.4-0.7,0.6-0.9l0.7-0.6c0.5-0.5,1.2-0.7,1.9-0.7h1.3c0.7,0,1.4,0.3,1.9,0.8L168.8,55.4z M166.2,55.9h-1.3
		c-0.3,0-0.5,0.1-0.7,0.3l-0.6,0.5c-0.2,0.2-0.3,0.4-0.3,0.7v3.8c0,0.3,0.1,0.5,0.4,0.7l0.6,0.5c0.2,0.2,0.4,0.2,0.6,0.2h1.5
		c0.2,0,0.4-0.1,0.7-0.3l1.4-1.2c0.2-0.2,0.4-0.5,0.4-0.8v-2c0-0.4-0.1-0.8-0.4-1l-1.5-1.3C166.7,56,166.5,55.9,166.2,55.9z"/>
	<path d="M190.6,54.1h4.1c0.6,0,1.2,0.2,1.7,0.6c0.5,0.4,0.7,0.8,0.7,1.1c0,0.3-0.1,0.5-0.3,0.6c-0.2,0.2-0.4,0.2-0.6,0.2
		c-0.3,0-0.5-0.1-0.8-0.4s-0.5-0.4-0.7-0.4h-4.1c-0.4,0-0.6,0.2-0.6,0.5c0,0.2,0.1,0.4,0.4,0.5l4.8,2.1c0.5,0.2,0.9,0.6,1.2,1
		c0.3,0.5,0.5,1,0.5,1.6c0,0.8-0.3,1.4-0.8,2s-1.2,0.8-1.9,0.8h-3.7c-0.6,0-1.2-0.2-1.8-0.6c-0.5-0.4-0.8-0.7-0.8-1.1
		c0-0.2,0.1-0.4,0.3-0.6c0.2-0.2,0.4-0.3,0.7-0.3c0.2,0,0.5,0.1,0.7,0.4c0.3,0.3,0.6,0.4,1.1,0.4h3.4c0.3,0,0.5-0.1,0.7-0.3
		c0.2-0.2,0.3-0.4,0.3-0.7c0-0.4-0.2-0.7-0.6-0.9l-4.8-2.2c-0.5-0.2-0.8-0.5-1.1-0.9c-0.3-0.4-0.4-0.8-0.4-1.2
		c0-0.6,0.2-1.2,0.7-1.7C189.4,54.4,190,54.1,190.6,54.1z"/>
	<path d="M210.5,57.4v3.8c0,0.8-0.4,1.6-1.1,2.2s-1.5,1-2.4,1h-2.1c-0.8,0-1.6-0.3-2.4-1s-1.1-1.4-1.1-2.2v-3.8
		c0-0.8,0.4-1.5,1.1-2.2c0.7-0.7,1.5-1,2.4-1h2.1c0.8,0,1.6,0.3,2.4,1S210.5,56.6,210.5,57.4z M203.2,57.5v3.7
		c0,0.3,0.1,0.6,0.4,0.8l0.7,0.6c0.2,0.1,0.4,0.2,0.6,0.2h2.1c0.3,0,0.6-0.1,0.8-0.3l0.5-0.5c0.2-0.2,0.3-0.4,0.3-0.7v-3.7
		c0-0.4-0.1-0.6-0.3-0.8l-0.6-0.5c-0.2-0.2-0.5-0.3-0.8-0.3h-1.9c-0.4,0-0.7,0.1-0.9,0.3l-0.6,0.5C203.3,56.9,203.2,57.2,203.2,57.5
		z"/>
	<path d="M237.1,56.8l-4.9,11c-0.2,0.4-0.5,0.6-0.9,0.6h-2.5c-0.3,0-0.5-0.1-0.6-0.3s-0.3-0.4-0.3-0.6c0-0.3,0.1-0.5,0.3-0.6
		c0.2-0.2,0.4-0.3,0.6-0.3h1.9l1.2-2.9h-0.4c-0.4,0-0.7-0.2-0.9-0.6l-2.7-6.3V55c0-0.3,0.1-0.5,0.3-0.6c0.2-0.2,0.4-0.3,0.6-0.3
		c0.3,0,0.5,0.1,0.6,0.3c0.2,0.2,0.3,0.4,0.3,0.6l0,1.3l2.4,5.5h0.6l2.5-5.5l0-1.4c0-0.2,0.1-0.4,0.3-0.6c0.2-0.2,0.4-0.3,0.6-0.3
		c0.2,0,0.5,0.1,0.6,0.3c0.2,0.2,0.3,0.4,0.3,0.6V56.8z"/>
	<path d="M250.3,57.4v3.8c0,0.8-0.4,1.6-1.1,2.2s-1.5,1-2.4,1h-2.1c-0.8,0-1.6-0.3-2.4-1s-1.1-1.4-1.1-2.2v-3.8
		c0-0.8,0.4-1.5,1.1-2.2c0.7-0.7,1.5-1,2.4-1h2.1c0.8,0,1.6,0.3,2.4,1S250.3,56.6,250.3,57.4z M243.1,57.5v3.7
		c0,0.3,0.1,0.6,0.4,0.8l0.7,0.6c0.2,0.1,0.4,0.2,0.6,0.2h2.1c0.3,0,0.6-0.1,0.8-0.3l0.5-0.5c0.2-0.2,0.3-0.4,0.3-0.7v-3.7
		c0-0.4-0.1-0.6-0.3-0.8l-0.6-0.5c-0.2-0.2-0.5-0.3-0.8-0.3h-1.9c-0.4,0-0.7,0.1-0.9,0.3l-0.6,0.5C243.2,56.9,243.1,57.2,243.1,57.5
		z"/>
	<path d="M258.8,62.7l3-1.9V55c0-0.3,0.1-0.5,0.3-0.6c0.2-0.2,0.4-0.3,0.6-0.3c0.3,0,0.5,0.1,0.6,0.3c0.2,0.2,0.3,0.4,0.3,0.6v8.6
		c0,0.2-0.1,0.5-0.3,0.6c-0.2,0.2-0.4,0.3-0.6,0.3c-0.2,0-0.5-0.1-0.6-0.3c-0.2-0.2-0.3-0.4-0.3-0.6v-0.7l-1.6,1
		c-0.6,0.4-1.2,0.6-1.9,0.6h-0.8c-0.7,0-1.4-0.3-1.9-0.8c-0.5-0.5-0.8-1.1-0.8-1.9l-0.3-6.8c0-0.2,0.1-0.4,0.3-0.6s0.4-0.3,0.6-0.3
		c0.2,0,0.5,0.1,0.6,0.3c0.2,0.2,0.3,0.4,0.3,0.6l0.2,6.7c0,0.6,0.4,1,1.1,1H258.8z"/>
	<path d="M267.8,63.6V55c0-0.3,0.1-0.5,0.3-0.6c0.2-0.2,0.4-0.3,0.6-0.3c0.3,0,0.5,0.1,0.6,0.3c0.2,0.2,0.3,0.4,0.3,0.7v1.1l1.5-1.3
		c0.6-0.5,1.2-0.8,1.8-0.8h1.3c0.7,0,1.4,0.3,1.9,0.8c0.5,0.5,0.8,1.2,0.8,1.9v0.5c0,0.3-0.1,0.5-0.3,0.7c-0.2,0.2-0.4,0.3-0.6,0.3
		c-0.3,0-0.5-0.1-0.6-0.3c-0.2-0.2-0.3-0.4-0.3-0.6v-0.5c0-0.3-0.1-0.5-0.3-0.6c-0.2-0.2-0.4-0.3-0.6-0.3H273
		c-0.3,0-0.5,0.1-0.8,0.4l-2.6,2.2v5c0,0.3-0.1,0.5-0.3,0.6c-0.2,0.2-0.4,0.3-0.6,0.3c-0.3,0-0.5-0.1-0.6-0.3
		C267.9,64.1,267.8,63.8,267.8,63.6z"/>
	<path d="M297.1,58h3.5c0.2,0,0.5,0,0.8,0.1l0-1.3c0-0.3-0.1-0.5-0.3-0.6c-0.2-0.2-0.4-0.3-0.6-0.3h-3.4c-0.2,0-0.5-0.1-0.6-0.3
		c-0.2-0.2-0.3-0.4-0.3-0.6c0-0.3,0.1-0.5,0.3-0.6c0.2-0.2,0.4-0.3,0.6-0.3h3.4c0.7,0,1.4,0.3,1.9,0.8c0.5,0.5,0.8,1.2,0.8,1.9
		l0.2,6.8c0,0.3-0.1,0.5-0.3,0.6c-0.2,0.2-0.4,0.3-0.6,0.3c-0.3,0-0.5-0.1-0.7-0.3c-0.2-0.2-0.3-0.4-0.3-0.6l-1.5,0.9h-3.1
		c-0.8,0-1.4-0.3-1.9-0.8c-0.5-0.5-0.8-1.2-0.8-1.9v-1.1c0-0.8,0.3-1.4,0.8-1.9C295.7,58.3,296.3,58,297.1,58z M301.6,61.5l-0.1-0.8
		c0-0.3-0.1-0.5-0.3-0.6s-0.4-0.3-0.6-0.3h-3.6c-0.3,0-0.5,0.1-0.6,0.3c-0.2,0.2-0.3,0.4-0.3,0.6v1c0,0.2,0.1,0.5,0.3,0.6
		c0.2,0.2,0.4,0.3,0.6,0.3h2.5L301.6,61.5z"/>
	<path d="M315,64.5h-5.5c-0.3,0-0.5-0.1-0.6-0.3c-0.2-0.2-0.3-0.4-0.3-0.6c0-0.2,0.1-0.5,0.3-0.6c0.2-0.2,0.4-0.3,0.6-0.3h1.8V52
		h-1.8c-0.3,0-0.5-0.1-0.6-0.3c-0.2-0.2-0.3-0.4-0.3-0.6c0-0.3,0.1-0.5,0.3-0.6c0.2-0.2,0.4-0.3,0.6-0.3h2.8c0.2,0,0.5,0.1,0.6,0.3
		c0.2,0.2,0.3,0.4,0.3,0.6v11.5h1.8c0.2,0,0.5,0.1,0.6,0.3c0.2,0.2,0.3,0.4,0.3,0.6c0,0.3-0.1,0.5-0.3,0.6
		C315.4,64.4,315.2,64.5,315,64.5z"/>
	<path d="M326.4,58.1v2.1l1.2,2.1l0.6-2.1l0.2-5.3c0-0.2,0.1-0.5,0.3-0.6c0.2-0.2,0.4-0.3,0.6-0.3c0.3,0,0.5,0.1,0.6,0.3
		c0.2,0.2,0.3,0.4,0.3,0.6l-0.2,5.6l-1,3.2c-0.1,0.4-0.4,0.7-0.8,0.7h-1c-0.3,0-0.6-0.2-0.8-0.5l-1-1.7l-1,1.7
		c-0.2,0.3-0.5,0.5-0.8,0.5h-0.9c-0.2,0-0.4-0.1-0.6-0.2c-0.2-0.1-0.3-0.3-0.3-0.4l-0.9-3.3l-0.2-5.5c0-0.2,0.1-0.4,0.3-0.6
		c0.2-0.2,0.4-0.3,0.7-0.3c0.2,0,0.4,0.1,0.6,0.3c0.2,0.2,0.3,0.4,0.3,0.6l0.2,5.3l0.6,2l1.3-2.1v-2.1c0-0.2,0.1-0.5,0.3-0.6
		c0.2-0.2,0.4-0.3,0.7-0.3c0.2,0,0.5,0.1,0.6,0.3C326.3,57.7,326.4,57.9,326.4,58.1z"/>
	<path d="M337,58h3.5c0.2,0,0.5,0,0.8,0.1l0-1.3c0-0.3-0.1-0.5-0.3-0.6c-0.2-0.2-0.4-0.3-0.6-0.3H337c-0.2,0-0.5-0.1-0.6-0.3
		c-0.2-0.2-0.3-0.4-0.3-0.6c0-0.3,0.1-0.5,0.3-0.6c0.2-0.2,0.4-0.3,0.6-0.3h3.4c0.7,0,1.4,0.3,1.9,0.8c0.5,0.5,0.8,1.2,0.8,1.9
		l0.2,6.8c0,0.3-0.1,0.5-0.3,0.6c-0.2,0.2-0.4,0.3-0.6,0.3c-0.3,0-0.5-0.1-0.7-0.3c-0.2-0.2-0.3-0.4-0.3-0.6l-1.5,0.9H337
		c-0.8,0-1.4-0.3-1.9-0.8c-0.5-0.5-0.8-1.2-0.8-1.9v-1.1c0-0.8,0.3-1.4,0.8-1.9C335.6,58.3,336.2,58,337,58z M341.5,61.5l-0.1-0.8
		c0-0.3-0.1-0.5-0.3-0.6s-0.4-0.3-0.6-0.3H337c-0.3,0-0.5,0.1-0.6,0.3c-0.2,0.2-0.3,0.4-0.3,0.6v1c0,0.2,0.1,0.5,0.3,0.6
		c0.2,0.2,0.4,0.3,0.6,0.3h2.5L341.5,61.5z"/>
	<path d="M356.7,56.8l-4.9,11c-0.2,0.4-0.5,0.6-0.9,0.6h-2.5c-0.3,0-0.5-0.1-0.6-0.3s-0.3-0.4-0.3-0.6c0-0.3,0.1-0.5,0.3-0.6
		c0.2-0.2,0.4-0.3,0.6-0.3h1.9l1.2-2.9h-0.4c-0.4,0-0.7-0.2-0.9-0.6l-2.7-6.3V55c0-0.3,0.1-0.5,0.3-0.6c0.2-0.2,0.4-0.3,0.6-0.3
		c0.3,0,0.5,0.1,0.6,0.3c0.2,0.2,0.3,0.4,0.3,0.6l0,1.3l2.4,5.5h0.6l2.5-5.5l0-1.4c0-0.2,0.1-0.4,0.3-0.6c0.2-0.2,0.4-0.3,0.6-0.3
		c0.2,0,0.5,0.1,0.6,0.3c0.2,0.2,0.3,0.4,0.3,0.6V56.8z"/>
	<path d="M363.4,54.1h4.1c0.6,0,1.2,0.2,1.7,0.6c0.5,0.4,0.7,0.8,0.7,1.1c0,0.3-0.1,0.5-0.3,0.6c-0.2,0.2-0.4,0.2-0.6,0.2
		c-0.3,0-0.5-0.1-0.8-0.4s-0.5-0.4-0.7-0.4h-4.1c-0.4,0-0.6,0.2-0.6,0.5c0,0.2,0.1,0.4,0.4,0.5l4.8,2.1c0.5,0.2,0.9,0.6,1.2,1
		c0.3,0.5,0.5,1,0.5,1.6c0,0.8-0.3,1.4-0.8,2s-1.2,0.8-1.9,0.8h-3.7c-0.6,0-1.2-0.2-1.8-0.6c-0.5-0.4-0.8-0.7-0.8-1.1
		c0-0.2,0.1-0.4,0.3-0.6c0.2-0.2,0.4-0.3,0.7-0.3c0.2,0,0.5,0.1,0.7,0.4c0.3,0.3,0.6,0.4,1.1,0.4h3.4c0.3,0,0.5-0.1,0.7-0.3
		c0.2-0.2,0.3-0.4,0.3-0.7c0-0.4-0.2-0.7-0.6-0.9l-4.8-2.2c-0.5-0.2-0.8-0.5-1.1-0.9c-0.3-0.4-0.4-0.8-0.4-1.2
		c0-0.6,0.2-1.2,0.7-1.7C362.2,54.4,362.7,54.1,363.4,54.1z"/>
	<path d="M391.7,62.7l3-1.9V55c0-0.3,0.1-0.5,0.3-0.6c0.2-0.2,0.4-0.3,0.6-0.3c0.3,0,0.5,0.1,0.6,0.3c0.2,0.2,0.3,0.4,0.3,0.6v8.6
		c0,0.2-0.1,0.5-0.3,0.6c-0.2,0.2-0.4,0.3-0.6,0.3c-0.2,0-0.5-0.1-0.6-0.3c-0.2-0.2-0.3-0.4-0.3-0.6v-0.7l-1.6,1
		c-0.6,0.4-1.2,0.6-1.9,0.6h-0.8c-0.7,0-1.4-0.3-1.9-0.8c-0.5-0.5-0.8-1.1-0.8-1.9l-0.3-6.8c0-0.2,0.1-0.4,0.3-0.6s0.4-0.3,0.6-0.3
		c0.2,0,0.5,0.1,0.6,0.3c0.2,0.2,0.3,0.4,0.3,0.6l0.2,6.7c0,0.6,0.4,1,1.1,1H391.7z"/>
	<path d="M405,56.2l-2.5,1.6v5.8c0,0.2-0.1,0.5-0.3,0.6c-0.2,0.2-0.4,0.3-0.6,0.3s-0.5-0.1-0.6-0.3c-0.2-0.2-0.3-0.4-0.3-0.6V55
		c0-0.3,0.1-0.5,0.3-0.6c0.2-0.2,0.4-0.3,0.6-0.3c0.2,0,0.5,0.1,0.6,0.3s0.3,0.4,0.3,0.6v0.6l1.6-1c0.6-0.4,1.2-0.5,1.9-0.5h0.8
		c0.7,0,1.3,0.3,1.9,0.8c0.5,0.5,0.8,1.1,0.8,1.9l0.2,6.8c0,0.2-0.1,0.5-0.3,0.6c-0.2,0.2-0.4,0.3-0.6,0.3c-0.2,0-0.4-0.1-0.6-0.2
		s-0.3-0.4-0.3-0.7l-0.3-6.7c0-0.6-0.4-0.9-1-0.9h-0.9C405.6,55.9,405.3,56,405,56.2z"/>
	<path d="M422.2,64.5h-3.9c-0.7,0-1.3-0.2-1.7-0.6l-1.8-1.5c-0.6-0.5-0.8-1.1-0.8-1.9v-2.4c0-0.8,0.3-1.4,0.9-2l1.6-1.4
		c0.5-0.4,1.1-0.6,1.6-0.6h4c0.3,0,0.5,0.1,0.6,0.3c0.2,0.2,0.3,0.4,0.3,0.6c0,0.3-0.1,0.5-0.3,0.6c-0.2,0.2-0.4,0.3-0.6,0.3h-3.9
		c-0.2,0-0.5,0.1-0.7,0.3l-1.5,1.2c-0.2,0.2-0.4,0.5-0.4,0.8v2.2c0,0.2,0.1,0.4,0.3,0.6l1.6,1.4c0.2,0.2,0.5,0.3,0.8,0.3h3.7
		c0.2,0,0.5,0.1,0.6,0.3c0.2,0.2,0.3,0.4,0.3,0.6c0,0.3-0.1,0.5-0.3,0.6C422.7,64.4,422.5,64.5,422.2,64.5z"/>
	<path d="M436.4,57.4v3.8c0,0.8-0.4,1.6-1.1,2.2c-0.8,0.7-1.5,1-2.4,1h-2.1c-0.8,0-1.6-0.3-2.4-1s-1.1-1.4-1.1-2.2v-3.8
		c0-0.8,0.4-1.5,1.1-2.2c0.7-0.7,1.5-1,2.4-1h2.1c0.8,0,1.6,0.3,2.4,1C436,55.8,436.4,56.6,436.4,57.4z M429.1,57.5v3.7
		c0,0.3,0.1,0.6,0.4,0.8l0.7,0.6c0.2,0.1,0.4,0.2,0.6,0.2h2.1c0.3,0,0.6-0.1,0.8-0.3l0.5-0.5c0.2-0.2,0.3-0.4,0.3-0.7v-3.7
		c0-0.4-0.1-0.6-0.3-0.8l-0.6-0.5c-0.2-0.2-0.5-0.3-0.8-0.3H431c-0.4,0-0.7,0.1-0.9,0.3l-0.6,0.5C429.2,56.9,429.1,57.2,429.1,57.5z
		"/>
	<path d="M440.3,63.6V55c0-0.3,0.1-0.5,0.3-0.6c0.2-0.2,0.4-0.3,0.6-0.3c0.5,0,0.8,0.2,0.9,0.7c0.5-0.5,1.1-0.7,1.7-0.7
		c0.7,0,1.3,0.3,1.8,0.9c0.6-0.6,1.2-0.9,1.9-0.9c0.6,0,1,0.2,1.5,0.6s0.6,0.9,0.7,1.5l0.3,7.4c0,0.2-0.1,0.5-0.3,0.6
		c-0.2,0.2-0.4,0.3-0.6,0.3c-0.3,0-0.5-0.1-0.6-0.3c-0.2-0.2-0.3-0.4-0.3-0.6l-0.2-7.1c0-0.4-0.1-0.6-0.4-0.6
		c-0.1,0-0.2,0.1-0.4,0.2L446,57v6.6c0,0.2-0.1,0.5-0.3,0.6c-0.2,0.2-0.4,0.3-0.6,0.3c-0.2,0-0.5-0.1-0.6-0.3
		c-0.2-0.2-0.3-0.4-0.3-0.6v-7.2c0-0.3-0.1-0.5-0.4-0.5c-0.1,0-0.2,0-0.4,0.1l-1.3,1.1v6.4c0,0.2-0.1,0.5-0.3,0.6
		c-0.2,0.2-0.4,0.3-0.6,0.3c-0.3,0-0.5-0.1-0.7-0.3C440.4,64,440.3,63.8,440.3,63.6z"/>
	<path d="M458,55.9v7.7c0,0.3-0.1,0.5-0.3,0.6c-0.2,0.2-0.4,0.3-0.6,0.3c-0.3,0-0.5-0.1-0.7-0.3c-0.2-0.2-0.3-0.4-0.3-0.6v-7.7h-0.9
		c-0.3,0-0.5-0.1-0.6-0.3c-0.2-0.2-0.3-0.4-0.3-0.6c0-0.2,0.1-0.4,0.2-0.6c0.2-0.2,0.4-0.3,0.7-0.3h0.9v-0.7c0-0.9,0.3-1.7,1-2.3
		c0.6-0.6,1.4-0.9,2.4-0.9h2.1c0.3,0,0.5,0.1,0.6,0.3c0.2,0.2,0.3,0.4,0.3,0.7c0,0.2-0.1,0.5-0.3,0.6c-0.2,0.2-0.4,0.3-0.6,0.3h-2.1
		c-0.4,0-0.8,0.1-1.1,0.4c-0.3,0.3-0.4,0.6-0.4,1v0.7h1.8c0.2,0,0.5,0.1,0.6,0.3c0.2,0.2,0.3,0.4,0.3,0.6c0,0.2-0.1,0.5-0.3,0.6
		c-0.2,0.2-0.4,0.3-0.6,0.3H458z"/>
	<path d="M476.2,57.4v3.8c0,0.8-0.4,1.6-1.1,2.2c-0.8,0.7-1.5,1-2.4,1h-2.1c-0.8,0-1.6-0.3-2.4-1s-1.1-1.4-1.1-2.2v-3.8
		c0-0.8,0.4-1.5,1.1-2.2c0.7-0.7,1.5-1,2.4-1h2.1c0.8,0,1.6,0.3,2.4,1C475.9,55.8,476.2,56.6,476.2,57.4z M469,57.5v3.7
		c0,0.3,0.1,0.6,0.4,0.8l0.7,0.6c0.2,0.1,0.4,0.2,0.6,0.2h2.1c0.3,0,0.6-0.1,0.8-0.3l0.5-0.5c0.2-0.2,0.3-0.4,0.3-0.7v-3.7
		c0-0.4-0.1-0.6-0.3-0.8l-0.6-0.5c-0.2-0.2-0.5-0.3-0.8-0.3h-1.9c-0.4,0-0.7,0.1-0.9,0.3l-0.6,0.5C469.1,56.9,469,57.2,469,57.5z"/>
	<path d="M480.4,63.6V55c0-0.3,0.1-0.5,0.3-0.6c0.2-0.2,0.4-0.3,0.6-0.3s0.5,0.1,0.6,0.3c0.2,0.2,0.3,0.4,0.3,0.7v1.1l1.5-1.3
		c0.6-0.5,1.2-0.8,1.8-0.8h1.3c0.7,0,1.4,0.3,1.9,0.8c0.5,0.5,0.8,1.2,0.8,1.9v0.5c0,0.3-0.1,0.5-0.3,0.7c-0.2,0.2-0.4,0.3-0.6,0.3
		s-0.5-0.1-0.6-0.3c-0.2-0.2-0.3-0.4-0.3-0.6v-0.5c0-0.3-0.1-0.5-0.3-0.6c-0.2-0.2-0.4-0.3-0.6-0.3h-1.2c-0.3,0-0.5,0.1-0.8,0.4
		l-2.6,2.2v5c0,0.3-0.1,0.5-0.3,0.6c-0.2,0.2-0.4,0.3-0.6,0.3c-0.3,0-0.5-0.1-0.6-0.3C480.5,64.1,480.4,63.8,480.4,63.6z"/>
	<path d="M500.1,64.5h-1.8c-0.7,0-1.4-0.3-1.9-0.8c-0.5-0.5-0.8-1.2-0.8-1.9v-5.9h-0.9c-0.3,0-0.5-0.1-0.6-0.3
		c-0.2-0.2-0.3-0.4-0.3-0.6c0-0.3,0.1-0.5,0.3-0.6c0.2-0.2,0.4-0.3,0.6-0.3h0.9v-2.2c0-0.3,0.1-0.5,0.3-0.6c0.2-0.2,0.4-0.3,0.6-0.3
		c0.2,0,0.4,0.1,0.6,0.3c0.2,0.2,0.3,0.4,0.3,0.6v2.2h3.6c0.2,0,0.5,0.1,0.6,0.3c0.2,0.2,0.3,0.4,0.3,0.6c0,0.3-0.1,0.5-0.3,0.6
		c-0.2,0.2-0.4,0.3-0.6,0.3h-3.7v5.9c0,0.2,0.1,0.5,0.3,0.6c0.2,0.2,0.4,0.3,0.6,0.3h1.8c0.5,0,0.8-0.3,1-0.8
		c0.2-0.5,0.5-0.8,0.9-0.8c0.3,0,0.5,0.1,0.6,0.3c0.2,0.2,0.3,0.4,0.3,0.7c0,0.5-0.3,1.1-0.8,1.6C501.5,64.2,500.9,64.5,500.1,64.5z
		"/>
	<path d="M509.7,58h3.5c0.2,0,0.5,0,0.8,0.1l0-1.3c0-0.3-0.1-0.5-0.3-0.6c-0.2-0.2-0.4-0.3-0.6-0.3h-3.4c-0.2,0-0.5-0.1-0.6-0.3
		c-0.2-0.2-0.3-0.4-0.3-0.6c0-0.3,0.1-0.5,0.3-0.6c0.2-0.2,0.4-0.3,0.6-0.3h3.4c0.7,0,1.4,0.3,1.9,0.8c0.5,0.5,0.8,1.2,0.8,1.9
		l0.2,6.8c0,0.3-0.1,0.5-0.3,0.6c-0.2,0.2-0.4,0.3-0.6,0.3c-0.3,0-0.5-0.1-0.7-0.3c-0.2-0.2-0.3-0.4-0.3-0.6l-1.5,0.9h-3.1
		c-0.8,0-1.4-0.3-1.9-0.8c-0.5-0.5-0.8-1.2-0.8-1.9v-1.1c0-0.8,0.3-1.4,0.8-1.9C508.3,58.3,509,58,509.7,58z M514.2,61.5l-0.1-0.8
		c0-0.3-0.1-0.5-0.3-0.6s-0.4-0.3-0.6-0.3h-3.6c-0.3,0-0.5,0.1-0.6,0.3c-0.2,0.2-0.3,0.4-0.3,0.6v1c0,0.2,0.1,0.5,0.3,0.6
		c0.2,0.2,0.4,0.3,0.6,0.3h2.5L514.2,61.5z"/>
	<path d="M522.1,51.1v4.2l0.8-0.6c0.5-0.4,1-0.6,1.6-0.6h1.7c0.6,0,1.1,0.2,1.6,0.6l0.9,0.7c0.2,0.2,0.4,0.5,0.6,0.9
		c0.2,0.4,0.2,0.8,0.2,1.1v3.7c0,0.3-0.1,0.7-0.2,1s-0.3,0.6-0.5,0.8l-0.8,0.7c-0.2,0.2-0.5,0.4-0.9,0.5c-0.4,0.2-0.7,0.2-0.9,0.2
		h-1.5c-0.8,0-1.6-0.4-2.5-1.3v0.4c0,0.3-0.1,0.5-0.3,0.6c-0.2,0.2-0.4,0.3-0.6,0.3s-0.5-0.1-0.6-0.3c-0.2-0.2-0.3-0.4-0.3-0.6V51.1
		c0-0.3,0.1-0.5,0.3-0.6c0.2-0.2,0.4-0.3,0.6-0.3c0.3,0,0.5,0.1,0.6,0.3C522.1,50.7,522.1,50.9,522.1,51.1z M526,55.9h-1.2
		c-0.3,0-0.5,0.1-0.7,0.2l-1.6,1.4c-0.2,0.2-0.3,0.5-0.3,0.8v2c0,0.3,0.1,0.6,0.4,0.8l1.5,1.2c0.2,0.2,0.4,0.3,0.7,0.3h1.5
		c0.2,0,0.4-0.1,0.5-0.2l0.7-0.6c0.2-0.1,0.3-0.3,0.3-0.6v-3.8c0-0.3-0.1-0.5-0.3-0.7l-0.7-0.5C526.5,56,526.3,55.9,526,55.9z"/>
	<path d="M540.9,64.5h-5.5c-0.3,0-0.5-0.1-0.6-0.3c-0.2-0.2-0.3-0.4-0.3-0.6c0-0.2,0.1-0.5,0.3-0.6c0.2-0.2,0.4-0.3,0.6-0.3h1.8V52
		h-1.8c-0.3,0-0.5-0.1-0.6-0.3c-0.2-0.2-0.3-0.4-0.3-0.6c0-0.3,0.1-0.5,0.3-0.6c0.2-0.2,0.4-0.3,0.6-0.3h2.8c0.2,0,0.5,0.1,0.6,0.3
		c0.2,0.2,0.3,0.4,0.3,0.6v11.5h1.8c0.2,0,0.5,0.1,0.6,0.3c0.2,0.2,0.3,0.4,0.3,0.6c0,0.3-0.1,0.5-0.3,0.6
		C541.3,64.4,541.1,64.5,540.9,64.5z"/>
	<path d="M556,57.5v2.2c0,0.2-0.1,0.5-0.3,0.6c-0.2,0.2-0.4,0.3-0.6,0.3h-6.4v0.5c0,0.3,0.1,0.6,0.4,0.8l0.5,0.4
		c0.3,0.2,0.6,0.3,0.8,0.3h4.6c0.2,0,0.5,0.1,0.6,0.3c0.2,0.2,0.3,0.4,0.3,0.6c0,0.2-0.1,0.5-0.3,0.6c-0.2,0.2-0.4,0.3-0.6,0.3h-4.8
		c-0.3,0-0.6-0.1-1-0.2c-0.3-0.1-0.6-0.3-0.8-0.4l-0.8-0.7c-0.3-0.2-0.5-0.5-0.6-0.8c-0.2-0.4-0.3-0.7-0.3-1v-4.1
		c0-0.2,0.1-0.6,0.3-1c0.2-0.4,0.4-0.7,0.7-0.9l0.8-0.6c0.5-0.4,1-0.6,1.6-0.6h2.5c0.6,0,1.2,0.3,1.8,0.8l0.7,0.6
		C555.7,56,556,56.7,556,57.5z M548.7,57.4v1.4h5.5v-1.3c0-0.3-0.1-0.6-0.3-0.8l-0.5-0.5c-0.3-0.2-0.5-0.3-0.7-0.3h-2.3
		c-0.3,0-0.5,0.1-0.8,0.3l-0.5,0.4C548.8,56.9,548.7,57.1,548.7,57.4z"/>
</g>
</svg>
