<?xml version="1.0" encoding="utf-8"?>
<!-- Generator: Adobe Illustrator 21.1.0, SVG Export Plug-In . SVG Version: 6.00 Build 0)  -->
<svg version="1.1" id="Layer_1" xmlns="http://www.w3.org/2000/svg" xmlns:xlink="http://www.w3.org/1999/xlink" x="0px" y="0px"
	 viewBox="0 0 800 400" style="enable-background:new 0 0 800 400;" xml:space="preserve">
<style type="text/css">
	.st0{fill:#C1D721;stroke:#FFFFFF;stroke-miterlimit:10;}
	.st1{fill:#991C6F;}
	.st2{fill:none;stroke:#FFFFFF;stroke-miterlimit:10;}
	.st3{fill:#991C6F;stroke:#000000;stroke-miterlimit:10;}
	.st4{fill:#991C6F;stroke:#FFFFFF;stroke-miterlimit:10;}
	.st5{fill:#FBB03B;stroke:#FFFFFF;stroke-miterlimit:10;}
</style>
<polygon class="st0" points="814.6,408.3 -21.7,408.3 -5.6,-6.3 830.7,-6.3 "/>
<g id="XMLID_1_">
	<g>
		<polygon class="st1" points="468.5,54.8 538.5,144.9 520.4,159.7 455.8,66.1 		"/>
		<polygon class="st1" points="455.8,66.1 520.4,159.7 508.9,169 445.3,75.4 		"/>
		<polygon class="st1" points="445.3,75.4 508.9,169 486.7,187.1 420.3,97.6 		"/>
		<polygon class="st1" points="420.3,97.6 486.7,187.1 476.5,195.3 408.6,108 		"/>
		<path class="st1" d="M408.6,108l67.9,87.3L334.2,311.1c-0.5-24.9-29-22.4-77.1-69.7l1.6-0.4L408.6,108z"/>
		<path class="st1" d="M257.1,241.4c48.1,47.3,76.6,44.8,77.1,69.7c0.4,21.7-20.8,45.1-48.4,59.5c-5.4-6.5-14.9-16.1-29.5-22.8
			c-6.5-3-12.6-4.8-17.8-5.9c-5.9-1-16.6-1.9-29,1.9c-18.3,5.7-28.6,18.2-32.1,22.9l-0.2,0.3c-23.7-13.7-41-31.2-44.6-34.9
			c0,0,0,0,0,0s0,0,0,0c-42.3-44.7-53.3-80.8-55.3-102.9l0.2,0c10.4-1.3,34.9-5.9,58.1-25c6.6-5.5,21.3-18.9,31.1-40.4
			c0.9-1.9,1.5-3.5,1.9-4.6l0.5-1.5c28.7,12.2,47.6,40.3,76,71.2C249.1,233.4,253.2,237.6,257.1,241.4z"/>
		<path class="st1" d="M256.3,347.7c14.5,6.8,24.1,16.3,29.5,22.8c-17.1,8.9-36.7,14.3-55.1,13.6c-19.3-0.7-37.9-8.1-53.5-17.2
			l0.2-0.3c3.6-4.8,13.9-17.3,32.1-22.9c12.4-3.9,23.1-2.9,29-1.9C243.7,342.9,249.8,344.7,256.3,347.7z"/>
		<path class="st1" d="M169,157.6l-0.5,1.5c-0.4,1.1-1.1,2.7-1.9,4.6c-9.8,21.5-24.5,34.9-31.1,40.4c-23.2,19.1-47.7,23.7-58.1,25
			l-0.2,0c-1.4-15.2,1.6-23.7,1.6-23.7c5.7-21.3,22.7-45.2,46.8-52c6.6-1.9,15-2.9,26.4-0.8C158,153.7,163.7,155.4,169,157.6z"/>
	</g>
	<g>
		<path class="st2" d="M257.1,241.4c-3.9-3.8-7.9-8-12.1-12.5c-28.4-31-47.2-59-76-71.2c-5.3-2.3-11-4-17.1-5.1
			c-11.4-2-19.8-1-26.4,0.8c-24.1,6.9-41.1,30.7-46.8,52c0,0-3,8.5-1.6,23.7c2,22.1,13,58.2,55.3,102.9c0,0,0,0,0,0s0,0,0,0
			c3.7,3.7,20.9,21.2,44.6,34.9c15.7,9.1,34.2,16.5,53.5,17.2c18.4,0.7,38-4.7,55.1-13.6c27.6-14.4,48.8-37.8,48.4-59.5
			C333.7,286.2,305.2,288.7,257.1,241.4z"/>
		<polyline class="st2" points="258.7,241 408.6,108 420.3,97.6 445.3,75.4 455.8,66.1 468.5,54.8 		"/>
		<path class="st2" d="M77.4,229.1c10.4-1.3,34.9-5.9,58.1-25c6.6-5.5,21.3-18.9,31.1-40.4c0.9-1.9,1.5-3.5,1.9-4.6"/>
	</g>
</g>
<path class="st3" d="M283.7,367.5"/>
<path class="st4" d="M62.1,188.4"/>
<path class="st5" d="M406.5,97.8"/>
<path class="st5" d="M448.7,146.4"/>
<path class="st5" d="M170,160.4c-5.1-3.3-16.9-9.7-33-10.1c-3.8-0.1-23.1-0.2-39.1,12.1c-18.9,14.6-26.8,41.9-20.4,69.1
	c8.5-1,15.4-2.8,20.6-4.5c12.8-4,22.2-9.4,27.5-12.8c6.6-4.2,11.7-8.4,15.3-11.7c6.2-5.6,13.6-13.6,20.2-24.4
	C165,171.8,167.9,165.8,170,160.4z"/>
<path class="st5" d="M177.4,366.7c3.9,3.8,25.5,24.2,58.6,23.3c26.7-0.7,44.6-14.9,49.9-19.4c-4.8-6.1-15.7-18.1-33.8-24.7
	c-6.5-2.4-20.7-7.6-36.9-3.6c-3.6,0.9-13.7,3.2-24.1,10.9C184.5,357.9,180.2,362.9,177.4,366.7z"/>
<path class="st5" d="M324.2,364.6"/>
<path class="st5" d="M293.8,381.1"/>
<path class="st1" d="M327.9,312.4c-21.2-2.8-42.4-5.5-63.7-8.3l-7.6-61.8c1.4-0.9,3.4-1.8,6-2c0,0,2.4-0.2,4.9,0.7
	c4.1,1.4,27.2,14.7,58.2,33.9c11,12.2,16,24.5,13.2,30.4c-2.4,5.1-6.2,6.6-6.2,6.6C330.8,312.5,329,312.5,327.9,312.4z"/>
<path class="st1" d="M529.5,133C452.4,191.4,375.2,249.9,298,308.3c10,5.3,20.1,10.7,30.1,16c73.3-56.1,146.6-112.1,219.9-168.2
	C541.9,148.4,535.7,140.7,529.5,133z"/>
<path class="st1" d="M372.2,289.1"/>
<path class="st1" d="M520.4,159.7"/>
<path class="st5" d="M498.1,194.9c-3.8,3.1-7.7,6.1-11.5,9.2c-25.6-32.2-51.3-64.5-76.9-96.7c4-3.5,8-6.9,12-10.4
	C447.2,129.6,472.7,162.2,498.1,194.9z"/>
<path class="st5" d="M536.3,166.2c-4,3.2-7.9,6.3-11.9,9.5c-26.4-33.4-52.7-66.8-79.1-100.2c4.1-3.6,8.2-7.2,12.3-10.7
	C483.8,98.6,510.1,132.4,536.3,166.2z"/>
<g id="XMLID_2_">
	<g>
		<polygon class="st1" points="588.3,58.2 658.4,148.2 640.2,163 575.6,69.5 		"/>
		<polygon class="st1" points="575.6,69.5 640.2,163 628.7,172.4 565.1,78.8 		"/>
		<polygon class="st1" points="565.1,78.8 628.7,172.4 606.5,190.4 540.2,100.9 		"/>
		<polygon class="st1" points="540.2,100.9 606.5,190.4 596.4,198.7 528.4,111.3 		"/>
		<path class="st1" d="M528.4,111.3l67.9,87.3L454,314.5c-0.5-24.9-29-22.4-77.1-69.7l1.6-0.4L528.4,111.3z"/>
		<path class="st1" d="M376.9,244.8c48.1,47.3,76.6,44.8,77.1,69.7c0.4,21.7-20.8,45.1-48.4,59.5c-5.4-6.5-14.9-16.1-29.5-22.8
			c-6.5-3-12.6-4.8-17.8-5.9c-5.9-1-16.6-1.9-29,1.9c-18.3,5.7-28.6,18.2-32.1,22.9l-0.2,0.3c-23.7-13.7-41-31.2-44.6-34.9
			c0,0,0,0,0,0s0,0,0,0c-42.3-44.7-53.3-80.8-55.3-102.9l0.2,0c10.4-1.3,34.9-5.9,58.1-25c6.6-5.5,21.3-18.9,31.1-40.4
			c0.9-1.9,1.5-3.5,1.9-4.6l0.5-1.5c28.7,12.2,47.6,40.3,76,71.2C369,236.8,373,240.9,376.9,244.8z"/>
		<path class="st1" d="M376.1,351.1c14.5,6.8,24.1,16.3,29.5,22.8c-17.1,8.9-36.7,14.3-55.1,13.6c-19.3-0.7-37.9-8.1-53.5-17.2
			l0.2-0.3c3.6-4.8,13.9-17.3,32.1-22.9c12.4-3.9,23.1-2.9,29-1.9C363.5,346.3,369.6,348.1,376.1,351.1z"/>
		<path class="st1" d="M288.8,161l-0.5,1.5c-0.4,1.1-1.1,2.7-1.9,4.6c-9.8,21.5-24.5,34.9-31.1,40.4c-23.2,19.1-47.7,23.7-58.1,25
			l-0.2,0c-1.4-15.2,1.6-23.7,1.6-23.7c5.7-21.3,22.7-45.2,46.8-52c6.6-1.9,15-2.9,26.4-0.8C277.9,157,283.5,158.7,288.8,161z"/>
	</g>
	<g>
		<path class="st2" d="M376.9,244.8c-3.9-3.8-7.9-8-12.1-12.5c-28.4-31-47.2-59-76-71.2c-5.3-2.3-11-4-17.1-5.1
			c-11.4-2-19.8-1-26.4,0.8c-24.1,6.9-41.1,30.7-46.8,52c0,0-3,8.5-1.6,23.7c2,22.1,13,58.2,55.3,102.9c0,0,0,0,0,0s0,0,0,0
			c3.7,3.7,20.9,21.2,44.6,34.9c15.7,9.1,34.2,16.5,53.5,17.2c18.4,0.7,38-4.7,55.1-13.6c27.6-14.4,48.8-37.8,48.4-59.5
			C453.5,289.6,425,292.1,376.9,244.8z"/>
		<polyline class="st2" points="378.5,244.4 528.4,111.3 540.2,100.9 565.1,78.8 575.6,69.5 588.3,58.2 		"/>
		<path class="st2" d="M197.2,232.5c10.4-1.3,34.9-5.9,58.1-25c6.6-5.5,21.3-18.9,31.1-40.4c0.9-1.9,1.5-3.5,1.9-4.6"/>
	</g>
</g>
<path class="st3" d="M403.5,370.8"/>
<path class="st5" d="M510.1,98.1"/>
<path class="st5" d="M568.5,149.7"/>
<path class="st5" d="M289.1,162c-21.7-10.9-47.7-8.7-67.1,5.5c-20.2,14.8-29.9,40.3-24.8,65c8.2-0.8,15-2.5,19.9-4
	c3.6-1.1,14.7-4.7,27.4-12.8c6.6-4.2,11.7-8.4,15.3-11.7c6.2-5.6,13.6-13.6,20.3-24.4C284.1,173.3,286.9,167.3,289.1,162z"/>
<path class="st5" d="M297.2,370c3.9,3.8,25.5,24.2,58.6,23.3c26.7-0.7,44.6-14.9,49.9-19.4c-4.8-6.1-15.7-18.1-33.8-24.7
	c-6.5-2.4-20.7-7.6-36.9-3.6c-3.6,0.9-13.7,3.2-24.1,10.9C304.4,361.2,300,366.3,297.2,370z"/>
<path class="st5" d="M444,367.9"/>
<path class="st5" d="M413.6,384.4"/>
<path class="st1" d="M447.7,315.7c-21.2-2.8-42.4-5.5-63.7-8.3l-7.6-61.8c1.4-0.9,3.4-1.8,6-2c0,0,2.4-0.2,4.9,0.7
	c4.1,1.4,27.2,14.7,58.2,33.9c11,12.2,16,24.5,13.2,30.4c-2.4,5.1-6.2,6.6-6.2,6.6C450.6,315.9,448.8,315.9,447.7,315.7z"/>
<path class="st1" d="M649.4,136.3C572.2,194.8,495,253.2,417.8,311.7c10,5.3,20.1,10.7,30.1,16c73.3-56.1,146.6-112.1,219.9-168.2
	C661.7,151.8,655.5,144,649.4,136.3z"/>
<path class="st1" d="M492,292.4"/>
<path class="st1" d="M640.2,163"/>
<path class="st5" d="M618,198.2c-3.8,3.1-7.7,6.1-11.5,9.2c-25.6-32.2-51.3-64.5-76.9-96.7c4-3.5,8-6.9,12-10.4
	C567,132.9,592.5,165.6,618,198.2z"/>
<path class="st5" d="M656.1,169.5c-4,3.2-7.9,6.3-11.9,9.5c-26.4-33.4-52.7-66.8-79.1-100.2c4.1-3.6,8.2-7.2,12.3-10.7
	C603.7,101.9,629.9,135.7,656.1,169.5z"/>
<line class="st2" x1="454.5" y1="322.7" x2="670.9" y2="157.7"/>
<line class="st2" x1="468.5" y1="54.8" x2="519" y2="119.7"/>
<line class="st2" x1="588.3" y1="58.2" x2="667.9" y2="159.5"/>
<g>
	<path d="M82.7,23.8H90c0.2,0,0.4,0.1,0.6,0.3c0.2,0.2,0.3,0.4,0.3,0.6c0,0.3-0.1,0.5-0.3,0.6c-0.2,0.2-0.4,0.3-0.6,0.3h-2.7v10.6
		H90c0.3,0,0.5,0.1,0.6,0.3c0.2,0.2,0.3,0.4,0.3,0.6c0,0.3-0.1,0.5-0.3,0.6c-0.2,0.2-0.4,0.3-0.6,0.3h-7.3c-0.3,0-0.5-0.1-0.6-0.3
		c-0.2-0.2-0.3-0.4-0.3-0.6c0-0.3,0.1-0.5,0.3-0.6c0.2-0.2,0.4-0.3,0.6-0.3h2.8V25.6h-2.8c-0.3,0-0.5-0.1-0.6-0.3
		c-0.2-0.2-0.3-0.4-0.3-0.6c0-0.3,0.1-0.5,0.3-0.7C82.2,23.9,82.4,23.8,82.7,23.8z"/>
	<path d="M108.4,37.2V24.7c0-0.2,0.1-0.5,0.3-0.6c0.2-0.2,0.4-0.3,0.6-0.3c0.3,0,0.5,0.1,0.6,0.3c0.2,0.2,0.3,0.4,0.3,0.6v4.6
		l1.5-0.9c0.7-0.4,1.2-0.6,1.8-0.6h1.1c0.7,0,1.4,0.3,1.9,0.8c0.5,0.5,0.8,1.2,0.8,1.9l0.2,6.8c0,0.3-0.1,0.5-0.3,0.6
		c-0.2,0.2-0.4,0.3-0.6,0.3c-0.3,0-0.5-0.1-0.6-0.3s-0.3-0.4-0.3-0.6l-0.2-6.8c0-0.2-0.1-0.5-0.3-0.6c-0.2-0.2-0.4-0.3-0.6-0.3h-1
		c-0.2,0-0.5,0.1-0.8,0.3l-2.6,1.7v5.7c0,0.3-0.1,0.5-0.3,0.6c-0.2,0.2-0.4,0.3-0.6,0.3c-0.3,0-0.5-0.1-0.6-0.3
		C108.4,37.7,108.4,37.4,108.4,37.2z"/>
	<path d="M130.7,31v3.8c0,0.8-0.4,1.6-1.1,2.2s-1.5,1-2.4,1h-2.1c-0.8,0-1.6-0.3-2.4-1s-1.1-1.4-1.1-2.2V31c0-0.8,0.4-1.5,1.1-2.2
		c0.7-0.7,1.5-1,2.4-1h2.1c0.8,0,1.6,0.3,2.4,1S130.7,30.2,130.7,31z M123.5,31.1v3.7c0,0.3,0.1,0.6,0.4,0.8l0.7,0.6
		c0.2,0.1,0.4,0.2,0.6,0.2h2.1c0.3,0,0.6-0.1,0.8-0.3l0.5-0.5c0.2-0.2,0.3-0.4,0.3-0.7v-3.7c0-0.4-0.1-0.6-0.3-0.8l-0.6-0.5
		c-0.2-0.2-0.5-0.3-0.8-0.3h-1.9c-0.4,0-0.7,0.1-0.9,0.3l-0.6,0.5C123.6,30.5,123.5,30.8,123.5,31.1z"/>
	<path d="M136.8,37.1v4c0,0.3-0.1,0.5-0.3,0.7c-0.2,0.2-0.4,0.3-0.6,0.3c-0.3,0-0.5-0.1-0.6-0.3c-0.2-0.2-0.3-0.4-0.3-0.7V28.2
		c0-0.2,0.1-0.5,0.3-0.6c0.2-0.2,0.4-0.3,0.7-0.3c0.2,0,0.5,0.1,0.6,0.3c0.2,0.2,0.3,0.4,0.3,0.6v0.6c0.9-1,1.7-1.5,2.6-1.5h0.4
		c0.6,0,1.2,0.2,1.8,0.7l1.5,1.3c0.7,0.6,1,1.3,1,2.2v2.8c0,0.9-0.4,1.6-1.1,2.2l-1.5,1.3c-0.5,0.4-1.1,0.7-1.8,0.7h-0.4
		c-0.7,0-1.3-0.2-1.8-0.7L136.8,37.1z M139.3,36.7h0.5c0.2,0,0.5-0.1,0.7-0.3l1.4-1.2c0.2-0.2,0.4-0.4,0.4-0.8v-2.9
		c0-0.3-0.1-0.5-0.4-0.8l-1.5-1.3c-0.2-0.2-0.4-0.2-0.6-0.2h-0.5c-0.2,0-0.5,0.2-0.8,0.5l-1.3,1.3c-0.2,0.2-0.4,0.5-0.4,0.8v2.3
		c0,0.3,0.1,0.6,0.4,0.8l1.3,1.3C138.8,36.5,139.1,36.7,139.3,36.7z"/>
	<path d="M157.3,31.1v2.2c0,0.2-0.1,0.5-0.3,0.6c-0.2,0.2-0.4,0.3-0.6,0.3H150v0.5c0,0.3,0.1,0.6,0.4,0.8L151,36
		c0.3,0.2,0.6,0.3,0.8,0.3h4.6c0.2,0,0.5,0.1,0.6,0.3c0.2,0.2,0.3,0.4,0.3,0.6c0,0.2-0.1,0.5-0.3,0.6c-0.2,0.2-0.4,0.3-0.6,0.3h-4.8
		c-0.3,0-0.6-0.1-1-0.2c-0.3-0.1-0.6-0.3-0.8-0.4l-0.8-0.7c-0.3-0.2-0.5-0.5-0.6-0.8c-0.2-0.4-0.3-0.7-0.3-1v-4.1
		c0-0.2,0.1-0.6,0.3-1c0.2-0.4,0.4-0.7,0.7-0.9l0.8-0.6c0.5-0.4,1-0.6,1.6-0.6h2.5c0.6,0,1.2,0.3,1.8,0.8l0.7,0.6
		C157.1,29.6,157.3,30.3,157.3,31.1z M150.1,31v1.4h5.5v-1.3c0-0.3-0.1-0.6-0.3-0.8l-0.5-0.5c-0.3-0.2-0.5-0.3-0.7-0.3h-2.3
		c-0.3,0-0.5,0.1-0.8,0.3l-0.5,0.4C150.2,30.5,150.1,30.7,150.1,31z"/>
	<path d="M183.9,30.4l-4.9,11c-0.2,0.4-0.5,0.6-0.9,0.6h-2.5c-0.3,0-0.5-0.1-0.6-0.3s-0.3-0.4-0.3-0.6c0-0.3,0.1-0.5,0.3-0.6
		c0.2-0.2,0.4-0.3,0.6-0.3h1.9l1.2-2.9h-0.4c-0.4,0-0.7-0.2-0.9-0.6l-2.7-6.3v-1.7c0-0.3,0.1-0.5,0.3-0.6c0.2-0.2,0.4-0.3,0.6-0.3
		c0.3,0,0.5,0.1,0.6,0.3c0.2,0.2,0.3,0.4,0.3,0.6l0,1.3l2.4,5.5h0.6l2.5-5.5l0-1.4c0-0.2,0.1-0.4,0.3-0.6c0.2-0.2,0.4-0.3,0.6-0.3
		c0.2,0,0.5,0.1,0.6,0.3c0.2,0.2,0.3,0.4,0.3,0.6V30.4z"/>
	<path d="M197.2,31v3.8c0,0.8-0.4,1.6-1.1,2.2s-1.5,1-2.4,1h-2.1c-0.8,0-1.6-0.3-2.4-1s-1.1-1.4-1.1-2.2V31c0-0.8,0.4-1.5,1.1-2.2
		c0.7-0.7,1.5-1,2.4-1h2.1c0.8,0,1.6,0.3,2.4,1S197.2,30.2,197.2,31z M189.9,31.1v3.7c0,0.3,0.1,0.6,0.4,0.8l0.7,0.6
		c0.2,0.1,0.4,0.2,0.6,0.2h2.1c0.3,0,0.6-0.1,0.8-0.3l0.5-0.5c0.2-0.2,0.3-0.4,0.3-0.7v-3.7c0-0.4-0.1-0.6-0.3-0.8l-0.6-0.5
		c-0.2-0.2-0.5-0.3-0.8-0.3h-1.9c-0.4,0-0.7,0.1-0.9,0.3l-0.6,0.5C190,30.5,189.9,30.8,189.9,31.1z"/>
	<path d="M205.7,36.3l3-1.9v-5.7c0-0.3,0.1-0.5,0.3-0.6c0.2-0.2,0.4-0.3,0.6-0.3c0.3,0,0.5,0.1,0.6,0.3c0.2,0.2,0.3,0.4,0.3,0.6v8.6
		c0,0.2-0.1,0.5-0.3,0.6c-0.2,0.2-0.4,0.3-0.6,0.3c-0.2,0-0.5-0.1-0.6-0.3c-0.2-0.2-0.3-0.4-0.3-0.6v-0.7l-1.6,1
		c-0.6,0.4-1.2,0.6-1.9,0.6h-0.8c-0.7,0-1.4-0.3-1.9-0.8c-0.5-0.5-0.8-1.1-0.8-1.9l-0.3-6.8c0-0.2,0.1-0.4,0.3-0.6s0.4-0.3,0.6-0.3
		c0.2,0,0.5,0.1,0.6,0.3c0.2,0.2,0.3,0.4,0.3,0.6l0.2,6.7c0,0.6,0.4,1,1.1,1H205.7z"/>
	<path d="M214.7,37.2v-8.6c0-0.3,0.1-0.5,0.3-0.6c0.2-0.2,0.4-0.3,0.6-0.3c0.3,0,0.5,0.1,0.6,0.3c0.2,0.2,0.3,0.4,0.3,0.7v1.1
		l1.5-1.3c0.6-0.5,1.2-0.8,1.8-0.8h1.3c0.7,0,1.4,0.3,1.9,0.8c0.5,0.5,0.8,1.2,0.8,1.9v0.5c0,0.3-0.1,0.5-0.3,0.7
		c-0.2,0.2-0.4,0.3-0.6,0.3c-0.3,0-0.5-0.1-0.6-0.3c-0.2-0.2-0.3-0.4-0.3-0.6v-0.5c0-0.3-0.1-0.5-0.3-0.6c-0.2-0.2-0.4-0.3-0.6-0.3
		h-1.2c-0.3,0-0.5,0.1-0.8,0.4l-2.6,2.2v5c0,0.3-0.1,0.5-0.3,0.6c-0.2,0.2-0.4,0.3-0.6,0.3c-0.3,0-0.5-0.1-0.6-0.3
		C214.8,37.7,214.7,37.4,214.7,37.2z"/>
	<path d="M243.8,27.7h4.1c0.6,0,1.2,0.2,1.7,0.6c0.5,0.4,0.7,0.8,0.7,1.1c0,0.3-0.1,0.5-0.3,0.6c-0.2,0.2-0.4,0.2-0.6,0.2
		c-0.3,0-0.5-0.1-0.8-0.4s-0.5-0.4-0.7-0.4h-4.1c-0.4,0-0.6,0.2-0.6,0.5c0,0.2,0.1,0.4,0.4,0.5l4.8,2.1c0.5,0.2,0.9,0.6,1.2,1
		c0.3,0.5,0.5,1,0.5,1.6c0,0.8-0.3,1.4-0.8,2s-1.2,0.8-1.9,0.8h-3.7c-0.6,0-1.2-0.2-1.8-0.6c-0.5-0.4-0.8-0.7-0.8-1.1
		c0-0.2,0.1-0.4,0.3-0.6c0.2-0.2,0.4-0.3,0.7-0.3c0.2,0,0.5,0.1,0.7,0.4c0.3,0.3,0.6,0.4,1.1,0.4h3.4c0.3,0,0.5-0.1,0.7-0.3
		c0.2-0.2,0.3-0.4,0.3-0.7c0-0.4-0.2-0.7-0.6-0.9l-4.8-2.2c-0.5-0.2-0.8-0.5-1.1-0.9c-0.3-0.4-0.4-0.8-0.4-1.2
		c0-0.6,0.2-1.2,0.7-1.7C242.6,28,243.1,27.7,243.8,27.7z"/>
	<path d="M263.6,31v3.8c0,0.8-0.4,1.6-1.1,2.2s-1.5,1-2.4,1H258c-0.8,0-1.6-0.3-2.4-1s-1.1-1.4-1.1-2.2V31c0-0.8,0.4-1.5,1.1-2.2
		c0.7-0.7,1.5-1,2.4-1h2.1c0.8,0,1.6,0.3,2.4,1S263.6,30.2,263.6,31z M256.3,31.1v3.7c0,0.3,0.1,0.6,0.4,0.8l0.7,0.6
		c0.2,0.1,0.4,0.2,0.6,0.2h2.1c0.3,0,0.6-0.1,0.8-0.3l0.5-0.5c0.2-0.2,0.3-0.4,0.3-0.7v-3.7c0-0.4-0.1-0.6-0.3-0.8l-0.6-0.5
		c-0.2-0.2-0.5-0.3-0.8-0.3h-1.9c-0.4,0-0.7,0.1-0.9,0.3l-0.6,0.5C256.5,30.5,256.3,30.8,256.3,31.1z"/>
	<path d="M276,38.1h-3.9c-0.7,0-1.3-0.2-1.7-0.6l-1.8-1.5c-0.6-0.5-0.8-1.1-0.8-1.9v-2.4c0-0.8,0.3-1.4,0.9-2l1.6-1.4
		c0.5-0.4,1.1-0.6,1.6-0.6h4c0.3,0,0.5,0.1,0.6,0.3c0.2,0.2,0.3,0.4,0.3,0.6c0,0.3-0.1,0.5-0.3,0.6c-0.2,0.2-0.4,0.3-0.6,0.3h-3.9
		c-0.2,0-0.5,0.1-0.7,0.3l-1.5,1.2c-0.2,0.2-0.4,0.5-0.4,0.8v2.2c0,0.2,0.1,0.4,0.3,0.6l1.6,1.4c0.2,0.2,0.5,0.3,0.8,0.3h3.7
		c0.2,0,0.5,0.1,0.6,0.3c0.2,0.2,0.3,0.4,0.3,0.6c0,0.3-0.1,0.5-0.3,0.6C276.5,38,276.3,38.1,276,38.1z"/>
	<path d="M281.1,37.2V24.7c0-0.3,0.1-0.5,0.3-0.7c0.2-0.2,0.4-0.3,0.6-0.3c0.3,0,0.5,0.1,0.6,0.3c0.2,0.2,0.3,0.4,0.3,0.7v7.4
		l4.9-4.1c0.2-0.2,0.4-0.3,0.7-0.3c0.3,0,0.5,0.1,0.6,0.3c0.2,0.2,0.3,0.4,0.3,0.7c0,0.3-0.1,0.5-0.3,0.6l-3.8,3.2l4.7,4.1
		c0.2,0.2,0.3,0.3,0.3,0.6c0,0.2-0.1,0.4-0.3,0.6c-0.2,0.2-0.4,0.3-0.6,0.3c-0.3,0-0.5-0.1-0.7-0.2l-4.8-4.2l-0.9,0.8v2.7
		c0,0.3-0.1,0.5-0.3,0.6c-0.2,0.2-0.4,0.3-0.6,0.3c-0.3,0-0.5-0.1-0.6-0.3C281.2,37.7,281.1,37.4,281.1,37.2z"/>
	<path d="M296.9,27.7h4.1c0.6,0,1.2,0.2,1.7,0.6c0.5,0.4,0.7,0.8,0.7,1.1c0,0.3-0.1,0.5-0.3,0.6c-0.2,0.2-0.4,0.2-0.6,0.2
		c-0.3,0-0.5-0.1-0.8-0.4s-0.5-0.4-0.7-0.4H297c-0.4,0-0.6,0.2-0.6,0.5c0,0.2,0.1,0.4,0.4,0.5l4.8,2.1c0.5,0.2,0.9,0.6,1.2,1
		c0.3,0.5,0.5,1,0.5,1.6c0,0.8-0.3,1.4-0.8,2s-1.2,0.8-1.9,0.8H297c-0.6,0-1.2-0.2-1.8-0.6c-0.5-0.4-0.8-0.7-0.8-1.1
		c0-0.2,0.1-0.4,0.3-0.6c0.2-0.2,0.4-0.3,0.7-0.3c0.2,0,0.5,0.1,0.7,0.4c0.3,0.3,0.6,0.4,1.1,0.4h3.4c0.3,0,0.5-0.1,0.7-0.3
		c0.2-0.2,0.3-0.4,0.3-0.7c0-0.4-0.2-0.7-0.6-0.9l-4.8-2.2c-0.5-0.2-0.8-0.5-1.1-0.9c-0.3-0.4-0.4-0.8-0.4-1.2
		c0-0.6,0.2-1.2,0.7-1.7C295.7,28,296.3,27.7,296.9,27.7z"/>
	<path d="M323.7,31.6h3.5c0.2,0,0.5,0,0.8,0.1l0-1.3c0-0.3-0.1-0.5-0.3-0.6c-0.2-0.2-0.4-0.3-0.6-0.3h-3.4c-0.2,0-0.5-0.1-0.6-0.3
		c-0.2-0.2-0.3-0.4-0.3-0.6c0-0.3,0.1-0.5,0.3-0.6c0.2-0.2,0.4-0.3,0.6-0.3h3.4c0.7,0,1.4,0.3,1.9,0.8c0.5,0.5,0.8,1.2,0.8,1.9
		l0.2,6.8c0,0.3-0.1,0.5-0.3,0.6c-0.2,0.2-0.4,0.3-0.6,0.3c-0.3,0-0.5-0.1-0.7-0.3c-0.2-0.2-0.3-0.4-0.3-0.6l-1.5,0.9h-3.1
		c-0.8,0-1.4-0.3-1.9-0.8c-0.5-0.5-0.8-1.2-0.8-1.9v-1.1c0-0.8,0.3-1.4,0.8-1.9C322.3,31.9,322.9,31.6,323.7,31.6z M328.2,35.1
		l-0.1-0.8c0-0.3-0.1-0.5-0.3-0.6s-0.4-0.3-0.6-0.3h-3.6c-0.3,0-0.5,0.1-0.6,0.3c-0.2,0.2-0.3,0.4-0.3,0.6v1c0,0.2,0.1,0.5,0.3,0.6
		c0.2,0.2,0.4,0.3,0.6,0.3h2.5L328.2,35.1z"/>
	<path d="M334.3,37.2v-8.6c0-0.3,0.1-0.5,0.3-0.6c0.2-0.2,0.4-0.3,0.6-0.3c0.3,0,0.5,0.1,0.6,0.3c0.2,0.2,0.3,0.4,0.3,0.7v1.1
		l1.5-1.3c0.6-0.5,1.2-0.8,1.8-0.8h1.3c0.7,0,1.4,0.3,1.9,0.8c0.5,0.5,0.8,1.2,0.8,1.9v0.5c0,0.3-0.1,0.5-0.3,0.7
		c-0.2,0.2-0.4,0.3-0.6,0.3c-0.3,0-0.5-0.1-0.6-0.3c-0.2-0.2-0.3-0.4-0.3-0.6v-0.5c0-0.3-0.1-0.5-0.3-0.6c-0.2-0.2-0.4-0.3-0.6-0.3
		h-1.2c-0.3,0-0.5,0.1-0.8,0.4l-2.6,2.2v5c0,0.3-0.1,0.5-0.3,0.6c-0.2,0.2-0.4,0.3-0.6,0.3c-0.3,0-0.5-0.1-0.6-0.3
		C334.4,37.7,334.3,37.4,334.3,37.2z"/>
	<path d="M356.6,31.1v2.2c0,0.2-0.1,0.5-0.3,0.6c-0.2,0.2-0.4,0.3-0.6,0.3h-6.4v0.5c0,0.3,0.1,0.6,0.4,0.8l0.5,0.4
		c0.3,0.2,0.6,0.3,0.8,0.3h4.6c0.2,0,0.5,0.1,0.6,0.3c0.2,0.2,0.3,0.4,0.3,0.6c0,0.2-0.1,0.5-0.3,0.6c-0.2,0.2-0.4,0.3-0.6,0.3H351
		c-0.3,0-0.6-0.1-1-0.2c-0.3-0.1-0.6-0.3-0.8-0.4l-0.8-0.7c-0.3-0.2-0.5-0.5-0.6-0.8c-0.2-0.4-0.3-0.7-0.3-1v-4.1
		c0-0.2,0.1-0.6,0.3-1c0.2-0.4,0.4-0.7,0.7-0.9l0.8-0.6c0.5-0.4,1-0.6,1.6-0.6h2.5c0.6,0,1.2,0.3,1.8,0.8l0.7,0.6
		C356.4,29.6,356.6,30.3,356.6,31.1z M349.4,31v1.4h5.5v-1.3c0-0.3-0.1-0.6-0.3-0.8l-0.5-0.5c-0.3-0.2-0.5-0.3-0.7-0.3H351
		c-0.3,0-0.5,0.1-0.8,0.3l-0.5,0.4C349.5,30.5,349.4,30.7,349.4,31z"/>
	<path d="M376.8,31.6h3.5c0.2,0,0.5,0,0.8,0.1l0-1.3c0-0.3-0.1-0.5-0.3-0.6c-0.2-0.2-0.4-0.3-0.6-0.3h-3.4c-0.2,0-0.5-0.1-0.6-0.3
		c-0.2-0.2-0.3-0.4-0.3-0.6c0-0.3,0.1-0.5,0.3-0.6c0.2-0.2,0.4-0.3,0.6-0.3h3.4c0.7,0,1.4,0.3,1.9,0.8c0.5,0.5,0.8,1.2,0.8,1.9
		l0.2,6.8c0,0.3-0.1,0.5-0.3,0.6c-0.2,0.2-0.4,0.3-0.6,0.3c-0.3,0-0.5-0.1-0.7-0.3c-0.2-0.2-0.3-0.4-0.3-0.6l-1.5,0.9h-3.1
		c-0.8,0-1.4-0.3-1.9-0.8c-0.5-0.5-0.8-1.2-0.8-1.9v-1.1c0-0.8,0.3-1.4,0.8-1.9C375.4,31.9,376.1,31.6,376.8,31.6z M381.3,35.1
		l-0.1-0.8c0-0.3-0.1-0.5-0.3-0.6s-0.4-0.3-0.6-0.3h-3.6c-0.3,0-0.5,0.1-0.6,0.3c-0.2,0.2-0.3,0.4-0.3,0.6v1c0,0.2,0.1,0.5,0.3,0.6
		c0.2,0.2,0.4,0.3,0.6,0.3h2.5L381.3,35.1z"/>
	<path d="M394.7,38.1h-5.5c-0.3,0-0.5-0.1-0.6-0.3c-0.2-0.2-0.3-0.4-0.3-0.6c0-0.2,0.1-0.5,0.3-0.6c0.2-0.2,0.4-0.3,0.6-0.3h1.8
		V25.6h-1.8c-0.3,0-0.5-0.1-0.6-0.3c-0.2-0.2-0.3-0.4-0.3-0.6c0-0.3,0.1-0.5,0.3-0.6c0.2-0.2,0.4-0.3,0.6-0.3h2.8
		c0.2,0,0.5,0.1,0.6,0.3c0.2,0.2,0.3,0.4,0.3,0.6v11.5h1.8c0.2,0,0.5,0.1,0.6,0.3c0.2,0.2,0.3,0.4,0.3,0.6c0,0.3-0.1,0.5-0.3,0.6
		C395.2,38,395,38.1,394.7,38.1z"/>
	<path d="M406.2,31.7v2.1l1.2,2.1l0.6-2.1l0.2-5.3c0-0.2,0.1-0.5,0.3-0.6c0.2-0.2,0.4-0.3,0.6-0.3c0.3,0,0.5,0.1,0.6,0.3
		c0.2,0.2,0.3,0.4,0.3,0.6l-0.2,5.6l-1,3.2c-0.1,0.4-0.4,0.7-0.8,0.7h-1c-0.3,0-0.6-0.2-0.8-0.5l-1-1.7l-1,1.7
		c-0.2,0.3-0.5,0.5-0.8,0.5h-0.9c-0.2,0-0.4-0.1-0.6-0.2c-0.2-0.1-0.3-0.3-0.3-0.4l-0.9-3.3l-0.2-5.5c0-0.2,0.1-0.4,0.3-0.6
		c0.2-0.2,0.4-0.3,0.7-0.3c0.2,0,0.4,0.1,0.6,0.3c0.2,0.2,0.3,0.4,0.3,0.6l0.2,5.3l0.6,2l1.3-2.1v-2.1c0-0.2,0.1-0.5,0.3-0.6
		s0.4-0.3,0.7-0.3c0.2,0,0.5,0.1,0.6,0.3C406.1,31.3,406.2,31.5,406.2,31.7z"/>
	<path d="M416.7,31.6h3.5c0.2,0,0.5,0,0.8,0.1l0-1.3c0-0.3-0.1-0.5-0.3-0.6c-0.2-0.2-0.4-0.3-0.6-0.3h-3.4c-0.2,0-0.5-0.1-0.6-0.3
		c-0.2-0.2-0.3-0.4-0.3-0.6c0-0.3,0.1-0.5,0.3-0.6c0.2-0.2,0.4-0.3,0.6-0.3h3.4c0.7,0,1.4,0.3,1.9,0.8c0.5,0.5,0.8,1.2,0.8,1.9
		l0.2,6.8c0,0.3-0.1,0.5-0.3,0.6c-0.2,0.2-0.4,0.3-0.6,0.3c-0.3,0-0.5-0.1-0.7-0.3c-0.2-0.2-0.3-0.4-0.3-0.6l-1.5,0.9h-3.1
		c-0.8,0-1.4-0.3-1.9-0.8c-0.5-0.5-0.8-1.2-0.8-1.9v-1.1c0-0.8,0.3-1.4,0.8-1.9C415.3,31.9,415.9,31.6,416.7,31.6z M421.2,35.1
		l-0.1-0.8c0-0.3-0.1-0.5-0.3-0.6s-0.4-0.3-0.6-0.3h-3.6c-0.3,0-0.5,0.1-0.6,0.3c-0.2,0.2-0.3,0.4-0.3,0.6v1c0,0.2,0.1,0.5,0.3,0.6
		c0.2,0.2,0.4,0.3,0.6,0.3h2.5L421.2,35.1z"/>
	<path d="M436.4,30.4l-4.9,11c-0.2,0.4-0.5,0.6-0.9,0.6h-2.5c-0.3,0-0.5-0.1-0.6-0.3c-0.2-0.2-0.3-0.4-0.3-0.6
		c0-0.3,0.1-0.5,0.3-0.6c0.2-0.2,0.4-0.3,0.6-0.3h1.9l1.2-2.9h-0.4c-0.4,0-0.7-0.2-0.9-0.6l-2.7-6.3v-1.7c0-0.3,0.1-0.5,0.3-0.6
		c0.2-0.2,0.4-0.3,0.6-0.3c0.3,0,0.5,0.1,0.6,0.3c0.2,0.2,0.3,0.4,0.3,0.6V30l2.4,5.5h0.6l2.5-5.5l0-1.4c0-0.2,0.1-0.4,0.3-0.6
		c0.2-0.2,0.4-0.3,0.6-0.3c0.2,0,0.5,0.1,0.6,0.3c0.2,0.2,0.3,0.4,0.3,0.6V30.4z"/>
	<path d="M443.1,27.7h4.1c0.6,0,1.2,0.2,1.7,0.6c0.5,0.4,0.7,0.8,0.7,1.1c0,0.3-0.1,0.5-0.3,0.6c-0.2,0.2-0.4,0.2-0.6,0.2
		c-0.3,0-0.5-0.1-0.8-0.4s-0.5-0.4-0.7-0.4h-4.1c-0.4,0-0.6,0.2-0.6,0.5c0,0.2,0.1,0.4,0.4,0.5l4.8,2.1c0.5,0.2,0.9,0.6,1.2,1
		c0.3,0.5,0.5,1,0.5,1.6c0,0.8-0.3,1.4-0.8,2c-0.5,0.5-1.2,0.8-1.9,0.8h-3.7c-0.6,0-1.2-0.2-1.8-0.6c-0.5-0.4-0.8-0.7-0.8-1.1
		c0-0.2,0.1-0.4,0.3-0.6c0.2-0.2,0.4-0.3,0.7-0.3c0.2,0,0.5,0.1,0.7,0.4c0.3,0.3,0.6,0.4,1.1,0.4h3.4c0.3,0,0.5-0.1,0.7-0.3
		s0.3-0.4,0.3-0.7c0-0.4-0.2-0.7-0.6-0.9l-4.8-2.2c-0.5-0.2-0.8-0.5-1.1-0.9c-0.3-0.4-0.4-0.8-0.4-1.2c0-0.6,0.2-1.2,0.7-1.7
		C441.9,28,442.4,27.7,443.1,27.7z"/>
	<path d="M469.7,27.7h4.1c0.6,0,1.2,0.2,1.7,0.6c0.5,0.4,0.7,0.8,0.7,1.1c0,0.3-0.1,0.5-0.3,0.6c-0.2,0.2-0.4,0.2-0.6,0.2
		c-0.3,0-0.5-0.1-0.8-0.4s-0.5-0.4-0.7-0.4h-4.1c-0.4,0-0.6,0.2-0.6,0.5c0,0.2,0.1,0.4,0.4,0.5l4.8,2.1c0.5,0.2,0.9,0.6,1.2,1
		c0.3,0.5,0.5,1,0.5,1.6c0,0.8-0.3,1.4-0.8,2c-0.5,0.5-1.2,0.8-1.9,0.8h-3.7c-0.6,0-1.2-0.2-1.8-0.6c-0.5-0.4-0.8-0.7-0.8-1.1
		c0-0.2,0.1-0.4,0.3-0.6c0.2-0.2,0.4-0.3,0.7-0.3c0.2,0,0.5,0.1,0.7,0.4c0.3,0.3,0.6,0.4,1.1,0.4h3.4c0.3,0,0.5-0.1,0.7-0.3
		s0.3-0.4,0.3-0.7c0-0.4-0.2-0.7-0.6-0.9l-4.8-2.2c-0.5-0.2-0.8-0.5-1.1-0.9c-0.3-0.4-0.4-0.8-0.4-1.2c0-0.6,0.2-1.2,0.7-1.7
		C468.5,28,469,27.7,469.7,27.7z"/>
	<path d="M487.7,38.1h-5.5c-0.3,0-0.5-0.1-0.6-0.3c-0.2-0.2-0.3-0.4-0.3-0.6c0-0.2,0.1-0.5,0.3-0.6c0.2-0.2,0.4-0.3,0.6-0.3h1.8
		V25.6h-1.8c-0.3,0-0.5-0.1-0.6-0.3c-0.2-0.2-0.3-0.4-0.3-0.6c0-0.3,0.1-0.5,0.3-0.6c0.2-0.2,0.4-0.3,0.6-0.3h2.8
		c0.2,0,0.5,0.1,0.6,0.3c0.2,0.2,0.3,0.4,0.3,0.6v11.5h1.8c0.2,0,0.5,0.1,0.6,0.3c0.2,0.2,0.3,0.4,0.3,0.6c0,0.3-0.1,0.5-0.3,0.6
		C488.2,38,488,38.1,487.7,38.1z"/>
	<path d="M501,38.1h-5.5c-0.3,0-0.5-0.1-0.6-0.3c-0.2-0.2-0.3-0.4-0.3-0.6c0-0.2,0.1-0.5,0.3-0.6c0.2-0.2,0.4-0.3,0.6-0.3h1.8v-6.7
		h-1.8c-0.3,0-0.5-0.1-0.6-0.3c-0.2-0.2-0.3-0.4-0.3-0.6c0-0.3,0.1-0.5,0.3-0.6c0.2-0.2,0.4-0.3,0.6-0.3h2.8c0.3,0,0.5,0.1,0.6,0.3
		c0.2,0.2,0.3,0.4,0.3,0.6v7.6h1.8c0.3,0,0.5,0.1,0.6,0.3c0.2,0.2,0.3,0.4,0.3,0.6c0,0.3-0.1,0.5-0.3,0.6
		C501.5,38,501.3,38.1,501,38.1z M497.3,23h0.9c0.3,0,0.5,0.1,0.6,0.3c0.2,0.2,0.3,0.4,0.3,0.6v0.8c0,0.3-0.1,0.5-0.3,0.6
		c-0.2,0.2-0.4,0.3-0.6,0.3h-1c-0.3,0-0.5-0.1-0.6-0.3c-0.2-0.2-0.3-0.4-0.3-0.6l0-0.8c0-0.3,0.1-0.5,0.3-0.6
		C496.9,23.1,497.1,23,497.3,23z"/>
	<path d="M512.7,42h-3.9c-0.3,0-0.5-0.1-0.6-0.3c-0.2-0.2-0.3-0.4-0.3-0.6c0-0.3,0.1-0.5,0.3-0.6c0.2-0.2,0.4-0.3,0.6-0.3h3.9
		c0.2,0,0.5-0.1,0.7-0.3l0.6-0.5c0.2-0.2,0.3-0.4,0.3-0.6V36c-0.8,0.9-1.7,1.3-2.5,1.3h-1.4c-0.7,0-1.4-0.2-1.9-0.7l-0.7-0.6
		c-0.2-0.2-0.4-0.5-0.6-0.8c-0.2-0.4-0.2-0.7-0.2-1.1v-3c0-0.4,0.1-0.8,0.2-1.2c0.2-0.4,0.4-0.7,0.6-0.8l0.7-0.6
		c0.5-0.5,1.2-0.7,1.9-0.7h1.3c0.7,0,1.4,0.3,1.9,0.8l0.6,0.5l0-0.4c0-0.2,0.1-0.5,0.3-0.6c0.2-0.2,0.4-0.3,0.6-0.3
		c0.3,0,0.5,0.1,0.6,0.3c0.2,0.2,0.3,0.4,0.3,0.6v10.1c0,0.8-0.3,1.4-0.9,2l-0.7,0.6c-0.2,0.2-0.4,0.3-0.8,0.4
		C513.3,41.9,513,42,512.7,42z M511.7,29.5h-1.2c-0.3,0-0.5,0.1-0.8,0.3l-0.6,0.5c-0.2,0.2-0.3,0.4-0.3,0.7v3c0,0.2,0.1,0.5,0.4,0.7
		l0.6,0.5c0.2,0.2,0.4,0.2,0.6,0.2h1.5c0.2,0,0.5-0.1,0.7-0.3l1.4-1.2c0.2-0.2,0.3-0.4,0.3-0.7v-1.4c0-0.3-0.1-0.6-0.4-0.8l-1.5-1.3
		C512.2,29.6,512,29.5,511.7,29.5z"/>
	<path d="M520.3,37.2V24.7c0-0.2,0.1-0.5,0.3-0.6c0.2-0.2,0.4-0.3,0.6-0.3s0.5,0.1,0.6,0.3c0.2,0.2,0.3,0.4,0.3,0.6v4.6l1.5-0.9
		c0.7-0.4,1.2-0.6,1.8-0.6h1.1c0.7,0,1.4,0.3,1.9,0.8s0.8,1.2,0.8,1.9l0.2,6.8c0,0.3-0.1,0.5-0.3,0.6c-0.2,0.2-0.4,0.3-0.6,0.3
		s-0.5-0.1-0.6-0.3s-0.3-0.4-0.3-0.6l-0.2-6.8c0-0.2-0.1-0.5-0.3-0.6c-0.2-0.2-0.4-0.3-0.6-0.3h-1c-0.2,0-0.5,0.1-0.8,0.3l-2.6,1.7
		v5.7c0,0.3-0.1,0.5-0.3,0.6c-0.2,0.2-0.4,0.3-0.6,0.3s-0.5-0.1-0.6-0.3C520.4,37.7,520.3,37.4,520.3,37.2z"/>
	<path d="M539.9,38.1h-1.8c-0.7,0-1.4-0.3-1.9-0.8c-0.5-0.5-0.8-1.2-0.8-1.9v-5.9h-0.9c-0.3,0-0.5-0.1-0.6-0.3
		c-0.2-0.2-0.3-0.4-0.3-0.6c0-0.3,0.1-0.5,0.3-0.6c0.2-0.2,0.4-0.3,0.6-0.3h0.9v-2.2c0-0.3,0.1-0.5,0.3-0.6c0.2-0.2,0.4-0.3,0.6-0.3
		c0.2,0,0.4,0.1,0.6,0.3c0.2,0.2,0.3,0.4,0.3,0.6v2.2h3.6c0.2,0,0.5,0.1,0.6,0.3c0.2,0.2,0.3,0.4,0.3,0.6c0,0.3-0.1,0.5-0.3,0.6
		c-0.2,0.2-0.4,0.3-0.6,0.3h-3.7v5.9c0,0.2,0.1,0.5,0.3,0.6c0.2,0.2,0.4,0.3,0.6,0.3h1.8c0.5,0,0.8-0.3,1-0.8
		c0.2-0.5,0.5-0.8,0.9-0.8c0.3,0,0.5,0.1,0.6,0.3c0.2,0.2,0.3,0.4,0.3,0.7c0,0.5-0.3,1.1-0.8,1.6C541.4,37.8,540.7,38.1,539.9,38.1z
		"/>
	<path d="M554.2,38.1h-5.5c-0.3,0-0.5-0.1-0.6-0.3c-0.2-0.2-0.3-0.4-0.3-0.6c0-0.2,0.1-0.5,0.3-0.6c0.2-0.2,0.4-0.3,0.6-0.3h1.8
		V25.6h-1.8c-0.3,0-0.5-0.1-0.6-0.3c-0.2-0.2-0.3-0.4-0.3-0.6c0-0.3,0.1-0.5,0.3-0.6c0.2-0.2,0.4-0.3,0.6-0.3h2.8
		c0.2,0,0.5,0.1,0.6,0.3c0.2,0.2,0.3,0.4,0.3,0.6v11.5h1.8c0.2,0,0.5,0.1,0.6,0.3c0.2,0.2,0.3,0.4,0.3,0.6c0,0.3-0.1,0.5-0.3,0.6
		C554.6,38,554.4,38.1,554.2,38.1z"/>
	<path d="M569.3,30.4l-4.9,11c-0.2,0.4-0.5,0.6-0.9,0.6H561c-0.3,0-0.5-0.1-0.6-0.3c-0.2-0.2-0.3-0.4-0.3-0.6c0-0.3,0.1-0.5,0.3-0.6
		c0.2-0.2,0.4-0.3,0.6-0.3h1.9l1.2-2.9h-0.4c-0.4,0-0.7-0.2-0.9-0.6l-2.7-6.3v-1.7c0-0.3,0.1-0.5,0.3-0.6c0.2-0.2,0.4-0.3,0.6-0.3
		c0.3,0,0.5,0.1,0.6,0.3c0.2,0.2,0.3,0.4,0.3,0.6V30l2.4,5.5h0.6l2.5-5.5l0-1.4c0-0.2,0.1-0.4,0.3-0.6c0.2-0.2,0.4-0.3,0.6-0.3
		c0.2,0,0.5,0.1,0.6,0.3c0.2,0.2,0.3,0.4,0.3,0.6V30.4z"/>
	<path d="M81.8,63.6V55c0-0.3,0.1-0.5,0.3-0.6c0.2-0.2,0.4-0.3,0.6-0.3c0.3,0,0.5,0.1,0.6,0.3c0.2,0.2,0.3,0.4,0.3,0.7v1.1l1.5-1.3
		c0.6-0.5,1.2-0.8,1.8-0.8h1.3c0.7,0,1.4,0.3,1.9,0.8c0.5,0.5,0.8,1.2,0.8,1.9v0.5c0,0.3-0.1,0.5-0.3,0.7c-0.2,0.2-0.4,0.3-0.6,0.3
		c-0.3,0-0.5-0.1-0.6-0.3c-0.2-0.2-0.3-0.4-0.3-0.6v-0.5c0-0.3-0.1-0.5-0.3-0.6c-0.2-0.2-0.4-0.3-0.6-0.3H87c-0.3,0-0.5,0.1-0.8,0.4
		l-2.6,2.2v5c0,0.3-0.1,0.5-0.3,0.6c-0.2,0.2-0.4,0.3-0.6,0.3c-0.3,0-0.5-0.1-0.6-0.3C81.9,64.1,81.8,63.8,81.8,63.6z"/>
	<path d="M104.2,57.4v3.8c0,0.8-0.4,1.6-1.1,2.2s-1.5,1-2.4,1h-2.1c-0.8,0-1.6-0.3-2.4-1s-1.1-1.4-1.1-2.2v-3.8
		c0-0.8,0.4-1.5,1.1-2.2c0.7-0.7,1.5-1,2.4-1h2.1c0.8,0,1.6,0.3,2.4,1S104.2,56.6,104.2,57.4z M96.9,57.5v3.7c0,0.3,0.1,0.6,0.4,0.8
		l0.7,0.6c0.2,0.1,0.4,0.2,0.6,0.2h2.1c0.3,0,0.6-0.1,0.8-0.3l0.5-0.5c0.2-0.2,0.3-0.4,0.3-0.7v-3.7c0-0.4-0.1-0.6-0.3-0.8l-0.6-0.5
		c-0.2-0.2-0.5-0.3-0.8-0.3h-1.9c-0.4,0-0.7,0.1-0.9,0.3l-0.6,0.5C97,56.9,96.9,57.2,96.9,57.5z"/>
	<path d="M114.7,64.5h-1.8c-0.7,0-1.4-0.3-1.9-0.8c-0.5-0.5-0.8-1.2-0.8-1.9v-5.9h-0.9c-0.3,0-0.5-0.1-0.6-0.3
		c-0.2-0.2-0.3-0.4-0.3-0.6c0-0.3,0.1-0.5,0.3-0.6c0.2-0.2,0.4-0.3,0.6-0.3h0.9v-2.2c0-0.3,0.1-0.5,0.3-0.6c0.2-0.2,0.4-0.3,0.6-0.3
		c0.2,0,0.4,0.1,0.6,0.3c0.2,0.2,0.3,0.4,0.3,0.6v2.2h3.6c0.2,0,0.5,0.1,0.6,0.3c0.2,0.2,0.3,0.4,0.3,0.6c0,0.3-0.1,0.5-0.3,0.6
		c-0.2,0.2-0.4,0.3-0.6,0.3H112v5.9c0,0.2,0.1,0.5,0.3,0.6c0.2,0.2,0.4,0.3,0.6,0.3h1.8c0.5,0,0.8-0.3,1-0.8
		c0.2-0.5,0.5-0.8,0.9-0.8c0.3,0,0.5,0.1,0.6,0.3c0.2,0.2,0.3,0.4,0.3,0.7c0,0.5-0.3,1.1-0.8,1.6C116.2,64.2,115.5,64.5,114.7,64.5z
		"/>
	<path d="M124.3,58h3.5c0.2,0,0.5,0,0.8,0.1l0-1.3c0-0.3-0.1-0.5-0.3-0.6c-0.2-0.2-0.4-0.3-0.6-0.3h-3.4c-0.2,0-0.5-0.1-0.6-0.3
		c-0.2-0.2-0.3-0.4-0.3-0.6c0-0.3,0.1-0.5,0.3-0.6c0.2-0.2,0.4-0.3,0.6-0.3h3.4c0.7,0,1.4,0.3,1.9,0.8c0.5,0.5,0.8,1.2,0.8,1.9
		l0.2,6.8c0,0.3-0.1,0.5-0.3,0.6c-0.2,0.2-0.4,0.3-0.6,0.3c-0.3,0-0.5-0.1-0.7-0.3c-0.2-0.2-0.3-0.4-0.3-0.6l-1.5,0.9h-3.1
		c-0.8,0-1.4-0.3-1.9-0.8c-0.5-0.5-0.8-1.2-0.8-1.9v-1.1c0-0.8,0.3-1.4,0.8-1.9C123,58.3,123.6,58,124.3,58z M128.9,61.5l-0.1-0.8
		c0-0.3-0.1-0.5-0.3-0.6s-0.4-0.3-0.6-0.3h-3.6c-0.3,0-0.5,0.1-0.6,0.3c-0.2,0.2-0.3,0.4-0.3,0.6v1c0,0.2,0.1,0.5,0.3,0.6
		c0.2,0.2,0.4,0.3,0.6,0.3h2.5L128.9,61.5z"/>
	<path d="M141.3,64.5h-1.8c-0.7,0-1.4-0.3-1.9-0.8c-0.5-0.5-0.8-1.2-0.8-1.9v-5.9h-0.9c-0.3,0-0.5-0.1-0.6-0.3
		c-0.2-0.2-0.3-0.4-0.3-0.6c0-0.3,0.1-0.5,0.3-0.6c0.2-0.2,0.4-0.3,0.6-0.3h0.9v-2.2c0-0.3,0.1-0.5,0.3-0.6c0.2-0.2,0.4-0.3,0.6-0.3
		c0.2,0,0.4,0.1,0.6,0.3c0.2,0.2,0.3,0.4,0.3,0.6v2.2h3.6c0.2,0,0.5,0.1,0.6,0.3c0.2,0.2,0.3,0.4,0.3,0.6c0,0.3-0.1,0.5-0.3,0.6
		c-0.2,0.2-0.4,0.3-0.6,0.3h-3.7v5.9c0,0.2,0.1,0.5,0.3,0.6c0.2,0.2,0.4,0.3,0.6,0.3h1.8c0.5,0,0.8-0.3,1-0.8
		c0.2-0.5,0.5-0.8,0.9-0.8c0.3,0,0.5,0.1,0.6,0.3c0.2,0.2,0.3,0.4,0.3,0.7c0,0.5-0.3,1.1-0.8,1.6C142.7,64.2,142.1,64.5,141.3,64.5z
		"/>
	<path d="M157.3,57.5v2.2c0,0.2-0.1,0.5-0.3,0.6c-0.2,0.2-0.4,0.3-0.6,0.3H150v0.5c0,0.3,0.1,0.6,0.4,0.8l0.5,0.4
		c0.3,0.2,0.6,0.3,0.8,0.3h4.6c0.2,0,0.5,0.1,0.6,0.3c0.2,0.2,0.3,0.4,0.3,0.6c0,0.2-0.1,0.5-0.3,0.6c-0.2,0.2-0.4,0.3-0.6,0.3h-4.8
		c-0.3,0-0.6-0.1-1-0.2c-0.3-0.1-0.6-0.3-0.8-0.4l-0.8-0.7c-0.3-0.2-0.5-0.5-0.6-0.8c-0.2-0.4-0.3-0.7-0.3-1v-4.1
		c0-0.2,0.1-0.6,0.3-1c0.2-0.4,0.4-0.7,0.7-0.9l0.8-0.6c0.5-0.4,1-0.6,1.6-0.6h2.5c0.6,0,1.2,0.3,1.8,0.8l0.7,0.6
		C157.1,56,157.3,56.7,157.3,57.5z M150.1,57.4v1.4h5.5v-1.3c0-0.3-0.1-0.6-0.3-0.8l-0.5-0.5c-0.3-0.2-0.5-0.3-0.7-0.3h-2.3
		c-0.3,0-0.5,0.1-0.8,0.3l-0.5,0.4C150.2,56.9,150.1,57.1,150.1,57.4z"/>
	<path d="M168.8,55.4v-4.3c0-0.3,0.1-0.5,0.3-0.6c0.2-0.2,0.4-0.3,0.6-0.3c0.3,0,0.5,0.1,0.6,0.3c0.2,0.2,0.3,0.4,0.3,0.6v12.5
		c0,0.3-0.1,0.5-0.3,0.6c-0.2,0.2-0.4,0.3-0.6,0.3c-0.3,0-0.5-0.1-0.6-0.3c-0.2-0.2-0.3-0.4-0.3-0.6v-0.4c-0.9,0.9-1.7,1.3-2.5,1.3
		h-1.5c-0.6,0-1.2-0.3-1.8-0.8l-0.8-0.6c-0.2-0.2-0.3-0.4-0.5-0.8c-0.2-0.4-0.2-0.7-0.2-1.1v-3.7c0-0.4,0.1-0.8,0.3-1.2
		c0.2-0.4,0.4-0.7,0.6-0.9l0.7-0.6c0.5-0.5,1.2-0.7,1.9-0.7h1.3c0.7,0,1.4,0.3,1.9,0.8L168.8,55.4z M166.2,55.9h-1.3
		c-0.3,0-0.5,0.1-0.7,0.3l-0.6,0.5c-0.2,0.2-0.3,0.4-0.3,0.7v3.8c0,0.3,0.1,0.5,0.4,0.7l0.6,0.5c0.2,0.2,0.4,0.2,0.6,0.2h1.5
		c0.2,0,0.4-0.1,0.7-0.3l1.4-1.2c0.2-0.2,0.4-0.5,0.4-0.8v-2c0-0.4-0.1-0.8-0.4-1l-1.5-1.3C166.7,56,166.5,55.9,166.2,55.9z"/>
	<path d="M190.6,54.1h4.1c0.6,0,1.2,0.2,1.7,0.6c0.5,0.4,0.7,0.8,0.7,1.1c0,0.3-0.1,0.5-0.3,0.6c-0.2,0.2-0.4,0.2-0.6,0.2
		c-0.3,0-0.5-0.1-0.8-0.4s-0.5-0.4-0.7-0.4h-4.1c-0.4,0-0.6,0.2-0.6,0.5c0,0.2,0.1,0.4,0.4,0.5l4.8,2.1c0.5,0.2,0.9,0.6,1.2,1
		c0.3,0.5,0.5,1,0.5,1.6c0,0.8-0.3,1.4-0.8,2s-1.2,0.8-1.9,0.8h-3.7c-0.6,0-1.2-0.2-1.8-0.6c-0.5-0.4-0.8-0.7-0.8-1.1
		c0-0.2,0.1-0.4,0.3-0.6c0.2-0.2,0.4-0.3,0.7-0.3c0.2,0,0.5,0.1,0.7,0.4c0.3,0.3,0.6,0.4,1.1,0.4h3.4c0.3,0,0.5-0.1,0.7-0.3
		c0.2-0.2,0.3-0.4,0.3-0.7c0-0.4-0.2-0.7-0.6-0.9l-4.8-2.2c-0.5-0.2-0.8-0.5-1.1-0.9c-0.3-0.4-0.4-0.8-0.4-1.2
		c0-0.6,0.2-1.2,0.7-1.7C189.4,54.4,190,54.1,190.6,54.1z"/>
	<path d="M210.5,57.4v3.8c0,0.8-0.4,1.6-1.1,2.2s-1.5,1-2.4,1h-2.1c-0.8,0-1.6-0.3-2.4-1s-1.1-1.4-1.1-2.2v-3.8
		c0-0.8,0.4-1.5,1.1-2.2c0.7-0.7,1.5-1,2.4-1h2.1c0.8,0,1.6,0.3,2.4,1S210.5,56.6,210.5,57.4z M203.2,57.5v3.7
		c0,0.3,0.1,0.6,0.4,0.8l0.7,0.6c0.2,0.1,0.4,0.2,0.6,0.2h2.1c0.3,0,0.6-0.1,0.8-0.3l0.5-0.5c0.2-0.2,0.3-0.4,0.3-0.7v-3.7
		c0-0.4-0.1-0.6-0.3-0.8l-0.6-0.5c-0.2-0.2-0.5-0.3-0.8-0.3h-1.9c-0.4,0-0.7,0.1-0.9,0.3l-0.6,0.5C203.3,56.9,203.2,57.2,203.2,57.5
		z"/>
	<path d="M237.1,56.8l-4.9,11c-0.2,0.4-0.5,0.6-0.9,0.6h-2.5c-0.3,0-0.5-0.1-0.6-0.3s-0.3-0.4-0.3-0.6c0-0.3,0.1-0.5,0.3-0.6
		c0.2-0.2,0.4-0.3,0.6-0.3h1.9l1.2-2.9h-0.4c-0.4,0-0.7-0.2-0.9-0.6l-2.7-6.3V55c0-0.3,0.1-0.5,0.3-0.6c0.2-0.2,0.4-0.3,0.6-0.3
		c0.3,0,0.5,0.1,0.6,0.3c0.2,0.2,0.3,0.4,0.3,0.6l0,1.3l2.4,5.5h0.6l2.5-5.5l0-1.4c0-0.2,0.1-0.4,0.3-0.6c0.2-0.2,0.4-0.3,0.6-0.3
		c0.2,0,0.5,0.1,0.6,0.3c0.2,0.2,0.3,0.4,0.3,0.6V56.8z"/>
	<path d="M250.3,57.4v3.8c0,0.8-0.4,1.6-1.1,2.2s-1.5,1-2.4,1h-2.1c-0.8,0-1.6-0.3-2.4-1s-1.1-1.4-1.1-2.2v-3.8
		c0-0.8,0.4-1.5,1.1-2.2c0.7-0.7,1.5-1,2.4-1h2.1c0.8,0,1.6,0.3,2.4,1S250.3,56.6,250.3,57.4z M243.1,57.5v3.7
		c0,0.3,0.1,0.6,0.4,0.8l0.7,0.6c0.2,0.1,0.4,0.2,0.6,0.2h2.1c0.3,0,0.6-0.1,0.8-0.3l0.5-0.5c0.2-0.2,0.3-0.4,0.3-0.7v-3.7
		c0-0.4-0.1-0.6-0.3-0.8l-0.6-0.5c-0.2-0.2-0.5-0.3-0.8-0.3h-1.9c-0.4,0-0.7,0.1-0.9,0.3l-0.6,0.5C243.2,56.9,243.1,57.2,243.1,57.5
		z"/>
	<path d="M258.8,62.7l3-1.9V55c0-0.3,0.1-0.5,0.3-0.6c0.2-0.2,0.4-0.3,0.6-0.3c0.3,0,0.5,0.1,0.6,0.3c0.2,0.2,0.3,0.4,0.3,0.6v8.6
		c0,0.2-0.1,0.5-0.3,0.6c-0.2,0.2-0.4,0.3-0.6,0.3c-0.2,0-0.5-0.1-0.6-0.3c-0.2-0.2-0.3-0.4-0.3-0.6v-0.7l-1.6,1
		c-0.6,0.4-1.2,0.6-1.9,0.6h-0.8c-0.7,0-1.4-0.3-1.9-0.8c-0.5-0.5-0.8-1.1-0.8-1.9l-0.3-6.8c0-0.2,0.1-0.4,0.3-0.6s0.4-0.3,0.6-0.3
		c0.2,0,0.5,0.1,0.6,0.3c0.2,0.2,0.3,0.4,0.3,0.6l0.2,6.7c0,0.6,0.4,1,1.1,1H258.8z"/>
	<path d="M267.8,63.6V55c0-0.3,0.1-0.5,0.3-0.6c0.2-0.2,0.4-0.3,0.6-0.3c0.3,0,0.5,0.1,0.6,0.3c0.2,0.2,0.3,0.4,0.3,0.7v1.1l1.5-1.3
		c0.6-0.5,1.2-0.8,1.8-0.8h1.3c0.7,0,1.4,0.3,1.9,0.8c0.5,0.5,0.8,1.2,0.8,1.9v0.5c0,0.3-0.1,0.5-0.3,0.7c-0.2,0.2-0.4,0.3-0.6,0.3
		c-0.3,0-0.5-0.1-0.6-0.3c-0.2-0.2-0.3-0.4-0.3-0.6v-0.5c0-0.3-0.1-0.5-0.3-0.6c-0.2-0.2-0.4-0.3-0.6-0.3H273
		c-0.3,0-0.5,0.1-0.8,0.4l-2.6,2.2v5c0,0.3-0.1,0.5-0.3,0.6c-0.2,0.2-0.4,0.3-0.6,0.3c-0.3,0-0.5-0.1-0.6-0.3
		C267.9,64.1,267.8,63.8,267.8,63.6z"/>
	<path d="M297.1,58h3.5c0.2,0,0.5,0,0.8,0.1l0-1.3c0-0.3-0.1-0.5-0.3-0.6c-0.2-0.2-0.4-0.3-0.6-0.3h-3.4c-0.2,0-0.5-0.1-0.6-0.3
		c-0.2-0.2-0.3-0.4-0.3-0.6c0-0.3,0.1-0.5,0.3-0.6c0.2-0.2,0.4-0.3,0.6-0.3h3.4c0.7,0,1.4,0.3,1.9,0.8c0.5,0.5,0.8,1.2,0.8,1.9
		l0.2,6.8c0,0.3-0.1,0.5-0.3,0.6c-0.2,0.2-0.4,0.3-0.6,0.3c-0.3,0-0.5-0.1-0.7-0.3c-0.2-0.2-0.3-0.4-0.3-0.6l-1.5,0.9h-3.1
		c-0.8,0-1.4-0.3-1.9-0.8c-0.5-0.5-0.8-1.2-0.8-1.9v-1.1c0-0.8,0.3-1.4,0.8-1.9C295.7,58.3,296.3,58,297.1,58z M301.6,61.5l-0.1-0.8
		c0-0.3-0.1-0.5-0.3-0.6s-0.4-0.3-0.6-0.3h-3.6c-0.3,0-0.5,0.1-0.6,0.3c-0.2,0.2-0.3,0.4-0.3,0.6v1c0,0.2,0.1,0.5,0.3,0.6
		c0.2,0.2,0.4,0.3,0.6,0.3h2.5L301.6,61.5z"/>
	<path d="M315,64.5h-5.5c-0.3,0-0.5-0.1-0.6-0.3c-0.2-0.2-0.3-0.4-0.3-0.6c0-0.2,0.1-0.5,0.3-0.6c0.2-0.2,0.4-0.3,0.6-0.3h1.8V52
		h-1.8c-0.3,0-0.5-0.1-0.6-0.3c-0.2-0.2-0.3-0.4-0.3-0.6c0-0.3,0.1-0.5,0.3-0.6c0.2-0.2,0.4-0.3,0.6-0.3h2.8c0.2,0,0.5,0.1,0.6,0.3
		c0.2,0.2,0.3,0.4,0.3,0.6v11.5h1.8c0.2,0,0.5,0.1,0.6,0.3c0.2,0.2,0.3,0.4,0.3,0.6c0,0.3-0.1,0.5-0.3,0.6
		C315.4,64.4,315.2,64.5,315,64.5z"/>
	<path d="M326.4,58.1v2.1l1.2,2.1l0.6-2.1l0.2-5.3c0-0.2,0.1-0.5,0.3-0.6c0.2-0.2,0.4-0.3,0.6-0.3c0.3,0,0.5,0.1,0.6,0.3
		c0.2,0.2,0.3,0.4,0.3,0.6l-0.2,5.6l-1,3.2c-0.1,0.4-0.4,0.7-0.8,0.7h-1c-0.3,0-0.6-0.2-0.8-0.5l-1-1.7l-1,1.7
		c-0.2,0.3-0.5,0.5-0.8,0.5h-0.9c-0.2,0-0.4-0.1-0.6-0.2c-0.2-0.1-0.3-0.3-0.3-0.4l-0.9-3.3l-0.2-5.5c0-0.2,0.1-0.4,0.3-0.6
		c0.2-0.2,0.4-0.3,0.7-0.3c0.2,0,0.4,0.1,0.6,0.3c0.2,0.2,0.3,0.4,0.3,0.6l0.2,5.3l0.6,2l1.3-2.1v-2.1c0-0.2,0.1-0.5,0.3-0.6
		c0.2-0.2,0.4-0.3,0.7-0.3c0.2,0,0.5,0.1,0.6,0.3C326.3,57.7,326.4,57.9,326.4,58.1z"/>
	<path d="M337,58h3.5c0.2,0,0.5,0,0.8,0.1l0-1.3c0-0.3-0.1-0.5-0.3-0.6c-0.2-0.2-0.4-0.3-0.6-0.3H337c-0.2,0-0.5-0.1-0.6-0.3
		c-0.2-0.2-0.3-0.4-0.3-0.6c0-0.3,0.1-0.5,0.3-0.6c0.2-0.2,0.4-0.3,0.6-0.3h3.4c0.7,0,1.4,0.3,1.9,0.8c0.5,0.5,0.8,1.2,0.8,1.9
		l0.2,6.8c0,0.3-0.1,0.5-0.3,0.6c-0.2,0.2-0.4,0.3-0.6,0.3c-0.3,0-0.5-0.1-0.7-0.3c-0.2-0.2-0.3-0.4-0.3-0.6l-1.5,0.9H337
		c-0.8,0-1.4-0.3-1.9-0.8c-0.5-0.5-0.8-1.2-0.8-1.9v-1.1c0-0.8,0.3-1.4,0.8-1.9C335.6,58.3,336.2,58,337,58z M341.5,61.5l-0.1-0.8
		c0-0.3-0.1-0.5-0.3-0.6s-0.4-0.3-0.6-0.3H337c-0.3,0-0.5,0.1-0.6,0.3c-0.2,0.2-0.3,0.4-0.3,0.6v1c0,0.2,0.1,0.5,0.3,0.6
		c0.2,0.2,0.4,0.3,0.6,0.3h2.5L341.5,61.5z"/>
	<path d="M356.7,56.8l-4.9,11c-0.2,0.4-0.5,0.6-0.9,0.6h-2.5c-0.3,0-0.5-0.1-0.6-0.3s-0.3-0.4-0.3-0.6c0-0.3,0.1-0.5,0.3-0.6
		c0.2-0.2,0.4-0.3,0.6-0.3h1.9l1.2-2.9h-0.4c-0.4,0-0.7-0.2-0.9-0.6l-2.7-6.3V55c0-0.3,0.1-0.5,0.3-0.6c0.2-0.2,0.4-0.3,0.6-0.3
		c0.3,0,0.5,0.1,0.6,0.3c0.2,0.2,0.3,0.4,0.3,0.6l0,1.3l2.4,5.5h0.6l2.5-5.5l0-1.4c0-0.2,0.1-0.4,0.3-0.6c0.2-0.2,0.4-0.3,0.6-0.3
		c0.2,0,0.5,0.1,0.6,0.3c0.2,0.2,0.3,0.4,0.3,0.6V56.8z"/>
	<path d="M363.4,54.1h4.1c0.6,0,1.2,0.2,1.7,0.6c0.5,0.4,0.7,0.8,0.7,1.1c0,0.3-0.1,0.5-0.3,0.6c-0.2,0.2-0.4,0.2-0.6,0.2
		c-0.3,0-0.5-0.1-0.8-0.4s-0.5-0.4-0.7-0.4h-4.1c-0.4,0-0.6,0.2-0.6,0.5c0,0.2,0.1,0.4,0.4,0.5l4.8,2.1c0.5,0.2,0.9,0.6,1.2,1
		c0.3,0.5,0.5,1,0.5,1.6c0,0.8-0.3,1.4-0.8,2s-1.2,0.8-1.9,0.8h-3.7c-0.6,0-1.2-0.2-1.8-0.6c-0.5-0.4-0.8-0.7-0.8-1.1
		c0-0.2,0.1-0.4,0.3-0.6c0.2-0.2,0.4-0.3,0.7-0.3c0.2,0,0.5,0.1,0.7,0.4c0.3,0.3,0.6,0.4,1.1,0.4h3.4c0.3,0,0.5-0.1,0.7-0.3
		c0.2-0.2,0.3-0.4,0.3-0.7c0-0.4-0.2-0.7-0.6-0.9l-4.8-2.2c-0.5-0.2-0.8-0.5-1.1-0.9c-0.3-0.4-0.4-0.8-0.4-1.2
		c0-0.6,0.2-1.2,0.7-1.7C362.2,54.4,362.7,54.1,363.4,54.1z"/>
	<path d="M391.7,62.7l3-1.9V55c0-0.3,0.1-0.5,0.3-0.6c0.2-0.2,0.4-0.3,0.6-0.3c0.3,0,0.5,0.1,0.6,0.3c0.2,0.2,0.3,0.4,0.3,0.6v8.6
		c0,0.2-0.1,0.5-0.3,0.6c-0.2,0.2-0.4,0.3-0.6,0.3c-0.2,0-0.5-0.1-0.6-0.3c-0.2-0.2-0.3-0.4-0.3-0.6v-0.7l-1.6,1
		c-0.6,0.4-1.2,0.6-1.9,0.6h-0.8c-0.7,0-1.4-0.3-1.9-0.8c-0.5-0.5-0.8-1.1-0.8-1.9l-0.3-6.8c0-0.2,0.1-0.4,0.3-0.6s0.4-0.3,0.6-0.3
		c0.2,0,0.5,0.1,0.6,0.3c0.2,0.2,0.3,0.4,0.3,0.6l0.2,6.7c0,0.6,0.4,1,1.1,1H391.7z"/>
	<path d="M405,56.2l-2.5,1.6v5.8c0,0.2-0.1,0.5-0.3,0.6c-0.2,0.2-0.4,0.3-0.6,0.3s-0.5-0.1-0.6-0.3c-0.2-0.2-0.3-0.4-0.3-0.6V55
		c0-0.3,0.1-0.5,0.3-0.6c0.2-0.2,0.4-0.3,0.6-0.3c0.2,0,0.5,0.1,0.6,0.3s0.3,0.4,0.3,0.6v0.6l1.6-1c0.6-0.4,1.2-0.5,1.9-0.5h0.8
		c0.7,0,1.3,0.3,1.9,0.8c0.5,0.5,0.8,1.1,0.8,1.9l0.2,6.8c0,0.2-0.1,0.5-0.3,0.6c-0.2,0.2-0.4,0.3-0.6,0.3c-0.2,0-0.4-0.1-0.6-0.2
		s-0.3-0.4-0.3-0.7l-0.3-6.7c0-0.6-0.4-0.9-1-0.9h-0.9C405.6,55.9,405.3,56,405,56.2z"/>
	<path d="M422.2,64.5h-3.9c-0.7,0-1.3-0.2-1.7-0.6l-1.8-1.5c-0.6-0.5-0.8-1.1-0.8-1.9v-2.4c0-0.8,0.3-1.4,0.9-2l1.6-1.4
		c0.5-0.4,1.1-0.6,1.6-0.6h4c0.3,0,0.5,0.1,0.6,0.3c0.2,0.2,0.3,0.4,0.3,0.6c0,0.3-0.1,0.5-0.3,0.6c-0.2,0.2-0.4,0.3-0.6,0.3h-3.9
		c-0.2,0-0.5,0.1-0.7,0.3l-1.5,1.2c-0.2,0.2-0.4,0.5-0.4,0.8v2.2c0,0.2,0.1,0.4,0.3,0.6l1.6,1.4c0.2,0.2,0.5,0.3,0.8,0.3h3.7
		c0.2,0,0.5,0.1,0.6,0.3c0.2,0.2,0.3,0.4,0.3,0.6c0,0.3-0.1,0.5-0.3,0.6C422.7,64.4,422.5,64.5,422.2,64.5z"/>
	<path d="M436.4,57.4v3.8c0,0.8-0.4,1.6-1.1,2.2c-0.8,0.7-1.5,1-2.4,1h-2.1c-0.8,0-1.6-0.3-2.4-1s-1.1-1.4-1.1-2.2v-3.8
		c0-0.8,0.4-1.5,1.1-2.2c0.7-0.7,1.5-1,2.4-1h2.1c0.8,0,1.6,0.3,2.4,1C436,55.8,436.4,56.6,436.4,57.4z M429.1,57.5v3.7
		c0,0.3,0.1,0.6,0.4,0.8l0.7,0.6c0.2,0.1,0.4,0.2,0.6,0.2h2.1c0.3,0,0.6-0.1,0.8-0.3l0.5-0.5c0.2-0.2,0.3-0.4,0.3-0.7v-3.7
		c0-0.4-0.1-0.6-0.3-0.8l-0.6-0.5c-0.2-0.2-0.5-0.3-0.8-0.3H431c-0.4,0-0.7,0.1-0.9,0.3l-0.6,0.5C429.2,56.9,429.1,57.2,429.1,57.5z
		"/>
	<path d="M440.3,63.6V55c0-0.3,0.1-0.5,0.3-0.6c0.2-0.2,0.4-0.3,0.6-0.3c0.5,0,0.8,0.2,0.9,0.7c0.5-0.5,1.1-0.7,1.7-0.7
		c0.7,0,1.3,0.3,1.8,0.9c0.6-0.6,1.2-0.9,1.9-0.9c0.6,0,1,0.2,1.5,0.6s0.6,0.9,0.7,1.5l0.3,7.4c0,0.2-0.1,0.5-0.3,0.6
		c-0.2,0.2-0.4,0.3-0.6,0.3c-0.3,0-0.5-0.1-0.6-0.3c-0.2-0.2-0.3-0.4-0.3-0.6l-0.2-7.1c0-0.4-0.1-0.6-0.4-0.6
		c-0.1,0-0.2,0.1-0.4,0.2L446,57v6.6c0,0.2-0.1,0.5-0.3,0.6c-0.2,0.2-0.4,0.3-0.6,0.3c-0.2,0-0.5-0.1-0.6-0.3
		c-0.2-0.2-0.3-0.4-0.3-0.6v-7.2c0-0.3-0.1-0.5-0.4-0.5c-0.1,0-0.2,0-0.4,0.1l-1.3,1.1v6.4c0,0.2-0.1,0.5-0.3,0.6
		c-0.2,0.2-0.4,0.3-0.6,0.3c-0.3,0-0.5-0.1-0.7-0.3C440.4,64,440.3,63.8,440.3,63.6z"/>
	<path d="M458,55.9v7.7c0,0.3-0.1,0.5-0.3,0.6c-0.2,0.2-0.4,0.3-0.6,0.3c-0.3,0-0.5-0.1-0.7-0.3c-0.2-0.2-0.3-0.4-0.3-0.6v-7.7h-0.9
		c-0.3,0-0.5-0.1-0.6-0.3c-0.2-0.2-0.3-0.4-0.3-0.6c0-0.2,0.1-0.4,0.2-0.6c0.2-0.2,0.4-0.3,0.7-0.3h0.9v-0.7c0-0.9,0.3-1.7,1-2.3
		c0.6-0.6,1.4-0.9,2.4-0.9h2.1c0.3,0,0.5,0.1,0.6,0.3c0.2,0.2,0.3,0.4,0.3,0.7c0,0.2-0.1,0.5-0.3,0.6c-0.2,0.2-0.4,0.3-0.6,0.3h-2.1
		c-0.4,0-0.8,0.1-1.1,0.4c-0.3,0.3-0.4,0.6-0.4,1v0.7h1.8c0.2,0,0.5,0.1,0.6,0.3c0.2,0.2,0.3,0.4,0.3,0.6c0,0.2-0.1,0.5-0.3,0.6
		c-0.2,0.2-0.4,0.3-0.6,0.3H458z"/>
	<path d="M476.2,57.4v3.8c0,0.8-0.4,1.6-1.1,2.2c-0.8,0.7-1.5,1-2.4,1h-2.1c-0.8,0-1.6-0.3-2.4-1s-1.1-1.4-1.1-2.2v-3.8
		c0-0.8,0.4-1.5,1.1-2.2c0.7-0.7,1.5-1,2.4-1h2.1c0.8,0,1.6,0.3,2.4,1C475.9,55.8,476.2,56.6,476.2,57.4z M469,57.5v3.7
		c0,0.3,0.1,0.6,0.4,0.8l0.7,0.6c0.2,0.1,0.4,0.2,0.6,0.2h2.1c0.3,0,0.6-0.1,0.8-0.3l0.5-0.5c0.2-0.2,0.3-0.4,0.3-0.7v-3.7
		c0-0.4-0.1-0.6-0.3-0.8l-0.6-0.5c-0.2-0.2-0.5-0.3-0.8-0.3h-1.9c-0.4,0-0.7,0.1-0.9,0.3l-0.6,0.5C469.1,56.9,469,57.2,469,57.5z"/>
	<path d="M480.4,63.6V55c0-0.3,0.1-0.5,0.3-0.6c0.2-0.2,0.4-0.3,0.6-0.3s0.5,0.1,0.6,0.3c0.2,0.2,0.3,0.4,0.3,0.7v1.1l1.5-1.3
		c0.6-0.5,1.2-0.8,1.8-0.8h1.3c0.7,0,1.4,0.3,1.9,0.8c0.5,0.5,0.8,1.2,0.8,1.9v0.5c0,0.3-0.1,0.5-0.3,0.7c-0.2,0.2-0.4,0.3-0.6,0.3
		s-0.5-0.1-0.6-0.3c-0.2-0.2-0.3-0.4-0.3-0.6v-0.5c0-0.3-0.1-0.5-0.3-0.6c-0.2-0.2-0.4-0.3-0.6-0.3h-1.2c-0.3,0-0.5,0.1-0.8,0.4
		l-2.6,2.2v5c0,0.3-0.1,0.5-0.3,0.6c-0.2,0.2-0.4,0.3-0.6,0.3c-0.3,0-0.5-0.1-0.6-0.3C480.5,64.1,480.4,63.8,480.4,63.6z"/>
	<path d="M500.1,64.5h-1.8c-0.7,0-1.4-0.3-1.9-0.8c-0.5-0.5-0.8-1.2-0.8-1.9v-5.9h-0.9c-0.3,0-0.5-0.1-0.6-0.3
		c-0.2-0.2-0.3-0.4-0.3-0.6c0-0.3,0.1-0.5,0.3-0.6c0.2-0.2,0.4-0.3,0.6-0.3h0.9v-2.2c0-0.3,0.1-0.5,0.3-0.6c0.2-0.2,0.4-0.3,0.6-0.3
		c0.2,0,0.4,0.1,0.6,0.3c0.2,0.2,0.3,0.4,0.3,0.6v2.2h3.6c0.2,0,0.5,0.1,0.6,0.3c0.2,0.2,0.3,0.4,0.3,0.6c0,0.3-0.1,0.5-0.3,0.6
		c-0.2,0.2-0.4,0.3-0.6,0.3h-3.7v5.9c0,0.2,0.1,0.5,0.3,0.6c0.2,0.2,0.4,0.3,0.6,0.3h1.8c0.5,0,0.8-0.3,1-0.8
		c0.2-0.5,0.5-0.8,0.9-0.8c0.3,0,0.5,0.1,0.6,0.3c0.2,0.2,0.3,0.4,0.3,0.7c0,0.5-0.3,1.1-0.8,1.6C501.5,64.2,500.9,64.5,500.1,64.5z
		"/>
	<path d="M509.7,58h3.5c0.2,0,0.5,0,0.8,0.1l0-1.3c0-0.3-0.1-0.5-0.3-0.6c-0.2-0.2-0.4-0.3-0.6-0.3h-3.4c-0.2,0-0.5-0.1-0.6-0.3
		c-0.2-0.2-0.3-0.4-0.3-0.6c0-0.3,0.1-0.5,0.3-0.6c0.2-0.2,0.4-0.3,0.6-0.3h3.4c0.7,0,1.4,0.3,1.9,0.8c0.5,0.5,0.8,1.2,0.8,1.9
		l0.2,6.8c0,0.3-0.1,0.5-0.3,0.6c-0.2,0.2-0.4,0.3-0.6,0.3c-0.3,0-0.5-0.1-0.7-0.3c-0.2-0.2-0.3-0.4-0.3-0.6l-1.5,0.9h-3.1
		c-0.8,0-1.4-0.3-1.9-0.8c-0.5-0.5-0.8-1.2-0.8-1.9v-1.1c0-0.8,0.3-1.4,0.8-1.9C508.3,58.3,509,58,509.7,58z M514.2,61.5l-0.1-0.8
		c0-0.3-0.1-0.5-0.3-0.6s-0.4-0.3-0.6-0.3h-3.6c-0.3,0-0.5,0.1-0.6,0.3c-0.2,0.2-0.3,0.4-0.3,0.6v1c0,0.2,0.1,0.5,0.3,0.6
		c0.2,0.2,0.4,0.3,0.6,0.3h2.5L514.2,61.5z"/>
	<path d="M522.1,51.1v4.2l0.8-0.6c0.5-0.4,1-0.6,1.6-0.6h1.7c0.6,0,1.1,0.2,1.6,0.6l0.9,0.7c0.2,0.2,0.4,0.5,0.6,0.9
		c0.2,0.4,0.2,0.8,0.2,1.1v3.7c0,0.3-0.1,0.7-0.2,1s-0.3,0.6-0.5,0.8l-0.8,0.7c-0.2,0.2-0.5,0.4-0.9,0.5c-0.4,0.2-0.7,0.2-0.9,0.2
		h-1.5c-0.8,0-1.6-0.4-2.5-1.3v0.4c0,0.3-0.1,0.5-0.3,0.6c-0.2,0.2-0.4,0.3-0.6,0.3s-0.5-0.1-0.6-0.3c-0.2-0.2-0.3-0.4-0.3-0.6V51.1
		c0-0.3,0.1-0.5,0.3-0.6c0.2-0.2,0.4-0.3,0.6-0.3c0.3,0,0.5,0.1,0.6,0.3C522.1,50.7,522.1,50.9,522.1,51.1z M526,55.9h-1.2
		c-0.3,0-0.5,0.1-0.7,0.2l-1.6,1.4c-0.2,0.2-0.3,0.5-0.3,0.8v2c0,0.3,0.1,0.6,0.4,0.8l1.5,1.2c0.2,0.2,0.4,0.3,0.7,0.3h1.5
		c0.2,0,0.4-0.1,0.5-0.2l0.7-0.6c0.2-0.1,0.3-0.3,0.3-0.6v-3.8c0-0.3-0.1-0.5-0.3-0.7l-0.7-0.5C526.5,56,526.3,55.9,526,55.9z"/>
	<path d="M540.9,64.5h-5.5c-0.3,0-0.5-0.1-0.6-0.3c-0.2-0.2-0.3-0.4-0.3-0.6c0-0.2,0.1-0.5,0.3-0.6c0.2-0.2,0.4-0.3,0.6-0.3h1.8V52
		h-1.8c-0.3,0-0.5-0.1-0.6-0.3c-0.2-0.2-0.3-0.4-0.3-0.6c0-0.3,0.1-0.5,0.3-0.6c0.2-0.2,0.4-0.3,0.6-0.3h2.8c0.2,0,0.5,0.1,0.6,0.3
		c0.2,0.2,0.3,0.4,0.3,0.6v11.5h1.8c0.2,0,0.5,0.1,0.6,0.3c0.2,0.2,0.3,0.4,0.3,0.6c0,0.3-0.1,0.5-0.3,0.6
		C541.3,64.4,541.1,64.5,540.9,64.5z"/>
	<path d="M556,57.5v2.2c0,0.2-0.1,0.5-0.3,0.6c-0.2,0.2-0.4,0.3-0.6,0.3h-6.4v0.5c0,0.3,0.1,0.6,0.4,0.8l0.5,0.4
		c0.3,0.2,0.6,0.3,0.8,0.3h4.6c0.2,0,0.5,0.1,0.6,0.3c0.2,0.2,0.3,0.4,0.3,0.6c0,0.2-0.1,0.5-0.3,0.6c-0.2,0.2-0.4,0.3-0.6,0.3h-4.8
		c-0.3,0-0.6-0.1-1-0.2c-0.3-0.1-0.6-0.3-0.8-0.4l-0.8-0.7c-0.3-0.2-0.5-0.5-0.6-0.8c-0.2-0.4-0.3-0.7-0.3-1v-4.1
		c0-0.2,0.1-0.6,0.3-1c0.2-0.4,0.4-0.7,0.7-0.9l0.8-0.6c0.5-0.4,1-0.6,1.6-0.6h2.5c0.6,0,1.2,0.3,1.8,0.8l0.7,0.6
		C555.7,56,556,56.7,556,57.5z M548.7,57.4v1.4h5.5v-1.3c0-0.3-0.1-0.6-0.3-0.8l-0.5-0.5c-0.3-0.2-0.5-0.3-0.7-0.3h-2.3
		c-0.3,0-0.5,0.1-0.8,0.3l-0.5,0.4C548.8,56.9,548.7,57.1,548.7,57.4z"/>
</g>
</svg>
