<?xml version="1.0" encoding="utf-8"?>
<!-- Generator: Adobe Illustrator 21.1.0, SVG Export Plug-In . SVG Version: 6.00 Build 0)  -->
<svg version="1.1" id="Layer_1" xmlns="http://www.w3.org/2000/svg" xmlns:xlink="http://www.w3.org/1999/xlink" x="0px" y="0px"
	 viewBox="0 0 800 400" style="enable-background:new 0 0 800 400;" xml:space="preserve">
<style type="text/css">
	.st0{fill:#379CE3;}
	.st1{fill:#1B1464;}
	.st2{fill:#1B55A9;}
	.st3{fill:#FF7BAB;}
	.st4{fill:#6B8AE3;}
	.st5{fill:none;stroke:#FFFFFF;stroke-miterlimit:10;}
</style>
<g id="XMLID_1_">
	<g>
		<path class="st0" d="M844.5,335.4l0.3,71.7h-44.5v-5.2l2.3,0l-1.2-145.1C821.8,287.4,836.3,317,844.5,335.4L844.5,335.4z"/>
		<path class="st1" d="M801.4,256.7c-0.4-0.5-0.7-1.1-1.1-1.6v-51.6c23.9,32.3,37.3,64.5,44,84v0l0.2,47.8
			C836.3,317,821.8,287.4,801.4,256.7z"/>
		<path class="st2" d="M844,215.9l0.3,71.6c-6.7-19.5-20.1-51.7-44-84v-43.1c9.8,10,16.7,18.3,20.9,23.5
			C830.2,195.2,837.7,206,844,215.9L844,215.9z"/>
		<path class="st0" d="M801.4,256.7l1.2,145.1l-2.3,0V255.1C800.6,255.6,801,256.2,801.4,256.7z"/>
		<path class="st3" d="M800.3,407.1v2.3C800.2,408.6,800.2,407.9,800.3,407.1L800.3,407.1z"/>
		<path class="st0" d="M800.3,401.8v5.2h-0.1c-0.1-1.6-0.2-3.4-0.3-5.2H800.3z"/>
		<path class="st4" d="M800.3,255.1v146.8h-0.3c-1.9-32.9-10.5-94.5-51.5-156.6c-54.8-83-133.5-115.7-167.4-126.9
			c56.8,11.9,86,22.7,108.9,33.4C736.4,173.3,773.4,215.1,800.3,255.1z"/>
		<path class="st1" d="M581,118.3c-5-1.1-10.3-2.1-15.8-3.2c-22-4.3-34.6-5.6-42.7-6l0-0.1v0c27.4-7,87.4-18.3,154.3,3.8
			c57.5,18.9,96.9,54.9,123.4,90.7v51.6c-26.9-40-63.9-81.8-110.3-103.4C667,141.1,637.9,130.2,581,118.3
			C581.1,118.3,581.1,118.3,581,118.3z"/>
		<path class="st2" d="M556.7,72.3c1-0.5,1.9-1,2.8-1.4c5.7-2.6,13.7-5.7,23.7-7.8c5.4-1.2,19.6-3.9,37.9-2c9.8,1,18.4,3,28.2,6.1
			c64.9,20.2,116,61.8,116,61.8c14.1,11.2,25.8,22.1,34.9,31.5v43.1c-26.5-35.8-65.9-71.7-123.4-90.7
			C610,90.8,550,102.1,522.6,109.1v0l0,0.1c0,0-0.1,0-0.1,0l0.1-1.1c2.7-6.2,8.1-16,18.2-25C546.4,78.2,552,74.7,556.7,72.3z"/>
		<path class="st3" d="M414.3,340.7l-0.2-0.1c16.8-23.3,16.7-57.6,7.7-62.4c-4.1-2.2-12.9,1.6-17.9,6.1c-3.5,3.1-5.2,6.6-6.1,8.9
			c2.2-1.1,12.4-6,18.3-2.1c6.9,4.6,4.1,18.1-1.6,25.9c-2.3,3.1-5.3,5.5-8.6,7.4c-33.4-27.1-38.3-45-35.8-56.5
			c7.2-34.1,86.6-46.3,150.8-50.7c-3.6,0.8-7.2,1.8-11,3.1c-23.7,8.1-41.6,24.4-39.1,29.7c2.8,6,28.2-7.4,47.3,4.6
			c14.1,8.8,21.1,29.2,14.7,41.9c-0.2,0.4-0.4,0.9-0.7,1.2c-3.7,6.2-9.4,6.3-21.3,14.8c-7.5,5.3-31,21.9-33.4,44.2
			c-1.2,10.8,2.8,20.6,7.6,28c2.7,4.2,5.6,7.6,7.9,10.1c3.3-23.5,20.8-41.9,42.4-45.7c28.6-5.1,58.2,16.6,57.9,32.8
			c-0.3,13.7-21.9,20-28.9,27.4H-4.2V-6.4h804.5v166.9c-9.1-9.4-20.8-20.3-34.9-31.5c0,0-51.1-41.6-116-61.8
			c-9.8-3-18.4-5.1-28.2-6.1c-18.3-1.9-32.5,0.9-37.9,2c-10,2.2-18,5.3-23.7,7.8c-0.9,0.4-1.9,0.9-2.8,1.4c-7.6-1.4-32.6-5.1-60.1,6
			c0,0,0,0,0,0c-8.7-1.9-49.6-9.3-87.4,12.1l-0.1-0.1v0c-5.2,0.5-44.6,5.2-70.8,35.6l-0.2-0.1v0c-8.7,5.5-30.8,21-44.8,49.3
			c-5.8,5.3-44.7,43.5-33.7,93.3c0.7,3.3,1.6,6.5,2.7,9.5l0,0c-0.5,1.9-7.9,35,17.7,58.3c6.8,6.2,14.2,10.1,21.2,12.6
			c1.7,3.7,9.9,19.7,29.3,25.5c9.3,2.8,19.2,2.7,28.5,0c2.1,0.8,18.7,6.5,35-2.3C412.8,362,414.2,342.2,414.3,340.7z"/>
		<path class="st3" d="M800.3,409.4h-81.5c0.2-0.7,0.5-1.5,0.7-2.3h80.7C800.2,407.9,800.2,408.6,800.3,409.4z"/>
		<path class="st0" d="M800.2,407.1h-80.7c0.5-1.5,1-3.1,1.5-4.9l79-0.3C800,403.7,800.1,405.4,800.2,407.1z"/>
		<path class="st0" d="M445.2,125.2c46.8-14.8,57.5-16.1,70.3-16.2c1.9,0,4.2,0,7,0.1c0,0,0,0,0.1,0c8.1,0.4,20.7,1.7,42.7,6
			c5.5,1.1,10.8,2.1,15.8,3.2c0,0,0,0,0,0c33.9,11.2,112.6,43.9,167.4,126.9c41,62.1,49.6,123.8,51.5,156.6l-79,0.3
			c10-33.9,25.9-116.1-27.8-181.8c-36-44.1-84.9-58.3-114.9-67.1c-115.9-33.8-217.4,15.8-251.8,41.2c-1.8,1.3-4,3-6.5,5
			c2.8-7.2,8-17.9,17.9-28.6c0,0,3.9-4.5,8.7-8.2c3.4-2.6,7.4-5,12.8-7.6c10.1-4.7,25.2-10.1,51-18.6
			C423.8,132,435.3,128.3,445.2,125.2z"/>
		<path class="st4" d="M611.9,194.1c-7.1-3.4-13.1-5.7-17.4-7.3c-13.3-5.1-27.1-8.8-41-11.2h0c-17.6-3-35.5-4.1-53.1-3.5
			c-15.9,0.5-31.5,2.4-46.7,5.4c-26.8,5.2-51.8,13.8-73,24.4c-17.9,8.9-33.2,19.3-44.4,30.1c-11.2,10.8-18.4,22.2-20.5,33.3
			c-4.6,24.4,8.2,45,8.2,45c3.8,5.3,15.6,25.3,39.9,28.2c22.9,2.7,39.5-11.6,42.1-13.8c-0.1-0.1-0.1-0.1-0.2-0.2
			c3.3-1.8,6.3-4.3,8.6-7.4c5.8-7.8,8.5-21.3,1.6-25.9c-6-4-16.1,0.9-18.3,2.1c0.9-2.4,2.7-5.8,6.1-8.9c5.1-4.5,13.8-8.3,17.9-6.1
			c9.1,4.8,9.1,39.1-7.7,62.4c-4.7,6.6-10.8,12.2-18.4,16.1c-5.1,2.6-10.3,4.1-15.4,4.9c-14,2.1-27.1-1.4-34.4-3.3
			c-5.2-1.4-10.3-3.3-15.3-5.6c-15.5-7.3-29.5-18.9-39.1-33.4c-5.6-8.5-9.6-17.9-11.6-28.1c-3.2-16.4-0.2-30.9,3.9-41.9
			c2.9-7.7,6.2-13.8,8.3-17.5c8-14.3,18-24.2,25.8-30.8c0.6-0.5,1.3-1,1.9-1.5c2.5-2,4.7-3.7,6.5-5c34.4-25.3,135.9-74.9,251.8-41.2
			c30,8.8,78.9,23,114.9,67.1c53.7,65.8,37.7,148,27.8,181.8l-25.2,0.1c8.3-22.1,22.3-73,0.1-125.1c-2.4-5.5-5.1-11-8.3-16.5
			c-8.2-14.1-18.1-25.7-28.3-35.2C642.8,210.3,625.4,200.4,611.9,194.1z"/>
		<path class="st4" d="M695.7,402.3l25.2-0.1c-0.5,1.8-1,3.4-1.5,4.9h-25.6C694.4,405.7,695.1,404.1,695.7,402.3z"/>
		<path class="st3" d="M693.9,407.1h25.6c-0.2,0.8-0.5,1.6-0.7,2.3h-25.8C693.2,408.7,693.5,407.9,693.9,407.1z"/>
		<path class="st1" d="M695.8,277.2c22.3,52.1,8.2,103-0.1,125.1l-25.6,0.1c4.2-8.2,5.9-17.1,6.2-25.6h0.1c4-9,12.3-30.4,10.1-56.7
			c-0.6-7.5-2.1-15.4-4.8-23.6c-4.8-14.4-12.7-27.6-23.2-39.2c2.6-2,7.7-5.3,13.4-4.3c1.9,0.3,4.7,1.3,11.7,8.8
			C686.9,265.4,691.3,270.5,695.8,277.2L695.8,277.2z"/>
		<path class="st0" d="M695.8,277.2L695.8,277.2c-4.5-6.7-8.9-11.8-12.1-15.3c-7-7.5-9.7-8.5-11.7-8.8c-5.7-1-10.8,2.3-13.4,4.3
			c-10.3-11.4-23-21.1-37.6-28.7l0.4-0.8c2.1-1.9,5.1-3.9,9-5.3c13.4-5,26.4,1.7,28.7,2.9l0,0c10.2,9.5,20.1,21.1,28.3,35.2
			C690.7,266.2,693.4,271.7,695.8,277.2z"/>
		<path class="st1" d="M670.1,402.4l25.6-0.1c-0.7,1.8-1.3,3.4-1.9,4.8h-26.4C668.5,405.5,669.4,404,670.1,402.4z"/>
		<path class="st3" d="M667.5,407.1h26.4c-0.3,0.8-0.7,1.6-1,2.3h-27C666.4,408.6,667,407.8,667.5,407.1z"/>
		<path class="st2" d="M686.6,320.1c2.2,26.3-6.1,47.8-10.1,56.7h-0.1c0.8-18.8-5.2-35.5-6-37.6c-1.6-4.1-3.5-8.3-5.8-12.3
			c-8.7-15.1-22.4-28.8-40.1-37.2c-7.9-3.7-16.5-6.4-25.8-7.7c-1-0.1-2.1-0.3-3.1-0.4c-8.7-0.9-16.9-0.5-24.2,0.7
			c0.3-0.3,0.6-0.5,0.9-0.8c-2.2,0.5-4.3,1.2-6.3,1.8c0,0,0,0,0,0c-17.6,3.9-29.8,11.8-33.7,14.4l-0.2-0.1c0.2-0.4,0.5-0.8,0.7-1.2
			c6.4-12.8-0.6-33.1-14.7-41.9c-19.1-12-44.5,1.4-47.3-4.6c12.3-5.2,62.6-24.8,122.4-4.8C651.2,264.6,679.5,308.4,686.6,320.1z"/>
		<path class="st0" d="M658.6,257.4c10.4,11.5,18.4,24.7,23.2,39.2c2.7,8.1,4.2,16.1,4.8,23.6c-7.1-11.7-35.4-55.5-93.5-74.9
			c-59.8-20-110.1-0.4-122.4,4.8c-2.5-5.4,15.5-21.6,39.1-29.7c3.7-1.3,7.4-2.3,11-3.1c14.2-1,27.7-1.6,39.5-2
			c6,0.5,9.6,0.8,9.9-0.3c0.2-0.6-0.9-1.7-2.9-2.9l0.2-0.2c19.4,2.6,37.6,8.4,53.6,16.8C635.6,236.3,648.3,246,658.6,257.4z"/>
		<path class="st0" d="M670.4,339.2c0.8,2.1,6.8,18.8,6,37.6c-0.3,8.4-2.1,17.3-6.2,25.6l-34.2,0.1c0.8-7.7,0.2-16.3-3.1-25.2
			c-3.1-8.4-8.1-15.4-14.1-21.1l0.2-0.2c0-1.8,0.2-15.3,12.2-24.4c14.5-11,32.4-4.8,33.2-4.6l0.1-0.1
			C666.9,331,668.8,335.1,670.4,339.2z"/>
		<path class="st0" d="M667.5,407.1c-0.5,0.8-1,1.5-1.6,2.3h-31c0.5-2.2,0.8-4.5,1.1-6.8l34.2-0.1
			C669.4,404,668.5,405.5,667.5,407.1z"/>
		<path class="st0" d="M634.9,409.4h31c-2.2,3-4.7,5.8-7.8,8.4c-9.2,7.9-20.6,12.2-32.3,14C627.6,428.9,632.4,420.6,634.9,409.4z"/>
		<path class="st1" d="M664.6,327l-0.1,0.1c-0.8-0.3-18.6-6.4-33.2,4.6c-12,9.1-12.2,22.6-12.2,24.4l-0.2,0.2
			c-10.5-10-24.3-16.1-37.6-19.2c-0.1-3.7-0.1-22.2,14.2-35.1c2.1-1.9,10.9-9.9,24.4-11.7c1.9-0.3,3.5-0.4,4.7-0.4l0,0
			C642.1,298.1,655.9,311.8,664.6,327z"/>
		<path class="st1" d="M659.2,225.5L659.2,225.5c-2.3-1.2-15.3-7.9-28.7-2.9c-3.9,1.4-6.8,3.5-9,5.3l-0.4,0.8
			c-16-8.4-34.2-14.2-53.6-16.8l-0.2,0.2c-1.6-1-3.9-2.1-6.8-3.4c3.1-3.4,9.1-9.1,18.6-12.8c14.9-5.8,28.3-3,32.9-1.8
			C625.4,200.4,642.8,210.3,659.2,225.5z"/>
		<path class="st4" d="M563.6,334.6c0.3,0,0.6,0,0.8,0c5.3,0.2,11,1,16.8,2.4c13.3,3.1,27.1,9.2,37.6,19.2c6,5.7,11,12.7,14.1,21.1
			c3.3,8.9,3.9,17.5,3.1,25.2c-0.2,2.4-0.6,4.6-1.1,6.8h-70.8c7-7.4,28.6-13.7,28.9-27.4c0.3-16.2-29.2-37.8-57.9-32.8
			c-21.6,3.8-39.1,22.2-42.4,45.7c-2.3-2.5-5.2-6-7.9-10.1l0.3-0.2c2.4-6.3,6.9-15.7,15.7-24.8c1.2-1.3,7.2-7.4,17.2-13.3
			c5.6-3.3,12.4-6.5,20.2-8.8C545.8,335.6,554.3,334.3,563.6,334.6z"/>
		<path class="st2" d="M564.1,409.4h70.8c-2.4,11.2-7.2,19.5-9,22.4c-30,4.6-62.2-7.3-63.9-17.1C561.6,412.8,562.5,411,564.1,409.4z
			"/>
		<path class="st0" d="M624.5,289.8L624.5,289.8c-1.1,0.1-2.8,0.1-4.7,0.4c-13.5,1.9-22.2,9.8-24.4,11.7
			c-14.3,12.9-14.3,31.4-14.2,35.1c-5.8-1.4-11.5-2.1-16.8-2.4c-0.3,0-0.6,0-0.8,0c-0.4-5.4-0.2-14.4,4.1-24.4
			c7.7-17.6,23-26,27.9-28.4l0-0.2c1,0.1,2,0.2,3.1,0.4C608,283.4,616.6,286,624.5,289.8z"/>
		<path class="st0" d="M611.9,194.1c-4.5-1.2-18-4-32.9,1.8c-9.5,3.7-15.5,9.4-18.6,12.8c-7.2-3.1-18.1-6.6-31.1-9.3
			c-0.2-2.4-0.3-8,3.3-13.4c6.7-10.1,19.9-10.4,21-10.4h0c13.9,2.4,27.7,6.1,41,11.2C598.8,188.4,604.8,190.7,611.9,194.1z"/>
		<path class="st1" d="M595.6,281.7l0,0.2c-4.9,2.4-20.2,10.8-27.9,28.4c-4.3,10-4.5,19-4.1,24.4c-9.3-0.3-17.8,1-25.3,3.2
			c2.1-8.9,6.3-21.6,15.3-34.9c5.9-8.7,12.2-15.5,17.7-20.4C578.7,281.2,586.8,280.8,595.6,281.7z"/>
		<path class="st3" d="M572.2,281.6c-0.3,0.3-0.6,0.5-0.9,0.8c-1.9,0.3-3.7,0.6-5.4,1C567.9,282.8,570,282.2,572.2,281.6z"/>
		<path class="st2" d="M482.4,195c7.6-0.2,15.7,0.1,24.1,0.9c8.1,0.8,15.7,2,22.8,3.5c13,2.7,23.9,6.2,31.1,9.3
			c2.9,1.2,5.1,2.4,6.8,3.4c2,1.2,3,2.3,2.9,2.9c-3.1,0.1-6.4,0.2-9.9,0.3c-9-0.7-23.2-1.6-39.5,2c-64.2,4.5-143.6,16.6-150.8,50.7
			c-2.4,11.5,2.4,29.3,35.8,56.5c-9.3,5.1-21.5,5.7-30.5,4.1c-18.7-3.4-31.6-18.1-36.7-31.2c-8.6-22.1,3.3-43.5,12.5-55.6
			c4.2-5.5,7.9-9.1,8.7-10c7.2-6.9,14.4-11.2,24-15c7.8-3.1,17.1-5.9,29-9.4c7.1-2.1,15.6-4.6,25.3-6.8
			C450.9,197.7,465.7,195.4,482.4,195z"/>
		<path class="st3" d="M570.1,215c-0.2,1.1-3.9,0.8-9.9,0.3C563.7,215.2,567,215.1,570.1,215z"/>
		<path class="st0" d="M565.9,283.5c1.8-0.4,3.6-0.8,5.4-1c-5.5,5-11.9,11.7-17.7,20.4c-9,13.3-13.2,26-15.3,34.9
			c-7.9,2.3-14.7,5.5-20.2,8.8c-0.1-1-0.2-2.4-0.2-4.2c0-0.1,0-14.7,7.3-28.2C531.6,302.3,545.9,290.1,565.9,283.5
			C565.9,283.5,565.9,283.5,565.9,283.5z"/>
		<path class="st1" d="M496.6,78.3c27.5-11.2,52.6-7.4,60.1-6c-4.7,2.4-10.3,5.9-15.9,10.8c-10.2,9-15.5,18.8-18.2,25l-0.1,1.1
			c-2.8-0.1-5.1-0.1-7-0.1c-12.8,0.1-23.5,1.4-70.3,16.2c3.9-7.9,15.9-29,42.6-42.9C490.7,80.8,493.7,79.5,496.6,78.3
			C496.6,78.3,496.6,78.3,496.6,78.3z"/>
		<path class="st4" d="M520.8,217.3c16.2-3.6,30.5-2.7,39.5-2C548.5,215.7,535,216.3,520.8,217.3z"/>
		<path class="st1" d="M553.6,175.6c-1.1,0-14.3,0.3-21,10.4c-3.6,5.4-3.5,11-3.3,13.4c-7.1-1.5-14.7-2.7-22.8-3.5
			c-8.4-0.8-16.5-1.1-24.1-0.9c-0.7-2.7-1.3-8.2,2.1-13.6c5.1-8.3,15-9.2,15.9-9.3v-0.1C518.1,171.5,536,172.6,553.6,175.6z"/>
		<path class="st1" d="M565.8,283.5c-19.9,6.6-34.3,18.8-40.7,30.7c-7.2,13.5-7.3,28.1-7.3,28.2c0,1.7,0.1,3.2,0.2,4.2
			c-10,5.9-16,12-17.2,13.3c-8.7,9.1-13.3,18.5-15.7,24.8l-0.3,0.2c-4.8-7.4-8.8-17.2-7.6-28c2.4-22.3,25.9-38.9,33.4-44.2
			c11.9-8.4,17.6-8.6,21.3-14.8l0.2,0.1C536,295.3,548.3,287.4,565.8,283.5z"/>
		<path class="st0" d="M500.5,172.1L500.5,172.1c-0.9,0.1-10.8,1-15.9,9.3c-3.3,5.4-2.7,10.8-2.1,13.6c-16.7,0.3-31.6,2.7-44.3,5.6
			l0-0.1c-0.3-2.5-0.5-8.4,3.3-13.7c1.9-2.7,4.3-4.5,5.3-5.2c2.7-2,5.4-3.2,7.2-3.8l-0.1-0.3C468.9,174.5,484.6,172.7,500.5,172.1z"
			/>
		<path class="st2" d="M496.6,78.3c-2.9,1.2-5.8,2.5-8.8,4c-26.7,13.8-38.6,35-42.6,42.9c-9.9,3.1-21.4,6.8-34.9,11.3
			c-25.8,8.5-40.9,13.8-51,18.6c2.6-10,11.3-37,38.8-57.4c3.6-2.7,7.3-5.1,11.1-7.2v0C447,69,487.8,76.4,496.6,78.3z"/>
		<path class="st1" d="M453.8,177.5l0.1,0.3c-1.9,0.7-4.5,1.8-7.2,3.8c-1,0.7-3.4,2.5-5.3,5.2c-3.8,5.3-3.5,11.3-3.3,13.7l0,0.1
			c-9.7,2.2-18.1,4.7-25.3,6.8c-12,3.6-21.3,6.3-29,9.4c-0.8-0.3-3.8-1.7-5.2-4.9c-1.4-3.3-0.5-7.1,2.2-10l-0.1-0.1
			C402,191.3,427,182.7,453.8,177.5z"/>
		<path class="st2" d="M414.1,340.6l0.2,0.1c-0.1,1.4-1.5,21.2-20.2,31.3c-16.4,8.8-32.9,3.1-35,2.3c7.9-2.3,15.3-6.4,21.4-12.3
			l-0.1-0.4c5.1-0.8,10.3-2.3,15.4-4.9C403.3,352.9,409.4,347.2,414.1,340.6z"/>
		<path class="st1" d="M409.2,90.4L409.2,90.4c-3.7,2.1-7.4,4.5-11.1,7.2C370.7,118,362,145,359.4,155c-5.5,2.6-9.5,4.9-12.8,7.6
			c-4.8,3.7-8.7,8.2-8.7,8.2c-9.9,10.7-15.1,21.4-17.9,28.6c-0.6,0.5-1.2,1-1.9,1.5l-0.1-0.1v0c-1.5-8.4-5.2-36.4,12.6-64.3
			c2.4-3.8,5.1-7.3,7.8-10.5C364.6,95.5,404,90.8,409.2,90.4L409.2,90.4L409.2,90.4z"/>
		<path class="st1" d="M405.8,324.5c0.1,0.1,0.1,0.1,0.2,0.2c-2.6,2.3-19.2,16.5-42.1,13.8c-24.4-2.9-36.2-22.9-39.9-28.2
			c0,0-12.8-20.5-8.2-45c2.1-11.1,9.3-22.5,20.5-33.3l0.3,0.3c0.1,0.6,0.8,5.2,5.3,7.9c4.1,2.5,8.3,1.7,9.1,1.5l0.1,0.1
			c-9.2,12.1-21.1,33.5-12.5,55.6c5.1,13.2,18,27.8,36.7,31.2C384.3,330.2,396.5,329.6,405.8,324.5z"/>
		<path class="st0" d="M383.8,216.8c-9.5,3.8-16.8,8.1-24,15c-0.8,0.8-4.5,4.4-8.7,10l-0.1-0.1c-0.8,0.2-5,1-9.1-1.5
			c-4.5-2.7-5.2-7.2-5.3-7.9l-0.3-0.3c11.2-10.9,26.5-21.2,44.4-30.1l0.1,0.1c-2.8,2.8-3.7,6.7-2.2,10
			C380,215.1,383,216.5,383.8,216.8z"/>
		<path class="st1" d="M330.6,352.9l0.1-0.2c5,2.3,10.1,4.2,15.3,5.6c7.2,1.9,20.3,5.5,34.4,3.3l0.1,0.4c-6.1,5.8-13.5,10-21.4,12.3
			c-9.3,2.7-19.2,2.8-28.5,0c-19.4-5.8-27.6-21.8-29.3-25.5C315.3,353.8,327.8,353.1,330.6,352.9z"/>
		<path class="st2" d="M293.3,175.1c14-28.3,36.1-43.7,44.8-49.3v0l0.2,0.1c-2.8,3.2-5.4,6.7-7.8,10.5c-17.8,27.9-14,55.9-12.6,64.3
			v0l0.1,0.1c-7.9,6.6-17.9,16.5-25.8,30.8c-2.1,3.8-5.5,9.8-8.3,17.5c-2.4-11.2-6.1-36.9,5.9-66.3
			C290.9,180.2,292,177.6,293.3,175.1z"/>
		<path class="st2" d="M301.2,348.8c-7-2.5-14.5-6.4-21.2-12.6c-25.6-23.3-18.2-56.4-17.7-58.3l0,0c7.5,21.5,22,35.5,29.1,41.5
			l0.2-0.1c9.6,14.5,23.6,26.1,39.1,33.4l-0.1,0.2C327.8,353.1,315.3,353.8,301.2,348.8z"/>
		<path class="st1" d="M291.6,319.3l-0.2,0.1c-7.1-6.1-21.6-20-29.1-41.5c-1.1-3-2-6.2-2.7-9.5c-11-49.8,27.9-87.9,33.7-93.3
			c-1.3,2.5-2.4,5.2-3.6,7.9c-11.9,29.4-8.2,55.2-5.9,66.3c-4.1,11-7.1,25.5-3.9,41.9C281.9,301.4,286,310.8,291.6,319.3z"/>
	</g>
	<g>
		<polyline class="st5" points="800.3,407.1 800.3,409.4 718.7,409.4 692.9,409.4 665.9,409.4 		"/>
		<polyline class="st5" points="564.1,409.4 -4.2,409.4 -4.2,-6.4 800.3,-6.4 800.3,160.5 		"/>
		<path class="st5" d="M565.8,283.5c-17.6,3.9-29.8,11.8-33.7,14.4"/>
		<path class="st5" d="M397.3,293.5c0.1,0,0.2-0.1,0.4-0.2c2.2-1.1,12.4-6,18.3-2.1c6.9,4.6,4.1,18.1-1.6,25.9
			c-2.3,3.1-5.3,5.5-8.6,7.4c-9.3,5.1-21.5,5.7-30.5,4.1c-18.7-3.4-31.6-18.1-36.7-31.2c-8.6-22.1,3.3-43.5,12.5-55.6
			c4.2-5.5,7.9-9.1,8.7-10c7.2-6.9,14.4-11.2,24-15c7.8-3.1,17.1-5.9,29-9.4c7.1-2.1,15.6-4.6,25.3-6.8c12.7-2.9,27.6-5.2,44.3-5.6
			c7.6-0.2,15.7,0.1,24.1,0.9c8.1,0.8,15.7,2,22.8,3.5c13,2.7,23.9,6.2,31.1,9.3c2.9,1.2,5.1,2.4,6.8,3.4c2,1.2,3,2.3,2.9,2.9
			c-0.2,1.1-3.9,0.8-9.9,0.3c-9-0.7-23.2-1.6-39.5,2c-3.6,0.8-7.2,1.8-11,3.1c-23.7,8.1-41.6,24.4-39.1,29.7
			c2.8,6,28.2-7.4,47.3,4.6c14.1,8.8,21.1,29.2,14.7,41.9c-0.2,0.4-0.4,0.9-0.7,1.2c-3.7,6.2-9.4,6.3-21.3,14.8
			c-7.5,5.3-31,21.9-33.4,44.2c-1.2,10.8,2.8,20.6,7.6,28c2.7,4.2,5.6,7.6,7.9,10.1c3.3-23.5,20.8-41.9,42.4-45.7
			c28.6-5.1,58.2,16.6,57.9,32.8c-0.3,13.7-21.9,20-28.9,27.4c-1.6,1.7-2.4,3.4-2.1,5.3c1.7,9.8,33.8,21.6,63.9,17.1
			c11.7-1.8,23.1-6.1,32.3-14c3-2.6,5.6-5.4,7.8-8.4c0.6-0.8,1.1-1.5,1.6-2.3c1-1.5,1.9-3.1,2.7-4.7c4.2-8.2,5.9-17.1,6.2-25.6
			c0.8-18.8-5.2-35.5-6-37.6c-1.6-4.1-3.5-8.3-5.8-12.3c-8.7-15.1-22.4-28.8-40.1-37.2c-7.9-3.7-16.5-6.4-25.8-7.7
			c-1-0.1-2.1-0.3-3.1-0.4c-8.7-0.9-16.9-0.5-24.2,0.7c-1.9,0.3-3.7,0.6-5.4,1"/>
		<path class="st5" d="M518.1,346.7c0,0,0-0.1,0-0.1c-0.1-1-0.2-2.4-0.2-4.2c0-0.1,0-14.7,7.3-28.2c6.4-11.9,20.7-24.1,40.7-30.7
			c0,0,0,0,0,0c2-0.7,4.2-1.3,6.3-1.8c-0.3,0.3-0.6,0.5-0.9,0.8c-5.5,5-11.9,11.7-17.7,20.4c-9,13.3-13.2,26-15.3,34.9
			c0,0.2-0.1,0.3-0.1,0.5"/>
		<path class="st5" d="M595.5,281.9c-4.9,2.4-20.2,10.8-27.9,28.4c-4.3,10-4.5,19-4.1,24.4c0,0.1,0,0.2,0,0.3"/>
		<path class="st5" d="M624.5,289.8c-1.1,0-2.8,0.1-4.7,0.4c-13.5,1.9-22.2,9.8-24.4,11.7c-14.3,12.9-14.3,31.4-14.2,35.1
			c0,0.1,0,0.2,0,0.3"/>
		<path class="st5" d="M485.2,384.6c2.4-6.3,6.9-15.7,15.7-24.8c1.2-1.3,7.2-7.4,17.2-13.3c5.6-3.3,12.4-6.5,20.2-8.8
			c7.5-2.2,16-3.5,25.3-3.2c0.3,0,0.6,0,0.8,0c5.3,0.2,11,1,16.8,2.4c13.3,3.1,27.1,9.2,37.6,19.2c6,5.7,11,12.7,14.1,21.1
			c3.3,8.9,3.9,17.5,3.1,25.2c-0.2,2.4-0.6,4.6-1.1,6.8c-2.4,11.2-7.2,19.5-9,22.4c-0.1,0.2-0.2,0.3-0.3,0.5"/>
		<path class="st5" d="M619,356c0-1.8,0.2-15.3,12.2-24.4c14.5-11,32.4-4.8,33.2-4.6"/>
		<path class="st5" d="M676.5,376.8c4-9,12.3-30.4,10.1-56.7c-0.6-7.5-2.1-15.4-4.8-23.6c-4.8-14.4-12.7-27.6-23.2-39.2
			c-10.3-11.4-23-21.1-37.6-28.7c-16-8.4-34.2-14.2-53.6-16.8"/>
		<path class="st5" d="M553.6,175.6c-17.6-3-35.5-4.1-53.1-3.5c-15.9,0.5-31.5,2.4-46.7,5.4c-26.8,5.2-51.8,13.8-73,24.4
			c-17.9,8.9-33.2,19.3-44.4,30.1c-11.2,10.8-18.4,22.2-20.5,33.3c-4.6,24.4,8.2,45,8.2,45c3.8,5.3,15.6,25.3,39.9,28.2
			c22.9,2.7,39.5-11.6,42.1-13.8"/>
		<path class="st5" d="M691.6,412.4c0.3-0.7,0.8-1.8,1.4-3.1c0.3-0.7,0.6-1.4,1-2.3c0.6-1.4,1.2-3,1.9-4.8
			c8.3-22.1,22.3-73,0.1-125.1c-2.4-5.5-5.1-11-8.3-16.5c-8.2-14.1-18.1-25.7-28.3-35.2c-16.4-15.2-33.7-25.1-47.2-31.4
			c-7.1-3.4-13.1-5.7-17.4-7.3c-13.3-5.1-27.1-8.8-41-11.2"/>
		<path class="st5" d="M844,215.9c4.4,7,8.2,13.6,11.4,19.6"/>
		<path class="st5" d="M559.5,70.9c5.7-2.6,13.7-5.7,23.7-7.8c5.4-1.2,19.6-3.9,37.9-2c9.8,1,18.4,3,28.2,6.1
			c64.9,20.2,116,61.8,116,61.8c14.1,11.2,25.8,22.1,34.9,31.5c9.8,10,16.7,18.3,20.9,23.5c9.1,11.2,16.6,22.1,22.8,32"/>
		<path class="st5" d="M397.6,293.6c0-0.1,0.1-0.2,0.1-0.3c0.9-2.4,2.7-5.8,6.1-8.9c5.1-4.5,13.8-8.3,17.9-6.1
			c9.1,4.8,9.1,39.1-7.7,62.4c-4.7,6.6-10.8,12.2-18.4,16.1c-5.1,2.6-10.3,4.1-15.4,4.9c-14,2.1-27.1-1.4-34.4-3.3
			c-5.2-1.4-10.3-3.3-15.3-5.6c-15.5-7.3-29.5-18.9-39.1-33.4c-5.6-8.5-9.6-17.9-11.6-28.1c-3.2-16.4-0.2-30.9,3.9-41.9
			c2.9-7.7,6.2-13.8,8.3-17.5c8-14.3,18-24.2,25.8-30.8c0.6-0.5,1.3-1,1.9-1.5c2.5-2,4.7-3.7,6.5-5c34.4-25.3,135.9-74.9,251.8-41.2
			c30,8.8,78.9,23,114.9,67.1c53.7,65.8,37.7,148,27.8,181.8c-0.5,1.8-1,3.4-1.5,4.9c-0.2,0.8-0.5,1.6-0.7,2.3
			c-1.2,3.7-2.2,6.4-2.7,7.6"/>
		<path class="st5" d="M844.5,335.4c4.3,9.6,6.8,16.2,7.7,18.3"/>
		<path class="st5" d="M581.1,118.3c56.8,11.9,86,22.7,108.9,33.4c46.4,21.6,83.4,63.3,110.3,103.4c0.4,0.5,0.7,1.1,1.1,1.6
			c20.4,30.7,34.9,60.2,43.1,78.6"/>
		<path class="st5" d="M319.9,199.6c0-0.1,0-0.1,0.1-0.2c2.8-7.2,8-17.9,17.9-28.6c0,0,3.9-4.5,8.7-8.2c3.4-2.6,7.4-5,12.8-7.6
			c10.1-4.7,25.2-10.1,51-18.6c13.5-4.4,25-8.2,34.9-11.3c46.8-14.8,57.5-16.1,70.3-16.2c1.9,0,4.2,0,7,0.1c0,0,0,0,0.1,0
			c8.1,0.4,20.7,1.7,42.7,6c5.5,1.1,10.8,2.1,15.8,3.2"/>
		<path class="st5" d="M844.3,287.6c3.3,9.5,4.9,16.1,5.4,18.1"/>
		<path class="st5" d="M522.6,109.1c27.4-7,87.4-18.3,154.3,3.8c57.5,18.9,96.9,54.9,123.4,90.7c23.9,32.3,37.3,64.5,44,84"/>
		<path class="st5" d="M522.3,108.7c0.1-0.2,0.2-0.4,0.3-0.6c2.7-6.2,8.1-16,18.2-25c5.6-4.9,11.2-8.4,15.9-10.8
			c1-0.5,1.9-1,2.8-1.4"/>
		<path class="st5" d="M496.6,78.3c27.5-11.2,52.6-7.4,60.1-6c0.1,0,0.1,0,0.2,0"/>
		<path class="st5" d="M445.1,125.5c0.1-0.1,0.1-0.2,0.2-0.3c3.9-7.9,15.9-29,42.6-42.9c2.9-1.5,5.9-2.9,8.8-4"/>
		<path class="st5" d="M359.3,155.5c0-0.1,0.1-0.3,0.1-0.4c2.6-10,11.3-37,38.8-57.4c3.6-2.7,7.3-5.1,11.1-7.2v0
			c37.8-21.4,78.6-14,87.4-12.1c0,0,0,0,0,0c0.4,0.1,0.7,0.2,1,0.2"/>
		<path class="st5" d="M318,200.8c-1.5-8.4-5.2-36.4,12.6-64.3c2.4-3.8,5.1-7.3,7.8-10.5c26.2-30.4,65.7-35.1,70.8-35.6"/>
		<path class="st5" d="M284,250.1c-0.1-0.2-0.1-0.5-0.2-0.8c-2.4-11.2-6.1-36.9,5.9-66.3c1.1-2.7,2.3-5.4,3.6-7.9
			c14-28.3,36.1-43.7,44.8-49.3"/>
		<path class="st5" d="M291.4,319.4c-7.1-6.1-21.6-20-29.1-41.5c-1.1-3-2-6.2-2.7-9.5c-11-49.8,27.9-87.9,33.7-93.3
			c0.2-0.2,0.4-0.4,0.5-0.5"/>
		<path class="st5" d="M330.6,352.9c-2.8,0.2-15.3,0.9-29.3-4.1c-7-2.5-14.5-6.4-21.2-12.6c-25.6-23.3-18.2-56.4-17.7-58.3v0"/>
		<path class="st5" d="M301,348.3c0.1,0.1,0.1,0.3,0.2,0.4c1.7,3.7,9.9,19.7,29.3,25.5c9.3,2.8,19.2,2.7,28.5,0
			c7.9-2.3,15.3-6.4,21.4-12.3"/>
		<path class="st5" d="M359,374.3c2.1,0.8,18.7,6.5,35-2.3c18.7-10,20.2-29.8,20.2-31.3c0,0,0,0,0,0"/>
		<path class="st5" d="M380.8,202c-2.8,2.8-3.7,6.7-2.2,10c1.4,3.2,4.4,4.5,5.2,4.9h0"/>
		<path class="st5" d="M336.7,232.3c0.1,0.6,0.8,5.2,5.3,7.9c4.1,2.5,8.3,1.7,9.1,1.5"/>
		<path class="st5" d="M453.9,177.8c-1.9,0.7-4.5,1.8-7.2,3.8c-1,0.7-3.4,2.5-5.3,5.2c-3.8,5.3-3.5,11.3-3.3,13.7"/>
		<path class="st5" d="M500.5,172.2c-0.9,0.1-10.8,1-15.9,9.3c-3.3,5.4-2.7,10.8-2.1,13.6c0.2,0.8,0.4,1.4,0.5,1.7"/>
		<path class="st5" d="M553.6,175.6L553.6,175.6c-1.1,0-14.3,0.3-21,10.4c-3.6,5.4-3.5,11-3.3,13.4c0,0.1,0,0.2,0,0.3"/>
		<path class="st5" d="M612,194.1C612,194.1,612,194.1,612,194.1c-4.6-1.2-18-4-32.9,1.8c-9.5,3.7-15.5,9.4-18.6,12.8
			c0,0.1-0.1,0.1-0.1,0.2"/>
		<path class="st5" d="M659.1,225.5c-2.3-1.2-15.3-7.9-28.7-2.9c-3.9,1.4-6.8,3.5-9,5.3"/>
		<path class="st5" d="M695.7,277.2c-4.4-6.7-8.8-11.8-12.1-15.3c-7-7.5-9.7-8.5-11.7-8.8c-5.7-1-10.8,2.3-13.4,4.3
			c-0.5,0.4-1,0.8-1.3,1.1"/>
		<polyline class="st5" points="844,215 844,215.9 844,215.9 844.3,287.6 844.3,287.6 844.5,335.4 844.5,335.4 844.8,407.1 
			844.8,413.9 		"/>
		<polyline class="st5" points="663.9,407.1 667.5,407.1 693.9,407.1 719.5,407.1 800.2,407.1 800.3,407.1 844.8,407.1 846.4,407.1 
					"/>
		<path class="st5" d="M406,324.6c-0.1-0.1-0.1-0.1-0.2-0.2c-33.4-27.1-38.3-45-35.8-56.5c7.2-34.1,86.6-46.3,150.8-50.7
			c14.2-1,27.7-1.6,39.5-2c3.4-0.1,6.8-0.2,9.9-0.3"/>
		<polyline class="st5" points="801,214.6 801.4,256.7 802.5,401.8 		"/>
		<polyline class="st5" points="627.3,402.6 636,402.5 670.1,402.4 695.7,402.3 721,402.2 799.9,401.8 800.3,401.8 802.5,401.8 		
			"/>
		<path class="st5" d="M470.7,250.1c12.3-5.2,62.6-24.8,122.4-4.8c58.1,19.4,86.4,63.2,93.5,74.9"/>
		<path class="st5" d="M572.1,115.5c2.5,0.7,5.5,1.7,9,2.8c0,0,0,0,0,0c33.9,11.2,112.6,43.9,167.4,126.9
			c41,62.1,49.6,123.8,51.5,156.6c0.1,1.8,0.2,3.6,0.3,5.2c0,0.8,0.1,1.5,0.1,2.3"/>
	</g>
</g>
<g>
	<path d="M33.1,12.2h6.6c0.2,0,0.4,0.1,0.6,0.2s0.2,0.4,0.2,0.6c0,0.2-0.1,0.4-0.2,0.6s-0.4,0.2-0.6,0.2h-2.5v9.7h2.5
		c0.2,0,0.4,0.1,0.6,0.2s0.2,0.4,0.2,0.6s-0.1,0.4-0.2,0.6s-0.4,0.2-0.6,0.2h-6.6c-0.2,0-0.4-0.1-0.6-0.2s-0.2-0.4-0.2-0.6
		s0.1-0.4,0.2-0.6s0.4-0.2,0.6-0.2h2.5v-9.7h-2.5c-0.2,0-0.4-0.1-0.6-0.2s-0.2-0.4-0.2-0.6c0-0.2,0.1-0.4,0.2-0.6
		S32.9,12.2,33.1,12.2z"/>
	<path d="M63.9,25.1h-3.5c-0.6,0-1.1-0.2-1.6-0.6l-1.6-1.4c-0.5-0.4-0.8-1-0.8-1.7v-2.1c0-0.7,0.3-1.3,0.9-1.8l1.4-1.2
		c0.5-0.4,1-0.6,1.5-0.6h3.7c0.2,0,0.4,0.1,0.6,0.2s0.2,0.4,0.2,0.6c0,0.2-0.1,0.4-0.2,0.6s-0.4,0.2-0.6,0.2h-3.5
		c-0.2,0-0.4,0.1-0.6,0.3l-1.3,1.1c-0.2,0.2-0.3,0.4-0.3,0.7v2c0,0.2,0.1,0.4,0.3,0.5l1.4,1.2c0.2,0.2,0.4,0.2,0.7,0.2h3.4
		c0.2,0,0.4,0.1,0.6,0.2s0.2,0.4,0.2,0.6s-0.1,0.4-0.2,0.6S64.1,25.1,63.9,25.1z"/>
	<path d="M76.8,18.7v3.5c0,0.7-0.3,1.4-1,2s-1.4,0.9-2.1,0.9h-1.9c-0.7,0-1.5-0.3-2.1-1s-1-1.3-1-2v-3.5c0-0.7,0.3-1.4,1-2
		s1.4-1,2.2-1h1.9c0.7,0,1.5,0.3,2.1,0.9S76.8,17.9,76.8,18.7z M70.2,18.7v3.3c0,0.3,0.1,0.5,0.3,0.7l0.6,0.5
		c0.1,0.1,0.3,0.2,0.6,0.2h1.9c0.3,0,0.5-0.1,0.8-0.3l0.5-0.4c0.2-0.2,0.3-0.4,0.3-0.7v-3.3c0-0.3-0.1-0.6-0.3-0.7l-0.6-0.5
		c-0.2-0.2-0.4-0.2-0.7-0.2h-1.7c-0.4,0-0.7,0.1-0.9,0.3l-0.6,0.5C70.3,18.3,70.2,18.5,70.2,18.7z"/>
	<path d="M84.5,23.5l2.8-1.8v-5.2c0-0.2,0.1-0.4,0.2-0.6s0.4-0.2,0.6-0.2s0.4,0.1,0.6,0.2s0.2,0.4,0.2,0.6v7.8
		c0,0.2-0.1,0.4-0.2,0.6s-0.4,0.2-0.6,0.2s-0.4-0.1-0.6-0.2s-0.2-0.4-0.2-0.6v-0.6l-1.4,0.9c-0.6,0.4-1.1,0.5-1.7,0.5h-0.8
		c-0.7,0-1.2-0.2-1.7-0.7c-0.5-0.5-0.7-1-0.8-1.7l-0.2-6.2c0-0.2,0.1-0.4,0.2-0.6s0.4-0.2,0.6-0.2c0.2,0,0.4,0.1,0.6,0.2
		s0.2,0.4,0.2,0.6l0.2,6.1c0,0.6,0.4,0.9,1,0.9H84.5z"/>
	<path d="M99.3,25.1h-5c-0.2,0-0.4-0.1-0.6-0.2s-0.2-0.4-0.2-0.6c0-0.2,0.1-0.4,0.2-0.6s0.4-0.2,0.6-0.2H96v-9.7h-1.7
		c-0.2,0-0.4-0.1-0.6-0.2s-0.2-0.4-0.2-0.6s0.1-0.4,0.2-0.6s0.4-0.2,0.6-0.2h2.5c0.2,0,0.4,0.1,0.6,0.2s0.2,0.4,0.2,0.6v10.5h1.7
		c0.2,0,0.4,0.1,0.6,0.2s0.2,0.4,0.2,0.6c0,0.2-0.1,0.4-0.2,0.6S99.5,25.1,99.3,25.1z"/>
	<path d="M111.4,16.9V13c0-0.2,0.1-0.4,0.2-0.6s0.3-0.2,0.6-0.2c0.2,0,0.4,0.1,0.6,0.2s0.2,0.4,0.2,0.6v11.3c0,0.2-0.1,0.4-0.2,0.6
		s-0.4,0.2-0.6,0.2c-0.2,0-0.4-0.1-0.6-0.2s-0.2-0.4-0.2-0.6V24c-0.8,0.8-1.5,1.2-2.2,1.2h-1.4c-0.6,0-1.1-0.2-1.7-0.7l-0.7-0.6
		c-0.2-0.1-0.3-0.4-0.4-0.8s-0.2-0.7-0.2-1v-3.3c0-0.4,0.1-0.7,0.2-1.1s0.3-0.6,0.5-0.8l0.7-0.6c0.5-0.4,1-0.6,1.7-0.6h1.2
		c0.6,0,1.2,0.2,1.8,0.7L111.4,16.9z M109,17.4h-1.1c-0.2,0-0.5,0.1-0.7,0.3l-0.5,0.5c-0.2,0.2-0.3,0.4-0.3,0.6v3.5
		c0,0.2,0.1,0.4,0.3,0.6l0.5,0.5c0.2,0.1,0.3,0.2,0.5,0.2h1.3c0.2,0,0.4-0.1,0.6-0.3l1.3-1.1c0.2-0.2,0.3-0.4,0.3-0.7v-1.8
		c0-0.4-0.1-0.7-0.3-0.9l-1.3-1.1C109.5,17.4,109.3,17.4,109,17.4z"/>
	<path d="M133.9,19.4v1.9l1.1,1.9l0.6-1.9l0.2-4.8c0-0.2,0.1-0.4,0.3-0.6s0.3-0.2,0.6-0.2c0.2,0,0.4,0.1,0.6,0.2s0.2,0.4,0.2,0.6
		l-0.2,5.1l-0.9,2.9c-0.1,0.4-0.4,0.6-0.8,0.6h-0.9c-0.3,0-0.5-0.2-0.7-0.5l-0.9-1.5l-0.9,1.5c-0.2,0.3-0.4,0.5-0.7,0.5h-0.9
		c-0.2,0-0.4-0.1-0.5-0.2c-0.2-0.1-0.2-0.2-0.3-0.4l-0.9-3l-0.2-5c0-0.2,0.1-0.4,0.2-0.6s0.4-0.2,0.6-0.2c0.2,0,0.4,0.1,0.6,0.2
		s0.2,0.4,0.2,0.6l0.2,4.8l0.5,1.8l1.1-1.9v-1.9c0-0.2,0.1-0.4,0.2-0.6s0.4-0.2,0.6-0.2c0.2,0,0.4,0.1,0.6,0.2
		S133.9,19.1,133.9,19.4z"/>
	<path d="M143.4,19.2h3.2c0.2,0,0.4,0,0.8,0.1l0-1.2c0-0.2-0.1-0.4-0.2-0.6s-0.4-0.2-0.6-0.2h-3.1c-0.2,0-0.4-0.1-0.6-0.2
		s-0.2-0.4-0.2-0.6c0-0.2,0.1-0.4,0.2-0.6c0.2-0.2,0.4-0.2,0.6-0.2h3.1c0.7,0,1.3,0.2,1.7,0.7c0.5,0.5,0.7,1.1,0.7,1.7l0.2,6.1
		c0,0.2-0.1,0.4-0.2,0.6s-0.4,0.2-0.6,0.2c-0.2,0-0.4-0.1-0.6-0.2s-0.2-0.4-0.2-0.6l-1.4,0.8h-2.8c-0.7,0-1.3-0.2-1.8-0.7
		s-0.7-1.1-0.7-1.8v-1c0-0.7,0.2-1.3,0.7-1.8S142.8,19.2,143.4,19.2z M147.5,22.4l0-0.7c0-0.2-0.1-0.4-0.2-0.6s-0.3-0.2-0.6-0.2
		h-3.2c-0.2,0-0.4,0.1-0.6,0.2s-0.2,0.4-0.2,0.6v0.9c0,0.2,0.1,0.4,0.2,0.6c0.2,0.2,0.4,0.2,0.6,0.2h2.3L147.5,22.4z"/>
	<path d="M159.7,25.1h-5c-0.2,0-0.4-0.1-0.6-0.2s-0.2-0.4-0.2-0.6c0-0.2,0.1-0.4,0.2-0.6s0.4-0.2,0.6-0.2h1.7v-6.1h-1.7
		c-0.2,0-0.4-0.1-0.6-0.2s-0.2-0.4-0.2-0.6c0-0.2,0.1-0.4,0.2-0.6s0.4-0.2,0.6-0.2h2.5c0.2,0,0.4,0.1,0.6,0.2s0.2,0.4,0.2,0.6v6.9
		h1.6c0.2,0,0.4,0.1,0.6,0.2s0.2,0.4,0.2,0.6s-0.1,0.4-0.2,0.6S159.9,25.1,159.7,25.1z M156.4,11.4h0.9c0.2,0,0.4,0.1,0.6,0.2
		s0.2,0.4,0.2,0.6V13c0,0.2-0.1,0.4-0.2,0.6s-0.4,0.2-0.6,0.2h-0.9c-0.2,0-0.4-0.1-0.6-0.3s-0.2-0.4-0.2-0.6l0-0.7
		c0-0.2,0.1-0.4,0.2-0.6S156.1,11.4,156.4,11.4z"/>
	<path d="M170.9,25.1h-1.6c-0.7,0-1.3-0.2-1.7-0.7s-0.7-1.1-0.7-1.7v-5.3H166c-0.2,0-0.4-0.1-0.6-0.2s-0.2-0.4-0.2-0.6
		c0-0.2,0.1-0.4,0.2-0.6s0.4-0.2,0.6-0.2h0.9v-2c0-0.2,0.1-0.4,0.2-0.6s0.4-0.2,0.6-0.2c0.2,0,0.4,0.1,0.6,0.2s0.2,0.4,0.2,0.6v2
		h3.3c0.2,0,0.4,0.1,0.6,0.2s0.2,0.4,0.2,0.6c0,0.2-0.1,0.4-0.2,0.6s-0.4,0.2-0.6,0.2h-3.3v5.3c0,0.2,0.1,0.4,0.2,0.6
		s0.4,0.2,0.6,0.2h1.6c0.4,0,0.7-0.2,0.9-0.7s0.4-0.7,0.8-0.7c0.2,0,0.4,0.1,0.6,0.2s0.2,0.4,0.2,0.6c0,0.5-0.2,1-0.7,1.5
		S171.6,25.1,170.9,25.1z"/>
	<path d="M193.1,17.4v7c0,0.2-0.1,0.4-0.2,0.6s-0.4,0.2-0.6,0.2c-0.2,0-0.4-0.1-0.6-0.2s-0.2-0.4-0.2-0.6v-7h-0.8
		c-0.2,0-0.4-0.1-0.6-0.2s-0.2-0.4-0.2-0.6c0-0.2,0.1-0.4,0.2-0.6s0.3-0.2,0.6-0.2h0.9v-0.6c0-0.8,0.3-1.5,0.9-2.1s1.3-0.8,2.2-0.8
		h1.9c0.2,0,0.4,0.1,0.6,0.2s0.2,0.4,0.2,0.6c0,0.2-0.1,0.4-0.2,0.6s-0.4,0.2-0.6,0.2h-1.9c-0.4,0-0.7,0.1-1,0.4s-0.4,0.5-0.4,0.9
		v0.6h1.6c0.2,0,0.4,0.1,0.6,0.2s0.2,0.4,0.2,0.6c0,0.2-0.1,0.4-0.2,0.6s-0.4,0.2-0.6,0.2H193.1z"/>
	<path d="M209.7,18.7v3.5c0,0.7-0.3,1.4-1,2s-1.4,0.9-2.1,0.9h-1.9c-0.7,0-1.5-0.3-2.1-1s-1-1.3-1-2v-3.5c0-0.7,0.3-1.4,1-2
		s1.4-1,2.2-1h1.9c0.7,0,1.5,0.3,2.1,0.9S209.7,17.9,209.7,18.7z M203,18.7v3.3c0,0.3,0.1,0.5,0.3,0.7l0.6,0.5
		c0.1,0.1,0.3,0.2,0.6,0.2h1.9c0.3,0,0.5-0.1,0.8-0.3l0.5-0.4c0.2-0.2,0.3-0.4,0.3-0.7v-3.3c0-0.3-0.1-0.6-0.3-0.7l-0.6-0.5
		c-0.2-0.2-0.4-0.2-0.7-0.2h-1.7c-0.4,0-0.7,0.1-0.9,0.3l-0.6,0.5C203.1,18.3,203,18.5,203,18.7z"/>
	<path d="M213.5,24.3v-7.8c0-0.2,0.1-0.4,0.2-0.6s0.4-0.2,0.6-0.2s0.4,0.1,0.6,0.2s0.2,0.4,0.2,0.6v1l1.3-1.1
		c0.6-0.5,1.1-0.7,1.6-0.7h1.2c0.7,0,1.3,0.2,1.7,0.7s0.7,1.1,0.7,1.7v0.4c0,0.2-0.1,0.4-0.2,0.6s-0.4,0.2-0.6,0.2s-0.4-0.1-0.6-0.2
		s-0.2-0.4-0.2-0.6v-0.5c0-0.2-0.1-0.4-0.2-0.6s-0.4-0.2-0.6-0.2h-1.1c-0.2,0-0.5,0.1-0.8,0.4l-2.3,2v4.6c0,0.2-0.1,0.4-0.2,0.6
		s-0.4,0.2-0.6,0.2c-0.2,0-0.4-0.1-0.6-0.2S213.5,24.6,213.5,24.3z"/>
	<path d="M243.4,25.1h-1.6c-0.7,0-1.3-0.2-1.7-0.7s-0.7-1.1-0.7-1.7v-5.3h-0.8c-0.2,0-0.4-0.1-0.6-0.2s-0.2-0.4-0.2-0.6
		c0-0.2,0.1-0.4,0.2-0.6s0.4-0.2,0.6-0.2h0.9v-2c0-0.2,0.1-0.4,0.2-0.6s0.4-0.2,0.6-0.2c0.2,0,0.4,0.1,0.6,0.2s0.2,0.4,0.2,0.6v2
		h3.3c0.2,0,0.4,0.1,0.6,0.2s0.2,0.4,0.2,0.6c0,0.2-0.1,0.4-0.2,0.6s-0.4,0.2-0.6,0.2h-3.3v5.3c0,0.2,0.1,0.4,0.2,0.6
		s0.4,0.2,0.6,0.2h1.6c0.4,0,0.7-0.2,0.9-0.7s0.4-0.7,0.8-0.7c0.2,0,0.4,0.1,0.6,0.2s0.2,0.4,0.2,0.6c0,0.5-0.2,1-0.7,1.5
		S244.1,25.1,243.4,25.1z"/>
	<path d="M249.7,24.3V13c0-0.2,0.1-0.4,0.2-0.6s0.4-0.2,0.6-0.2s0.4,0.1,0.6,0.2s0.2,0.4,0.2,0.6v4.1l1.3-0.9
		c0.6-0.4,1.1-0.6,1.6-0.6h1c0.7,0,1.2,0.2,1.7,0.7s0.7,1.1,0.8,1.7l0.2,6.1c0,0.2-0.1,0.4-0.2,0.6s-0.4,0.2-0.6,0.2
		s-0.4-0.1-0.6-0.2s-0.2-0.4-0.2-0.6l-0.2-6.2c0-0.2-0.1-0.4-0.3-0.6s-0.4-0.2-0.6-0.2h-0.9c-0.2,0-0.4,0.1-0.7,0.2l-2.3,1.5v5.2
		c0,0.2-0.1,0.4-0.2,0.6s-0.4,0.2-0.6,0.2s-0.4-0.1-0.6-0.2S249.7,24.6,249.7,24.3z"/>
	<path d="M270.1,18.8v2c0,0.2-0.1,0.4-0.2,0.6s-0.4,0.2-0.6,0.2h-5.8v0.5c0,0.3,0.1,0.5,0.4,0.7l0.5,0.4c0.3,0.2,0.5,0.3,0.7,0.3
		h4.2c0.2,0,0.4,0.1,0.6,0.2s0.2,0.4,0.2,0.6c0,0.2-0.1,0.4-0.2,0.6s-0.4,0.2-0.6,0.2h-4.3c-0.3,0-0.6-0.1-0.9-0.2s-0.5-0.2-0.7-0.4
		l-0.7-0.6c-0.2-0.2-0.4-0.4-0.6-0.8s-0.2-0.6-0.2-0.9v-3.8c0-0.2,0.1-0.5,0.2-0.9s0.4-0.6,0.6-0.8l0.7-0.5c0.4-0.4,0.9-0.5,1.5-0.5
		h2.3c0.6,0,1.1,0.2,1.6,0.7l0.6,0.6C269.8,17.4,270.1,18,270.1,18.8z M263.5,18.7v1.3h5v-1.1c0-0.3-0.1-0.5-0.3-0.7l-0.5-0.4
		c-0.2-0.2-0.5-0.3-0.7-0.3H265c-0.3,0-0.5,0.1-0.7,0.3l-0.5,0.4C263.6,18.2,263.5,18.4,263.5,18.7z"/>
	<path d="M291.7,25.1h-1.6c-0.7,0-1.3-0.2-1.7-0.7s-0.7-1.1-0.7-1.7v-5.3h-0.8c-0.2,0-0.4-0.1-0.6-0.2s-0.2-0.4-0.2-0.6
		c0-0.2,0.1-0.4,0.2-0.6s0.4-0.2,0.6-0.2h0.9v-2c0-0.2,0.1-0.4,0.2-0.6s0.4-0.2,0.6-0.2c0.2,0,0.4,0.1,0.6,0.2s0.2,0.4,0.2,0.6v2
		h3.3c0.2,0,0.4,0.1,0.6,0.2s0.2,0.4,0.2,0.6c0,0.2-0.1,0.4-0.2,0.6s-0.4,0.2-0.6,0.2h-3.3v5.3c0,0.2,0.1,0.4,0.2,0.6
		s0.4,0.2,0.6,0.2h1.6c0.4,0,0.7-0.2,0.9-0.7s0.4-0.7,0.8-0.7c0.2,0,0.4,0.1,0.6,0.2s0.2,0.4,0.2,0.6c0,0.5-0.2,1-0.7,1.5
		S292.4,25.1,291.7,25.1z"/>
	<path d="M298,24.3V13c0-0.2,0.1-0.4,0.2-0.6s0.4-0.2,0.6-0.2s0.4,0.1,0.6,0.2s0.2,0.4,0.2,0.6v4.1l1.3-0.9c0.6-0.4,1.1-0.6,1.6-0.6
		h1c0.7,0,1.2,0.2,1.7,0.7s0.7,1.1,0.8,1.7l0.2,6.1c0,0.2-0.1,0.4-0.2,0.6s-0.4,0.2-0.6,0.2s-0.4-0.1-0.6-0.2s-0.2-0.4-0.2-0.6
		l-0.2-6.2c0-0.2-0.1-0.4-0.3-0.6s-0.4-0.2-0.6-0.2h-0.9c-0.2,0-0.4,0.1-0.7,0.2l-2.3,1.5v5.2c0,0.2-0.1,0.4-0.2,0.6
		s-0.4,0.2-0.6,0.2s-0.4-0.1-0.6-0.2S298,24.6,298,24.3z"/>
	<path d="M316.7,25.1h-5c-0.2,0-0.4-0.1-0.6-0.2s-0.2-0.4-0.2-0.6c0-0.2,0.1-0.4,0.2-0.6s0.4-0.2,0.6-0.2h1.7v-6.1h-1.7
		c-0.2,0-0.4-0.1-0.6-0.2s-0.2-0.4-0.2-0.6c0-0.2,0.1-0.4,0.2-0.6s0.4-0.2,0.6-0.2h2.5c0.2,0,0.4,0.1,0.6,0.2s0.2,0.4,0.2,0.6v6.9
		h1.6c0.2,0,0.4,0.1,0.6,0.2s0.2,0.4,0.2,0.6s-0.1,0.4-0.2,0.6S317,25.1,316.7,25.1z M313.4,11.4h0.9c0.2,0,0.4,0.1,0.6,0.2
		s0.2,0.4,0.2,0.6V13c0,0.2-0.1,0.4-0.2,0.6s-0.4,0.2-0.6,0.2h-0.9c-0.2,0-0.4-0.1-0.6-0.3s-0.2-0.4-0.2-0.6l0-0.7
		c0-0.2,0.1-0.4,0.2-0.6S313.2,11.4,313.4,11.4z"/>
	<path d="M322.2,24.3v-7.8c0-0.2,0.1-0.4,0.2-0.6s0.4-0.2,0.6-0.2s0.4,0.1,0.6,0.2s0.2,0.4,0.2,0.6v1l1.3-1.1
		c0.6-0.5,1.1-0.7,1.6-0.7h1.2c0.7,0,1.3,0.2,1.7,0.7s0.7,1.1,0.7,1.7v0.4c0,0.2-0.1,0.4-0.2,0.6s-0.4,0.2-0.6,0.2s-0.4-0.1-0.6-0.2
		s-0.2-0.4-0.2-0.6v-0.5c0-0.2-0.1-0.4-0.2-0.6s-0.4-0.2-0.6-0.2h-1.1c-0.2,0-0.5,0.1-0.8,0.4l-2.3,2v4.6c0,0.2-0.1,0.4-0.2,0.6
		s-0.4,0.2-0.6,0.2c-0.2,0-0.4-0.1-0.6-0.2S322.2,24.6,322.2,24.3z"/>
	<path d="M340.9,16.9V13c0-0.2,0.1-0.4,0.2-0.6s0.3-0.2,0.6-0.2c0.2,0,0.4,0.1,0.6,0.2s0.2,0.4,0.2,0.6v11.3c0,0.2-0.1,0.4-0.2,0.6
		s-0.4,0.2-0.6,0.2c-0.2,0-0.4-0.1-0.6-0.2s-0.2-0.4-0.2-0.6V24c-0.8,0.8-1.5,1.2-2.2,1.2h-1.4c-0.6,0-1.1-0.2-1.7-0.7l-0.7-0.6
		c-0.2-0.1-0.3-0.4-0.4-0.8s-0.2-0.7-0.2-1v-3.3c0-0.4,0.1-0.7,0.2-1.1s0.3-0.6,0.5-0.8l0.7-0.6c0.5-0.4,1-0.6,1.7-0.6h1.2
		c0.6,0,1.2,0.2,1.8,0.7L340.9,16.9z M338.5,17.4h-1.1c-0.2,0-0.5,0.1-0.7,0.3l-0.5,0.5c-0.2,0.2-0.3,0.4-0.3,0.6v3.5
		c0,0.2,0.1,0.4,0.3,0.6l0.5,0.5c0.2,0.1,0.3,0.2,0.5,0.2h1.3c0.2,0,0.4-0.1,0.6-0.3l1.3-1.1c0.2-0.2,0.3-0.4,0.3-0.7v-1.8
		c0-0.4-0.1-0.7-0.3-0.9l-1.3-1.1C339,17.4,338.8,17.4,338.5,17.4z"/>
	<path d="M363.4,19.4v1.9l1.1,1.9l0.6-1.9l0.2-4.8c0-0.2,0.1-0.4,0.3-0.6s0.3-0.2,0.6-0.2c0.2,0,0.4,0.1,0.6,0.2s0.2,0.4,0.2,0.6
		l-0.2,5.1l-0.9,2.9c-0.1,0.4-0.4,0.6-0.8,0.6h-0.9c-0.3,0-0.5-0.2-0.7-0.5l-0.9-1.5l-0.9,1.5c-0.2,0.3-0.4,0.5-0.7,0.5h-0.9
		c-0.2,0-0.4-0.1-0.5-0.2c-0.2-0.1-0.2-0.2-0.3-0.4l-0.9-3l-0.2-5c0-0.2,0.1-0.4,0.2-0.6s0.4-0.2,0.6-0.2c0.2,0,0.4,0.1,0.6,0.2
		s0.2,0.4,0.2,0.6l0.2,4.8l0.5,1.8l1.1-1.9v-1.9c0-0.2,0.1-0.4,0.2-0.6s0.4-0.2,0.6-0.2c0.2,0,0.4,0.1,0.6,0.2
		S363.4,19.1,363.4,19.4z"/>
	<path d="M373,19.2h3.2c0.2,0,0.4,0,0.8,0.1l0-1.2c0-0.2-0.1-0.4-0.2-0.6s-0.4-0.2-0.6-0.2H373c-0.2,0-0.4-0.1-0.6-0.2
		s-0.2-0.4-0.2-0.6c0-0.2,0.1-0.4,0.2-0.6c0.2-0.2,0.4-0.2,0.6-0.2h3.1c0.7,0,1.3,0.2,1.7,0.7c0.5,0.5,0.7,1.1,0.7,1.7l0.2,6.1
		c0,0.2-0.1,0.4-0.2,0.6s-0.4,0.2-0.6,0.2c-0.2,0-0.4-0.1-0.6-0.2s-0.2-0.4-0.2-0.6l-1.4,0.8H373c-0.7,0-1.3-0.2-1.8-0.7
		s-0.7-1.1-0.7-1.8v-1c0-0.7,0.2-1.3,0.7-1.8S372.3,19.2,373,19.2z M377.1,22.4l0-0.7c0-0.2-0.1-0.4-0.2-0.6s-0.3-0.2-0.6-0.2H373
		c-0.2,0-0.4,0.1-0.6,0.2s-0.2,0.4-0.2,0.6v0.9c0,0.2,0.1,0.4,0.2,0.6c0.2,0.2,0.4,0.2,0.6,0.2h2.3L377.1,22.4z"/>
	<path d="M390.9,16.5v1.6l-2.8,6.5c-0.2,0.4-0.4,0.6-0.7,0.6h-1.1c-0.4,0-0.7-0.2-0.8-0.6l-2.8-6.4v-1.6c0-0.2,0.1-0.4,0.2-0.6
		s0.4-0.2,0.6-0.2s0.4,0.1,0.6,0.2c0.2,0.2,0.2,0.4,0.2,0.6l0,1.3l2.5,5.6l2.5-5.6l0-1.2c0-0.2,0.1-0.4,0.2-0.6s0.4-0.2,0.6-0.2
		c0.2,0,0.4,0.1,0.6,0.2S390.9,16.3,390.9,16.5z"/>
	<path d="M402.9,18.8v2c0,0.2-0.1,0.4-0.2,0.6c-0.2,0.2-0.4,0.2-0.6,0.2h-5.8v0.5c0,0.3,0.1,0.5,0.4,0.7l0.5,0.4
		c0.3,0.2,0.5,0.3,0.7,0.3h4.2c0.2,0,0.4,0.1,0.6,0.2c0.2,0.2,0.2,0.4,0.2,0.6c0,0.2-0.1,0.4-0.3,0.6s-0.4,0.2-0.6,0.2h-4.3
		c-0.3,0-0.6-0.1-0.9-0.2c-0.3-0.1-0.5-0.2-0.7-0.4l-0.7-0.6c-0.2-0.2-0.4-0.4-0.6-0.8c-0.2-0.3-0.2-0.6-0.2-0.9v-3.8
		c0-0.2,0.1-0.5,0.2-0.9s0.4-0.6,0.6-0.8l0.7-0.5c0.4-0.4,0.9-0.5,1.5-0.5h2.3c0.6,0,1.1,0.2,1.6,0.7l0.6,0.6
		C402.7,17.4,402.9,18,402.9,18.8z M396.3,18.7v1.3h5v-1.1c0-0.3-0.1-0.5-0.3-0.7l-0.5-0.4c-0.2-0.2-0.5-0.3-0.7-0.3h-2.1
		c-0.3,0-0.5,0.1-0.7,0.3l-0.5,0.4C396.4,18.2,396.3,18.4,396.3,18.7z"/>
	<path d="M427.1,18.7v3.5c0,0.7-0.3,1.4-1,2s-1.4,0.9-2.1,0.9H422c-0.7,0-1.5-0.3-2.1-1s-1-1.3-1-2v-3.5c0-0.7,0.3-1.4,1-2
		s1.4-1,2.2-1h1.9c0.7,0,1.5,0.3,2.1,0.9S427.1,17.9,427.1,18.7z M420.5,18.7v3.3c0,0.3,0.1,0.5,0.3,0.7l0.6,0.5
		c0.1,0.1,0.3,0.2,0.6,0.2h1.9c0.3,0,0.5-0.1,0.8-0.3l0.5-0.4c0.2-0.2,0.3-0.4,0.3-0.7v-3.3c0-0.3-0.1-0.6-0.3-0.7l-0.6-0.5
		c-0.2-0.2-0.4-0.2-0.7-0.2h-1.7c-0.4,0-0.7,0.1-0.9,0.3l-0.6,0.5C420.6,18.3,420.5,18.5,420.5,18.7z"/>
	<path d="M434.7,17.4v7c0,0.2-0.1,0.4-0.2,0.6s-0.4,0.2-0.6,0.2c-0.2,0-0.4-0.1-0.6-0.2s-0.2-0.4-0.2-0.6v-7h-0.8
		c-0.2,0-0.4-0.1-0.6-0.2s-0.2-0.4-0.2-0.6c0-0.2,0.1-0.4,0.2-0.6s0.3-0.2,0.6-0.2h0.9v-0.6c0-0.8,0.3-1.5,0.9-2.1s1.3-0.8,2.2-0.8
		h1.9c0.2,0,0.4,0.1,0.6,0.2s0.2,0.4,0.2,0.6c0,0.2-0.1,0.4-0.2,0.6s-0.4,0.2-0.6,0.2H436c-0.4,0-0.7,0.1-1,0.4s-0.4,0.5-0.4,0.9
		v0.6h1.6c0.2,0,0.4,0.1,0.6,0.2s0.2,0.4,0.2,0.6c0,0.2-0.1,0.4-0.2,0.6s-0.4,0.2-0.6,0.2H434.7z"/>
	<path d="M461.7,16.9V13c0-0.2,0.1-0.4,0.2-0.6s0.3-0.2,0.6-0.2c0.2,0,0.4,0.1,0.6,0.2s0.2,0.4,0.2,0.6v11.3c0,0.2-0.1,0.4-0.2,0.6
		s-0.4,0.2-0.6,0.2c-0.2,0-0.4-0.1-0.6-0.2s-0.2-0.4-0.2-0.6V24c-0.8,0.8-1.5,1.2-2.2,1.2H458c-0.6,0-1.1-0.2-1.7-0.7l-0.7-0.6
		c-0.2-0.1-0.3-0.4-0.4-0.8s-0.2-0.7-0.2-1v-3.3c0-0.4,0.1-0.7,0.2-1.1s0.3-0.6,0.5-0.8l0.7-0.6c0.5-0.4,1-0.6,1.7-0.6h1.2
		c0.6,0,1.2,0.2,1.8,0.7L461.7,16.9z M459.3,17.4h-1.1c-0.2,0-0.5,0.1-0.7,0.3l-0.5,0.5c-0.2,0.2-0.3,0.4-0.3,0.6v3.5
		c0,0.2,0.1,0.4,0.3,0.6l0.5,0.5c0.2,0.1,0.3,0.2,0.5,0.2h1.3c0.2,0,0.4-0.1,0.6-0.3l1.3-1.1c0.2-0.2,0.3-0.4,0.3-0.7v-1.8
		c0-0.4-0.1-0.7-0.3-0.9l-1.3-1.1C459.8,17.4,459.6,17.4,459.3,17.4z"/>
	<path d="M475.4,18.8v2c0,0.2-0.1,0.4-0.2,0.6s-0.4,0.2-0.6,0.2h-5.8v0.5c0,0.3,0.1,0.5,0.4,0.7l0.5,0.4c0.3,0.2,0.5,0.3,0.7,0.3
		h4.2c0.2,0,0.4,0.1,0.6,0.2s0.2,0.4,0.2,0.6c0,0.2-0.1,0.4-0.2,0.6s-0.4,0.2-0.6,0.2h-4.3c-0.3,0-0.6-0.1-0.9-0.2s-0.5-0.2-0.7-0.4
		l-0.7-0.6c-0.2-0.2-0.4-0.4-0.6-0.8s-0.2-0.6-0.2-0.9v-3.8c0-0.2,0.1-0.5,0.2-0.9s0.4-0.6,0.6-0.8l0.7-0.5c0.4-0.4,0.9-0.5,1.5-0.5
		h2.3c0.6,0,1.1,0.2,1.6,0.7l0.6,0.6C475.2,17.4,475.4,18,475.4,18.8z M468.8,18.7v1.3h5v-1.1c0-0.3-0.1-0.5-0.3-0.7l-0.5-0.4
		c-0.2-0.2-0.5-0.3-0.7-0.3h-2.1c-0.3,0-0.5,0.1-0.7,0.3l-0.5,0.4C468.9,18.2,468.8,18.4,468.8,18.7z"/>
	<path d="M481.5,15.7h3.8c0.6,0,1.1,0.2,1.6,0.5s0.7,0.7,0.7,1c0,0.2-0.1,0.4-0.2,0.6s-0.3,0.2-0.6,0.2c-0.3,0-0.5-0.1-0.7-0.4
		s-0.4-0.4-0.7-0.4h-3.7c-0.4,0-0.5,0.2-0.5,0.5c0,0.2,0.1,0.4,0.4,0.5l4.4,1.9c0.4,0.2,0.8,0.5,1.1,0.9s0.4,0.9,0.4,1.4
		c0,0.7-0.2,1.3-0.7,1.8s-1.1,0.7-1.7,0.7h-3.3c-0.6,0-1.1-0.2-1.6-0.5s-0.7-0.7-0.7-1c0-0.2,0.1-0.4,0.2-0.6s0.4-0.2,0.6-0.2
		c0.2,0,0.4,0.1,0.7,0.4s0.6,0.4,1,0.4h3.1c0.2,0,0.4-0.1,0.6-0.3s0.2-0.4,0.2-0.6c0-0.4-0.2-0.6-0.5-0.8l-4.4-2
		c-0.4-0.2-0.7-0.5-1-0.8s-0.3-0.7-0.3-1.1c0-0.6,0.2-1.1,0.6-1.5S480.9,15.7,481.5,15.7z"/>
	<path d="M497.1,25.1h-1.6c-0.7,0-1.3-0.2-1.7-0.7s-0.7-1.1-0.7-1.7v-5.3h-0.8c-0.2,0-0.4-0.1-0.6-0.2s-0.2-0.4-0.2-0.6
		c0-0.2,0.1-0.4,0.2-0.6s0.4-0.2,0.6-0.2h0.9v-2c0-0.2,0.1-0.4,0.2-0.6s0.4-0.2,0.6-0.2c0.2,0,0.4,0.1,0.6,0.2s0.2,0.4,0.2,0.6v2
		h3.3c0.2,0,0.4,0.1,0.6,0.2s0.2,0.4,0.2,0.6c0,0.2-0.1,0.4-0.2,0.6s-0.4,0.2-0.6,0.2h-3.3v5.3c0,0.2,0.1,0.4,0.2,0.6
		s0.4,0.2,0.6,0.2h1.6c0.4,0,0.7-0.2,0.9-0.7s0.4-0.7,0.8-0.7c0.2,0,0.4,0.1,0.6,0.2s0.2,0.4,0.2,0.6c0,0.5-0.2,1-0.7,1.5
		S497.8,25.1,497.1,25.1z"/>
	<path d="M503.4,24.3v-7.8c0-0.2,0.1-0.4,0.2-0.6s0.4-0.2,0.6-0.2s0.4,0.1,0.6,0.2s0.2,0.4,0.2,0.6v1l1.3-1.1
		c0.6-0.5,1.1-0.7,1.6-0.7h1.2c0.7,0,1.3,0.2,1.7,0.7s0.7,1.1,0.7,1.7v0.4c0,0.2-0.1,0.4-0.2,0.6s-0.4,0.2-0.6,0.2s-0.4-0.1-0.6-0.2
		s-0.2-0.4-0.2-0.6v-0.5c0-0.2-0.1-0.4-0.2-0.6s-0.4-0.2-0.6-0.2h-1.1c-0.2,0-0.5,0.1-0.8,0.4l-2.3,2v4.6c0,0.2-0.1,0.4-0.2,0.6
		s-0.4,0.2-0.6,0.2c-0.2,0-0.4-0.1-0.6-0.2S503.4,24.6,503.4,24.3z"/>
	<path d="M519.4,23.5l2.8-1.8v-5.2c0-0.2,0.1-0.4,0.2-0.6s0.4-0.2,0.6-0.2s0.4,0.1,0.6,0.2s0.2,0.4,0.2,0.6v7.8
		c0,0.2-0.1,0.4-0.2,0.6s-0.4,0.2-0.6,0.2s-0.4-0.1-0.6-0.2s-0.2-0.4-0.2-0.6v-0.6l-1.4,0.9c-0.6,0.4-1.1,0.5-1.7,0.5h-0.8
		c-0.7,0-1.2-0.2-1.7-0.7c-0.5-0.5-0.7-1-0.8-1.7l-0.2-6.2c0-0.2,0.1-0.4,0.2-0.6s0.4-0.2,0.6-0.2c0.2,0,0.4,0.1,0.6,0.2
		s0.2,0.4,0.2,0.6l0.2,6.1c0,0.6,0.4,0.9,1,0.9H519.4z"/>
	<path d="M535,25.1h-3.5c-0.6,0-1.1-0.2-1.6-0.6l-1.6-1.4c-0.5-0.4-0.8-1-0.8-1.7v-2.1c0-0.7,0.3-1.3,0.9-1.8l1.4-1.2
		c0.5-0.4,1-0.6,1.5-0.6h3.7c0.2,0,0.4,0.1,0.6,0.2s0.2,0.4,0.2,0.6c0,0.2-0.1,0.4-0.2,0.6s-0.4,0.2-0.6,0.2h-3.5
		c-0.2,0-0.4,0.1-0.6,0.3l-1.3,1.1c-0.2,0.2-0.3,0.4-0.3,0.7v2c0,0.2,0.1,0.4,0.3,0.5l1.4,1.2c0.2,0.2,0.4,0.2,0.7,0.2h3.4
		c0.2,0,0.4,0.1,0.6,0.2s0.2,0.4,0.2,0.6s-0.1,0.4-0.2,0.6S535.3,25.1,535,25.1z"/>
	<path d="M545.4,25.1h-1.6c-0.7,0-1.3-0.2-1.7-0.7s-0.7-1.1-0.7-1.7v-5.3h-0.8c-0.2,0-0.4-0.1-0.6-0.2s-0.2-0.4-0.2-0.6
		c0-0.2,0.1-0.4,0.2-0.6s0.4-0.2,0.6-0.2h0.9v-2c0-0.2,0.1-0.4,0.2-0.6s0.4-0.2,0.6-0.2c0.2,0,0.4,0.1,0.6,0.2s0.2,0.4,0.2,0.6v2
		h3.3c0.2,0,0.4,0.1,0.6,0.2s0.2,0.4,0.2,0.6c0,0.2-0.1,0.4-0.2,0.6s-0.4,0.2-0.6,0.2h-3.3v5.3c0,0.2,0.1,0.4,0.2,0.6
		s0.4,0.2,0.6,0.2h1.6c0.4,0,0.7-0.2,0.9-0.7s0.4-0.7,0.8-0.7c0.2,0,0.4,0.1,0.6,0.2s0.2,0.4,0.2,0.6c0,0.5-0.2,1-0.7,1.5
		S546.1,25.1,545.4,25.1z"/>
	<path d="M558.3,25.1h-5c-0.2,0-0.4-0.1-0.6-0.2s-0.2-0.4-0.2-0.6c0-0.2,0.1-0.4,0.2-0.6s0.4-0.2,0.6-0.2h1.7v-6.1h-1.7
		c-0.2,0-0.4-0.1-0.6-0.2s-0.2-0.4-0.2-0.6c0-0.2,0.1-0.4,0.2-0.6s0.4-0.2,0.6-0.2h2.5c0.2,0,0.4,0.1,0.6,0.2s0.2,0.4,0.2,0.6v6.9
		h1.6c0.2,0,0.4,0.1,0.6,0.2s0.2,0.4,0.2,0.6s-0.1,0.4-0.2,0.6S558.6,25.1,558.3,25.1z M555,11.4h0.9c0.2,0,0.4,0.1,0.6,0.2
		s0.2,0.4,0.2,0.6V13c0,0.2-0.1,0.4-0.2,0.6s-0.4,0.2-0.6,0.2H555c-0.2,0-0.4-0.1-0.6-0.3s-0.2-0.4-0.2-0.6l0-0.7
		c0-0.2,0.1-0.4,0.2-0.6S554.8,11.4,555,11.4z"/>
	<path d="M572.1,18.7v3.5c0,0.7-0.3,1.4-1,2s-1.4,0.9-2.1,0.9H567c-0.7,0-1.5-0.3-2.1-1s-1-1.3-1-2v-3.5c0-0.7,0.3-1.4,1-2
		s1.4-1,2.2-1h1.9c0.7,0,1.5,0.3,2.1,0.9S572.1,17.9,572.1,18.7z M565.4,18.7v3.3c0,0.3,0.1,0.5,0.3,0.7l0.6,0.5
		c0.1,0.1,0.3,0.2,0.6,0.2h1.9c0.3,0,0.5-0.1,0.8-0.3l0.5-0.4c0.2-0.2,0.3-0.4,0.3-0.7v-3.3c0-0.3-0.1-0.6-0.3-0.7l-0.6-0.5
		c-0.2-0.2-0.4-0.2-0.7-0.2h-1.7c-0.4,0-0.7,0.1-0.9,0.3l-0.6,0.5C565.5,18.3,565.4,18.5,565.4,18.7z"/>
	<path d="M579.8,17.6l-2.2,1.5v5.2c0,0.2-0.1,0.4-0.2,0.6s-0.4,0.2-0.6,0.2s-0.4-0.1-0.6-0.2s-0.2-0.4-0.2-0.6v-7.8
		c0-0.2,0.1-0.4,0.2-0.6s0.4-0.2,0.6-0.2c0.2,0,0.4,0.1,0.6,0.2s0.2,0.4,0.2,0.6v0.5l1.5-0.9c0.5-0.3,1.1-0.5,1.7-0.5h0.8
		c0.7,0,1.2,0.2,1.7,0.7s0.7,1,0.8,1.7l0.2,6.2c0,0.2-0.1,0.4-0.2,0.6s-0.4,0.2-0.6,0.2c-0.2,0-0.4-0.1-0.6-0.2s-0.2-0.3-0.3-0.6
		l-0.2-6.1c0-0.6-0.3-0.9-0.9-0.9h-0.8C580.3,17.3,580.1,17.4,579.8,17.6z"/>
	<path d="M605.8,25.1h-1.6c-0.7,0-1.3-0.2-1.7-0.7s-0.7-1.1-0.7-1.7v-5.3h-0.8c-0.2,0-0.4-0.1-0.6-0.2s-0.2-0.4-0.2-0.6
		c0-0.2,0.1-0.4,0.2-0.6s0.4-0.2,0.6-0.2h0.9v-2c0-0.2,0.1-0.4,0.2-0.6s0.4-0.2,0.6-0.2c0.2,0,0.4,0.1,0.6,0.2s0.2,0.4,0.2,0.6v2
		h3.3c0.2,0,0.4,0.1,0.6,0.2s0.2,0.4,0.2,0.6c0,0.2-0.1,0.4-0.2,0.6s-0.4,0.2-0.6,0.2h-3.3v5.3c0,0.2,0.1,0.4,0.2,0.6
		s0.4,0.2,0.6,0.2h1.6c0.4,0,0.7-0.2,0.9-0.7s0.4-0.7,0.8-0.7c0.2,0,0.4,0.1,0.6,0.2s0.2,0.4,0.2,0.6c0,0.5-0.2,1-0.7,1.5
		S606.5,25.1,605.8,25.1z"/>
	<path d="M620.4,18.7v3.5c0,0.7-0.3,1.4-1,2s-1.4,0.9-2.1,0.9h-1.9c-0.7,0-1.5-0.3-2.1-1s-1-1.3-1-2v-3.5c0-0.7,0.3-1.4,1-2
		s1.4-1,2.2-1h1.9c0.7,0,1.5,0.3,2.1,0.9S620.4,17.9,620.4,18.7z M613.8,18.7v3.3c0,0.3,0.1,0.5,0.3,0.7l0.6,0.5
		c0.1,0.1,0.3,0.2,0.6,0.2h1.9c0.3,0,0.5-0.1,0.8-0.3l0.5-0.4c0.2-0.2,0.3-0.4,0.3-0.7v-3.3c0-0.3-0.1-0.6-0.3-0.7l-0.6-0.5
		c-0.2-0.2-0.4-0.2-0.7-0.2h-1.7c-0.4,0-0.7,0.1-0.9,0.3l-0.6,0.5C613.9,18.3,613.8,18.5,613.8,18.7z"/>
	<path d="M637.9,24.2v3.6c0,0.2-0.1,0.4-0.2,0.6s-0.4,0.2-0.6,0.2s-0.4-0.1-0.6-0.2s-0.2-0.4-0.2-0.6V16.1c0-0.2,0.1-0.4,0.2-0.6
		s0.4-0.2,0.6-0.2c0.2,0,0.4,0.1,0.6,0.2s0.2,0.4,0.2,0.6v0.5c0.8-0.9,1.6-1.3,2.4-1.3h0.4c0.6,0,1.1,0.2,1.6,0.6l1.4,1.2
		c0.6,0.5,0.9,1.2,0.9,2v2.6c0,0.8-0.3,1.5-1,2l-1.3,1.2c-0.4,0.4-1,0.6-1.7,0.6h-0.4c-0.6,0-1.2-0.2-1.6-0.7L637.9,24.2z
		 M640.3,23.8h0.4c0.2,0,0.4-0.1,0.6-0.3l1.3-1.1c0.2-0.2,0.3-0.4,0.3-0.7v-2.6c0-0.3-0.1-0.5-0.4-0.7l-1.4-1.2
		c-0.2-0.1-0.3-0.2-0.5-0.2h-0.5c-0.2,0-0.4,0.1-0.7,0.4l-1.2,1.2c-0.2,0.2-0.3,0.5-0.3,0.7v2.1c0,0.3,0.1,0.5,0.4,0.7l1.2,1.2
		C639.8,23.7,640,23.8,640.3,23.8z"/>
	<path d="M655,25.1h-5c-0.2,0-0.4-0.1-0.6-0.2s-0.2-0.4-0.2-0.6c0-0.2,0.1-0.4,0.2-0.6s0.4-0.2,0.6-0.2h1.6v-9.7H650
		c-0.2,0-0.4-0.1-0.6-0.2s-0.2-0.4-0.2-0.6s0.1-0.4,0.2-0.6s0.4-0.2,0.6-0.2h2.5c0.2,0,0.4,0.1,0.6,0.2s0.2,0.4,0.2,0.6v10.5h1.7
		c0.2,0,0.4,0.1,0.6,0.2s0.2,0.4,0.2,0.6c0,0.2-0.1,0.4-0.2,0.6S655.2,25.1,655,25.1z"/>
	<path d="M662.9,19.2h3.2c0.2,0,0.4,0,0.8,0.1l0-1.2c0-0.2-0.1-0.4-0.2-0.6c-0.2-0.2-0.4-0.2-0.6-0.2h-3.1c-0.2,0-0.4-0.1-0.6-0.2
		c-0.2-0.2-0.2-0.4-0.2-0.6c0-0.2,0.1-0.4,0.2-0.6c0.2-0.2,0.4-0.2,0.6-0.2h3.1c0.7,0,1.3,0.2,1.7,0.7s0.7,1.1,0.7,1.7l0.2,6.1
		c0,0.2-0.1,0.4-0.2,0.6s-0.4,0.2-0.6,0.2c-0.2,0-0.4-0.1-0.6-0.2s-0.2-0.4-0.2-0.6l-1.4,0.8h-2.8c-0.7,0-1.3-0.2-1.8-0.7
		s-0.7-1.1-0.7-1.8v-1c0-0.7,0.2-1.3,0.7-1.8S662.2,19.2,662.9,19.2z M667,22.4l0-0.7c0-0.2-0.1-0.4-0.2-0.6
		c-0.2-0.2-0.3-0.2-0.6-0.2h-3.2c-0.2,0-0.4,0.1-0.6,0.2c-0.2,0.2-0.2,0.4-0.2,0.6v0.9c0,0.2,0.1,0.4,0.2,0.6s0.4,0.2,0.6,0.2h2.3
		L667,22.4z"/>
	<path d="M677.7,28.7h-3.6c-0.2,0-0.4-0.1-0.6-0.2s-0.2-0.4-0.2-0.6c0-0.2,0.1-0.4,0.2-0.6s0.4-0.2,0.6-0.2h3.6
		c0.2,0,0.4-0.1,0.6-0.2l0.6-0.5c0.2-0.1,0.3-0.3,0.3-0.6v-2.5c-0.8,0.8-1.5,1.2-2.2,1.2h-1.3c-0.7,0-1.2-0.2-1.8-0.7l-0.6-0.5
		c-0.2-0.2-0.4-0.4-0.5-0.7s-0.2-0.6-0.2-1v-2.7c0-0.4,0.1-0.7,0.2-1.1s0.3-0.6,0.5-0.8l0.7-0.6c0.5-0.4,1-0.6,1.7-0.6h1.2
		c0.6,0,1.2,0.2,1.8,0.7l0.6,0.5l0-0.3c0-0.2,0.1-0.4,0.2-0.6s0.4-0.2,0.6-0.2c0.2,0,0.4,0.1,0.6,0.2s0.2,0.4,0.2,0.6v9.2
		c0,0.7-0.3,1.3-0.8,1.8l-0.7,0.6c-0.2,0.1-0.4,0.3-0.7,0.4S677.9,28.7,677.7,28.7z M676.7,17.3h-1.1c-0.2,0-0.5,0.1-0.7,0.3
		l-0.5,0.4c-0.2,0.2-0.3,0.4-0.3,0.7v2.7c0,0.2,0.1,0.4,0.3,0.6l0.5,0.5c0.2,0.1,0.3,0.2,0.5,0.2h1.3c0.2,0,0.4-0.1,0.6-0.3l1.3-1.1
		c0.2-0.2,0.3-0.4,0.3-0.6v-1.2c0-0.3-0.1-0.5-0.3-0.7l-1.3-1.1C677.3,17.4,677,17.3,676.7,17.3z"/>
	<path d="M688.5,23.5l2.8-1.8v-5.2c0-0.2,0.1-0.4,0.2-0.6s0.4-0.2,0.6-0.2s0.4,0.1,0.6,0.2s0.2,0.4,0.2,0.6v7.8
		c0,0.2-0.1,0.4-0.2,0.6s-0.4,0.2-0.6,0.2s-0.4-0.1-0.6-0.2s-0.2-0.4-0.2-0.6v-0.6l-1.4,0.9c-0.6,0.4-1.1,0.5-1.7,0.5h-0.8
		c-0.7,0-1.2-0.2-1.7-0.7c-0.5-0.5-0.7-1-0.8-1.7l-0.2-6.2c0-0.2,0.1-0.4,0.2-0.6s0.4-0.2,0.6-0.2c0.2,0,0.4,0.1,0.6,0.2
		s0.2,0.4,0.2,0.6l0.2,6.1c0,0.6,0.4,0.9,1,0.9H688.5z"/>
	<path d="M704.9,18.8v2c0,0.2-0.1,0.4-0.2,0.6s-0.4,0.2-0.6,0.2h-5.8v0.5c0,0.3,0.1,0.5,0.4,0.7l0.5,0.4c0.3,0.2,0.5,0.3,0.7,0.3
		h4.2c0.2,0,0.4,0.1,0.6,0.2s0.2,0.4,0.2,0.6c0,0.2-0.1,0.4-0.2,0.6s-0.4,0.2-0.6,0.2h-4.3c-0.3,0-0.6-0.1-0.9-0.2s-0.5-0.2-0.7-0.4
		l-0.7-0.6c-0.2-0.2-0.4-0.4-0.6-0.8s-0.2-0.6-0.2-0.9v-3.8c0-0.2,0.1-0.5,0.2-0.9s0.4-0.6,0.6-0.8l0.7-0.5c0.4-0.4,0.9-0.5,1.5-0.5
		h2.3c0.6,0,1.1,0.2,1.6,0.7l0.6,0.6C704.7,17.4,704.9,18,704.9,18.8z M698.3,18.7v1.3h5v-1.1c0-0.3-0.1-0.5-0.3-0.7l-0.5-0.4
		c-0.2-0.2-0.5-0.3-0.7-0.3h-2.1c-0.3,0-0.5,0.1-0.7,0.3l-0.5,0.4C698.5,18.2,698.3,18.4,698.3,18.7z"/>
	<path d="M38,49.1h-1.6c-0.7,0-1.3-0.2-1.7-0.7s-0.7-1.1-0.7-1.7v-5.3h-0.8c-0.2,0-0.4-0.1-0.6-0.2s-0.2-0.4-0.2-0.6
		c0-0.2,0.1-0.4,0.2-0.6s0.4-0.2,0.6-0.2h0.9v-2c0-0.2,0.1-0.4,0.2-0.6s0.4-0.2,0.6-0.2c0.2,0,0.4,0.1,0.6,0.2s0.2,0.4,0.2,0.6v2
		h3.3c0.2,0,0.4,0.1,0.6,0.2s0.2,0.4,0.2,0.6c0,0.2-0.1,0.4-0.2,0.6s-0.4,0.2-0.6,0.2h-3.3v5.3c0,0.2,0.1,0.4,0.2,0.6
		s0.4,0.2,0.6,0.2H38c0.4,0,0.7-0.2,0.9-0.7s0.4-0.7,0.8-0.7c0.2,0,0.4,0.1,0.6,0.2s0.2,0.4,0.2,0.6c0,0.5-0.2,1-0.7,1.5
		S38.8,49.1,38,49.1z"/>
	<path d="M44.3,48.3V37c0-0.2,0.1-0.4,0.2-0.6s0.4-0.2,0.6-0.2s0.4,0.1,0.6,0.2S46,36.8,46,37v4.1l1.3-0.9c0.6-0.4,1.1-0.6,1.6-0.6
		h1c0.7,0,1.2,0.2,1.7,0.7s0.7,1.1,0.8,1.7l0.2,6.1c0,0.2-0.1,0.4-0.2,0.6s-0.4,0.2-0.6,0.2s-0.4-0.1-0.6-0.2S51,48.5,51,48.3
		l-0.2-6.2c0-0.2-0.1-0.4-0.3-0.6s-0.4-0.2-0.6-0.2H49c-0.2,0-0.4,0.1-0.7,0.2L46,43.1v5.2c0,0.2-0.1,0.4-0.2,0.6s-0.4,0.2-0.6,0.2
		s-0.4-0.1-0.6-0.2S44.3,48.6,44.3,48.3z"/>
	<path d="M64.7,42.8v2c0,0.2-0.1,0.4-0.2,0.6s-0.4,0.2-0.6,0.2h-5.8v0.5c0,0.3,0.1,0.5,0.4,0.7l0.5,0.4c0.3,0.2,0.5,0.3,0.7,0.3h4.2
		c0.2,0,0.4,0.1,0.6,0.2s0.2,0.4,0.2,0.6c0,0.2-0.1,0.4-0.2,0.6s-0.4,0.2-0.6,0.2h-4.3c-0.3,0-0.6-0.1-0.9-0.2s-0.5-0.2-0.7-0.4
		l-0.7-0.6c-0.2-0.2-0.4-0.4-0.6-0.8s-0.2-0.6-0.2-0.9v-3.8c0-0.2,0.1-0.5,0.2-0.9s0.4-0.6,0.6-0.8l0.7-0.5c0.4-0.4,0.9-0.5,1.5-0.5
		h2.3c0.6,0,1.1,0.2,1.6,0.7L64,41C64.5,41.4,64.7,42,64.7,42.8z M58.1,42.7v1.3h5v-1.1c0-0.3-0.1-0.5-0.3-0.7l-0.5-0.4
		c-0.2-0.2-0.5-0.3-0.7-0.3h-2.1c-0.3,0-0.5,0.1-0.7,0.3L58.4,42C58.2,42.2,58.1,42.4,58.1,42.7z"/>
	<path d="M88.9,42.8v2c0,0.2-0.1,0.4-0.2,0.6s-0.4,0.2-0.6,0.2h-5.8v0.5c0,0.3,0.1,0.5,0.4,0.7l0.5,0.4c0.3,0.2,0.5,0.3,0.7,0.3H88
		c0.2,0,0.4,0.1,0.6,0.2s0.2,0.4,0.2,0.6c0,0.2-0.1,0.4-0.2,0.6s-0.4,0.2-0.6,0.2h-4.3c-0.3,0-0.6-0.1-0.9-0.2s-0.5-0.2-0.7-0.4
		l-0.7-0.6c-0.2-0.2-0.4-0.4-0.6-0.8s-0.2-0.6-0.2-0.9v-3.8c0-0.2,0.1-0.5,0.2-0.9s0.4-0.6,0.6-0.8l0.7-0.5c0.4-0.4,0.9-0.5,1.5-0.5
		h2.3c0.6,0,1.1,0.2,1.6,0.7l0.6,0.6C88.6,41.4,88.9,42,88.9,42.8z M82.3,42.7v1.3h5v-1.1c0-0.3-0.1-0.5-0.3-0.7l-0.5-0.4
		c-0.2-0.2-0.5-0.3-0.7-0.3h-2.1c-0.3,0-0.5,0.1-0.7,0.3L82.6,42C82.4,42.2,82.3,42.4,82.3,42.7z"/>
	<path d="M95.1,43.2h3.2c0.2,0,0.4,0,0.8,0.1l0-1.2c0-0.2-0.1-0.4-0.2-0.6s-0.4-0.2-0.6-0.2h-3.1c-0.2,0-0.4-0.1-0.6-0.2
		s-0.2-0.4-0.2-0.6c0-0.2,0.1-0.4,0.2-0.6c0.2-0.2,0.4-0.2,0.6-0.2h3.1c0.7,0,1.3,0.2,1.7,0.7c0.5,0.5,0.7,1.1,0.7,1.7l0.2,6.1
		c0,0.2-0.1,0.4-0.2,0.6s-0.4,0.2-0.6,0.2c-0.2,0-0.4-0.1-0.6-0.2s-0.2-0.4-0.2-0.6l-1.4,0.8h-2.8c-0.7,0-1.3-0.2-1.8-0.7
		s-0.7-1.1-0.7-1.8v-1c0-0.7,0.2-1.3,0.7-1.8S94.4,43.2,95.1,43.2z M99.2,46.4l0-0.7c0-0.2-0.1-0.4-0.2-0.6s-0.3-0.2-0.6-0.2h-3.2
		c-0.2,0-0.4,0.1-0.6,0.2s-0.2,0.4-0.2,0.6v0.9c0,0.2,0.1,0.4,0.2,0.6c0.2,0.2,0.4,0.2,0.6,0.2h2.3L99.2,46.4z"/>
	<path d="M104.8,48.3v-7.8c0-0.2,0.1-0.4,0.2-0.6s0.4-0.2,0.6-0.2s0.4,0.1,0.6,0.2s0.2,0.4,0.2,0.6v1l1.3-1.1
		c0.6-0.5,1.1-0.7,1.6-0.7h1.2c0.7,0,1.3,0.2,1.7,0.7s0.7,1.1,0.7,1.7v0.4c0,0.2-0.1,0.4-0.2,0.6s-0.4,0.2-0.6,0.2s-0.4-0.1-0.6-0.2
		s-0.2-0.4-0.2-0.6v-0.5c0-0.2-0.1-0.4-0.2-0.6s-0.4-0.2-0.6-0.2h-1.1c-0.2,0-0.5,0.1-0.8,0.4l-2.3,2v4.6c0,0.2-0.1,0.4-0.2,0.6
		s-0.4,0.2-0.6,0.2c-0.2,0-0.4-0.1-0.6-0.2S104.8,48.6,104.8,48.3z"/>
	<path d="M122.6,49.1H121c-0.7,0-1.3-0.2-1.7-0.7s-0.7-1.1-0.7-1.7v-5.3h-0.8c-0.2,0-0.4-0.1-0.6-0.2s-0.2-0.4-0.2-0.6
		c0-0.2,0.1-0.4,0.2-0.6s0.4-0.2,0.6-0.2h0.9v-2c0-0.2,0.1-0.4,0.2-0.6s0.4-0.2,0.6-0.2c0.2,0,0.4,0.1,0.6,0.2s0.2,0.4,0.2,0.6v2
		h3.3c0.2,0,0.4,0.1,0.6,0.2s0.2,0.4,0.2,0.6c0,0.2-0.1,0.4-0.2,0.6s-0.4,0.2-0.6,0.2h-3.3v5.3c0,0.2,0.1,0.4,0.2,0.6
		s0.4,0.2,0.6,0.2h1.6c0.4,0,0.7-0.2,0.9-0.7s0.4-0.7,0.8-0.7c0.2,0,0.4,0.1,0.6,0.2s0.2,0.4,0.2,0.6c0,0.5-0.2,1-0.7,1.5
		S123.3,49.1,122.6,49.1z"/>
	<path d="M128.9,48.3V37c0-0.2,0.1-0.4,0.2-0.6s0.4-0.2,0.6-0.2s0.4,0.1,0.6,0.2s0.2,0.4,0.2,0.6v4.1l1.3-0.9
		c0.6-0.4,1.1-0.6,1.6-0.6h1c0.7,0,1.2,0.2,1.7,0.7s0.7,1.1,0.8,1.7l0.2,6.1c0,0.2-0.1,0.4-0.2,0.6s-0.4,0.2-0.6,0.2
		s-0.4-0.1-0.6-0.2s-0.2-0.4-0.2-0.6l-0.2-6.2c0-0.2-0.1-0.4-0.3-0.6s-0.4-0.2-0.6-0.2h-0.9c-0.2,0-0.4,0.1-0.7,0.2l-2.3,1.5v5.2
		c0,0.2-0.1,0.4-0.2,0.6s-0.4,0.2-0.6,0.2s-0.4-0.1-0.6-0.2S128.9,48.6,128.9,48.3z"/>
	<path d="M155.5,43.2h3.2c0.2,0,0.4,0,0.8,0.1l0-1.2c0-0.2-0.1-0.4-0.2-0.6s-0.4-0.2-0.6-0.2h-3.1c-0.2,0-0.4-0.1-0.6-0.2
		s-0.2-0.4-0.2-0.6c0-0.2,0.1-0.4,0.2-0.6c0.2-0.2,0.4-0.2,0.6-0.2h3.1c0.7,0,1.3,0.2,1.7,0.7c0.5,0.5,0.7,1.1,0.7,1.7l0.2,6.1
		c0,0.2-0.1,0.4-0.2,0.6s-0.4,0.2-0.6,0.2c-0.2,0-0.4-0.1-0.6-0.2s-0.2-0.4-0.2-0.6l-1.4,0.8h-2.8c-0.7,0-1.3-0.2-1.8-0.7
		s-0.7-1.1-0.7-1.8v-1c0-0.7,0.2-1.3,0.7-1.8S154.8,43.2,155.5,43.2z M159.6,46.4l0-0.7c0-0.2-0.1-0.4-0.2-0.6s-0.3-0.2-0.6-0.2
		h-3.2c-0.2,0-0.4,0.1-0.6,0.2s-0.2,0.4-0.2,0.6v0.9c0,0.2,0.1,0.4,0.2,0.6c0.2,0.2,0.4,0.2,0.6,0.2h2.3L159.6,46.4z"/>
	<path d="M169,41.6l-2.2,1.5v5.2c0,0.2-0.1,0.4-0.2,0.6s-0.4,0.2-0.6,0.2s-0.4-0.1-0.6-0.2s-0.2-0.4-0.2-0.6v-7.8
		c0-0.2,0.1-0.4,0.2-0.6s0.4-0.2,0.6-0.2c0.2,0,0.4,0.1,0.6,0.2s0.2,0.4,0.2,0.6v0.5l1.5-0.9c0.5-0.3,1.1-0.5,1.7-0.5h0.8
		c0.7,0,1.2,0.2,1.7,0.7c0.5,0.5,0.7,1,0.8,1.7l0.2,6.2c0,0.2-0.1,0.4-0.2,0.6s-0.4,0.2-0.6,0.2c-0.2,0-0.4-0.1-0.6-0.2
		s-0.2-0.3-0.3-0.6l-0.2-6.1c0-0.6-0.3-0.9-0.9-0.9h-0.8C169.6,41.3,169.3,41.4,169,41.6z"/>
	<path d="M183.8,40.9V37c0-0.2,0.1-0.4,0.2-0.6s0.3-0.2,0.6-0.2c0.2,0,0.4,0.1,0.6,0.2s0.2,0.4,0.2,0.6v11.3c0,0.2-0.1,0.4-0.2,0.6
		s-0.4,0.2-0.6,0.2c-0.2,0-0.4-0.1-0.6-0.2s-0.2-0.4-0.2-0.6V48c-0.8,0.8-1.5,1.2-2.2,1.2h-1.4c-0.6,0-1.1-0.2-1.7-0.7l-0.7-0.6
		c-0.2-0.1-0.3-0.4-0.4-0.8s-0.2-0.7-0.2-1v-3.3c0-0.4,0.1-0.7,0.2-1.1s0.3-0.6,0.5-0.8l0.7-0.6c0.5-0.4,1-0.6,1.7-0.6h1.2
		c0.6,0,1.2,0.2,1.8,0.7L183.8,40.9z M181.5,41.4h-1.1c-0.2,0-0.5,0.1-0.7,0.3l-0.5,0.5c-0.2,0.2-0.3,0.4-0.3,0.6v3.5
		c0,0.2,0.1,0.4,0.3,0.6l0.5,0.5c0.2,0.1,0.3,0.2,0.5,0.2h1.3c0.2,0,0.4-0.1,0.6-0.3l1.3-1.1c0.2-0.2,0.3-0.4,0.3-0.7v-1.8
		c0-0.4-0.1-0.7-0.3-0.9l-1.3-1.1C182,41.4,181.8,41.4,181.5,41.4z"/>
	<path d="M209.7,42.1l-4.4,10c-0.1,0.4-0.4,0.5-0.8,0.5h-2.3c-0.2,0-0.4-0.1-0.6-0.2s-0.2-0.4-0.2-0.6c0-0.2,0.1-0.4,0.2-0.6
		s0.4-0.2,0.6-0.2h1.8l1.1-2.6h-0.4c-0.4,0-0.6-0.2-0.8-0.6l-2.5-5.7v-1.6c0-0.2,0.1-0.4,0.2-0.6s0.3-0.2,0.6-0.2
		c0.2,0,0.4,0.1,0.6,0.2s0.2,0.4,0.2,0.6l0,1.2l2.2,5h0.6l2.2-5l0-1.3c0-0.2,0.1-0.4,0.2-0.6c0.2-0.2,0.4-0.2,0.6-0.2
		c0.2,0,0.4,0.1,0.6,0.2s0.2,0.4,0.2,0.6V42.1z"/>
	<path d="M221.7,42.7v3.5c0,0.7-0.3,1.4-1,2s-1.4,0.9-2.1,0.9h-1.9c-0.7,0-1.5-0.3-2.1-1s-1-1.3-1-2v-3.5c0-0.7,0.3-1.4,1-2
		s1.4-1,2.2-1h1.9c0.7,0,1.5,0.3,2.1,0.9S221.7,41.9,221.7,42.7z M215.1,42.7v3.3c0,0.3,0.1,0.5,0.3,0.7l0.6,0.5
		c0.1,0.1,0.3,0.2,0.6,0.2h1.9c0.3,0,0.5-0.1,0.8-0.3l0.5-0.4c0.2-0.2,0.3-0.4,0.3-0.7v-3.3c0-0.3-0.1-0.6-0.3-0.7l-0.6-0.5
		c-0.2-0.2-0.4-0.2-0.7-0.2h-1.7c-0.4,0-0.7,0.1-0.9,0.3l-0.6,0.5C215.2,42.3,215.1,42.5,215.1,42.7z"/>
	<path d="M229.5,47.5l2.8-1.8v-5.2c0-0.2,0.1-0.4,0.2-0.6s0.4-0.2,0.6-0.2s0.4,0.1,0.6,0.2s0.2,0.4,0.2,0.6v7.8
		c0,0.2-0.1,0.4-0.2,0.6s-0.4,0.2-0.6,0.2s-0.4-0.1-0.6-0.2s-0.2-0.4-0.2-0.6v-0.6l-1.4,0.9c-0.6,0.4-1.1,0.5-1.7,0.5h-0.8
		c-0.7,0-1.2-0.2-1.7-0.7c-0.5-0.5-0.7-1-0.8-1.7l-0.2-6.2c0-0.2,0.1-0.4,0.2-0.6s0.4-0.2,0.6-0.2c0.2,0,0.4,0.1,0.6,0.2
		s0.2,0.4,0.2,0.6l0.2,6.1c0,0.6,0.4,0.9,1,0.9H229.5z"/>
	<path d="M252,39.7h3.8c0.6,0,1.1,0.2,1.6,0.5s0.7,0.7,0.7,1c0,0.2-0.1,0.4-0.2,0.6s-0.4,0.2-0.6,0.2c-0.3,0-0.5-0.1-0.7-0.4
		s-0.4-0.4-0.7-0.4h-3.7c-0.4,0-0.5,0.2-0.5,0.5c0,0.2,0.1,0.4,0.4,0.5l4.4,1.9c0.4,0.2,0.8,0.5,1.1,0.9s0.4,0.9,0.4,1.4
		c0,0.7-0.2,1.3-0.7,1.8s-1.1,0.7-1.7,0.7H252c-0.6,0-1.1-0.2-1.6-0.5s-0.7-0.7-0.7-1c0-0.2,0.1-0.4,0.2-0.6s0.4-0.2,0.6-0.2
		c0.2,0,0.4,0.1,0.7,0.4s0.6,0.4,1,0.4h3.1c0.2,0,0.4-0.1,0.6-0.3s0.2-0.4,0.2-0.6c0-0.4-0.2-0.6-0.5-0.8l-4.4-2
		c-0.4-0.2-0.7-0.5-1-0.8s-0.3-0.7-0.3-1.1c0-0.6,0.2-1.1,0.6-1.5S251.4,39.7,252,39.7z"/>
	<path d="M267.6,49.1h-1.6c-0.7,0-1.3-0.2-1.7-0.7s-0.7-1.1-0.7-1.7v-5.3h-0.8c-0.2,0-0.4-0.1-0.6-0.2s-0.2-0.4-0.2-0.6
		c0-0.2,0.1-0.4,0.2-0.6s0.4-0.2,0.6-0.2h0.9v-2c0-0.2,0.1-0.4,0.2-0.6s0.4-0.2,0.6-0.2c0.2,0,0.4,0.1,0.6,0.2s0.2,0.4,0.2,0.6v2
		h3.3c0.2,0,0.4,0.1,0.6,0.2s0.2,0.4,0.2,0.6c0,0.2-0.1,0.4-0.2,0.6s-0.4,0.2-0.6,0.2h-3.3v5.3c0,0.2,0.1,0.4,0.2,0.6
		s0.4,0.2,0.6,0.2h1.6c0.4,0,0.7-0.2,0.9-0.7s0.4-0.7,0.8-0.7c0.2,0,0.4,0.1,0.6,0.2s0.2,0.4,0.2,0.6c0,0.5-0.2,1-0.7,1.5
		S268.3,49.1,267.6,49.1z"/>
	<path d="M280.5,49.1h-5c-0.2,0-0.4-0.1-0.6-0.2s-0.2-0.4-0.2-0.6c0-0.2,0.1-0.4,0.2-0.6s0.4-0.2,0.6-0.2h1.7v-6.1h-1.7
		c-0.2,0-0.4-0.1-0.6-0.2s-0.2-0.4-0.2-0.6c0-0.2,0.1-0.4,0.2-0.6s0.4-0.2,0.6-0.2h2.5c0.2,0,0.4,0.1,0.6,0.2s0.2,0.4,0.2,0.6v6.9
		h1.6c0.2,0,0.4,0.1,0.6,0.2s0.2,0.4,0.2,0.6s-0.1,0.4-0.2,0.6S280.7,49.1,280.5,49.1z M277.2,35.4h0.9c0.2,0,0.4,0.1,0.6,0.2
		s0.2,0.4,0.2,0.6V37c0,0.2-0.1,0.4-0.2,0.6s-0.4,0.2-0.6,0.2h-0.9c-0.2,0-0.4-0.1-0.6-0.3s-0.2-0.4-0.2-0.6l0-0.7
		c0-0.2,0.1-0.4,0.2-0.6S276.9,35.4,277.2,35.4z"/>
	<path d="M292.6,49.1h-5c-0.2,0-0.4-0.1-0.6-0.2s-0.2-0.4-0.2-0.6c0-0.2,0.1-0.4,0.2-0.6s0.4-0.2,0.6-0.2h1.6v-9.7h-1.7
		c-0.2,0-0.4-0.1-0.6-0.2s-0.2-0.4-0.2-0.6s0.1-0.4,0.2-0.6s0.4-0.2,0.6-0.2h2.5c0.2,0,0.4,0.1,0.6,0.2s0.2,0.4,0.2,0.6v10.5h1.7
		c0.2,0,0.4,0.1,0.6,0.2s0.2,0.4,0.2,0.6c0,0.2-0.1,0.4-0.2,0.6S292.8,49.1,292.6,49.1z"/>
	<path d="M304.7,49.1h-5c-0.2,0-0.4-0.1-0.6-0.2s-0.2-0.4-0.2-0.6c0-0.2,0.1-0.4,0.2-0.6s0.4-0.2,0.6-0.2h1.6v-9.7h-1.7
		c-0.2,0-0.4-0.1-0.6-0.2s-0.2-0.4-0.2-0.6s0.1-0.4,0.2-0.6s0.4-0.2,0.6-0.2h2.5c0.2,0,0.4,0.1,0.6,0.2s0.2,0.4,0.2,0.6v10.5h1.7
		c0.2,0,0.4,0.1,0.6,0.2s0.2,0.4,0.2,0.6c0,0.2-0.1,0.4-0.2,0.6S304.9,49.1,304.7,49.1z"/>
	<path d="M327.2,43.4v1.9l1.1,1.9l0.6-1.9l0.2-4.8c0-0.2,0.1-0.4,0.3-0.6s0.3-0.2,0.6-0.2c0.2,0,0.4,0.1,0.6,0.2s0.2,0.4,0.2,0.6
		l-0.2,5.1l-0.9,2.9c-0.1,0.4-0.4,0.6-0.8,0.6h-0.9c-0.3,0-0.5-0.2-0.7-0.5l-0.9-1.5l-0.9,1.5c-0.2,0.3-0.4,0.5-0.7,0.5h-0.9
		c-0.2,0-0.4-0.1-0.5-0.2c-0.2-0.1-0.2-0.2-0.3-0.4l-0.9-3l-0.2-5c0-0.2,0.1-0.4,0.2-0.6s0.4-0.2,0.6-0.2c0.2,0,0.4,0.1,0.6,0.2
		s0.2,0.4,0.2,0.6l0.2,4.8l0.5,1.8l1.1-1.9v-1.9c0-0.2,0.1-0.4,0.2-0.6s0.4-0.2,0.6-0.2c0.2,0,0.4,0.1,0.6,0.2
		S327.2,43.1,327.2,43.4z"/>
	<path d="M342.5,42.7v3.5c0,0.7-0.3,1.4-1,2s-1.4,0.9-2.1,0.9h-1.9c-0.7,0-1.5-0.3-2.1-1s-1-1.3-1-2v-3.5c0-0.7,0.3-1.4,1-2
		s1.4-1,2.2-1h1.9c0.7,0,1.5,0.3,2.1,0.9S342.5,41.9,342.5,42.7z M335.9,42.7v3.3c0,0.3,0.1,0.5,0.3,0.7l0.6,0.5
		c0.1,0.1,0.3,0.2,0.6,0.2h1.9c0.3,0,0.5-0.1,0.8-0.3l0.5-0.4c0.2-0.2,0.3-0.4,0.3-0.7v-3.3c0-0.3-0.1-0.6-0.3-0.7l-0.6-0.5
		c-0.2-0.2-0.4-0.2-0.7-0.2h-1.7c-0.4,0-0.7,0.1-0.9,0.3l-0.6,0.5C336,42.3,335.9,42.5,335.9,42.7z"/>
	<path d="M350.3,47.5l2.8-1.8v-5.2c0-0.2,0.1-0.4,0.2-0.6s0.4-0.2,0.6-0.2s0.4,0.1,0.6,0.2s0.2,0.4,0.2,0.6v7.8
		c0,0.2-0.1,0.4-0.2,0.6s-0.4,0.2-0.6,0.2s-0.4-0.1-0.6-0.2s-0.2-0.4-0.2-0.6v-0.6l-1.4,0.9c-0.6,0.4-1.1,0.5-1.7,0.5h-0.8
		c-0.7,0-1.2-0.2-1.7-0.7c-0.5-0.5-0.7-1-0.8-1.7l-0.2-6.2c0-0.2,0.1-0.4,0.2-0.6s0.4-0.2,0.6-0.2c0.2,0,0.4,0.1,0.6,0.2
		s0.2,0.4,0.2,0.6l0.2,6.1c0,0.6,0.4,0.9,1,0.9H350.3z"/>
	<path d="M365.1,49.1h-5c-0.2,0-0.4-0.1-0.6-0.2s-0.2-0.4-0.2-0.6c0-0.2,0.1-0.4,0.2-0.6s0.4-0.2,0.6-0.2h1.6v-9.7h-1.7
		c-0.2,0-0.4-0.1-0.6-0.2s-0.2-0.4-0.2-0.6s0.1-0.4,0.2-0.6s0.4-0.2,0.6-0.2h2.5c0.2,0,0.4,0.1,0.6,0.2s0.2,0.4,0.2,0.6v10.5h1.7
		c0.2,0,0.4,0.1,0.6,0.2s0.2,0.4,0.2,0.6c0,0.2-0.1,0.4-0.2,0.6S365.3,49.1,365.1,49.1z"/>
	<path d="M377.1,40.9V37c0-0.2,0.1-0.4,0.2-0.6s0.3-0.2,0.6-0.2c0.2,0,0.4,0.1,0.6,0.2s0.2,0.4,0.2,0.6v11.3c0,0.2-0.1,0.4-0.2,0.6
		s-0.4,0.2-0.6,0.2c-0.2,0-0.4-0.1-0.6-0.2s-0.2-0.4-0.2-0.6V48c-0.8,0.8-1.5,1.2-2.2,1.2h-1.4c-0.6,0-1.1-0.2-1.7-0.7l-0.7-0.6
		c-0.2-0.1-0.3-0.4-0.4-0.8s-0.2-0.7-0.2-1v-3.3c0-0.4,0.1-0.7,0.2-1.1s0.3-0.6,0.5-0.8l0.7-0.6c0.5-0.4,1-0.6,1.7-0.6h1.2
		c0.6,0,1.2,0.2,1.8,0.7L377.1,40.9z M374.7,41.4h-1.1c-0.2,0-0.5,0.1-0.7,0.3l-0.5,0.5c-0.2,0.2-0.3,0.4-0.3,0.6v3.5
		c0,0.2,0.1,0.4,0.3,0.6l0.5,0.5c0.2,0.1,0.3,0.2,0.5,0.2h1.3c0.2,0,0.4-0.1,0.6-0.3l1.3-1.1c0.2-0.2,0.3-0.4,0.3-0.7v-1.8
		c0-0.4-0.1-0.7-0.3-0.9l-1.3-1.1C375.3,41.4,375,41.4,374.7,41.4z"/>
	<path d="M386.5,41.6l-2.2,1.5v5.2c0,0.2-0.1,0.4-0.2,0.6s-0.4,0.2-0.6,0.2s-0.4-0.1-0.6-0.2s-0.2-0.4-0.2-0.6v-7.8
		c0-0.2,0.1-0.4,0.2-0.6s0.4-0.2,0.6-0.2c0.2,0,0.4,0.1,0.6,0.2s0.2,0.4,0.2,0.6v0.5l1.5-0.9c0.5-0.3,1.1-0.5,1.7-0.5h0.8
		c0.7,0,1.2,0.2,1.7,0.7c0.5,0.5,0.7,1,0.8,1.7l0.2,6.2c0,0.2-0.1,0.4-0.2,0.6s-0.4,0.2-0.6,0.2c-0.2,0-0.4-0.1-0.6-0.2
		s-0.2-0.3-0.3-0.6l-0.2-6.1c0-0.6-0.3-0.9-0.9-0.9h-0.8C387,41.3,386.8,41.4,386.5,41.6z"/>
	<path d="M400.4,49.1h-1.6c-0.7,0-1.3-0.2-1.7-0.7s-0.7-1.1-0.7-1.7v-5.3h-0.8c-0.2,0-0.4-0.1-0.6-0.2c-0.2-0.2-0.2-0.4-0.2-0.6
		c0-0.2,0.1-0.4,0.2-0.6c0.2-0.2,0.4-0.2,0.6-0.2h0.9v-2c0-0.2,0.1-0.4,0.2-0.6c0.2-0.2,0.4-0.2,0.6-0.2c0.2,0,0.4,0.1,0.6,0.2
		s0.3,0.4,0.3,0.6v2h3.3c0.2,0,0.4,0.1,0.6,0.2c0.2,0.2,0.2,0.4,0.2,0.6c0,0.2-0.1,0.4-0.2,0.6c-0.2,0.2-0.4,0.2-0.6,0.2H398v5.3
		c0,0.2,0.1,0.4,0.2,0.6s0.4,0.2,0.6,0.2h1.6c0.4,0,0.7-0.2,0.9-0.7c0.1-0.5,0.4-0.7,0.8-0.7c0.2,0,0.4,0.1,0.6,0.2
		c0.2,0.2,0.2,0.4,0.2,0.6c0,0.5-0.2,1-0.7,1.5C401.8,48.9,401.2,49.1,400.4,49.1z"/>
	<path d="M420.5,37v3.9l0.7-0.6c0.5-0.4,0.9-0.6,1.4-0.6h1.5c0.6,0,1,0.2,1.5,0.6l0.8,0.7c0.2,0.2,0.4,0.5,0.5,0.8s0.2,0.7,0.2,1
		v3.3c0,0.3-0.1,0.6-0.2,0.9s-0.3,0.6-0.4,0.7l-0.7,0.7c-0.2,0.2-0.4,0.3-0.8,0.5s-0.6,0.2-0.9,0.2h-1.4c-0.7,0-1.4-0.4-2.2-1.1v0.3
		c0,0.2-0.1,0.4-0.2,0.6s-0.4,0.2-0.6,0.2s-0.4-0.1-0.6-0.2s-0.2-0.4-0.2-0.6V37c0-0.2,0.1-0.4,0.2-0.6s0.4-0.2,0.6-0.2
		c0.2,0,0.4,0.1,0.6,0.2S420.5,36.8,420.5,37z M424,41.4h-1.1c-0.3,0-0.5,0.1-0.6,0.2l-1.5,1.3c-0.2,0.2-0.3,0.4-0.3,0.8v1.9
		c0,0.3,0.1,0.5,0.3,0.7l1.3,1.1c0.2,0.2,0.4,0.3,0.6,0.3h1.3c0.2,0,0.4-0.1,0.5-0.2l0.7-0.6c0.2-0.1,0.3-0.3,0.3-0.6v-3.5
		c0-0.3-0.1-0.5-0.3-0.6l-0.6-0.5C424.5,41.4,424.3,41.4,424,41.4z"/>
	<path d="M439.2,42.8v2c0,0.2-0.1,0.4-0.2,0.6s-0.4,0.2-0.6,0.2h-5.8v0.5c0,0.3,0.1,0.5,0.4,0.7l0.5,0.4c0.3,0.2,0.5,0.3,0.7,0.3
		h4.2c0.2,0,0.4,0.1,0.6,0.2s0.2,0.4,0.2,0.6c0,0.2-0.1,0.4-0.2,0.6s-0.4,0.2-0.6,0.2H434c-0.3,0-0.6-0.1-0.9-0.2s-0.5-0.2-0.7-0.4
		l-0.7-0.6c-0.2-0.2-0.4-0.4-0.6-0.8s-0.2-0.6-0.2-0.9v-3.8c0-0.2,0.1-0.5,0.2-0.9s0.4-0.6,0.6-0.8l0.7-0.5c0.4-0.4,0.9-0.5,1.5-0.5
		h2.3c0.6,0,1.1,0.2,1.6,0.7l0.6,0.6C439,41.4,439.2,42,439.2,42.8z M432.6,42.7v1.3h5v-1.1c0-0.3-0.1-0.5-0.3-0.7l-0.5-0.4
		c-0.2-0.2-0.5-0.3-0.7-0.3h-2.1c-0.3,0-0.5,0.1-0.7,0.3l-0.5,0.4C432.7,42.2,432.6,42.4,432.6,42.7z"/>
	<path d="M460,43.4v1.9l1.1,1.9l0.6-1.9l0.2-4.8c0-0.2,0.1-0.4,0.3-0.6s0.3-0.2,0.6-0.2c0.2,0,0.4,0.1,0.6,0.2s0.2,0.4,0.2,0.6
		l-0.2,5.1l-0.9,2.9c-0.1,0.4-0.4,0.6-0.8,0.6h-0.9c-0.3,0-0.5-0.2-0.7-0.5l-0.9-1.5l-0.9,1.5c-0.2,0.3-0.4,0.5-0.7,0.5h-0.9
		c-0.2,0-0.4-0.1-0.5-0.2s-0.2-0.2-0.3-0.4l-0.9-3l-0.2-5c0-0.2,0.1-0.4,0.2-0.6s0.4-0.2,0.6-0.2c0.2,0,0.4,0.1,0.6,0.2
		s0.2,0.4,0.2,0.6l0.2,4.8l0.5,1.8l1.1-1.9v-1.9c0-0.2,0.1-0.4,0.2-0.6s0.4-0.2,0.6-0.2c0.2,0,0.4,0.1,0.6,0.2S460,43.1,460,43.4z"
		/>
	<path d="M475.4,42.7v3.5c0,0.7-0.3,1.4-1,2s-1.4,0.9-2.1,0.9h-1.9c-0.7,0-1.5-0.3-2.1-1s-1-1.3-1-2v-3.5c0-0.7,0.3-1.4,1-2
		s1.4-1,2.2-1h1.9c0.7,0,1.5,0.3,2.1,0.9S475.4,41.9,475.4,42.7z M468.8,42.7v3.3c0,0.3,0.1,0.5,0.3,0.7l0.6,0.5
		c0.1,0.1,0.3,0.2,0.6,0.2h1.9c0.3,0,0.5-0.1,0.8-0.3l0.5-0.4c0.2-0.2,0.3-0.4,0.3-0.7v-3.3c0-0.3-0.1-0.6-0.3-0.7l-0.6-0.5
		c-0.2-0.2-0.4-0.2-0.7-0.2h-1.7c-0.4,0-0.7,0.1-0.9,0.3l-0.6,0.5C468.9,42.3,468.8,42.5,468.8,42.7z"/>
	<path d="M479.2,48.3v-7.8c0-0.2,0.1-0.4,0.2-0.6s0.4-0.2,0.6-0.2s0.4,0.1,0.6,0.2s0.2,0.4,0.2,0.6v1l1.3-1.1
		c0.6-0.5,1.1-0.7,1.6-0.7h1.2c0.7,0,1.3,0.2,1.7,0.7s0.7,1.1,0.7,1.7v0.4c0,0.2-0.1,0.4-0.2,0.6s-0.4,0.2-0.6,0.2s-0.4-0.1-0.6-0.2
		s-0.2-0.4-0.2-0.6v-0.5c0-0.2-0.1-0.4-0.2-0.6s-0.4-0.2-0.6-0.2H484c-0.2,0-0.5,0.1-0.8,0.4l-2.3,2v4.6c0,0.2-0.1,0.4-0.2,0.6
		s-0.4,0.2-0.6,0.2c-0.2,0-0.4-0.1-0.6-0.2S479.2,48.6,479.2,48.3z"/>
	<path d="M497.1,49.1h-1.6c-0.7,0-1.3-0.2-1.7-0.7s-0.7-1.1-0.7-1.7v-5.3h-0.8c-0.2,0-0.4-0.1-0.6-0.2s-0.2-0.4-0.2-0.6
		c0-0.2,0.1-0.4,0.2-0.6s0.4-0.2,0.6-0.2h0.9v-2c0-0.2,0.1-0.4,0.2-0.6s0.4-0.2,0.6-0.2c0.2,0,0.4,0.1,0.6,0.2s0.2,0.4,0.2,0.6v2
		h3.3c0.2,0,0.4,0.1,0.6,0.2s0.2,0.4,0.2,0.6c0,0.2-0.1,0.4-0.2,0.6s-0.4,0.2-0.6,0.2h-3.3v5.3c0,0.2,0.1,0.4,0.2,0.6
		s0.4,0.2,0.6,0.2h1.6c0.4,0,0.7-0.2,0.9-0.7s0.4-0.7,0.8-0.7c0.2,0,0.4,0.1,0.6,0.2s0.2,0.4,0.2,0.6c0,0.5-0.2,1-0.7,1.5
		S497.8,49.1,497.1,49.1z"/>
	<path d="M503.4,48.3V37c0-0.2,0.1-0.4,0.2-0.6s0.4-0.2,0.6-0.2s0.4,0.1,0.6,0.2s0.2,0.4,0.2,0.6v4.1l1.3-0.9
		c0.6-0.4,1.1-0.6,1.6-0.6h1c0.7,0,1.2,0.2,1.7,0.7s0.7,1.1,0.8,1.7l0.2,6.1c0,0.2-0.1,0.4-0.2,0.6s-0.4,0.2-0.6,0.2
		s-0.4-0.1-0.6-0.2s-0.2-0.4-0.2-0.6l-0.2-6.2c0-0.2-0.1-0.4-0.3-0.6s-0.4-0.2-0.6-0.2H508c-0.2,0-0.4,0.1-0.7,0.2l-2.3,1.5v5.2
		c0,0.2-0.1,0.4-0.2,0.6s-0.4,0.2-0.6,0.2s-0.4-0.1-0.6-0.2S503.4,48.6,503.4,48.3z"/>
	<path d="M523.8,42.1l-4.4,10c-0.2,0.4-0.4,0.5-0.8,0.5h-2.3c-0.2,0-0.4-0.1-0.6-0.2s-0.2-0.4-0.2-0.6c0-0.2,0.1-0.4,0.2-0.6
		s0.4-0.2,0.6-0.2h1.8l1.1-2.6h-0.4c-0.4,0-0.6-0.2-0.8-0.6l-2.5-5.7v-1.6c0-0.2,0.1-0.4,0.2-0.6s0.3-0.2,0.6-0.2
		c0.2,0,0.4,0.1,0.6,0.2s0.2,0.4,0.2,0.6v1.2l2.2,5h0.6l2.2-5l0-1.3c0-0.2,0.1-0.4,0.2-0.6c0.2-0.2,0.4-0.2,0.6-0.2
		c0.2,0,0.4,0.1,0.6,0.2s0.2,0.4,0.2,0.6V42.1z"/>
	<path d="M547.9,42.7v3.5c0,0.7-0.3,1.4-1,2s-1.4,0.9-2.1,0.9h-1.9c-0.7,0-1.5-0.3-2.1-1s-1-1.3-1-2v-3.5c0-0.7,0.3-1.4,1-2
		s1.4-1,2.2-1h1.9c0.7,0,1.5,0.3,2.1,0.9S547.9,41.9,547.9,42.7z M541.3,42.7v3.3c0,0.3,0.1,0.5,0.3,0.7l0.6,0.5
		c0.1,0.1,0.3,0.2,0.6,0.2h1.9c0.3,0,0.5-0.1,0.8-0.3l0.5-0.4c0.2-0.2,0.3-0.4,0.3-0.7v-3.3c0-0.3-0.1-0.6-0.3-0.7l-0.6-0.5
		c-0.2-0.2-0.4-0.2-0.7-0.2H543c-0.4,0-0.7,0.1-0.9,0.3l-0.6,0.5C541.4,42.3,541.3,42.5,541.3,42.7z"/>
	<path d="M555.5,41.4v7c0,0.2-0.1,0.4-0.2,0.6s-0.4,0.2-0.6,0.2c-0.2,0-0.4-0.1-0.6-0.2s-0.2-0.4-0.2-0.6v-7H553
		c-0.2,0-0.4-0.1-0.6-0.2s-0.2-0.4-0.2-0.6c0-0.2,0.1-0.4,0.2-0.6s0.3-0.2,0.6-0.2h0.9v-0.6c0-0.8,0.3-1.5,0.9-2.1s1.3-0.8,2.2-0.8
		h1.9c0.2,0,0.4,0.1,0.6,0.2s0.2,0.4,0.2,0.6c0,0.2-0.1,0.4-0.2,0.6s-0.4,0.2-0.6,0.2h-1.9c-0.4,0-0.7,0.1-1,0.4s-0.4,0.5-0.4,0.9
		v0.6h1.6c0.2,0,0.4,0.1,0.6,0.2s0.2,0.4,0.2,0.6c0,0.2-0.1,0.4-0.2,0.6s-0.4,0.2-0.6,0.2H555.5z"/>
	<path d="M575.7,48.3v-7.8c0-0.2,0.1-0.4,0.2-0.6s0.4-0.2,0.6-0.2c0.4,0,0.7,0.2,0.8,0.6c0.5-0.4,1-0.6,1.5-0.6
		c0.7,0,1.2,0.3,1.6,0.8c0.5-0.6,1.1-0.8,1.7-0.8c0.5,0,0.9,0.2,1.3,0.5s0.6,0.8,0.6,1.4l0.2,6.7c0,0.2-0.1,0.4-0.2,0.6
		s-0.4,0.2-0.6,0.2c-0.2,0-0.4-0.1-0.6-0.2s-0.2-0.4-0.3-0.6l-0.2-6.4c0-0.4-0.1-0.5-0.3-0.5c-0.1,0-0.2,0-0.3,0.1l-1,0.8v6
		c0,0.2-0.1,0.4-0.2,0.6s-0.4,0.2-0.6,0.2c-0.2,0-0.4-0.1-0.6-0.2s-0.2-0.4-0.2-0.6v-6.5c0-0.3-0.1-0.4-0.4-0.4
		c-0.1,0-0.2,0-0.3,0.1l-1.2,1v5.8c0,0.2-0.1,0.4-0.2,0.6s-0.3,0.2-0.6,0.2c-0.2,0-0.4-0.1-0.6-0.2S575.7,48.5,575.7,48.3z"/>
	<path d="M596.2,42.1l-4.4,10c-0.2,0.4-0.4,0.5-0.8,0.5h-2.3c-0.2,0-0.4-0.1-0.6-0.2s-0.2-0.4-0.2-0.6c0-0.2,0.1-0.4,0.2-0.6
		s0.4-0.2,0.6-0.2h1.8l1.1-2.6h-0.4c-0.4,0-0.6-0.2-0.8-0.6l-2.5-5.7v-1.6c0-0.2,0.1-0.4,0.2-0.6s0.3-0.2,0.6-0.2
		c0.2,0,0.4,0.1,0.6,0.2s0.2,0.4,0.2,0.6v1.2l2.2,5h0.6l2.2-5l0-1.3c0-0.2,0.1-0.4,0.2-0.6c0.2-0.2,0.4-0.2,0.6-0.2
		c0.2,0,0.4,0.1,0.6,0.2s0.2,0.4,0.2,0.6V42.1z"/>
	<path d="M614.6,43.2h3.2c0.2,0,0.4,0,0.8,0.1l0-1.2c0-0.2-0.1-0.4-0.2-0.6c-0.2-0.2-0.4-0.2-0.6-0.2h-3.1c-0.2,0-0.4-0.1-0.6-0.2
		c-0.2-0.2-0.2-0.4-0.2-0.6c0-0.2,0.1-0.4,0.2-0.6c0.2-0.2,0.4-0.2,0.6-0.2h3.1c0.7,0,1.3,0.2,1.7,0.7s0.7,1.1,0.7,1.7l0.2,6.1
		c0,0.2-0.1,0.4-0.2,0.6s-0.4,0.2-0.6,0.2c-0.2,0-0.4-0.1-0.6-0.2s-0.2-0.4-0.2-0.6l-1.4,0.8h-2.8c-0.7,0-1.3-0.2-1.8-0.7
		s-0.7-1.1-0.7-1.8v-1c0-0.7,0.2-1.3,0.7-1.8S613.9,43.2,614.6,43.2z M618.7,46.4l0-0.7c0-0.2-0.1-0.4-0.2-0.6
		c-0.2-0.2-0.3-0.2-0.6-0.2h-3.2c-0.2,0-0.4,0.1-0.6,0.2c-0.2,0.2-0.2,0.4-0.2,0.6v0.9c0,0.2,0.1,0.4,0.2,0.6s0.4,0.2,0.6,0.2h2.3
		L618.7,46.4z"/>
	<path d="M630,49.1h-1.6c-0.7,0-1.3-0.2-1.7-0.7s-0.7-1.1-0.7-1.7v-5.3H625c-0.2,0-0.4-0.1-0.6-0.2s-0.2-0.4-0.2-0.6
		c0-0.2,0.1-0.4,0.2-0.6s0.4-0.2,0.6-0.2h0.9v-2c0-0.2,0.1-0.4,0.2-0.6s0.4-0.2,0.6-0.2c0.2,0,0.4,0.1,0.6,0.2s0.2,0.4,0.2,0.6v2
		h3.3c0.2,0,0.4,0.1,0.6,0.2s0.2,0.4,0.2,0.6c0,0.2-0.1,0.4-0.2,0.6s-0.4,0.2-0.6,0.2h-3.3v5.3c0,0.2,0.1,0.4,0.2,0.6
		s0.4,0.2,0.6,0.2h1.6c0.4,0,0.7-0.2,0.9-0.7s0.4-0.7,0.8-0.7c0.2,0,0.4,0.1,0.6,0.2s0.2,0.4,0.2,0.6c0,0.5-0.2,1-0.7,1.5
		S630.7,49.1,630,49.1z"/>
	<path d="M642,49.1h-1.6c-0.7,0-1.3-0.2-1.7-0.7s-0.7-1.1-0.7-1.7v-5.3h-0.8c-0.2,0-0.4-0.1-0.6-0.2s-0.2-0.4-0.2-0.6
		c0-0.2,0.1-0.4,0.2-0.6s0.4-0.2,0.6-0.2h0.9v-2c0-0.2,0.1-0.4,0.2-0.6s0.4-0.2,0.6-0.2c0.2,0,0.4,0.1,0.6,0.2s0.2,0.4,0.2,0.6v2
		h3.3c0.2,0,0.4,0.1,0.6,0.2s0.2,0.4,0.2,0.6c0,0.2-0.1,0.4-0.2,0.6s-0.4,0.2-0.6,0.2h-3.3v5.3c0,0.2,0.1,0.4,0.2,0.6
		s0.4,0.2,0.6,0.2h1.6c0.4,0,0.7-0.2,0.9-0.7s0.4-0.7,0.8-0.7c0.2,0,0.4,0.1,0.6,0.2s0.2,0.4,0.2,0.6c0,0.5-0.2,1-0.7,1.5
		S642.8,49.1,642,49.1z"/>
	<path d="M656.6,42.8v2c0,0.2-0.1,0.4-0.2,0.6s-0.4,0.2-0.6,0.2H650v0.5c0,0.3,0.1,0.5,0.4,0.7l0.5,0.4c0.3,0.2,0.5,0.3,0.7,0.3h4.2
		c0.2,0,0.4,0.1,0.6,0.2s0.2,0.4,0.2,0.6c0,0.2-0.1,0.4-0.2,0.6s-0.4,0.2-0.6,0.2h-4.3c-0.3,0-0.6-0.1-0.9-0.2s-0.5-0.2-0.7-0.4
		l-0.7-0.6c-0.2-0.2-0.4-0.4-0.6-0.8s-0.2-0.6-0.2-0.9v-3.8c0-0.2,0.1-0.5,0.2-0.9s0.4-0.6,0.6-0.8l0.7-0.5c0.4-0.4,0.9-0.5,1.5-0.5
		h2.3c0.6,0,1.1,0.2,1.6,0.7L656,41C656.4,41.4,656.6,42,656.6,42.8z M650,42.7v1.3h5v-1.1c0-0.3-0.1-0.5-0.3-0.7l-0.5-0.4
		c-0.2-0.2-0.5-0.3-0.7-0.3h-2.1c-0.3,0-0.5,0.1-0.7,0.3l-0.5,0.4C650.1,42.2,650,42.4,650,42.7z"/>
	<path d="M664.3,41.6l-2.2,1.5v5.2c0,0.2-0.1,0.4-0.2,0.6s-0.4,0.2-0.6,0.2s-0.4-0.1-0.6-0.2s-0.2-0.4-0.2-0.6v-7.8
		c0-0.2,0.1-0.4,0.2-0.6s0.4-0.2,0.6-0.2c0.2,0,0.4,0.1,0.6,0.2s0.2,0.4,0.2,0.6v0.5l1.5-0.9c0.5-0.3,1.1-0.5,1.7-0.5h0.8
		c0.7,0,1.2,0.2,1.7,0.7s0.7,1,0.8,1.7l0.2,6.2c0,0.2-0.1,0.4-0.2,0.6s-0.4,0.2-0.6,0.2c-0.2,0-0.4-0.1-0.6-0.2s-0.2-0.3-0.3-0.6
		l-0.2-6.1c0-0.6-0.3-0.9-0.9-0.9h-0.8C664.9,41.3,664.6,41.4,664.3,41.6z"/>
	<path d="M678.3,49.1h-1.6c-0.7,0-1.3-0.2-1.7-0.7s-0.7-1.1-0.7-1.7v-5.3h-0.8c-0.2,0-0.4-0.1-0.6-0.2s-0.2-0.4-0.2-0.6
		c0-0.2,0.1-0.4,0.2-0.6s0.4-0.2,0.6-0.2h0.9v-2c0-0.2,0.1-0.4,0.2-0.6s0.4-0.2,0.6-0.2c0.2,0,0.4,0.1,0.6,0.2s0.2,0.4,0.2,0.6v2
		h3.3c0.2,0,0.4,0.1,0.6,0.2s0.2,0.4,0.2,0.6c0,0.2-0.1,0.4-0.2,0.6s-0.4,0.2-0.6,0.2h-3.3v5.3c0,0.2,0.1,0.4,0.2,0.6
		s0.4,0.2,0.6,0.2h1.6c0.4,0,0.7-0.2,0.9-0.7s0.4-0.7,0.8-0.7c0.2,0,0.4,0.1,0.6,0.2s0.2,0.4,0.2,0.6c0,0.5-0.2,1-0.7,1.5
		S679,49.1,678.3,49.1z"/>
	<path d="M691.2,49.1h-5c-0.2,0-0.4-0.1-0.6-0.2s-0.2-0.4-0.2-0.6c0-0.2,0.1-0.4,0.2-0.6s0.4-0.2,0.6-0.2h1.7v-6.1h-1.7
		c-0.2,0-0.4-0.1-0.6-0.2s-0.2-0.4-0.2-0.6c0-0.2,0.1-0.4,0.2-0.6s0.4-0.2,0.6-0.2h2.5c0.2,0,0.4,0.1,0.6,0.2s0.2,0.4,0.2,0.6v6.9
		h1.6c0.2,0,0.4,0.1,0.6,0.2s0.2,0.4,0.2,0.6s-0.1,0.4-0.2,0.6S691.4,49.1,691.2,49.1z M687.9,35.4h0.9c0.2,0,0.4,0.1,0.6,0.2
		s0.2,0.4,0.2,0.6V37c0,0.2-0.1,0.4-0.2,0.6s-0.4,0.2-0.6,0.2h-0.9c-0.2,0-0.4-0.1-0.6-0.3S687,37.2,687,37l0-0.7
		c0-0.2,0.1-0.4,0.2-0.6S687.7,35.4,687.9,35.4z"/>
	<path d="M704.9,42.7v3.5c0,0.7-0.3,1.4-1,2s-1.4,0.9-2.1,0.9h-1.9c-0.7,0-1.5-0.3-2.1-1s-1-1.3-1-2v-3.5c0-0.7,0.3-1.4,1-2
		s1.4-1,2.2-1h1.9c0.7,0,1.5,0.3,2.1,0.9S704.9,41.9,704.9,42.7z M698.3,42.7v3.3c0,0.3,0.1,0.5,0.3,0.7l0.6,0.5
		c0.1,0.1,0.3,0.2,0.6,0.2h1.9c0.3,0,0.5-0.1,0.8-0.3l0.5-0.4c0.2-0.2,0.3-0.4,0.3-0.7v-3.3c0-0.3-0.1-0.6-0.3-0.7l-0.6-0.5
		c-0.2-0.2-0.4-0.2-0.7-0.2H700c-0.4,0-0.7,0.1-0.9,0.3l-0.6,0.5C698.4,42.3,698.3,42.5,698.3,42.7z"/>
	<path d="M712.6,41.6l-2.2,1.5v5.2c0,0.2-0.1,0.4-0.2,0.6s-0.4,0.2-0.6,0.2s-0.4-0.1-0.6-0.2s-0.2-0.4-0.2-0.6v-7.8
		c0-0.2,0.1-0.4,0.2-0.6s0.4-0.2,0.6-0.2c0.2,0,0.4,0.1,0.6,0.2s0.2,0.4,0.2,0.6v0.5l1.5-0.9c0.5-0.3,1.1-0.5,1.7-0.5h0.8
		c0.7,0,1.2,0.2,1.7,0.7s0.7,1,0.8,1.7l0.2,6.2c0,0.2-0.1,0.4-0.2,0.6s-0.4,0.2-0.6,0.2c-0.2,0-0.4-0.1-0.6-0.2s-0.2-0.3-0.3-0.6
		l-0.2-6.1c0-0.6-0.3-0.9-0.9-0.9h-0.8C713.2,41.3,712.9,41.4,712.6,41.6z"/>
</g>
</svg>
